<?xml version="1.0" encoding="UTF-8"?>
<svg id="Layer_1" data-name="Layer 1" xmlns="http://www.w3.org/2000/svg" viewBox="0 0 1907.39 1056.25">
  <defs>
    <style>
      .cls-1 {
        letter-spacing: -.02em;
      }

      .cls-2, .cls-3, .cls-4, .cls-5, .cls-6 {
        stroke-miterlimit: 10;
      }

      .cls-2, .cls-3, .cls-4, .cls-7, .cls-8, .cls-9 {
        fill: none;
      }

      .cls-2, .cls-4, .cls-5, .cls-6, .cls-7 {
        stroke: #ff931e;
      }

      .cls-2, .cls-6, .cls-7, .cls-8, .cls-9 {
        stroke-width: 3px;
      }

      .cls-3 {
        stroke: #00a99d;
        stroke-width: 6px;
      }

      .cls-4 {
        stroke-width: 5px;
      }

      .cls-10 {
        font-size: 30px;
      }

      .cls-10, .cls-11 {
        font-family: Arial-BoldMT, Arial;
        font-weight: 700;
      }

      .cls-10, .cls-5, .cls-12 {
        fill: #ff931e;
      }

      .cls-11 {
        font-size: 36.23px;
      }

      .cls-6 {
        fill: #fff2e6;
      }

      .cls-12, .cls-13, .cls-14 {
        stroke-width: 0px;
      }

      .cls-13 {
        fill: #fff;
      }

      .cls-14 {
        fill: #00a99d;
      }

      .cls-7, .cls-8, .cls-9 {
        stroke-linecap: round;
        stroke-linejoin: round;
      }

      .cls-8 {
        stroke: #fff;
      }

      .cls-9 {
        stroke: #000;
      }
    </style>
  </defs>
  <rect class="cls-6" x="685.89" y="572.75" width="707" height="482" rx="28.27" ry="28.27"/>
  <rect class="cls-12" y="222.33" width="632.39" height="143.92" rx="20.7" ry="20.7"/>
  <g>
    <path class="cls-13" d="M149.84,278.01l4.2,1.33c-.64,2.34-1.72,4.08-3.21,5.22-1.5,1.14-3.4,1.71-5.71,1.71-2.85,0-5.2-.97-7.03-2.92s-2.75-4.61-2.75-7.99c0-3.57.92-6.35,2.77-8.33s4.27-2.97,7.28-2.97c2.63,0,4.76.78,6.4,2.33.98.92,1.71,2.24,2.2,3.96l-4.29,1.03c-.25-1.11-.78-1.99-1.59-2.64-.81-.64-1.79-.97-2.94-.97-1.59,0-2.88.57-3.88,1.71s-1.49,2.99-1.49,5.55c0,2.71.49,4.65,1.46,5.8s2.25,1.73,3.81,1.73c1.15,0,2.14-.37,2.97-1.1s1.43-1.88,1.79-3.46Z"/>
    <path class="cls-13" d="M157.78,285.9v-21.47h9.13c2.29,0,3.96.19,5,.58,1.04.39,1.87,1.07,2.5,2.06s.94,2.11.94,3.38c0,1.61-.47,2.94-1.42,3.99s-2.36,1.71-4.25,1.98c.94.55,1.71,1.15,2.32,1.8.61.65,1.43,1.82,2.47,3.49l2.62,4.19h-5.19l-3.13-4.67c-1.11-1.67-1.88-2.72-2.29-3.16s-.84-.73-1.3-.89-1.19-.24-2.18-.24h-.88v8.96h-4.34ZM162.12,273.51h3.21c2.08,0,3.38-.09,3.9-.26s.92-.48,1.22-.91.44-.97.44-1.61c0-.72-.19-1.31-.58-1.75-.39-.44-.93-.73-1.63-.84-.35-.05-1.41-.07-3.16-.07h-3.38v5.45Z"/>
    <path class="cls-13" d="M179.43,285.9v-21.47h15.92v3.63h-11.59v4.76h10.78v3.62h-10.78v5.84h12v3.62h-16.33Z"/>
    <path class="cls-13" d="M218.81,285.9h-4.72l-1.88-4.88h-8.58l-1.77,4.88h-4.6l8.36-21.47h4.58l8.6,21.47ZM210.82,277.41l-2.96-7.97-2.9,7.97h5.86Z"/>
    <path class="cls-13" d="M223.71,285.9v-17.84h-6.37v-3.63h17.07v3.63h-6.36v17.84h-4.34Z"/>
    <path class="cls-13" d="M237.2,285.9v-21.47h15.92v3.63h-11.59v4.76h10.78v3.62h-10.78v5.84h12v3.62h-16.33Z"/>
    <path class="cls-13" d="M284.55,283.28l-2.49,3.18c-1.22-.6-2.39-1.42-3.52-2.46-.87.78-1.79,1.36-2.77,1.73s-2.14.56-3.49.56c-2.68,0-4.69-.75-6.04-2.26-1.04-1.16-1.57-2.5-1.57-4.01,0-1.38.41-2.61,1.23-3.71s2.05-2.05,3.68-2.86c-.73-.87-1.28-1.7-1.66-2.48s-.56-1.53-.56-2.23c0-1.3.52-2.4,1.56-3.3,1.04-.9,2.52-1.35,4.45-1.35s3.31.47,4.35,1.42,1.57,2.1,1.57,3.47c0,.87-.26,1.69-.78,2.48s-1.56,1.67-3.13,2.65l2.99,3.94c.35-.62.65-1.44.91-2.45l3.72.85c-.37,1.32-.69,2.28-.97,2.89s-.57,1.12-.88,1.53c.46.43,1.05.9,1.78,1.41.73.51,1.26.85,1.6,1.02ZM271.73,276.07c-.95.48-1.66,1.05-2.12,1.73s-.7,1.36-.7,2.07c0,.89.29,1.61.87,2.18s1.36.84,2.34.84c.64,0,1.26-.13,1.86-.38s1.25-.67,1.95-1.26l-4.19-5.17ZM273.34,271.61l1.11-.85c.82-.63,1.23-1.26,1.23-1.89,0-.53-.2-.98-.59-1.35-.4-.37-.93-.56-1.6-.56s-1.17.16-1.54.49-.56.71-.56,1.14c0,.51.31,1.12.94,1.85l1.01,1.17Z"/>
    <path class="cls-13" d="M295.49,285.9v-21.47h6.49l3.9,14.65,3.85-14.65h6.5v21.47h-4.03v-16.9l-4.26,16.9h-4.17l-4.25-16.9v16.9h-4.03Z"/>
    <path class="cls-13" d="M339.9,285.9h-4.72l-1.88-4.88h-8.58l-1.77,4.88h-4.6l8.36-21.47h4.58l8.6,21.47ZM331.92,277.41l-2.96-7.97-2.9,7.97h5.86Z"/>
    <path class="cls-13" d="M342.25,285.9v-21.47h4.22l8.79,14.34v-14.34h4.03v21.47h-4.35l-8.66-14v14h-4.03Z"/>
    <path class="cls-13" d="M383.23,285.9h-4.72l-1.88-4.88h-8.58l-1.77,4.88h-4.6l8.36-21.47h4.58l8.6,21.47ZM375.25,277.41l-2.96-7.97-2.9,7.97h5.86Z"/>
    <path class="cls-13" d="M395.52,278.01v-3.62h9.35v8.55c-.91.88-2.22,1.65-3.95,2.32s-3.47,1-5.24,1c-2.25,0-4.2-.47-5.87-1.41s-2.92-2.29-3.76-4.04-1.26-3.66-1.26-5.72c0-2.24.47-4.22,1.41-5.96s2.31-3.07,4.12-4c1.38-.71,3.09-1.07,5.14-1.07,2.67,0,4.75.56,6.25,1.68,1.5,1.12,2.46,2.66,2.89,4.64l-4.31.81c-.3-1.05-.87-1.89-1.71-2.5-.83-.61-1.88-.92-3.13-.92-1.89,0-3.4.6-4.52,1.8s-1.68,2.98-1.68,5.35c0,2.55.57,4.46,1.7,5.73s2.62,1.91,4.45,1.91c.91,0,1.82-.18,2.73-.53s1.7-.79,2.35-1.3v-2.72h-4.97Z"/>
    <path class="cls-13" d="M408.87,285.9v-21.47h15.92v3.63h-11.59v4.76h10.78v3.62h-10.78v5.84h12v3.62h-16.33Z"/>
    <path class="cls-13" d="M135.22,320.71l5.06-.49c.3,1.7.92,2.95,1.85,3.74.93.8,2.19,1.2,3.77,1.2,1.67,0,2.94-.35,3.79-1.06.85-.71,1.27-1.54,1.27-2.49,0-.61-.18-1.13-.54-1.56s-.98-.8-1.87-1.12c-.61-.21-2-.59-4.17-1.12-2.79-.69-4.75-1.54-5.87-2.55-1.58-1.42-2.37-3.15-2.37-5.19,0-1.31.37-2.54,1.12-3.68.74-1.14,1.82-2.01,3.22-2.61s3.09-.9,5.07-.9c3.23,0,5.67.71,7.3,2.13,1.63,1.42,2.49,3.31,2.58,5.68l-5.2.23c-.22-1.32-.7-2.28-1.43-2.86s-1.83-.87-3.29-.87-2.7.31-3.55.93c-.55.4-.83.93-.83,1.6,0,.61.26,1.13.77,1.56.66.55,2.25,1.12,4.78,1.72,2.53.6,4.4,1.22,5.62,1.85,1.21.64,2.16,1.51,2.85,2.62.68,1.11,1.03,2.48,1.03,4.1,0,1.48-.41,2.86-1.23,4.15-.82,1.29-1.98,2.25-3.48,2.87-1.5.63-3.37.94-5.61.94-3.26,0-5.76-.75-7.51-2.26-1.75-1.51-2.79-3.7-3.13-6.58Z"/>
    <path class="cls-13" d="M160.51,303.33h5.2v13.96c0,2.21.06,3.65.19,4.31.22,1.05.75,1.9,1.59,2.54s1.98.96,3.44.96,2.59-.3,3.34-.91,1.2-1.34,1.35-2.22c.15-.88.23-2.34.23-4.38v-14.25h5.2v13.53c0,3.09-.14,5.28-.42,6.56-.28,1.28-.8,2.36-1.55,3.23-.76.88-1.77,1.58-3.03,2.1-1.27.52-2.92.78-4.96.78-2.46,0-4.33-.28-5.6-.85s-2.28-1.31-3.01-2.21c-.74-.91-1.22-1.86-1.46-2.86-.34-1.48-.51-3.66-.51-6.54v-13.74Z"/>
    <path class="cls-13" d="M186.56,303.33h10.3c2.04,0,3.56.08,4.56.25s1.9.52,2.69,1.06,1.45,1.26,1.98,2.15c.53.9.79,1.9.79,3.01,0,1.21-.33,2.31-.98,3.32-.65,1.01-1.53,1.76-2.64,2.27,1.57.46,2.78,1.24,3.62,2.34s1.27,2.4,1.27,3.88c0,1.17-.27,2.31-.82,3.42s-1.29,1.99-2.23,2.65c-.94.66-2.11,1.07-3.49,1.22-.87.09-2.96.15-6.27.18h-8.77v-25.77ZM191.76,307.62v5.96h3.41c2.03,0,3.29-.03,3.78-.09.89-.11,1.59-.41,2.1-.92s.76-1.18.76-2.01-.22-1.44-.66-1.94-1.09-.8-1.96-.91c-.52-.06-2-.09-4.45-.09h-2.99ZM191.76,317.87v6.89h4.82c1.87,0,3.06-.05,3.57-.16.77-.14,1.4-.48,1.89-1.03s.73-1.27.73-2.19c0-.77-.19-1.43-.56-1.97-.38-.54-.92-.93-1.63-1.18-.71-.25-2.25-.37-4.61-.37h-4.2Z"/>
    <path class="cls-13" d="M211.22,320.71l5.06-.49c.3,1.7.92,2.95,1.85,3.74.93.8,2.19,1.2,3.77,1.2,1.67,0,2.94-.35,3.79-1.06.85-.71,1.27-1.54,1.27-2.49,0-.61-.18-1.13-.54-1.56s-.98-.8-1.87-1.12c-.61-.21-2-.59-4.17-1.12-2.79-.69-4.75-1.54-5.87-2.55-1.58-1.42-2.37-3.15-2.37-5.19,0-1.31.37-2.54,1.12-3.68.74-1.14,1.82-2.01,3.22-2.61s3.09-.9,5.07-.9c3.23,0,5.67.71,7.3,2.13,1.63,1.42,2.49,3.31,2.58,5.68l-5.2.23c-.22-1.32-.7-2.28-1.43-2.86s-1.83-.87-3.29-.87-2.7.31-3.55.93c-.55.4-.83.93-.83,1.6,0,.61.26,1.13.77,1.56.66.55,2.25,1.12,4.78,1.72,2.53.6,4.4,1.22,5.62,1.85,1.21.64,2.16,1.51,2.85,2.62.68,1.11,1.03,2.48,1.03,4.1,0,1.48-.41,2.86-1.23,4.15-.82,1.29-1.98,2.25-3.48,2.87-1.5.63-3.37.94-5.61.94-3.26,0-5.76-.75-7.51-2.26-1.75-1.51-2.79-3.7-3.13-6.58Z"/>
    <path class="cls-13" d="M253.03,319.62l5.04,1.6c-.77,2.81-2.06,4.9-3.86,6.27-1.8,1.37-4.08,2.05-6.85,2.05-3.42,0-6.23-1.17-8.44-3.51-2.2-2.34-3.3-5.53-3.3-9.59,0-4.29,1.11-7.62,3.32-9.99,2.21-2.37,5.13-3.56,8.74-3.56,3.15,0,5.71.93,7.68,2.79,1.17,1.1,2.05,2.68,2.64,4.75l-5.15,1.23c-.3-1.34-.94-2.39-1.91-3.16s-2.14-1.16-3.52-1.16c-1.91,0-3.46.69-4.65,2.06-1.19,1.37-1.78,3.59-1.78,6.66,0,3.26.59,5.58,1.76,6.96,1.17,1.38,2.7,2.07,4.57,2.07,1.38,0,2.57-.44,3.57-1.32s1.71-2.26,2.14-4.15Z"/>
    <path class="cls-13" d="M262.56,329.1v-25.77h10.95c2.75,0,4.75.23,6,.69s2.25,1.29,3,2.47c.75,1.18,1.12,2.54,1.12,4.06,0,1.93-.57,3.53-1.71,4.79-1.14,1.26-2.83,2.05-5.1,2.38,1.12.66,2.05,1.38,2.79,2.16.73.79,1.72,2.18,2.96,4.18l3.15,5.03h-6.22l-3.76-5.61c-1.34-2-2.25-3.27-2.74-3.79-.49-.52-1.01-.88-1.56-1.07s-1.42-.29-2.62-.29h-1.05v10.76h-5.2ZM267.76,314.23h3.85c2.5,0,4.05-.11,4.67-.32.62-.21,1.11-.57,1.46-1.09s.53-1.16.53-1.93c0-.87-.23-1.57-.69-2.1s-1.12-.87-1.96-1.01c-.42-.06-1.69-.09-3.8-.09h-4.06v6.54Z"/>
    <path class="cls-13" d="M288.38,329.1v-25.77h5.2v25.77h-5.2Z"/>
    <path class="cls-13" d="M298.54,329.1v-25.77h8.35c3.16,0,5.23.13,6.19.39,1.48.39,2.71,1.23,3.71,2.52,1,1.29,1.49,2.97,1.49,5.02,0,1.58-.29,2.91-.86,3.99-.58,1.08-1.3,1.92-2.19,2.54-.88.61-1.78,1.02-2.7,1.22-1.24.25-3.04.37-5.4.37h-3.39v9.72h-5.2ZM303.74,307.69v7.31h2.85c2.05,0,3.42-.13,4.11-.4.69-.27,1.23-.69,1.63-1.27s.59-1.24.59-2c0-.94-.28-1.71-.83-2.32s-1.25-.99-2.09-1.14c-.62-.12-1.87-.18-3.74-.18h-2.51Z"/>
    <path class="cls-13" d="M328.34,329.1v-21.41h-7.65v-4.36h20.48v4.36h-7.63v21.41h-5.2Z"/>
    <path class="cls-13" d="M344.38,329.1v-25.77h5.2v25.77h-5.2Z"/>
    <path class="cls-13" d="M353.48,316.37c0-2.62.39-4.83,1.18-6.61.59-1.31,1.38-2.49,2.4-3.53,1.01-1.04,2.12-1.82,3.33-2.32,1.61-.68,3.46-1.02,5.55-1.02,3.8,0,6.83,1.18,9.11,3.53,2.28,2.36,3.42,5.63,3.42,9.83s-1.13,7.41-3.39,9.76-5.28,3.52-9.07,3.52-6.88-1.17-9.14-3.51c-2.26-2.34-3.39-5.56-3.39-9.66ZM358.84,316.2c0,2.92.67,5.13,2.02,6.63,1.35,1.51,3.06,2.26,5.13,2.26s3.78-.75,5.11-2.24c1.33-1.49,2-3.73,2-6.72s-.65-5.16-1.94-6.61c-1.29-1.45-3.01-2.18-5.16-2.18s-3.87.74-5.18,2.21c-1.31,1.47-1.97,3.69-1.97,6.65Z"/>
    <path class="cls-13" d="M382.59,329.1v-25.77h5.06l10.55,17.21v-17.21h4.83v25.77h-5.22l-10.39-16.8v16.8h-4.83Z"/>
    <path class="cls-13" d="M418.53,329.1v-25.77h8.35c3.16,0,5.23.13,6.19.39,1.48.39,2.71,1.23,3.71,2.52,1,1.29,1.49,2.97,1.49,5.02,0,1.58-.29,2.91-.86,3.99-.58,1.08-1.3,1.92-2.19,2.54-.88.61-1.78,1.02-2.7,1.22-1.24.25-3.04.37-5.4.37h-3.39v9.72h-5.2ZM423.73,307.69v7.31h2.85c2.05,0,3.42-.13,4.11-.4.69-.27,1.23-.69,1.63-1.27s.59-1.24.59-2c0-.94-.28-1.71-.83-2.32s-1.25-.99-2.09-1.14c-.62-.12-1.87-.18-3.74-.18h-2.51Z"/>
    <path class="cls-13" d="M442.68,329.1v-25.56h5.2v21.21h12.94v4.34h-18.14Z"/>
    <path class="cls-13" d="M487.76,329.1h-5.66l-2.25-5.85h-10.3l-2.13,5.85h-5.52l10.04-25.77h5.5l10.32,25.77ZM478.18,318.9l-3.55-9.56-3.48,9.56h7.03Z"/>
    <path class="cls-13" d="M490.57,329.1v-25.77h5.06l10.55,17.21v-17.21h4.83v25.77h-5.22l-10.39-16.8v16.8h-4.83Z"/>
    <path class="cls-13" d="M515.2,320.71l5.06-.49c.3,1.7.92,2.95,1.85,3.74.93.8,2.19,1.2,3.77,1.2,1.67,0,2.94-.35,3.79-1.06.85-.71,1.27-1.54,1.27-2.49,0-.61-.18-1.13-.54-1.56s-.98-.8-1.87-1.12c-.61-.21-2-.59-4.17-1.12-2.79-.69-4.75-1.54-5.87-2.55-1.58-1.42-2.37-3.15-2.37-5.19,0-1.31.37-2.54,1.12-3.68.74-1.14,1.82-2.01,3.22-2.61s3.09-.9,5.07-.9c3.23,0,5.67.71,7.3,2.13,1.63,1.42,2.49,3.31,2.58,5.68l-5.2.23c-.22-1.32-.7-2.28-1.43-2.86s-1.83-.87-3.29-.87-2.7.31-3.55.93c-.55.4-.83.93-.83,1.6,0,.61.26,1.13.77,1.56.66.55,2.25,1.12,4.78,1.72,2.53.6,4.4,1.22,5.62,1.85,1.21.64,2.16,1.51,2.85,2.62.68,1.11,1.03,2.48,1.03,4.1,0,1.48-.41,2.86-1.23,4.15-.82,1.29-1.98,2.25-3.48,2.87-1.5.63-3.37.94-5.61.94-3.26,0-5.76-.75-7.51-2.26-1.75-1.51-2.79-3.7-3.13-6.58Z"/>
  </g>
  <rect class="cls-12" x="755.43" y="222.28" width="557.4" height="143.92" rx="20.7" ry="20.7"/>
  <g>
    <path class="cls-13" d="M919.27,277.96l4.2,1.33c-.64,2.34-1.72,4.08-3.21,5.22-1.5,1.14-3.4,1.71-5.71,1.71-2.85,0-5.2-.97-7.03-2.92s-2.75-4.61-2.75-7.99c0-3.57.92-6.35,2.77-8.33s4.27-2.97,7.28-2.97c2.63,0,4.76.78,6.4,2.33.98.92,1.71,2.24,2.2,3.96l-4.29,1.03c-.25-1.11-.78-1.99-1.59-2.64-.81-.64-1.79-.97-2.94-.97-1.59,0-2.88.57-3.88,1.71s-1.49,2.99-1.49,5.55c0,2.71.49,4.65,1.46,5.8s2.25,1.73,3.81,1.73c1.15,0,2.14-.37,2.97-1.1s1.43-1.88,1.79-3.46Z"/>
    <path class="cls-13" d="M927.21,285.85v-21.47h9.13c2.29,0,3.96.19,5,.58,1.04.39,1.87,1.07,2.5,2.06s.94,2.11.94,3.38c0,1.61-.47,2.94-1.42,3.99s-2.36,1.71-4.25,1.98c.94.55,1.71,1.15,2.32,1.8.61.65,1.43,1.82,2.47,3.49l2.62,4.19h-5.19l-3.13-4.67c-1.11-1.67-1.88-2.72-2.29-3.16s-.84-.73-1.3-.89-1.19-.24-2.18-.24h-.88v8.96h-4.34ZM931.55,273.46h3.21c2.08,0,3.38-.09,3.9-.26s.92-.48,1.22-.91.44-.97.44-1.61c0-.72-.19-1.31-.58-1.75-.39-.44-.93-.73-1.63-.84-.35-.05-1.41-.07-3.16-.07h-3.38v5.45Z"/>
    <path class="cls-13" d="M948.86,285.85v-21.47h15.92v3.63h-11.59v4.76h10.78v3.62h-10.78v5.84h12v3.62h-16.33Z"/>
    <path class="cls-13" d="M988.24,285.85h-4.72l-1.88-4.88h-8.58l-1.77,4.88h-4.6l8.36-21.47h4.58l8.6,21.47ZM980.25,277.36l-2.96-7.97-2.9,7.97h5.86Z"/>
    <path class="cls-13" d="M993.14,285.85v-17.84h-6.37v-3.63h17.07v3.63h-6.36v17.84h-4.34Z"/>
    <path class="cls-13" d="M1006.63,285.85v-21.47h15.92v3.63h-11.59v4.76h10.78v3.62h-10.78v5.84h12v3.62h-16.33Z"/>
    <path class="cls-13" d="M1053.98,283.23l-2.49,3.18c-1.22-.6-2.39-1.42-3.52-2.46-.87.78-1.79,1.36-2.77,1.73s-2.14.56-3.49.56c-2.68,0-4.69-.75-6.04-2.26-1.04-1.16-1.57-2.5-1.57-4.01,0-1.38.41-2.61,1.23-3.71s2.05-2.05,3.68-2.86c-.73-.87-1.28-1.7-1.66-2.48s-.56-1.53-.56-2.23c0-1.3.52-2.4,1.56-3.3,1.04-.9,2.52-1.35,4.45-1.35s3.31.47,4.35,1.42,1.57,2.1,1.57,3.47c0,.87-.26,1.69-.78,2.48s-1.56,1.67-3.13,2.65l2.99,3.94c.35-.62.65-1.44.91-2.45l3.72.85c-.37,1.32-.69,2.28-.97,2.89s-.57,1.12-.88,1.53c.46.43,1.05.9,1.78,1.41.73.51,1.26.85,1.6,1.02ZM1041.16,276.03c-.95.48-1.66,1.05-2.12,1.73s-.7,1.36-.7,2.07c0,.89.29,1.61.87,2.18s1.36.84,2.34.84c.64,0,1.26-.13,1.86-.38s1.25-.67,1.95-1.26l-4.19-5.17ZM1042.77,271.56l1.11-.85c.82-.63,1.23-1.26,1.23-1.89,0-.53-.2-.98-.59-1.35-.4-.37-.93-.56-1.6-.56s-1.17.16-1.54.49-.56.71-.56,1.14c0,.51.31,1.12.94,1.85l1.01,1.17Z"/>
    <path class="cls-13" d="M1064.92,285.85v-21.47h6.49l3.9,14.65,3.85-14.65h6.5v21.47h-4.03v-16.9l-4.26,16.9h-4.17l-4.25-16.9v16.9h-4.03Z"/>
    <path class="cls-13" d="M1109.33,285.85h-4.72l-1.88-4.88h-8.58l-1.77,4.88h-4.6l8.36-21.47h4.58l8.6,21.47ZM1101.35,277.36l-2.96-7.97-2.9,7.97h5.86Z"/>
    <path class="cls-13" d="M1111.68,285.85v-21.47h4.22l8.79,14.34v-14.34h4.03v21.47h-4.35l-8.66-14v14h-4.03Z"/>
    <path class="cls-13" d="M1152.66,285.85h-4.72l-1.88-4.88h-8.58l-1.77,4.88h-4.6l8.36-21.47h4.58l8.6,21.47ZM1144.68,277.36l-2.96-7.97-2.9,7.97h5.86Z"/>
    <path class="cls-13" d="M1164.95,277.96v-3.62h9.35v8.55c-.91.88-2.22,1.65-3.95,2.32s-3.47,1-5.24,1c-2.25,0-4.2-.47-5.87-1.41s-2.92-2.29-3.76-4.04-1.26-3.66-1.26-5.72c0-2.24.47-4.22,1.41-5.96s2.31-3.07,4.12-4c1.38-.71,3.09-1.07,5.14-1.07,2.67,0,4.75.56,6.25,1.68,1.5,1.12,2.46,2.66,2.89,4.64l-4.31.81c-.3-1.05-.87-1.89-1.71-2.5-.83-.61-1.88-.92-3.13-.92-1.89,0-3.4.6-4.52,1.8s-1.68,2.98-1.68,5.35c0,2.55.57,4.46,1.7,5.73s2.62,1.91,4.45,1.91c.91,0,1.82-.18,2.73-.53s1.7-.79,2.35-1.3v-2.72h-4.97Z"/>
    <path class="cls-13" d="M1178.3,285.85v-21.47h15.92v3.63h-11.59v4.76h10.78v3.62h-10.78v5.84h12v3.62h-16.33Z"/>
    <path class="cls-13" d="M904.65,320.67l5.06-.49c.3,1.7.92,2.95,1.85,3.74.93.8,2.19,1.2,3.77,1.2,1.67,0,2.94-.35,3.79-1.06.85-.71,1.27-1.54,1.27-2.49,0-.61-.18-1.13-.54-1.56s-.98-.8-1.87-1.12c-.61-.21-2-.59-4.17-1.12-2.79-.69-4.75-1.54-5.87-2.55-1.58-1.42-2.37-3.15-2.37-5.19,0-1.31.37-2.54,1.12-3.68.74-1.14,1.82-2.01,3.22-2.61s3.09-.9,5.07-.9c3.23,0,5.67.71,7.3,2.13,1.63,1.42,2.49,3.31,2.58,5.68l-5.2.23c-.22-1.32-.7-2.28-1.43-2.86s-1.83-.87-3.29-.87-2.7.31-3.55.93c-.55.4-.83.93-.83,1.6,0,.61.26,1.13.77,1.56.66.55,2.25,1.12,4.78,1.72,2.53.6,4.4,1.22,5.62,1.85,1.21.64,2.16,1.51,2.85,2.62.68,1.11,1.03,2.48,1.03,4.1,0,1.48-.41,2.86-1.23,4.15-.82,1.29-1.98,2.25-3.48,2.87-1.5.63-3.37.94-5.61.94-3.26,0-5.76-.75-7.51-2.26-1.75-1.51-2.79-3.7-3.13-6.58Z"/>
    <path class="cls-13" d="M929.94,303.28h5.2v13.96c0,2.21.06,3.65.19,4.31.22,1.05.75,1.9,1.59,2.54s1.98.96,3.44.96,2.59-.3,3.34-.91,1.2-1.34,1.35-2.22c.15-.88.23-2.34.23-4.38v-14.25h5.2v13.53c0,3.09-.14,5.28-.42,6.56-.28,1.28-.8,2.36-1.55,3.23-.76.88-1.77,1.58-3.03,2.1-1.27.52-2.92.78-4.96.78-2.46,0-4.33-.28-5.6-.85s-2.28-1.31-3.01-2.21c-.74-.91-1.22-1.86-1.46-2.86-.34-1.48-.51-3.66-.51-6.54v-13.74Z"/>
    <path class="cls-13" d="M955.99,303.28h10.3c2.04,0,3.56.08,4.56.25s1.9.52,2.69,1.06,1.45,1.26,1.98,2.15c.53.9.79,1.9.79,3.01,0,1.21-.33,2.31-.98,3.32-.65,1.01-1.53,1.76-2.64,2.27,1.57.46,2.78,1.24,3.62,2.34s1.27,2.4,1.27,3.88c0,1.17-.27,2.31-.82,3.42s-1.29,1.99-2.23,2.65c-.94.66-2.11,1.07-3.49,1.22-.87.09-2.96.15-6.27.18h-8.77v-25.77ZM961.19,307.57v5.96h3.41c2.03,0,3.29-.03,3.78-.09.89-.11,1.59-.41,2.1-.92s.76-1.18.76-2.01-.22-1.44-.66-1.94-1.09-.8-1.96-.91c-.52-.06-2-.09-4.45-.09h-2.99ZM961.19,317.82v6.89h4.82c1.87,0,3.06-.05,3.57-.16.77-.14,1.4-.48,1.89-1.03s.73-1.27.73-2.19c0-.77-.19-1.43-.56-1.97-.38-.54-.92-.93-1.63-1.18-.71-.25-2.25-.37-4.61-.37h-4.2Z"/>
    <path class="cls-13" d="M980.65,320.67l5.06-.49c.3,1.7.92,2.95,1.85,3.74.93.8,2.19,1.2,3.77,1.2,1.67,0,2.94-.35,3.79-1.06.85-.71,1.27-1.54,1.27-2.49,0-.61-.18-1.13-.54-1.56s-.98-.8-1.87-1.12c-.61-.21-2-.59-4.17-1.12-2.79-.69-4.75-1.54-5.87-2.55-1.58-1.42-2.37-3.15-2.37-5.19,0-1.31.37-2.54,1.12-3.68.74-1.14,1.82-2.01,3.22-2.61s3.09-.9,5.07-.9c3.23,0,5.67.71,7.3,2.13,1.63,1.42,2.49,3.31,2.58,5.68l-5.2.23c-.22-1.32-.7-2.28-1.43-2.86s-1.83-.87-3.29-.87-2.7.31-3.55.93c-.55.4-.83.93-.83,1.6,0,.61.26,1.13.77,1.56.66.55,2.25,1.12,4.78,1.72,2.53.6,4.4,1.22,5.62,1.85,1.21.64,2.16,1.51,2.85,2.62.68,1.11,1.03,2.48,1.03,4.1,0,1.48-.41,2.86-1.23,4.15-.82,1.29-1.98,2.25-3.48,2.87-1.5.63-3.37.94-5.61.94-3.26,0-5.76-.75-7.51-2.26-1.75-1.51-2.79-3.7-3.13-6.58Z"/>
    <path class="cls-13" d="M1022.46,319.58l5.04,1.6c-.77,2.81-2.06,4.9-3.86,6.27-1.8,1.37-4.08,2.05-6.85,2.05-3.42,0-6.23-1.17-8.44-3.51-2.2-2.34-3.3-5.53-3.3-9.59,0-4.29,1.11-7.62,3.32-9.99,2.21-2.37,5.13-3.56,8.74-3.56,3.15,0,5.71.93,7.68,2.79,1.17,1.1,2.05,2.68,2.64,4.75l-5.15,1.23c-.3-1.34-.94-2.39-1.91-3.16s-2.14-1.16-3.52-1.16c-1.91,0-3.46.69-4.65,2.06-1.19,1.37-1.78,3.59-1.78,6.66,0,3.26.59,5.58,1.76,6.96,1.17,1.38,2.7,2.07,4.57,2.07,1.38,0,2.57-.44,3.57-1.32s1.71-2.26,2.14-4.15Z"/>
    <path class="cls-13" d="M1031.99,329.05v-25.77h10.95c2.75,0,4.75.23,6,.69s2.25,1.29,3,2.47c.75,1.18,1.12,2.54,1.12,4.06,0,1.93-.57,3.53-1.71,4.79-1.14,1.26-2.83,2.05-5.1,2.38,1.12.66,2.05,1.38,2.79,2.16.73.79,1.72,2.18,2.96,4.18l3.15,5.03h-6.22l-3.76-5.61c-1.34-2-2.25-3.27-2.74-3.79-.49-.52-1.01-.88-1.56-1.07s-1.42-.29-2.62-.29h-1.05v10.76h-5.2ZM1037.19,314.18h3.85c2.5,0,4.05-.11,4.67-.32.62-.21,1.11-.57,1.46-1.09s.53-1.16.53-1.93c0-.87-.23-1.57-.69-2.1s-1.12-.87-1.96-1.01c-.42-.06-1.69-.09-3.8-.09h-4.06v6.54Z"/>
    <path class="cls-13" d="M1057.81,329.05v-25.77h5.2v25.77h-5.2Z"/>
    <path class="cls-13" d="M1067.97,329.05v-25.77h8.35c3.16,0,5.23.13,6.19.39,1.48.39,2.71,1.23,3.71,2.52,1,1.29,1.49,2.97,1.49,5.02,0,1.58-.29,2.91-.86,3.99-.58,1.08-1.3,1.92-2.19,2.54-.88.61-1.78,1.02-2.7,1.22-1.24.25-3.04.37-5.4.37h-3.39v9.72h-5.2ZM1073.17,307.64v7.31h2.85c2.05,0,3.42-.13,4.11-.4.69-.27,1.23-.69,1.63-1.27s.59-1.24.59-2c0-.94-.28-1.71-.83-2.32s-1.25-.99-2.09-1.14c-.62-.12-1.87-.18-3.74-.18h-2.51Z"/>
    <path class="cls-13" d="M1097.77,329.05v-21.41h-7.65v-4.36h20.48v4.36h-7.63v21.41h-5.2Z"/>
    <path class="cls-13" d="M1113.8,329.05v-25.77h5.2v25.77h-5.2Z"/>
    <path class="cls-13" d="M1122.91,316.32c0-2.62.39-4.83,1.18-6.61.59-1.31,1.38-2.49,2.4-3.53,1.01-1.04,2.12-1.82,3.33-2.32,1.61-.68,3.46-1.02,5.55-1.02,3.8,0,6.83,1.18,9.11,3.53,2.28,2.36,3.42,5.63,3.42,9.83s-1.13,7.41-3.39,9.76-5.28,3.52-9.07,3.52-6.88-1.17-9.14-3.51c-2.26-2.34-3.39-5.56-3.39-9.66ZM1128.27,316.15c0,2.92.67,5.13,2.02,6.63,1.35,1.51,3.06,2.26,5.13,2.26s3.78-.75,5.11-2.24c1.33-1.49,2-3.73,2-6.72s-.65-5.16-1.94-6.61c-1.29-1.45-3.01-2.18-5.16-2.18s-3.87.74-5.18,2.21c-1.31,1.47-1.97,3.69-1.97,6.65Z"/>
    <path class="cls-13" d="M1152.02,329.05v-25.77h5.06l10.55,17.21v-17.21h4.83v25.77h-5.22l-10.39-16.8v16.8h-4.83Z"/>
    <path class="cls-13" d="M1176.64,320.67l5.06-.49c.3,1.7.92,2.95,1.85,3.74.93.8,2.19,1.2,3.77,1.2,1.67,0,2.94-.35,3.79-1.06.85-.71,1.27-1.54,1.27-2.49,0-.61-.18-1.13-.54-1.56s-.98-.8-1.87-1.12c-.61-.21-2-.59-4.17-1.12-2.79-.69-4.75-1.54-5.87-2.55-1.58-1.42-2.37-3.15-2.37-5.19,0-1.31.37-2.54,1.12-3.68.74-1.14,1.82-2.01,3.22-2.61s3.09-.9,5.07-.9c3.23,0,5.67.71,7.3,2.13,1.63,1.42,2.49,3.31,2.58,5.68l-5.2.23c-.22-1.32-.7-2.28-1.43-2.86s-1.83-.87-3.29-.87-2.7.31-3.55.93c-.55.4-.83.93-.83,1.6,0,.61.26,1.13.77,1.56.66.55,2.25,1.12,4.78,1.72,2.53.6,4.4,1.22,5.62,1.85,1.21.64,2.16,1.51,2.85,2.62.68,1.11,1.03,2.48,1.03,4.1,0,1.48-.41,2.86-1.23,4.15-.82,1.29-1.98,2.25-3.48,2.87-1.5.63-3.37.94-5.61.94-3.26,0-5.76-.75-7.51-2.26-1.75-1.51-2.79-3.7-3.13-6.58Z"/>
  </g>
  <rect class="cls-12" x="759.46" y="619.13" width="557.4" height="143.92" rx="20.7" ry="20.7"/>
  <g>
    <path class="cls-13" d="M907.55,673.81v-3.62h9.35v8.55c-.91.88-2.22,1.65-3.95,2.32s-3.47,1-5.24,1c-2.25,0-4.2-.47-5.87-1.41s-2.92-2.29-3.76-4.04-1.26-3.66-1.26-5.72c0-2.24.47-4.22,1.41-5.96s2.31-3.07,4.12-4c1.38-.71,3.09-1.07,5.14-1.07,2.67,0,4.75.56,6.25,1.68,1.5,1.12,2.46,2.66,2.89,4.64l-4.31.81c-.3-1.05-.87-1.89-1.71-2.5-.83-.61-1.88-.92-3.13-.92-1.89,0-3.4.6-4.52,1.8s-1.68,2.98-1.68,5.35c0,2.55.57,4.46,1.7,5.73s2.62,1.91,4.45,1.91c.91,0,1.82-.18,2.73-.53s1.7-.79,2.35-1.3v-2.72h-4.97Z"/>
    <path class="cls-13" d="M920.9,681.7v-21.47h15.92v3.63h-11.59v4.76h10.78v3.62h-10.78v5.84h12v3.62h-16.33Z"/>
    <path class="cls-13" d="M940.95,681.7v-21.47h4.22l8.79,14.34v-14.34h4.03v21.47h-4.35l-8.66-14v14h-4.03Z"/>
    <path class="cls-13" d="M962.57,681.7v-21.47h15.92v3.63h-11.59v4.76h10.78v3.62h-10.78v5.84h12v3.62h-16.33Z"/>
    <path class="cls-13" d="M982.6,681.7v-21.47h9.13c2.29,0,3.96.19,5,.58,1.04.39,1.87,1.07,2.5,2.06s.94,2.11.94,3.38c0,1.61-.47,2.94-1.42,3.99s-2.36,1.71-4.25,1.98c.94.55,1.71,1.15,2.32,1.8.61.65,1.43,1.82,2.47,3.49l2.62,4.19h-5.19l-3.13-4.67c-1.11-1.67-1.88-2.72-2.29-3.16s-.84-.73-1.3-.89-1.19-.24-2.18-.24h-.88v8.96h-4.34ZM986.93,669.31h3.21c2.08,0,3.38-.09,3.9-.26s.92-.48,1.22-.91.44-.97.44-1.61c0-.72-.19-1.31-.58-1.75-.39-.44-.93-.73-1.63-.84-.35-.05-1.41-.07-3.16-.07h-3.38v5.45Z"/>
    <path class="cls-13" d="M1023.61,681.7h-4.72l-1.88-4.88h-8.58l-1.77,4.88h-4.6l8.36-21.47h4.58l8.6,21.47ZM1015.63,673.21l-2.96-7.97-2.9,7.97h5.86Z"/>
    <path class="cls-13" d="M1028.52,681.7v-17.84h-6.37v-3.63h17.07v3.63h-6.36v17.84h-4.34Z"/>
    <path class="cls-13" d="M1042.01,681.7v-21.47h15.92v3.63h-11.59v4.76h10.78v3.62h-10.78v5.84h12v3.62h-16.33Z"/>
    <path class="cls-13" d="M1089.35,679.08l-2.49,3.18c-1.22-.6-2.39-1.42-3.52-2.46-.87.78-1.79,1.36-2.77,1.73s-2.14.56-3.49.56c-2.68,0-4.69-.75-6.04-2.26-1.04-1.16-1.57-2.5-1.57-4.01,0-1.38.41-2.61,1.23-3.71s2.05-2.05,3.68-2.86c-.73-.87-1.28-1.7-1.66-2.48s-.56-1.53-.56-2.23c0-1.3.52-2.4,1.56-3.3,1.04-.9,2.52-1.35,4.45-1.35s3.31.47,4.35,1.42,1.57,2.1,1.57,3.47c0,.87-.26,1.69-.78,2.48s-1.56,1.67-3.13,2.65l2.99,3.94c.35-.62.65-1.44.91-2.45l3.72.85c-.37,1.32-.69,2.28-.97,2.89s-.57,1.12-.88,1.53c.46.43,1.05.9,1.78,1.41.73.51,1.26.85,1.6,1.02ZM1076.54,671.87c-.95.48-1.66,1.05-2.12,1.73s-.7,1.36-.7,2.07c0,.89.29,1.61.87,2.18s1.36.84,2.34.84c.64,0,1.26-.13,1.86-.38s1.25-.67,1.95-1.26l-4.19-5.17ZM1078.15,667.4l1.11-.85c.82-.63,1.23-1.26,1.23-1.89,0-.53-.2-.98-.59-1.35-.4-.37-.93-.56-1.6-.56s-1.17.16-1.54.49-.56.71-.56,1.14c0,.51.31,1.12.94,1.85l1.01,1.17Z"/>
    <path class="cls-13" d="M1099.26,674.71l4.22-.41c.25,1.42.77,2.46,1.54,3.12.78.66,1.82,1,3.14,1,1.4,0,2.45-.3,3.16-.89s1.06-1.28,1.06-2.07c0-.51-.15-.94-.45-1.3s-.82-.67-1.56-.93c-.51-.18-1.67-.49-3.47-.94-2.32-.58-3.96-1.28-4.89-2.12-1.32-1.18-1.98-2.62-1.98-4.32,0-1.09.31-2.12.93-3.07.62-.95,1.51-1.68,2.68-2.18s2.58-.75,4.23-.75c2.7,0,4.72.59,6.09,1.77,1.36,1.18,2.08,2.76,2.15,4.73l-4.34.19c-.19-1.1-.58-1.9-1.19-2.38-.61-.48-1.53-.73-2.75-.73s-2.25.26-2.96.78c-.46.33-.69.78-.69,1.33,0,.51.21.94.64,1.3.55.46,1.88.94,3.98,1.44s3.67,1.01,4.68,1.55c1.01.53,1.8,1.26,2.37,2.18.57.92.86,2.06.86,3.42,0,1.23-.34,2.38-1.03,3.46s-1.65,1.87-2.9,2.4-2.81.78-4.67.78c-2.71,0-4.8-.63-6.25-1.88s-2.32-3.08-2.61-5.49Z"/>
    <path class="cls-13" d="M1120.38,681.7v-21.47h4.34v8.45h8.5v-8.45h4.34v21.47h-4.34v-9.39h-8.5v9.39h-4.34Z"/>
    <path class="cls-13" d="M1161.4,681.7h-4.72l-1.88-4.88h-8.58l-1.77,4.88h-4.6l8.36-21.47h4.58l8.6,21.47ZM1153.41,673.21l-2.96-7.97-2.9,7.97h5.86Z"/>
    <path class="cls-13" d="M1163.71,681.7v-21.47h9.13c2.29,0,3.96.19,5,.58,1.04.39,1.87,1.07,2.5,2.06s.94,2.11.94,3.38c0,1.61-.47,2.94-1.42,3.99s-2.36,1.71-4.25,1.98c.94.55,1.71,1.15,2.32,1.8.61.65,1.43,1.82,2.47,3.49l2.62,4.19h-5.19l-3.13-4.67c-1.11-1.67-1.88-2.72-2.29-3.16s-.84-.73-1.3-.89-1.19-.24-2.18-.24h-.88v8.96h-4.34ZM1168.05,669.31h3.21c2.08,0,3.38-.09,3.9-.26s.92-.48,1.22-.91.44-.97.44-1.61c0-.72-.19-1.31-.58-1.75-.39-.44-.93-.73-1.63-.84-.35-.05-1.41-.07-3.16-.07h-3.38v5.45Z"/>
    <path class="cls-13" d="M1185.36,681.7v-21.47h15.92v3.63h-11.59v4.76h10.78v3.62h-10.78v5.84h12v3.62h-16.33Z"/>
    <path class="cls-13" d="M896.68,716.51l5.06-.49c.3,1.7.92,2.95,1.85,3.74.93.8,2.19,1.2,3.77,1.2,1.67,0,2.94-.35,3.79-1.06.85-.71,1.27-1.54,1.27-2.49,0-.61-.18-1.13-.54-1.56s-.98-.8-1.87-1.12c-.61-.21-2-.59-4.17-1.12-2.79-.69-4.75-1.54-5.87-2.55-1.58-1.42-2.37-3.15-2.37-5.19,0-1.31.37-2.54,1.12-3.68.74-1.14,1.82-2.01,3.22-2.61s3.09-.9,5.07-.9c3.23,0,5.67.71,7.3,2.13,1.63,1.42,2.49,3.31,2.58,5.68l-5.2.23c-.22-1.32-.7-2.28-1.43-2.86s-1.83-.87-3.29-.87-2.7.31-3.55.93c-.55.4-.83.93-.83,1.6,0,.61.26,1.13.77,1.56.66.55,2.25,1.12,4.78,1.72,2.53.6,4.4,1.22,5.62,1.85,1.21.64,2.16,1.51,2.85,2.62.68,1.11,1.03,2.48,1.03,4.1,0,1.48-.41,2.86-1.23,4.15-.82,1.29-1.98,2.25-3.48,2.87-1.5.63-3.37.94-5.61.94-3.26,0-5.76-.75-7.51-2.26-1.75-1.51-2.79-3.7-3.13-6.58Z"/>
    <path class="cls-13" d="M921.97,699.13h5.2v13.96c0,2.21.06,3.65.19,4.31.22,1.05.75,1.9,1.59,2.54s1.98.96,3.44.96,2.59-.3,3.34-.91,1.2-1.34,1.35-2.22c.15-.88.23-2.34.23-4.38v-14.25h5.2v13.53c0,3.09-.14,5.28-.42,6.56-.28,1.28-.8,2.36-1.55,3.23-.76.88-1.77,1.58-3.03,2.1-1.27.52-2.92.78-4.96.78-2.46,0-4.33-.28-5.6-.85s-2.28-1.31-3.01-2.21c-.74-.91-1.22-1.86-1.46-2.86-.34-1.48-.51-3.66-.51-6.54v-13.74Z"/>
    <path class="cls-13" d="M948.02,699.13h10.3c2.04,0,3.56.08,4.56.25s1.9.52,2.69,1.06,1.45,1.26,1.98,2.15c.53.9.79,1.9.79,3.01,0,1.21-.33,2.31-.98,3.32-.65,1.01-1.53,1.76-2.64,2.27,1.57.46,2.78,1.24,3.62,2.34s1.27,2.4,1.27,3.88c0,1.17-.27,2.31-.82,3.42s-1.29,1.99-2.23,2.65c-.94.66-2.11,1.07-3.49,1.22-.87.09-2.96.15-6.27.18h-8.77v-25.77ZM953.22,703.42v5.96h3.41c2.03,0,3.29-.03,3.78-.09.89-.11,1.59-.41,2.1-.92s.76-1.18.76-2.01-.22-1.44-.66-1.94-1.09-.8-1.96-.91c-.52-.06-2-.09-4.45-.09h-2.99ZM953.22,713.67v6.89h4.82c1.87,0,3.06-.05,3.57-.16.77-.14,1.4-.48,1.89-1.03s.73-1.27.73-2.19c0-.77-.19-1.43-.56-1.97-.38-.54-.92-.93-1.63-1.18-.71-.25-2.25-.37-4.61-.37h-4.2Z"/>
    <path class="cls-13" d="M972.68,716.51l5.06-.49c.3,1.7.92,2.95,1.85,3.74.93.8,2.19,1.2,3.77,1.2,1.67,0,2.94-.35,3.79-1.06.85-.71,1.27-1.54,1.27-2.49,0-.61-.18-1.13-.54-1.56s-.98-.8-1.87-1.12c-.61-.21-2-.59-4.17-1.12-2.79-.69-4.75-1.54-5.87-2.55-1.58-1.42-2.37-3.15-2.37-5.19,0-1.31.37-2.54,1.12-3.68.74-1.14,1.82-2.01,3.22-2.61s3.09-.9,5.07-.9c3.23,0,5.67.71,7.3,2.13,1.63,1.42,2.49,3.31,2.58,5.68l-5.2.23c-.22-1.32-.7-2.28-1.43-2.86s-1.83-.87-3.29-.87-2.7.31-3.55.93c-.55.4-.83.93-.83,1.6,0,.61.26,1.13.77,1.56.66.55,2.25,1.12,4.78,1.72,2.53.6,4.4,1.22,5.62,1.85,1.21.64,2.16,1.51,2.85,2.62.68,1.11,1.03,2.48,1.03,4.1,0,1.48-.41,2.86-1.23,4.15-.82,1.29-1.98,2.25-3.48,2.87-1.5.63-3.37.94-5.61.94-3.26,0-5.76-.75-7.51-2.26-1.75-1.51-2.79-3.7-3.13-6.58Z"/>
    <path class="cls-13" d="M1014.49,715.42l5.04,1.6c-.77,2.81-2.06,4.9-3.86,6.27-1.8,1.37-4.08,2.05-6.85,2.05-3.42,0-6.23-1.17-8.44-3.51-2.2-2.34-3.3-5.53-3.3-9.59,0-4.29,1.11-7.62,3.32-9.99,2.21-2.37,5.13-3.56,8.74-3.56,3.15,0,5.71.93,7.68,2.79,1.17,1.1,2.05,2.68,2.64,4.75l-5.15,1.23c-.3-1.34-.94-2.39-1.91-3.16s-2.14-1.16-3.52-1.16c-1.91,0-3.46.69-4.65,2.06-1.19,1.37-1.78,3.59-1.78,6.66,0,3.26.59,5.58,1.76,6.96,1.17,1.38,2.7,2.07,4.57,2.07,1.38,0,2.57-.44,3.57-1.32s1.71-2.26,2.14-4.15Z"/>
    <path class="cls-13" d="M1024.02,724.9v-25.77h10.95c2.75,0,4.75.23,6,.69s2.25,1.29,3,2.47c.75,1.18,1.12,2.54,1.12,4.06,0,1.93-.57,3.53-1.71,4.79-1.14,1.26-2.83,2.05-5.1,2.38,1.12.66,2.05,1.38,2.79,2.16.73.79,1.72,2.18,2.96,4.18l3.15,5.03h-6.22l-3.76-5.61c-1.34-2-2.25-3.27-2.74-3.79-.49-.52-1.01-.88-1.56-1.07s-1.42-.29-2.62-.29h-1.05v10.76h-5.2ZM1029.22,710.03h3.85c2.5,0,4.05-.11,4.67-.32.62-.21,1.11-.57,1.46-1.09s.53-1.16.53-1.93c0-.87-.23-1.57-.69-2.1s-1.12-.87-1.96-1.01c-.42-.06-1.69-.09-3.8-.09h-4.06v6.54Z"/>
    <path class="cls-13" d="M1049.84,724.9v-25.77h5.2v25.77h-5.2Z"/>
    <path class="cls-13" d="M1060,724.9v-25.77h8.35c3.16,0,5.23.13,6.19.39,1.48.39,2.71,1.23,3.71,2.52,1,1.29,1.49,2.97,1.49,5.02,0,1.58-.29,2.91-.86,3.99-.58,1.08-1.3,1.92-2.19,2.54-.88.61-1.78,1.02-2.7,1.22-1.24.25-3.04.37-5.4.37h-3.39v9.72h-5.2ZM1065.2,703.49v7.31h2.85c2.05,0,3.42-.13,4.11-.4.69-.27,1.23-.69,1.63-1.27s.59-1.24.59-2c0-.94-.28-1.71-.83-2.32s-1.25-.99-2.09-1.14c-.62-.12-1.87-.18-3.74-.18h-2.51Z"/>
    <path class="cls-13" d="M1089.81,724.9v-21.41h-7.65v-4.36h20.48v4.36h-7.63v21.41h-5.2Z"/>
    <path class="cls-13" d="M1105.84,724.9v-25.77h5.2v25.77h-5.2Z"/>
    <path class="cls-13" d="M1114.94,712.17c0-2.62.39-4.83,1.18-6.61.59-1.31,1.38-2.49,2.4-3.53,1.01-1.04,2.12-1.82,3.33-2.32,1.61-.68,3.46-1.02,5.55-1.02,3.8,0,6.83,1.18,9.11,3.53,2.28,2.36,3.42,5.63,3.42,9.83s-1.13,7.41-3.39,9.76-5.28,3.52-9.07,3.52-6.88-1.17-9.14-3.51c-2.26-2.34-3.39-5.56-3.39-9.66ZM1120.3,712c0,2.92.67,5.13,2.02,6.63,1.35,1.51,3.06,2.26,5.13,2.26s3.78-.75,5.11-2.24c1.33-1.49,2-3.73,2-6.72s-.65-5.16-1.94-6.61c-1.29-1.45-3.01-2.18-5.16-2.18s-3.87.74-5.18,2.21c-1.31,1.47-1.97,3.69-1.97,6.65Z"/>
    <path class="cls-13" d="M1144.05,724.9v-25.77h5.06l10.55,17.21v-17.21h4.83v25.77h-5.22l-10.39-16.8v16.8h-4.83Z"/>
    <path class="cls-13" d="M1180.13,724.9v-25.56h5.2v21.21h12.94v4.34h-18.14Z"/>
    <path class="cls-13" d="M1201.82,724.9v-25.77h5.2v25.77h-5.2Z"/>
    <path class="cls-13" d="M1212.03,724.9v-25.77h5.06l10.55,17.21v-17.21h4.83v25.77h-5.22l-10.39-16.8v16.8h-4.83Z"/>
    <path class="cls-13" d="M1238.05,724.9v-25.77h5.2v11.44l10.51-11.44h7l-9.7,10.04,10.23,15.73h-6.73l-7.08-12.09-4.22,4.31v7.79h-5.2Z"/>
  </g>
  <rect class="cls-12" x="1446.92" y="223.28" width="460.47" height="143.92" rx="20.7" ry="20.7"/>
  <g>
    <path class="cls-13" d="M1594.96,286.85v-21.47h6.49l3.9,14.65,3.85-14.65h6.5v21.47h-4.03v-16.9l-4.26,16.9h-4.17l-4.25-16.9v16.9h-4.03Z"/>
    <path class="cls-13" d="M1639.37,286.85h-4.72l-1.88-4.88h-8.58l-1.77,4.88h-4.6l8.36-21.47h4.58l8.6,21.47ZM1631.39,278.36l-2.96-7.97-2.9,7.97h5.86Z"/>
    <path class="cls-13" d="M1641.72,286.85v-21.47h4.22l8.79,14.34v-14.34h4.03v21.47h-4.35l-8.66-14v14h-4.03Z"/>
    <path class="cls-13" d="M1682.7,286.85h-4.72l-1.88-4.88h-8.58l-1.77,4.88h-4.6l8.36-21.47h4.58l8.6,21.47ZM1674.72,278.36l-2.96-7.97-2.9,7.97h5.86Z"/>
    <path class="cls-13" d="M1694.99,278.96v-3.62h9.35v8.55c-.91.88-2.22,1.65-3.95,2.32s-3.47,1-5.24,1c-2.25,0-4.2-.47-5.87-1.41s-2.92-2.29-3.76-4.04-1.26-3.66-1.26-5.72c0-2.24.47-4.22,1.41-5.96s2.31-3.07,4.12-4c1.38-.71,3.09-1.07,5.14-1.07,2.67,0,4.75.56,6.25,1.68,1.5,1.12,2.46,2.66,2.89,4.64l-4.31.81c-.3-1.05-.87-1.89-1.71-2.5-.83-.61-1.88-.92-3.13-.92-1.89,0-3.4.6-4.52,1.8s-1.68,2.98-1.68,5.35c0,2.55.57,4.46,1.7,5.73s2.62,1.91,4.45,1.91c.91,0,1.82-.18,2.73-.53s1.7-.79,2.35-1.3v-2.72h-4.97Z"/>
    <path class="cls-13" d="M1708.34,286.85v-21.47h15.92v3.63h-11.59v4.76h10.78v3.62h-10.78v5.84h12v3.62h-16.33Z"/>
    <path class="cls-13" d="M1594.14,321.67l5.06-.49c.3,1.7.92,2.95,1.85,3.74.93.8,2.19,1.2,3.77,1.2,1.67,0,2.94-.35,3.79-1.06.85-.71,1.27-1.54,1.27-2.49,0-.61-.18-1.13-.54-1.56s-.98-.8-1.87-1.12c-.61-.21-2-.59-4.17-1.12-2.79-.69-4.75-1.54-5.87-2.55-1.58-1.42-2.37-3.15-2.37-5.19,0-1.31.37-2.54,1.12-3.68.74-1.14,1.82-2.01,3.22-2.61s3.09-.9,5.07-.9c3.23,0,5.67.71,7.3,2.13,1.63,1.42,2.49,3.31,2.58,5.68l-5.2.23c-.22-1.32-.7-2.28-1.43-2.86s-1.83-.87-3.29-.87-2.7.31-3.55.93c-.55.4-.83.93-.83,1.6,0,.61.26,1.13.77,1.56.66.55,2.25,1.12,4.78,1.72,2.53.6,4.4,1.22,5.62,1.85,1.21.64,2.16,1.51,2.85,2.62.68,1.11,1.03,2.48,1.03,4.1,0,1.48-.41,2.86-1.23,4.15-.82,1.29-1.98,2.25-3.48,2.87-1.5.63-3.37.94-5.61.94-3.26,0-5.76-.75-7.51-2.26-1.75-1.51-2.79-3.7-3.13-6.58Z"/>
    <path class="cls-13" d="M1619.43,304.28h5.2v13.96c0,2.21.06,3.65.19,4.31.22,1.05.75,1.9,1.59,2.54s1.98.96,3.44.96,2.59-.3,3.34-.91,1.2-1.34,1.35-2.22c.15-.88.23-2.34.23-4.38v-14.25h5.2v13.53c0,3.09-.14,5.28-.42,6.56-.28,1.28-.8,2.36-1.55,3.23-.76.88-1.77,1.58-3.03,2.1-1.27.52-2.92.78-4.96.78-2.46,0-4.33-.28-5.6-.85s-2.28-1.31-3.01-2.21c-.74-.91-1.22-1.86-1.46-2.86-.34-1.48-.51-3.66-.51-6.54v-13.74Z"/>
    <path class="cls-13" d="M1645.48,304.28h10.3c2.04,0,3.56.08,4.56.25s1.9.52,2.69,1.06,1.45,1.26,1.98,2.15c.53.9.79,1.9.79,3.01,0,1.21-.33,2.31-.98,3.32-.65,1.01-1.53,1.76-2.64,2.27,1.57.46,2.78,1.24,3.62,2.34s1.27,2.4,1.27,3.88c0,1.17-.27,2.31-.82,3.42s-1.29,1.99-2.23,2.65c-.94.66-2.11,1.07-3.49,1.22-.87.09-2.96.15-6.27.18h-8.77v-25.77ZM1650.68,308.57v5.96h3.41c2.03,0,3.29-.03,3.78-.09.89-.11,1.59-.41,2.1-.92s.76-1.18.76-2.01-.22-1.44-.66-1.94-1.09-.8-1.96-.91c-.52-.06-2-.09-4.45-.09h-2.99ZM1650.68,318.82v6.89h4.82c1.87,0,3.06-.05,3.57-.16.77-.14,1.4-.48,1.89-1.03s.73-1.27.73-2.19c0-.77-.19-1.43-.56-1.97-.38-.54-.92-.93-1.63-1.18-.71-.25-2.25-.37-4.61-.37h-4.2Z"/>
    <path class="cls-13" d="M1670.14,321.67l5.06-.49c.3,1.7.92,2.95,1.85,3.74.93.8,2.19,1.2,3.77,1.2,1.67,0,2.94-.35,3.79-1.06.85-.71,1.27-1.54,1.27-2.49,0-.61-.18-1.13-.54-1.56s-.98-.8-1.87-1.12c-.61-.21-2-.59-4.17-1.12-2.79-.69-4.75-1.54-5.87-2.55-1.58-1.42-2.37-3.15-2.37-5.19,0-1.31.37-2.54,1.12-3.68.74-1.14,1.82-2.01,3.22-2.61s3.09-.9,5.07-.9c3.23,0,5.67.71,7.3,2.13,1.63,1.42,2.49,3.31,2.58,5.68l-5.2.23c-.22-1.32-.7-2.28-1.43-2.86s-1.83-.87-3.29-.87-2.7.31-3.55.93c-.55.4-.83.93-.83,1.6,0,.61.26,1.13.77,1.56.66.55,2.25,1.12,4.78,1.72,2.53.6,4.4,1.22,5.62,1.85,1.21.64,2.16,1.51,2.85,2.62.68,1.11,1.03,2.48,1.03,4.1,0,1.48-.41,2.86-1.23,4.15-.82,1.29-1.98,2.25-3.48,2.87-1.5.63-3.37.94-5.61.94-3.26,0-5.76-.75-7.51-2.26-1.75-1.51-2.79-3.7-3.13-6.58Z"/>
    <path class="cls-13" d="M1711.95,320.58l5.04,1.6c-.77,2.81-2.06,4.9-3.86,6.27-1.8,1.37-4.08,2.05-6.85,2.05-3.42,0-6.23-1.17-8.44-3.51-2.2-2.34-3.3-5.53-3.3-9.59,0-4.29,1.11-7.62,3.32-9.99,2.21-2.37,5.13-3.56,8.74-3.56,3.15,0,5.71.93,7.68,2.79,1.17,1.1,2.05,2.68,2.64,4.75l-5.15,1.23c-.3-1.34-.94-2.39-1.91-3.16s-2.14-1.16-3.52-1.16c-1.91,0-3.46.69-4.65,2.06-1.19,1.37-1.78,3.59-1.78,6.66,0,3.26.59,5.58,1.76,6.96,1.17,1.38,2.7,2.07,4.57,2.07,1.38,0,2.57-.44,3.57-1.32s1.71-2.26,2.14-4.15Z"/>
    <path class="cls-13" d="M1721.48,330.05v-25.77h10.95c2.75,0,4.75.23,6,.69s2.25,1.29,3,2.47c.75,1.18,1.12,2.54,1.12,4.06,0,1.93-.57,3.53-1.71,4.79-1.14,1.26-2.83,2.05-5.1,2.38,1.12.66,2.05,1.38,2.79,2.16.73.79,1.72,2.18,2.96,4.18l3.15,5.03h-6.22l-3.76-5.61c-1.34-2-2.25-3.27-2.74-3.79-.49-.52-1.01-.88-1.56-1.07s-1.42-.29-2.62-.29h-1.05v10.76h-5.2ZM1726.68,315.18h3.85c2.5,0,4.05-.11,4.67-.32.62-.21,1.11-.57,1.46-1.09s.53-1.16.53-1.93c0-.87-.23-1.57-.69-2.1s-1.12-.87-1.96-1.01c-.42-.06-1.69-.09-3.8-.09h-4.06v6.54Z"/>
    <path class="cls-13" d="M1747.3,330.05v-25.77h5.2v25.77h-5.2Z"/>
    <path class="cls-13" d="M1757.47,304.28h10.3c2.04,0,3.56.08,4.56.25s1.9.52,2.69,1.06,1.45,1.26,1.98,2.15c.53.9.79,1.9.79,3.01,0,1.21-.33,2.31-.98,3.32-.65,1.01-1.53,1.76-2.64,2.27,1.57.46,2.78,1.24,3.62,2.34s1.27,2.4,1.27,3.88c0,1.17-.27,2.31-.82,3.42s-1.29,1.99-2.23,2.65c-.94.66-2.11,1.07-3.49,1.22-.87.09-2.96.15-6.27.18h-8.77v-25.77ZM1762.67,308.57v5.96h3.41c2.03,0,3.29-.03,3.78-.09.89-.11,1.59-.41,2.1-.92s.76-1.18.76-2.01-.22-1.44-.66-1.94-1.09-.8-1.96-.91c-.52-.06-2-.09-4.45-.09h-2.99ZM1762.67,318.82v6.89h4.82c1.87,0,3.06-.05,3.57-.16.77-.14,1.4-.48,1.89-1.03s.73-1.27.73-2.19c0-.77-.19-1.43-.56-1.97-.38-.54-.92-.93-1.63-1.18-.71-.25-2.25-.37-4.61-.37h-4.2Z"/>
    <path class="cls-13" d="M1783.45,330.05v-25.77h19.1v4.36h-13.9v5.71h12.94v4.34h-12.94v7.01h14.39v4.34h-19.6Z"/>
    <path class="cls-13" d="M1807.48,330.05v-25.77h10.95c2.75,0,4.75.23,6,.69s2.25,1.29,3,2.47c.75,1.18,1.12,2.54,1.12,4.06,0,1.93-.57,3.53-1.71,4.79-1.14,1.26-2.83,2.05-5.1,2.38,1.12.66,2.05,1.38,2.79,2.16.73.79,1.72,2.18,2.96,4.18l3.15,5.03h-6.22l-3.76-5.61c-1.34-2-2.25-3.27-2.74-3.79-.49-.52-1.01-.88-1.56-1.07s-1.42-.29-2.62-.29h-1.05v10.76h-5.2ZM1812.68,315.18h3.85c2.5,0,4.05-.11,4.67-.32.62-.21,1.11-.57,1.46-1.09s.53-1.16.53-1.93c0-.87-.23-1.57-.69-2.1s-1.12-.87-1.96-1.01c-.42-.06-1.69-.09-3.8-.09h-4.06v6.54Z"/>
    <path class="cls-13" d="M1832.14,321.67l5.06-.49c.3,1.7.92,2.95,1.85,3.74.93.8,2.19,1.2,3.77,1.2,1.67,0,2.94-.35,3.79-1.06.85-.71,1.27-1.54,1.27-2.49,0-.61-.18-1.13-.54-1.56s-.98-.8-1.87-1.12c-.61-.21-2-.59-4.17-1.12-2.79-.69-4.75-1.54-5.87-2.55-1.58-1.42-2.37-3.15-2.37-5.19,0-1.31.37-2.54,1.12-3.68.74-1.14,1.82-2.01,3.22-2.61s3.09-.9,5.07-.9c3.23,0,5.67.71,7.3,2.13,1.63,1.42,2.49,3.31,2.58,5.68l-5.2.23c-.22-1.32-.7-2.28-1.43-2.86s-1.83-.87-3.29-.87-2.7.31-3.55.93c-.55.4-.83.93-.83,1.6,0,.61.26,1.13.77,1.56.66.55,2.25,1.12,4.78,1.72,2.53.6,4.4,1.22,5.62,1.85,1.21.64,2.16,1.51,2.85,2.62.68,1.11,1.03,2.48,1.03,4.1,0,1.48-.41,2.86-1.23,4.15-.82,1.29-1.98,2.25-3.48,2.87-1.5.63-3.37.94-5.61.94-3.26,0-5.76-.75-7.51-2.26-1.75-1.51-2.79-3.7-3.13-6.58Z"/>
  </g>
  <text class="cls-11" transform="translate(963.16 72.57)"><tspan x="0" y="0">MERCHANT</tspan></text>
  <rect class="cls-4" x="846.99" y="2.5" width="376.9" height="109.25" rx="20.7" ry="20.7"/>
  <text class="cls-11" transform="translate(200.16 913.57)"><tspan x="0" y="0">SUBSCRIBERS</tspan></text>
  <rect class="cls-4" x="109.89" y="843.5" width="395" height="109.25" rx="20.7" ry="20.7"/>
  <text class="cls-10" transform="translate(791.72 854.78)"><tspan x="0" y="0">PLANS ON MERCHANT WEBSITES </tspan></text>
  <rect class="cls-2" x="766.2" y="798.75" width="550.68" height="87" rx="20.7" ry="20.7"/>
  <text class="cls-10" transform="translate(865.76 963.78)"><tspan x="0" y="0">SHARED LINK B</tspan><tspan class="cls-1" x="235" y="0">Y</tspan><tspan x="254.47" y="0" xml:space="preserve"> EMAI</tspan><tspan class="cls-1" x="337.81" y="0">L</tspan></text>
  <rect class="cls-2" x="769.37" y="909.75" width="547.52" height="87" rx="20.7" ry="20.7"/>
  <rect class="cls-2" x="1545.89" y="766.75" width="347" height="263" rx="20.7" ry="20.7"/>
  <g>
    <line class="cls-3" x1="1044.39" y1="112.25" x2="1044.39" y2="186.04"/>
    <path class="cls-14" d="M1044.39,222.25c-6.32-17.04-17.11-38.18-28.54-51.28l28.54,10.32,28.53-10.32c-11.43,13.1-22.21,34.25-28.53,51.28Z"/>
  </g>
  <g>
    <line class="cls-3" x1="1677.39" y1="146.25" x2="1677.39" y2="186.04"/>
    <path class="cls-14" d="M1677.39,222.25c-6.32-17.04-17.11-38.18-28.54-51.28l28.54,10.32,28.53-10.32c-11.43,13.1-22.21,34.25-28.53,51.28Z"/>
  </g>
  <g>
    <line class="cls-3" x1="316.39" y1="146.25" x2="316.39" y2="186.04"/>
    <path class="cls-14" d="M316.39,222.25c-6.32-17.04-17.11-38.18-28.54-51.28l28.54,10.32,28.53-10.32c-11.43,13.1-22.21,34.25-28.53,51.28Z"/>
  </g>
  <line class="cls-3" x1="1677.39" y1="146.25" x2="316.39" y2="146.25"/>
  <g>
    <path class="cls-12" d="M1648.63,956.2v-25.05h5.06v9.86h9.91v-9.86h5.06v25.05h-5.06v-10.96h-9.91v10.96h-5.06Z"/>
    <path class="cls-12" d="M1672.87,943.82c0-2.55.38-4.69,1.14-6.43.57-1.28,1.35-2.42,2.33-3.44.99-1.01,2.06-1.77,3.24-2.26,1.56-.66,3.36-.99,5.4-.99,3.69,0,6.64,1.14,8.86,3.43,2.22,2.29,3.32,5.47,3.32,9.55s-1.1,7.21-3.3,9.49c-2.2,2.28-5.14,3.43-8.82,3.43s-6.69-1.14-8.89-3.41c-2.2-2.27-3.3-5.4-3.3-9.39ZM1678.08,943.65c0,2.84.66,4.99,1.97,6.45,1.31,1.46,2.97,2.2,4.99,2.2s3.67-.73,4.96-2.18c1.29-1.45,1.94-3.63,1.94-6.54s-.63-5.01-1.89-6.43c-1.26-1.41-2.93-2.12-5.02-2.12s-3.77.71-5.04,2.14c-1.28,1.43-1.91,3.59-1.91,6.47Z"/>
    <path class="cls-12" d="M1699.84,948.04l4.92-.48c.3,1.65.9,2.87,1.8,3.64.91.78,2.13,1.16,3.67,1.16,1.63,0,2.86-.34,3.68-1.03.83-.69,1.24-1.5,1.24-2.42,0-.59-.17-1.1-.52-1.51-.35-.42-.95-.78-1.82-1.08-.59-.21-1.94-.57-4.05-1.09-2.71-.67-4.61-1.5-5.71-2.48-1.54-1.38-2.31-3.06-2.31-5.04,0-1.28.36-2.47,1.09-3.58.72-1.11,1.77-1.96,3.13-2.54s3-.87,4.93-.87c3.14,0,5.51.69,7.1,2.07,1.59,1.38,2.42,3.22,2.5,5.52l-5.06.22c-.22-1.29-.68-2.21-1.39-2.78-.71-.56-1.78-.85-3.21-.85s-2.62.3-3.45.91c-.54.39-.8.91-.8,1.56,0,.59.25,1.1.75,1.52.64.54,2.19,1.09,4.65,1.68,2.46.58,4.28,1.18,5.46,1.8,1.18.62,2.1,1.47,2.77,2.55.67,1.08,1,2.41,1,3.99,0,1.44-.4,2.78-1.2,4.03-.8,1.25-1.93,2.18-3.38,2.79-1.46.61-3.28.91-5.45.91-3.17,0-5.6-.73-7.3-2.2-1.7-1.46-2.71-3.6-3.04-6.4Z"/>
    <path class="cls-12" d="M1730.1,956.2v-20.82h-7.43v-4.24h19.91v4.24h-7.42v20.82h-5.06Z"/>
    <path class="cls-12" d="M1745.84,956.2v-25.05h18.58v4.24h-13.52v5.55h12.58v4.22h-12.58v6.82h14v4.22h-19.05Z"/>
    <path class="cls-12" d="M1769.17,931.14h9.25c2.08,0,3.67.16,4.77.48,1.47.43,2.73,1.2,3.78,2.31,1.05,1.1,1.85,2.46,2.39,4.06s.82,3.57.82,5.92c0,2.06-.26,3.84-.77,5.33-.63,1.82-1.52,3.3-2.68,4.43-.88.85-2.06,1.52-3.55,2-1.12.35-2.61.53-4.48.53h-9.52v-25.05ZM1774.23,935.38v16.59h3.78c1.41,0,2.43-.08,3.06-.24.82-.21,1.5-.55,2.04-1.04.54-.49.98-1.3,1.33-2.42s.51-2.65.51-4.59-.17-3.42-.51-4.46c-.34-1.04-.82-1.85-1.44-2.43-.62-.58-1.4-.97-2.34-1.18-.71-.16-2.09-.24-4.15-.24h-2.27Z"/>
    <path class="cls-12" d="M1585.73,998.2v-25.05h8.12c3.08,0,5.08.13,6.02.38,1.44.38,2.64,1.19,3.61,2.45.97,1.26,1.45,2.89,1.45,4.88,0,1.54-.28,2.83-.84,3.88-.56,1.05-1.27,1.87-2.13,2.47-.86.6-1.73.99-2.62,1.19-1.21.24-2.96.36-5.25.36h-3.3v9.45h-5.06ZM1590.79,977.38v7.11h2.77c1.99,0,3.33-.13,4-.39.67-.26,1.2-.67,1.58-1.23.38-.56.57-1.21.57-1.95,0-.91-.27-1.66-.8-2.26-.54-.59-1.21-.96-2.03-1.11-.6-.11-1.82-.17-3.64-.17h-2.44Z"/>
    <path class="cls-12" d="M1629.07,998.2h-5.5l-2.19-5.69h-10.02l-2.07,5.69h-5.37l9.76-25.05h5.35l10.03,25.05ZM1619.75,988.28l-3.45-9.3-3.38,9.3h6.84Z"/>
    <path class="cls-12" d="M1635.12,998.2v-10.54l-9.18-14.51h5.93l5.9,9.91,5.78-9.91h5.83l-9.21,14.54v10.51h-5.04Z"/>
    <path class="cls-12" d="M1651.81,998.2v-25.05h7.57l4.55,17.09,4.5-17.09h7.59v25.05h-4.7v-19.72l-4.97,19.72h-4.87l-4.96-19.72v19.72h-4.7Z"/>
    <path class="cls-12" d="M1681.04,998.2v-25.05h18.58v4.24h-13.52v5.55h12.58v4.22h-12.58v6.82h14v4.22h-19.05Z"/>
    <path class="cls-12" d="M1704.43,998.2v-25.05h4.92l10.25,16.73v-16.73h4.7v25.05h-5.08l-10.1-16.34v16.34h-4.7Z"/>
    <path class="cls-12" d="M1735.3,998.2v-20.82h-7.43v-4.24h19.91v4.24h-7.42v20.82h-5.06Z"/>
    <path class="cls-12" d="M1760.76,998.2v-25.05h8.12c3.08,0,5.08.13,6.02.38,1.44.38,2.64,1.19,3.61,2.45.97,1.26,1.45,2.89,1.45,4.88,0,1.54-.28,2.83-.84,3.88-.56,1.05-1.27,1.87-2.13,2.47-.86.6-1.73.99-2.62,1.19-1.21.24-2.96.36-5.25.36h-3.3v9.45h-5.06ZM1765.82,977.38v7.11h2.77c1.99,0,3.33-.13,4-.39.67-.26,1.2-.67,1.58-1.23.38-.56.57-1.21.57-1.95,0-.91-.27-1.66-.8-2.26-.54-.59-1.21-.96-2.03-1.11-.6-.11-1.82-.17-3.64-.17h-2.44Z"/>
    <path class="cls-12" d="M1804.1,998.2h-5.5l-2.19-5.69h-10.02l-2.07,5.69h-5.37l9.76-25.05h5.35l10.03,25.05ZM1794.79,988.28l-3.45-9.3-3.38,9.3h6.84Z"/>
    <path class="cls-12" d="M1818.44,988.98v-4.22h10.9v9.98c-1.06,1.03-2.6,1.93-4.61,2.71s-4.05,1.17-6.11,1.17c-2.62,0-4.91-.55-6.85-1.65-1.95-1.1-3.41-2.67-4.39-4.72-.98-2.04-1.47-4.27-1.47-6.67,0-2.61.55-4.93,1.64-6.96,1.09-2.03,2.69-3.58,4.8-4.67,1.61-.83,3.61-1.25,6-1.25,3.11,0,5.54.65,7.29,1.96,1.75,1.3,2.87,3.11,3.38,5.41l-5.02.94c-.35-1.23-1.02-2.2-1.99-2.91-.97-.71-2.19-1.07-3.65-1.07-2.21,0-3.97.7-5.27,2.1-1.3,1.4-1.96,3.48-1.96,6.24,0,2.97.66,5.2,1.98,6.69,1.32,1.49,3.05,2.23,5.2,2.23,1.06,0,2.12-.21,3.19-.62,1.07-.42,1.98-.92,2.74-1.51v-3.18h-5.79Z"/>
    <path class="cls-12" d="M1834.01,998.2v-25.05h18.58v4.24h-13.52v5.55h12.58v4.22h-12.58v6.82h14v4.22h-19.05Z"/>
  </g>
  <line class="cls-3" x1="623.39" y1="899.25" x2="506.39" y2="899.25"/>
  <g>
    <line class="cls-3" x1="623.39" y1="843.25" x2="726.18" y2="843.25"/>
    <path class="cls-14" d="M762.39,843.25c-17.04,6.32-38.18,17.11-51.28,28.54l10.32-28.54-10.32-28.53c13.1,11.43,34.25,22.21,51.28,28.53Z"/>
  </g>
  <g>
    <line class="cls-3" x1="623.39" y1="964.25" x2="726.18" y2="964.25"/>
    <path class="cls-14" d="M762.39,964.25c-17.04,6.32-38.18,17.11-51.28,28.54l10.32-28.54-10.32-28.53c13.1,11.43,34.25,22.21,51.28,28.53Z"/>
  </g>
  <line class="cls-3" x1="623.39" y1="968.25" x2="623.39" y2="843.25"/>
  <line class="cls-3" x1="1433.39" y1="848.25" x2="1316.39" y2="848.25"/>
  <line class="cls-3" x1="1433.39" y1="953.25" x2="1316.39" y2="953.25"/>
  <line class="cls-3" x1="1433.39" y1="953.25" x2="1433.39" y2="847.25"/>
  <g>
    <line class="cls-3" x1="1433.39" y1="900.25" x2="1510.18" y2="900.25"/>
    <path class="cls-14" d="M1546.39,900.25c-17.04,6.32-38.18,17.11-51.28,28.54l10.32-28.54-10.32-28.53c13.1,11.43,34.25,22.21,51.28,28.53Z"/>
  </g>
  <g>
    <line class="cls-3" x1="1717.39" y1="769.25" x2="1717.39" y2="403.46"/>
    <path class="cls-14" d="M1717.39,367.25c6.32,17.04,17.11,38.18,28.54,51.28l-28.54-10.32-28.53,10.32c11.43-13.1,22.21-34.25,28.53-51.28Z"/>
  </g>
  <g>
    <line class="cls-3" x1="1043.39" y1="366.25" x2="1043.39" y2="537.04"/>
    <path class="cls-14" d="M1043.39,573.25c-6.32-17.04-17.11-38.18-28.54-51.28l28.54,10.32,28.53-10.32c-11.43,13.1-22.21,34.25-28.53,51.28Z"/>
  </g>
  <line class="cls-3" x1="1715.39" y1="471.25" x2="1172.39" y2="471.25"/>
  <g>
    <line class="cls-3" x1="1172.39" y1="471.25" x2="1172.39" y2="395.46"/>
    <path class="cls-14" d="M1172.39,359.25c6.32,17.04,17.11,38.18,28.54,51.28l-28.54-10.32-28.53,10.32c11.43-13.1,22.21-34.25,28.53-51.28Z"/>
  </g>
  <g>
    <line class="cls-3" x1="632.39" y1="295.25" x2="719.18" y2="295.25"/>
    <path class="cls-14" d="M755.39,295.25c-17.04,6.32-38.18,17.11-51.28,28.54l10.32-28.54-10.32-28.53c13.1,11.43,34.25,22.21,51.28,28.53Z"/>
  </g>
  <g>
    <path class="cls-8" d="M67.76,254.95h25.47c1.1,0,2,.9,2,2v7.82h-29.47v-7.82c0-1.1.9-2,2-2Z"/>
    <polyline class="cls-8" points="101.77 261.5 108.32 261.5 108.32 330.25 52.67 330.25 52.67 261.5 59.21 261.5"/>
    <polyline class="cls-8" points="59.21 284.42 65.76 290.97 75.58 281.14"/>
    <line class="cls-8" x1="85.4" y1="287.69" x2="98.5" y2="287.69"/>
    <polyline class="cls-8" points="59.21 304.06 65.76 310.61 75.58 300.79"/>
    <line class="cls-8" x1="85.4" y1="307.34" x2="98.5" y2="307.34"/>
  </g>
  <g>
    <path class="cls-8" d="M819.73,310.91h0c0,4.01,3.25,7.25,7.25,7.25h3.63c4.01,0,7.25-3.25,7.25-7.25h0c0-4.01-3.25-7.25-7.25-7.25h-3.63,3.63c4.01,0,7.25-3.25,7.25-7.25h0c0-4.01-3.25-7.25-7.25-7.25h-3.63c-4.01,0-7.25,3.25-7.25,7.25h0"/>
    <rect class="cls-8" x="797.97" y="260.13" width="83.42" height="72.54" rx="1" ry="1"/>
    <line class="cls-8" x1="797.97" y1="278.27" x2="881.39" y2="278.27"/>
    <line class="cls-8" x1="866.88" y1="249.25" x2="866.88" y2="267.39"/>
    <line class="cls-8" x1="812.47" y1="249.25" x2="812.47" y2="267.39"/>
    <polyline class="cls-8" points="856 318.17 856 289.15 848.75 296.41"/>
  </g>
  <g>
    <path class="cls-8" d="M1552.94,277.97c0,6.43-5.03,11.64-11.22,11.64s-11.22-5.21-11.22-11.64v-6.65c0-6.43,5.03-11.64,11.22-11.64s11.22,5.21,11.22,11.64v6.65Z"/>
    <circle class="cls-8" cx="1511.79" cy="270.9" r="9.35"/>
    <path class="cls-8" d="M1521.21,301.36c-3.7-2.69-8.23-4.27-13.16-4.27-10.93,0-20.02,7.82-22.04,18.15-.45,2.24,1.42,4.3,3.7,4.3h18.33"/>
    <path class="cls-8" d="M1541.72,300.83h0c-15.09,0-27.57,11.16-29.63,25.68-.32,2.24,1.47,4.25,3.74,4.25h51.79c2.27,0,4.06-2.01,3.74-4.25-2.06-14.52-14.55-25.68-29.63-25.68Z"/>
  </g>
  <g>
    <path class="cls-9" d="M942.64,52.26v28.94c0,1.23-1,2.23-2.23,2.23h-42.3c-1.23,0-2.23-1-2.23-2.23v-28.94"/>
    <path class="cls-9" d="M893.67,41.13l2.56-6.68h46.08l2.56,6.68v6.68c0,2.46-2.29,4.45-5.12,4.45s-5.12-1.99-5.12-4.45c0,2.46-2.29,4.45-5.12,4.45s-5.12-1.99-5.12-4.45c0,2.46-2.29,4.45-5.12,4.45s-5.12-1.99-5.12-4.45c0,2.46-2.29,4.45-5.12,4.45s-5.12-1.99-5.12-4.45c0,2.46-2.29,4.45-5.12,4.45s-5.12-1.99-5.12-4.45v-6.68Z"/>
    <path class="cls-9" d="M903.57,58.94h11.36c.55,0,1,.45,1,1v23.49h-13.36v-23.49c0-.55.45-1,1-1Z"/>
    <rect class="cls-9" x="924.83" y="61.17" width="8.9" height="8.9"/>
  </g>
  <g>
    <rect class="cls-8" x="844.11" y="656.52" width="17.57" height="37.11" rx="2.84" ry="2.84" transform="translate(727.16 -405.36) rotate(45)"/>
    <rect class="cls-8" x="807" y="693.63" width="17.57" height="37.11" rx="2.84" ry="2.84" transform="translate(742.53 -368.25) rotate(45)"/>
    <line class="cls-8" x1="845.91" y1="682" x2="824.26" y2="703.65"/>
  </g>
  <g>
    <path class="cls-7" d="M1770.91,905.25h-110.86c-2.92,0-5.28-2.36-5.28-5.28v-88.63c0-3.51,2.88-6.39,6.39-6.39h108.64c3.51,0,6.39,2.88,6.39,6.39v88.63c0,2.92-2.36,5.28-5.28,5.28Z"/>
    <line class="cls-7" x1="1654.77" y1="831.35" x2="1776.19" y2="831.35"/>
    <circle class="cls-5" cx="1667.97" cy="818.15" r="5.28"/>
    <circle class="cls-5" cx="1683.81" cy="818.15" r="5.28"/>
    <circle class="cls-5" cx="1699.64" cy="818.15" r="5.28"/>
  </g>
  <g>
    <path class="cls-9" d="M177.85,889.37c0,4.37-3.42,7.91-7.63,7.91s-7.63-3.54-7.63-7.91v-4.52c0-4.37,3.42-7.91,7.63-7.91s7.63,3.54,7.63,7.91v4.52Z"/>
    <circle class="cls-9" cx="149.88" cy="884.57" r="6.36"/>
    <path class="cls-9" d="M156.29,905.27c-2.52-1.83-5.6-2.9-8.94-2.9-7.42,0-13.6,5.31-14.98,12.33-.31,1.53.97,2.92,2.52,2.92h12.46"/>
    <path class="cls-9" d="M170.23,904.91h0c-10.25,0-18.73,7.59-20.14,17.45-.22,1.52,1,2.89,2.54,2.89h35.2c1.54,0,2.76-1.37,2.54-2.89-1.4-9.87-9.88-17.45-20.14-17.45Z"/>
  </g>
  <rect class="cls-12" x="58.88" y="578.07" width="504.51" height="134.18" rx="20.7" ry="20.7"/>
  <g>
    <path class="cls-8" d="M100.69,644.86c0-18.99,15.4-34.39,34.39-34.39,14,0,26.05,8.37,31.4,20.36"/>
    <g>
      <line class="cls-8" x1="166.48" y1="616.45" x2="166.48" y2="631.41"/>
      <line class="cls-8" x1="151.53" y1="631.41" x2="166.48" y2="631.41"/>
    </g>
    <g>
      <path class="cls-8" d="M103.68,658.89c5.35,11.99,17.4,20.36,31.4,20.36,18.99,0,34.39-15.4,34.39-34.39"/>
      <line class="cls-8" x1="103.68" y1="673.27" x2="103.68" y2="658.32"/>
      <line class="cls-8" x1="118.63" y1="658.32" x2="103.68" y2="658.32"/>
    </g>
  </g>
  <g>
    <path class="cls-13" d="M213.21,634.47h-4.72l-1.88-4.88h-8.58l-1.77,4.88h-4.6l8.36-21.47h4.59l8.6,21.47ZM205.22,625.97l-2.96-7.97-2.9,7.97h5.86Z"/>
    <path class="cls-13" d="M215.48,612.99h4.34v11.63c0,1.85.05,3.04.16,3.59.19.88.63,1.58,1.33,2.12.7.53,1.65.8,2.86.8s2.16-.25,2.78-.75,1-1.12,1.13-1.85.19-1.95.19-3.65v-11.88h4.34v11.28c0,2.58-.12,4.4-.35,5.46s-.67,1.96-1.3,2.7c-.63.73-1.47,1.32-2.53,1.75s-2.43.65-4.13.65c-2.05,0-3.61-.24-4.67-.71-1.06-.47-1.9-1.09-2.51-1.85s-1.02-1.55-1.22-2.38c-.28-1.23-.42-3.05-.42-5.45v-11.46Z"/>
    <path class="cls-13" d="M242.01,634.47v-17.84h-6.37v-3.63h17.06v3.63h-6.36v17.84h-4.34Z"/>
    <path class="cls-13" d="M254.08,623.86c0-2.19.33-4.02.98-5.51.49-1.09,1.15-2.08,2-2.94.84-.87,1.77-1.51,2.78-1.93,1.34-.57,2.88-.85,4.63-.85,3.16,0,5.7.98,7.6,2.94,1.9,1.96,2.85,4.69,2.85,8.19s-.94,6.18-2.83,8.14-4.4,2.94-7.56,2.94-5.73-.97-7.62-2.92-2.83-4.63-2.83-8.05ZM258.55,623.72c0,2.43.56,4.27,1.68,5.53s2.55,1.88,4.28,1.88,3.15-.62,4.26-1.87c1.11-1.25,1.66-3.11,1.66-5.6s-.54-4.3-1.62-5.51c-1.08-1.21-2.51-1.82-4.3-1.82s-3.23.61-4.32,1.84-1.64,3.07-1.64,5.54Z"/>
    <path class="cls-13" d="M278.23,634.47v-21.47h6.49l3.9,14.65,3.85-14.65h6.5v21.47h-4.03v-16.9l-4.26,16.9h-4.18l-4.25-16.9v16.9h-4.03Z"/>
    <path class="cls-13" d="M322.65,634.47h-4.72l-1.88-4.88h-8.58l-1.77,4.88h-4.6l8.37-21.47h4.58l8.6,21.47ZM314.66,625.97l-2.96-7.97-2.9,7.97h5.86Z"/>
    <path class="cls-13" d="M327.55,634.47v-17.84h-6.37v-3.63h17.06v3.63h-6.36v17.84h-4.34Z"/>
    <path class="cls-13" d="M341.05,634.47v-21.47h15.92v3.63h-11.59v4.76h10.78v3.62h-10.78v5.84h12v3.62h-16.33Z"/>
    <path class="cls-13" d="M361.04,612.99h7.93c1.79,0,3.15.14,4.09.41,1.26.37,2.34,1.03,3.24,1.98s1.58,2.11,2.05,3.48.7,3.06.7,5.08c0,1.77-.22,3.29-.66,4.57-.54,1.56-1.3,2.83-2.3,3.79-.75.73-1.77,1.3-3.05,1.71-.96.3-2.24.45-3.84.45h-8.16v-21.47ZM365.38,616.63v14.22h3.24c1.21,0,2.08-.07,2.62-.21.7-.18,1.29-.47,1.75-.89.46-.42.84-1.11,1.14-2.07s.44-2.27.44-3.93-.15-2.93-.44-3.82-.7-1.58-1.23-2.08-1.2-.83-2.01-1.01c-.61-.14-1.79-.21-3.56-.21h-1.95Z"/>
    <path class="cls-13" d="M194.08,674.07v-23.62h10.04c2.52,0,4.36.21,5.5.64,1.14.42,2.06,1.18,2.75,2.26s1.03,2.33,1.03,3.72c0,1.77-.52,3.24-1.56,4.39-1.04,1.15-2.6,1.88-4.67,2.18,1.03.6,1.88,1.26,2.55,1.98s1.58,2,2.71,3.83l2.88,4.61h-5.71l-3.45-5.14c-1.22-1.84-2.06-2.99-2.51-3.47s-.93-.81-1.43-.98c-.51-.18-1.31-.27-2.4-.27h-.97v9.86h-4.77ZM198.85,660.44h3.53c2.29,0,3.72-.1,4.29-.29.57-.19,1.01-.53,1.34-1s.48-1.06.48-1.77c0-.79-.21-1.44-.64-1.93-.42-.49-1.02-.8-1.8-.93-.39-.05-1.55-.08-3.48-.08h-3.72v5.99Z"/>
    <path class="cls-13" d="M217.89,674.07v-23.62h17.52v4h-12.75v5.24h11.86v3.98h-11.86v6.43h13.2v3.98h-17.97Z"/>
    <path class="cls-13" d="M255.02,665.38l4.62,1.47c-.71,2.58-1.89,4.49-3.54,5.74-1.65,1.25-3.74,1.88-6.28,1.88-3.14,0-5.71-1.07-7.73-3.21-2.02-2.14-3.03-5.07-3.03-8.79,0-3.93,1.02-6.99,3.04-9.16,2.03-2.18,4.7-3.26,8.01-3.26,2.89,0,5.24.85,7.04,2.56,1.07,1.01,1.88,2.46,2.42,4.35l-4.72,1.13c-.28-1.22-.86-2.19-1.75-2.9s-1.96-1.06-3.23-1.06c-1.75,0-3.17.63-4.26,1.89-1.09,1.26-1.64,3.29-1.64,6.11,0,2.99.54,5.11,1.61,6.38s2.47,1.9,4.19,1.9c1.27,0,2.36-.4,3.27-1.21.91-.81,1.57-2.07,1.97-3.8Z"/>
    <path class="cls-13" d="M263.7,650.45h4.77v12.79c0,2.03.06,3.35.18,3.95.21.97.69,1.74,1.46,2.33s1.82.88,3.15.88,2.37-.28,3.06-.83c.69-.55,1.1-1.23,1.24-2.04.14-.81.21-2.14.21-4.01v-13.07h4.77v12.41c0,2.84-.13,4.84-.39,6.01s-.73,2.16-1.43,2.96c-.69.81-1.62,1.45-2.78,1.93-1.16.48-2.68.72-4.54.72-2.26,0-3.97-.26-5.13-.78-1.16-.52-2.09-1.2-2.76-2.03-.68-.83-1.12-1.71-1.34-2.62-.31-1.35-.47-3.35-.47-5.99v-12.6Z"/>
    <path class="cls-13" d="M287.58,674.07v-23.62h10.04c2.52,0,4.36.21,5.5.64,1.14.42,2.06,1.18,2.75,2.26s1.03,2.33,1.03,3.72c0,1.77-.52,3.24-1.56,4.39-1.04,1.15-2.6,1.88-4.67,2.18,1.03.6,1.88,1.26,2.55,1.98s1.58,2,2.71,3.83l2.88,4.61h-5.71l-3.45-5.14c-1.22-1.84-2.06-2.99-2.51-3.47s-.93-.81-1.43-.98c-.51-.18-1.31-.27-2.4-.27h-.97v9.86h-4.77ZM292.35,660.44h3.53c2.29,0,3.72-.1,4.29-.29.57-.19,1.01-.53,1.34-1s.48-1.06.48-1.77c0-.79-.21-1.44-.64-1.93-.42-.49-1.02-.8-1.8-.93-.39-.05-1.55-.08-3.48-.08h-3.72v5.99Z"/>
    <path class="cls-13" d="M311.41,674.07v-23.62h10.04c2.53,0,4.36.21,5.5.64s2.06,1.18,2.75,2.26,1.03,2.33,1.03,3.72c0,1.77-.52,3.24-1.56,4.39-1.04,1.15-2.6,1.88-4.67,2.18,1.03.6,1.88,1.26,2.55,1.98.67.72,1.58,2,2.71,3.83l2.88,4.61h-5.7l-3.45-5.14c-1.22-1.84-2.06-2.99-2.51-3.47s-.93-.81-1.43-.98c-.51-.18-1.3-.27-2.4-.27h-.97v9.86h-4.77ZM316.18,660.44h3.53c2.29,0,3.72-.1,4.29-.29.57-.19,1.02-.53,1.34-1s.48-1.06.48-1.77c0-.79-.21-1.44-.64-1.93-.42-.49-1.02-.8-1.8-.93-.39-.05-1.55-.08-3.48-.08h-3.72v5.99Z"/>
    <path class="cls-13" d="M335.08,674.07v-23.62h4.77v23.62h-4.77Z"/>
    <path class="cls-13" d="M344.45,674.07v-23.62h4.64l9.67,15.77v-15.77h4.43v23.62h-4.79l-9.52-15.4v15.4h-4.43Z"/>
    <path class="cls-13" d="M379.22,665.38v-3.98h10.28v9.41c-1,.97-2.45,1.82-4.34,2.55-1.9.74-3.82,1.1-5.76,1.1-2.47,0-4.62-.52-6.46-1.56-1.84-1.04-3.22-2.52-4.14-4.45-.92-1.93-1.39-4.03-1.39-6.29,0-2.46.52-4.65,1.55-6.56s2.54-3.38,4.53-4.4c1.51-.78,3.4-1.18,5.65-1.18,2.93,0,5.22.62,6.87,1.85s2.71,2.93,3.18,5.1l-4.74.89c-.33-1.16-.96-2.08-1.88-2.75-.92-.67-2.07-1.01-3.44-1.01-2.08,0-3.74.66-4.97,1.98s-1.84,3.28-1.84,5.88c0,2.8.62,4.91,1.87,6.31,1.24,1.4,2.88,2.1,4.9,2.1,1,0,2-.2,3-.59s1.87-.87,2.59-1.43v-3h-5.46Z"/>
    <path class="cls-13" d="M403.08,650.45h9.44c1.87,0,3.26.08,4.18.23.92.16,1.74.48,2.46.98s1.33,1.15,1.81,1.97c.48.82.72,1.74.72,2.76,0,1.11-.3,2.12-.89,3.05-.6.92-1.4,1.62-2.42,2.08,1.44.42,2.54,1.13,3.32,2.14s1.16,2.2,1.16,3.56c0,1.07-.25,2.12-.75,3.13-.5,1.01-1.18,1.83-2.05,2.43-.87.61-1.93.98-3.2,1.12-.79.09-2.71.14-5.75.16h-8.04v-23.62ZM407.85,654.38v5.46h3.13c1.86,0,3.01-.03,3.46-.08.81-.1,1.46-.38,1.92-.85.47-.47.7-1.08.7-1.85s-.2-1.32-.6-1.78c-.4-.46-1-.73-1.8-.83-.47-.05-1.83-.08-4.08-.08h-2.74ZM407.85,663.77v6.32h4.42c1.72,0,2.81-.05,3.27-.15.71-.13,1.29-.44,1.73-.94.45-.5.67-1.17.67-2.01,0-.71-.17-1.31-.52-1.8s-.84-.85-1.49-1.08c-.65-.23-2.06-.34-4.23-.34h-3.85Z"/>
    <path class="cls-13" d="M426.75,674.07v-23.62h4.77v23.62h-4.77Z"/>
    <path class="cls-13" d="M436.2,674.07v-23.43h4.77v19.45h11.86v3.98h-16.63Z"/>
    <path class="cls-13" d="M456.35,674.07v-23.43h4.77v19.45h11.86v3.98h-16.63Z"/>
    <path class="cls-13" d="M476.24,674.07v-23.62h4.77v23.62h-4.77Z"/>
    <path class="cls-13" d="M485.6,674.07v-23.62h4.64l9.67,15.77v-15.77h4.43v23.62h-4.79l-9.52-15.4v15.4h-4.43Z"/>
    <path class="cls-13" d="M520.37,665.38v-3.98h10.28v9.41c-1,.97-2.45,1.82-4.34,2.55-1.9.74-3.82,1.1-5.76,1.1-2.47,0-4.62-.52-6.46-1.56-1.84-1.04-3.22-2.52-4.14-4.45-.92-1.93-1.39-4.03-1.39-6.29,0-2.46.52-4.65,1.55-6.56s2.54-3.38,4.53-4.4c1.51-.78,3.4-1.18,5.65-1.18,2.93,0,5.22.62,6.87,1.85s2.71,2.93,3.18,5.1l-4.74.89c-.33-1.16-.96-2.08-1.88-2.75-.92-.67-2.07-1.01-3.44-1.01-2.08,0-3.74.66-4.97,1.98s-1.84,3.28-1.84,5.88c0,2.8.62,4.91,1.87,6.31,1.24,1.4,2.88,2.1,4.9,2.1,1,0,2-.2,3-.59s1.87-.87,2.59-1.43v-3h-5.46Z"/>
  </g>
  <line class="cls-3" x1="902.39" y1="367.25" x2="902.39" y2="471.25"/>
  <line class="cls-3" x1="903.39" y1="470.25" x2="316.39" y2="470.25"/>
  <g>
    <line class="cls-3" x1="316.39" y1="470.25" x2="316.39" y2="542.04"/>
    <path class="cls-14" d="M316.39,578.25c-6.32-17.04-17.11-38.18-28.54-51.28l28.54,10.32,28.53-10.32c-11.43,13.1-22.21,34.25-28.53,51.28Z"/>
  </g>
</svg>