<?xml version="1.0" encoding="UTF-8"?>
<svg id="Layer_1" data-name="Layer 1" xmlns="http://www.w3.org/2000/svg" viewBox="0 0 1997 1150">
  <defs>
    <style>
      .cls-1 {
        letter-spacing: -.02em;
      }

      .cls-2, .cls-3, .cls-4, .cls-5, .cls-6 {
        fill: none;
      }

      .cls-2, .cls-3, .cls-7, .cls-8, .cls-5 {
        stroke-miterlimit: 10;
      }

      .cls-2, .cls-4, .cls-6 {
        stroke: #fff;
        stroke-linecap: round;
      }

      .cls-2, .cls-6 {
        stroke-width: 3px;
      }

      .cls-9, .cls-10, .cls-11, .cls-12 {
        font-family: ArialMT, Arial;
      }

      .cls-9, .cls-11 {
        fill: #666;
      }

      .cls-9, .cls-13 {
        font-size: 25.89px;
      }

      .cls-10, .cls-11, .cls-12 {
        font-size: 22.79px;
      }

      .cls-3 {
        stroke: #00a99d;
        stroke-width: 5px;
      }

      .cls-14 {
        font-size: 30.04px;
      }

      .cls-14, .cls-13 {
        font-family: Arial-BoldMT, Arial;
        font-weight: 700;
      }

      .cls-14, .cls-15 {
        fill: #ff931e;
      }

      .cls-4, .cls-5 {
        stroke-width: 2px;
      }

      .cls-4, .cls-6 {
        stroke-linejoin: round;
      }

      .cls-7 {
        fill: #e6e6e6;
      }

      .cls-7, .cls-8 {
        stroke: #b3b3b3;
      }

      .cls-8 {
        fill: #f2f2f2;
      }

      .cls-12 {
        fill: gray;
      }

      .cls-5 {
        stroke: #ff931e;
      }

      .cls-13, .cls-16 {
        fill: #333;
      }

      .cls-17, .cls-18, .cls-16, .cls-15, .cls-19, .cls-20, .cls-21 {
        stroke-width: 0px;
      }

      .cls-18 {
        fill: #29abe2;
      }

      .cls-19 {
        fill: #ff7bac;
      }

      .cls-20 {
        fill: #fff;
      }

      .cls-21 {
        fill: #00a99d;
      }
    </style>
  </defs>
  <rect class="cls-20" width="1997" height="1150"/>
  <rect class="cls-8" x="390.87" y="20.54" width="269.3" height="1097.92"/>
  <rect class="cls-8" x="746.2" y="20.54" width="546.5" height="1097.92"/>
  <rect class="cls-8" x="1429.5" y="20.52" width="546.5" height="1097.94"/>
  <text class="cls-13" transform="translate(454.54 76.77)"><tspan x="0" y="0">CUS</tspan><tspan class="cls-1" x="54.67" y="0">T</tspan><tspan x="70.02" y="0">OMER</tspan></text>
  <text class="cls-13" transform="translate(940.75 76.77)"><tspan x="0" y="0">MERCHANT</tspan></text>
  <g>
    <path class="cls-16" d="M1588.22,66.41v-18.54h6.01c2.28,0,3.76.09,4.45.28,1.06.28,1.95.88,2.67,1.81.72.93,1.08,2.14,1.08,3.61,0,1.14-.21,2.09-.62,2.87-.41.78-.94,1.38-1.57,1.83-.64.44-1.28.74-1.94.88-.89.18-2.19.27-3.88.27h-2.44v6.99h-3.74ZM1591.96,51.01v5.26h2.05c1.47,0,2.46-.1,2.96-.29.5-.19.89-.5,1.17-.91s.42-.89.42-1.44c0-.67-.2-1.23-.59-1.67-.4-.44-.9-.71-1.5-.82-.45-.08-1.34-.13-2.69-.13h-1.81Z"/>
    <path class="cls-16" d="M1620.29,66.41h-4.07l-1.62-4.21h-7.41l-1.53,4.21h-3.97l7.22-18.54h3.96l7.42,18.54ZM1613.4,59.08l-2.55-6.88-2.5,6.88h5.06Z"/>
    <path class="cls-16" d="M1624.76,66.41v-7.8l-6.79-10.73h4.39l4.36,7.33,4.27-7.33h4.31l-6.82,10.76v7.78h-3.73Z"/>
    <path class="cls-16" d="M1637.12,66.41v-18.54h5.6l3.36,12.64,3.33-12.64h5.61v18.54h-3.48v-14.59l-3.68,14.59h-3.6l-3.67-14.59v14.59h-3.48Z"/>
    <path class="cls-16" d="M1658.74,66.41v-18.54h13.74v3.14h-10v4.11h9.31v3.12h-9.31v5.04h10.36v3.12h-14.1Z"/>
    <path class="cls-16" d="M1676.05,66.41v-18.54h3.64l7.59,12.38v-12.38h3.48v18.54h-3.75l-7.47-12.09v12.09h-3.48Z"/>
    <path class="cls-16" d="M1698.88,66.41v-15.4h-5.5v-3.14h14.73v3.14h-5.49v15.4h-3.74Z"/>
    <path class="cls-16" d="M1716.96,57.25c0-1.89.28-3.47.85-4.75.42-.94,1-1.79,1.73-2.54.73-.75,1.53-1.31,2.4-1.67,1.15-.49,2.49-.73,4-.73,2.73,0,4.92.85,6.56,2.54,1.64,1.69,2.46,4.05,2.46,7.07s-.81,5.33-2.44,7.02-3.8,2.53-6.52,2.53-4.95-.84-6.58-2.52c-1.63-1.68-2.44-4-2.44-6.95ZM1720.82,57.13c0,2.1.48,3.69,1.45,4.77s2.2,1.62,3.69,1.62,2.72-.54,3.67-1.61c.96-1.07,1.43-2.69,1.43-4.84s-.47-3.71-1.4-4.75c-.93-1.05-2.17-1.57-3.71-1.57s-2.79.53-3.73,1.59c-.94,1.06-1.42,2.65-1.42,4.79Z"/>
    <path class="cls-16" d="M1737.86,66.41v-18.54h6.01c2.28,0,3.76.09,4.45.28,1.06.28,1.95.88,2.67,1.81.72.93,1.08,2.14,1.08,3.61,0,1.14-.21,2.09-.62,2.87-.41.78-.94,1.38-1.57,1.83-.64.44-1.28.74-1.94.88-.89.18-2.19.27-3.88.27h-2.44v6.99h-3.74ZM1741.6,51.01v5.26h2.05c1.47,0,2.46-.1,2.96-.29.5-.19.89-.5,1.17-.91s.42-.89.42-1.44c0-.67-.2-1.23-.59-1.67-.4-.44-.9-.71-1.5-.82-.45-.08-1.34-.13-2.69-.13h-1.81Z"/>
    <path class="cls-16" d="M1759.3,66.41v-15.4h-5.5v-3.14h14.73v3.14h-5.49v15.4h-3.74Z"/>
    <path class="cls-16" d="M1770.84,66.41v-18.54h3.74v18.54h-3.74Z"/>
    <path class="cls-16" d="M1777.38,57.25c0-1.89.28-3.47.85-4.75.42-.94,1-1.79,1.73-2.54.73-.75,1.53-1.31,2.4-1.67,1.15-.49,2.49-.73,4-.73,2.73,0,4.92.85,6.56,2.54,1.64,1.69,2.46,4.05,2.46,7.07s-.81,5.33-2.44,7.02-3.8,2.53-6.52,2.53-4.95-.84-6.58-2.52c-1.63-1.68-2.44-4-2.44-6.95ZM1781.24,57.13c0,2.1.48,3.69,1.45,4.77s2.2,1.62,3.69,1.62,2.72-.54,3.67-1.61c.96-1.07,1.43-2.69,1.43-4.84s-.47-3.71-1.4-4.75c-.93-1.05-2.17-1.57-3.71-1.57s-2.79.53-3.73,1.59c-.94,1.06-1.42,2.65-1.42,4.79Z"/>
    <path class="cls-16" d="M1798.32,66.41v-18.54h3.64l7.59,12.38v-12.38h3.48v18.54h-3.75l-7.47-12.09v12.09h-3.48Z"/>
    <path class="cls-16" d="M1816.04,60.38l3.64-.35c.22,1.22.66,2.12,1.33,2.69s1.57.86,2.71.86c1.21,0,2.11-.25,2.72-.77.61-.51.92-1.11.92-1.79,0-.44-.13-.81-.39-1.12-.26-.31-.71-.58-1.35-.8-.44-.15-1.44-.42-3-.81-2.01-.5-3.41-1.11-4.22-1.83-1.14-1.02-1.71-2.26-1.71-3.73,0-.94.27-1.83.8-2.65.54-.82,1.31-1.45,2.31-1.88,1.01-.43,2.22-.64,3.65-.64,2.33,0,4.08.51,5.25,1.53,1.18,1.02,1.79,2.38,1.85,4.08l-3.74.16c-.16-.95-.5-1.64-1.03-2.05-.53-.42-1.32-.63-2.37-.63s-1.94.22-2.55.67c-.4.29-.59.67-.59,1.15,0,.44.19.81.56,1.13.47.4,1.62.81,3.44,1.24,1.82.43,3.17.87,4.04,1.33.87.46,1.56,1.09,2.05,1.88.49.8.74,1.78.74,2.95,0,1.06-.29,2.06-.88,2.98s-1.42,1.62-2.5,2.07-2.42.68-4.03.68c-2.34,0-4.14-.54-5.4-1.62-1.26-1.08-2.01-2.66-2.25-4.74Z"/>
    <path class="cls-16" d="M1656.79,90.67v-3.12h8.07v7.38c-.78.76-1.92,1.43-3.41,2-1.49.58-2.99.87-4.52.87-1.94,0-3.63-.41-5.07-1.22s-2.52-1.98-3.25-3.49c-.72-1.51-1.09-3.16-1.09-4.94,0-1.93.4-3.65,1.21-5.15.81-1.5,1.99-2.65,3.55-3.45,1.19-.62,2.67-.92,4.44-.92,2.3,0,4.1.48,5.39,1.45,1.29.96,2.13,2.3,2.5,4l-3.72.7c-.26-.91-.75-1.63-1.47-2.16-.72-.53-1.62-.79-2.7-.79-1.63,0-2.94.52-3.9,1.56s-1.45,2.58-1.45,4.61c0,2.2.49,3.85,1.47,4.95.98,1.1,2.26,1.65,3.84,1.65.78,0,1.57-.15,2.36-.46s1.46-.68,2.03-1.12v-2.35h-4.29Z"/>
    <path class="cls-16" d="M1685.02,97.48h-4.07l-1.62-4.21h-7.41l-1.53,4.21h-3.97l7.22-18.54h3.96l7.42,18.54ZM1678.13,90.15l-2.55-6.88-2.5,6.88h5.06Z"/>
    <path class="cls-16" d="M1689.26,97.48v-15.4h-5.5v-3.14h14.73v3.14h-5.49v15.4h-3.74Z"/>
    <path class="cls-16" d="M1700.9,97.48v-18.54h13.74v3.14h-10v4.11h9.31v3.12h-9.31v5.04h10.36v3.12h-14.1Z"/>
    <path class="cls-16" d="M1720.8,97.48l-4.42-18.54h3.83l2.79,12.73,3.39-12.73h4.45l3.25,12.95,2.84-12.95h3.77l-4.5,18.54h-3.97l-3.69-13.86-3.68,13.86h-4.06Z"/>
    <path class="cls-16" d="M1757.9,97.48h-4.07l-1.62-4.21h-7.41l-1.53,4.21h-3.97l7.22-18.54h3.96l7.42,18.54ZM1751.01,90.15l-2.55-6.88-2.5,6.88h5.06Z"/>
    <path class="cls-16" d="M1762.38,97.48v-7.8l-6.79-10.73h4.39l4.36,7.33,4.27-7.33h4.31l-6.82,10.76v7.78h-3.73Z"/>
  </g>
  <rect class="cls-18" x="954.75" y="150.53" width="118.81" height="118.81" rx="19.94" ry="19.94"/>
  <rect class="cls-19" x="466.12" y="168.14" width="118.81" height="118.81" rx="19.94" ry="19.94"/>
  <text class="cls-10" transform="translate(476.14 312.6)"><tspan x="0" y="0">Customer</tspan></text>
  <g>
    <path class="cls-17" d="M951.44,287.05c0-2.71.73-4.83,2.18-6.36,1.45-1.53,3.33-2.3,5.63-2.3,1.51,0,2.86.36,4.07,1.08,1.21.72,2.13,1.72,2.76,3.01.63,1.29.95,2.75.95,4.38s-.33,3.13-1,4.44c-.67,1.31-1.61,2.29-2.84,2.96-1.22.67-2.54,1.01-3.96,1.01-1.54,0-2.91-.37-4.12-1.11s-2.12-1.75-2.75-3.04-.93-2.64-.93-4.07ZM953.66,287.08c0,1.97.53,3.51,1.58,4.65,1.06,1.13,2.38,1.7,3.98,1.7s2.96-.57,4.01-1.71c1.05-1.14,1.57-2.76,1.57-4.86,0-1.33-.22-2.49-.67-3.48-.45-.99-1.11-1.76-1.97-2.3-.86-.54-1.83-.82-2.91-.82-1.53,0-2.84.52-3.94,1.57-1.1,1.05-1.65,2.8-1.65,5.26Z"/>
    <path class="cls-17" d="M969.56,294.99v-11.82h1.8v1.68c.87-1.3,2.12-1.95,3.76-1.95.71,0,1.37.13,1.96.38.6.26,1.04.59,1.34,1.01.3.42.5.91.62,1.48.07.37.11,1.02.11,1.95v7.27h-2v-7.19c0-.82-.08-1.43-.23-1.83-.16-.4-.43-.73-.83-.97-.4-.24-.86-.36-1.4-.36-.85,0-1.59.27-2.21.81s-.93,1.57-.93,3.08v6.45h-2Z"/>
    <path class="cls-17" d="M982.19,294.99v-16.31h2v16.31h-2Z"/>
    <path class="cls-17" d="M987.31,280.98v-2.3h2v2.3h-2ZM987.31,294.99v-11.82h2v11.82h-2Z"/>
    <path class="cls-17" d="M992.36,294.99v-11.82h1.8v1.68c.87-1.3,2.12-1.95,3.76-1.95.71,0,1.37.13,1.96.38.6.26,1.04.59,1.34,1.01.3.42.5.91.62,1.48.07.37.11,1.02.11,1.95v7.27h-2v-7.19c0-.82-.08-1.43-.23-1.83-.16-.4-.43-.73-.83-.97-.4-.24-.86-.36-1.4-.36-.85,0-1.59.27-2.21.81s-.93,1.57-.93,3.08v6.45h-2Z"/>
    <path class="cls-17" d="M1013.12,291.19l2.07.26c-.33,1.21-.93,2.15-1.81,2.81s-2.01,1-3.38,1c-1.73,0-3.1-.53-4.11-1.6s-1.52-2.56-1.52-4.48.51-3.53,1.54-4.63,2.35-1.65,3.98-1.65,2.87.54,3.87,1.61c1,1.08,1.5,2.59,1.5,4.54,0,.12,0,.3-.01.53h-8.81c.07,1.3.44,2.29,1.1,2.98s1.48,1.03,2.47,1.03c.73,0,1.36-.19,1.88-.58.52-.39.93-1,1.23-1.85ZM1006.55,287.95h6.6c-.09-.99-.34-1.74-.76-2.24-.64-.77-1.46-1.16-2.48-1.16-.92,0-1.69.31-2.32.92s-.97,1.44-1.04,2.47Z"/>
    <path class="cls-17" d="M1023.56,289.75l2.04-.18c.1.82.32,1.49.67,2.01.35.52.9.95,1.64,1.27.74.32,1.58.48,2.5.48.82,0,1.55-.12,2.18-.37.63-.25,1.1-.58,1.41-1.01.31-.43.46-.89.46-1.4s-.15-.96-.45-1.34c-.3-.38-.79-.7-1.47-.96-.44-.17-1.41-.44-2.9-.8-1.5-.36-2.55-.7-3.15-1.02-.78-.41-1.36-.91-1.74-1.52-.38-.6-.57-1.28-.57-2.03,0-.82.23-1.59.7-2.31s1.15-1.26,2.05-1.63c.9-.37,1.9-.56,2.99-.56,1.21,0,2.28.19,3.2.58.92.39,1.63.96,2.13,1.72.5.76.76,1.61.8,2.57l-2.07.16c-.11-1.03-.49-1.81-1.13-2.34-.64-.53-1.59-.79-2.84-.79s-2.26.24-2.85.72c-.6.48-.9,1.06-.9,1.73,0,.59.21,1.07.63,1.45.42.38,1.5.77,3.25,1.16,1.75.4,2.96.74,3.61,1.04.95.44,1.65.99,2.1,1.66.45.67.68,1.44.68,2.32s-.25,1.69-.75,2.45c-.5.77-1.21,1.36-2.14,1.79-.93.43-1.98.64-3.14.64-1.48,0-2.71-.22-3.71-.65-1-.43-1.78-1.08-2.35-1.94s-.87-1.84-.9-2.93Z"/>
    <path class="cls-17" d="M1043.61,293.2l.29,1.77c-.56.12-1.07.18-1.51.18-.73,0-1.29-.12-1.69-.34-.4-.23-.68-.53-.85-.91-.16-.37-.25-1.16-.25-2.36v-6.8h-1.47v-1.56h1.47v-2.93l1.99-1.2v4.13h2.01v1.56h-2.01v6.91c0,.57.04.94.11,1.1s.19.29.34.39c.16.1.39.14.68.14.22,0,.52-.03.88-.08Z"/>
    <path class="cls-17" d="M1044.82,289.08c0-2.19.61-3.81,1.82-4.86,1.02-.88,2.25-1.31,3.72-1.31,1.62,0,2.95.53,3.98,1.6,1.03,1.06,1.55,2.54,1.55,4.41,0,1.52-.23,2.72-.68,3.59-.46.87-1.12,1.55-1.99,2.03-.87.48-1.82.72-2.85.72-1.65,0-2.99-.53-4.01-1.59-1.02-1.06-1.53-2.59-1.53-4.58ZM1046.88,289.08c0,1.51.33,2.65.99,3.4.66.75,1.49,1.13,2.49,1.13s1.82-.38,2.48-1.13c.66-.76.99-1.91.99-3.46,0-1.46-.33-2.57-1-3.32-.66-.75-1.49-1.13-2.48-1.13s-1.83.37-2.49,1.12c-.66.75-.99,1.88-.99,3.39Z"/>
    <path class="cls-17" d="M1058.22,294.99v-11.82h1.8v1.79c.46-.84.88-1.39,1.27-1.66.39-.27.82-.4,1.29-.4.67,0,1.36.22,2.06.65l-.69,1.86c-.49-.29-.98-.43-1.47-.43-.44,0-.83.13-1.18.4s-.6.63-.75,1.1c-.22.71-.33,1.49-.33,2.34v6.19h-2Z"/>
    <path class="cls-17" d="M1073.92,291.19l2.07.26c-.33,1.21-.93,2.15-1.81,2.81s-2.01,1-3.38,1c-1.73,0-3.1-.53-4.11-1.6s-1.52-2.56-1.52-4.48.51-3.53,1.54-4.63,2.35-1.65,3.98-1.65,2.87.54,3.87,1.61c1,1.08,1.5,2.59,1.5,4.54,0,.12,0,.3-.01.53h-8.81c.07,1.3.44,2.29,1.1,2.98s1.48,1.03,2.47,1.03c.73,0,1.36-.19,1.88-.58.52-.39.93-1,1.23-1.85ZM1067.34,287.95h6.6c-.09-.99-.34-1.74-.76-2.24-.64-.77-1.46-1.16-2.48-1.16-.92,0-1.69.31-2.32.92s-.97,1.44-1.04,2.47Z"/>
    <path class="cls-17" d="M949.16,316.62l2.16.55c-.45,1.77-1.27,3.12-2.44,4.06-1.18.93-2.61,1.4-4.31,1.4s-3.19-.36-4.29-1.07-1.94-1.75-2.51-3.11-.86-2.81-.86-4.37c0-1.7.32-3.18.97-4.44s1.57-2.23,2.77-2.88c1.2-.66,2.52-.98,3.96-.98,1.63,0,3,.42,4.12,1.25s1.89,2,2.33,3.5l-2.12.5c-.38-1.19-.93-2.05-1.65-2.59s-1.62-.81-2.71-.81c-1.25,0-2.3.3-3.14.9s-1.43,1.41-1.77,2.42c-.34,1.01-.51,2.06-.51,3.13,0,1.39.2,2.6.61,3.63.4,1.03,1.03,1.81,1.89,2.32.85.51,1.78.77,2.77.77,1.21,0,2.23-.35,3.07-1.05.84-.7,1.41-1.73,1.7-3.1Z"/>
    <path class="cls-17" d="M953.72,322.34v-16.31h2v5.85c.93-1.08,2.11-1.62,3.54-1.62.88,0,1.64.17,2.28.52s1.11.82,1.38,1.43c.28.61.42,1.49.42,2.65v7.49h-2v-7.49c0-1-.22-1.73-.65-2.19-.43-.46-1.05-.68-1.84-.68-.59,0-1.15.15-1.67.46-.52.31-.9.73-1.12,1.25-.22.53-.33,1.25-.33,2.18v6.46h-2Z"/>
    <path class="cls-17" d="M974.48,318.53l2.07.26c-.33,1.21-.93,2.15-1.81,2.81s-2.01,1-3.38,1c-1.73,0-3.1-.53-4.11-1.6s-1.52-2.56-1.52-4.48.51-3.53,1.54-4.63,2.35-1.65,3.98-1.65,2.87.54,3.87,1.61c1,1.08,1.5,2.59,1.5,4.54,0,.12,0,.3-.01.53h-8.81c.07,1.3.44,2.29,1.1,2.98s1.48,1.03,2.47,1.03c.73,0,1.36-.19,1.88-.58.52-.39.93-1,1.23-1.85ZM967.91,315.29h6.6c-.09-.99-.34-1.74-.76-2.24-.64-.77-1.46-1.16-2.48-1.16-.92,0-1.69.31-2.32.92s-.97,1.44-1.04,2.47Z"/>
    <path class="cls-17" d="M986.78,318.01l1.97.26c-.21,1.36-.77,2.42-1.65,3.19-.89.77-1.98,1.15-3.27,1.15-1.62,0-2.92-.53-3.9-1.59s-1.47-2.57-1.47-4.55c0-1.28.21-2.39.63-3.35.42-.96,1.07-1.67,1.93-2.15.86-.48,1.8-.72,2.82-.72,1.28,0,2.33.32,3.15.97.82.65,1.34,1.57,1.57,2.77l-1.95.3c-.19-.79-.51-1.39-.98-1.79-.47-.4-1.04-.6-1.71-.6-1.01,0-1.83.36-2.46,1.08-.63.72-.95,1.87-.95,3.43s.3,2.74.91,3.46c.61.72,1.4,1.08,2.38,1.08.79,0,1.44-.24,1.97-.72.53-.48.86-1.22,1-2.23Z"/>
    <path class="cls-17" d="M990.47,322.34v-16.31h2v9.3l4.74-4.81h2.59l-4.52,4.38,4.97,7.43h-2.47l-3.91-6.04-1.41,1.36v4.68h-2Z"/>
    <path class="cls-17" d="M1001.11,316.43c0-2.19.61-3.81,1.82-4.86,1.02-.88,2.25-1.31,3.72-1.31,1.62,0,2.95.53,3.98,1.6,1.03,1.06,1.55,2.54,1.55,4.41,0,1.52-.23,2.72-.68,3.59-.46.87-1.12,1.55-1.99,2.03-.87.48-1.82.72-2.85.72-1.65,0-2.99-.53-4.01-1.59-1.02-1.06-1.53-2.59-1.53-4.58ZM1003.17,316.43c0,1.51.33,2.65.99,3.4.66.75,1.49,1.13,2.49,1.13s1.82-.38,2.48-1.13c.66-.76.99-1.91.99-3.46,0-1.46-.33-2.57-1-3.32-.66-.75-1.49-1.13-2.48-1.13s-1.83.37-2.49,1.12c-.66.75-.99,1.88-.99,3.39Z"/>
    <path class="cls-17" d="M1022.27,322.34v-1.74c-.92,1.34-2.17,2-3.75,2-.7,0-1.35-.13-1.95-.4-.6-.27-1.05-.6-1.35-1.01-.29-.4-.5-.9-.62-1.49-.08-.39-.12-1.02-.12-1.87v-7.32h2v6.55c0,1.05.04,1.75.12,2.11.13.53.39.94.8,1.24s.91.45,1.51.45,1.16-.15,1.69-.46c.53-.31.9-.73,1.12-1.26.22-.53.33-1.3.33-2.31v-6.33h2v11.82h-1.79Z"/>
    <path class="cls-17" d="M1031.57,320.55l.29,1.77c-.56.12-1.07.18-1.51.18-.73,0-1.29-.12-1.69-.34-.4-.23-.68-.53-.85-.91-.16-.37-.25-1.16-.25-2.36v-6.8h-1.47v-1.56h1.47v-2.93l1.99-1.2v4.13h2.01v1.56h-2.01v6.91c0,.57.04.94.11,1.1s.19.29.34.39c.16.1.39.14.68.14.22,0,.52-.03.88-.08Z"/>
    <path class="cls-17" d="M1040.12,322.34v-16.31h6.15c1.08,0,1.91.05,2.48.16.8.13,1.47.39,2.01.76.54.37.98.9,1.31,1.57.33.67.5,1.42.5,2.23,0,1.39-.44,2.56-1.32,3.52-.88.96-2.48,1.44-4.79,1.44h-4.18v6.63h-2.16ZM1042.27,313.78h4.22c1.39,0,2.38-.26,2.97-.78s.88-1.25.88-2.19c0-.68-.17-1.27-.52-1.75s-.8-.81-1.36-.96c-.36-.1-1.03-.15-2.01-.15h-4.17v5.83Z"/>
    <path class="cls-17" d="M1062.77,320.88c-.74.63-1.46,1.08-2.14,1.33-.69.26-1.42.39-2.21.39-1.3,0-2.3-.32-2.99-.95-.7-.63-1.05-1.44-1.05-2.43,0-.58.13-1.11.4-1.59.26-.48.61-.86,1.03-1.15.43-.29.91-.51,1.44-.66.39-.1.99-.2,1.78-.3,1.62-.19,2.81-.42,3.57-.69,0-.27.01-.45.01-.52,0-.82-.19-1.39-.57-1.72-.51-.45-1.27-.68-2.28-.68-.94,0-1.64.17-2.09.5-.45.33-.78.91-1,1.75l-1.96-.27c.18-.84.47-1.52.88-2.03.41-.52,1-.91,1.77-1.19s1.67-.42,2.68-.42,1.83.12,2.46.36c.63.24,1.09.54,1.39.9s.5.81.62,1.36c.07.34.1.96.1,1.85v2.67c0,1.86.04,3.04.13,3.53.08.49.25.97.51,1.42h-2.09c-.21-.42-.34-.9-.4-1.46ZM1062.6,316.41c-.73.3-1.82.55-3.27.76-.82.12-1.41.25-1.75.4-.34.15-.6.37-.79.65-.19.29-.28.6-.28.95,0,.53.2.98.61,1.33s1,.53,1.77.53,1.46-.17,2.06-.51c.6-.34,1.04-.8,1.32-1.39.22-.45.32-1.12.32-2v-.73Z"/>
    <path class="cls-17" d="M1067.36,323.32l1.95.29c.08.6.31,1.04.68,1.31.5.37,1.18.56,2.04.56.93,0,1.64-.19,2.15-.56.5-.37.85-.89,1.02-1.56.1-.41.15-1.26.14-2.57-.88,1.03-1.97,1.55-3.27,1.55-1.62,0-2.88-.59-3.77-1.76-.89-1.17-1.33-2.58-1.33-4.22,0-1.13.2-2.17.61-3.12.41-.95,1-1.69,1.77-2.21.78-.52,1.69-.78,2.73-.78,1.39,0,2.54.56,3.45,1.69v-1.42h1.85v10.21c0,1.84-.19,3.14-.56,3.91-.38.77-.97,1.37-1.78,1.82-.81.44-1.81.67-3,.67-1.41,0-2.55-.32-3.42-.95-.87-.63-1.29-1.59-1.26-2.87ZM1069.02,316.22c0,1.55.31,2.68.92,3.39.62.71,1.39,1.07,2.31,1.07s1.69-.35,2.31-1.06c.62-.71.93-1.82.93-3.33s-.32-2.54-.96-3.27c-.64-.73-1.42-1.1-2.32-1.1s-1.65.36-2.27,1.08-.93,1.8-.93,3.22Z"/>
    <path class="cls-17" d="M1088.49,318.53l2.07.26c-.33,1.21-.93,2.15-1.81,2.81s-2.01,1-3.38,1c-1.73,0-3.1-.53-4.11-1.6s-1.52-2.56-1.52-4.48.51-3.53,1.54-4.63,2.35-1.65,3.98-1.65,2.87.54,3.87,1.61c1,1.08,1.5,2.59,1.5,4.54,0,.12,0,.3-.01.53h-8.81c.07,1.3.44,2.29,1.1,2.98s1.48,1.03,2.47,1.03c.73,0,1.36-.19,1.88-.58.52-.39.93-1,1.23-1.85ZM1081.92,315.29h6.6c-.09-.99-.34-1.74-.76-2.24-.64-.77-1.46-1.16-2.48-1.16-.92,0-1.69.31-2.32.92s-.97,1.44-1.04,2.47Z"/>
  </g>
  <rect class="cls-15" x="1522.76" y="150.53" width="118.81" height="118.81" rx="19.94" ry="19.94"/>
  <g>
    <path class="cls-17" d="M1480.48,294.99v-16.31h2.16v6.7h8.48v-6.7h2.16v16.31h-2.16v-7.69h-8.48v7.69h-2.16Z"/>
    <path class="cls-17" d="M1496.21,287.05c0-2.71.73-4.83,2.18-6.36,1.45-1.53,3.33-2.3,5.63-2.3,1.51,0,2.86.36,4.07,1.08,1.21.72,2.13,1.72,2.76,3.01.63,1.29.95,2.75.95,4.38s-.33,3.13-1,4.44c-.67,1.31-1.61,2.29-2.84,2.96-1.22.67-2.54,1.01-3.96,1.01-1.54,0-2.91-.37-4.12-1.11s-2.12-1.75-2.75-3.04-.93-2.64-.93-4.07ZM1498.44,287.08c0,1.97.53,3.51,1.58,4.65,1.06,1.13,2.38,1.7,3.98,1.7s2.96-.57,4.01-1.71c1.05-1.14,1.57-2.76,1.57-4.86,0-1.33-.22-2.49-.67-3.48-.45-.99-1.11-1.76-1.97-2.3-.86-.54-1.83-.82-2.91-.82-1.53,0-2.84.52-3.94,1.57-1.1,1.05-1.65,2.8-1.65,5.26Z"/>
    <path class="cls-17" d="M1513.86,289.75l2.04-.18c.1.82.32,1.49.67,2.01.35.52.9.95,1.64,1.27.74.32,1.58.48,2.5.48.82,0,1.55-.12,2.18-.37.63-.25,1.1-.58,1.41-1.01.31-.43.46-.89.46-1.4s-.15-.96-.45-1.34c-.3-.38-.79-.7-1.47-.96-.44-.17-1.41-.44-2.9-.8-1.5-.36-2.55-.7-3.15-1.02-.78-.41-1.36-.91-1.74-1.52-.38-.6-.57-1.28-.57-2.03,0-.82.23-1.59.7-2.31s1.15-1.26,2.05-1.63c.9-.37,1.9-.56,2.99-.56,1.21,0,2.28.19,3.2.58.92.39,1.63.96,2.13,1.72.5.76.76,1.61.8,2.57l-2.07.16c-.11-1.03-.49-1.81-1.13-2.34-.64-.53-1.59-.79-2.84-.79s-2.26.24-2.85.72c-.6.48-.9,1.06-.9,1.73,0,.59.21,1.07.63,1.45.42.38,1.5.77,3.25,1.16,1.75.4,2.96.74,3.61,1.04.95.44,1.65.99,2.1,1.66.45.67.68,1.44.68,2.32s-.25,1.69-.75,2.45c-.5.77-1.21,1.36-2.14,1.79-.93.43-1.98.64-3.14.64-1.48,0-2.71-.22-3.71-.65-1-.43-1.78-1.08-2.35-1.94s-.87-1.84-.9-2.93Z"/>
    <path class="cls-17" d="M1533.94,294.99v-14.39h-5.37v-1.92h12.93v1.92h-5.4v14.39h-2.16Z"/>
    <path class="cls-17" d="M1543.76,294.99v-16.31h11.79v1.92h-9.64v5h9.02v1.91h-9.02v5.55h10.01v1.92h-12.17Z"/>
    <path class="cls-17" d="M1558.91,294.99v-16.31h5.62c1.27,0,2.24.08,2.9.23.93.22,1.73.6,2.39,1.17.86.73,1.5,1.66,1.93,2.79.43,1.13.64,2.42.64,3.88,0,1.24-.14,2.34-.43,3.29-.29.96-.66,1.75-1.11,2.38-.45.63-.95,1.12-1.49,1.48-.54.36-1.19.63-1.95.82-.76.19-1.63.28-2.62.28h-5.89ZM1561.07,293.07h3.48c1.08,0,1.92-.1,2.53-.3.61-.2,1.1-.48,1.46-.85.51-.51.91-1.2,1.2-2.06.29-.86.43-1.91.43-3.14,0-1.71-.28-3.02-.84-3.93-.56-.92-1.24-1.53-2.04-1.84-.58-.22-1.51-.33-2.79-.33h-3.43v12.46Z"/>
    <path class="cls-17" d="M1581.7,294.99v-16.31h6.15c1.08,0,1.91.05,2.48.16.8.13,1.47.39,2.01.76.54.37.98.9,1.31,1.57.33.67.5,1.42.5,2.23,0,1.39-.44,2.56-1.32,3.52-.88.96-2.48,1.44-4.79,1.44h-4.18v6.63h-2.16ZM1583.86,286.44h4.22c1.39,0,2.38-.26,2.97-.78s.88-1.25.88-2.19c0-.68-.17-1.27-.52-1.75s-.8-.81-1.36-.96c-.36-.1-1.03-.15-2.01-.15h-4.17v5.83Z"/>
    <path class="cls-17" d="M1593.42,294.99l6.26-16.31h2.33l6.68,16.31h-2.46l-1.9-4.94h-6.82l-1.79,4.94h-2.29ZM1598.12,288.29h5.53l-1.7-4.52c-.52-1.37-.91-2.5-1.16-3.38-.21,1.05-.5,2.08-.88,3.12l-1.79,4.78Z"/>
    <path class="cls-17" d="M1613.31,294.99v-6.91l-6.29-9.4h2.63l3.22,4.92c.59.92,1.15,1.84,1.66,2.76.49-.85,1.08-1.81,1.78-2.88l3.16-4.8h2.51l-6.51,9.4v6.91h-2.16Z"/>
    <path class="cls-17" d="M1623.85,294.99v-16.31h3.25l3.86,11.55c.36,1.08.62,1.88.78,2.41.19-.59.47-1.46.87-2.61l3.91-11.35h2.9v16.31h-2.08v-13.65l-4.74,13.65h-1.95l-4.72-13.89v13.89h-2.08Z"/>
    <path class="cls-17" d="M1642.94,294.99v-16.31h11.79v1.92h-9.64v5h9.02v1.91h-9.02v5.55h10.01v1.92h-12.17Z"/>
    <path class="cls-17" d="M1658.07,294.99v-16.31h2.21l8.57,12.81v-12.81h2.07v16.31h-2.21l-8.57-12.82v12.82h-2.07Z"/>
    <path class="cls-17" d="M1678.7,294.99v-14.39h-5.37v-1.92h12.93v1.92h-5.4v14.39h-2.16Z"/>
    <path class="cls-17" d="M1553.42,322.34v-16.31h6.15c1.08,0,1.91.05,2.48.16.8.13,1.47.39,2.01.76.54.37.98.9,1.31,1.57.33.67.5,1.42.5,2.23,0,1.39-.44,2.56-1.32,3.52-.88.96-2.48,1.44-4.79,1.44h-4.18v6.63h-2.16ZM1555.58,313.78h4.22c1.39,0,2.38-.26,2.97-.78s.88-1.25.88-2.19c0-.68-.17-1.27-.52-1.75s-.8-.81-1.36-.96c-.36-.1-1.03-.15-2.01-.15h-4.17v5.83Z"/>
    <path class="cls-17" d="M1565.14,322.34l6.26-16.31h2.33l6.68,16.31h-2.46l-1.9-4.94h-6.82l-1.79,4.94h-2.29ZM1569.84,315.64h5.53l-1.7-4.52c-.52-1.37-.91-2.5-1.16-3.38-.21,1.05-.5,2.08-.88,3.12l-1.79,4.78Z"/>
    <path class="cls-17" d="M1589.76,315.94v-1.91h6.91s0,6.04,0,6.04c-1.06.85-2.15,1.48-3.28,1.91-1.13.43-2.28.64-3.47.64-1.6,0-3.06-.34-4.37-1.03-1.31-.69-2.3-1.68-2.97-2.98-.67-1.3-1-2.75-1-4.35s.33-3.07,1-4.45c.66-1.38,1.62-2.4,2.86-3.07,1.25-.67,2.68-1,4.31-1,1.18,0,2.25.19,3.2.57.95.38,1.7.91,2.24,1.6.54.68.95,1.57,1.24,2.67l-1.95.53c-.25-.83-.55-1.48-.91-1.96-.36-.47-.88-.85-1.56-1.14-.68-.29-1.42-.43-2.25-.43-.99,0-1.84.15-2.56.45-.72.3-1.3.7-1.74,1.19-.44.49-.79,1.03-1.03,1.61-.42,1.01-.62,2.1-.62,3.28,0,1.45.25,2.67.75,3.65.5.98,1.23,1.71,2.19,2.18.96.47,1.97.71,3.05.71.93,0,1.85-.18,2.74-.54.89-.36,1.57-.74,2.03-1.15v-3.04h-4.8Z"/>
    <path class="cls-17" d="M1599.9,322.34v-16.31h11.79v1.92h-9.64v5h9.02v1.91h-9.02v5.55h10.01v1.92h-12.17Z"/>
  </g>
  <rect class="cls-18" x="1117.78" y="404.29" width="118.81" height="118.81" rx="19.94" ry="19.94"/>
  <text class="cls-10" transform="translate(1683.75 553.94)"><tspan x="0" y="0">APIs</tspan></text>
  <rect class="cls-15" x="1784.81" y="150.53" width="118.81" height="118.81" rx="19.94" ry="19.94"/>
  <g>
    <path class="cls-17" d="M1750.28,294.99v-16.31h2.16v6.7h8.48v-6.7h2.16v16.31h-2.16v-7.69h-8.48v7.69h-2.16Z"/>
    <path class="cls-17" d="M1765.67,289.08c0-2.19.61-3.81,1.82-4.86,1.02-.88,2.25-1.31,3.72-1.31,1.62,0,2.95.53,3.98,1.6,1.03,1.06,1.55,2.54,1.55,4.41,0,1.52-.23,2.72-.68,3.59-.46.87-1.12,1.55-1.99,2.03-.87.48-1.82.72-2.85.72-1.65,0-2.99-.53-4.01-1.59-1.02-1.06-1.53-2.59-1.53-4.58ZM1767.72,289.08c0,1.51.33,2.65.99,3.4.66.75,1.49,1.13,2.49,1.13s1.82-.38,2.48-1.13c.66-.76.99-1.91.99-3.46,0-1.46-.33-2.57-1-3.32-.66-.75-1.49-1.13-2.48-1.13s-1.83.37-2.49,1.12c-.66.75-.99,1.88-.99,3.39Z"/>
    <path class="cls-17" d="M1778.28,291.47l1.98-.31c.11.79.42,1.4.93,1.83.51.42,1.22.63,2.13.63s1.6-.19,2.05-.56c.45-.37.67-.81.67-1.32,0-.45-.2-.81-.59-1.07-.27-.18-.96-.4-2.05-.68-1.47-.37-2.49-.69-3.05-.96s-1-.65-1.29-1.12c-.29-.48-.44-1.01-.44-1.59,0-.53.12-1.01.36-1.46s.57-.82.98-1.12c.31-.23.74-.42,1.27-.58.54-.16,1.11-.24,1.73-.24.93,0,1.74.13,2.44.4.7.27,1.22.63,1.55,1.08.33.46.56,1.07.69,1.83l-1.96.27c-.09-.61-.35-1.08-.77-1.42s-1.03-.51-1.81-.51c-.92,0-1.58.15-1.97.46-.39.3-.59.66-.59,1.07,0,.26.08.49.25.7.16.22.42.39.77.53.2.07.79.24,1.77.51,1.42.38,2.41.69,2.97.93.56.24,1,.59,1.32,1.05.32.46.48,1.03.48,1.71s-.2,1.3-.58,1.89c-.39.59-.95,1.05-1.69,1.37-.73.32-1.57.48-2.49.48-1.54,0-2.71-.32-3.51-.96-.8-.64-1.32-1.58-1.54-2.84Z"/>
    <path class="cls-17" d="M1794.85,293.2l.29,1.77c-.56.12-1.07.18-1.51.18-.73,0-1.29-.12-1.69-.34-.4-.23-.68-.53-.85-.91-.16-.37-.25-1.16-.25-2.36v-6.8h-1.47v-1.56h1.47v-2.93l1.99-1.2v4.13h2.01v1.56h-2.01v6.91c0,.57.04.94.11,1.1s.19.29.34.39c.16.1.39.14.68.14.22,0,.52-.03.88-.08Z"/>
    <path class="cls-17" d="M1804.9,291.19l2.07.26c-.33,1.21-.93,2.15-1.81,2.81s-2.01,1-3.38,1c-1.73,0-3.1-.53-4.11-1.6s-1.52-2.56-1.52-4.48.51-3.53,1.54-4.63,2.35-1.65,3.98-1.65,2.87.54,3.87,1.61c1,1.08,1.5,2.59,1.5,4.54,0,.12,0,.3-.01.53h-8.81c.07,1.3.44,2.29,1.1,2.98s1.48,1.03,2.47,1.03c.73,0,1.36-.19,1.88-.58.52-.39.93-1,1.23-1.85ZM1798.32,287.95h6.6c-.09-.99-.34-1.74-.76-2.24-.64-.77-1.46-1.16-2.48-1.16-.92,0-1.69.31-2.32.92s-.97,1.44-1.04,2.47Z"/>
    <path class="cls-17" d="M1817.15,294.99v-1.49c-.75,1.17-1.85,1.76-3.3,1.76-.94,0-1.81-.26-2.6-.78s-1.4-1.24-1.84-2.18c-.43-.93-.65-2-.65-3.21s.2-2.25.59-3.21c.39-.96.98-1.7,1.77-2.21.79-.51,1.67-.77,2.64-.77.71,0,1.35.15,1.9.45.56.3,1.01.69,1.36,1.17v-5.85h1.99v16.31h-1.86ZM1810.82,289.1c0,1.51.32,2.64.96,3.39s1.39,1.12,2.26,1.12,1.62-.36,2.23-1.07c.61-.72.92-1.81.92-3.28,0-1.62-.31-2.8-.93-3.56-.62-.76-1.39-1.13-2.3-1.13s-1.63.36-2.23,1.09c-.6.73-.9,1.87-.9,3.44Z"/>
    <path class="cls-17" d="M1832.48,294.99v-14.39h-5.37v-1.92h12.93v1.92h-5.4v14.39h-2.16Z"/>
    <path class="cls-17" d="M1841.99,294.99v-16.31h2v5.85c.93-1.08,2.11-1.62,3.54-1.62.88,0,1.64.17,2.28.52s1.11.82,1.38,1.43c.28.61.42,1.49.42,2.65v7.49h-2v-7.49c0-1-.22-1.73-.65-2.19-.43-.46-1.05-.68-1.84-.68-.59,0-1.15.15-1.67.46-.52.31-.9.73-1.12,1.25-.22.53-.33,1.25-.33,2.18v6.46h-2Z"/>
    <path class="cls-17" d="M1862.38,293.54c-.74.63-1.46,1.08-2.14,1.33-.69.26-1.42.39-2.21.39-1.3,0-2.3-.32-2.99-.95-.7-.63-1.05-1.44-1.05-2.43,0-.58.13-1.11.4-1.59.26-.48.61-.86,1.03-1.15.43-.29.91-.51,1.44-.66.39-.1.99-.2,1.78-.3,1.62-.19,2.81-.42,3.57-.69,0-.27.01-.45.01-.52,0-.82-.19-1.39-.57-1.72-.51-.45-1.27-.68-2.28-.68-.94,0-1.64.17-2.09.5-.45.33-.78.91-1,1.75l-1.96-.27c.18-.84.47-1.52.88-2.03.41-.52,1-.91,1.77-1.19s1.67-.42,2.68-.42,1.83.12,2.46.36c.63.24,1.09.54,1.39.9s.5.81.62,1.36c.07.34.1.96.1,1.85v2.67c0,1.86.04,3.04.13,3.53.08.49.25.97.51,1.42h-2.09c-.21-.42-.34-.9-.4-1.46ZM1862.21,289.06c-.73.3-1.82.55-3.27.76-.82.12-1.41.25-1.75.4-.34.15-.6.37-.79.65-.19.29-.28.6-.28.95,0,.53.2.98.61,1.33s1,.53,1.77.53,1.46-.17,2.06-.51c.6-.34,1.04-.8,1.32-1.39.22-.45.32-1.12.32-2v-.73Z"/>
    <path class="cls-17" d="M1867.34,294.99v-11.82h1.8v1.68c.87-1.3,2.12-1.95,3.76-1.95.71,0,1.37.13,1.96.38.6.26,1.04.59,1.34,1.01.3.42.5.91.62,1.48.07.37.11,1.02.11,1.95v7.27h-2v-7.19c0-.82-.08-1.43-.23-1.83-.16-.4-.43-.73-.83-.97-.4-.24-.86-.36-1.4-.36-.85,0-1.59.27-2.21.81s-.93,1.57-.93,3.08v6.45h-2Z"/>
    <path class="cls-17" d="M1880.02,294.99v-16.31h2v9.3l4.74-4.81h2.59l-4.52,4.38,4.97,7.43h-2.47l-3.91-6.04-1.41,1.36v4.68h-2Z"/>
    <path class="cls-17" d="M1902.18,294.99v-6.91l-6.29-9.4h2.63l3.22,4.92c.59.92,1.15,1.84,1.66,2.76.49-.85,1.08-1.81,1.78-2.88l3.16-4.8h2.51l-6.51,9.4v6.91h-2.16Z"/>
    <path class="cls-17" d="M1909.69,289.08c0-2.19.61-3.81,1.82-4.86,1.02-.88,2.25-1.31,3.72-1.31,1.62,0,2.95.53,3.98,1.6,1.03,1.06,1.55,2.54,1.55,4.41,0,1.52-.23,2.72-.68,3.59-.46.87-1.12,1.55-1.99,2.03-.87.48-1.82.72-2.85.72-1.65,0-2.99-.53-4.01-1.59-1.02-1.06-1.53-2.59-1.53-4.58ZM1911.74,289.08c0,1.51.33,2.65.99,3.4.66.75,1.49,1.13,2.49,1.13s1.82-.38,2.48-1.13c.66-.76.99-1.91.99-3.46,0-1.46-.33-2.57-1-3.32-.66-.75-1.49-1.13-2.48-1.13s-1.83.37-2.49,1.12c-.66.75-.99,1.88-.99,3.39Z"/>
    <path class="cls-17" d="M1930.85,294.99v-1.74c-.92,1.34-2.17,2-3.75,2-.7,0-1.35-.13-1.95-.4-.6-.27-1.05-.6-1.35-1.01-.29-.4-.5-.9-.62-1.49-.08-.39-.12-1.02-.12-1.87v-7.32h2v6.55c0,1.05.04,1.75.12,2.11.13.53.39.94.8,1.24s.91.45,1.51.45,1.16-.15,1.69-.46c.53-.31.9-.73,1.12-1.26.22-.53.33-1.3.33-2.31v-6.33h2v11.82h-1.79Z"/>
    <path class="cls-17" d="M1819.68,322.34v-16.31h6.15c1.08,0,1.91.05,2.48.16.8.13,1.47.39,2.01.76.54.37.98.9,1.31,1.57.33.67.5,1.42.5,2.23,0,1.39-.44,2.56-1.32,3.52-.88.96-2.48,1.44-4.79,1.44h-4.18v6.63h-2.16ZM1821.84,313.78h4.22c1.39,0,2.38-.26,2.97-.78s.88-1.25.88-2.19c0-.68-.17-1.27-.52-1.75s-.8-.81-1.36-.96c-.36-.1-1.03-.15-2.01-.15h-4.17v5.83Z"/>
    <path class="cls-17" d="M1842.33,320.88c-.74.63-1.46,1.08-2.14,1.33-.69.26-1.42.39-2.21.39-1.3,0-2.3-.32-2.99-.95-.7-.63-1.05-1.44-1.05-2.43,0-.58.13-1.11.4-1.59.26-.48.61-.86,1.03-1.15.43-.29.91-.51,1.44-.66.39-.1.99-.2,1.78-.3,1.62-.19,2.81-.42,3.57-.69,0-.27.01-.45.01-.52,0-.82-.19-1.39-.57-1.72-.51-.45-1.27-.68-2.28-.68-.94,0-1.64.17-2.09.5-.45.33-.78.91-1,1.75l-1.96-.27c.18-.84.47-1.52.88-2.03.41-.52,1-.91,1.77-1.19s1.67-.42,2.68-.42,1.83.12,2.46.36c.63.24,1.09.54,1.39.9s.5.81.62,1.36c.07.34.1.96.1,1.85v2.67c0,1.86.04,3.04.13,3.53.08.49.25.97.51,1.42h-2.09c-.21-.42-.34-.9-.4-1.46ZM1842.17,316.41c-.73.3-1.82.55-3.27.76-.82.12-1.41.25-1.75.4-.34.15-.6.37-.79.65-.19.29-.28.6-.28.95,0,.53.2.98.61,1.33s1,.53,1.77.53,1.46-.17,2.06-.51c.6-.34,1.04-.8,1.32-1.39.22-.45.32-1.12.32-2v-.73Z"/>
    <path class="cls-17" d="M1846.93,323.32l1.95.29c.08.6.31,1.04.68,1.31.5.37,1.18.56,2.04.56.93,0,1.64-.19,2.15-.56.5-.37.85-.89,1.02-1.56.1-.41.15-1.26.14-2.57-.88,1.03-1.97,1.55-3.27,1.55-1.62,0-2.88-.59-3.77-1.76-.89-1.17-1.33-2.58-1.33-4.22,0-1.13.2-2.17.61-3.12.41-.95,1-1.69,1.77-2.21.78-.52,1.69-.78,2.73-.78,1.39,0,2.54.56,3.45,1.69v-1.42h1.85v10.21c0,1.84-.19,3.14-.56,3.91-.38.77-.97,1.37-1.78,1.82-.81.44-1.81.67-3,.67-1.41,0-2.55-.32-3.42-.95-.87-.63-1.29-1.59-1.26-2.87ZM1848.58,316.22c0,1.55.31,2.68.92,3.39.62.71,1.39,1.07,2.31,1.07s1.69-.35,2.31-1.06c.62-.71.93-1.82.93-3.33s-.32-2.54-.96-3.27c-.64-.73-1.42-1.1-2.32-1.1s-1.65.36-2.27,1.08-.93,1.8-.93,3.22Z"/>
    <path class="cls-17" d="M1868.06,318.53l2.07.26c-.33,1.21-.93,2.15-1.81,2.81s-2.01,1-3.38,1c-1.73,0-3.1-.53-4.11-1.6s-1.52-2.56-1.52-4.48.51-3.53,1.54-4.63,2.35-1.65,3.98-1.65,2.87.54,3.87,1.61c1,1.08,1.5,2.59,1.5,4.54,0,.12,0,.3-.01.53h-8.81c.07,1.3.44,2.29,1.1,2.98s1.48,1.03,2.47,1.03c.73,0,1.36-.19,1.88-.58.52-.39.93-1,1.23-1.85ZM1861.48,315.29h6.6c-.09-.99-.34-1.74-.76-2.24-.64-.77-1.46-1.16-2.48-1.16-.92,0-1.69.31-2.32.92s-.97,1.44-1.04,2.47Z"/>
  </g>
  <rect class="cls-18" x="806.64" y="404.29" width="118.81" height="118.81" rx="19.94" ry="19.94"/>
  <rect class="cls-19" x="466.12" y="409.47" width="118.81" height="118.81" rx="19.94" ry="19.94"/>
  <text class="cls-10" transform="translate(476.14 553.94)"><tspan x="0" y="0">Customer</tspan></text>
  <g>
    <path class="cls-17" d="M803.32,540.81c0-2.71.73-4.83,2.18-6.36,1.45-1.53,3.33-2.3,5.63-2.3,1.51,0,2.86.36,4.07,1.08,1.21.72,2.13,1.72,2.76,3.01.63,1.29.95,2.75.95,4.38s-.33,3.13-1,4.44c-.67,1.31-1.61,2.29-2.84,2.97-1.22.67-2.54,1.01-3.96,1.01-1.54,0-2.91-.37-4.12-1.11-1.21-.74-2.12-1.75-2.75-3.04s-.93-2.64-.93-4.07ZM805.55,540.85c0,1.97.53,3.51,1.58,4.65,1.06,1.13,2.38,1.7,3.98,1.7s2.96-.57,4.01-1.71c1.05-1.14,1.57-2.76,1.57-4.86,0-1.33-.22-2.49-.67-3.48-.45-.99-1.11-1.76-1.97-2.3-.86-.54-1.83-.82-2.91-.82-1.53,0-2.84.52-3.94,1.57-1.1,1.05-1.65,2.8-1.65,5.26Z"/>
    <path class="cls-17" d="M821.45,548.76v-11.82h1.8v1.68c.87-1.3,2.12-1.95,3.76-1.95.71,0,1.37.13,1.96.38.6.26,1.04.59,1.34,1.01.3.42.5.91.62,1.48.07.37.11,1.02.11,1.95v7.27h-2v-7.19c0-.82-.08-1.43-.23-1.83-.16-.4-.43-.73-.83-.97-.4-.24-.86-.36-1.4-.36-.85,0-1.59.27-2.21.81s-.93,1.57-.93,3.08v6.45h-2Z"/>
    <path class="cls-17" d="M834.08,548.76v-16.31h2v16.31h-2Z"/>
    <path class="cls-17" d="M839.19,534.75v-2.3h2v2.3h-2ZM839.19,548.76v-11.82h2v11.82h-2Z"/>
    <path class="cls-17" d="M844.25,548.76v-11.82h1.8v1.68c.87-1.3,2.12-1.95,3.76-1.95.71,0,1.37.13,1.96.38.6.26,1.04.59,1.34,1.01.3.42.5.91.62,1.48.07.37.11,1.02.11,1.95v7.27h-2v-7.19c0-.82-.08-1.43-.23-1.83-.16-.4-.43-.73-.83-.97-.4-.24-.86-.36-1.4-.36-.85,0-1.59.27-2.21.81s-.93,1.57-.93,3.08v6.45h-2Z"/>
    <path class="cls-17" d="M865.01,544.95l2.07.26c-.33,1.21-.93,2.15-1.81,2.82s-2.01,1-3.38,1c-1.73,0-3.1-.53-4.11-1.6-1.01-1.06-1.52-2.56-1.52-4.48s.51-3.53,1.54-4.63,2.35-1.65,3.98-1.65,2.87.54,3.87,1.61c1,1.08,1.5,2.59,1.5,4.54,0,.12,0,.3-.01.53h-8.81c.07,1.3.44,2.29,1.1,2.98.66.69,1.48,1.03,2.47,1.03.73,0,1.36-.19,1.88-.58.52-.39.93-1,1.23-1.85ZM858.43,541.71h6.6c-.09-.99-.34-1.74-.76-2.24-.64-.77-1.46-1.16-2.48-1.16-.92,0-1.69.31-2.32.92s-.97,1.44-1.04,2.47Z"/>
    <path class="cls-17" d="M875.44,543.52l2.04-.18c.1.82.32,1.49.67,2.01.35.52.9.95,1.64,1.27.74.32,1.58.48,2.5.48.82,0,1.55-.12,2.18-.37.63-.24,1.1-.58,1.41-1.01.31-.43.46-.89.46-1.4s-.15-.96-.45-1.34c-.3-.38-.79-.7-1.47-.96-.44-.17-1.41-.44-2.9-.79-1.5-.36-2.55-.7-3.15-1.02-.78-.41-1.36-.91-1.74-1.52-.38-.6-.57-1.28-.57-2.03,0-.82.23-1.59.7-2.31s1.15-1.26,2.05-1.63c.9-.37,1.9-.56,2.99-.56,1.21,0,2.28.19,3.2.58.92.39,1.63.96,2.13,1.72.5.76.76,1.61.8,2.57l-2.07.16c-.11-1.03-.49-1.81-1.13-2.34-.64-.53-1.59-.79-2.84-.79s-2.26.24-2.85.72c-.6.48-.9,1.06-.9,1.73,0,.59.21,1.07.63,1.45.42.38,1.5.77,3.25,1.16,1.75.4,2.96.74,3.61,1.04.95.44,1.65.99,2.1,1.66.45.67.68,1.44.68,2.32s-.25,1.69-.75,2.45c-.5.77-1.21,1.37-2.14,1.79-.93.43-1.98.64-3.14.64-1.48,0-2.71-.22-3.71-.65-1-.43-1.78-1.08-2.35-1.94s-.87-1.84-.9-2.93Z"/>
    <path class="cls-17" d="M895.49,546.97l.29,1.77c-.56.12-1.07.18-1.51.18-.73,0-1.29-.12-1.69-.35-.4-.23-.68-.53-.85-.91-.16-.38-.25-1.16-.25-2.36v-6.8h-1.47v-1.56h1.47v-2.93l1.99-1.2v4.13h2.01v1.56h-2.01v6.91c0,.57.04.94.11,1.1s.19.29.34.39c.16.1.39.14.68.14.22,0,.52-.03.88-.08Z"/>
    <path class="cls-17" d="M896.71,542.85c0-2.19.61-3.81,1.82-4.86,1.02-.88,2.25-1.31,3.72-1.31,1.62,0,2.95.53,3.98,1.6,1.03,1.06,1.55,2.54,1.55,4.41,0,1.52-.23,2.72-.68,3.59-.46.87-1.12,1.55-1.99,2.03-.87.48-1.82.72-2.85.72-1.65,0-2.99-.53-4.01-1.59-1.02-1.06-1.53-2.59-1.53-4.58ZM898.77,542.85c0,1.51.33,2.65.99,3.4.66.75,1.49,1.13,2.49,1.13s1.82-.38,2.48-1.13.99-1.91.99-3.46c0-1.46-.33-2.57-1-3.32-.66-.75-1.49-1.13-2.48-1.13s-1.83.37-2.49,1.12c-.66.75-.99,1.88-.99,3.39Z"/>
    <path class="cls-17" d="M910.1,548.76v-11.82h1.8v1.79c.46-.84.88-1.39,1.27-1.66.39-.27.82-.4,1.29-.4.67,0,1.36.22,2.06.65l-.69,1.86c-.49-.29-.98-.43-1.47-.43-.44,0-.83.13-1.18.4s-.6.63-.75,1.1c-.22.71-.33,1.49-.33,2.34v6.19h-2Z"/>
    <path class="cls-17" d="M925.8,544.95l2.07.26c-.33,1.21-.93,2.15-1.81,2.82s-2.01,1-3.38,1c-1.73,0-3.1-.53-4.11-1.6-1.01-1.06-1.52-2.56-1.52-4.48s.51-3.53,1.54-4.63,2.35-1.65,3.98-1.65,2.87.54,3.87,1.61c1,1.08,1.5,2.59,1.5,4.54,0,.12,0,.3-.01.53h-8.81c.07,1.3.44,2.29,1.1,2.98.66.69,1.48,1.03,2.47,1.03.73,0,1.36-.19,1.88-.58.52-.39.93-1,1.23-1.85ZM919.23,541.71h6.6c-.09-.99-.34-1.74-.76-2.24-.64-.77-1.46-1.16-2.48-1.16-.92,0-1.69.31-2.32.92s-.97,1.44-1.04,2.47Z"/>
    <path class="cls-17" d="M801.04,570.38l2.16.54c-.45,1.77-1.27,3.12-2.44,4.06s-2.61,1.4-4.31,1.4-3.19-.36-4.29-1.07-1.94-1.75-2.51-3.11-.86-2.82-.86-4.37c0-1.7.32-3.18.97-4.44s1.57-2.23,2.77-2.88c1.2-.66,2.52-.99,3.96-.99,1.63,0,3,.42,4.12,1.25,1.11.83,1.89,2,2.33,3.5l-2.12.5c-.38-1.19-.93-2.05-1.65-2.59-.72-.54-1.62-.81-2.71-.81-1.25,0-2.3.3-3.14.9-.84.6-1.43,1.41-1.77,2.42-.34,1.01-.51,2.06-.51,3.13,0,1.39.2,2.6.61,3.63.4,1.03,1.03,1.81,1.89,2.32.85.51,1.78.77,2.77.77,1.21,0,2.23-.35,3.07-1.05.84-.7,1.41-1.73,1.7-3.1Z"/>
    <path class="cls-17" d="M805.6,576.1v-16.31h2v5.85c.93-1.08,2.11-1.62,3.54-1.62.88,0,1.64.17,2.28.52.65.35,1.11.82,1.38,1.43.28.61.42,1.49.42,2.65v7.49h-2v-7.49c0-1-.22-1.73-.65-2.19s-1.05-.68-1.84-.68c-.59,0-1.15.15-1.67.46-.52.31-.9.73-1.12,1.25-.22.53-.33,1.25-.33,2.18v6.46h-2Z"/>
    <path class="cls-17" d="M826.37,572.3l2.07.26c-.33,1.21-.93,2.15-1.81,2.82s-2.01,1-3.38,1c-1.73,0-3.1-.53-4.11-1.6-1.01-1.06-1.52-2.56-1.52-4.48s.51-3.53,1.54-4.63,2.35-1.65,3.98-1.65,2.87.54,3.87,1.61c1,1.08,1.5,2.59,1.5,4.54,0,.12,0,.3-.01.53h-8.81c.07,1.3.44,2.29,1.1,2.98.66.69,1.48,1.03,2.47,1.03.73,0,1.36-.19,1.88-.58.52-.39.93-1,1.23-1.85ZM819.79,569.06h6.6c-.09-.99-.34-1.74-.76-2.24-.64-.77-1.46-1.16-2.48-1.16-.92,0-1.69.31-2.32.92-.63.62-.97,1.44-1.04,2.47Z"/>
    <path class="cls-17" d="M838.66,571.77l1.97.26c-.21,1.36-.77,2.42-1.65,3.19-.89.77-1.98,1.15-3.27,1.15-1.62,0-2.92-.53-3.9-1.58-.98-1.06-1.47-2.57-1.47-4.54,0-1.28.21-2.39.63-3.35s1.07-1.67,1.93-2.15c.86-.48,1.8-.72,2.82-.72,1.28,0,2.33.32,3.15.97.82.65,1.34,1.57,1.57,2.76l-1.95.3c-.19-.79-.51-1.39-.98-1.79-.47-.4-1.04-.6-1.71-.6-1.01,0-1.83.36-2.46,1.08-.63.72-.95,1.87-.95,3.43s.3,2.74.91,3.46c.61.72,1.4,1.08,2.38,1.08.79,0,1.44-.24,1.97-.72.53-.48.86-1.22,1-2.23Z"/>
    <path class="cls-17" d="M842.35,576.1v-16.31h2v9.3l4.74-4.81h2.59l-4.52,4.38,4.97,7.43h-2.47l-3.91-6.04-1.41,1.36v4.68h-2Z"/>
    <path class="cls-17" d="M852.99,570.19c0-2.19.61-3.81,1.82-4.86,1.02-.88,2.25-1.31,3.72-1.31,1.62,0,2.95.53,3.98,1.6,1.03,1.06,1.55,2.54,1.55,4.41,0,1.52-.23,2.72-.68,3.59-.46.87-1.12,1.55-1.99,2.03-.87.48-1.82.72-2.85.72-1.65,0-2.99-.53-4.01-1.59-1.02-1.06-1.53-2.59-1.53-4.58ZM855.05,570.19c0,1.51.33,2.65.99,3.4.66.75,1.49,1.13,2.49,1.13s1.82-.38,2.48-1.13.99-1.91.99-3.46c0-1.46-.33-2.57-1-3.32-.66-.75-1.49-1.13-2.48-1.13s-1.83.38-2.49,1.12c-.66.75-.99,1.88-.99,3.39Z"/>
    <path class="cls-17" d="M874.15,576.1v-1.74c-.92,1.33-2.17,2-3.75,2-.7,0-1.35-.13-1.95-.4-.6-.27-1.05-.6-1.35-1.01s-.5-.9-.62-1.49c-.08-.39-.12-1.02-.12-1.87v-7.32h2v6.55c0,1.05.04,1.75.12,2.11.13.53.39.94.8,1.24s.91.45,1.51.45,1.16-.15,1.69-.46c.53-.31.9-.73,1.12-1.26s.33-1.3.33-2.31v-6.33h2v11.82h-1.79Z"/>
    <path class="cls-17" d="M883.46,574.31l.29,1.77c-.56.12-1.07.18-1.51.18-.73,0-1.29-.12-1.69-.35-.4-.23-.68-.53-.85-.91-.16-.38-.25-1.16-.25-2.36v-6.8h-1.47v-1.56h1.47v-2.93l1.99-1.2v4.13h2.01v1.56h-2.01v6.91c0,.57.04.94.11,1.1s.19.29.34.39c.16.1.39.14.68.14.22,0,.52-.03.88-.08Z"/>
    <path class="cls-17" d="M892,576.1v-16.31h6.15c1.08,0,1.91.05,2.48.16.8.13,1.47.39,2.01.76.54.38.98.9,1.31,1.57.33.68.5,1.42.5,2.23,0,1.39-.44,2.56-1.32,3.52-.88.96-2.48,1.44-4.79,1.44h-4.18v6.63h-2.16ZM894.16,567.54h4.22c1.39,0,2.38-.26,2.97-.78s.88-1.25.88-2.19c0-.68-.17-1.27-.52-1.75-.34-.49-.8-.81-1.36-.96-.36-.1-1.03-.14-2.01-.14h-4.17v5.83Z"/>
    <path class="cls-17" d="M914.65,574.64c-.74.63-1.46,1.08-2.14,1.34-.69.26-1.42.39-2.21.39-1.3,0-2.3-.32-2.99-.95-.7-.63-1.05-1.44-1.05-2.43,0-.58.13-1.11.4-1.59.26-.48.61-.86,1.03-1.15s.91-.51,1.44-.66c.39-.1.99-.2,1.78-.3,1.62-.19,2.81-.42,3.57-.69,0-.27.01-.45.01-.52,0-.82-.19-1.39-.57-1.72-.51-.45-1.27-.68-2.28-.68-.94,0-1.64.17-2.09.5-.45.33-.78.92-1,1.75l-1.96-.27c.18-.84.47-1.51.88-2.03.41-.52,1-.91,1.77-1.19s1.67-.42,2.68-.42,1.83.12,2.46.36c.63.24,1.09.54,1.39.9.3.36.5.81.62,1.36.07.34.1.96.1,1.85v2.67c0,1.86.04,3.04.13,3.53.08.49.25.97.51,1.42h-2.09c-.21-.42-.34-.9-.4-1.46ZM914.49,570.17c-.73.3-1.82.55-3.27.76-.82.12-1.41.25-1.75.4-.34.15-.6.37-.79.65-.19.29-.28.6-.28.95,0,.53.2.98.61,1.33s1,.53,1.77.53,1.46-.17,2.06-.51c.6-.34,1.04-.8,1.32-1.39.22-.45.32-1.12.32-2v-.73Z"/>
    <path class="cls-17" d="M919.25,577.08l1.95.29c.08.6.31,1.04.68,1.31.5.37,1.18.56,2.04.56.93,0,1.64-.19,2.15-.56.5-.37.85-.89,1.02-1.56.1-.41.15-1.26.14-2.57-.88,1.03-1.97,1.55-3.27,1.55-1.62,0-2.88-.59-3.77-1.76-.89-1.17-1.33-2.58-1.33-4.22,0-1.13.2-2.17.61-3.12.41-.95,1-1.69,1.77-2.21.78-.52,1.69-.78,2.73-.78,1.39,0,2.54.56,3.45,1.69v-1.42h1.85v10.21c0,1.84-.19,3.14-.56,3.91-.38.77-.97,1.37-1.78,1.82s-1.81.67-3,.67c-1.41,0-2.55-.32-3.42-.95-.87-.63-1.29-1.59-1.26-2.86ZM920.91,569.98c0,1.55.31,2.68.92,3.39.62.71,1.39,1.07,2.31,1.07s1.69-.35,2.31-1.06c.62-.71.93-1.82.93-3.33s-.32-2.54-.96-3.27-1.42-1.1-2.32-1.1-1.65.36-2.27,1.08c-.62.72-.93,1.8-.93,3.22Z"/>
    <path class="cls-17" d="M940.38,572.3l2.07.26c-.33,1.21-.93,2.15-1.81,2.82s-2.01,1-3.38,1c-1.73,0-3.1-.53-4.11-1.6-1.01-1.06-1.52-2.56-1.52-4.48s.51-3.53,1.54-4.63,2.35-1.65,3.98-1.65,2.87.54,3.87,1.61c1,1.08,1.5,2.59,1.5,4.54,0,.12,0,.3-.01.53h-8.81c.07,1.3.44,2.29,1.1,2.98.66.69,1.48,1.03,2.47,1.03.73,0,1.36-.19,1.88-.58.52-.39.93-1,1.23-1.85ZM933.8,569.06h6.6c-.09-.99-.34-1.74-.76-2.24-.64-.77-1.46-1.16-2.48-1.16-.92,0-1.69.31-2.32.92-.63.62-.97,1.44-1.04,2.47Z"/>
  </g>
  <rect class="cls-18" x="963.04" y="404.29" width="118.81" height="118.81" rx="19.94" ry="19.94"/>
  <g>
    <path class="cls-17" d="M978.75,548.76v-16.31h6.15c1.08,0,1.91.05,2.48.16.8.13,1.47.39,2.01.76.54.37.98.9,1.31,1.57.33.67.5,1.42.5,2.23,0,1.39-.44,2.56-1.32,3.52-.88.96-2.48,1.44-4.79,1.44h-4.18v6.63h-2.16ZM980.91,540.2h4.22c1.39,0,2.38-.26,2.97-.78s.88-1.25.88-2.19c0-.68-.17-1.27-.52-1.75s-.8-.81-1.36-.96c-.36-.1-1.03-.15-2.01-.15h-4.17v5.83Z"/>
    <path class="cls-17" d="M1001.4,547.3c-.74.63-1.46,1.08-2.14,1.34-.69.26-1.42.39-2.21.39-1.3,0-2.3-.32-2.99-.95-.7-.63-1.05-1.44-1.05-2.43,0-.58.13-1.11.4-1.59.26-.48.61-.86,1.03-1.15s.91-.51,1.44-.66c.39-.1.99-.2,1.78-.3,1.62-.19,2.81-.42,3.57-.69,0-.27.01-.45.01-.52,0-.82-.19-1.39-.57-1.72-.51-.45-1.27-.68-2.28-.68-.94,0-1.64.17-2.09.5-.45.33-.78.91-1,1.75l-1.96-.27c.18-.84.47-1.52.88-2.03.41-.52,1-.91,1.77-1.19s1.67-.42,2.68-.42,1.83.12,2.46.36c.63.24,1.09.54,1.39.9s.5.81.62,1.36c.07.34.1.96.1,1.85v2.67c0,1.86.04,3.04.13,3.53.08.49.25.97.51,1.42h-2.09c-.21-.42-.34-.9-.4-1.46ZM1001.24,542.83c-.73.3-1.82.55-3.27.76-.82.12-1.41.25-1.75.4-.34.15-.6.37-.79.65-.19.29-.28.6-.28.95,0,.53.2.98.61,1.33s1,.53,1.77.53,1.46-.17,2.06-.51c.6-.34,1.04-.8,1.32-1.39.22-.45.32-1.12.32-2v-.73Z"/>
    <path class="cls-17" d="M1006.28,553.31l-.22-1.88c.44.12.82.18,1.15.18.44,0,.8-.07,1.07-.22.27-.15.49-.36.66-.62.13-.2.33-.7.61-1.49.04-.11.1-.27.18-.49l-4.48-11.84h2.16l2.46,6.84c.32.87.6,1.78.86,2.74.23-.92.5-1.82.82-2.69l2.53-6.89h2l-4.5,12.02c-.48,1.3-.86,2.19-1.12,2.68-.36.66-.76,1.14-1.22,1.45-.46.31-1.01.46-1.65.46-.39,0-.82-.08-1.29-.25Z"/>
    <path class="cls-17" d="M1017.76,548.76v-11.82h1.79v1.66c.37-.58.86-1.04,1.48-1.4.62-.35,1.32-.53,2.1-.53.88,0,1.59.18,2.15.55.56.36.96.87,1.18,1.52.93-1.38,2.15-2.07,3.65-2.07,1.17,0,2.07.32,2.7.97.63.65.95,1.65.95,3v8.11h-1.99v-7.44c0-.8-.07-1.38-.19-1.73-.13-.35-.37-.64-.71-.85-.34-.21-.74-.32-1.2-.32-.83,0-1.52.28-2.07.83s-.82,1.44-.82,2.65v6.87h-2v-7.68c0-.89-.16-1.56-.49-2-.33-.44-.86-.67-1.6-.67-.56,0-1.08.15-1.56.45-.48.3-.83.73-1.04,1.3-.21.57-.32,1.39-.32,2.47v6.13h-2Z"/>
    <path class="cls-17" d="M1044.83,544.95l2.07.26c-.33,1.21-.93,2.15-1.81,2.82s-2.01,1-3.38,1c-1.73,0-3.1-.53-4.11-1.6-1.01-1.06-1.52-2.56-1.52-4.48s.51-3.53,1.54-4.63,2.35-1.65,3.98-1.65,2.87.54,3.87,1.61c1,1.08,1.5,2.59,1.5,4.54,0,.12,0,.3-.01.53h-8.81c.07,1.3.44,2.29,1.1,2.98.66.69,1.48,1.03,2.47,1.03.73,0,1.36-.19,1.88-.58.52-.39.93-1,1.23-1.85ZM1038.25,541.71h6.6c-.09-.99-.34-1.74-.76-2.24-.64-.77-1.46-1.16-2.48-1.16-.92,0-1.69.31-2.32.92s-.97,1.44-1.04,2.47Z"/>
    <path class="cls-17" d="M1049.41,548.76v-11.82h1.8v1.68c.87-1.3,2.12-1.95,3.76-1.95.71,0,1.37.13,1.96.38.6.26,1.04.59,1.34,1.01.3.42.5.91.62,1.48.07.37.11,1.02.11,1.95v7.27h-2v-7.19c0-.82-.08-1.43-.23-1.83-.16-.4-.43-.73-.83-.97-.4-.24-.86-.36-1.4-.36-.85,0-1.59.27-2.21.81s-.93,1.57-.93,3.08v6.45h-2Z"/>
    <path class="cls-17" d="M1066.46,546.97l.29,1.77c-.56.12-1.07.18-1.51.18-.73,0-1.29-.12-1.69-.35-.4-.23-.68-.53-.85-.91-.16-.38-.25-1.16-.25-2.36v-6.8h-1.47v-1.56h1.47v-2.93l1.99-1.2v4.13h2.01v1.56h-2.01v6.91c0,.57.04.94.11,1.1s.19.29.34.39c.16.1.39.14.68.14.22,0,.52-.03.88-.08Z"/>
    <path class="cls-17" d="M997.1,576.1v-16.31h6.15c1.08,0,1.91.05,2.48.16.8.13,1.47.39,2.01.76.54.38.98.9,1.31,1.57.33.68.5,1.42.5,2.23,0,1.39-.44,2.56-1.32,3.52-.88.96-2.48,1.44-4.79,1.44h-4.18v6.63h-2.16ZM999.26,567.54h4.22c1.39,0,2.38-.26,2.97-.78s.88-1.25.88-2.19c0-.68-.17-1.27-.52-1.75-.34-.49-.8-.81-1.36-.96-.36-.1-1.03-.14-2.01-.14h-4.17v5.83Z"/>
    <path class="cls-17" d="M1019.76,574.64c-.74.63-1.46,1.08-2.14,1.34-.69.26-1.42.39-2.21.39-1.3,0-2.3-.32-2.99-.95-.7-.63-1.05-1.44-1.05-2.43,0-.58.13-1.11.4-1.59.26-.48.61-.86,1.03-1.15s.91-.51,1.44-.66c.39-.1.99-.2,1.78-.3,1.62-.19,2.81-.42,3.57-.69,0-.27.01-.45.01-.52,0-.82-.19-1.39-.57-1.72-.51-.45-1.27-.68-2.28-.68-.94,0-1.64.17-2.09.5-.45.33-.78.92-1,1.75l-1.96-.27c.18-.84.47-1.51.88-2.03.41-.52,1-.91,1.77-1.19s1.67-.42,2.68-.42,1.83.12,2.46.36c.63.24,1.09.54,1.39.9.3.36.5.81.62,1.36.07.34.1.96.1,1.85v2.67c0,1.86.04,3.04.13,3.53.08.49.25.97.51,1.42h-2.09c-.21-.42-.34-.9-.4-1.46ZM1019.59,570.17c-.73.3-1.82.55-3.27.76-.82.12-1.41.25-1.75.4-.34.15-.6.37-.79.65-.19.29-.28.6-.28.95,0,.53.2.98.61,1.33s1,.53,1.77.53,1.46-.17,2.06-.51c.6-.34,1.04-.8,1.32-1.39.22-.45.32-1.12.32-2v-.73Z"/>
    <path class="cls-17" d="M1024.35,577.08l1.95.29c.08.6.31,1.04.68,1.31.5.37,1.18.56,2.04.56.93,0,1.64-.19,2.15-.56.5-.37.85-.89,1.02-1.56.1-.41.15-1.26.14-2.57-.88,1.03-1.97,1.55-3.27,1.55-1.62,0-2.88-.59-3.77-1.76-.89-1.17-1.33-2.58-1.33-4.22,0-1.13.2-2.17.61-3.12.41-.95,1-1.69,1.77-2.21.78-.52,1.69-.78,2.73-.78,1.39,0,2.54.56,3.45,1.69v-1.42h1.85v10.21c0,1.84-.19,3.14-.56,3.91-.38.77-.97,1.37-1.78,1.82s-1.81.67-3,.67c-1.41,0-2.55-.32-3.42-.95-.87-.63-1.29-1.59-1.26-2.86ZM1026.01,569.98c0,1.55.31,2.68.92,3.39.62.71,1.39,1.07,2.31,1.07s1.69-.35,2.31-1.06c.62-.71.93-1.82.93-3.33s-.32-2.54-.96-3.27-1.42-1.1-2.32-1.1-1.65.36-2.27,1.08c-.62.72-.93,1.8-.93,3.22Z"/>
    <path class="cls-17" d="M1045.48,572.3l2.07.26c-.33,1.21-.93,2.15-1.81,2.82s-2.01,1-3.38,1c-1.73,0-3.1-.53-4.11-1.6-1.01-1.06-1.52-2.56-1.52-4.48s.51-3.53,1.54-4.63,2.35-1.65,3.98-1.65,2.87.54,3.87,1.61c1,1.08,1.5,2.59,1.5,4.54,0,.12,0,.3-.01.53h-8.81c.07,1.3.44,2.29,1.1,2.98.66.69,1.48,1.03,2.47,1.03.73,0,1.36-.19,1.88-.58.52-.39.93-1,1.23-1.85ZM1038.91,569.06h6.6c-.09-.99-.34-1.74-.76-2.24-.64-.77-1.46-1.16-2.48-1.16-.92,0-1.69.31-2.32.92-.63.62-.97,1.44-1.04,2.47Z"/>
  </g>
  <rect class="cls-15" x="1648.72" y="409.47" width="118.81" height="118.81" rx="19.94" ry="19.94"/>
  <text class="cls-10" transform="translate(1683.75 991.03)"><tspan x="0" y="0">APIs</tspan></text>
  <rect class="cls-15" x="1648.72" y="846.57" width="118.81" height="118.81" rx="19.94" ry="19.94"/>
  <g>
    <path class="cls-17" d="M1132.48,548.76v-14.39h-5.37v-1.92h12.93v1.92h-5.4v14.39h-2.16Z"/>
    <path class="cls-17" d="M1142,548.76v-16.31h2v5.85c.93-1.08,2.11-1.62,3.54-1.62.88,0,1.64.17,2.28.52s1.11.82,1.38,1.43c.28.61.42,1.49.42,2.65v7.49h-2v-7.49c0-1-.22-1.73-.65-2.19-.43-.46-1.05-.68-1.84-.68-.59,0-1.15.15-1.67.46-.52.31-.9.73-1.12,1.25-.22.53-.33,1.25-.33,2.18v6.46h-2Z"/>
    <path class="cls-17" d="M1162.38,547.3c-.74.63-1.46,1.08-2.14,1.34-.69.26-1.42.39-2.21.39-1.3,0-2.3-.32-2.99-.95-.7-.63-1.05-1.44-1.05-2.43,0-.58.13-1.11.4-1.59.26-.48.61-.86,1.03-1.15s.91-.51,1.44-.66c.39-.1.99-.2,1.78-.3,1.62-.19,2.81-.42,3.57-.69,0-.27.01-.45.01-.52,0-.82-.19-1.39-.57-1.72-.51-.45-1.27-.68-2.28-.68-.94,0-1.64.17-2.09.5-.45.33-.78.91-1,1.75l-1.96-.27c.18-.84.47-1.52.88-2.03.41-.52,1-.91,1.77-1.19s1.67-.42,2.68-.42,1.83.12,2.46.36c.63.24,1.09.54,1.39.9s.5.81.62,1.36c.07.34.1.96.1,1.85v2.67c0,1.86.04,3.04.13,3.53.08.49.25.97.51,1.42h-2.09c-.21-.42-.34-.9-.4-1.46ZM1162.21,542.83c-.73.3-1.82.55-3.27.76-.82.12-1.41.25-1.75.4-.34.15-.6.37-.79.65-.19.29-.28.6-.28.95,0,.53.2.98.61,1.33s1,.53,1.77.53,1.46-.17,2.06-.51c.6-.34,1.04-.8,1.32-1.39.22-.45.32-1.12.32-2v-.73Z"/>
    <path class="cls-17" d="M1167.34,548.76v-11.82h1.8v1.68c.87-1.3,2.12-1.95,3.76-1.95.71,0,1.37.13,1.96.38.6.26,1.04.59,1.34,1.01.3.42.5.91.62,1.48.07.37.11,1.02.11,1.95v7.27h-2v-7.19c0-.82-.08-1.43-.23-1.83-.16-.4-.43-.73-.83-.97-.4-.24-.86-.36-1.4-.36-.85,0-1.59.27-2.21.81s-.93,1.57-.93,3.08v6.45h-2Z"/>
    <path class="cls-17" d="M1180.03,548.76v-16.31h2v9.3l4.74-4.81h2.59l-4.52,4.38,4.97,7.43h-2.47l-3.91-6.04-1.41,1.36v4.68h-2Z"/>
    <path class="cls-17" d="M1202.18,548.76v-6.91l-6.29-9.4h2.63l3.22,4.92c.59.92,1.15,1.84,1.66,2.76.49-.85,1.08-1.81,1.78-2.88l3.16-4.8h2.51l-6.51,9.4v6.91h-2.16Z"/>
    <path class="cls-17" d="M1209.69,542.85c0-2.19.61-3.81,1.82-4.86,1.02-.88,2.25-1.31,3.72-1.31,1.62,0,2.95.53,3.98,1.6,1.03,1.06,1.55,2.54,1.55,4.41,0,1.52-.23,2.72-.68,3.59-.46.87-1.12,1.55-1.99,2.03-.87.48-1.82.72-2.85.72-1.65,0-2.99-.53-4.01-1.59-1.02-1.06-1.53-2.59-1.53-4.58ZM1211.75,542.85c0,1.51.33,2.65.99,3.4.66.75,1.49,1.13,2.49,1.13s1.82-.38,2.48-1.13.99-1.91.99-3.46c0-1.46-.33-2.57-1-3.32-.66-.75-1.49-1.13-2.48-1.13s-1.83.37-2.49,1.12c-.66.75-.99,1.88-.99,3.39Z"/>
    <path class="cls-17" d="M1230.85,548.76v-1.74c-.92,1.33-2.17,2-3.75,2-.7,0-1.35-.13-1.95-.4-.6-.27-1.05-.6-1.35-1.01s-.5-.9-.62-1.49c-.08-.39-.12-1.02-.12-1.87v-7.32h2v6.55c0,1.05.04,1.75.12,2.11.13.53.39.94.8,1.24s.91.45,1.51.45,1.16-.15,1.69-.46c.53-.31.9-.73,1.12-1.26s.33-1.3.33-2.31v-6.33h2v11.82h-1.79Z"/>
    <path class="cls-17" d="M1155.58,576.1v-16.31h6.15c1.08,0,1.91.05,2.48.16.8.13,1.47.39,2.01.76.54.38.98.9,1.31,1.57.33.68.5,1.42.5,2.23,0,1.39-.44,2.56-1.32,3.52-.88.96-2.48,1.44-4.79,1.44h-4.18v6.63h-2.16ZM1157.74,567.54h4.22c1.39,0,2.38-.26,2.97-.78s.88-1.25.88-2.19c0-.68-.17-1.27-.52-1.75-.34-.49-.8-.81-1.36-.96-.36-.1-1.03-.14-2.01-.14h-4.17v5.83Z"/>
    <path class="cls-17" d="M1178.23,574.64c-.74.63-1.46,1.08-2.14,1.34-.69.26-1.42.39-2.21.39-1.3,0-2.3-.32-2.99-.95-.7-.63-1.05-1.44-1.05-2.43,0-.58.13-1.11.4-1.59.26-.48.61-.86,1.03-1.15s.91-.51,1.44-.66c.39-.1.99-.2,1.78-.3,1.62-.19,2.81-.42,3.57-.69,0-.27.01-.45.01-.52,0-.82-.19-1.39-.57-1.72-.51-.45-1.27-.68-2.28-.68-.94,0-1.64.17-2.09.5-.45.33-.78.92-1,1.75l-1.96-.27c.18-.84.47-1.51.88-2.03.41-.52,1-.91,1.77-1.19s1.67-.42,2.68-.42,1.83.12,2.46.36c.63.24,1.09.54,1.39.9.3.36.5.81.62,1.36.07.34.1.96.1,1.85v2.67c0,1.86.04,3.04.13,3.53.08.49.25.97.51,1.42h-2.09c-.21-.42-.34-.9-.4-1.46ZM1178.06,570.17c-.73.3-1.82.55-3.27.76-.82.12-1.41.25-1.75.4-.34.15-.6.37-.79.65-.19.29-.28.6-.28.95,0,.53.2.98.61,1.33s1,.53,1.77.53,1.46-.17,2.06-.51c.6-.34,1.04-.8,1.32-1.39.22-.45.32-1.12.32-2v-.73Z"/>
    <path class="cls-17" d="M1182.83,577.08l1.95.29c.08.6.31,1.04.68,1.31.5.37,1.18.56,2.04.56.93,0,1.64-.19,2.15-.56.5-.37.85-.89,1.02-1.56.1-.41.15-1.26.14-2.57-.88,1.03-1.97,1.55-3.27,1.55-1.62,0-2.88-.59-3.77-1.76-.89-1.17-1.33-2.58-1.33-4.22,0-1.13.2-2.17.61-3.12.41-.95,1-1.69,1.77-2.21.78-.52,1.69-.78,2.73-.78,1.39,0,2.54.56,3.45,1.69v-1.42h1.85v10.21c0,1.84-.19,3.14-.56,3.91-.38.77-.97,1.37-1.78,1.82s-1.81.67-3,.67c-1.41,0-2.55-.32-3.42-.95-.87-.63-1.29-1.59-1.26-2.86ZM1184.48,569.98c0,1.55.31,2.68.92,3.39.62.71,1.39,1.07,2.31,1.07s1.69-.35,2.31-1.06c.62-.71.93-1.82.93-3.33s-.32-2.54-.96-3.27-1.42-1.1-2.32-1.1-1.65.36-2.27,1.08c-.62.72-.93,1.8-.93,3.22Z"/>
    <path class="cls-17" d="M1203.95,572.3l2.07.26c-.33,1.21-.93,2.15-1.81,2.82s-2.01,1-3.38,1c-1.73,0-3.1-.53-4.11-1.6-1.01-1.06-1.52-2.56-1.52-4.48s.51-3.53,1.54-4.63,2.35-1.65,3.98-1.65,2.87.54,3.87,1.61c1,1.08,1.5,2.59,1.5,4.54,0,.12,0,.3-.01.53h-8.81c.07,1.3.44,2.29,1.1,2.98.66.69,1.48,1.03,2.47,1.03.73,0,1.36-.19,1.88-.58.52-.39.93-1,1.23-1.85ZM1197.38,569.06h6.6c-.09-.99-.34-1.74-.76-2.24-.64-.77-1.46-1.16-2.48-1.16-.92,0-1.69.31-2.32.92-.63.62-.97,1.44-1.04,2.47Z"/>
  </g>
  <rect class="cls-18" x="963.04" y="653.92" width="118.81" height="118.81" rx="19.94" ry="19.94"/>
  <rect class="cls-19" x="466.12" y="660.13" width="118.81" height="118.81" rx="19.94" ry="19.94"/>
  <text class="cls-10" transform="translate(476.14 804.59)"><tspan x="0" y="0">Customer</tspan></text>
  <text class="cls-10" transform="translate(958.62 798.38)"><tspan x="0" y="0">Online Store</tspan></text>
  <rect class="cls-7" x="774.3" y="823.78" width="490.96" height="229.94" rx="21.07" ry="21.07"/>
  <rect class="cls-18" x="1117.78" y="844.5" width="118.81" height="118.81" rx="19.94" ry="19.94"/>
  <rect class="cls-18" x="963.04" y="844.5" width="118.81" height="118.81" rx="19.94" ry="19.94"/>
  <g>
    <path class="cls-17" d="M978.75,988.96v-16.31h6.15c1.08,0,1.91.05,2.48.16.8.13,1.47.39,2.01.76.54.38.98.9,1.31,1.57.33.68.5,1.42.5,2.23,0,1.39-.44,2.56-1.32,3.52-.88.96-2.48,1.44-4.79,1.44h-4.18v6.63h-2.16ZM980.91,980.4h4.22c1.39,0,2.38-.26,2.97-.78s.88-1.25.88-2.19c0-.68-.17-1.27-.52-1.75-.34-.49-.8-.81-1.36-.96-.36-.1-1.03-.14-2.01-.14h-4.17v5.83Z"/>
    <path class="cls-17" d="M1001.4,987.5c-.74.63-1.46,1.08-2.14,1.34-.69.26-1.42.39-2.21.39-1.3,0-2.3-.32-2.99-.95-.7-.63-1.05-1.44-1.05-2.43,0-.58.13-1.11.4-1.59.26-.48.61-.86,1.03-1.15s.91-.51,1.44-.66c.39-.1.99-.2,1.78-.3,1.62-.19,2.81-.42,3.57-.69,0-.27.01-.45.01-.52,0-.82-.19-1.39-.57-1.72-.51-.45-1.27-.68-2.28-.68-.94,0-1.64.17-2.09.5-.45.33-.78.92-1,1.75l-1.96-.27c.18-.84.47-1.51.88-2.03.41-.52,1-.91,1.77-1.19s1.67-.42,2.68-.42,1.83.12,2.46.36c.63.24,1.09.54,1.39.9.3.36.5.81.62,1.36.07.34.1.96.1,1.85v2.67c0,1.86.04,3.04.13,3.53.08.49.25.97.51,1.42h-2.09c-.21-.42-.34-.9-.4-1.46ZM1001.24,983.03c-.73.3-1.82.55-3.27.76-.82.12-1.41.25-1.75.4-.34.15-.6.37-.79.65-.19.29-.28.6-.28.95,0,.53.2.98.61,1.33s1,.53,1.77.53,1.46-.17,2.06-.51c.6-.34,1.04-.8,1.32-1.39.22-.45.32-1.12.32-2v-.73Z"/>
    <path class="cls-17" d="M1006.28,993.51l-.22-1.88c.44.12.82.18,1.15.18.44,0,.8-.07,1.07-.22.27-.15.49-.36.66-.62.13-.2.33-.7.61-1.49.04-.11.1-.27.18-.49l-4.48-11.84h2.16l2.46,6.84c.32.87.6,1.78.86,2.74.23-.92.5-1.82.82-2.69l2.53-6.89h2l-4.5,12.02c-.48,1.3-.86,2.19-1.12,2.68-.36.66-.76,1.14-1.22,1.45-.46.31-1.01.46-1.65.46-.39,0-.82-.08-1.29-.25Z"/>
    <path class="cls-17" d="M1017.76,988.96v-11.82h1.79v1.66c.37-.58.86-1.04,1.48-1.4.62-.35,1.32-.53,2.1-.53.88,0,1.59.18,2.15.54.56.36.96.87,1.18,1.52.93-1.38,2.15-2.07,3.65-2.07,1.17,0,2.07.32,2.7.97.63.65.95,1.65.95,3v8.11h-1.99v-7.44c0-.8-.07-1.38-.19-1.73-.13-.35-.37-.64-.71-.85-.34-.21-.74-.32-1.2-.32-.83,0-1.52.28-2.07.83s-.82,1.44-.82,2.65v6.87h-2v-7.68c0-.89-.16-1.56-.49-2-.33-.45-.86-.67-1.6-.67-.56,0-1.08.15-1.56.45s-.83.73-1.04,1.3c-.21.57-.32,1.39-.32,2.47v6.13h-2Z"/>
    <path class="cls-17" d="M1044.83,985.15l2.07.26c-.33,1.21-.93,2.15-1.81,2.82s-2.01,1-3.38,1c-1.73,0-3.1-.53-4.11-1.6-1.01-1.06-1.52-2.56-1.52-4.48s.51-3.53,1.54-4.63,2.35-1.65,3.98-1.65,2.87.54,3.87,1.61c1,1.08,1.5,2.59,1.5,4.54,0,.12,0,.3-.01.53h-8.81c.07,1.3.44,2.29,1.1,2.98.66.69,1.48,1.03,2.47,1.03.73,0,1.36-.19,1.88-.58.52-.39.93-1,1.23-1.85ZM1038.25,981.92h6.6c-.09-.99-.34-1.74-.76-2.24-.64-.77-1.46-1.16-2.48-1.16-.92,0-1.69.31-2.32.92-.63.62-.97,1.44-1.04,2.47Z"/>
    <path class="cls-17" d="M1049.41,988.96v-11.82h1.8v1.68c.87-1.3,2.12-1.95,3.76-1.95.71,0,1.37.13,1.96.38.6.26,1.04.59,1.34,1.01.3.42.5.91.62,1.48.07.37.11,1.02.11,1.95v7.27h-2v-7.19c0-.82-.08-1.43-.23-1.83-.16-.4-.43-.73-.83-.97-.4-.24-.86-.36-1.4-.36-.85,0-1.59.27-2.21.81-.62.54-.93,1.57-.93,3.08v6.45h-2Z"/>
    <path class="cls-17" d="M1066.46,987.17l.29,1.77c-.56.12-1.07.18-1.51.18-.73,0-1.29-.12-1.69-.35-.4-.23-.68-.53-.85-.91-.16-.38-.25-1.16-.25-2.36v-6.8h-1.47v-1.56h1.47v-2.93l1.99-1.2v4.13h2.01v1.56h-2.01v6.91c0,.57.04.94.11,1.1s.19.29.34.39c.16.1.39.14.68.14.22,0,.52-.03.88-.08Z"/>
    <path class="cls-17" d="M997.1,1016.3v-16.31h6.15c1.08,0,1.91.05,2.48.16.8.13,1.47.39,2.01.76.54.38.98.9,1.31,1.57.33.68.5,1.42.5,2.23,0,1.39-.44,2.56-1.32,3.52-.88.96-2.48,1.44-4.79,1.44h-4.18v6.63h-2.16ZM999.26,1007.75h4.22c1.39,0,2.38-.26,2.97-.78s.88-1.25.88-2.19c0-.68-.17-1.27-.52-1.75-.34-.49-.8-.81-1.36-.96-.36-.1-1.03-.14-2.01-.14h-4.17v5.83Z"/>
    <path class="cls-17" d="M1019.76,1014.85c-.74.63-1.46,1.08-2.14,1.34-.69.26-1.42.39-2.21.39-1.3,0-2.3-.32-2.99-.95-.7-.63-1.05-1.44-1.05-2.43,0-.58.13-1.11.4-1.59.26-.48.61-.86,1.03-1.15s.91-.51,1.44-.66c.39-.1.99-.2,1.78-.3,1.62-.19,2.81-.42,3.57-.69,0-.27.01-.45.01-.52,0-.82-.19-1.39-.57-1.72-.51-.45-1.27-.68-2.28-.68-.94,0-1.64.17-2.09.5-.45.33-.78.92-1,1.75l-1.96-.27c.18-.84.47-1.51.88-2.03.41-.52,1-.91,1.77-1.19s1.67-.42,2.68-.42,1.83.12,2.46.36c.63.24,1.09.54,1.39.9.3.36.5.81.62,1.36.07.34.1.96.1,1.85v2.67c0,1.86.04,3.04.13,3.53.08.49.25.97.51,1.42h-2.09c-.21-.42-.34-.9-.4-1.46ZM1019.59,1010.37c-.73.3-1.82.55-3.27.76-.82.12-1.41.25-1.75.4-.34.15-.6.37-.79.65-.19.29-.28.6-.28.95,0,.53.2.98.61,1.33s1,.53,1.77.53,1.46-.17,2.06-.51c.6-.34,1.04-.8,1.32-1.39.22-.45.32-1.12.32-2v-.73Z"/>
    <path class="cls-17" d="M1024.35,1017.28l1.95.29c.08.6.31,1.04.68,1.31.5.37,1.18.56,2.04.56.93,0,1.64-.19,2.15-.56.5-.37.85-.89,1.02-1.56.1-.41.15-1.26.14-2.57-.88,1.03-1.97,1.55-3.27,1.55-1.62,0-2.88-.59-3.77-1.76-.89-1.17-1.33-2.58-1.33-4.22,0-1.13.2-2.17.61-3.12.41-.95,1-1.69,1.77-2.21.78-.52,1.69-.78,2.73-.78,1.39,0,2.54.56,3.45,1.69v-1.42h1.85v10.21c0,1.84-.19,3.14-.56,3.91-.38.77-.97,1.37-1.78,1.82s-1.81.67-3,.67c-1.41,0-2.55-.32-3.42-.95-.87-.63-1.29-1.59-1.26-2.86ZM1026.01,1010.19c0,1.55.31,2.68.92,3.39.62.71,1.39,1.07,2.31,1.07s1.69-.35,2.31-1.06c.62-.71.93-1.82.93-3.33s-.32-2.54-.96-3.27-1.42-1.1-2.32-1.1-1.65.36-2.27,1.08c-.62.72-.93,1.8-.93,3.22Z"/>
    <path class="cls-17" d="M1045.48,1012.5l2.07.26c-.33,1.21-.93,2.15-1.81,2.82s-2.01,1-3.38,1c-1.73,0-3.1-.53-4.11-1.6-1.01-1.06-1.52-2.56-1.52-4.48s.51-3.53,1.54-4.63,2.35-1.65,3.98-1.65,2.87.54,3.87,1.61c1,1.08,1.5,2.59,1.5,4.54,0,.12,0,.3-.01.53h-8.81c.07,1.3.44,2.29,1.1,2.98.66.69,1.48,1.03,2.47,1.03.73,0,1.36-.19,1.88-.58.52-.39.93-1,1.23-1.85ZM1038.91,1009.26h6.6c-.09-.99-.34-1.74-.76-2.24-.64-.77-1.46-1.16-2.48-1.16-.92,0-1.69.31-2.32.92-.63.62-.97,1.44-1.04,2.47Z"/>
  </g>
  <rect class="cls-18" x="806.64" y="844.5" width="118.81" height="118.81" rx="19.94" ry="19.94"/>
  <g>
    <path class="cls-17" d="M830.82,983.24l2.16.54c-.45,1.77-1.27,3.12-2.44,4.06s-2.61,1.4-4.31,1.4-3.19-.36-4.29-1.07-1.94-1.75-2.51-3.11-.86-2.82-.86-4.37c0-1.7.32-3.18.97-4.44s1.57-2.23,2.77-2.88c1.2-.66,2.52-.99,3.96-.99,1.63,0,3,.42,4.12,1.25,1.11.83,1.89,2,2.33,3.5l-2.12.5c-.38-1.19-.93-2.05-1.65-2.59-.72-.54-1.62-.81-2.71-.81-1.25,0-2.3.3-3.14.9-.84.6-1.43,1.41-1.77,2.42-.34,1.01-.51,2.06-.51,3.13,0,1.39.2,2.6.61,3.63.4,1.03,1.03,1.81,1.89,2.32.85.51,1.78.77,2.77.77,1.21,0,2.23-.35,3.07-1.05.84-.7,1.41-1.73,1.7-3.1Z"/>
    <path class="cls-17" d="M835.38,988.96v-16.31h2v5.85c.93-1.08,2.11-1.62,3.54-1.62.88,0,1.64.17,2.28.52.65.35,1.11.82,1.38,1.43.28.61.42,1.49.42,2.65v7.49h-2v-7.49c0-1-.22-1.73-.65-2.19s-1.05-.68-1.84-.68c-.59,0-1.15.15-1.67.46-.52.31-.9.73-1.12,1.25-.22.53-.33,1.25-.33,2.18v6.46h-2Z"/>
    <path class="cls-17" d="M856.14,985.15l2.07.26c-.33,1.21-.93,2.15-1.81,2.82s-2.01,1-3.38,1c-1.73,0-3.1-.53-4.11-1.6-1.01-1.06-1.52-2.56-1.52-4.48s.51-3.53,1.54-4.63,2.35-1.65,3.98-1.65,2.87.54,3.87,1.61c1,1.08,1.5,2.59,1.5,4.54,0,.12,0,.3-.01.53h-8.81c.07,1.3.44,2.29,1.1,2.98.66.69,1.48,1.03,2.47,1.03.73,0,1.36-.19,1.88-.58.52-.39.93-1,1.23-1.85ZM849.56,981.92h6.6c-.09-.99-.34-1.74-.76-2.24-.64-.77-1.46-1.16-2.48-1.16-.92,0-1.69.31-2.32.92-.63.62-.97,1.44-1.04,2.47Z"/>
    <path class="cls-17" d="M868.43,984.63l1.97.26c-.21,1.36-.77,2.42-1.65,3.19-.89.77-1.98,1.15-3.27,1.15-1.62,0-2.92-.53-3.9-1.58-.98-1.06-1.47-2.57-1.47-4.54,0-1.28.21-2.39.63-3.35s1.07-1.67,1.93-2.15c.86-.48,1.8-.72,2.82-.72,1.28,0,2.33.32,3.15.97.82.65,1.34,1.57,1.57,2.76l-1.95.3c-.19-.79-.51-1.39-.98-1.79-.47-.4-1.04-.6-1.71-.6-1.01,0-1.83.36-2.46,1.08-.63.72-.95,1.87-.95,3.43s.3,2.74.91,3.46c.61.72,1.4,1.08,2.38,1.08.79,0,1.44-.24,1.97-.72.53-.48.86-1.22,1-2.23Z"/>
    <path class="cls-17" d="M872.13,988.96v-16.31h2v9.3l4.74-4.81h2.59l-4.52,4.38,4.97,7.43h-2.47l-3.91-6.04-1.41,1.36v4.68h-2Z"/>
    <path class="cls-17" d="M882.77,983.05c0-2.19.61-3.81,1.82-4.86,1.02-.88,2.25-1.31,3.72-1.31,1.62,0,2.95.53,3.98,1.6,1.03,1.06,1.55,2.54,1.55,4.41,0,1.52-.23,2.72-.68,3.59-.46.87-1.12,1.55-1.99,2.03-.87.48-1.82.72-2.85.72-1.65,0-2.99-.53-4.01-1.59-1.02-1.06-1.53-2.59-1.53-4.58ZM884.82,983.05c0,1.51.33,2.65.99,3.4.66.75,1.49,1.13,2.49,1.13s1.82-.38,2.48-1.13.99-1.91.99-3.46c0-1.46-.33-2.57-1-3.32-.66-.75-1.49-1.13-2.48-1.13s-1.83.38-2.49,1.12c-.66.75-.99,1.88-.99,3.39Z"/>
    <path class="cls-17" d="M903.93,988.96v-1.74c-.92,1.33-2.17,2-3.75,2-.7,0-1.35-.13-1.95-.4-.6-.27-1.05-.6-1.35-1.01s-.5-.9-.62-1.49c-.08-.39-.12-1.02-.12-1.87v-7.32h2v6.55c0,1.05.04,1.75.12,2.11.13.53.39.94.8,1.24s.91.45,1.51.45,1.16-.15,1.69-.46c.53-.31.9-.73,1.12-1.26s.33-1.3.33-2.31v-6.33h2v11.82h-1.79Z"/>
    <path class="cls-17" d="M913.23,987.17l.29,1.77c-.56.12-1.07.18-1.51.18-.73,0-1.29-.12-1.69-.35-.4-.23-.68-.53-.85-.91-.16-.38-.25-1.16-.25-2.36v-6.8h-1.47v-1.56h1.47v-2.93l1.99-1.2v4.13h2.01v1.56h-2.01v6.91c0,.57.04.94.11,1.1s.19.29.34.39c.16.1.39.14.68.14.22,0,.52-.03.88-.08Z"/>
    <path class="cls-17" d="M840.7,1016.3v-16.31h6.15c1.08,0,1.91.05,2.48.16.8.13,1.47.39,2.01.76.54.38.98.9,1.31,1.57.33.68.5,1.42.5,2.23,0,1.39-.44,2.56-1.32,3.52-.88.96-2.48,1.44-4.79,1.44h-4.18v6.63h-2.16ZM842.86,1007.75h4.22c1.39,0,2.38-.26,2.97-.78s.88-1.25.88-2.19c0-.68-.17-1.27-.52-1.75-.34-.49-.8-.81-1.36-.96-.36-.1-1.03-.14-2.01-.14h-4.17v5.83Z"/>
    <path class="cls-17" d="M863.36,1014.85c-.74.63-1.46,1.08-2.14,1.34-.69.26-1.42.39-2.21.39-1.3,0-2.3-.32-2.99-.95-.7-.63-1.05-1.44-1.05-2.43,0-.58.13-1.11.4-1.59.26-.48.61-.86,1.03-1.15s.91-.51,1.44-.66c.39-.1.99-.2,1.78-.3,1.62-.19,2.81-.42,3.57-.69,0-.27.01-.45.01-.52,0-.82-.19-1.39-.57-1.72-.51-.45-1.27-.68-2.28-.68-.94,0-1.64.17-2.09.5-.45.33-.78.92-1,1.75l-1.96-.27c.18-.84.47-1.51.88-2.03.41-.52,1-.91,1.77-1.19s1.67-.42,2.68-.42,1.83.12,2.46.36c.63.24,1.09.54,1.39.9.3.36.5.81.62,1.36.07.34.1.96.1,1.85v2.67c0,1.86.04,3.04.13,3.53.08.49.25.97.51,1.42h-2.09c-.21-.42-.34-.9-.4-1.46ZM863.19,1010.37c-.73.3-1.82.55-3.27.76-.82.12-1.41.25-1.75.4-.34.15-.6.37-.79.65-.19.29-.28.6-.28.95,0,.53.2.98.61,1.33s1,.53,1.77.53,1.46-.17,2.06-.51c.6-.34,1.04-.8,1.32-1.39.22-.45.32-1.12.32-2v-.73Z"/>
    <path class="cls-17" d="M867.95,1017.28l1.95.29c.08.6.31,1.04.68,1.31.5.37,1.18.56,2.04.56.93,0,1.64-.19,2.15-.56.5-.37.85-.89,1.02-1.56.1-.41.15-1.26.14-2.57-.88,1.03-1.97,1.55-3.27,1.55-1.62,0-2.88-.59-3.77-1.76-.89-1.17-1.33-2.58-1.33-4.22,0-1.13.2-2.17.61-3.12.41-.95,1-1.69,1.77-2.21.78-.52,1.69-.78,2.73-.78,1.39,0,2.54.56,3.45,1.69v-1.42h1.85v10.21c0,1.84-.19,3.14-.56,3.91-.38.77-.97,1.37-1.78,1.82s-1.81.67-3,.67c-1.41,0-2.55-.32-3.42-.95-.87-.63-1.29-1.59-1.26-2.86ZM869.61,1010.19c0,1.55.31,2.68.92,3.39.62.71,1.39,1.07,2.31,1.07s1.69-.35,2.31-1.06c.62-.71.93-1.82.93-3.33s-.32-2.54-.96-3.27-1.42-1.1-2.32-1.1-1.65.36-2.27,1.08c-.62.72-.93,1.8-.93,3.22Z"/>
    <path class="cls-17" d="M889.08,1012.5l2.07.26c-.33,1.21-.93,2.15-1.81,2.82s-2.01,1-3.38,1c-1.73,0-3.1-.53-4.11-1.6-1.01-1.06-1.52-2.56-1.52-4.48s.51-3.53,1.54-4.63,2.35-1.65,3.98-1.65,2.87.54,3.87,1.61c1,1.08,1.5,2.59,1.5,4.54,0,.12,0,.3-.01.53h-8.81c.07,1.3.44,2.29,1.1,2.98.66.69,1.48,1.03,2.47,1.03.73,0,1.36-.19,1.88-.58.52-.39.93-1,1.23-1.85ZM882.5,1009.26h6.6c-.09-.99-.34-1.74-.76-2.24-.64-.77-1.46-1.16-2.48-1.16-.92,0-1.69.31-2.32.92-.63.62-.97,1.44-1.04,2.47Z"/>
  </g>
  <g>
    <path class="cls-17" d="M1132.48,988.96v-14.39h-5.37v-1.92h12.93v1.92h-5.4v14.39h-2.16Z"/>
    <path class="cls-17" d="M1142,988.96v-16.31h2v5.85c.93-1.08,2.11-1.62,3.54-1.62.88,0,1.64.17,2.28.52.65.35,1.11.82,1.38,1.43.28.61.42,1.49.42,2.65v7.49h-2v-7.49c0-1-.22-1.73-.65-2.19s-1.05-.68-1.84-.68c-.59,0-1.15.15-1.67.46-.52.31-.9.73-1.12,1.25-.22.53-.33,1.25-.33,2.18v6.46h-2Z"/>
    <path class="cls-17" d="M1162.38,987.5c-.74.63-1.46,1.08-2.14,1.34-.69.26-1.42.39-2.21.39-1.3,0-2.3-.32-2.99-.95-.7-.63-1.05-1.44-1.05-2.43,0-.58.13-1.11.4-1.59.26-.48.61-.86,1.03-1.15s.91-.51,1.44-.66c.39-.1.99-.2,1.78-.3,1.62-.19,2.81-.42,3.57-.69,0-.27.01-.45.01-.52,0-.82-.19-1.39-.57-1.72-.51-.45-1.27-.68-2.28-.68-.94,0-1.64.17-2.09.5-.45.33-.78.92-1,1.75l-1.96-.27c.18-.84.47-1.51.88-2.03.41-.52,1-.91,1.77-1.19s1.67-.42,2.68-.42,1.83.12,2.46.36c.63.24,1.09.54,1.39.9.3.36.5.81.62,1.36.07.34.1.96.1,1.85v2.67c0,1.86.04,3.04.13,3.53.08.49.25.97.51,1.42h-2.09c-.21-.42-.34-.9-.4-1.46ZM1162.21,983.03c-.73.3-1.82.55-3.27.76-.82.12-1.41.25-1.75.4-.34.15-.6.37-.79.65-.19.29-.28.6-.28.95,0,.53.2.98.61,1.33s1,.53,1.77.53,1.46-.17,2.06-.51c.6-.34,1.04-.8,1.32-1.39.22-.45.32-1.12.32-2v-.73Z"/>
    <path class="cls-17" d="M1167.34,988.96v-11.82h1.8v1.68c.87-1.3,2.12-1.95,3.76-1.95.71,0,1.37.13,1.96.38.6.26,1.04.59,1.34,1.01.3.42.5.91.62,1.48.07.37.11,1.02.11,1.95v7.27h-2v-7.19c0-.82-.08-1.43-.23-1.83-.16-.4-.43-.73-.83-.97-.4-.24-.86-.36-1.4-.36-.85,0-1.59.27-2.21.81-.62.54-.93,1.57-.93,3.08v6.45h-2Z"/>
    <path class="cls-17" d="M1180.03,988.96v-16.31h2v9.3l4.74-4.81h2.59l-4.52,4.38,4.97,7.43h-2.47l-3.91-6.04-1.41,1.36v4.68h-2Z"/>
    <path class="cls-17" d="M1202.18,988.96v-6.91l-6.29-9.4h2.63l3.22,4.92c.59.92,1.15,1.84,1.66,2.76.49-.85,1.08-1.81,1.78-2.88l3.16-4.8h2.51l-6.51,9.4v6.91h-2.16Z"/>
    <path class="cls-17" d="M1209.69,983.05c0-2.19.61-3.81,1.82-4.86,1.02-.88,2.25-1.31,3.72-1.31,1.62,0,2.95.53,3.98,1.6,1.03,1.06,1.55,2.54,1.55,4.41,0,1.52-.23,2.72-.68,3.59-.46.87-1.12,1.55-1.99,2.03-.87.48-1.82.72-2.85.72-1.65,0-2.99-.53-4.01-1.59-1.02-1.06-1.53-2.59-1.53-4.58ZM1211.75,983.05c0,1.51.33,2.65.99,3.4.66.75,1.49,1.13,2.49,1.13s1.82-.38,2.48-1.13.99-1.91.99-3.46c0-1.46-.33-2.57-1-3.32-.66-.75-1.49-1.13-2.48-1.13s-1.83.38-2.49,1.12c-.66.75-.99,1.88-.99,3.39Z"/>
    <path class="cls-17" d="M1230.85,988.96v-1.74c-.92,1.33-2.17,2-3.75,2-.7,0-1.35-.13-1.95-.4-.6-.27-1.05-.6-1.35-1.01s-.5-.9-.62-1.49c-.08-.39-.12-1.02-.12-1.87v-7.32h2v6.55c0,1.05.04,1.75.12,2.11.13.53.39.94.8,1.24s.91.45,1.51.45,1.16-.15,1.69-.46c.53-.31.9-.73,1.12-1.26s.33-1.3.33-2.31v-6.33h2v11.82h-1.79Z"/>
    <path class="cls-17" d="M1155.58,1016.3v-16.31h6.15c1.08,0,1.91.05,2.48.16.8.13,1.47.39,2.01.76.54.38.98.9,1.31,1.57.33.68.5,1.42.5,2.23,0,1.39-.44,2.56-1.32,3.52-.88.96-2.48,1.44-4.79,1.44h-4.18v6.63h-2.16ZM1157.74,1007.75h4.22c1.39,0,2.38-.26,2.97-.78s.88-1.25.88-2.19c0-.68-.17-1.27-.52-1.75-.34-.49-.8-.81-1.36-.96-.36-.1-1.03-.14-2.01-.14h-4.17v5.83Z"/>
    <path class="cls-17" d="M1178.23,1014.85c-.74.63-1.46,1.08-2.14,1.34-.69.26-1.42.39-2.21.39-1.3,0-2.3-.32-2.99-.95-.7-.63-1.05-1.44-1.05-2.43,0-.58.13-1.11.4-1.59.26-.48.61-.86,1.03-1.15s.91-.51,1.44-.66c.39-.1.99-.2,1.78-.3,1.62-.19,2.81-.42,3.57-.69,0-.27.01-.45.01-.52,0-.82-.19-1.39-.57-1.72-.51-.45-1.27-.68-2.28-.68-.94,0-1.64.17-2.09.5-.45.33-.78.92-1,1.75l-1.96-.27c.18-.84.47-1.51.88-2.03.41-.52,1-.91,1.77-1.19s1.67-.42,2.68-.42,1.83.12,2.46.36c.63.24,1.09.54,1.39.9.3.36.5.81.62,1.36.07.34.1.96.1,1.85v2.67c0,1.86.04,3.04.13,3.53.08.49.25.97.51,1.42h-2.09c-.21-.42-.34-.9-.4-1.46ZM1178.06,1010.37c-.73.3-1.82.55-3.27.76-.82.12-1.41.25-1.75.4-.34.15-.6.37-.79.65-.19.29-.28.6-.28.95,0,.53.2.98.61,1.33s1,.53,1.77.53,1.46-.17,2.06-.51c.6-.34,1.04-.8,1.32-1.39.22-.45.32-1.12.32-2v-.73Z"/>
    <path class="cls-17" d="M1182.83,1017.28l1.95.29c.08.6.31,1.04.68,1.31.5.37,1.18.56,2.04.56.93,0,1.64-.19,2.15-.56.5-.37.85-.89,1.02-1.56.1-.41.15-1.26.14-2.57-.88,1.03-1.97,1.55-3.27,1.55-1.62,0-2.88-.59-3.77-1.76-.89-1.17-1.33-2.58-1.33-4.22,0-1.13.2-2.17.61-3.12.41-.95,1-1.69,1.77-2.21.78-.52,1.69-.78,2.73-.78,1.39,0,2.54.56,3.45,1.69v-1.42h1.85v10.21c0,1.84-.19,3.14-.56,3.91-.38.77-.97,1.37-1.78,1.82s-1.81.67-3,.67c-1.41,0-2.55-.32-3.42-.95-.87-.63-1.29-1.59-1.26-2.86ZM1184.48,1010.19c0,1.55.31,2.68.92,3.39.62.71,1.39,1.07,2.31,1.07s1.69-.35,2.31-1.06c.62-.71.93-1.82.93-3.33s-.32-2.54-.96-3.27-1.42-1.1-2.32-1.1-1.65.36-2.27,1.08c-.62.72-.93,1.8-.93,3.22Z"/>
    <path class="cls-17" d="M1203.95,1012.5l2.07.26c-.33,1.21-.93,2.15-1.81,2.82s-2.01,1-3.38,1c-1.73,0-3.1-.53-4.11-1.6-1.01-1.06-1.52-2.56-1.52-4.48s.51-3.53,1.54-4.63,2.35-1.65,3.98-1.65,2.87.54,3.87,1.61c1,1.08,1.5,2.59,1.5,4.54,0,.12,0,.3-.01.53h-8.81c.07,1.3.44,2.29,1.1,2.98.66.69,1.48,1.03,2.47,1.03.73,0,1.36-.19,1.88-.58.52-.39.93-1,1.23-1.85ZM1197.38,1009.26h6.6c-.09-.99-.34-1.74-.76-2.24-.64-.77-1.46-1.16-2.48-1.16-.92,0-1.69.31-2.32.92-.63.62-.97,1.44-1.04,2.47Z"/>
  </g>
  <text class="cls-12" transform="translate(936.58 1080.06)"><tspan x="0" y="0">WEBSITE PLUGIN</tspan></text>
  <rect class="cls-5" x="18.7" y="118.94" width="1957.09" height="245.48"/>
  <rect class="cls-5" x="18.7" y="364.42" width="1957.09" height="245.48"/>
  <rect class="cls-5" x="18.7" y="609.9" width="1957.09" height="508.56"/>
  <g>
    <path class="cls-15" d="M138.53,218.76v-21.5h4.34v8.46h8.51v-8.46h4.34v21.5h-4.34v-9.4h-8.51v9.4h-4.34Z"/>
    <path class="cls-15" d="M159.32,208.14c0-2.19.33-4.03.98-5.51.49-1.1,1.16-2.08,2-2.95.85-.87,1.77-1.52,2.78-1.94,1.34-.57,2.88-.85,4.63-.85,3.17,0,5.7.98,7.6,2.95s2.85,4.7,2.85,8.2-.94,6.19-2.83,8.15c-1.89,1.96-4.41,2.94-7.57,2.94s-5.74-.98-7.63-2.93c-1.89-1.95-2.83-4.64-2.83-8.06ZM163.8,207.99c0,2.43.56,4.28,1.69,5.54,1.12,1.26,2.55,1.88,4.28,1.88s3.15-.62,4.26-1.87c1.11-1.25,1.67-3.12,1.67-5.61s-.54-4.3-1.62-5.51c-1.08-1.21-2.52-1.82-4.3-1.82s-3.23.61-4.33,1.84c-1.09,1.23-1.64,3.08-1.64,5.55Z"/>
    <path class="cls-15" d="M182.47,211.76l4.22-.41c.25,1.42.77,2.46,1.55,3.12.78.67,1.83,1,3.15,1,1.4,0,2.45-.3,3.16-.89.71-.59,1.06-1.28,1.06-2.08,0-.51-.15-.94-.45-1.3s-.82-.67-1.56-.93c-.51-.18-1.67-.49-3.48-.94-2.33-.58-3.96-1.29-4.9-2.13-1.32-1.18-1.98-2.63-1.98-4.33,0-1.1.31-2.12.93-3.07.62-.95,1.52-1.68,2.68-2.18,1.17-.5,2.58-.75,4.23-.75,2.7,0,4.73.59,6.09,1.77,1.36,1.18,2.08,2.76,2.15,4.74l-4.34.19c-.19-1.1-.58-1.9-1.2-2.38-.61-.48-1.53-.73-2.75-.73s-2.25.26-2.96.78c-.46.33-.69.78-.69,1.33,0,.51.21.94.64,1.31.55.46,1.88.94,3.99,1.44,2.11.5,3.67,1.01,4.69,1.55s1.8,1.26,2.38,2.19c.57.92.86,2.07.86,3.42,0,1.23-.34,2.39-1.03,3.46s-1.65,1.88-2.9,2.4c-1.25.52-2.81.78-4.68.78-2.72,0-4.81-.63-6.26-1.88-1.46-1.26-2.33-3.09-2.61-5.49Z"/>
    <path class="cls-15" d="M208.44,218.76v-17.86h-6.38v-3.64h17.09v3.64h-6.37v17.86h-4.34Z"/>
    <path class="cls-15" d="M221.95,218.76v-21.5h15.94v3.64h-11.6v4.77h10.79v3.62h-10.79v5.85h12.01v3.62h-16.35Z"/>
    <path class="cls-15" d="M241.97,197.26h7.93c1.79,0,3.15.14,4.09.41,1.26.37,2.34,1.03,3.24,1.98.9.95,1.58,2.11,2.05,3.48.47,1.37.7,3.07.7,5.08,0,1.77-.22,3.3-.66,4.58-.54,1.56-1.31,2.83-2.3,3.8-.75.73-1.77,1.31-3.05,1.72-.96.3-2.24.45-3.84.45h-8.17v-21.5ZM246.31,200.89v14.24h3.24c1.21,0,2.09-.07,2.63-.21.7-.18,1.29-.47,1.75-.89.46-.42.84-1.11,1.14-2.08.29-.96.44-2.28.44-3.94s-.15-2.94-.44-3.83c-.29-.89-.7-1.58-1.23-2.08-.53-.5-1.2-.84-2.01-1.01-.61-.14-1.79-.21-3.56-.21h-1.95Z"/>
    <path class="cls-15" d="M74.52,254.8v-21.5h6.97c2.64,0,4.36.11,5.16.32,1.23.32,2.26,1.02,3.09,2.1.83,1.08,1.25,2.48,1.25,4.19,0,1.32-.24,2.43-.72,3.33-.48.9-1.09,1.61-1.83,2.12s-1.49.85-2.25,1.02c-1.04.21-2.54.31-4.5.31h-2.83v8.11h-4.34ZM78.86,236.94v6.1h2.38c1.71,0,2.86-.11,3.43-.34.58-.22,1.03-.58,1.36-1.06.33-.48.49-1.04.49-1.67,0-.78-.23-1.43-.69-1.94-.46-.51-1.04-.83-1.75-.95-.52-.1-1.56-.15-3.12-.15h-2.1Z"/>
    <path class="cls-15" d="M111.71,254.8h-4.72l-1.88-4.88h-8.59l-1.77,4.88h-4.61l8.38-21.5h4.59l8.61,21.5ZM103.72,246.3l-2.96-7.98-2.9,7.98h5.87Z"/>
    <path class="cls-15" d="M116.91,254.8v-9.05l-7.88-12.45h5.09l5.06,8.51,4.96-8.51h5l-7.91,12.48v9.02h-4.33Z"/>
    <path class="cls-15" d="M131.29,254.8v-21.5h15.94v3.64h-11.6v4.77h10.79v3.62h-10.79v5.85h12.01v3.62h-16.35Z"/>
    <path class="cls-15" d="M151.27,254.8v-21.5h6.5l3.9,14.67,3.86-14.67h6.51v21.5h-4.03v-16.93l-4.27,16.93h-4.18l-4.25-16.93v16.93h-4.03Z"/>
    <path class="cls-15" d="M176.35,254.8v-21.5h15.94v3.64h-11.6v4.77h10.79v3.62h-10.79v5.85h12.01v3.62h-16.35Z"/>
    <path class="cls-15" d="M196.43,254.8v-21.5h4.22l8.8,14.36v-14.36h4.03v21.5h-4.36l-8.67-14.02v14.02h-4.03Z"/>
    <path class="cls-15" d="M222.92,254.8v-17.86h-6.38v-3.64h17.09v3.64h-6.37v17.86h-4.34Z"/>
    <path class="cls-15" d="M244.77,254.8v-21.5h6.97c2.64,0,4.36.11,5.16.32,1.23.32,2.26,1.02,3.09,2.1.83,1.08,1.25,2.48,1.25,4.19,0,1.32-.24,2.43-.72,3.33-.48.9-1.09,1.61-1.83,2.12s-1.49.85-2.25,1.02c-1.04.21-2.54.31-4.5.31h-2.83v8.11h-4.34ZM249.11,236.94v6.1h2.38c1.71,0,2.86-.11,3.43-.34.58-.22,1.03-.58,1.36-1.06.33-.48.49-1.04.49-1.67,0-.78-.23-1.43-.69-1.94-.46-.51-1.04-.83-1.75-.95-.52-.1-1.56-.15-3.12-.15h-2.1Z"/>
    <path class="cls-15" d="M281.97,254.8h-4.72l-1.88-4.88h-8.59l-1.77,4.88h-4.61l8.38-21.5h4.59l8.61,21.5ZM273.97,246.3l-2.96-7.98-2.9,7.98h5.87Z"/>
    <path class="cls-15" d="M294.27,246.9v-3.62h9.36v8.56c-.91.88-2.23,1.66-3.95,2.32-1.73.67-3.47,1-5.24,1-2.25,0-4.21-.47-5.88-1.42-1.67-.94-2.93-2.29-3.77-4.05-.84-1.75-1.26-3.66-1.26-5.73,0-2.24.47-4.23,1.41-5.97.94-1.74,2.31-3.07,4.12-4,1.38-.71,3.09-1.07,5.15-1.07,2.67,0,4.75.56,6.26,1.68s2.47,2.67,2.9,4.64l-4.31.81c-.3-1.06-.87-1.89-1.71-2.5-.84-.61-1.88-.92-3.13-.92-1.9,0-3.4.6-4.52,1.8-1.12,1.2-1.68,2.99-1.68,5.35,0,2.55.57,4.47,1.7,5.74,1.13,1.28,2.62,1.91,4.46,1.91.91,0,1.82-.18,2.74-.54s1.7-.79,2.35-1.3v-2.73h-4.97Z"/>
    <path class="cls-15" d="M307.63,254.8v-21.5h15.94v3.64h-11.6v4.77h10.79v3.62h-10.79v5.85h12.01v3.62h-16.35Z"/>
    <path class="cls-15" d="M167.01,297.17h-2.83c-1.5-2.26-2.64-4.61-3.42-7.04s-1.17-4.79-1.17-7.07c0-2.83.48-5.5,1.45-8.02.84-2.19,1.91-4.21,3.2-6.06h2.82c-1.34,2.96-2.26,5.48-2.77,7.56-.5,2.08-.75,4.28-.75,6.61,0,1.6.15,3.25.45,4.93s.71,3.28,1.22,4.8c.34,1,.94,2.43,1.8,4.3Z"/>
    <path class="cls-15" d="M170.23,290.85v-21.5h4.34v8.46h8.51v-8.46h4.34v21.5h-4.34v-9.4h-8.51v9.4h-4.34Z"/>
    <path class="cls-15" d="M191.9,290.85v-21.5h6.97c2.64,0,4.36.11,5.16.32,1.23.32,2.26,1.02,3.09,2.1.83,1.08,1.25,2.48,1.25,4.19,0,1.32-.24,2.43-.72,3.33-.48.9-1.09,1.61-1.83,2.12s-1.49.85-2.25,1.02c-1.04.21-2.54.31-4.5.31h-2.83v8.11h-4.34ZM196.25,272.98v6.1h2.38c1.71,0,2.86-.11,3.43-.34.58-.22,1.03-.58,1.36-1.06.33-.48.49-1.04.49-1.67,0-.78-.23-1.43-.69-1.94-.46-.51-1.04-.83-1.75-.95-.52-.1-1.56-.15-3.12-.15h-2.1Z"/>
    <path class="cls-15" d="M211.94,290.85v-21.5h6.97c2.64,0,4.36.11,5.16.32,1.23.32,2.26,1.02,3.09,2.1.83,1.08,1.25,2.48,1.25,4.19,0,1.32-.24,2.43-.72,3.33-.48.9-1.09,1.61-1.83,2.12s-1.49.85-2.25,1.02c-1.04.21-2.54.31-4.5.31h-2.83v8.11h-4.34ZM216.28,272.98v6.1h2.38c1.71,0,2.86-.11,3.43-.34.58-.22,1.03-.58,1.36-1.06.33-.48.49-1.04.49-1.67,0-.78-.23-1.43-.69-1.94-.46-.51-1.04-.83-1.75-.95-.52-.1-1.56-.15-3.12-.15h-2.1Z"/>
    <path class="cls-15" d="M230.8,297.17c.81-1.74,1.38-3.08,1.72-4,.33-.93.64-2,.92-3.21.28-1.21.49-2.36.63-3.45.14-1.09.21-2.21.21-3.35,0-2.33-.25-4.53-.75-6.61-.5-2.08-1.42-4.6-2.76-7.56h2.8c1.48,2.1,2.62,4.33,3.44,6.69.82,2.36,1.22,4.75,1.22,7.17,0,2.04-.32,4.23-.97,6.57-.73,2.62-1.94,5.21-3.62,7.76h-2.85Z"/>
  </g>
  <text class="cls-14" transform="translate(165.52 497.38)"><tspan x="0" y="0">APIs</tspan></text>
  <text class="cls-14" transform="translate(64.71 861.97)"><tspan x="0" y="0">WEBSITE PLUGINS </tspan></text>
  <g>
    <line class="cls-3" x1="1273.02" y1="239.99" x2="1444.41" y2="239.99"/>
    <polygon class="cls-21" points="1439.74 255.95 1467.38 239.99 1439.74 224.03 1439.74 255.95"/>
  </g>
  <g>
    <line class="cls-3" x1="625.27" y1="239.99" x2="762.87" y2="239.99"/>
    <polygon class="cls-21" points="758.2 255.95 785.84 239.99 758.2 224.03 758.2 255.95"/>
  </g>
  <g>
    <line class="cls-3" x1="625.27" y1="487.54" x2="762.87" y2="487.54"/>
    <polygon class="cls-21" points="758.2 503.5 785.84 487.54 758.2 471.58 758.2 503.5"/>
  </g>
  <g>
    <line class="cls-3" x1="625.27" y1="723.69" x2="762.87" y2="723.69"/>
    <polygon class="cls-21" points="758.2 739.65 785.84 723.69 758.2 707.74 758.2 739.65"/>
  </g>
  <g>
    <line class="cls-3" x1="1266.31" y1="439.86" x2="1444.41" y2="439.86"/>
    <polygon class="cls-21" points="1439.74 455.81 1467.38 439.86 1439.74 423.9 1439.74 455.81"/>
  </g>
  <g>
    <line class="cls-3" x1="1282.07" y1="883.2" x2="1444.41" y2="883.2"/>
    <polygon class="cls-21" points="1439.74 899.16 1467.38 883.2 1439.74 867.25 1439.74 899.16"/>
  </g>
  <g>
    <line class="cls-3" x1="1457" y1="481.36" x2="1278.89" y2="481.36"/>
    <polygon class="cls-21" points="1283.56 465.41 1255.93 481.36 1283.56 497.32 1283.56 465.41"/>
  </g>
  <g>
    <line class="cls-3" x1="1457.81" y1="924.63" x2="1295.47" y2="924.63"/>
    <polygon class="cls-21" points="1300.14 908.68 1272.5 924.63 1300.14 940.59 1300.14 908.68"/>
  </g>
  <g>
    <line class="cls-3" x1="1459.09" y1="718.52" x2="1279.41" y2="718.52"/>
    <polygon class="cls-21" points="1284.08 702.56 1256.45 718.52 1284.08 734.47 1284.08 702.56"/>
  </g>
  <g>
    <path class="cls-6" d="M536.87,209.38c0,7.02-5.99,12.63-13.14,12.01-6.33-.55-10.98-6.28-10.98-12.64v-3.57c0-6.36,4.64-12.08,10.98-12.64,7.14-.62,13.14,4.99,13.14,12.01v4.82Z"/>
    <path class="cls-6" d="M531.16,232.55l-4.03,4.81c-1.2,1.44-3.42,1.44-4.62,0l-4.03-4.81c-1.68-2.01-4.49-2.77-6.89-1.73-10.75,4.68-18.54,14.89-19.76,27.05-.18,1.79,1.22,3.35,3.01,3.35h59.95c1.8,0,3.19-1.57,3.01-3.35-1.22-12.15-9.01-22.36-19.76-27.05-2.4-1.04-5.21-.28-6.89,1.73Z"/>
  </g>
  <g>
    <path class="cls-6" d="M536.87,453.82c0,7.02-5.99,12.63-13.14,12.01-6.33-.55-10.98-6.28-10.98-12.64v-3.57c0-6.36,4.64-12.08,10.98-12.64,7.14-.62,13.14,4.99,13.14,12.01v4.82Z"/>
    <path class="cls-6" d="M531.16,476.99l-4.03,4.81c-1.2,1.44-3.42,1.44-4.62,0l-4.03-4.81c-1.68-2.01-4.49-2.77-6.89-1.73-10.75,4.68-18.54,14.89-19.76,27.05-.18,1.79,1.22,3.35,3.01,3.35h59.95c1.8,0,3.19-1.57,3.01-3.35-1.22-12.15-9.01-22.36-19.76-27.05-2.4-1.04-5.21-.28-6.89,1.73Z"/>
  </g>
  <g>
    <path class="cls-6" d="M536.87,702.4c0,7.02-5.99,12.63-13.14,12.01-6.33-.55-10.98-6.28-10.98-12.64v-3.57c0-6.36,4.64-12.08,10.98-12.64,7.14-.62,13.14,4.99,13.14,12.01v4.82Z"/>
    <path class="cls-6" d="M531.16,725.58l-4.03,4.81c-1.2,1.44-3.42,1.44-4.62,0l-4.03-4.81c-1.68-2.01-4.49-2.77-6.89-1.73-10.75,4.68-18.54,14.89-19.76,27.05-.18,1.79,1.22,3.35,3.01,3.35h59.95c1.8,0,3.19-1.57,3.01-3.35-1.22-12.15-9.01-22.36-19.76-27.05-2.4-1.04-5.21-.28-6.89,1.73Z"/>
  </g>
  <g>
    <path class="cls-6" d="M986.83,187.96h53.85c3.76,0,6.66,3.39,6.01,7.11l-4.46,20.91c-.27,1.47-1.53,2.5-2.99,2.5h-44.79"/>
    <circle class="cls-6" cx="1002.09" cy="239.86" r="6.11"/>
    <circle class="cls-6" cx="1035.67" cy="239.86" r="6.11"/>
    <path class="cls-6" d="M977.67,175.75c6.11,0,6.11,3.05,9.16,12.21l9.16,36.64c.3,1.41,1.03,3.05,2.47,3.05h43.33"/>
  </g>
  <g>
    <path class="cls-6" d="M840.78,445.87h53.85c3.76,0,6.66,3.39,6.01,7.11l-4.46,20.91c-.27,1.47-1.53,2.5-2.99,2.5h-44.79"/>
    <circle class="cls-6" cx="856.05" cy="497.77" r="6.11"/>
    <circle class="cls-6" cx="889.63" cy="497.77" r="6.11"/>
    <path class="cls-6" d="M831.62,433.66c6.11,0,6.11,3.05,9.16,12.21l9.16,36.64c.3,1.41,1.03,3.05,2.47,3.05h43.33"/>
  </g>
  <g>
    <path class="cls-6" d="M840.78,882.97h53.85c3.76,0,6.66,3.39,6.01,7.11l-4.46,20.91c-.27,1.47-1.53,2.5-2.99,2.5h-44.79"/>
    <circle class="cls-6" cx="856.05" cy="934.87" r="6.11"/>
    <circle class="cls-6" cx="889.63" cy="934.87" r="6.11"/>
    <path class="cls-6" d="M831.62,870.75c6.11,0,6.11,3.05,9.16,12.21l9.16,36.64c.3,1.41,1.03,3.05,2.47,3.05h43.33"/>
  </g>
  <g>
    <path class="cls-6" d="M1057.19,702.27c0,3.48-3.1,6.3-6.93,6.3s-6.93-2.82-6.93-6.3c0,3.48-3.1,6.3-6.93,6.3s-6.93-2.82-6.93-6.3c0,3.48-3.1,6.3-6.93,6.3s-6.93-2.82-6.93-6.3c0,3.48-3.1,6.3-6.93,6.3s-6.93-2.82-6.93-6.3c0,3.48-3.1,6.3-6.93,6.3s-6.93-2.82-6.93-6.3"/>
    <path class="cls-2" d="M987.88,702.27l7.22-22.92c.39-1.35,1.62-2.28,3.03-2.28h48.8c1.41,0,2.64.93,3.03,2.28l7.22,22.92"/>
    <path class="cls-6" d="M1052.47,708.57v37.8c0,1.74-1.41,3.15-3.15,3.15h-53.56c-1.74,0-3.15-1.41-3.15-3.15v-37.8"/>
    <line class="cls-2" x1="1014.66" y1="705.42" x2="1014.66" y2="749.52"/>
    <line class="cls-2" x1="1008.36" y1="724.32" x2="1008.36" y2="727.47"/>
    <line class="cls-2" x1="1033.56" y1="718.02" x2="1024.11" y2="727.47"/>
    <line class="cls-2" x1="1039.86" y1="724.32" x2="1027.26" y2="736.92"/>
    <line class="cls-2" x1="1043.33" y1="702.27" x2="1039.54" y2="677.06"/>
    <line class="cls-2" x1="1029.47" y1="702.27" x2="1027.13" y2="677.06"/>
    <line class="cls-2" x1="1015.61" y1="702.27" x2="1017.75" y2="677.06"/>
    <line class="cls-2" x1="1001.74" y1="702.27" x2="1005.8" y2="677.06"/>
  </g>
  <g>
    <path class="cls-6" d="M1616.21,240.14h-68.88c-1.81,0-3.28-1.47-3.28-3.28v-55.07c0-2.18,1.79-3.97,3.97-3.97h67.5c2.18,0,3.97,1.79,3.97,3.97v55.07c0,1.81-1.47,3.28-3.28,3.28Z"/>
    <line class="cls-6" x1="1544.05" y1="194.22" x2="1619.49" y2="194.22"/>
    <circle class="cls-20" cx="1552.25" cy="186.02" r="3.28"/>
    <circle class="cls-20" cx="1562.09" cy="186.02" r="3.28"/>
    <circle class="cls-20" cx="1571.93" cy="186.02" r="3.28"/>
  </g>
  <g>
    <circle class="cls-4" cx="1582.32" cy="222.72" r="9.2"/>
    <path class="cls-4" d="M1575.75,216.29v-8.03c0-3.63,2.94-6.57,6.57-6.57,1.81,0,3.46.74,4.65,1.92,1.18,1.2,1.92,2.84,1.92,4.65v8.03"/>
    <line class="cls-4" x1="1582.32" y1="222.72" x2="1582.32" y2="225.35"/>
    <circle class="cls-20" cx="1582.32" cy="221.41" r="1.97"/>
  </g>
  <g>
    <circle class="cls-6" cx="1177.04" cy="463.6" r="31.25"/>
    <line class="cls-6" x1="1194.7" y1="451.38" x2="1172.96" y2="475.83"/>
    <line class="cls-6" x1="1159.38" y1="464.96" x2="1172.96" y2="475.83"/>
  </g>
  <g>
    <circle class="cls-6" cx="1177.04" cy="903.8" r="31.25"/>
    <line class="cls-6" x1="1194.7" y1="891.58" x2="1172.96" y2="916.03"/>
    <line class="cls-6" x1="1159.38" y1="905.16" x2="1172.96" y2="916.03"/>
  </g>
  <g>
    <circle class="cls-6" cx="1844.08" cy="209.84" r="31.25"/>
    <line class="cls-6" x1="1861.74" y1="197.61" x2="1840" y2="222.06"/>
    <line class="cls-6" x1="1826.42" y1="211.2" x2="1840" y2="222.06"/>
  </g>
  <g>
    <rect class="cls-6" x="986.43" y="442.62" width="70.63" height="46.06" rx="1" ry="1"/>
    <rect class="cls-6" x="986.43" y="451.83" width="70.63" height="9.21"/>
    <line class="cls-6" x1="992.58" y1="476.4" x2="1004.86" y2="476.4"/>
    <line class="cls-6" x1="1014.07" y1="476.4" x2="1023.28" y2="476.4"/>
  </g>
  <g>
    <rect class="cls-6" x="986.34" y="880.71" width="70.63" height="46.06" rx="1" ry="1"/>
    <rect class="cls-6" x="986.34" y="889.92" width="70.63" height="9.21"/>
    <line class="cls-6" x1="992.48" y1="914.49" x2="1004.76" y2="914.49"/>
    <line class="cls-6" x1="1013.98" y1="914.49" x2="1023.19" y2="914.49"/>
  </g>
  <g>
    <g>
      <path class="cls-6" d="M1702.47,473.76c-3.05.7-5.95,1.92-8.52,3.57"/>
      <path class="cls-6" d="M1723.2,477.33c-2.56-1.65-5.47-2.87-8.52-3.57"/>
      <path class="cls-6" d="M1735.39,494.46c-.7-3.05-1.92-5.95-3.57-8.52"/>
      <path class="cls-6" d="M1685.34,485.94c-1.65,2.56-2.87,5.47-3.57,8.52"/>
      <path class="cls-6" d="M1722.17,502.32c.11-.56.14-1.16.14-1.76,0-7.62-6.11-13.73-13.73-13.73s-13.73,6.11-13.73,13.73c0,.6.04,1.19.14,1.76"/>
      <polyline class="cls-6" points="1702.47 473.76 1702.47 465.45 1714.68 465.45 1714.68 473.76"/>
      <polyline class="cls-6" points="1723.2 477.33 1729.1 471.41 1737.74 480.05 1731.81 485.94"/>
      <polyline class="cls-6" points="1735.37 494.46 1743.69 494.46 1743.69 502.32"/>
      <polyline class="cls-6" points="1673.46 502.32 1673.46 494.46 1681.78 494.46"/>
      <polyline class="cls-6" points="1685.34 485.94 1679.42 480.05 1688.06 471.41 1693.95 477.33"/>
    </g>
    <path class="cls-6" d="M1668.19,435.61h80.76v65.72c0,.55-.45,1-1,1h-78.76c-.55,0-1-.45-1-1v-65.72h0Z"/>
    <line class="cls-6" x1="1668.19" y1="449.65" x2="1748.96" y2="449.65"/>
    <circle class="cls-20" cx="1678.73" cy="442.63" r="1.76"/>
    <circle class="cls-20" cx="1685.75" cy="442.63" r="1.76"/>
    <circle class="cls-20" cx="1692.77" cy="442.63" r="1.76"/>
  </g>
  <text class="cls-10" transform="translate(1657.79 795.27)"><tspan x="0" y="0">PLUGINS</tspan></text>
  <rect class="cls-15" x="1648.72" y="650.81" width="118.81" height="118.81" rx="19.94" ry="19.94"/>
  <g>
    <g>
      <path class="cls-6" d="M1702.47,910.85c-3.05.7-5.95,1.92-8.52,3.57"/>
      <path class="cls-6" d="M1723.2,914.43c-2.56-1.65-5.47-2.87-8.52-3.57"/>
      <path class="cls-6" d="M1735.39,931.56c-.7-3.05-1.92-5.95-3.57-8.52"/>
      <path class="cls-6" d="M1685.34,923.04c-1.65,2.56-2.87,5.47-3.57,8.52"/>
      <path class="cls-6" d="M1722.17,939.42c.11-.56.14-1.16.14-1.76,0-7.62-6.11-13.73-13.73-13.73s-13.73,6.11-13.73,13.73c0,.6.04,1.19.14,1.76"/>
      <polyline class="cls-6" points="1702.47 910.85 1702.47 902.55 1714.68 902.55 1714.68 910.85"/>
      <polyline class="cls-6" points="1723.2 914.43 1729.1 908.5 1737.74 917.14 1731.81 923.04"/>
      <polyline class="cls-6" points="1735.37 931.55 1743.69 931.55 1743.69 939.42"/>
      <polyline class="cls-6" points="1673.46 939.42 1673.46 931.55 1681.78 931.55"/>
      <polyline class="cls-6" points="1685.34 923.04 1679.42 917.14 1688.06 908.5 1693.95 914.43"/>
    </g>
    <path class="cls-6" d="M1668.19,872.7h80.76v65.72c0,.55-.45,1-1,1h-78.76c-.55,0-1-.45-1-1v-65.72h0Z"/>
    <line class="cls-6" x1="1668.19" y1="886.75" x2="1748.96" y2="886.75"/>
    <circle class="cls-20" cx="1678.73" cy="879.72" r="1.76"/>
    <circle class="cls-20" cx="1685.75" cy="879.72" r="1.76"/>
    <circle class="cls-20" cx="1692.77" cy="879.72" r="1.76"/>
  </g>
  <text class="cls-9" transform="translate(1334.27 227.44)"><tspan x="0" y="0">Link</tspan></text>
  <text class="cls-11" transform="translate(1315.59 427.34)"><tspan x="0" y="0">Request</tspan></text>
  <text class="cls-11" transform="translate(1306.72 508.13)"><tspan x="0" y="0">Response</tspan></text>
  <text class="cls-11" transform="translate(1307.43 699.49)"><tspan x="0" y="0">Download</tspan></text>
  <text class="cls-11" transform="translate(1319.3 871.24)"><tspan x="0" y="0">Request</tspan></text>
  <text class="cls-11" transform="translate(1311.47 949.96)"><tspan x="0" y="0">Response</tspan></text>
  <g>
    <path class="cls-20" d="M1738.27,689.12h-38.31c-.76,0-1.37-.61-1.37-1.37s.61-1.37,1.37-1.37h38.31c.76,0,1.37.61,1.37,1.37s-.61,1.37-1.37,1.37Z"/>
    <path class="cls-20" d="M1686.27,689.12h-10.95c-.76,0-1.37-.61-1.37-1.37s.61-1.37,1.37-1.37h10.95c.76,0,1.37.61,1.37,1.37s-.61,1.37-1.37,1.37Z"/>
    <path class="cls-20" d="M1738.27,711.02h-8.21c-.76,0-1.37-.61-1.37-1.37s.61-1.37,1.37-1.37h8.21c.76,0,1.37.61,1.37,1.37s-.61,1.37-1.37,1.37Z"/>
    <path class="cls-20" d="M1716.37,711.02h-41.05c-.76,0-1.37-.61-1.37-1.37s.61-1.37,1.37-1.37h41.05c.76,0,1.37.61,1.37,1.37s-.61,1.37-1.37,1.37Z"/>
    <path class="cls-20" d="M1738.27,732.91h-46.52c-.76,0-1.37-.61-1.37-1.37s.61-1.37,1.37-1.37h46.52c.76,0,1.37.61,1.37,1.37s-.61,1.37-1.37,1.37Z"/>
    <path class="cls-20" d="M1678.06,732.91h-2.74c-.76,0-1.37-.61-1.37-1.37s.61-1.37,1.37-1.37h2.74c.76,0,1.37.61,1.37,1.37s-.61,1.37-1.37,1.37Z"/>
    <path class="cls-20" d="M1690.38,697.33c-3.02,0-5.47-2.46-5.47-5.47v-8.21c0-3.02,2.46-5.47,5.47-5.47s5.47,2.46,5.47,5.47v8.21c0,3.02-2.46,5.47-5.47,5.47ZM1690.38,680.91c-1.51,0-2.74,1.23-2.74,2.74v8.21c0,1.51,1.23,2.74,2.74,2.74s2.74-1.23,2.74-2.74v-8.21c0-1.51-1.23-2.74-2.74-2.74Z"/>
    <path class="cls-20" d="M1720.48,719.23c-3.02,0-5.47-2.46-5.47-5.47v-8.21c0-3.02,2.46-5.47,5.47-5.47s5.47,2.46,5.47,5.47v8.21c0,3.02-2.46,5.47-5.47,5.47ZM1720.48,702.81c-1.51,0-2.74,1.23-2.74,2.74v8.21c0,1.51,1.23,2.74,2.74,2.74s2.74-1.23,2.74-2.74v-8.21c0-1.51-1.23-2.74-2.74-2.74Z"/>
    <path class="cls-20" d="M1682.17,741.12c-3.02,0-5.47-2.46-5.47-5.47v-8.21c0-3.02,2.46-5.47,5.47-5.47s5.47,2.46,5.47,5.47v8.21c0,3.02-2.46,5.47-5.47,5.47ZM1682.17,724.7c-1.51,0-2.74,1.23-2.74,2.74v8.21c0,1.51,1.23,2.74,2.74,2.74s2.74-1.23,2.74-2.74v-8.21c0-1.51-1.23-2.74-2.74-2.74Z"/>
  </g>
</svg>