<?xml version="1.0" encoding="UTF-8"?>
<svg id="Layer_1" data-name="Layer 1" xmlns="http://www.w3.org/2000/svg" viewBox="0 0 1997 740">
  <defs>
    <style>
      .cls-1, .cls-2, .cls-3 {
        stroke-miterlimit: 10;
      }

      .cls-1, .cls-3, .cls-4 {
        stroke: #fff;
        stroke-width: 3px;
      }

      .cls-1, .cls-4 {
        fill: none;
      }

      .cls-5 {
        font-family: OpenSans-Semibold, 'Open Sans';
        font-size: 25px;
        font-weight: 600;
      }

      .cls-5, .cls-6, .cls-7 {
        fill: #666;
      }

      .cls-2 {
        fill: #f2f2f2;
        stroke: #00a99d;
      }

      .cls-3 {
        fill: #163567;
      }

      .cls-6, .cls-8, .cls-9, .cls-10 {
        stroke-width: 0px;
      }

      .cls-8 {
        fill: #ff931e;
      }

      .cls-9 {
        fill: #fff;
      }

      .cls-10 {
        fill: #00a99d;
      }

      .cls-7 {
        font-family: OpenSans-Bold, 'Open Sans';
        font-size: 31px;
        font-weight: 700;
      }

      .cls-4 {
        stroke-linecap: round;
        stroke-linejoin: round;
      }
    </style>
  </defs>
  <rect class="cls-9" width="1997" height="740"/>
  <rect class="cls-8" x="118.5" y="107.5" width="237" height="237" rx="20.7" ry="20.7"/>
  <rect class="cls-8" x="499.5" y="107.5" width="237" height="237" rx="20.7" ry="20.7"/>
  <rect class="cls-8" x="880.5" y="107.5" width="237" height="237" rx="20.7" ry="20.7"/>
  <rect class="cls-8" x="1261.5" y="107.5" width="237" height="237" rx="20.7" ry="20.7"/>
  <rect class="cls-8" x="1642.5" y="107.5" width="237" height="237" rx="20.7" ry="20.7"/>
  <text class="cls-7" transform="translate(139.39 76.57)"><tspan x="0" y="0">CREATE LINK</tspan></text>
  <text class="cls-7" transform="translate(527.53 76.57)"><tspan x="0" y="0">SHARE LINK</tspan></text>
  <text class="cls-7" transform="translate(924.37 76.57)"><tspan x="0" y="0">PAYMENT</tspan></text>
  <text class="cls-7" transform="translate(1292.25 76.57)"><tspan x="0" y="0">PROCESSED</tspan></text>
  <text class="cls-7" transform="translate(1620.98 76.57)"><tspan x="0" y="0">RECEIVE PAYMENT</tspan></text>
  <rect class="cls-2" x="87.5" y="399.5" width="298" height="154" rx="14.06" ry="14.06"/>
  <g>
    <polygon class="cls-10" points="442.51 196.79 425.52 196.79 448.61 225.14 425.52 253.5 442.51 253.5 465.6 225.14 442.51 196.79"/>
    <rect class="cls-10" x="405.9" y="213.03" width="44.46" height="24.23"/>
  </g>
  <g>
    <polygon class="cls-10" points="815.51 196.79 798.52 196.79 821.61 225.14 798.52 253.5 815.51 253.5 838.6 225.14 815.51 196.79"/>
    <rect class="cls-10" x="778.9" y="213.03" width="44.46" height="24.23"/>
  </g>
  <g>
    <polygon class="cls-10" points="1196.51 196.79 1179.52 196.79 1202.61 225.14 1179.52 253.5 1196.51 253.5 1219.6 225.14 1196.51 196.79"/>
    <rect class="cls-10" x="1159.9" y="213.03" width="44.46" height="24.23"/>
  </g>
  <g>
    <polygon class="cls-10" points="1567.51 196.79 1550.52 196.79 1573.61 225.14 1550.52 253.5 1567.51 253.5 1590.6 225.14 1567.51 196.79"/>
    <rect class="cls-10" x="1530.9" y="213.03" width="44.46" height="24.23"/>
  </g>
  <g>
    <path class="cls-6" d="M162.87,449.14h-2.92v-15.34h-5.25v-2.5h13.42v2.5h-5.25v15.34Z"/>
    <path class="cls-6" d="M182.42,449.14h-2.88v-8.3c0-1.04-.21-1.82-.63-2.33-.42-.51-1.08-.77-2-.77-1.2,0-2.09.36-2.66,1.08-.57.72-.85,1.93-.85,3.62v6.7h-2.87v-18.99h2.87v4.82c0,.77-.05,1.6-.15,2.48h.18c.39-.65.93-1.16,1.63-1.51.7-.36,1.51-.54,2.44-.54,3.27,0,4.91,1.65,4.91,4.94v8.8Z"/>
    <path class="cls-6" d="M192.31,449.39c-2.1,0-3.74-.61-4.93-1.84-1.18-1.22-1.78-2.91-1.78-5.06s.55-3.94,1.65-5.2c1.1-1.26,2.61-1.89,4.53-1.89,1.78,0,3.19.54,4.22,1.62,1.03,1.08,1.55,2.57,1.55,4.47v1.55h-9c.04,1.31.39,2.32,1.06,3.02.67.7,1.61,1.06,2.82,1.06.8,0,1.54-.08,2.23-.23s1.43-.4,2.22-.75v2.33c-.7.33-1.41.57-2.12.71-.72.14-1.53.21-2.45.21ZM191.79,437.57c-.91,0-1.64.29-2.19.87-.55.58-.88,1.42-.98,2.53h6.13c-.02-1.11-.29-1.96-.81-2.53-.52-.57-1.24-.86-2.15-.86Z"/>
    <path class="cls-6" d="M215.33,449.14l-5.18-14.9h-.1c.14,2.21.21,4.29.21,6.23v8.68h-2.65v-17.85h4.11l4.96,14.2h.07l5.1-14.2h4.13v17.85h-2.81v-8.83c0-.89.02-2.04.07-3.47.04-1.42.08-2.29.12-2.59h-.1l-5.36,14.88h-2.58Z"/>
    <path class="cls-6" d="M236.28,449.39c-2.1,0-3.74-.61-4.93-1.84-1.18-1.22-1.78-2.91-1.78-5.06s.55-3.94,1.65-5.2c1.1-1.26,2.61-1.89,4.53-1.89,1.78,0,3.19.54,4.22,1.62,1.03,1.08,1.55,2.57,1.55,4.47v1.55h-9c.04,1.31.39,2.32,1.06,3.02.67.7,1.61,1.06,2.82,1.06.8,0,1.54-.08,2.23-.23s1.43-.4,2.22-.75v2.33c-.7.33-1.41.57-2.12.71-.72.14-1.53.21-2.45.21ZM235.75,437.57c-.91,0-1.64.29-2.19.87-.55.58-.88,1.42-.98,2.53h6.13c-.02-1.11-.29-1.96-.81-2.53-.52-.57-1.24-.86-2.15-.86Z"/>
    <path class="cls-6" d="M251.64,435.4c.58,0,1.05.04,1.43.12l-.28,2.67c-.41-.1-.83-.15-1.27-.15-1.15,0-2.08.37-2.79,1.12-.71.75-1.07,1.72-1.07,2.92v7.06h-2.87v-13.5h2.25l.38,2.38h.15c.45-.81,1.03-1.44,1.75-1.92.72-.47,1.5-.71,2.33-.71Z"/>
    <path class="cls-6" d="M261.01,449.39c-2.04,0-3.59-.6-4.66-1.79-1.06-1.19-1.59-2.9-1.59-5.13s.56-4.02,1.67-5.24c1.11-1.22,2.72-1.83,4.82-1.83,1.42,0,2.71.26,3.85.79l-.87,2.31c-1.21-.47-2.21-.71-3-.71-2.34,0-3.5,1.55-3.5,4.65,0,1.51.29,2.65.87,3.41.58.76,1.43,1.14,2.56,1.14,1.28,0,2.49-.32,3.63-.95v2.5c-.51.3-1.06.52-1.64.65-.58.13-1.29.2-2.12.2Z"/>
    <path class="cls-6" d="M279.82,449.14h-2.88v-8.3c0-1.04-.21-1.82-.63-2.33-.42-.51-1.08-.77-2-.77-1.2,0-2.09.36-2.66,1.08-.57.72-.85,1.93-.85,3.62v6.7h-2.87v-18.99h2.87v4.82c0,.77-.05,1.6-.15,2.48h.18c.39-.65.93-1.16,1.63-1.51.7-.36,1.51-.54,2.44-.54,3.27,0,4.91,1.65,4.91,4.94v8.8Z"/>
    <path class="cls-6" d="M292.26,449.14l-.57-1.88h-.1c-.65.82-1.31,1.38-1.96,1.68s-1.51.45-2.54.45c-1.33,0-2.36-.36-3.11-1.07-.75-.72-1.12-1.73-1.12-3.04,0-1.39.52-2.44,1.55-3.15,1.03-.71,2.61-1.09,4.72-1.16l2.33-.07v-.72c0-.86-.2-1.51-.6-1.94-.4-.43-1.03-.64-1.87-.64-.69,0-1.36.1-1.99.31-.63.2-1.24.44-1.83.72l-.93-2.05c.73-.38,1.53-.67,2.4-.87.87-.2,1.69-.3,2.47-.3,1.72,0,3.01.37,3.89,1.12.88.75,1.31,1.92,1.31,3.53v9.09h-2.05ZM287.99,447.19c1.04,0,1.88-.29,2.51-.87.63-.58.95-1.4.95-2.45v-1.17l-1.73.07c-1.35.05-2.33.27-2.95.68-.62.4-.92,1.02-.92,1.85,0,.6.18,1.07.54,1.4.36.33.9.49,1.61.49Z"/>
    <path class="cls-6" d="M310.19,449.14h-2.88v-8.3c0-1.04-.21-1.82-.63-2.33-.42-.51-1.08-.77-2-.77-1.21,0-2.1.36-2.66,1.07-.56.72-.84,1.92-.84,3.6v6.73h-2.87v-13.5h2.25l.4,1.77h.15c.41-.64.99-1.14,1.73-1.49.75-.35,1.58-.52,2.49-.52,3.24,0,4.86,1.65,4.86,4.94v8.8Z"/>
    <path class="cls-6" d="M319.21,447.07c.7,0,1.4-.11,2.1-.33v2.16c-.32.14-.73.25-1.23.35-.5.09-1.02.14-1.56.14-2.72,0-4.08-1.43-4.08-4.3v-7.28h-1.84v-1.27l1.98-1.05.98-2.86h1.77v3h3.84v2.17h-3.84v7.23c0,.69.17,1.2.52,1.53.35.33.8.49,1.36.49Z"/>
    <path class="cls-6" d="M135.45,465.64v1.58l-2.31.43c.21.29.39.63.53,1.05s.21.85.21,1.32c0,1.39-.48,2.49-1.44,3.28-.96.8-2.28,1.2-3.97,1.2-.43,0-.82-.03-1.17-.1-.62.38-.93.83-.93,1.34,0,.31.14.54.43.7.29.15.82.23,1.59.23h2.36c1.49,0,2.62.32,3.39.95.77.63,1.16,1.55,1.16,2.75,0,1.53-.63,2.71-1.89,3.54-1.26.83-3.08,1.25-5.47,1.25-1.84,0-3.24-.33-4.21-.98s-1.45-1.58-1.45-2.78c0-.83.26-1.53.79-2.09.52-.57,1.26-.96,2.2-1.18-.38-.16-.7-.42-.95-.79s-.37-.74-.37-1.14c0-.5.14-.93.43-1.28.28-.35.71-.7,1.27-1.04-.7-.3-1.27-.79-1.7-1.47-.44-.68-.65-1.48-.65-2.39,0-1.46.46-2.6,1.39-3.41.92-.8,2.24-1.21,3.95-1.21.38,0,.78.03,1.2.08.42.05.73.11.95.17h4.67ZM124.84,481.24c0,.62.28,1.09.84,1.43.56.33,1.34.5,2.35.5,1.56,0,2.73-.22,3.49-.67.76-.45,1.15-1.04,1.15-1.78,0-.59-.21-1-.63-1.25s-1.2-.37-2.34-.37h-2.17c-.82,0-1.47.19-1.96.58-.48.39-.73.91-.73,1.57ZM126.08,470.01c0,.85.22,1.5.65,1.95.43.46,1.06.68,1.87.68,1.66,0,2.49-.89,2.49-2.66,0-.88-.21-1.56-.62-2.03-.41-.48-1.04-.71-1.87-.71s-1.46.24-1.89.71c-.43.47-.64,1.16-.64,2.06Z"/>
    <path class="cls-6" d="M143.85,479.39c-2.1,0-3.74-.61-4.93-1.84-1.18-1.22-1.78-2.91-1.78-5.06s.55-3.94,1.65-5.2c1.1-1.26,2.61-1.89,4.53-1.89,1.78,0,3.19.54,4.22,1.62,1.03,1.08,1.55,2.57,1.55,4.47v1.55h-9c.04,1.31.39,2.32,1.06,3.02.67.7,1.61,1.06,2.82,1.06.8,0,1.54-.08,2.23-.23s1.43-.4,2.22-.75v2.33c-.7.33-1.41.57-2.12.71-.72.14-1.53.21-2.45.21ZM143.32,467.57c-.91,0-1.64.29-2.19.87-.55.58-.88,1.42-.98,2.53h6.13c-.02-1.12-.29-1.96-.81-2.53-.52-.57-1.24-.86-2.15-.86Z"/>
    <path class="cls-6" d="M164.23,479.14h-2.88v-8.3c0-1.04-.21-1.82-.63-2.33-.42-.51-1.08-.77-2-.77-1.21,0-2.1.36-2.66,1.07s-.84,1.92-.84,3.6v6.73h-2.87v-13.5h2.25l.4,1.77h.15c.41-.64.99-1.14,1.73-1.49.75-.35,1.58-.52,2.49-.52,3.24,0,4.86,1.65,4.86,4.94v8.8Z"/>
    <path class="cls-6" d="M174.12,479.39c-2.1,0-3.74-.61-4.93-1.84-1.18-1.22-1.78-2.91-1.78-5.06s.55-3.94,1.65-5.2c1.1-1.26,2.61-1.89,4.53-1.89,1.78,0,3.19.54,4.22,1.62,1.03,1.08,1.55,2.57,1.55,4.47v1.55h-9c.04,1.31.39,2.32,1.06,3.02.67.7,1.61,1.06,2.82,1.06.8,0,1.54-.08,2.23-.23s1.43-.4,2.22-.75v2.33c-.7.33-1.41.57-2.12.71-.72.14-1.53.21-2.45.21ZM173.6,467.57c-.91,0-1.64.29-2.19.87-.55.58-.88,1.42-.98,2.53h6.13c-.02-1.12-.29-1.96-.81-2.53-.52-.57-1.24-.86-2.15-.86Z"/>
    <path class="cls-6" d="M189.48,465.4c.58,0,1.05.04,1.43.12l-.28,2.67c-.41-.1-.83-.15-1.27-.15-1.15,0-2.08.37-2.79,1.12-.71.75-1.07,1.72-1.07,2.92v7.06h-2.87v-13.5h2.25l.38,2.38h.15c.45-.8,1.03-1.44,1.75-1.92.72-.47,1.5-.71,2.33-.71Z"/>
    <path class="cls-6" d="M201.86,479.14l-.57-1.88h-.1c-.65.82-1.31,1.38-1.96,1.68s-1.51.45-2.54.45c-1.33,0-2.36-.36-3.11-1.07-.75-.72-1.12-1.73-1.12-3.04,0-1.39.52-2.44,1.55-3.15,1.03-.71,2.61-1.09,4.72-1.16l2.33-.07v-.72c0-.86-.2-1.51-.6-1.93-.4-.43-1.03-.64-1.87-.64-.69,0-1.36.1-1.99.31-.63.2-1.24.44-1.83.72l-.93-2.05c.73-.38,1.53-.67,2.4-.87.87-.2,1.69-.3,2.47-.3,1.72,0,3.01.37,3.89,1.12s1.31,1.92,1.31,3.53v9.09h-2.05ZM197.58,477.19c1.04,0,1.88-.29,2.51-.87.63-.58.95-1.4.95-2.45v-1.17l-1.73.07c-1.35.05-2.33.27-2.95.68-.62.4-.92,1.02-.92,1.85,0,.6.18,1.07.54,1.4.36.33.9.49,1.61.49Z"/>
    <path class="cls-6" d="M212.94,477.07c.7,0,1.4-.11,2.1-.33v2.16c-.32.14-.73.25-1.23.35-.5.09-1.02.14-1.56.14-2.72,0-4.08-1.43-4.08-4.3v-7.28h-1.84v-1.27l1.98-1.05.98-2.86h1.77v3h3.84v2.17h-3.84v7.23c0,.69.17,1.2.52,1.53.35.33.8.49,1.36.49Z"/>
    <path class="cls-6" d="M223.63,479.39c-2.1,0-3.74-.61-4.93-1.84-1.18-1.22-1.78-2.91-1.78-5.06s.55-3.94,1.65-5.2c1.1-1.26,2.61-1.89,4.53-1.89,1.78,0,3.19.54,4.22,1.62,1.03,1.08,1.55,2.57,1.55,4.47v1.55h-9c.04,1.31.39,2.32,1.06,3.02.67.7,1.61,1.06,2.82,1.06.8,0,1.54-.08,2.23-.23s1.43-.4,2.22-.75v2.33c-.7.33-1.41.57-2.12.71-.72.14-1.53.21-2.45.21ZM223.11,467.57c-.91,0-1.64.29-2.19.87-.55.58-.88,1.42-.98,2.53h6.13c-.02-1.12-.29-1.96-.81-2.53-.52-.57-1.24-.86-2.15-.86Z"/>
    <path class="cls-6" d="M241.21,475.3c0,1.32-.48,2.33-1.44,3.03-.96.7-2.33,1.06-4.12,1.06s-3.24-.27-4.33-.82v-2.48c1.59.73,3.06,1.1,4.43,1.1,1.77,0,2.65-.53,2.65-1.6,0-.34-.1-.63-.29-.85-.2-.23-.52-.46-.96-.71-.45-.24-1.07-.52-1.87-.83-1.55-.6-2.61-1.2-3.16-1.81-.55-.6-.82-1.38-.82-2.34,0-1.16.47-2.05,1.4-2.69.93-.64,2.2-.96,3.8-.96s3.09.32,4.5.96l-.93,2.16c-1.46-.6-2.68-.9-3.67-.9-1.51,0-2.27.43-2.27,1.29,0,.42.2.78.59,1.07s1.26.7,2.58,1.21c1.12.43,1.92.83,2.43,1.18.5.36.88.77,1.12,1.24s.37,1.03.37,1.68Z"/>
    <path class="cls-6" d="M259.25,479.14l-.57-1.88h-.1c-.65.82-1.31,1.38-1.96,1.68s-1.51.45-2.54.45c-1.33,0-2.36-.36-3.11-1.07-.75-.72-1.12-1.73-1.12-3.04,0-1.39.52-2.44,1.55-3.15,1.03-.71,2.61-1.09,4.72-1.16l2.33-.07v-.72c0-.86-.2-1.51-.6-1.93-.4-.43-1.03-.64-1.87-.64-.69,0-1.36.1-1.99.31-.63.2-1.24.44-1.83.72l-.93-2.05c.73-.38,1.53-.67,2.4-.87.87-.2,1.69-.3,2.47-.3,1.72,0,3.01.37,3.89,1.12s1.31,1.92,1.31,3.53v9.09h-2.05ZM254.98,477.19c1.04,0,1.88-.29,2.51-.87.63-.58.95-1.4.95-2.45v-1.17l-1.73.07c-1.35.05-2.33.27-2.95.68-.62.4-.92,1.02-.92,1.85,0,.6.18,1.07.54,1.4.36.33.9.49,1.61.49Z"/>
    <path class="cls-6" d="M281.32,479.14l-.4-1.77h-.15c-.4.63-.97,1.12-1.7,1.48-.74.36-1.58.54-2.52.54-1.63,0-2.86-.41-3.66-1.22-.8-.81-1.21-2.05-1.21-3.7v-8.83h2.89v8.33c0,1.03.21,1.81.63,2.33.42.52,1.09.78,1.99.78,1.2,0,2.09-.36,2.66-1.08.57-.72.85-1.93.85-3.62v-6.73h2.88v13.5h-2.26Z"/>
    <path class="cls-6" d="M299.55,479.14h-2.88v-8.3c0-1.04-.21-1.82-.63-2.33-.42-.51-1.08-.77-2-.77-1.21,0-2.1.36-2.66,1.07s-.84,1.92-.84,3.6v6.73h-2.87v-13.5h2.25l.4,1.77h.15c.41-.64.99-1.14,1.73-1.49.75-.35,1.58-.52,2.49-.52,3.24,0,4.86,1.65,4.86,4.94v8.8Z"/>
    <path class="cls-6" d="M303.37,462.06c0-.51.14-.91.42-1.18.28-.28.68-.42,1.2-.42s.9.14,1.18.42c.28.28.42.67.42,1.18s-.14.87-.42,1.15c-.28.28-.67.42-1.18.42s-.92-.14-1.2-.42c-.28-.28-.42-.67-.42-1.15ZM306.41,479.14h-2.87v-13.5h2.87v13.5Z"/>
    <path class="cls-6" d="M315.04,479.39c-1.67,0-2.97-.61-3.92-1.84s-1.42-2.94-1.42-5.13.48-3.92,1.44-5.16c.96-1.24,2.28-1.86,3.97-1.86.85,0,1.61.16,2.28.47.67.31,1.27.83,1.8,1.54h.1l.32-1.77h2.38v19.51h-2.88v-5.72c0-.36.02-.74.05-1.14s.06-.7.09-.92h-.16c-.85,1.34-2.19,2.01-4.04,2.01ZM315.86,477.09c1.2,0,2.07-.35,2.59-1.04.53-.7.79-1.75.79-3.16v-.45c0-1.67-.27-2.87-.81-3.6s-1.41-1.1-2.62-1.1c-1.03,0-1.81.41-2.34,1.22s-.81,1.98-.81,3.5c0,3.08,1.07,4.63,3.2,4.63Z"/>
    <path class="cls-6" d="M335.61,479.14l-.4-1.77h-.15c-.4.63-.97,1.12-1.7,1.48-.74.36-1.58.54-2.52.54-1.63,0-2.86-.41-3.66-1.22-.8-.81-1.21-2.05-1.21-3.7v-8.83h2.89v8.33c0,1.03.21,1.81.63,2.33.42.52,1.09.78,1.99.78,1.2,0,2.09-.36,2.66-1.08.57-.72.85-1.93.85-3.62v-6.73h2.88v13.5h-2.26Z"/>
    <path class="cls-6" d="M347.85,479.39c-2.1,0-3.74-.61-4.93-1.84-1.18-1.22-1.78-2.91-1.78-5.06s.55-3.94,1.65-5.2c1.1-1.26,2.61-1.89,4.53-1.89,1.78,0,3.19.54,4.22,1.62,1.03,1.08,1.55,2.57,1.55,4.47v1.55h-9c.04,1.31.39,2.32,1.06,3.02.67.7,1.61,1.06,2.82,1.06.8,0,1.54-.08,2.23-.23s1.43-.4,2.22-.75v2.33c-.7.33-1.41.57-2.12.71-.72.14-1.53.21-2.45.21ZM347.33,467.57c-.91,0-1.64.29-2.19.87-.55.58-.88,1.42-.98,2.53h6.13c-.02-1.12-.29-1.96-.81-2.53-.52-.57-1.24-.86-2.15-.86Z"/>
    <path class="cls-6" d="M168.01,509.39c-1.71,0-3.04-.61-3.98-1.84h-.17c.11,1.14.17,1.83.17,2.08v5.53h-2.87v-19.51h2.32c.07.25.2.85.4,1.81h.15c.89-1.37,2.24-2.05,4.03-2.05,1.69,0,3,.61,3.94,1.83.94,1.22,1.41,2.93,1.41,5.14s-.48,3.93-1.43,5.16c-.96,1.24-2.28,1.86-3.96,1.86ZM167.32,497.74c-1.14,0-1.97.33-2.5,1-.53.67-.79,1.73-.79,3.2v.43c0,1.64.26,2.83.78,3.57.52.74,1.37,1.1,2.55,1.1.99,0,1.76-.41,2.29-1.22s.81-1.97.81-3.48-.27-2.66-.8-3.44-1.32-1.17-2.35-1.17Z"/>
    <path class="cls-6" d="M185.19,509.14l-.57-1.88h-.1c-.65.82-1.31,1.38-1.96,1.68s-1.51.45-2.54.45c-1.33,0-2.36-.36-3.11-1.07-.75-.72-1.12-1.73-1.12-3.04,0-1.39.52-2.44,1.55-3.15,1.03-.71,2.61-1.09,4.72-1.16l2.33-.07v-.72c0-.86-.2-1.51-.6-1.93-.4-.43-1.03-.64-1.87-.64-.69,0-1.36.1-1.99.31-.63.2-1.24.44-1.83.72l-.93-2.05c.73-.38,1.53-.67,2.4-.87.87-.2,1.69-.3,2.47-.3,1.72,0,3.01.37,3.89,1.12s1.31,1.92,1.31,3.53v9.09h-2.05ZM180.92,507.19c1.04,0,1.88-.29,2.51-.87.63-.58.95-1.4.95-2.45v-1.17l-1.73.07c-1.35.05-2.33.27-2.95.68-.62.4-.92,1.02-.92,1.85,0,.6.18,1.07.54,1.4.36.33.9.49,1.61.49Z"/>
    <path class="cls-6" d="M189.19,495.64h3.12l2.75,7.65c.42,1.09.69,2.12.83,3.08h.1c.07-.45.21-.99.4-1.63s1.23-3.67,3.1-9.1h3.1l-5.77,15.3c-1.05,2.81-2.8,4.21-5.25,4.21-.63,0-1.25-.07-1.86-.21v-2.27c.43.1.92.15,1.48.15,1.38,0,2.36-.8,2.92-2.4l.5-1.27-5.42-13.5Z"/>
    <path class="cls-6" d="M216.02,509.14h-2.88v-8.33c0-1.03-.2-1.8-.59-2.31-.39-.51-1-.76-1.83-.76-1.11,0-1.92.36-2.44,1.08-.52.72-.77,1.92-.77,3.59v6.73h-2.87v-13.5h2.25l.4,1.77h.15c.38-.64.92-1.14,1.63-1.49.71-.35,1.5-.52,2.35-.52,2.07,0,3.45.71,4.12,2.12h.2c.4-.67.96-1.19,1.69-1.56.72-.37,1.55-.56,2.49-.56,1.61,0,2.78.41,3.52,1.22.74.81,1.1,2.05,1.1,3.72v8.8h-2.87v-8.33c0-1.03-.2-1.8-.59-2.31-.39-.51-1.01-.76-1.84-.76-1.12,0-1.93.35-2.45,1.04-.52.7-.78,1.76-.78,3.2v7.15Z"/>
    <path class="cls-6" d="M234.44,509.39c-2.1,0-3.74-.61-4.93-1.84-1.18-1.22-1.78-2.91-1.78-5.06s.55-3.94,1.65-5.2c1.1-1.26,2.61-1.89,4.53-1.89,1.78,0,3.19.54,4.22,1.62,1.03,1.08,1.55,2.57,1.55,4.47v1.55h-9c.04,1.31.39,2.32,1.06,3.02.67.7,1.61,1.06,2.82,1.06.8,0,1.54-.08,2.23-.23s1.43-.4,2.22-.75v2.33c-.7.33-1.41.57-2.12.71-.72.14-1.53.21-2.45.21ZM233.92,497.57c-.91,0-1.64.29-2.19.87-.55.58-.88,1.42-.98,2.53h6.13c-.02-1.12-.29-1.96-.81-2.53-.52-.57-1.24-.86-2.15-.86Z"/>
    <path class="cls-6" d="M254.83,509.14h-2.88v-8.3c0-1.04-.21-1.82-.63-2.33-.42-.51-1.08-.77-2-.77-1.21,0-2.1.36-2.66,1.07s-.84,1.92-.84,3.6v6.73h-2.87v-13.5h2.25l.4,1.77h.15c.41-.64.99-1.14,1.73-1.49.75-.35,1.58-.52,2.49-.52,3.24,0,4.86,1.65,4.86,4.94v8.8Z"/>
    <path class="cls-6" d="M263.85,507.07c.7,0,1.4-.11,2.1-.33v2.16c-.32.14-.73.25-1.23.35-.5.09-1.02.14-1.56.14-2.72,0-4.08-1.43-4.08-4.3v-7.28h-1.84v-1.27l1.98-1.05.98-2.86h1.77v3h3.84v2.17h-3.84v7.23c0,.69.17,1.2.52,1.53.35.33.8.49,1.36.49Z"/>
    <path class="cls-6" d="M278.01,509.14h-2.87v-18.99h2.87v18.99Z"/>
    <path class="cls-6" d="M281.94,492.06c0-.51.14-.91.42-1.18.28-.28.68-.42,1.2-.42s.9.14,1.18.42c.28.28.42.67.42,1.18s-.14.87-.42,1.15c-.28.28-.67.42-1.18.42s-.92-.14-1.2-.42c-.28-.28-.42-.67-.42-1.15ZM284.98,509.14h-2.87v-13.5h2.87v13.5Z"/>
    <path class="cls-6" d="M300.96,509.14h-2.88v-8.3c0-1.04-.21-1.82-.63-2.33-.42-.51-1.08-.77-2-.77-1.21,0-2.1.36-2.66,1.07s-.84,1.92-.84,3.6v6.73h-2.87v-13.5h2.25l.4,1.77h.15c.41-.64.99-1.14,1.73-1.49.75-.35,1.58-.52,2.49-.52,3.24,0,4.86,1.65,4.86,4.94v8.8Z"/>
    <path class="cls-6" d="M307.72,502.01l1.62-2.03,4.08-4.35h3.31l-5.43,5.8,5.77,7.7h-3.37l-4.33-5.92-1.58,1.29v4.63h-2.84v-18.99h2.84v9.27l-.15,2.6h.07Z"/>
  </g>
  <rect class="cls-2" x="470" y="400" width="298" height="177" rx="14.06" ry="14.06"/>
  <text class="cls-5" transform="translate(515.43 449.64)"><tspan x="0" y="0">The link is shared </tspan><tspan x="-5.16" y="30">with the customer </tspan><tspan x="-4.88" y="60">via QR, SMS, Email </tspan><tspan x="7.44" y="90">or Social Medias</tspan></text>
  <rect class="cls-2" x="856" y="400" width="298" height="273" rx="14.06" ry="14.06"/>
  <g>
    <path class="cls-6" d="M930.68,449.64h-2.92v-15.34h-5.25v-2.5h13.42v2.5h-5.25v15.34Z"/>
    <path class="cls-6" d="M950.24,449.64h-2.88v-8.3c0-1.04-.21-1.82-.63-2.33-.42-.51-1.08-.77-2-.77-1.2,0-2.09.36-2.66,1.08-.57.72-.85,1.93-.85,3.62v6.7h-2.87v-18.99h2.87v4.82c0,.77-.05,1.6-.15,2.48h.18c.39-.65.93-1.16,1.63-1.51.7-.36,1.51-.54,2.44-.54,3.27,0,4.91,1.65,4.91,4.94v8.8Z"/>
    <path class="cls-6" d="M960.13,449.89c-2.1,0-3.74-.61-4.93-1.84-1.18-1.22-1.78-2.91-1.78-5.06s.55-3.94,1.65-5.2c1.1-1.26,2.61-1.89,4.53-1.89,1.78,0,3.19.54,4.22,1.62,1.03,1.08,1.55,2.57,1.55,4.47v1.55h-9c.04,1.31.39,2.32,1.06,3.02.67.7,1.61,1.06,2.82,1.06.8,0,1.54-.08,2.23-.23s1.43-.4,2.22-.75v2.33c-.7.33-1.41.57-2.12.71-.72.14-1.53.21-2.45.21ZM959.6,438.07c-.91,0-1.64.29-2.19.87-.55.58-.88,1.42-.98,2.53h6.13c-.02-1.11-.29-1.96-.81-2.53-.52-.57-1.24-.86-2.15-.86Z"/>
    <path class="cls-6" d="M983.03,434.04c-1.68,0-3,.59-3.96,1.78-.96,1.19-1.44,2.83-1.44,4.92s.46,3.85,1.39,4.97,2.26,1.68,4.01,1.68c.76,0,1.49-.08,2.2-.23.71-.15,1.44-.34,2.21-.58v2.5c-1.4.53-2.99.79-4.76.79-2.61,0-4.62-.79-6.02-2.37-1.4-1.58-2.1-3.85-2.1-6.79,0-1.86.34-3.48,1.02-4.87s1.66-2.46,2.95-3.2c1.29-.74,2.8-1.11,4.53-1.11,1.82,0,3.51.38,5.05,1.15l-1.05,2.43c-.6-.28-1.24-.54-1.91-.75-.67-.22-1.38-.32-2.12-.32Z"/>
    <path class="cls-6" d="M1000.5,449.64l-.4-1.77h-.15c-.4.63-.97,1.12-1.7,1.48-.74.36-1.58.54-2.52.54-1.63,0-2.86-.41-3.66-1.22-.8-.81-1.21-2.05-1.21-3.7v-8.83h2.89v8.33c0,1.03.21,1.81.63,2.33.42.52,1.09.78,1.99.78,1.2,0,2.09-.36,2.66-1.08.57-.72.85-1.93.85-3.62v-6.73h2.88v13.5h-2.26Z"/>
    <path class="cls-6" d="M1015.91,445.8c0,1.32-.48,2.33-1.44,3.03-.96.7-2.33,1.06-4.12,1.06s-3.24-.27-4.33-.82v-2.48c1.59.73,3.06,1.1,4.43,1.1,1.77,0,2.65-.53,2.65-1.6,0-.34-.1-.63-.29-.85-.2-.23-.52-.46-.96-.71-.45-.24-1.07-.52-1.87-.83-1.55-.6-2.61-1.2-3.16-1.81-.55-.6-.82-1.38-.82-2.34,0-1.16.47-2.05,1.4-2.69.93-.64,2.2-.96,3.8-.96s3.09.32,4.5.96l-.93,2.16c-1.46-.6-2.68-.9-3.67-.9-1.51,0-2.27.43-2.27,1.29,0,.42.2.78.59,1.07s1.26.7,2.58,1.21c1.12.43,1.92.83,2.43,1.18.5.36.88.77,1.12,1.24s.37,1.03.37,1.68Z"/>
    <path class="cls-6" d="M1024.04,447.57c.7,0,1.4-.11,2.1-.33v2.16c-.32.14-.73.25-1.23.35-.5.09-1.02.14-1.56.14-2.72,0-4.08-1.43-4.08-4.3v-7.28h-1.84v-1.27l1.98-1.05.98-2.86h1.77v3h3.84v2.17h-3.84v7.23c0,.69.17,1.2.52,1.53.35.33.8.49,1.36.49Z"/>
    <path class="cls-6" d="M1040.81,442.87c0,2.21-.57,3.93-1.7,5.16s-2.71,1.86-4.72,1.86c-1.26,0-2.38-.29-3.35-.85-.97-.57-1.71-1.39-2.23-2.45-.52-1.07-.78-2.3-.78-3.71,0-2.19.56-3.9,1.68-5.13,1.12-1.23,2.71-1.84,4.75-1.84s3.5.63,4.64,1.89c1.14,1.26,1.71,2.95,1.71,5.08ZM1030.99,442.87c0,3.12,1.15,4.68,3.46,4.68s3.42-1.56,3.42-4.68-1.15-4.63-3.44-4.63c-1.2,0-2.08.4-2.62,1.2-.54.8-.81,1.94-.81,3.43Z"/>
    <path class="cls-6" d="M1055.49,449.64h-2.88v-8.33c0-1.03-.2-1.8-.59-2.31-.39-.51-1-.76-1.83-.76-1.11,0-1.92.36-2.44,1.08-.52.72-.77,1.92-.77,3.59v6.73h-2.87v-13.5h2.25l.4,1.77h.15c.38-.64.92-1.14,1.63-1.49.71-.35,1.5-.52,2.35-.52,2.07,0,3.45.71,4.12,2.12h.2c.4-.67.96-1.19,1.69-1.56.72-.37,1.55-.56,2.49-.56,1.61,0,2.78.41,3.52,1.22.74.81,1.1,2.06,1.1,3.72v8.8h-2.87v-8.33c0-1.03-.2-1.8-.59-2.31-.39-.51-1.01-.76-1.84-.76-1.12,0-1.93.35-2.45,1.04-.52.7-.78,1.76-.78,3.2v7.15Z"/>
    <path class="cls-6" d="M1073.91,449.89c-2.1,0-3.74-.61-4.93-1.84-1.18-1.22-1.78-2.91-1.78-5.06s.55-3.94,1.65-5.2c1.1-1.26,2.61-1.89,4.53-1.89,1.78,0,3.19.54,4.22,1.62,1.03,1.08,1.55,2.57,1.55,4.47v1.55h-9c.04,1.31.39,2.32,1.06,3.02.67.7,1.61,1.06,2.82,1.06.8,0,1.54-.08,2.23-.23s1.43-.4,2.22-.75v2.33c-.7.33-1.41.57-2.12.71-.72.14-1.53.21-2.45.21ZM1073.38,438.07c-.91,0-1.64.29-2.19.87-.55.58-.88,1.42-.98,2.53h6.13c-.02-1.11-.29-1.96-.81-2.53-.52-.57-1.24-.86-2.15-.86Z"/>
    <path class="cls-6" d="M1089.26,435.9c.58,0,1.05.04,1.43.12l-.28,2.67c-.41-.1-.83-.15-1.27-.15-1.15,0-2.08.37-2.79,1.12-.71.75-1.07,1.72-1.07,2.92v7.06h-2.87v-13.5h2.25l.38,2.38h.15c.45-.81,1.03-1.44,1.75-1.92.72-.47,1.5-.71,2.33-.71Z"/>
    <path class="cls-6" d="M928.58,479.89c-2.04,0-3.59-.6-4.66-1.79-1.06-1.19-1.59-2.9-1.59-5.13s.56-4.02,1.67-5.24c1.11-1.22,2.72-1.83,4.82-1.83,1.42,0,2.71.26,3.85.79l-.87,2.31c-1.21-.47-2.21-.71-3-.71-2.34,0-3.5,1.55-3.5,4.65,0,1.51.29,2.65.87,3.41.58.76,1.43,1.14,2.56,1.14,1.28,0,2.49-.32,3.63-.95v2.5c-.51.3-1.06.52-1.64.65-.58.13-1.29.2-2.12.2Z"/>
    <path class="cls-6" d="M947.39,479.64h-2.88v-8.3c0-1.04-.21-1.82-.63-2.33-.42-.51-1.08-.77-2-.77-1.2,0-2.09.36-2.66,1.08-.57.72-.85,1.93-.85,3.62v6.7h-2.87v-18.99h2.87v4.82c0,.77-.05,1.6-.15,2.48h.18c.39-.65.93-1.16,1.63-1.51.7-.36,1.51-.54,2.44-.54,3.27,0,4.91,1.65,4.91,4.94v8.8Z"/>
    <path class="cls-6" d="M963.36,472.87c0,2.21-.57,3.93-1.7,5.16s-2.71,1.86-4.72,1.86c-1.26,0-2.38-.29-3.35-.85-.97-.57-1.71-1.39-2.23-2.45-.52-1.07-.78-2.3-.78-3.71,0-2.19.56-3.9,1.68-5.13,1.12-1.23,2.71-1.84,4.75-1.84s3.5.63,4.64,1.89c1.14,1.26,1.71,2.95,1.71,5.08ZM953.54,472.87c0,3.12,1.15,4.68,3.46,4.68s3.42-1.56,3.42-4.68-1.15-4.63-3.44-4.63c-1.2,0-2.08.4-2.62,1.2s-.81,1.94-.81,3.43Z"/>
    <path class="cls-6" d="M978.63,472.87c0,2.21-.57,3.93-1.7,5.16s-2.71,1.86-4.72,1.86c-1.26,0-2.38-.29-3.35-.85-.97-.57-1.71-1.39-2.23-2.45-.52-1.07-.78-2.3-.78-3.71,0-2.19.56-3.9,1.68-5.13,1.12-1.23,2.71-1.84,4.75-1.84s3.5.63,4.64,1.89c1.14,1.26,1.71,2.95,1.71,5.08ZM968.81,472.87c0,3.12,1.15,4.68,3.46,4.68s3.42-1.56,3.42-4.68-1.15-4.63-3.44-4.63c-1.2,0-2.08.4-2.62,1.2s-.81,1.94-.81,3.43Z"/>
    <path class="cls-6" d="M991,475.8c0,1.32-.48,2.33-1.44,3.03-.96.7-2.33,1.06-4.12,1.06s-3.24-.27-4.33-.82v-2.48c1.59.73,3.06,1.1,4.43,1.1,1.77,0,2.65-.53,2.65-1.6,0-.34-.1-.63-.29-.85-.2-.23-.52-.46-.96-.71-.45-.24-1.07-.52-1.87-.83-1.55-.6-2.61-1.2-3.16-1.81-.55-.6-.82-1.38-.82-2.34,0-1.16.47-2.05,1.4-2.69.93-.64,2.2-.96,3.8-.96s3.09.32,4.5.96l-.93,2.16c-1.46-.6-2.68-.9-3.67-.9-1.51,0-2.27.43-2.27,1.29,0,.42.2.78.59,1.07s1.26.7,2.58,1.21c1.12.43,1.92.83,2.43,1.18.5.36.88.77,1.12,1.24s.37,1.03.37,1.68Z"/>
    <path class="cls-6" d="M1000,479.89c-2.1,0-3.74-.61-4.93-1.84-1.18-1.22-1.78-2.91-1.78-5.06s.55-3.94,1.65-5.2c1.1-1.26,2.61-1.89,4.53-1.89,1.78,0,3.19.54,4.22,1.62,1.03,1.08,1.55,2.57,1.55,4.47v1.55h-9c.04,1.31.39,2.32,1.06,3.02.67.7,1.61,1.06,2.82,1.06.8,0,1.54-.08,2.23-.23s1.43-.4,2.22-.75v2.33c-.7.33-1.41.57-2.12.71-.72.14-1.53.21-2.45.21ZM999.47,468.07c-.91,0-1.64.29-2.19.87-.55.58-.88,1.42-.98,2.53h6.13c-.02-1.12-.29-1.96-.81-2.53-.52-.57-1.24-.86-2.15-.86Z"/>
    <path class="cls-6" d="M1017.57,475.8c0,1.32-.48,2.33-1.44,3.03-.96.7-2.33,1.06-4.12,1.06s-3.24-.27-4.33-.82v-2.48c1.59.73,3.06,1.1,4.43,1.1,1.77,0,2.65-.53,2.65-1.6,0-.34-.1-.63-.29-.85-.2-.23-.52-.46-.96-.71-.45-.24-1.07-.52-1.87-.83-1.55-.6-2.61-1.2-3.16-1.81-.55-.6-.82-1.38-.82-2.34,0-1.16.47-2.05,1.4-2.69.93-.64,2.2-.96,3.8-.96s3.09.32,4.5.96l-.93,2.16c-1.46-.6-2.68-.9-3.67-.9-1.51,0-2.27.43-2.27,1.29,0,.42.2.78.59,1.07s1.26.7,2.58,1.21c1.12.43,1.92.83,2.43,1.18.5.36.88.77,1.12,1.24s.37,1.03.37,1.68Z"/>
    <path class="cls-6" d="M1038.54,479.64h-2.88v-8.33c0-1.03-.2-1.8-.59-2.31-.39-.51-1-.76-1.83-.76-1.11,0-1.92.36-2.44,1.08-.52.72-.77,1.92-.77,3.59v6.73h-2.87v-13.5h2.25l.4,1.77h.15c.38-.64.92-1.14,1.63-1.49.71-.35,1.5-.52,2.35-.52,2.07,0,3.45.71,4.12,2.12h.2c.4-.67.96-1.19,1.69-1.56.72-.37,1.55-.56,2.49-.56,1.61,0,2.78.41,3.52,1.22.74.81,1.1,2.05,1.1,3.72v8.8h-2.87v-8.33c0-1.03-.2-1.8-.59-2.31-.39-.51-1.01-.76-1.84-.76-1.12,0-1.93.35-2.45,1.04-.52.7-.78,1.76-.78,3.2v7.15Z"/>
    <path class="cls-6" d="M1059.52,479.64l-.57-1.88h-.1c-.65.82-1.31,1.38-1.96,1.68s-1.51.45-2.54.45c-1.33,0-2.36-.36-3.11-1.07-.75-.72-1.12-1.73-1.12-3.04,0-1.39.52-2.44,1.55-3.15,1.03-.71,2.61-1.09,4.72-1.16l2.33-.07v-.72c0-.86-.2-1.51-.6-1.93-.4-.43-1.03-.64-1.87-.64-.69,0-1.36.1-1.99.31-.63.2-1.24.44-1.83.72l-.93-2.05c.73-.38,1.53-.67,2.4-.87.87-.2,1.69-.3,2.47-.3,1.72,0,3.01.37,3.89,1.12s1.31,1.92,1.31,3.53v9.09h-2.05ZM1055.24,477.69c1.04,0,1.88-.29,2.51-.87.63-.58.95-1.4.95-2.45v-1.17l-1.73.07c-1.35.05-2.33.27-2.95.68-.62.4-.92,1.02-.92,1.85,0,.6.18,1.07.54,1.4.36.33.9.49,1.61.49Z"/>
    <path class="cls-6" d="M1068.34,472.51l1.62-2.03,4.08-4.35h3.31l-5.43,5.8,5.77,7.7h-3.37l-4.33-5.92-1.58,1.29v4.63h-2.84v-18.99h2.84v9.27l-.15,2.6h.07Z"/>
    <path class="cls-6" d="M1085.76,479.89c-2.1,0-3.74-.61-4.93-1.84-1.18-1.22-1.78-2.91-1.78-5.06s.55-3.94,1.65-5.2c1.1-1.26,2.61-1.89,4.53-1.89,1.78,0,3.19.54,4.22,1.62,1.03,1.08,1.55,2.57,1.55,4.47v1.55h-9c.04,1.31.39,2.32,1.06,3.02.67.7,1.61,1.06,2.82,1.06.8,0,1.54-.08,2.23-.23s1.43-.4,2.22-.75v2.33c-.7.33-1.41.57-2.12.71-.72.14-1.53.21-2.45.21ZM1085.24,468.07c-.91,0-1.64.29-2.19.87-.55.58-.88,1.42-.98,2.53h6.13c-.02-1.12-.29-1.96-.81-2.53-.52-.57-1.24-.86-2.15-.86Z"/>
    <path class="cls-6" d="M909.87,509.89c-1.71,0-3.04-.61-3.98-1.84h-.17c.11,1.14.17,1.83.17,2.08v5.53h-2.87v-19.51h2.32c.07.25.2.85.4,1.81h.15c.89-1.37,2.24-2.05,4.03-2.05,1.69,0,3,.61,3.94,1.83.94,1.22,1.41,2.93,1.41,5.14s-.48,3.93-1.43,5.16c-.96,1.24-2.28,1.86-3.96,1.86ZM909.17,498.24c-1.14,0-1.97.33-2.5,1-.53.67-.79,1.73-.79,3.2v.43c0,1.64.26,2.83.78,3.57.52.74,1.37,1.1,2.55,1.1.99,0,1.76-.41,2.29-1.22s.81-1.97.81-3.48-.27-2.66-.8-3.44-1.32-1.17-2.35-1.17Z"/>
    <path class="cls-6" d="M927.05,509.64l-.57-1.88h-.1c-.65.82-1.31,1.38-1.96,1.68s-1.51.45-2.54.45c-1.33,0-2.36-.36-3.11-1.07-.75-.72-1.12-1.73-1.12-3.04,0-1.39.52-2.44,1.55-3.15,1.03-.71,2.61-1.09,4.72-1.16l2.33-.07v-.72c0-.86-.2-1.51-.6-1.93-.4-.43-1.03-.64-1.87-.64-.69,0-1.36.1-1.99.31-.63.2-1.24.44-1.83.72l-.93-2.05c.73-.38,1.53-.67,2.4-.87.87-.2,1.69-.3,2.47-.3,1.72,0,3.01.37,3.89,1.12s1.31,1.92,1.31,3.53v9.09h-2.05ZM922.77,507.69c1.04,0,1.88-.29,2.51-.87.63-.58.95-1.4.95-2.45v-1.17l-1.73.07c-1.35.05-2.33.27-2.95.68-.62.4-.92,1.02-.92,1.85,0,.6.18,1.07.54,1.4.36.33.9.49,1.61.49Z"/>
    <path class="cls-6" d="M931.05,496.14h3.12l2.75,7.65c.42,1.09.69,2.12.83,3.08h.1c.07-.45.21-.99.4-1.63s1.23-3.67,3.1-9.1h3.1l-5.77,15.3c-1.05,2.81-2.8,4.21-5.25,4.21-.63,0-1.25-.07-1.86-.21v-2.27c.43.1.92.15,1.48.15,1.38,0,2.36-.8,2.92-2.4l.5-1.27-5.42-13.5Z"/>
    <path class="cls-6" d="M957.88,509.64h-2.88v-8.33c0-1.03-.2-1.8-.59-2.31-.39-.51-1-.76-1.83-.76-1.11,0-1.92.36-2.44,1.08-.52.72-.77,1.92-.77,3.59v6.73h-2.87v-13.5h2.25l.4,1.77h.15c.38-.64.92-1.14,1.63-1.49.71-.35,1.5-.52,2.35-.52,2.07,0,3.45.71,4.12,2.12h.2c.4-.67.96-1.19,1.69-1.56.72-.37,1.55-.56,2.49-.56,1.61,0,2.78.41,3.52,1.22.74.81,1.1,2.05,1.1,3.72v8.8h-2.87v-8.33c0-1.03-.2-1.8-.59-2.31-.39-.51-1.01-.76-1.84-.76-1.12,0-1.93.35-2.45,1.04-.52.7-.78,1.76-.78,3.2v7.15Z"/>
    <path class="cls-6" d="M976.3,509.89c-2.1,0-3.74-.61-4.93-1.84-1.18-1.22-1.78-2.91-1.78-5.06s.55-3.94,1.65-5.2c1.1-1.26,2.61-1.89,4.53-1.89,1.78,0,3.19.54,4.22,1.62,1.03,1.08,1.55,2.57,1.55,4.47v1.55h-9c.04,1.31.39,2.32,1.06,3.02.67.7,1.61,1.06,2.82,1.06.8,0,1.54-.08,2.23-.23s1.43-.4,2.22-.75v2.33c-.7.33-1.41.57-2.12.71-.72.14-1.53.21-2.45.21ZM975.78,498.07c-.91,0-1.64.29-2.19.87-.55.58-.88,1.42-.98,2.53h6.13c-.02-1.12-.29-1.96-.81-2.53-.52-.57-1.24-.86-2.15-.86Z"/>
    <path class="cls-6" d="M996.69,509.64h-2.88v-8.3c0-1.04-.21-1.82-.63-2.33-.42-.51-1.08-.77-2-.77-1.21,0-2.1.36-2.66,1.07s-.84,1.92-.84,3.6v6.73h-2.87v-13.5h2.25l.4,1.77h.15c.41-.64.99-1.14,1.73-1.49.75-.35,1.58-.52,2.49-.52,3.24,0,4.86,1.65,4.86,4.94v8.8Z"/>
    <path class="cls-6" d="M1005.71,507.57c.7,0,1.4-.11,2.1-.33v2.16c-.32.14-.73.25-1.23.35-.5.09-1.02.14-1.56.14-2.72,0-4.08-1.43-4.08-4.3v-7.28h-1.84v-1.27l1.98-1.05.98-2.86h1.77v3h3.84v2.17h-3.84v7.23c0,.69.17,1.2.52,1.53.35.33.8.49,1.36.49Z"/>
    <path class="cls-6" d="M1022.03,507.57c.7,0,1.4-.11,2.1-.33v2.16c-.32.14-.73.25-1.23.35-.5.09-1.02.14-1.56.14-2.72,0-4.08-1.43-4.08-4.3v-7.28h-1.84v-1.27l1.98-1.05.98-2.86h1.77v3h3.84v2.17h-3.84v7.23c0,.69.17,1.2.52,1.53.35.33.8.49,1.36.49Z"/>
    <path class="cls-6" d="M1038.7,509.64h-2.88v-8.3c0-1.04-.21-1.82-.63-2.33-.42-.51-1.08-.77-2-.77-1.2,0-2.09.36-2.66,1.08-.57.72-.85,1.93-.85,3.62v6.7h-2.87v-18.99h2.87v4.82c0,.77-.05,1.6-.15,2.48h.18c.39-.65.93-1.16,1.63-1.51.7-.36,1.51-.54,2.44-.54,3.27,0,4.91,1.65,4.91,4.94v8.8Z"/>
    <path class="cls-6" d="M1049.54,495.9c.58,0,1.05.04,1.43.12l-.28,2.67c-.41-.1-.83-.15-1.27-.15-1.15,0-2.08.37-2.79,1.12-.71.75-1.07,1.72-1.07,2.92v7.06h-2.87v-13.5h2.25l.38,2.38h.15c.45-.8,1.03-1.44,1.75-1.92.72-.47,1.5-.71,2.33-.71Z"/>
    <path class="cls-6" d="M1065.45,502.87c0,2.21-.57,3.93-1.7,5.16s-2.71,1.86-4.72,1.86c-1.26,0-2.38-.29-3.35-.85-.97-.57-1.71-1.39-2.23-2.45-.52-1.07-.78-2.3-.78-3.71,0-2.19.56-3.9,1.68-5.13,1.12-1.23,2.71-1.84,4.75-1.84s3.5.63,4.64,1.89c1.14,1.26,1.71,2.95,1.71,5.08ZM1055.62,502.87c0,3.12,1.15,4.68,3.46,4.68s3.42-1.56,3.42-4.68-1.15-4.63-3.44-4.63c-1.2,0-2.08.4-2.62,1.2s-.81,1.94-.81,3.43Z"/>
    <path class="cls-6" d="M1078.27,509.64l-.4-1.77h-.15c-.4.63-.97,1.12-1.7,1.48-.74.36-1.58.54-2.52.54-1.63,0-2.86-.41-3.66-1.22-.8-.81-1.21-2.05-1.21-3.7v-8.83h2.89v8.33c0,1.03.21,1.81.63,2.33.42.52,1.09.78,1.99.78,1.2,0,2.09-.36,2.66-1.08.57-.72.85-1.93.85-3.62v-6.73h2.88v13.5h-2.26Z"/>
    <path class="cls-6" d="M1096.02,496.14v1.58l-2.31.43c.21.29.39.63.53,1.05s.21.85.21,1.32c0,1.39-.48,2.49-1.44,3.28-.96.8-2.28,1.2-3.97,1.2-.43,0-.82-.03-1.17-.1-.62.38-.93.83-.93,1.34,0,.31.14.54.43.7.29.15.82.23,1.59.23h2.36c1.49,0,2.62.32,3.39.95.77.63,1.16,1.55,1.16,2.75,0,1.53-.63,2.71-1.89,3.54-1.26.83-3.08,1.25-5.47,1.25-1.84,0-3.24-.33-4.21-.98s-1.45-1.58-1.45-2.78c0-.83.26-1.53.79-2.09.52-.57,1.26-.96,2.2-1.18-.38-.16-.7-.42-.95-.79s-.37-.74-.37-1.14c0-.5.14-.93.43-1.28.28-.35.71-.7,1.27-1.04-.7-.3-1.27-.79-1.7-1.47-.44-.68-.65-1.48-.65-2.39,0-1.46.46-2.6,1.39-3.41.92-.8,2.24-1.21,3.95-1.21.38,0,.78.03,1.2.08.42.05.73.11.95.17h4.67ZM1085.41,511.74c0,.62.28,1.09.84,1.43.56.33,1.34.5,2.35.5,1.56,0,2.73-.22,3.49-.67.76-.45,1.15-1.04,1.15-1.78,0-.59-.21-1-.63-1.25s-1.2-.37-2.34-.37h-2.17c-.82,0-1.47.19-1.96.58-.48.39-.73.91-.73,1.57ZM1086.64,500.51c0,.85.22,1.5.65,1.95.43.46,1.06.68,1.87.68,1.66,0,2.49-.89,2.49-2.66,0-.88-.21-1.56-.62-2.03-.41-.48-1.04-.71-1.87-.71s-1.46.24-1.89.71c-.43.47-.64,1.16-.64,2.06Z"/>
    <path class="cls-6" d="M1110.4,509.64h-2.88v-8.3c0-1.04-.21-1.82-.63-2.33-.42-.51-1.08-.77-2-.77-1.2,0-2.09.36-2.66,1.08-.57.72-.85,1.93-.85,3.62v6.7h-2.87v-18.99h2.87v4.82c0,.77-.05,1.6-.15,2.48h.18c.39-.65.93-1.16,1.63-1.51.7-.36,1.51-.54,2.44-.54,3.27,0,4.91,1.65,4.91,4.94v8.8Z"/>
    <path class="cls-6" d="M904.38,537.57c.7,0,1.4-.11,2.1-.33v2.16c-.32.14-.73.25-1.23.35-.5.09-1.02.14-1.56.14-2.72,0-4.08-1.43-4.08-4.3v-7.28h-1.84v-1.27l1.98-1.05.98-2.86h1.77v3h3.84v2.17h-3.84v7.23c0,.69.17,1.2.52,1.53.35.33.8.49,1.36.49Z"/>
    <path class="cls-6" d="M921.05,539.64h-2.88v-8.3c0-1.04-.21-1.82-.63-2.33-.42-.51-1.08-.77-2-.77-1.2,0-2.09.36-2.66,1.08-.57.72-.85,1.93-.85,3.62v6.7h-2.87v-18.99h2.87v4.82c0,.77-.05,1.6-.15,2.48h.18c.39-.65.93-1.16,1.63-1.51.7-.36,1.51-.54,2.44-.54,3.27,0,4.91,1.65,4.91,4.94v8.8Z"/>
    <path class="cls-6" d="M930.94,539.89c-2.1,0-3.74-.61-4.93-1.84-1.18-1.22-1.78-2.91-1.78-5.06s.55-3.94,1.65-5.2c1.1-1.26,2.61-1.89,4.53-1.89,1.78,0,3.19.54,4.22,1.62,1.03,1.08,1.55,2.57,1.55,4.47v1.55h-9c.04,1.31.39,2.32,1.06,3.02.67.7,1.61,1.06,2.82,1.06.8,0,1.54-.08,2.23-.23s1.43-.4,2.22-.75v2.33c-.7.33-1.41.57-2.12.71-.72.14-1.53.21-2.45.21ZM930.41,528.07c-.91,0-1.64.29-2.19.87-.55.58-.88,1.42-.98,2.53h6.13c-.02-1.12-.29-1.96-.81-2.53-.52-.57-1.24-.86-2.15-.86Z"/>
    <path class="cls-6" d="M946.25,539.64v-17.85h2.92v15.34h7.56v2.5h-10.47Z"/>
    <path class="cls-6" d="M959.32,522.56c0-.51.14-.91.42-1.18.28-.28.68-.42,1.2-.42s.9.14,1.18.42c.28.28.42.67.42,1.18s-.14.87-.42,1.15c-.28.28-.67.42-1.18.42s-.92-.14-1.2-.42c-.28-.28-.42-.67-.42-1.15ZM962.36,539.64h-2.87v-13.5h2.87v13.5Z"/>
    <path class="cls-6" d="M978.34,539.64h-2.88v-8.3c0-1.04-.21-1.82-.63-2.33-.42-.51-1.08-.77-2-.77-1.21,0-2.1.36-2.66,1.07s-.84,1.92-.84,3.6v6.73h-2.87v-13.5h2.25l.4,1.77h.15c.41-.64.99-1.14,1.73-1.49.75-.35,1.58-.52,2.49-.52,3.24,0,4.86,1.65,4.86,4.94v8.8Z"/>
    <path class="cls-6" d="M985.1,532.51l1.62-2.03,4.08-4.35h3.31l-5.43,5.8,5.77,7.7h-3.37l-4.33-5.92-1.58,1.29v4.63h-2.84v-18.99h2.84v9.27l-.15,2.6h.07Z"/>
    <path class="cls-6" d="M1002.07,532.79c0-2.16.32-4.18.95-6.05.63-1.88,1.54-3.53,2.73-4.94h2.5c-1.13,1.53-2,3.25-2.6,5.15-.6,1.9-.9,3.84-.9,5.83s.3,3.91.9,5.77c.6,1.86,1.46,3.55,2.58,5.05h-2.48c-1.2-1.38-2.11-3-2.73-4.85-.63-1.85-.94-3.83-.94-5.96Z"/>
    <path class="cls-6" d="M1019.49,539.64l-.57-1.88h-.1c-.65.82-1.31,1.38-1.96,1.68s-1.51.45-2.54.45c-1.33,0-2.36-.36-3.11-1.07-.75-.72-1.12-1.73-1.12-3.04,0-1.39.52-2.44,1.55-3.15,1.03-.71,2.61-1.09,4.72-1.16l2.33-.07v-.72c0-.86-.2-1.51-.6-1.93-.4-.43-1.03-.64-1.87-.64-.69,0-1.36.1-1.99.31-.63.2-1.24.44-1.83.72l-.93-2.05c.73-.38,1.53-.67,2.4-.87.87-.2,1.69-.3,2.47-.3,1.72,0,3.01.37,3.89,1.12s1.31,1.92,1.31,3.53v9.09h-2.05ZM1015.22,537.69c1.04,0,1.88-.29,2.51-.87.63-.58.95-1.4.95-2.45v-1.17l-1.73.07c-1.35.05-2.33.27-2.95.68-.62.4-.92,1.02-.92,1.85,0,.6.18,1.07.54,1.4.36.33.9.49,1.61.49Z"/>
    <path class="cls-6" d="M1046.42,539.64h-2.93v-8.04h-8.23v8.04h-2.92v-17.85h2.92v7.3h8.23v-7.3h2.93v17.85Z"/>
    <path class="cls-6" d="M1062.79,532.87c0,2.21-.57,3.93-1.7,5.16s-2.71,1.86-4.72,1.86c-1.26,0-2.38-.29-3.35-.85-.97-.57-1.71-1.39-2.23-2.45-.52-1.07-.78-2.3-.78-3.71,0-2.19.56-3.9,1.68-5.13,1.12-1.23,2.71-1.84,4.75-1.84s3.5.63,4.64,1.89c1.14,1.26,1.71,2.95,1.71,5.08ZM1052.96,532.87c0,3.12,1.15,4.68,3.46,4.68s3.42-1.56,3.42-4.68-1.15-4.63-3.44-4.63c-1.2,0-2.08.4-2.62,1.2s-.81,1.94-.81,3.43Z"/>
    <path class="cls-6" d="M1075.15,535.8c0,1.32-.48,2.33-1.44,3.03-.96.7-2.33,1.06-4.12,1.06s-3.24-.27-4.33-.82v-2.48c1.59.73,3.06,1.1,4.43,1.1,1.77,0,2.65-.53,2.65-1.6,0-.34-.1-.63-.29-.85-.2-.23-.52-.46-.96-.71-.45-.24-1.07-.52-1.87-.83-1.55-.6-2.61-1.2-3.16-1.81-.55-.6-.82-1.38-.82-2.34,0-1.16.47-2.05,1.4-2.69.93-.64,2.2-.96,3.8-.96s3.09.32,4.5.96l-.93,2.16c-1.46-.6-2.68-.9-3.67-.9-1.51,0-2.27.43-2.27,1.29,0,.42.2.78.59,1.07s1.26.7,2.58,1.21c1.12.43,1.92.83,2.43,1.18.5.36.88.77,1.12,1.24s.37,1.03.37,1.68Z"/>
    <path class="cls-6" d="M1083.28,537.57c.7,0,1.4-.11,2.1-.33v2.16c-.32.14-.73.25-1.23.35-.5.09-1.02.14-1.56.14-2.72,0-4.08-1.43-4.08-4.3v-7.28h-1.84v-1.27l1.98-1.05.98-2.86h1.77v3h3.84v2.17h-3.84v7.23c0,.69.17,1.2.52,1.53.35.33.8.49,1.36.49Z"/>
    <path class="cls-6" d="M1093.97,539.89c-2.1,0-3.74-.61-4.93-1.84-1.18-1.22-1.78-2.91-1.78-5.06s.55-3.94,1.65-5.2c1.1-1.26,2.61-1.89,4.53-1.89,1.78,0,3.19.54,4.22,1.62,1.03,1.08,1.55,2.57,1.55,4.47v1.55h-9c.04,1.31.39,2.32,1.06,3.02.67.7,1.61,1.06,2.82,1.06.8,0,1.54-.08,2.23-.23s1.43-.4,2.22-.75v2.33c-.7.33-1.41.57-2.12.71-.72.14-1.53.21-2.45.21ZM1093.45,528.07c-.91,0-1.64.29-2.19.87-.55.58-.88,1.42-.98,2.53h6.13c-.02-1.12-.29-1.96-.81-2.53-.52-.57-1.24-.86-2.15-.86Z"/>
    <path class="cls-6" d="M1107.04,539.89c-1.68,0-3-.61-3.94-1.83s-1.42-2.93-1.42-5.14.48-3.94,1.43-5.17c.96-1.23,2.28-1.85,3.97-1.85s3.12.66,4.05,1.97h.15c-.14-.97-.21-1.73-.21-2.29v-4.92h2.88v18.99h-2.25l-.5-1.77h-.13c-.92,1.34-2.27,2.01-4.04,2.01ZM1107.8,537.57c1.18,0,2.04-.33,2.58-1,.54-.66.81-1.74.83-3.23v-.4c0-1.7-.28-2.91-.83-3.63-.55-.72-1.42-1.07-2.6-1.07-1.01,0-1.79.41-2.33,1.23-.55.82-.82,1.98-.82,3.5s.26,2.64.79,3.42c.53.79,1.32,1.18,2.38,1.18Z"/>
    <path class="cls-6" d="M930.88,557.19c0,1.86-.61,3.29-1.83,4.29-1.22.99-2.96,1.49-5.21,1.49h-1.86v6.68h-2.92v-17.85h5.14c2.23,0,3.9.46,5.01,1.37,1.11.91,1.67,2.25,1.67,4.03ZM921.98,560.51h1.55c1.5,0,2.6-.26,3.29-.78.7-.52,1.05-1.33,1.05-2.44,0-1.03-.31-1.79-.94-2.29s-1.6-.76-2.93-.76h-2.03v6.27Z"/>
    <path class="cls-6" d="M942.58,569.64l-.57-1.88h-.1c-.65.82-1.31,1.38-1.96,1.68s-1.51.45-2.54.45c-1.33,0-2.36-.36-3.11-1.07-.75-.72-1.12-1.73-1.12-3.04,0-1.39.52-2.44,1.55-3.15,1.03-.71,2.61-1.09,4.72-1.16l2.33-.07v-.72c0-.86-.2-1.51-.6-1.93-.4-.43-1.03-.64-1.87-.64-.69,0-1.36.1-1.99.31-.63.2-1.24.44-1.83.72l-.93-2.05c.73-.38,1.53-.67,2.4-.87.87-.2,1.69-.3,2.47-.3,1.72,0,3.01.37,3.89,1.12s1.31,1.92,1.31,3.53v9.09h-2.05ZM938.31,567.69c1.04,0,1.88-.29,2.51-.87.63-.58.95-1.4.95-2.45v-1.17l-1.73.07c-1.35.05-2.33.27-2.95.68-.62.4-.92,1.02-.92,1.85,0,.6.18,1.07.54,1.4.36.33.9.49,1.61.49Z"/>
    <path class="cls-6" d="M946.59,556.14h3.12l2.75,7.65c.42,1.09.69,2.12.83,3.08h.1c.07-.45.21-.99.4-1.63s1.23-3.67,3.1-9.1h3.1l-5.77,15.3c-1.05,2.81-2.8,4.21-5.25,4.21-.63,0-1.25-.07-1.86-.21v-2.27c.43.1.92.15,1.48.15,1.38,0,2.36-.8,2.92-2.4l.5-1.27-5.42-13.5Z"/>
    <path class="cls-6" d="M973.42,569.64h-2.88v-8.33c0-1.03-.2-1.8-.59-2.31-.39-.51-1-.76-1.83-.76-1.11,0-1.92.36-2.44,1.08-.52.72-.77,1.92-.77,3.59v6.73h-2.87v-13.5h2.25l.4,1.77h.15c.38-.64.92-1.14,1.63-1.49.71-.35,1.5-.52,2.35-.52,2.07,0,3.45.71,4.12,2.12h.2c.4-.67.96-1.19,1.69-1.56.72-.37,1.55-.56,2.49-.56,1.61,0,2.78.41,3.52,1.22.74.81,1.1,2.05,1.1,3.72v8.8h-2.87v-8.33c0-1.03-.2-1.8-.59-2.31-.39-.51-1.01-.76-1.84-.76-1.12,0-1.93.35-2.45,1.04-.52.7-.78,1.76-.78,3.2v7.15Z"/>
    <path class="cls-6" d="M991.84,569.89c-2.1,0-3.74-.61-4.93-1.84-1.18-1.22-1.78-2.91-1.78-5.06s.55-3.94,1.65-5.2c1.1-1.26,2.61-1.89,4.53-1.89,1.78,0,3.19.54,4.22,1.62,1.03,1.08,1.55,2.57,1.55,4.47v1.55h-9c.04,1.31.39,2.32,1.06,3.02.67.7,1.61,1.06,2.82,1.06.8,0,1.54-.08,2.23-.23s1.43-.4,2.22-.75v2.33c-.7.33-1.41.57-2.12.71-.72.14-1.53.21-2.45.21ZM991.32,558.07c-.91,0-1.64.29-2.19.87-.55.58-.88,1.42-.98,2.53h6.13c-.02-1.12-.29-1.96-.81-2.53-.52-.57-1.24-.86-2.15-.86Z"/>
    <path class="cls-6" d="M1012.23,569.64h-2.88v-8.3c0-1.04-.21-1.82-.63-2.33-.42-.51-1.08-.77-2-.77-1.21,0-2.1.36-2.66,1.07s-.84,1.92-.84,3.6v6.73h-2.87v-13.5h2.25l.4,1.77h.15c.41-.64.99-1.14,1.73-1.49.75-.35,1.58-.52,2.49-.52,3.24,0,4.86,1.65,4.86,4.94v8.8Z"/>
    <path class="cls-6" d="M1021.25,567.57c.7,0,1.4-.11,2.1-.33v2.16c-.32.14-.73.25-1.23.35-.5.09-1.02.14-1.56.14-2.72,0-4.08-1.43-4.08-4.3v-7.28h-1.84v-1.27l1.98-1.05.98-2.86h1.77v3h3.84v2.17h-3.84v7.23c0,.69.17,1.2.52,1.53.35.33.8.49,1.36.49Z"/>
    <path class="cls-6" d="M1044.66,557.19c0,1.86-.61,3.29-1.83,4.29-1.22.99-2.96,1.49-5.21,1.49h-1.86v6.68h-2.92v-17.85h5.14c2.23,0,3.9.46,5.01,1.37,1.11.91,1.67,2.25,1.67,4.03ZM1035.76,560.51h1.55c1.5,0,2.6-.26,3.29-.78.7-.52,1.05-1.33,1.05-2.44,0-1.03-.31-1.79-.94-2.29s-1.6-.76-2.93-.76h-2.03v6.27Z"/>
    <path class="cls-6" d="M1056.37,569.64l-.57-1.88h-.1c-.65.82-1.31,1.38-1.96,1.68s-1.51.45-2.54.45c-1.33,0-2.36-.36-3.11-1.07-.75-.72-1.12-1.73-1.12-3.04,0-1.39.52-2.44,1.55-3.15,1.03-.71,2.61-1.09,4.72-1.16l2.33-.07v-.72c0-.86-.2-1.51-.6-1.93-.4-.43-1.03-.64-1.87-.64-.69,0-1.36.1-1.99.31-.63.2-1.24.44-1.83.72l-.93-2.05c.73-.38,1.53-.67,2.4-.87.87-.2,1.69-.3,2.47-.3,1.72,0,3.01.37,3.89,1.12s1.31,1.92,1.31,3.53v9.09h-2.05ZM1052.09,567.69c1.04,0,1.88-.29,2.51-.87.63-.58.95-1.4.95-2.45v-1.17l-1.73.07c-1.35.05-2.33.27-2.95.68-.62.4-.92,1.02-.92,1.85,0,.6.18,1.07.54,1.4.36.33.9.49,1.61.49Z"/>
    <path class="cls-6" d="M1073.82,556.14v1.58l-2.31.43c.21.29.39.63.53,1.05s.21.85.21,1.32c0,1.39-.48,2.49-1.44,3.28-.96.8-2.28,1.2-3.97,1.2-.43,0-.82-.03-1.17-.1-.62.38-.93.83-.93,1.34,0,.31.14.54.43.7.29.15.82.23,1.59.23h2.36c1.49,0,2.62.32,3.39.95.77.63,1.16,1.55,1.16,2.75,0,1.53-.63,2.71-1.89,3.54-1.26.83-3.08,1.25-5.47,1.25-1.84,0-3.24-.33-4.21-.98s-1.45-1.58-1.45-2.78c0-.83.26-1.53.79-2.09.52-.57,1.26-.96,2.2-1.18-.38-.16-.7-.42-.95-.79s-.37-.74-.37-1.14c0-.5.14-.93.43-1.28.28-.35.71-.7,1.27-1.04-.7-.3-1.27-.79-1.7-1.47-.44-.68-.65-1.48-.65-2.39,0-1.46.46-2.6,1.39-3.41.92-.8,2.24-1.21,3.95-1.21.38,0,.78.03,1.2.08.42.05.73.11.95.17h4.67ZM1063.21,571.74c0,.62.28,1.09.84,1.43.56.33,1.34.5,2.35.5,1.56,0,2.73-.22,3.49-.67.76-.45,1.15-1.04,1.15-1.78,0-.59-.21-1-.63-1.25s-1.2-.37-2.34-.37h-2.17c-.82,0-1.47.19-1.96.58-.48.39-.73.91-.73,1.57ZM1064.45,560.51c0,.85.22,1.5.65,1.95.43.46,1.06.68,1.87.68,1.66,0,2.49-.89,2.49-2.66,0-.88-.21-1.56-.62-2.03-.41-.48-1.04-.71-1.87-.71s-1.46.24-1.89.71c-.43.47-.64,1.16-.64,2.06Z"/>
    <path class="cls-6" d="M1082.22,569.89c-2.1,0-3.74-.61-4.93-1.84-1.18-1.22-1.78-2.91-1.78-5.06s.55-3.94,1.65-5.2c1.1-1.26,2.61-1.89,4.53-1.89,1.78,0,3.19.54,4.22,1.62,1.03,1.08,1.55,2.57,1.55,4.47v1.55h-9c.04,1.31.39,2.32,1.06,3.02.67.7,1.61,1.06,2.82,1.06.8,0,1.54-.08,2.23-.23s1.43-.4,2.22-.75v2.33c-.7.33-1.41.57-2.12.71-.72.14-1.53.21-2.45.21ZM1081.7,558.07c-.91,0-1.64.29-2.19.87-.55.58-.88,1.42-.98,2.53h6.13c-.02-1.12-.29-1.96-.81-2.53-.52-.57-1.24-.86-2.15-.86Z"/>
    <path class="cls-6" d="M1095.6,562.79c0,2.14-.32,4.13-.95,5.98-.63,1.85-1.54,3.46-2.73,4.82h-2.48c1.12-1.52,1.98-3.21,2.58-5.07.6-1.86.9-3.78.9-5.76s-.3-3.94-.9-5.83c-.6-1.89-1.47-3.61-2.6-5.15h2.5c1.2,1.42,2.11,3.08,2.73,4.96.63,1.88.94,3.9.94,6.04Z"/>
    <path class="cls-6" d="M916.6,599.64l-.57-1.88h-.1c-.65.82-1.31,1.38-1.96,1.68s-1.51.45-2.54.45c-1.33,0-2.36-.36-3.11-1.07-.75-.72-1.12-1.73-1.12-3.04,0-1.39.52-2.44,1.55-3.15,1.03-.71,2.61-1.09,4.72-1.16l2.33-.07v-.72c0-.86-.2-1.51-.6-1.93-.4-.43-1.03-.64-1.87-.64-.69,0-1.36.1-1.99.31-.63.2-1.24.44-1.83.72l-.93-2.05c.73-.38,1.53-.67,2.4-.87.87-.2,1.69-.3,2.47-.3,1.72,0,3.01.37,3.89,1.12s1.31,1.92,1.31,3.53v9.09h-2.05ZM912.33,597.69c1.04,0,1.88-.29,2.51-.87.63-.58.95-1.4.95-2.45v-1.17l-1.73.07c-1.35.05-2.33.27-2.95.68-.62.4-.92,1.02-.92,1.85,0,.6.18,1.07.54,1.4.36.33.9.49,1.61.49Z"/>
    <path class="cls-6" d="M934.53,599.64h-2.88v-8.3c0-1.04-.21-1.82-.63-2.33-.42-.51-1.08-.77-2-.77-1.21,0-2.1.36-2.66,1.07s-.84,1.92-.84,3.6v6.73h-2.87v-13.5h2.25l.4,1.77h.15c.41-.64.99-1.14,1.73-1.49.75-.35,1.58-.52,2.49-.52,3.24,0,4.86,1.65,4.86,4.94v8.8Z"/>
    <path class="cls-6" d="M943.08,599.89c-1.68,0-3-.61-3.94-1.83s-1.42-2.93-1.42-5.14.48-3.94,1.43-5.17c.96-1.23,2.28-1.85,3.97-1.85s3.12.66,4.05,1.97h.15c-.14-.97-.21-1.73-.21-2.29v-4.92h2.88v18.99h-2.25l-.5-1.77h-.13c-.92,1.34-2.27,2.01-4.04,2.01ZM943.85,597.57c1.18,0,2.04-.33,2.58-1,.54-.66.81-1.74.83-3.23v-.4c0-1.7-.28-2.91-.83-3.63-.55-.72-1.42-1.07-2.6-1.07-1.01,0-1.79.41-2.33,1.23-.55.82-.82,1.98-.82,3.5s.26,2.64.79,3.42c.53.79,1.32,1.18,2.38,1.18Z"/>
    <path class="cls-6" d="M969.67,595.8c0,1.32-.48,2.33-1.44,3.03-.96.7-2.33,1.06-4.12,1.06s-3.24-.27-4.33-.82v-2.48c1.59.73,3.06,1.1,4.43,1.1,1.77,0,2.65-.53,2.65-1.6,0-.34-.1-.63-.29-.85-.2-.23-.52-.46-.96-.71-.45-.24-1.07-.52-1.87-.83-1.55-.6-2.61-1.2-3.16-1.81-.55-.6-.82-1.38-.82-2.34,0-1.16.47-2.05,1.4-2.69.93-.64,2.2-.96,3.8-.96s3.09.32,4.5.96l-.93,2.16c-1.46-.6-2.68-.9-3.67-.9-1.51,0-2.27.43-2.27,1.29,0,.42.2.78.59,1.07s1.26.7,2.58,1.21c1.12.43,1.92.83,2.43,1.18.5.36.88.77,1.12,1.24s.37,1.03.37,1.68Z"/>
    <path class="cls-6" d="M982.29,599.64l-.4-1.77h-.15c-.4.63-.97,1.12-1.7,1.48-.74.36-1.58.54-2.52.54-1.63,0-2.86-.41-3.66-1.22-.8-.81-1.21-2.05-1.21-3.7v-8.83h2.89v8.33c0,1.03.21,1.81.63,2.33.42.52,1.09.78,1.99.78,1.2,0,2.09-.36,2.66-1.08.57-.72.85-1.93.85-3.62v-6.73h2.88v13.5h-2.26Z"/>
    <path class="cls-6" d="M995.53,585.9c1.69,0,3,.61,3.94,1.83.94,1.22,1.41,2.93,1.41,5.14s-.48,3.94-1.43,5.17c-.95,1.23-2.27,1.85-3.97,1.85s-3.04-.61-3.98-1.84h-.2l-.53,1.6h-2.15v-18.99h2.87v4.52c0,.33-.02.83-.05,1.49-.03.66-.06,1.08-.07,1.26h.12c.91-1.34,2.25-2.01,4.03-2.01ZM994.79,588.24c-1.16,0-1.99.34-2.5,1.02-.51.68-.77,1.82-.79,3.41v.2c0,1.64.26,2.83.78,3.57.52.74,1.37,1.1,2.55,1.1,1.02,0,1.79-.4,2.31-1.21.52-.8.79-1.97.79-3.49,0-3.07-1.05-4.6-3.15-4.6Z"/>
    <path class="cls-6" d="M1015.59,599.64h-2.88v-8.33c0-1.03-.2-1.8-.59-2.31-.39-.51-1-.76-1.83-.76-1.11,0-1.92.36-2.44,1.08-.52.72-.77,1.92-.77,3.59v6.73h-2.87v-13.5h2.25l.4,1.77h.15c.38-.64.92-1.14,1.63-1.49.71-.35,1.5-.52,2.35-.52,2.07,0,3.45.71,4.12,2.12h.2c.4-.67.96-1.19,1.69-1.56.72-.37,1.55-.56,2.49-.56,1.61,0,2.78.41,3.52,1.22.74.81,1.1,2.05,1.1,3.72v8.8h-2.87v-8.33c0-1.03-.2-1.8-.59-2.31-.39-.51-1.01-.76-1.84-.76-1.12,0-1.93.35-2.45,1.04-.52.7-.78,1.76-.78,3.2v7.15Z"/>
    <path class="cls-6" d="M1027.94,582.56c0-.51.14-.91.42-1.18.28-.28.68-.42,1.2-.42s.9.14,1.18.42c.28.28.42.67.42,1.18s-.14.87-.42,1.15c-.28.28-.67.42-1.18.42s-.92-.14-1.2-.42c-.28-.28-.42-.67-.42-1.15ZM1030.98,599.64h-2.87v-13.5h2.87v13.5Z"/>
    <path class="cls-6" d="M1040.11,597.57c.7,0,1.4-.11,2.1-.33v2.16c-.32.14-.73.25-1.23.35-.5.09-1.02.14-1.56.14-2.72,0-4.08-1.43-4.08-4.3v-7.28h-1.84v-1.27l1.98-1.05.98-2.86h1.77v3h3.84v2.17h-3.84v7.23c0,.69.17,1.2.52,1.53.35.33.8.49,1.36.49Z"/>
    <path class="cls-6" d="M1056.43,597.57c.7,0,1.4-.11,2.1-.33v2.16c-.32.14-.73.25-1.23.35-.5.09-1.02.14-1.56.14-2.72,0-4.08-1.43-4.08-4.3v-7.28h-1.84v-1.27l1.98-1.05.98-2.86h1.77v3h3.84v2.17h-3.84v7.23c0,.69.17,1.2.52,1.53.35.33.8.49,1.36.49Z"/>
    <path class="cls-6" d="M1073.11,599.64h-2.88v-8.3c0-1.04-.21-1.82-.63-2.33-.42-.51-1.08-.77-2-.77-1.2,0-2.09.36-2.66,1.08-.57.72-.85,1.93-.85,3.62v6.7h-2.87v-18.99h2.87v4.82c0,.77-.05,1.6-.15,2.48h.18c.39-.65.93-1.16,1.63-1.51.7-.36,1.51-.54,2.44-.54,3.27,0,4.91,1.65,4.91,4.94v8.8Z"/>
    <path class="cls-6" d="M1083,599.89c-2.1,0-3.74-.61-4.93-1.84-1.18-1.22-1.78-2.91-1.78-5.06s.55-3.94,1.65-5.2c1.1-1.26,2.61-1.89,4.53-1.89,1.78,0,3.19.54,4.22,1.62,1.03,1.08,1.55,2.57,1.55,4.47v1.55h-9c.04,1.31.39,2.32,1.06,3.02.67.7,1.61,1.06,2.82,1.06.8,0,1.54-.08,2.23-.23s1.43-.4,2.22-.75v2.33c-.7.33-1.41.57-2.12.71-.72.14-1.53.21-2.45.21ZM1082.47,588.07c-.91,0-1.64.29-2.19.87-.55.58-.88,1.42-.98,2.53h6.13c-.02-1.12-.29-1.96-.81-2.53-.52-.57-1.24-.86-2.15-.86Z"/>
    <path class="cls-6" d="M1091.33,582.56c0-.51.14-.91.42-1.18.28-.28.68-.42,1.2-.42s.9.14,1.18.42c.28.28.42.67.42,1.18s-.14.87-.42,1.15c-.28.28-.67.42-1.18.42s-.92-.14-1.2-.42c-.28-.28-.42-.67-.42-1.15ZM1094.37,599.64h-2.87v-13.5h2.87v13.5Z"/>
    <path class="cls-6" d="M1105.32,585.9c.58,0,1.05.04,1.43.12l-.28,2.67c-.41-.1-.83-.15-1.27-.15-1.15,0-2.08.37-2.79,1.12-.71.75-1.07,1.72-1.07,2.92v7.06h-2.87v-13.5h2.25l.38,2.38h.15c.45-.8,1.03-1.44,1.75-1.92.72-.47,1.5-.71,2.33-.71Z"/>
    <path class="cls-6" d="M931.54,629.89c-1.71,0-3.04-.61-3.98-1.84h-.17c.11,1.14.17,1.83.17,2.08v5.53h-2.87v-19.51h2.32c.07.25.2.85.4,1.81h.15c.89-1.37,2.24-2.05,4.03-2.05,1.69,0,3,.61,3.94,1.83.94,1.22,1.41,2.93,1.41,5.14s-.48,3.93-1.43,5.16c-.96,1.24-2.28,1.86-3.96,1.86ZM930.84,618.24c-1.14,0-1.97.33-2.5,1-.53.67-.79,1.73-.79,3.2v.43c0,1.64.26,2.83.78,3.57.52.74,1.37,1.1,2.55,1.1.99,0,1.76-.41,2.29-1.22s.81-1.97.81-3.48-.27-2.66-.8-3.44-1.32-1.17-2.35-1.17Z"/>
    <path class="cls-6" d="M948.71,629.64l-.57-1.88h-.1c-.65.82-1.31,1.38-1.96,1.68s-1.51.45-2.54.45c-1.33,0-2.36-.36-3.11-1.07-.75-.72-1.12-1.73-1.12-3.04,0-1.39.52-2.44,1.55-3.15,1.03-.71,2.61-1.09,4.72-1.16l2.33-.07v-.72c0-.86-.2-1.51-.6-1.93-.4-.43-1.03-.64-1.87-.64-.69,0-1.36.1-1.99.31-.63.2-1.24.44-1.83.72l-.93-2.05c.73-.38,1.53-.67,2.4-.87.87-.2,1.69-.3,2.47-.3,1.72,0,3.01.37,3.89,1.12s1.31,1.92,1.31,3.53v9.09h-2.05ZM944.44,627.69c1.04,0,1.88-.29,2.51-.87.63-.58.95-1.4.95-2.45v-1.17l-1.73.07c-1.35.05-2.33.27-2.95.68-.62.4-.92,1.02-.92,1.85,0,.6.18,1.07.54,1.4.36.33.9.49,1.61.49Z"/>
    <path class="cls-6" d="M952.72,616.14h3.12l2.75,7.65c.42,1.09.69,2.12.83,3.08h.1c.07-.45.21-.99.4-1.63s1.23-3.67,3.1-9.1h3.1l-5.77,15.3c-1.05,2.81-2.8,4.21-5.25,4.21-.63,0-1.25-.07-1.86-.21v-2.27c.43.1.92.15,1.48.15,1.38,0,2.36-.8,2.92-2.4l.5-1.27-5.42-13.5Z"/>
    <path class="cls-6" d="M979.55,629.64h-2.88v-8.33c0-1.03-.2-1.8-.59-2.31-.39-.51-1-.76-1.83-.76-1.11,0-1.92.36-2.44,1.08-.52.72-.77,1.92-.77,3.59v6.73h-2.87v-13.5h2.25l.4,1.77h.15c.38-.64.92-1.14,1.63-1.49.71-.35,1.5-.52,2.35-.52,2.07,0,3.45.71,4.12,2.12h.2c.4-.67.96-1.19,1.69-1.56.72-.37,1.55-.56,2.49-.56,1.61,0,2.78.41,3.52,1.22.74.81,1.1,2.05,1.1,3.72v8.8h-2.87v-8.33c0-1.03-.2-1.8-.59-2.31-.39-.51-1.01-.76-1.84-.76-1.12,0-1.93.35-2.45,1.04-.52.7-.78,1.76-.78,3.2v7.15Z"/>
    <path class="cls-6" d="M997.97,629.89c-2.1,0-3.74-.61-4.93-1.84-1.18-1.22-1.78-2.91-1.78-5.06s.55-3.94,1.65-5.2c1.1-1.26,2.61-1.89,4.53-1.89,1.78,0,3.19.54,4.22,1.62,1.03,1.08,1.55,2.57,1.55,4.47v1.55h-9c.04,1.31.39,2.32,1.06,3.02.67.7,1.61,1.06,2.82,1.06.8,0,1.54-.08,2.23-.23s1.43-.4,2.22-.75v2.33c-.7.33-1.41.57-2.12.71-.72.14-1.53.21-2.45.21ZM997.44,618.07c-.91,0-1.64.29-2.19.87-.55.58-.88,1.42-.98,2.53h6.13c-.02-1.12-.29-1.96-.81-2.53-.52-.57-1.24-.86-2.15-.86Z"/>
    <path class="cls-6" d="M1018.35,629.64h-2.88v-8.3c0-1.04-.21-1.82-.63-2.33-.42-.51-1.08-.77-2-.77-1.21,0-2.1.36-2.66,1.07s-.84,1.92-.84,3.6v6.73h-2.87v-13.5h2.25l.4,1.77h.15c.41-.64.99-1.14,1.73-1.49.75-.35,1.58-.52,2.49-.52,3.24,0,4.86,1.65,4.86,4.94v8.8Z"/>
    <path class="cls-6" d="M1027.38,627.57c.7,0,1.4-.11,2.1-.33v2.16c-.32.14-.73.25-1.23.35-.5.09-1.02.14-1.56.14-2.72,0-4.08-1.43-4.08-4.3v-7.28h-1.84v-1.27l1.98-1.05.98-2.86h1.77v3h3.84v2.17h-3.84v7.23c0,.69.17,1.2.52,1.53.35.33.8.49,1.36.49Z"/>
    <path class="cls-6" d="M1038.5,612.56c0-.51.14-.91.42-1.18.28-.28.68-.42,1.2-.42s.9.14,1.18.42c.28.28.42.67.42,1.18s-.14.87-.42,1.15c-.28.28-.67.42-1.18.42s-.92-.14-1.2-.42c-.28-.28-.42-.67-.42-1.15ZM1041.54,629.64h-2.87v-13.5h2.87v13.5Z"/>
    <path class="cls-6" d="M1057.51,629.64h-2.88v-8.3c0-1.04-.21-1.82-.63-2.33-.42-.51-1.08-.77-2-.77-1.21,0-2.1.36-2.66,1.07s-.84,1.92-.84,3.6v6.73h-2.87v-13.5h2.25l.4,1.77h.15c.41-.64.99-1.14,1.73-1.49.75-.35,1.58-.52,2.49-.52,3.24,0,4.86,1.65,4.86,4.94v8.8Z"/>
    <path class="cls-6" d="M1068.28,618.31h-3.3v11.33h-2.88v-11.33h-2.22v-1.34l2.22-.88v-.88c0-1.59.38-2.78,1.12-3.55.75-.77,1.89-1.15,3.43-1.15,1.01,0,2,.17,2.98.5l-.76,2.17c-.71-.23-1.38-.34-2.03-.34s-1.12.2-1.42.6c-.3.4-.45,1.01-.45,1.81v.88h3.3v2.17Z"/>
    <path class="cls-6" d="M1082.55,622.87c0,2.21-.57,3.93-1.7,5.16s-2.71,1.86-4.72,1.86c-1.26,0-2.38-.29-3.35-.85-.97-.57-1.71-1.39-2.23-2.45-.52-1.07-.78-2.3-.78-3.71,0-2.19.56-3.9,1.68-5.13,1.12-1.23,2.71-1.84,4.75-1.84s3.5.63,4.64,1.89c1.14,1.26,1.71,2.95,1.71,5.08ZM1072.72,622.87c0,3.12,1.15,4.68,3.46,4.68s3.42-1.56,3.42-4.68-1.15-4.63-3.44-4.63c-1.2,0-2.08.4-2.62,1.2s-.81,1.94-.81,3.43Z"/>
    <path class="cls-6" d="M1085.42,628.12c0-.59.16-1.05.46-1.37.31-.32.76-.48,1.34-.48s1.05.17,1.36.49c.31.33.46.78.46,1.35s-.16,1.04-.47,1.37c-.31.34-.76.51-1.35.51s-1.03-.17-1.34-.5c-.31-.33-.46-.79-.46-1.38Z"/>
  </g>
  <rect class="cls-2" x="1242" y="400" width="298" height="177" rx="14.06" ry="14.06"/>
  <text class="cls-5" transform="translate(1283.1 449.64)"><tspan x="0" y="0">The Payment data </tspan><tspan x="-4.64" y="30">is encrupted and is </tspan><tspan x="-3.75" y="60">processed through </tspan><tspan x="33.65" y="90">the Gateway</tspan></text>
  <rect class="cls-2" x="1611" y="400" width="298" height="177" rx="14.06" ry="14.06"/>
  <g>
    <path class="cls-6" d="M1686.37,449.64h-2.92v-15.34h-5.25v-2.5h13.42v2.5h-5.25v15.34Z"/>
    <path class="cls-6" d="M1705.92,449.64h-2.88v-8.3c0-1.04-.21-1.82-.63-2.33-.42-.51-1.08-.77-2-.77-1.2,0-2.09.36-2.66,1.08-.57.72-.85,1.93-.85,3.62v6.7h-2.87v-18.99h2.87v4.82c0,.77-.05,1.6-.15,2.48h.18c.39-.65.93-1.16,1.63-1.51.7-.36,1.51-.54,2.44-.54,3.27,0,4.91,1.65,4.91,4.94v8.8Z"/>
    <path class="cls-6" d="M1715.81,449.89c-2.1,0-3.74-.61-4.93-1.84-1.18-1.22-1.78-2.91-1.78-5.06s.55-3.94,1.65-5.2c1.1-1.26,2.61-1.89,4.53-1.89,1.78,0,3.19.54,4.22,1.62,1.03,1.08,1.55,2.57,1.55,4.47v1.55h-9c.04,1.31.39,2.32,1.06,3.02.67.7,1.61,1.06,2.82,1.06.8,0,1.54-.08,2.23-.23s1.43-.4,2.22-.75v2.33c-.7.33-1.41.57-2.12.71-.72.14-1.53.21-2.45.21ZM1715.29,438.07c-.91,0-1.64.29-2.19.87-.55.58-.88,1.42-.98,2.53h6.13c-.02-1.11-.29-1.96-.81-2.53-.52-.57-1.24-.86-2.15-.86Z"/>
    <path class="cls-6" d="M1738.83,449.64l-5.18-14.9h-.1c.14,2.21.21,4.29.21,6.23v8.68h-2.65v-17.85h4.11l4.96,14.2h.07l5.1-14.2h4.13v17.85h-2.81v-8.83c0-.89.02-2.04.07-3.47.04-1.42.08-2.29.12-2.59h-.1l-5.36,14.88h-2.58Z"/>
    <path class="cls-6" d="M1759.78,449.89c-2.1,0-3.74-.61-4.93-1.84-1.18-1.22-1.78-2.91-1.78-5.06s.55-3.94,1.65-5.2c1.1-1.26,2.61-1.89,4.53-1.89,1.78,0,3.19.54,4.22,1.62,1.03,1.08,1.55,2.57,1.55,4.47v1.55h-9c.04,1.31.39,2.32,1.06,3.02.67.7,1.61,1.06,2.82,1.06.8,0,1.54-.08,2.23-.23s1.43-.4,2.22-.75v2.33c-.7.33-1.41.57-2.12.71-.72.14-1.53.21-2.45.21ZM1759.25,438.07c-.91,0-1.64.29-2.19.87-.55.58-.88,1.42-.98,2.53h6.13c-.02-1.11-.29-1.96-.81-2.53-.52-.57-1.24-.86-2.15-.86Z"/>
    <path class="cls-6" d="M1775.14,435.9c.58,0,1.05.04,1.43.12l-.28,2.67c-.41-.1-.83-.15-1.27-.15-1.15,0-2.08.37-2.79,1.12-.71.75-1.07,1.72-1.07,2.92v7.06h-2.87v-13.5h2.25l.38,2.38h.15c.45-.81,1.03-1.44,1.75-1.92.72-.47,1.5-.71,2.33-.71Z"/>
    <path class="cls-6" d="M1784.51,449.89c-2.04,0-3.59-.6-4.66-1.79-1.06-1.19-1.59-2.9-1.59-5.13s.56-4.02,1.67-5.24c1.11-1.22,2.72-1.83,4.82-1.83,1.42,0,2.71.26,3.85.79l-.87,2.31c-1.21-.47-2.21-.71-3-.71-2.34,0-3.5,1.55-3.5,4.65,0,1.51.29,2.65.87,3.41.58.76,1.43,1.14,2.56,1.14,1.28,0,2.49-.32,3.63-.95v2.5c-.51.3-1.06.52-1.64.65-.58.13-1.29.2-2.12.2Z"/>
    <path class="cls-6" d="M1803.32,449.64h-2.88v-8.3c0-1.04-.21-1.82-.63-2.33-.42-.51-1.08-.77-2-.77-1.2,0-2.09.36-2.66,1.08-.57.72-.85,1.93-.85,3.62v6.7h-2.87v-18.99h2.87v4.82c0,.77-.05,1.6-.15,2.48h.18c.39-.65.93-1.16,1.63-1.51.7-.36,1.51-.54,2.44-.54,3.27,0,4.91,1.65,4.91,4.94v8.8Z"/>
    <path class="cls-6" d="M1815.76,449.64l-.57-1.88h-.1c-.65.82-1.31,1.38-1.96,1.68s-1.51.45-2.54.45c-1.33,0-2.36-.36-3.11-1.07-.75-.72-1.12-1.73-1.12-3.04,0-1.39.52-2.44,1.55-3.15,1.03-.71,2.61-1.09,4.72-1.16l2.33-.07v-.72c0-.86-.2-1.51-.6-1.94-.4-.43-1.03-.64-1.87-.64-.69,0-1.36.1-1.99.31-.63.2-1.24.44-1.83.72l-.93-2.05c.73-.38,1.53-.67,2.4-.87.87-.2,1.69-.3,2.47-.3,1.72,0,3.01.37,3.89,1.12.88.75,1.31,1.92,1.31,3.53v9.09h-2.05ZM1811.49,447.69c1.04,0,1.88-.29,2.51-.87.63-.58.95-1.4.95-2.45v-1.17l-1.73.07c-1.35.05-2.33.27-2.95.68-.62.4-.92,1.02-.92,1.85,0,.6.18,1.07.54,1.4.36.33.9.49,1.61.49Z"/>
    <path class="cls-6" d="M1833.69,449.64h-2.88v-8.3c0-1.04-.21-1.82-.63-2.33-.42-.51-1.08-.77-2-.77-1.21,0-2.1.36-2.66,1.07-.56.72-.84,1.92-.84,3.6v6.73h-2.87v-13.5h2.25l.4,1.77h.15c.41-.64.99-1.14,1.73-1.49.75-.35,1.58-.52,2.49-.52,3.24,0,4.86,1.65,4.86,4.94v8.8Z"/>
    <path class="cls-6" d="M1842.71,447.57c.7,0,1.4-.11,2.1-.33v2.16c-.32.14-.73.25-1.23.35-.5.09-1.02.14-1.56.14-2.72,0-4.08-1.43-4.08-4.3v-7.28h-1.84v-1.27l1.98-1.05.98-2.86h1.77v3h3.84v2.17h-3.84v7.23c0,.69.17,1.2.52,1.53.35.33.8.49,1.36.49Z"/>
    <path class="cls-6" d="M1697.81,465.9c.58,0,1.05.04,1.43.12l-.28,2.67c-.41-.1-.83-.15-1.27-.15-1.15,0-2.08.37-2.79,1.12-.71.75-1.07,1.72-1.07,2.92v7.06h-2.87v-13.5h2.25l.38,2.38h.15c.45-.8,1.03-1.44,1.75-1.92.72-.47,1.5-.71,2.33-.71Z"/>
    <path class="cls-6" d="M1707.64,479.89c-2.1,0-3.74-.61-4.93-1.84-1.18-1.22-1.78-2.91-1.78-5.06s.55-3.94,1.65-5.2c1.1-1.26,2.61-1.89,4.53-1.89,1.78,0,3.19.54,4.22,1.62,1.03,1.08,1.55,2.57,1.55,4.47v1.55h-9c.04,1.31.39,2.32,1.06,3.02.67.7,1.61,1.06,2.82,1.06.8,0,1.54-.08,2.23-.23s1.43-.4,2.22-.75v2.33c-.7.33-1.41.57-2.12.71-.72.14-1.53.21-2.45.21ZM1707.11,468.07c-.91,0-1.64.29-2.19.87-.55.58-.88,1.42-.98,2.53h6.13c-.02-1.12-.29-1.96-.81-2.53-.52-.57-1.24-.86-2.15-.86Z"/>
    <path class="cls-6" d="M1721.59,479.89c-2.04,0-3.59-.6-4.66-1.79-1.06-1.19-1.59-2.9-1.59-5.13s.56-4.02,1.67-5.24c1.11-1.22,2.72-1.83,4.82-1.83,1.42,0,2.71.26,3.85.79l-.87,2.31c-1.21-.47-2.21-.71-3-.71-2.34,0-3.5,1.55-3.5,4.65,0,1.51.29,2.65.87,3.41.58.76,1.43,1.14,2.56,1.14,1.28,0,2.49-.32,3.63-.95v2.5c-.51.3-1.06.52-1.64.65-.58.13-1.29.2-2.12.2Z"/>
    <path class="cls-6" d="M1734.42,479.89c-2.1,0-3.74-.61-4.93-1.84-1.18-1.22-1.78-2.91-1.78-5.06s.55-3.94,1.65-5.2c1.1-1.26,2.61-1.89,4.53-1.89,1.78,0,3.19.54,4.22,1.62,1.03,1.08,1.55,2.57,1.55,4.47v1.55h-9c.04,1.31.39,2.32,1.06,3.02.67.7,1.61,1.06,2.82,1.06.8,0,1.54-.08,2.23-.23s1.43-.4,2.22-.75v2.33c-.7.33-1.41.57-2.12.71-.72.14-1.53.21-2.45.21ZM1733.9,468.07c-.91,0-1.64.29-2.19.87-.55.58-.88,1.42-.98,2.53h6.13c-.02-1.12-.29-1.96-.81-2.53-.52-.57-1.24-.86-2.15-.86Z"/>
    <path class="cls-6" d="M1742.76,462.56c0-.51.14-.91.42-1.18.28-.28.68-.42,1.2-.42s.9.14,1.18.42c.28.28.42.67.42,1.18s-.14.87-.42,1.15c-.28.28-.67.42-1.18.42s-.92-.14-1.2-.42c-.28-.28-.42-.67-.42-1.15ZM1745.8,479.64h-2.87v-13.5h2.87v13.5Z"/>
    <path class="cls-6" d="M1752.97,479.64l-5.13-13.5h3.03l2.75,7.85c.47,1.32.76,2.38.86,3.2h.1c.07-.59.36-1.65.85-3.2l2.75-7.85h3.05l-5.15,13.5h-3.1Z"/>
    <path class="cls-6" d="M1769.17,479.89c-2.1,0-3.74-.61-4.93-1.84-1.18-1.22-1.78-2.91-1.78-5.06s.55-3.94,1.65-5.2c1.1-1.26,2.61-1.89,4.53-1.89,1.78,0,3.19.54,4.22,1.62,1.03,1.08,1.55,2.57,1.55,4.47v1.55h-9c.04,1.31.39,2.32,1.06,3.02.67.7,1.61,1.06,2.82,1.06.8,0,1.54-.08,2.23-.23s1.43-.4,2.22-.75v2.33c-.7.33-1.41.57-2.12.71-.72.14-1.53.21-2.45.21ZM1768.65,468.07c-.91,0-1.64.29-2.19.87-.55.58-.88,1.42-.98,2.53h6.13c-.02-1.12-.29-1.96-.81-2.53-.52-.57-1.24-.86-2.15-.86Z"/>
    <path class="cls-6" d="M1786.75,475.8c0,1.32-.48,2.33-1.44,3.03-.96.7-2.33,1.06-4.12,1.06s-3.24-.27-4.33-.82v-2.48c1.59.73,3.06,1.1,4.43,1.1,1.77,0,2.65-.53,2.65-1.6,0-.34-.1-.63-.29-.85-.2-.23-.52-.46-.96-.71-.45-.24-1.07-.52-1.87-.83-1.55-.6-2.61-1.2-3.16-1.81-.55-.6-.82-1.38-.82-2.34,0-1.16.47-2.05,1.4-2.69.93-.64,2.2-.96,3.8-.96s3.09.32,4.5.96l-.93,2.16c-1.46-.6-2.68-.9-3.67-.9-1.51,0-2.27.43-2.27,1.29,0,.42.2.78.59,1.07s1.26.7,2.58,1.21c1.12.43,1.92.83,2.43,1.18.5.36.88.77,1.12,1.24s.37,1.03.37,1.68Z"/>
    <path class="cls-6" d="M1801.38,477.57c.7,0,1.4-.11,2.1-.33v2.16c-.32.14-.73.25-1.23.35-.5.09-1.02.14-1.56.14-2.72,0-4.08-1.43-4.08-4.3v-7.28h-1.84v-1.27l1.98-1.05.98-2.86h1.77v3h3.84v2.17h-3.84v7.23c0,.69.17,1.2.52,1.53.35.33.8.49,1.36.49Z"/>
    <path class="cls-6" d="M1818.05,479.64h-2.88v-8.3c0-1.04-.21-1.82-.63-2.33-.42-.51-1.08-.77-2-.77-1.2,0-2.09.36-2.66,1.08-.57.72-.85,1.93-.85,3.62v6.7h-2.87v-18.99h2.87v4.82c0,.77-.05,1.6-.15,2.48h.18c.39-.65.93-1.16,1.63-1.51.7-.36,1.51-.54,2.44-.54,3.27,0,4.91,1.65,4.91,4.94v8.8Z"/>
    <path class="cls-6" d="M1827.94,479.89c-2.1,0-3.74-.61-4.93-1.84-1.18-1.22-1.78-2.91-1.78-5.06s.55-3.94,1.65-5.2c1.1-1.26,2.61-1.89,4.53-1.89,1.78,0,3.19.54,4.22,1.62,1.03,1.08,1.55,2.57,1.55,4.47v1.55h-9c.04,1.31.39,2.32,1.06,3.02.67.7,1.61,1.06,2.82,1.06.8,0,1.54-.08,2.23-.23s1.43-.4,2.22-.75v2.33c-.7.33-1.41.57-2.12.71-.72.14-1.53.21-2.45.21ZM1827.41,468.07c-.91,0-1.64.29-2.19.87-.55.58-.88,1.42-.98,2.53h6.13c-.02-1.12-.29-1.96-.81-2.53-.52-.57-1.24-.86-2.15-.86Z"/>
    <path class="cls-6" d="M1722.18,497.19c0,1.86-.61,3.29-1.83,4.29-1.22.99-2.96,1.49-5.21,1.49h-1.86v6.68h-2.92v-17.85h5.14c2.23,0,3.9.46,5.01,1.37,1.11.91,1.67,2.25,1.67,4.03ZM1713.28,500.51h1.55c1.5,0,2.6-.26,3.29-.78.7-.52,1.05-1.33,1.05-2.44,0-1.03-.31-1.79-.94-2.29s-1.6-.76-2.93-.76h-2.03v6.27Z"/>
    <path class="cls-6" d="M1733.89,509.64l-.57-1.88h-.1c-.65.82-1.31,1.38-1.96,1.68s-1.51.45-2.54.45c-1.33,0-2.36-.36-3.11-1.07-.75-.72-1.12-1.73-1.12-3.04,0-1.39.52-2.44,1.55-3.15,1.03-.71,2.61-1.09,4.72-1.16l2.33-.07v-.72c0-.86-.2-1.51-.6-1.93-.4-.43-1.03-.64-1.87-.64-.69,0-1.36.1-1.99.31-.63.2-1.24.44-1.83.72l-.93-2.05c.73-.38,1.53-.67,2.4-.87.87-.2,1.69-.3,2.47-.3,1.72,0,3.01.37,3.89,1.12s1.31,1.92,1.31,3.53v9.09h-2.05ZM1729.62,507.69c1.04,0,1.88-.29,2.51-.87.63-.58.95-1.4.95-2.45v-1.17l-1.73.07c-1.35.05-2.33.27-2.95.68-.62.4-.92,1.02-.92,1.85,0,.6.18,1.07.54,1.4.36.33.9.49,1.61.49Z"/>
    <path class="cls-6" d="M1737.89,496.14h3.12l2.75,7.65c.42,1.09.69,2.12.83,3.08h.1c.07-.45.21-.99.4-1.63s1.23-3.67,3.1-9.1h3.1l-5.77,15.3c-1.05,2.81-2.8,4.21-5.25,4.21-.63,0-1.25-.07-1.86-.21v-2.27c.43.1.92.15,1.48.15,1.38,0,2.36-.8,2.92-2.4l.5-1.27-5.42-13.5Z"/>
    <path class="cls-6" d="M1764.72,509.64h-2.88v-8.33c0-1.03-.2-1.8-.59-2.31-.39-.51-1-.76-1.83-.76-1.11,0-1.92.36-2.44,1.08-.52.72-.77,1.92-.77,3.59v6.73h-2.87v-13.5h2.25l.4,1.77h.15c.38-.64.92-1.14,1.63-1.49.71-.35,1.5-.52,2.35-.52,2.07,0,3.45.71,4.12,2.12h.2c.4-.67.96-1.19,1.69-1.56.72-.37,1.55-.56,2.49-.56,1.61,0,2.78.41,3.52,1.22.74.81,1.1,2.05,1.1,3.72v8.8h-2.87v-8.33c0-1.03-.2-1.8-.59-2.31-.39-.51-1.01-.76-1.84-.76-1.12,0-1.93.35-2.45,1.04-.52.7-.78,1.76-.78,3.2v7.15Z"/>
    <path class="cls-6" d="M1783.14,509.89c-2.1,0-3.74-.61-4.93-1.84-1.18-1.22-1.78-2.91-1.78-5.06s.55-3.94,1.65-5.2c1.1-1.26,2.61-1.89,4.53-1.89,1.78,0,3.19.54,4.22,1.62,1.03,1.08,1.55,2.57,1.55,4.47v1.55h-9c.04,1.31.39,2.32,1.06,3.02.67.7,1.61,1.06,2.82,1.06.8,0,1.54-.08,2.23-.23s1.43-.4,2.22-.75v2.33c-.7.33-1.41.57-2.12.71-.72.14-1.53.21-2.45.21ZM1782.62,498.07c-.91,0-1.64.29-2.19.87-.55.58-.88,1.42-.98,2.53h6.13c-.02-1.12-.29-1.96-.81-2.53-.52-.57-1.24-.86-2.15-.86Z"/>
    <path class="cls-6" d="M1803.53,509.64h-2.88v-8.3c0-1.04-.21-1.82-.63-2.33-.42-.51-1.08-.77-2-.77-1.21,0-2.1.36-2.66,1.07s-.84,1.92-.84,3.6v6.73h-2.87v-13.5h2.25l.4,1.77h.15c.41-.64.99-1.14,1.73-1.49.75-.35,1.58-.52,2.49-.52,3.24,0,4.86,1.65,4.86,4.94v8.8Z"/>
    <path class="cls-6" d="M1812.55,507.57c.7,0,1.4-.11,2.1-.33v2.16c-.32.14-.73.25-1.23.35-.5.09-1.02.14-1.56.14-2.72,0-4.08-1.43-4.08-4.3v-7.28h-1.84v-1.27l1.98-1.05.98-2.86h1.77v3h3.84v2.17h-3.84v7.23c0,.69.17,1.2.52,1.53.35.33.8.49,1.36.49Z"/>
    <path class="cls-6" d="M1700.86,535.8c0,1.32-.48,2.33-1.44,3.03-.96.7-2.33,1.06-4.12,1.06s-3.24-.27-4.33-.82v-2.48c1.59.73,3.06,1.1,4.43,1.1,1.77,0,2.65-.53,2.65-1.6,0-.34-.1-.63-.29-.85-.2-.23-.52-.46-.96-.71-.45-.24-1.07-.52-1.87-.83-1.55-.6-2.61-1.2-3.16-1.81-.55-.6-.82-1.38-.82-2.34,0-1.16.47-2.05,1.4-2.69.93-.64,2.2-.96,3.8-.96s3.09.32,4.5.96l-.93,2.16c-1.46-.6-2.68-.9-3.67-.9-1.51,0-2.27.43-2.27,1.29,0,.42.2.78.59,1.07s1.26.7,2.58,1.21c1.12.43,1.92.83,2.43,1.18.5.36.88.77,1.12,1.24s.37,1.03.37,1.68Z"/>
    <path class="cls-6" d="M1713.48,539.64l-.4-1.77h-.15c-.4.63-.97,1.12-1.7,1.48-.74.36-1.58.54-2.52.54-1.63,0-2.86-.41-3.66-1.22-.8-.81-1.21-2.05-1.21-3.7v-8.83h2.89v8.33c0,1.03.21,1.81.63,2.33.42.52,1.09.78,1.99.78,1.2,0,2.09-.36,2.66-1.08.57-.72.85-1.93.85-3.62v-6.73h2.88v13.5h-2.26Z"/>
    <path class="cls-6" d="M1725.28,539.89c-2.04,0-3.59-.6-4.66-1.79-1.06-1.19-1.59-2.9-1.59-5.13s.56-4.02,1.67-5.24c1.11-1.22,2.72-1.83,4.82-1.83,1.42,0,2.71.26,3.85.79l-.87,2.31c-1.21-.47-2.21-.71-3-.71-2.34,0-3.5,1.55-3.5,4.65,0,1.51.29,2.65.87,3.41.58.76,1.43,1.14,2.56,1.14,1.28,0,2.49-.32,3.63-.95v2.5c-.51.3-1.06.52-1.64.65-.58.13-1.29.2-2.12.2Z"/>
    <path class="cls-6" d="M1737.65,539.89c-2.04,0-3.59-.6-4.66-1.79-1.06-1.19-1.59-2.9-1.59-5.13s.56-4.02,1.67-5.24c1.11-1.22,2.72-1.83,4.82-1.83,1.42,0,2.71.26,3.85.79l-.87,2.31c-1.21-.47-2.21-.71-3-.71-2.34,0-3.5,1.55-3.5,4.65,0,1.51.29,2.65.87,3.41.58.76,1.43,1.14,2.56,1.14,1.28,0,2.49-.32,3.63-.95v2.5c-.51.3-1.06.52-1.64.65-.58.13-1.29.2-2.12.2Z"/>
    <path class="cls-6" d="M1750.48,539.89c-2.1,0-3.74-.61-4.93-1.84-1.18-1.22-1.78-2.91-1.78-5.06s.55-3.94,1.65-5.2c1.1-1.26,2.61-1.89,4.53-1.89,1.78,0,3.19.54,4.22,1.62,1.03,1.08,1.55,2.57,1.55,4.47v1.55h-9c.04,1.31.39,2.32,1.06,3.02.67.7,1.61,1.06,2.82,1.06.8,0,1.54-.08,2.23-.23s1.43-.4,2.22-.75v2.33c-.7.33-1.41.57-2.12.71-.72.14-1.53.21-2.45.21ZM1749.96,528.07c-.91,0-1.64.29-2.19.87-.55.58-.88,1.42-.98,2.53h6.13c-.02-1.12-.29-1.96-.81-2.53-.52-.57-1.24-.86-2.15-.86Z"/>
    <path class="cls-6" d="M1768.06,535.8c0,1.32-.48,2.33-1.44,3.03-.96.7-2.33,1.06-4.12,1.06s-3.24-.27-4.33-.82v-2.48c1.59.73,3.06,1.1,4.43,1.1,1.77,0,2.65-.53,2.65-1.6,0-.34-.1-.63-.29-.85-.2-.23-.52-.46-.96-.71-.45-.24-1.07-.52-1.87-.83-1.55-.6-2.61-1.2-3.16-1.81-.55-.6-.82-1.38-.82-2.34,0-1.16.47-2.05,1.4-2.69.93-.64,2.2-.96,3.8-.96s3.09.32,4.5.96l-.93,2.16c-1.46-.6-2.68-.9-3.67-.9-1.51,0-2.27.43-2.27,1.29,0,.42.2.78.59,1.07s1.26.7,2.58,1.21c1.12.43,1.92.83,2.43,1.18.5.36.88.77,1.12,1.24s.37,1.03.37,1.68Z"/>
    <path class="cls-6" d="M1780.23,535.8c0,1.32-.48,2.33-1.44,3.03-.96.7-2.33,1.06-4.12,1.06s-3.24-.27-4.33-.82v-2.48c1.59.73,3.06,1.1,4.43,1.1,1.77,0,2.65-.53,2.65-1.6,0-.34-.1-.63-.29-.85-.2-.23-.52-.46-.96-.71-.45-.24-1.07-.52-1.87-.83-1.55-.6-2.61-1.2-3.16-1.81-.55-.6-.82-1.38-.82-2.34,0-1.16.47-2.05,1.4-2.69.93-.64,2.2-.96,3.8-.96s3.09.32,4.5.96l-.93,2.16c-1.46-.6-2.68-.9-3.67-.9-1.51,0-2.27.43-2.27,1.29,0,.42.2.78.59,1.07s1.26.7,2.58,1.21c1.12.43,1.92.83,2.43,1.18.5.36.88.77,1.12,1.24s.37,1.03.37,1.68Z"/>
    <path class="cls-6" d="M1790.11,528.31h-3.3v11.33h-2.88v-11.33h-2.22v-1.34l2.22-.88v-.88c0-1.59.38-2.78,1.12-3.55.75-.77,1.89-1.15,3.43-1.15,1.01,0,2,.17,2.98.5l-.76,2.17c-.71-.23-1.38-.34-2.03-.34s-1.12.2-1.42.6c-.3.4-.45,1.01-.45,1.81v.88h3.3v2.17Z"/>
    <path class="cls-6" d="M1801.92,539.64l-.4-1.77h-.15c-.4.63-.97,1.12-1.7,1.48-.74.36-1.58.54-2.52.54-1.63,0-2.86-.41-3.66-1.22-.8-.81-1.21-2.05-1.21-3.7v-8.83h2.89v8.33c0,1.03.21,1.81.63,2.33.42.52,1.09.78,1.99.78,1.2,0,2.09-.36,2.66-1.08.57-.72.85-1.93.85-3.62v-6.73h2.88v13.5h-2.26Z"/>
    <path class="cls-6" d="M1811.14,539.64h-2.87v-18.99h2.87v18.99Z"/>
    <path class="cls-6" d="M1818.11,539.64h-2.87v-18.99h2.87v18.99Z"/>
    <path class="cls-6" d="M1820.16,526.14h3.12l2.75,7.65c.42,1.09.69,2.12.83,3.08h.1c.07-.45.21-.99.4-1.63s1.23-3.67,3.1-9.1h3.1l-5.77,15.3c-1.05,2.81-2.8,4.21-5.25,4.21-.63,0-1.25-.07-1.86-.21v-2.27c.43.1.92.15,1.48.15,1.38,0,2.36-.8,2.92-2.4l.5-1.27-5.42-13.5Z"/>
  </g>
  <g>
    <rect class="cls-4" x="252.59" y="163.83" width="29.54" height="62.39" rx="2.84" ry="2.84" transform="translate(216.21 -131.93) rotate(45)"/>
    <rect class="cls-4" x="190.2" y="226.22" width="29.54" height="62.39" rx="2.84" ry="2.84" transform="translate(242.05 -69.54) rotate(45)"/>
    <line class="cls-4" x1="255.61" y1="206.68" x2="219.22" y2="243.07"/>
  </g>
  <g id="paper_plane" data-name="paper plane">
    <path class="cls-4" d="M647.94,278.4l26.6-101.98c1.15-4.39-3.46-8.06-7.49-5.96l-101.98,53.21c-3.56,1.86-3.79,6.86-.42,9.04l75.37,48.77c3,1.94,7.01.38,7.91-3.07Z"/>
    <polyline class="cls-4" points="619.94 269.71 599 285.41 599 254"/>
    <line class="cls-4" x1="599.71" y1="253.61" x2="651.35" y2="196.41"/>
  </g>
  <g>
    <rect class="cls-4" x="931.66" y="182.04" width="141.84" height="92.5" rx="1" ry="1"/>
    <rect class="cls-4" x="931.66" y="200.54" width="141.84" height="18.5"/>
    <line class="cls-4" x1="944" y1="249.87" x2="968.66" y2="249.87"/>
    <line class="cls-4" x1="987.17" y1="249.87" x2="1005.67" y2="249.87"/>
  </g>
  <g>
    <g>
      <path class="cls-4" d="M1372.04,238.96c-5.02,1.16-9.79,3.16-14.01,5.88"/>
      <path class="cls-4" d="M1406.14,244.84c-4.22-2.71-8.99-4.72-14.01-5.88"/>
      <path class="cls-4" d="M1426.18,273.01c-1.16-5.02-3.16-9.79-5.88-14.01"/>
      <path class="cls-4" d="M1343.86,259c-2.71,4.22-4.72,8.99-5.88,14.01"/>
      <path class="cls-4" d="M1404.43,285.95c.17-.92.23-1.91.23-2.89,0-12.53-10.05-22.58-22.58-22.58s-22.58,10.05-22.58,22.58c0,.98.06,1.96.23,2.89"/>
      <polyline class="cls-4" points="1372.04 238.96 1372.04 225.3 1392.13 225.3 1392.13 238.96"/>
      <polyline class="cls-4" points="1406.14 244.84 1415.83 235.1 1430.04 249.31 1420.3 259"/>
      <polyline class="cls-4" points="1426.15 273.01 1439.84 273.01 1439.84 285.95"/>
      <polyline class="cls-4" points="1324.33 285.95 1324.33 273.01 1338.02 273.01"/>
      <polyline class="cls-4" points="1343.86 259 1334.12 249.31 1348.33 235.1 1358.03 244.84"/>
    </g>
    <path class="cls-4" d="M1315.66,176.21h132.84v108.73c0,.55-.45,1-1,1h-130.84c-.55,0-1-.45-1-1v-108.73h0Z"/>
    <line class="cls-4" x1="1315.66" y1="199.31" x2="1448.5" y2="199.31"/>
    <circle class="cls-3" cx="1332.99" cy="187.76" r="2.89"/>
    <circle class="cls-3" cx="1344.54" cy="187.76" r="2.89"/>
    <circle class="cls-3" cx="1356.09" cy="187.76" r="2.89"/>
  </g>
  <g>
    <path class="cls-1" d="M1784.39,188.81h-42.16l-12.05-30.11c6.02,0,12.05,0,18.07,6.02,2.7-3.44,6.02-6.02,15.06-6.15,9.03.13,12.1,1.98,15.06,6.15,6.02-6.02,12.05-6.02,18.07-6.02l-12.05,30.11Z"/>
    <path class="cls-1" d="M1784.39,188.81h-42.16c-12.05,12.05-30.11,33.2-30.11,54.2,0,28.92,22.67,52.48,51.19,54.05,28.53-1.57,51.19-25.13,51.19-54.05,0-21.01-18.07-42.16-30.11-54.2Z"/>
    <path class="cls-4" d="M1748.85,227.96c0-7.98,6.47-14.45,14.45-14.45s14.45,6.47,14.45,14.45"/>
    <path class="cls-4" d="M1777.76,252.05c0,7.98-6.47,14.45-14.45,14.45s-14.45-6.47-14.45-14.45"/>
    <path class="cls-4" d="M1748.85,227.96c0,9.63,4.93,12.04,14.45,12.04,8.65,0,14.46,2.41,14.46,12.05"/>
  </g>
</svg>