<?xml version="1.0" encoding="UTF-8"?>
<svg id="Layer_1" data-name="Layer 1" xmlns="http://www.w3.org/2000/svg" viewBox="0 0 1822.5 623.5">
  <defs>
    <style>
      .cls-1, .cls-2, .cls-3 {
        stroke-miterlimit: 10;
      }

      .cls-1, .cls-3, .cls-4 {
        stroke: #fff;
        stroke-width: 3px;
      }

      .cls-1, .cls-4 {
        fill: none;
      }

      .cls-5 {
        font-family: OpenSans-Semibold, 'Open Sans';
        font-size: 25px;
        font-weight: 600;
      }

      .cls-5, .cls-6, .cls-7 {
        fill: #666;
      }

      .cls-2 {
        fill: #f2f2f2;
        stroke: #00a99d;
      }

      .cls-3 {
        fill: #163567;
      }

      .cls-6, .cls-8, .cls-9 {
        stroke-width: 0px;
      }

      .cls-8 {
        fill: #ff931e;
      }

      .cls-9 {
        fill: #00a99d;
      }

      .cls-7 {
        font-family: OpenSans-Bold, 'Open Sans';
        font-size: 31px;
        font-weight: 700;
      }

      .cls-4 {
        stroke-linecap: round;
        stroke-linejoin: round;
      }
    </style>
  </defs>
  <rect class="cls-8" x="31.5" y="57.5" width="237" height="237" rx="20.7" ry="20.7"/>
  <rect class="cls-8" x="412.5" y="57.5" width="237" height="237" rx="20.7" ry="20.7"/>
  <rect class="cls-8" x="793.5" y="57.5" width="237" height="237" rx="20.7" ry="20.7"/>
  <rect class="cls-8" x="1174.5" y="57.5" width="237" height="237" rx="20.7" ry="20.7"/>
  <rect class="cls-8" x="1555.5" y="57.5" width="237" height="237" rx="20.7" ry="20.7"/>
  <text class="cls-7" transform="translate(52.39 26.57)"><tspan x="0" y="0">CREATE LINK</tspan></text>
  <text class="cls-7" transform="translate(440.53 26.57)"><tspan x="0" y="0">SHARE LINK</tspan></text>
  <text class="cls-7" transform="translate(837.37 26.57)"><tspan x="0" y="0">PAYMENT</tspan></text>
  <text class="cls-7" transform="translate(1205.25 26.57)"><tspan x="0" y="0">PROCESSED</tspan></text>
  <text class="cls-7" transform="translate(1533.98 26.57)"><tspan x="0" y="0">RECEIVE PAYMENT</tspan></text>
  <rect class="cls-2" x=".5" y="349.5" width="298" height="154" rx="14.06" ry="14.06"/>
  <g>
    <polygon class="cls-9" points="355.51 146.79 338.52 146.79 361.61 175.14 338.52 203.5 355.51 203.5 378.6 175.14 355.51 146.79"/>
    <rect class="cls-9" x="318.9" y="163.03" width="44.46" height="24.23"/>
  </g>
  <g>
    <polygon class="cls-9" points="728.51 146.79 711.52 146.79 734.61 175.14 711.52 203.5 728.51 203.5 751.6 175.14 728.51 146.79"/>
    <rect class="cls-9" x="691.9" y="163.03" width="44.46" height="24.23"/>
  </g>
  <g>
    <polygon class="cls-9" points="1109.51 146.79 1092.52 146.79 1115.61 175.14 1092.52 203.5 1109.51 203.5 1132.6 175.14 1109.51 146.79"/>
    <rect class="cls-9" x="1072.9" y="163.03" width="44.46" height="24.23"/>
  </g>
  <g>
    <polygon class="cls-9" points="1480.51 146.79 1463.52 146.79 1486.61 175.14 1463.52 203.5 1480.51 203.5 1503.6 175.14 1480.51 146.79"/>
    <rect class="cls-9" x="1443.9" y="163.03" width="44.46" height="24.23"/>
  </g>
  <g>
    <path class="cls-6" d="M75.87,399.14h-2.92v-15.34h-5.25v-2.5h13.42v2.5h-5.25v15.34Z"/>
    <path class="cls-6" d="M95.42,399.14h-2.88v-8.3c0-1.04-.21-1.82-.63-2.33-.42-.51-1.08-.77-2-.77-1.2,0-2.09.36-2.66,1.08-.57.72-.85,1.93-.85,3.62v6.7h-2.87v-18.99h2.87v4.82c0,.77-.05,1.6-.15,2.48h.18c.39-.65.93-1.16,1.63-1.51.7-.36,1.51-.54,2.44-.54,3.27,0,4.91,1.65,4.91,4.94v8.8Z"/>
    <path class="cls-6" d="M105.31,399.39c-2.1,0-3.74-.61-4.93-1.84-1.18-1.22-1.78-2.91-1.78-5.06s.55-3.94,1.65-5.2c1.1-1.26,2.61-1.89,4.53-1.89,1.78,0,3.19.54,4.22,1.62,1.03,1.08,1.55,2.57,1.55,4.47v1.55h-9c.04,1.31.39,2.32,1.06,3.02.67.7,1.61,1.06,2.82,1.06.8,0,1.54-.08,2.23-.23s1.43-.4,2.22-.75v2.33c-.7.33-1.41.57-2.12.71-.72.14-1.53.21-2.45.21ZM104.79,387.57c-.91,0-1.64.29-2.19.87-.55.58-.88,1.42-.98,2.53h6.13c-.02-1.11-.29-1.96-.81-2.53-.52-.57-1.24-.86-2.15-.86Z"/>
    <path class="cls-6" d="M128.33,399.14l-5.18-14.9h-.1c.14,2.21.21,4.29.21,6.23v8.68h-2.65v-17.85h4.11l4.96,14.2h.07l5.1-14.2h4.13v17.85h-2.81v-8.83c0-.89.02-2.04.07-3.47.04-1.42.08-2.29.12-2.59h-.1l-5.36,14.88h-2.58Z"/>
    <path class="cls-6" d="M149.28,399.39c-2.1,0-3.74-.61-4.93-1.84-1.18-1.22-1.78-2.91-1.78-5.06s.55-3.94,1.65-5.2c1.1-1.26,2.61-1.89,4.53-1.89,1.78,0,3.19.54,4.22,1.62,1.03,1.08,1.55,2.57,1.55,4.47v1.55h-9c.04,1.31.39,2.32,1.06,3.02.67.7,1.61,1.06,2.82,1.06.8,0,1.54-.08,2.23-.23s1.43-.4,2.22-.75v2.33c-.7.33-1.41.57-2.12.71-.72.14-1.53.21-2.45.21ZM148.75,387.57c-.91,0-1.64.29-2.19.87-.55.58-.88,1.42-.98,2.53h6.13c-.02-1.11-.29-1.96-.81-2.53-.52-.57-1.24-.86-2.15-.86Z"/>
    <path class="cls-6" d="M164.64,385.4c.58,0,1.05.04,1.43.12l-.28,2.67c-.41-.1-.83-.15-1.27-.15-1.15,0-2.08.37-2.79,1.12-.71.75-1.07,1.72-1.07,2.92v7.06h-2.87v-13.5h2.25l.38,2.38h.15c.45-.81,1.03-1.44,1.75-1.92.72-.47,1.5-.71,2.33-.71Z"/>
    <path class="cls-6" d="M174.01,399.39c-2.04,0-3.59-.6-4.66-1.79-1.06-1.19-1.59-2.9-1.59-5.13s.56-4.02,1.67-5.24c1.11-1.22,2.72-1.83,4.82-1.83,1.42,0,2.71.26,3.85.79l-.87,2.31c-1.21-.47-2.21-.71-3-.71-2.34,0-3.5,1.55-3.5,4.65,0,1.51.29,2.65.87,3.41.58.76,1.43,1.14,2.56,1.14,1.28,0,2.49-.32,3.63-.95v2.5c-.51.3-1.06.52-1.64.65-.58.13-1.29.2-2.12.2Z"/>
    <path class="cls-6" d="M192.82,399.14h-2.88v-8.3c0-1.04-.21-1.82-.63-2.33-.42-.51-1.08-.77-2-.77-1.2,0-2.09.36-2.66,1.08-.57.72-.85,1.93-.85,3.62v6.7h-2.87v-18.99h2.87v4.82c0,.77-.05,1.6-.15,2.48h.18c.39-.65.93-1.16,1.63-1.51.7-.36,1.51-.54,2.44-.54,3.27,0,4.91,1.65,4.91,4.94v8.8Z"/>
    <path class="cls-6" d="M205.26,399.14l-.57-1.88h-.1c-.65.82-1.31,1.38-1.96,1.68s-1.51.45-2.54.45c-1.33,0-2.36-.36-3.11-1.07-.75-.72-1.12-1.73-1.12-3.04,0-1.39.52-2.44,1.55-3.15,1.03-.71,2.61-1.09,4.72-1.16l2.33-.07v-.72c0-.86-.2-1.51-.6-1.94-.4-.43-1.03-.64-1.87-.64-.69,0-1.36.1-1.99.31-.63.2-1.24.44-1.83.72l-.93-2.05c.73-.38,1.53-.67,2.4-.87.87-.2,1.69-.3,2.47-.3,1.72,0,3.01.37,3.89,1.12.88.75,1.31,1.92,1.31,3.53v9.09h-2.05ZM200.99,397.19c1.04,0,1.88-.29,2.51-.87.63-.58.95-1.4.95-2.45v-1.17l-1.73.07c-1.35.05-2.33.27-2.95.68-.62.4-.92,1.02-.92,1.85,0,.6.18,1.07.54,1.4.36.33.9.49,1.61.49Z"/>
    <path class="cls-6" d="M223.19,399.14h-2.88v-8.3c0-1.04-.21-1.82-.63-2.33-.42-.51-1.08-.77-2-.77-1.21,0-2.1.36-2.66,1.07-.56.72-.84,1.92-.84,3.6v6.73h-2.87v-13.5h2.25l.4,1.77h.15c.41-.64.99-1.14,1.73-1.49.75-.35,1.58-.52,2.49-.52,3.24,0,4.86,1.65,4.86,4.94v8.8Z"/>
    <path class="cls-6" d="M232.21,397.07c.7,0,1.4-.11,2.1-.33v2.16c-.32.14-.73.25-1.23.35-.5.09-1.02.14-1.56.14-2.72,0-4.08-1.43-4.08-4.3v-7.28h-1.84v-1.27l1.98-1.05.98-2.86h1.77v3h3.84v2.17h-3.84v7.23c0,.69.17,1.2.52,1.53.35.33.8.49,1.36.49Z"/>
    <path class="cls-6" d="M48.45,415.64v1.58l-2.31.43c.21.29.39.63.53,1.05s.21.85.21,1.32c0,1.39-.48,2.49-1.44,3.28-.96.8-2.28,1.2-3.97,1.2-.43,0-.82-.03-1.17-.1-.62.38-.93.83-.93,1.34,0,.31.14.54.43.7.29.15.82.23,1.59.23h2.36c1.49,0,2.62.32,3.39.95.77.63,1.16,1.55,1.16,2.75,0,1.53-.63,2.71-1.89,3.54-1.26.83-3.08,1.25-5.47,1.25-1.84,0-3.24-.33-4.21-.98s-1.45-1.58-1.45-2.78c0-.83.26-1.53.79-2.09.52-.57,1.26-.96,2.2-1.18-.38-.16-.7-.42-.95-.79s-.37-.74-.37-1.14c0-.5.14-.93.43-1.28.28-.35.71-.7,1.27-1.04-.7-.3-1.27-.79-1.7-1.47-.44-.68-.65-1.48-.65-2.39,0-1.46.46-2.6,1.39-3.41.92-.8,2.24-1.21,3.95-1.21.38,0,.78.03,1.2.08.42.05.73.11.95.17h4.67ZM37.84,431.24c0,.62.28,1.09.84,1.43.56.33,1.34.5,2.35.5,1.56,0,2.73-.22,3.49-.67.76-.45,1.15-1.04,1.15-1.78,0-.59-.21-1-.63-1.25s-1.2-.37-2.34-.37h-2.17c-.82,0-1.47.19-1.96.58-.48.39-.73.91-.73,1.57ZM39.08,420.01c0,.85.22,1.5.65,1.95.43.46,1.06.68,1.87.68,1.66,0,2.49-.89,2.49-2.66,0-.88-.21-1.56-.62-2.03-.41-.48-1.04-.71-1.87-.71s-1.46.24-1.89.71c-.43.47-.64,1.16-.64,2.06Z"/>
    <path class="cls-6" d="M56.85,429.39c-2.1,0-3.74-.61-4.93-1.84-1.18-1.22-1.78-2.91-1.78-5.06s.55-3.94,1.65-5.2c1.1-1.26,2.61-1.89,4.53-1.89,1.78,0,3.19.54,4.22,1.62,1.03,1.08,1.55,2.57,1.55,4.47v1.55h-9c.04,1.31.39,2.32,1.06,3.02.67.7,1.61,1.06,2.82,1.06.8,0,1.54-.08,2.23-.23s1.43-.4,2.22-.75v2.33c-.7.33-1.41.57-2.12.71-.72.14-1.53.21-2.45.21ZM56.32,417.57c-.91,0-1.64.29-2.19.87-.55.58-.88,1.42-.98,2.53h6.13c-.02-1.12-.29-1.96-.81-2.53-.52-.57-1.24-.86-2.15-.86Z"/>
    <path class="cls-6" d="M77.23,429.14h-2.88v-8.3c0-1.04-.21-1.82-.63-2.33-.42-.51-1.08-.77-2-.77-1.21,0-2.1.36-2.66,1.07s-.84,1.92-.84,3.6v6.73h-2.87v-13.5h2.25l.4,1.77h.15c.41-.64.99-1.14,1.73-1.49.75-.35,1.58-.52,2.49-.52,3.24,0,4.86,1.65,4.86,4.94v8.8Z"/>
    <path class="cls-6" d="M87.12,429.39c-2.1,0-3.74-.61-4.93-1.84-1.18-1.22-1.78-2.91-1.78-5.06s.55-3.94,1.65-5.2c1.1-1.26,2.61-1.89,4.53-1.89,1.78,0,3.19.54,4.22,1.62,1.03,1.08,1.55,2.57,1.55,4.47v1.55h-9c.04,1.31.39,2.32,1.06,3.02.67.7,1.61,1.06,2.82,1.06.8,0,1.54-.08,2.23-.23s1.43-.4,2.22-.75v2.33c-.7.33-1.41.57-2.12.71-.72.14-1.53.21-2.45.21ZM86.6,417.57c-.91,0-1.64.29-2.19.87-.55.58-.88,1.42-.98,2.53h6.13c-.02-1.12-.29-1.96-.81-2.53-.52-.57-1.24-.86-2.15-.86Z"/>
    <path class="cls-6" d="M102.48,415.4c.58,0,1.05.04,1.43.12l-.28,2.67c-.41-.1-.83-.15-1.27-.15-1.15,0-2.08.37-2.79,1.12-.71.75-1.07,1.72-1.07,2.92v7.06h-2.87v-13.5h2.25l.38,2.38h.15c.45-.8,1.03-1.44,1.75-1.92.72-.47,1.5-.71,2.33-.71Z"/>
    <path class="cls-6" d="M114.86,429.14l-.57-1.88h-.1c-.65.82-1.31,1.38-1.96,1.68s-1.51.45-2.54.45c-1.33,0-2.36-.36-3.11-1.07-.75-.72-1.12-1.73-1.12-3.04,0-1.39.52-2.44,1.55-3.15,1.03-.71,2.61-1.09,4.72-1.16l2.33-.07v-.72c0-.86-.2-1.51-.6-1.93-.4-.43-1.03-.64-1.87-.64-.69,0-1.36.1-1.99.31-.63.2-1.24.44-1.83.72l-.93-2.05c.73-.38,1.53-.67,2.4-.87.87-.2,1.69-.3,2.47-.3,1.72,0,3.01.37,3.89,1.12s1.31,1.92,1.31,3.53v9.09h-2.05ZM110.58,427.19c1.04,0,1.88-.29,2.51-.87.63-.58.95-1.4.95-2.45v-1.17l-1.73.07c-1.35.05-2.33.27-2.95.68-.62.4-.92,1.02-.92,1.85,0,.6.18,1.07.54,1.4.36.33.9.49,1.61.49Z"/>
    <path class="cls-6" d="M125.94,427.07c.7,0,1.4-.11,2.1-.33v2.16c-.32.14-.73.25-1.23.35-.5.09-1.02.14-1.56.14-2.72,0-4.08-1.43-4.08-4.3v-7.28h-1.84v-1.27l1.98-1.05.98-2.86h1.77v3h3.84v2.17h-3.84v7.23c0,.69.17,1.2.52,1.53.35.33.8.49,1.36.49Z"/>
    <path class="cls-6" d="M136.63,429.39c-2.1,0-3.74-.61-4.93-1.84-1.18-1.22-1.78-2.91-1.78-5.06s.55-3.94,1.65-5.2c1.1-1.26,2.61-1.89,4.53-1.89,1.78,0,3.19.54,4.22,1.62,1.03,1.08,1.55,2.57,1.55,4.47v1.55h-9c.04,1.31.39,2.32,1.06,3.02.67.7,1.61,1.06,2.82,1.06.8,0,1.54-.08,2.23-.23s1.43-.4,2.22-.75v2.33c-.7.33-1.41.57-2.12.71-.72.14-1.53.21-2.45.21ZM136.11,417.57c-.91,0-1.64.29-2.19.87-.55.58-.88,1.42-.98,2.53h6.13c-.02-1.12-.29-1.96-.81-2.53-.52-.57-1.24-.86-2.15-.86Z"/>
    <path class="cls-6" d="M154.21,425.3c0,1.32-.48,2.33-1.44,3.03-.96.7-2.33,1.06-4.12,1.06s-3.24-.27-4.33-.82v-2.48c1.59.73,3.06,1.1,4.43,1.1,1.77,0,2.65-.53,2.65-1.6,0-.34-.1-.63-.29-.85-.2-.23-.52-.46-.96-.71-.45-.24-1.07-.52-1.87-.83-1.55-.6-2.61-1.2-3.16-1.81-.55-.6-.82-1.38-.82-2.34,0-1.16.47-2.05,1.4-2.69.93-.64,2.2-.96,3.8-.96s3.09.32,4.5.96l-.93,2.16c-1.46-.6-2.68-.9-3.67-.9-1.51,0-2.27.43-2.27,1.29,0,.42.2.78.59,1.07s1.26.7,2.58,1.21c1.12.43,1.92.83,2.43,1.18.5.36.88.77,1.12,1.24s.37,1.03.37,1.68Z"/>
    <path class="cls-6" d="M172.25,429.14l-.57-1.88h-.1c-.65.82-1.31,1.38-1.96,1.68s-1.51.45-2.54.45c-1.33,0-2.36-.36-3.11-1.07-.75-.72-1.12-1.73-1.12-3.04,0-1.39.52-2.44,1.55-3.15,1.03-.71,2.61-1.09,4.72-1.16l2.33-.07v-.72c0-.86-.2-1.51-.6-1.93-.4-.43-1.03-.64-1.87-.64-.69,0-1.36.1-1.99.31-.63.2-1.24.44-1.83.72l-.93-2.05c.73-.38,1.53-.67,2.4-.87.87-.2,1.69-.3,2.47-.3,1.72,0,3.01.37,3.89,1.12s1.31,1.92,1.31,3.53v9.09h-2.05ZM167.98,427.19c1.04,0,1.88-.29,2.51-.87.63-.58.95-1.4.95-2.45v-1.17l-1.73.07c-1.35.05-2.33.27-2.95.68-.62.4-.92,1.02-.92,1.85,0,.6.18,1.07.54,1.4.36.33.9.49,1.61.49Z"/>
    <path class="cls-6" d="M194.32,429.14l-.4-1.77h-.15c-.4.63-.97,1.12-1.7,1.48-.74.36-1.58.54-2.52.54-1.63,0-2.86-.41-3.66-1.22-.8-.81-1.21-2.05-1.21-3.7v-8.83h2.89v8.33c0,1.03.21,1.81.63,2.33.42.52,1.09.78,1.99.78,1.2,0,2.09-.36,2.66-1.08.57-.72.85-1.93.85-3.62v-6.73h2.88v13.5h-2.26Z"/>
    <path class="cls-6" d="M212.55,429.14h-2.88v-8.3c0-1.04-.21-1.82-.63-2.33-.42-.51-1.08-.77-2-.77-1.21,0-2.1.36-2.66,1.07s-.84,1.92-.84,3.6v6.73h-2.87v-13.5h2.25l.4,1.77h.15c.41-.64.99-1.14,1.73-1.49.75-.35,1.58-.52,2.49-.52,3.24,0,4.86,1.65,4.86,4.94v8.8Z"/>
    <path class="cls-6" d="M216.37,412.06c0-.51.14-.91.42-1.18.28-.28.68-.42,1.2-.42s.9.14,1.18.42c.28.28.42.67.42,1.18s-.14.87-.42,1.15c-.28.28-.67.42-1.18.42s-.92-.14-1.2-.42c-.28-.28-.42-.67-.42-1.15ZM219.41,429.14h-2.87v-13.5h2.87v13.5Z"/>
    <path class="cls-6" d="M228.04,429.39c-1.67,0-2.97-.61-3.92-1.84s-1.42-2.94-1.42-5.13.48-3.92,1.44-5.16c.96-1.24,2.28-1.86,3.97-1.86.85,0,1.61.16,2.28.47.67.31,1.27.83,1.8,1.54h.1l.32-1.77h2.38v19.51h-2.88v-5.72c0-.36.02-.74.05-1.14s.06-.7.09-.92h-.16c-.85,1.34-2.19,2.01-4.04,2.01ZM228.86,427.09c1.2,0,2.07-.35,2.59-1.04.53-.7.79-1.75.79-3.16v-.45c0-1.67-.27-2.87-.81-3.6s-1.41-1.1-2.62-1.1c-1.03,0-1.81.41-2.34,1.22s-.81,1.98-.81,3.5c0,3.08,1.07,4.63,3.2,4.63Z"/>
    <path class="cls-6" d="M248.61,429.14l-.4-1.77h-.15c-.4.63-.97,1.12-1.7,1.48-.74.36-1.58.54-2.52.54-1.63,0-2.86-.41-3.66-1.22-.8-.81-1.21-2.05-1.21-3.7v-8.83h2.89v8.33c0,1.03.21,1.81.63,2.33.42.52,1.09.78,1.99.78,1.2,0,2.09-.36,2.66-1.08.57-.72.85-1.93.85-3.62v-6.73h2.88v13.5h-2.26Z"/>
    <path class="cls-6" d="M260.85,429.39c-2.1,0-3.74-.61-4.93-1.84-1.18-1.22-1.78-2.91-1.78-5.06s.55-3.94,1.65-5.2c1.1-1.26,2.61-1.89,4.53-1.89,1.78,0,3.19.54,4.22,1.62,1.03,1.08,1.55,2.57,1.55,4.47v1.55h-9c.04,1.31.39,2.32,1.06,3.02.67.7,1.61,1.06,2.82,1.06.8,0,1.54-.08,2.23-.23s1.43-.4,2.22-.75v2.33c-.7.33-1.41.57-2.12.71-.72.14-1.53.21-2.45.21ZM260.33,417.57c-.91,0-1.64.29-2.19.87-.55.58-.88,1.42-.98,2.53h6.13c-.02-1.12-.29-1.96-.81-2.53-.52-.57-1.24-.86-2.15-.86Z"/>
    <path class="cls-6" d="M81.01,459.39c-1.71,0-3.04-.61-3.98-1.84h-.17c.11,1.14.17,1.83.17,2.08v5.53h-2.87v-19.51h2.32c.07.25.2.85.4,1.81h.15c.89-1.37,2.24-2.05,4.03-2.05,1.69,0,3,.61,3.94,1.83.94,1.22,1.41,2.93,1.41,5.14s-.48,3.93-1.43,5.16c-.96,1.24-2.28,1.86-3.96,1.86ZM80.32,447.74c-1.14,0-1.97.33-2.5,1-.53.67-.79,1.73-.79,3.2v.43c0,1.64.26,2.83.78,3.57.52.74,1.37,1.1,2.55,1.1.99,0,1.76-.41,2.29-1.22s.81-1.97.81-3.48-.27-2.66-.8-3.44-1.32-1.17-2.35-1.17Z"/>
    <path class="cls-6" d="M98.19,459.14l-.57-1.88h-.1c-.65.82-1.31,1.38-1.96,1.68s-1.51.45-2.54.45c-1.33,0-2.36-.36-3.11-1.07-.75-.72-1.12-1.73-1.12-3.04,0-1.39.52-2.44,1.55-3.15,1.03-.71,2.61-1.09,4.72-1.16l2.33-.07v-.72c0-.86-.2-1.51-.6-1.93-.4-.43-1.03-.64-1.87-.64-.69,0-1.36.1-1.99.31-.63.2-1.24.44-1.83.72l-.93-2.05c.73-.38,1.53-.67,2.4-.87.87-.2,1.69-.3,2.47-.3,1.72,0,3.01.37,3.89,1.12s1.31,1.92,1.31,3.53v9.09h-2.05ZM93.92,457.19c1.04,0,1.88-.29,2.51-.87.63-.58.95-1.4.95-2.45v-1.17l-1.73.07c-1.35.05-2.33.27-2.95.68-.62.4-.92,1.02-.92,1.85,0,.6.18,1.07.54,1.4.36.33.9.49,1.61.49Z"/>
    <path class="cls-6" d="M102.19,445.64h3.12l2.75,7.65c.42,1.09.69,2.12.83,3.08h.1c.07-.45.21-.99.4-1.63s1.23-3.67,3.1-9.1h3.1l-5.77,15.3c-1.05,2.81-2.8,4.21-5.25,4.21-.63,0-1.25-.07-1.86-.21v-2.27c.43.1.92.15,1.48.15,1.38,0,2.36-.8,2.92-2.4l.5-1.27-5.42-13.5Z"/>
    <path class="cls-6" d="M129.02,459.14h-2.88v-8.33c0-1.03-.2-1.8-.59-2.31-.39-.51-1-.76-1.83-.76-1.11,0-1.92.36-2.44,1.08-.52.72-.77,1.92-.77,3.59v6.73h-2.87v-13.5h2.25l.4,1.77h.15c.38-.64.92-1.14,1.63-1.49.71-.35,1.5-.52,2.35-.52,2.07,0,3.45.71,4.12,2.12h.2c.4-.67.96-1.19,1.69-1.56.72-.37,1.55-.56,2.49-.56,1.61,0,2.78.41,3.52,1.22.74.81,1.1,2.05,1.1,3.72v8.8h-2.87v-8.33c0-1.03-.2-1.8-.59-2.31-.39-.51-1.01-.76-1.84-.76-1.12,0-1.93.35-2.45,1.04-.52.7-.78,1.76-.78,3.2v7.15Z"/>
    <path class="cls-6" d="M147.44,459.39c-2.1,0-3.74-.61-4.93-1.84-1.18-1.22-1.78-2.91-1.78-5.06s.55-3.94,1.65-5.2c1.1-1.26,2.61-1.89,4.53-1.89,1.78,0,3.19.54,4.22,1.62,1.03,1.08,1.55,2.57,1.55,4.47v1.55h-9c.04,1.31.39,2.32,1.06,3.02.67.7,1.61,1.06,2.82,1.06.8,0,1.54-.08,2.23-.23s1.43-.4,2.22-.75v2.33c-.7.33-1.41.57-2.12.71-.72.14-1.53.21-2.45.21ZM146.92,447.57c-.91,0-1.64.29-2.19.87-.55.58-.88,1.42-.98,2.53h6.13c-.02-1.12-.29-1.96-.81-2.53-.52-.57-1.24-.86-2.15-.86Z"/>
    <path class="cls-6" d="M167.83,459.14h-2.88v-8.3c0-1.04-.21-1.82-.63-2.33-.42-.51-1.08-.77-2-.77-1.21,0-2.1.36-2.66,1.07s-.84,1.92-.84,3.6v6.73h-2.87v-13.5h2.25l.4,1.77h.15c.41-.64.99-1.14,1.73-1.49.75-.35,1.58-.52,2.49-.52,3.24,0,4.86,1.65,4.86,4.94v8.8Z"/>
    <path class="cls-6" d="M176.85,457.07c.7,0,1.4-.11,2.1-.33v2.16c-.32.14-.73.25-1.23.35-.5.09-1.02.14-1.56.14-2.72,0-4.08-1.43-4.08-4.3v-7.28h-1.84v-1.27l1.98-1.05.98-2.86h1.77v3h3.84v2.17h-3.84v7.23c0,.69.17,1.2.52,1.53.35.33.8.49,1.36.49Z"/>
    <path class="cls-6" d="M191.01,459.14h-2.87v-18.99h2.87v18.99Z"/>
    <path class="cls-6" d="M194.94,442.06c0-.51.14-.91.42-1.18.28-.28.68-.42,1.2-.42s.9.14,1.18.42c.28.28.42.67.42,1.18s-.14.87-.42,1.15c-.28.28-.67.42-1.18.42s-.92-.14-1.2-.42c-.28-.28-.42-.67-.42-1.15ZM197.98,459.14h-2.87v-13.5h2.87v13.5Z"/>
    <path class="cls-6" d="M213.96,459.14h-2.88v-8.3c0-1.04-.21-1.82-.63-2.33-.42-.51-1.08-.77-2-.77-1.21,0-2.1.36-2.66,1.07s-.84,1.92-.84,3.6v6.73h-2.87v-13.5h2.25l.4,1.77h.15c.41-.64.99-1.14,1.73-1.49.75-.35,1.58-.52,2.49-.52,3.24,0,4.86,1.65,4.86,4.94v8.8Z"/>
    <path class="cls-6" d="M220.72,452.01l1.62-2.03,4.08-4.35h3.31l-5.43,5.8,5.77,7.7h-3.37l-4.33-5.92-1.58,1.29v4.63h-2.84v-18.99h2.84v9.27l-.15,2.6h.07Z"/>
  </g>
  <rect class="cls-2" x="383" y="350" width="298" height="177" rx="14.06" ry="14.06"/>
  <text class="cls-5" transform="translate(428.43 399.64)"><tspan x="0" y="0">The link is shared </tspan><tspan x="-5.16" y="30">with the customer </tspan><tspan x="-4.88" y="60">via QR, SMS, Email </tspan><tspan x="7.44" y="90">or Social Medias</tspan></text>
  <rect class="cls-2" x="769" y="350" width="298" height="273" rx="14.06" ry="14.06"/>
  <g>
    <path class="cls-6" d="M843.68,399.64h-2.92v-15.34h-5.25v-2.5h13.42v2.5h-5.25v15.34Z"/>
    <path class="cls-6" d="M863.24,399.64h-2.88v-8.3c0-1.04-.21-1.82-.63-2.33-.42-.51-1.08-.77-2-.77-1.2,0-2.09.36-2.66,1.08-.57.72-.85,1.93-.85,3.62v6.7h-2.87v-18.99h2.87v4.82c0,.77-.05,1.6-.15,2.48h.18c.39-.65.93-1.16,1.63-1.51.7-.36,1.51-.54,2.44-.54,3.27,0,4.91,1.65,4.91,4.94v8.8Z"/>
    <path class="cls-6" d="M873.13,399.89c-2.1,0-3.74-.61-4.93-1.84-1.18-1.22-1.78-2.91-1.78-5.06s.55-3.94,1.65-5.2c1.1-1.26,2.61-1.89,4.53-1.89,1.78,0,3.19.54,4.22,1.62,1.03,1.08,1.55,2.57,1.55,4.47v1.55h-9c.04,1.31.39,2.32,1.06,3.02.67.7,1.61,1.06,2.82,1.06.8,0,1.54-.08,2.23-.23s1.43-.4,2.22-.75v2.33c-.7.33-1.41.57-2.12.71-.72.14-1.53.21-2.45.21ZM872.6,388.07c-.91,0-1.64.29-2.19.87-.55.58-.88,1.42-.98,2.53h6.13c-.02-1.11-.29-1.96-.81-2.53-.52-.57-1.24-.86-2.15-.86Z"/>
    <path class="cls-6" d="M896.03,384.04c-1.68,0-3,.59-3.96,1.78-.96,1.19-1.44,2.83-1.44,4.92s.46,3.85,1.39,4.97,2.26,1.68,4.01,1.68c.76,0,1.49-.08,2.2-.23.71-.15,1.44-.34,2.21-.58v2.5c-1.4.53-2.99.79-4.76.79-2.61,0-4.62-.79-6.02-2.37-1.4-1.58-2.1-3.85-2.1-6.79,0-1.86.34-3.48,1.02-4.87s1.66-2.46,2.95-3.2c1.29-.74,2.8-1.11,4.53-1.11,1.82,0,3.51.38,5.05,1.15l-1.05,2.43c-.6-.28-1.24-.54-1.91-.75-.67-.22-1.38-.32-2.12-.32Z"/>
    <path class="cls-6" d="M913.5,399.64l-.4-1.77h-.15c-.4.63-.97,1.12-1.7,1.48-.74.36-1.58.54-2.52.54-1.63,0-2.86-.41-3.66-1.22-.8-.81-1.21-2.05-1.21-3.7v-8.83h2.89v8.33c0,1.03.21,1.81.63,2.33.42.52,1.09.78,1.99.78,1.2,0,2.09-.36,2.66-1.08.57-.72.85-1.93.85-3.62v-6.73h2.88v13.5h-2.26Z"/>
    <path class="cls-6" d="M928.91,395.8c0,1.32-.48,2.33-1.44,3.03-.96.7-2.33,1.06-4.12,1.06s-3.24-.27-4.33-.82v-2.48c1.59.73,3.06,1.1,4.43,1.1,1.77,0,2.65-.53,2.65-1.6,0-.34-.1-.63-.29-.85-.2-.23-.52-.46-.96-.71-.45-.24-1.07-.52-1.87-.83-1.55-.6-2.61-1.2-3.16-1.81-.55-.6-.82-1.38-.82-2.34,0-1.16.47-2.05,1.4-2.69.93-.64,2.2-.96,3.8-.96s3.09.32,4.5.96l-.93,2.16c-1.46-.6-2.68-.9-3.67-.9-1.51,0-2.27.43-2.27,1.29,0,.42.2.78.59,1.07s1.26.7,2.58,1.21c1.12.43,1.92.83,2.43,1.18.5.36.88.77,1.12,1.24s.37,1.03.37,1.68Z"/>
    <path class="cls-6" d="M937.04,397.57c.7,0,1.4-.11,2.1-.33v2.16c-.32.14-.73.25-1.23.35-.5.09-1.02.14-1.56.14-2.72,0-4.08-1.43-4.08-4.3v-7.28h-1.84v-1.27l1.98-1.05.98-2.86h1.77v3h3.84v2.17h-3.84v7.23c0,.69.17,1.2.52,1.53.35.33.8.49,1.36.49Z"/>
    <path class="cls-6" d="M953.81,392.87c0,2.21-.57,3.93-1.7,5.16s-2.71,1.86-4.72,1.86c-1.26,0-2.38-.29-3.35-.85-.97-.57-1.71-1.39-2.23-2.45-.52-1.07-.78-2.3-.78-3.71,0-2.19.56-3.9,1.68-5.13,1.12-1.23,2.71-1.84,4.75-1.84s3.5.63,4.64,1.89c1.14,1.26,1.71,2.95,1.71,5.08ZM943.99,392.87c0,3.12,1.15,4.68,3.46,4.68s3.42-1.56,3.42-4.68-1.15-4.63-3.44-4.63c-1.2,0-2.08.4-2.62,1.2-.54.8-.81,1.94-.81,3.43Z"/>
    <path class="cls-6" d="M968.49,399.64h-2.88v-8.33c0-1.03-.2-1.8-.59-2.31-.39-.51-1-.76-1.83-.76-1.11,0-1.92.36-2.44,1.08-.52.72-.77,1.92-.77,3.59v6.73h-2.87v-13.5h2.25l.4,1.77h.15c.38-.64.92-1.14,1.63-1.49.71-.35,1.5-.52,2.35-.52,2.07,0,3.45.71,4.12,2.12h.2c.4-.67.96-1.19,1.69-1.56.72-.37,1.55-.56,2.49-.56,1.61,0,2.78.41,3.52,1.22.74.81,1.1,2.06,1.1,3.72v8.8h-2.87v-8.33c0-1.03-.2-1.8-.59-2.31-.39-.51-1.01-.76-1.84-.76-1.12,0-1.93.35-2.45,1.04-.52.7-.78,1.76-.78,3.2v7.15Z"/>
    <path class="cls-6" d="M986.91,399.89c-2.1,0-3.74-.61-4.93-1.84-1.18-1.22-1.78-2.91-1.78-5.06s.55-3.94,1.65-5.2c1.1-1.26,2.61-1.89,4.53-1.89,1.78,0,3.19.54,4.22,1.62,1.03,1.08,1.55,2.57,1.55,4.47v1.55h-9c.04,1.31.39,2.32,1.06,3.02.67.7,1.61,1.06,2.82,1.06.8,0,1.54-.08,2.23-.23s1.43-.4,2.22-.75v2.33c-.7.33-1.41.57-2.12.71-.72.14-1.53.21-2.45.21ZM986.38,388.07c-.91,0-1.64.29-2.19.87-.55.58-.88,1.42-.98,2.53h6.13c-.02-1.11-.29-1.96-.81-2.53-.52-.57-1.24-.86-2.15-.86Z"/>
    <path class="cls-6" d="M1002.26,385.9c.58,0,1.05.04,1.43.12l-.28,2.67c-.41-.1-.83-.15-1.27-.15-1.15,0-2.08.37-2.79,1.12-.71.75-1.07,1.72-1.07,2.92v7.06h-2.87v-13.5h2.25l.38,2.38h.15c.45-.81,1.03-1.44,1.75-1.92.72-.47,1.5-.71,2.33-.71Z"/>
    <path class="cls-6" d="M841.58,429.89c-2.04,0-3.59-.6-4.66-1.79-1.06-1.19-1.59-2.9-1.59-5.13s.56-4.02,1.67-5.24c1.11-1.22,2.72-1.83,4.82-1.83,1.42,0,2.71.26,3.85.79l-.87,2.31c-1.21-.47-2.21-.71-3-.71-2.34,0-3.5,1.55-3.5,4.65,0,1.51.29,2.65.87,3.41.58.76,1.43,1.14,2.56,1.14,1.28,0,2.49-.32,3.63-.95v2.5c-.51.3-1.06.52-1.64.65-.58.13-1.29.2-2.12.2Z"/>
    <path class="cls-6" d="M860.39,429.64h-2.88v-8.3c0-1.04-.21-1.82-.63-2.33-.42-.51-1.08-.77-2-.77-1.2,0-2.09.36-2.66,1.08-.57.72-.85,1.93-.85,3.62v6.7h-2.87v-18.99h2.87v4.82c0,.77-.05,1.6-.15,2.48h.18c.39-.65.93-1.16,1.63-1.51.7-.36,1.51-.54,2.44-.54,3.27,0,4.91,1.65,4.91,4.94v8.8Z"/>
    <path class="cls-6" d="M876.36,422.87c0,2.21-.57,3.93-1.7,5.16s-2.71,1.86-4.72,1.86c-1.26,0-2.38-.29-3.35-.85-.97-.57-1.71-1.39-2.23-2.45-.52-1.07-.78-2.3-.78-3.71,0-2.19.56-3.9,1.68-5.13,1.12-1.23,2.71-1.84,4.75-1.84s3.5.63,4.64,1.89c1.14,1.26,1.71,2.95,1.71,5.08ZM866.54,422.87c0,3.12,1.15,4.68,3.46,4.68s3.42-1.56,3.42-4.68-1.15-4.63-3.44-4.63c-1.2,0-2.08.4-2.62,1.2s-.81,1.94-.81,3.43Z"/>
    <path class="cls-6" d="M891.63,422.87c0,2.21-.57,3.93-1.7,5.16s-2.71,1.86-4.72,1.86c-1.26,0-2.38-.29-3.35-.85-.97-.57-1.71-1.39-2.23-2.45-.52-1.07-.78-2.3-.78-3.71,0-2.19.56-3.9,1.68-5.13,1.12-1.23,2.71-1.84,4.75-1.84s3.5.63,4.64,1.89c1.14,1.26,1.71,2.95,1.71,5.08ZM881.81,422.87c0,3.12,1.15,4.68,3.46,4.68s3.42-1.56,3.42-4.68-1.15-4.63-3.44-4.63c-1.2,0-2.08.4-2.62,1.2s-.81,1.94-.81,3.43Z"/>
    <path class="cls-6" d="M904,425.8c0,1.32-.48,2.33-1.44,3.03-.96.7-2.33,1.06-4.12,1.06s-3.24-.27-4.33-.82v-2.48c1.59.73,3.06,1.1,4.43,1.1,1.77,0,2.65-.53,2.65-1.6,0-.34-.1-.63-.29-.85-.2-.23-.52-.46-.96-.71-.45-.24-1.07-.52-1.87-.83-1.55-.6-2.61-1.2-3.16-1.81-.55-.6-.82-1.38-.82-2.34,0-1.16.47-2.05,1.4-2.69.93-.64,2.2-.96,3.8-.96s3.09.32,4.5.96l-.93,2.16c-1.46-.6-2.68-.9-3.67-.9-1.51,0-2.27.43-2.27,1.29,0,.42.2.78.59,1.07s1.26.7,2.58,1.21c1.12.43,1.92.83,2.43,1.18.5.36.88.77,1.12,1.24s.37,1.03.37,1.68Z"/>
    <path class="cls-6" d="M913,429.89c-2.1,0-3.74-.61-4.93-1.84-1.18-1.22-1.78-2.91-1.78-5.06s.55-3.94,1.65-5.2c1.1-1.26,2.61-1.89,4.53-1.89,1.78,0,3.19.54,4.22,1.62,1.03,1.08,1.55,2.57,1.55,4.47v1.55h-9c.04,1.31.39,2.32,1.06,3.02.67.7,1.61,1.06,2.82,1.06.8,0,1.54-.08,2.23-.23s1.43-.4,2.22-.75v2.33c-.7.33-1.41.57-2.12.71-.72.14-1.53.21-2.45.21ZM912.47,418.07c-.91,0-1.64.29-2.19.87-.55.58-.88,1.42-.98,2.53h6.13c-.02-1.12-.29-1.96-.81-2.53-.52-.57-1.24-.86-2.15-.86Z"/>
    <path class="cls-6" d="M930.57,425.8c0,1.32-.48,2.33-1.44,3.03-.96.7-2.33,1.06-4.12,1.06s-3.24-.27-4.33-.82v-2.48c1.59.73,3.06,1.1,4.43,1.1,1.77,0,2.65-.53,2.65-1.6,0-.34-.1-.63-.29-.85-.2-.23-.52-.46-.96-.71-.45-.24-1.07-.52-1.87-.83-1.55-.6-2.61-1.2-3.16-1.81-.55-.6-.82-1.38-.82-2.34,0-1.16.47-2.05,1.4-2.69.93-.64,2.2-.96,3.8-.96s3.09.32,4.5.96l-.93,2.16c-1.46-.6-2.68-.9-3.67-.9-1.51,0-2.27.43-2.27,1.29,0,.42.2.78.59,1.07s1.26.7,2.58,1.21c1.12.43,1.92.83,2.43,1.18.5.36.88.77,1.12,1.24s.37,1.03.37,1.68Z"/>
    <path class="cls-6" d="M951.54,429.64h-2.88v-8.33c0-1.03-.2-1.8-.59-2.31-.39-.51-1-.76-1.83-.76-1.11,0-1.92.36-2.44,1.08-.52.72-.77,1.92-.77,3.59v6.73h-2.87v-13.5h2.25l.4,1.77h.15c.38-.64.92-1.14,1.63-1.49.71-.35,1.5-.52,2.35-.52,2.07,0,3.45.71,4.12,2.12h.2c.4-.67.96-1.19,1.69-1.56.72-.37,1.55-.56,2.49-.56,1.61,0,2.78.41,3.52,1.22.74.81,1.1,2.05,1.1,3.72v8.8h-2.87v-8.33c0-1.03-.2-1.8-.59-2.31-.39-.51-1.01-.76-1.84-.76-1.12,0-1.93.35-2.45,1.04-.52.7-.78,1.76-.78,3.2v7.15Z"/>
    <path class="cls-6" d="M972.52,429.64l-.57-1.88h-.1c-.65.82-1.31,1.38-1.96,1.68s-1.51.45-2.54.45c-1.33,0-2.36-.36-3.11-1.07-.75-.72-1.12-1.73-1.12-3.04,0-1.39.52-2.44,1.55-3.15,1.03-.71,2.61-1.09,4.72-1.16l2.33-.07v-.72c0-.86-.2-1.51-.6-1.93-.4-.43-1.03-.64-1.87-.64-.69,0-1.36.1-1.99.31-.63.2-1.24.44-1.83.72l-.93-2.05c.73-.38,1.53-.67,2.4-.87.87-.2,1.69-.3,2.47-.3,1.72,0,3.01.37,3.89,1.12s1.31,1.92,1.31,3.53v9.09h-2.05ZM968.24,427.69c1.04,0,1.88-.29,2.51-.87.63-.58.95-1.4.95-2.45v-1.17l-1.73.07c-1.35.05-2.33.27-2.95.68-.62.4-.92,1.02-.92,1.85,0,.6.18,1.07.54,1.4.36.33.9.49,1.61.49Z"/>
    <path class="cls-6" d="M981.34,422.51l1.62-2.03,4.08-4.35h3.31l-5.43,5.8,5.77,7.7h-3.37l-4.33-5.92-1.58,1.29v4.63h-2.84v-18.99h2.84v9.27l-.15,2.6h.07Z"/>
    <path class="cls-6" d="M998.76,429.89c-2.1,0-3.74-.61-4.93-1.84-1.18-1.22-1.78-2.91-1.78-5.06s.55-3.94,1.65-5.2c1.1-1.26,2.61-1.89,4.53-1.89,1.78,0,3.19.54,4.22,1.62,1.03,1.08,1.55,2.57,1.55,4.47v1.55h-9c.04,1.31.39,2.32,1.06,3.02.67.7,1.61,1.06,2.82,1.06.8,0,1.54-.08,2.23-.23s1.43-.4,2.22-.75v2.33c-.7.33-1.41.57-2.12.71-.72.14-1.53.21-2.45.21ZM998.24,418.07c-.91,0-1.64.29-2.19.87-.55.58-.88,1.42-.98,2.53h6.13c-.02-1.12-.29-1.96-.81-2.53-.52-.57-1.24-.86-2.15-.86Z"/>
    <path class="cls-6" d="M822.87,459.89c-1.71,0-3.04-.61-3.98-1.84h-.17c.11,1.14.17,1.83.17,2.08v5.53h-2.87v-19.51h2.32c.07.25.2.85.4,1.81h.15c.89-1.37,2.24-2.05,4.03-2.05,1.69,0,3,.61,3.94,1.83.94,1.22,1.41,2.93,1.41,5.14s-.48,3.93-1.43,5.16c-.96,1.24-2.28,1.86-3.96,1.86ZM822.17,448.24c-1.14,0-1.97.33-2.5,1-.53.67-.79,1.73-.79,3.2v.43c0,1.64.26,2.83.78,3.57.52.74,1.37,1.1,2.55,1.1.99,0,1.76-.41,2.29-1.22s.81-1.97.81-3.48-.27-2.66-.8-3.44-1.32-1.17-2.35-1.17Z"/>
    <path class="cls-6" d="M840.05,459.64l-.57-1.88h-.1c-.65.82-1.31,1.38-1.96,1.68s-1.51.45-2.54.45c-1.33,0-2.36-.36-3.11-1.07-.75-.72-1.12-1.73-1.12-3.04,0-1.39.52-2.44,1.55-3.15,1.03-.71,2.61-1.09,4.72-1.16l2.33-.07v-.72c0-.86-.2-1.51-.6-1.93-.4-.43-1.03-.64-1.87-.64-.69,0-1.36.1-1.99.31-.63.2-1.24.44-1.83.72l-.93-2.05c.73-.38,1.53-.67,2.4-.87.87-.2,1.69-.3,2.47-.3,1.72,0,3.01.37,3.89,1.12s1.31,1.92,1.31,3.53v9.09h-2.05ZM835.77,457.69c1.04,0,1.88-.29,2.51-.87.63-.58.95-1.4.95-2.45v-1.17l-1.73.07c-1.35.05-2.33.27-2.95.68-.62.4-.92,1.02-.92,1.85,0,.6.18,1.07.54,1.4.36.33.9.49,1.61.49Z"/>
    <path class="cls-6" d="M844.05,446.14h3.12l2.75,7.65c.42,1.09.69,2.12.83,3.08h.1c.07-.45.21-.99.4-1.63s1.23-3.67,3.1-9.1h3.1l-5.77,15.3c-1.05,2.81-2.8,4.21-5.25,4.21-.63,0-1.25-.07-1.86-.21v-2.27c.43.1.92.15,1.48.15,1.38,0,2.36-.8,2.92-2.4l.5-1.27-5.42-13.5Z"/>
    <path class="cls-6" d="M870.88,459.64h-2.88v-8.33c0-1.03-.2-1.8-.59-2.31-.39-.51-1-.76-1.83-.76-1.11,0-1.92.36-2.44,1.08-.52.72-.77,1.92-.77,3.59v6.73h-2.87v-13.5h2.25l.4,1.77h.15c.38-.64.92-1.14,1.63-1.49.71-.35,1.5-.52,2.35-.52,2.07,0,3.45.71,4.12,2.12h.2c.4-.67.96-1.19,1.69-1.56.72-.37,1.55-.56,2.49-.56,1.61,0,2.78.41,3.52,1.22.74.81,1.1,2.05,1.1,3.72v8.8h-2.87v-8.33c0-1.03-.2-1.8-.59-2.31-.39-.51-1.01-.76-1.84-.76-1.12,0-1.93.35-2.45,1.04-.52.7-.78,1.76-.78,3.2v7.15Z"/>
    <path class="cls-6" d="M889.3,459.89c-2.1,0-3.74-.61-4.93-1.84-1.18-1.22-1.78-2.91-1.78-5.06s.55-3.94,1.65-5.2c1.1-1.26,2.61-1.89,4.53-1.89,1.78,0,3.19.54,4.22,1.62,1.03,1.08,1.55,2.57,1.55,4.47v1.55h-9c.04,1.31.39,2.32,1.06,3.02.67.7,1.61,1.06,2.82,1.06.8,0,1.54-.08,2.23-.23s1.43-.4,2.22-.75v2.33c-.7.33-1.41.57-2.12.71-.72.14-1.53.21-2.45.21ZM888.78,448.07c-.91,0-1.64.29-2.19.87-.55.58-.88,1.42-.98,2.53h6.13c-.02-1.12-.29-1.96-.81-2.53-.52-.57-1.24-.86-2.15-.86Z"/>
    <path class="cls-6" d="M909.69,459.64h-2.88v-8.3c0-1.04-.21-1.82-.63-2.33-.42-.51-1.08-.77-2-.77-1.21,0-2.1.36-2.66,1.07s-.84,1.92-.84,3.6v6.73h-2.87v-13.5h2.25l.4,1.77h.15c.41-.64.99-1.14,1.73-1.49.75-.35,1.58-.52,2.49-.52,3.24,0,4.86,1.65,4.86,4.94v8.8Z"/>
    <path class="cls-6" d="M918.71,457.57c.7,0,1.4-.11,2.1-.33v2.16c-.32.14-.73.25-1.23.35-.5.09-1.02.14-1.56.14-2.72,0-4.08-1.43-4.08-4.3v-7.28h-1.84v-1.27l1.98-1.05.98-2.86h1.77v3h3.84v2.17h-3.84v7.23c0,.69.17,1.2.52,1.53.35.33.8.49,1.36.49Z"/>
    <path class="cls-6" d="M935.03,457.57c.7,0,1.4-.11,2.1-.33v2.16c-.32.14-.73.25-1.23.35-.5.09-1.02.14-1.56.14-2.72,0-4.08-1.43-4.08-4.3v-7.28h-1.84v-1.27l1.98-1.05.98-2.86h1.77v3h3.84v2.17h-3.84v7.23c0,.69.17,1.2.52,1.53.35.33.8.49,1.36.49Z"/>
    <path class="cls-6" d="M951.7,459.64h-2.88v-8.3c0-1.04-.21-1.82-.63-2.33-.42-.51-1.08-.77-2-.77-1.2,0-2.09.36-2.66,1.08-.57.72-.85,1.93-.85,3.62v6.7h-2.87v-18.99h2.87v4.82c0,.77-.05,1.6-.15,2.48h.18c.39-.65.93-1.16,1.63-1.51.7-.36,1.51-.54,2.44-.54,3.27,0,4.91,1.65,4.91,4.94v8.8Z"/>
    <path class="cls-6" d="M962.54,445.9c.58,0,1.05.04,1.43.12l-.28,2.67c-.41-.1-.83-.15-1.27-.15-1.15,0-2.08.37-2.79,1.12-.71.75-1.07,1.72-1.07,2.92v7.06h-2.87v-13.5h2.25l.38,2.38h.15c.45-.8,1.03-1.44,1.75-1.92.72-.47,1.5-.71,2.33-.71Z"/>
    <path class="cls-6" d="M978.45,452.87c0,2.21-.57,3.93-1.7,5.16s-2.71,1.86-4.72,1.86c-1.26,0-2.38-.29-3.35-.85-.97-.57-1.71-1.39-2.23-2.45-.52-1.07-.78-2.3-.78-3.71,0-2.19.56-3.9,1.68-5.13,1.12-1.23,2.71-1.84,4.75-1.84s3.5.63,4.64,1.89c1.14,1.26,1.71,2.95,1.71,5.08ZM968.62,452.87c0,3.12,1.15,4.68,3.46,4.68s3.42-1.56,3.42-4.68-1.15-4.63-3.44-4.63c-1.2,0-2.08.4-2.62,1.2s-.81,1.94-.81,3.43Z"/>
    <path class="cls-6" d="M991.27,459.64l-.4-1.77h-.15c-.4.63-.97,1.12-1.7,1.48-.74.36-1.58.54-2.52.54-1.63,0-2.86-.41-3.66-1.22-.8-.81-1.21-2.05-1.21-3.7v-8.83h2.89v8.33c0,1.03.21,1.81.63,2.33.42.52,1.09.78,1.99.78,1.2,0,2.09-.36,2.66-1.08.57-.72.85-1.93.85-3.62v-6.73h2.88v13.5h-2.26Z"/>
    <path class="cls-6" d="M1009.02,446.14v1.58l-2.31.43c.21.29.39.63.53,1.05s.21.85.21,1.32c0,1.39-.48,2.49-1.44,3.28-.96.8-2.28,1.2-3.97,1.2-.43,0-.82-.03-1.17-.1-.62.38-.93.83-.93,1.34,0,.31.14.54.43.7.29.15.82.23,1.59.23h2.36c1.49,0,2.62.32,3.39.95.77.63,1.16,1.55,1.16,2.75,0,1.53-.63,2.71-1.89,3.54-1.26.83-3.08,1.25-5.47,1.25-1.84,0-3.24-.33-4.21-.98s-1.45-1.58-1.45-2.78c0-.83.26-1.53.79-2.09.52-.57,1.26-.96,2.2-1.18-.38-.16-.7-.42-.95-.79s-.37-.74-.37-1.14c0-.5.14-.93.43-1.28.28-.35.71-.7,1.27-1.04-.7-.3-1.27-.79-1.7-1.47-.44-.68-.65-1.48-.65-2.39,0-1.46.46-2.6,1.39-3.41.92-.8,2.24-1.21,3.95-1.21.38,0,.78.03,1.2.08.42.05.73.11.95.17h4.67ZM998.41,461.74c0,.62.28,1.09.84,1.43.56.33,1.34.5,2.35.5,1.56,0,2.73-.22,3.49-.67.76-.45,1.15-1.04,1.15-1.78,0-.59-.21-1-.63-1.25s-1.2-.37-2.34-.37h-2.17c-.82,0-1.47.19-1.96.58-.48.39-.73.91-.73,1.57ZM999.64,450.51c0,.85.22,1.5.65,1.95.43.46,1.06.68,1.87.68,1.66,0,2.49-.89,2.49-2.66,0-.88-.21-1.56-.62-2.03-.41-.48-1.04-.71-1.87-.71s-1.46.24-1.89.71c-.43.47-.64,1.16-.64,2.06Z"/>
    <path class="cls-6" d="M1023.4,459.64h-2.88v-8.3c0-1.04-.21-1.82-.63-2.33-.42-.51-1.08-.77-2-.77-1.2,0-2.09.36-2.66,1.08-.57.72-.85,1.93-.85,3.62v6.7h-2.87v-18.99h2.87v4.82c0,.77-.05,1.6-.15,2.48h.18c.39-.65.93-1.16,1.63-1.51.7-.36,1.51-.54,2.44-.54,3.27,0,4.91,1.65,4.91,4.94v8.8Z"/>
    <path class="cls-6" d="M817.38,487.57c.7,0,1.4-.11,2.1-.33v2.16c-.32.14-.73.25-1.23.35-.5.09-1.02.14-1.56.14-2.72,0-4.08-1.43-4.08-4.3v-7.28h-1.84v-1.27l1.98-1.05.98-2.86h1.77v3h3.84v2.17h-3.84v7.23c0,.69.17,1.2.52,1.53.35.33.8.49,1.36.49Z"/>
    <path class="cls-6" d="M834.05,489.64h-2.88v-8.3c0-1.04-.21-1.82-.63-2.33-.42-.51-1.08-.77-2-.77-1.2,0-2.09.36-2.66,1.08-.57.72-.85,1.93-.85,3.62v6.7h-2.87v-18.99h2.87v4.82c0,.77-.05,1.6-.15,2.48h.18c.39-.65.93-1.16,1.63-1.51.7-.36,1.51-.54,2.44-.54,3.27,0,4.91,1.65,4.91,4.94v8.8Z"/>
    <path class="cls-6" d="M843.94,489.89c-2.1,0-3.74-.61-4.93-1.84-1.18-1.22-1.78-2.91-1.78-5.06s.55-3.94,1.65-5.2c1.1-1.26,2.61-1.89,4.53-1.89,1.78,0,3.19.54,4.22,1.62,1.03,1.08,1.55,2.57,1.55,4.47v1.55h-9c.04,1.31.39,2.32,1.06,3.02.67.7,1.61,1.06,2.82,1.06.8,0,1.54-.08,2.23-.23s1.43-.4,2.22-.75v2.33c-.7.33-1.41.57-2.12.71-.72.14-1.53.21-2.45.21ZM843.41,478.07c-.91,0-1.64.29-2.19.87-.55.58-.88,1.42-.98,2.53h6.13c-.02-1.12-.29-1.96-.81-2.53-.52-.57-1.24-.86-2.15-.86Z"/>
    <path class="cls-6" d="M859.25,489.64v-17.85h2.92v15.34h7.56v2.5h-10.47Z"/>
    <path class="cls-6" d="M872.32,472.56c0-.51.14-.91.42-1.18.28-.28.68-.42,1.2-.42s.9.14,1.18.42c.28.28.42.67.42,1.18s-.14.87-.42,1.15c-.28.28-.67.42-1.18.42s-.92-.14-1.2-.42c-.28-.28-.42-.67-.42-1.15ZM875.36,489.64h-2.87v-13.5h2.87v13.5Z"/>
    <path class="cls-6" d="M891.34,489.64h-2.88v-8.3c0-1.04-.21-1.82-.63-2.33-.42-.51-1.08-.77-2-.77-1.21,0-2.1.36-2.66,1.07s-.84,1.92-.84,3.6v6.73h-2.87v-13.5h2.25l.4,1.77h.15c.41-.64.99-1.14,1.73-1.49.75-.35,1.58-.52,2.49-.52,3.24,0,4.86,1.65,4.86,4.94v8.8Z"/>
    <path class="cls-6" d="M898.1,482.51l1.62-2.03,4.08-4.35h3.31l-5.43,5.8,5.77,7.7h-3.37l-4.33-5.92-1.58,1.29v4.63h-2.84v-18.99h2.84v9.27l-.15,2.6h.07Z"/>
    <path class="cls-6" d="M915.07,482.79c0-2.16.32-4.18.95-6.05.63-1.88,1.54-3.53,2.73-4.94h2.5c-1.13,1.53-2,3.25-2.6,5.15-.6,1.9-.9,3.84-.9,5.83s.3,3.91.9,5.77c.6,1.86,1.46,3.55,2.58,5.05h-2.48c-1.2-1.38-2.11-3-2.73-4.85-.63-1.85-.94-3.83-.94-5.96Z"/>
    <path class="cls-6" d="M932.49,489.64l-.57-1.88h-.1c-.65.82-1.31,1.38-1.96,1.68s-1.51.45-2.54.45c-1.33,0-2.36-.36-3.11-1.07-.75-.72-1.12-1.73-1.12-3.04,0-1.39.52-2.44,1.55-3.15,1.03-.71,2.61-1.09,4.72-1.16l2.33-.07v-.72c0-.86-.2-1.51-.6-1.93-.4-.43-1.03-.64-1.87-.64-.69,0-1.36.1-1.99.31-.63.2-1.24.44-1.83.72l-.93-2.05c.73-.38,1.53-.67,2.4-.87.87-.2,1.69-.3,2.47-.3,1.72,0,3.01.37,3.89,1.12s1.31,1.92,1.31,3.53v9.09h-2.05ZM928.22,487.69c1.04,0,1.88-.29,2.51-.87.63-.58.95-1.4.95-2.45v-1.17l-1.73.07c-1.35.05-2.33.27-2.95.68-.62.4-.92,1.02-.92,1.85,0,.6.18,1.07.54,1.4.36.33.9.49,1.61.49Z"/>
    <path class="cls-6" d="M959.42,489.64h-2.93v-8.04h-8.23v8.04h-2.92v-17.85h2.92v7.3h8.23v-7.3h2.93v17.85Z"/>
    <path class="cls-6" d="M975.79,482.87c0,2.21-.57,3.93-1.7,5.16s-2.71,1.86-4.72,1.86c-1.26,0-2.38-.29-3.35-.85-.97-.57-1.71-1.39-2.23-2.45-.52-1.07-.78-2.3-.78-3.71,0-2.19.56-3.9,1.68-5.13,1.12-1.23,2.71-1.84,4.75-1.84s3.5.63,4.64,1.89c1.14,1.26,1.71,2.95,1.71,5.08ZM965.96,482.87c0,3.12,1.15,4.68,3.46,4.68s3.42-1.56,3.42-4.68-1.15-4.63-3.44-4.63c-1.2,0-2.08.4-2.62,1.2s-.81,1.94-.81,3.43Z"/>
    <path class="cls-6" d="M988.15,485.8c0,1.32-.48,2.33-1.44,3.03-.96.7-2.33,1.06-4.12,1.06s-3.24-.27-4.33-.82v-2.48c1.59.73,3.06,1.1,4.43,1.1,1.77,0,2.65-.53,2.65-1.6,0-.34-.1-.63-.29-.85-.2-.23-.52-.46-.96-.71-.45-.24-1.07-.52-1.87-.83-1.55-.6-2.61-1.2-3.16-1.81-.55-.6-.82-1.38-.82-2.34,0-1.16.47-2.05,1.4-2.69.93-.64,2.2-.96,3.8-.96s3.09.32,4.5.96l-.93,2.16c-1.46-.6-2.68-.9-3.67-.9-1.51,0-2.27.43-2.27,1.29,0,.42.2.78.59,1.07s1.26.7,2.58,1.21c1.12.43,1.92.83,2.43,1.18.5.36.88.77,1.12,1.24s.37,1.03.37,1.68Z"/>
    <path class="cls-6" d="M996.28,487.57c.7,0,1.4-.11,2.1-.33v2.16c-.32.14-.73.25-1.23.35-.5.09-1.02.14-1.56.14-2.72,0-4.08-1.43-4.08-4.3v-7.28h-1.84v-1.27l1.98-1.05.98-2.86h1.77v3h3.84v2.17h-3.84v7.23c0,.69.17,1.2.52,1.53.35.33.8.49,1.36.49Z"/>
    <path class="cls-6" d="M1006.97,489.89c-2.1,0-3.74-.61-4.93-1.84-1.18-1.22-1.78-2.91-1.78-5.06s.55-3.94,1.65-5.2c1.1-1.26,2.61-1.89,4.53-1.89,1.78,0,3.19.54,4.22,1.62,1.03,1.08,1.55,2.57,1.55,4.47v1.55h-9c.04,1.31.39,2.32,1.06,3.02.67.7,1.61,1.06,2.82,1.06.8,0,1.54-.08,2.23-.23s1.43-.4,2.22-.75v2.33c-.7.33-1.41.57-2.12.71-.72.14-1.53.21-2.45.21ZM1006.45,478.07c-.91,0-1.64.29-2.19.87-.55.58-.88,1.42-.98,2.53h6.13c-.02-1.12-.29-1.96-.81-2.53-.52-.57-1.24-.86-2.15-.86Z"/>
    <path class="cls-6" d="M1020.04,489.89c-1.68,0-3-.61-3.94-1.83s-1.42-2.93-1.42-5.14.48-3.94,1.43-5.17c.96-1.23,2.28-1.85,3.97-1.85s3.12.66,4.05,1.97h.15c-.14-.97-.21-1.73-.21-2.29v-4.92h2.88v18.99h-2.25l-.5-1.77h-.13c-.92,1.34-2.27,2.01-4.04,2.01ZM1020.8,487.57c1.18,0,2.04-.33,2.58-1,.54-.66.81-1.74.83-3.23v-.4c0-1.7-.28-2.91-.83-3.63-.55-.72-1.42-1.07-2.6-1.07-1.01,0-1.79.41-2.33,1.23-.55.82-.82,1.98-.82,3.5s.26,2.64.79,3.42c.53.79,1.32,1.18,2.38,1.18Z"/>
    <path class="cls-6" d="M843.88,507.19c0,1.86-.61,3.29-1.83,4.29-1.22.99-2.96,1.49-5.21,1.49h-1.86v6.68h-2.92v-17.85h5.14c2.23,0,3.9.46,5.01,1.37,1.11.91,1.67,2.25,1.67,4.03ZM834.98,510.51h1.55c1.5,0,2.6-.26,3.29-.78.7-.52,1.05-1.33,1.05-2.44,0-1.03-.31-1.79-.94-2.29s-1.6-.76-2.93-.76h-2.03v6.27Z"/>
    <path class="cls-6" d="M855.58,519.64l-.57-1.88h-.1c-.65.82-1.31,1.38-1.96,1.68s-1.51.45-2.54.45c-1.33,0-2.36-.36-3.11-1.07-.75-.72-1.12-1.73-1.12-3.04,0-1.39.52-2.44,1.55-3.15,1.03-.71,2.61-1.09,4.72-1.16l2.33-.07v-.72c0-.86-.2-1.51-.6-1.93-.4-.43-1.03-.64-1.87-.64-.69,0-1.36.1-1.99.31-.63.2-1.24.44-1.83.72l-.93-2.05c.73-.38,1.53-.67,2.4-.87.87-.2,1.69-.3,2.47-.3,1.72,0,3.01.37,3.89,1.12s1.31,1.92,1.31,3.53v9.09h-2.05ZM851.31,517.69c1.04,0,1.88-.29,2.51-.87.63-.58.95-1.4.95-2.45v-1.17l-1.73.07c-1.35.05-2.33.27-2.95.68-.62.4-.92,1.02-.92,1.85,0,.6.18,1.07.54,1.4.36.33.9.49,1.61.49Z"/>
    <path class="cls-6" d="M859.59,506.14h3.12l2.75,7.65c.42,1.09.69,2.12.83,3.08h.1c.07-.45.21-.99.4-1.63s1.23-3.67,3.1-9.1h3.1l-5.77,15.3c-1.05,2.81-2.8,4.21-5.25,4.21-.63,0-1.25-.07-1.86-.21v-2.27c.43.1.92.15,1.48.15,1.38,0,2.36-.8,2.92-2.4l.5-1.27-5.42-13.5Z"/>
    <path class="cls-6" d="M886.42,519.64h-2.88v-8.33c0-1.03-.2-1.8-.59-2.31-.39-.51-1-.76-1.83-.76-1.11,0-1.92.36-2.44,1.08-.52.72-.77,1.92-.77,3.59v6.73h-2.87v-13.5h2.25l.4,1.77h.15c.38-.64.92-1.14,1.63-1.49.71-.35,1.5-.52,2.35-.52,2.07,0,3.45.71,4.12,2.12h.2c.4-.67.96-1.19,1.69-1.56.72-.37,1.55-.56,2.49-.56,1.61,0,2.78.41,3.52,1.22.74.81,1.1,2.05,1.1,3.72v8.8h-2.87v-8.33c0-1.03-.2-1.8-.59-2.31-.39-.51-1.01-.76-1.84-.76-1.12,0-1.93.35-2.45,1.04-.52.7-.78,1.76-.78,3.2v7.15Z"/>
    <path class="cls-6" d="M904.84,519.89c-2.1,0-3.74-.61-4.93-1.84-1.18-1.22-1.78-2.91-1.78-5.06s.55-3.94,1.65-5.2c1.1-1.26,2.61-1.89,4.53-1.89,1.78,0,3.19.54,4.22,1.62,1.03,1.08,1.55,2.57,1.55,4.47v1.55h-9c.04,1.31.39,2.32,1.06,3.02.67.7,1.61,1.06,2.82,1.06.8,0,1.54-.08,2.23-.23s1.43-.4,2.22-.75v2.33c-.7.33-1.41.57-2.12.71-.72.14-1.53.21-2.45.21ZM904.32,508.07c-.91,0-1.64.29-2.19.87-.55.58-.88,1.42-.98,2.53h6.13c-.02-1.12-.29-1.96-.81-2.53-.52-.57-1.24-.86-2.15-.86Z"/>
    <path class="cls-6" d="M925.23,519.64h-2.88v-8.3c0-1.04-.21-1.82-.63-2.33-.42-.51-1.08-.77-2-.77-1.21,0-2.1.36-2.66,1.07s-.84,1.92-.84,3.6v6.73h-2.87v-13.5h2.25l.4,1.77h.15c.41-.64.99-1.14,1.73-1.49.75-.35,1.58-.52,2.49-.52,3.24,0,4.86,1.65,4.86,4.94v8.8Z"/>
    <path class="cls-6" d="M934.25,517.57c.7,0,1.4-.11,2.1-.33v2.16c-.32.14-.73.25-1.23.35-.5.09-1.02.14-1.56.14-2.72,0-4.08-1.43-4.08-4.3v-7.28h-1.84v-1.27l1.98-1.05.98-2.86h1.77v3h3.84v2.17h-3.84v7.23c0,.69.17,1.2.52,1.53.35.33.8.49,1.36.49Z"/>
    <path class="cls-6" d="M957.66,507.19c0,1.86-.61,3.29-1.83,4.29-1.22.99-2.96,1.49-5.21,1.49h-1.86v6.68h-2.92v-17.85h5.14c2.23,0,3.9.46,5.01,1.37,1.11.91,1.67,2.25,1.67,4.03ZM948.76,510.51h1.55c1.5,0,2.6-.26,3.29-.78.7-.52,1.05-1.33,1.05-2.44,0-1.03-.31-1.79-.94-2.29s-1.6-.76-2.93-.76h-2.03v6.27Z"/>
    <path class="cls-6" d="M969.37,519.64l-.57-1.88h-.1c-.65.82-1.31,1.38-1.96,1.68s-1.51.45-2.54.45c-1.33,0-2.36-.36-3.11-1.07-.75-.72-1.12-1.73-1.12-3.04,0-1.39.52-2.44,1.55-3.15,1.03-.71,2.61-1.09,4.72-1.16l2.33-.07v-.72c0-.86-.2-1.51-.6-1.93-.4-.43-1.03-.64-1.87-.64-.69,0-1.36.1-1.99.31-.63.2-1.24.44-1.83.72l-.93-2.05c.73-.38,1.53-.67,2.4-.87.87-.2,1.69-.3,2.47-.3,1.72,0,3.01.37,3.89,1.12s1.31,1.92,1.31,3.53v9.09h-2.05ZM965.09,517.69c1.04,0,1.88-.29,2.51-.87.63-.58.95-1.4.95-2.45v-1.17l-1.73.07c-1.35.05-2.33.27-2.95.68-.62.4-.92,1.02-.92,1.85,0,.6.18,1.07.54,1.4.36.33.9.49,1.61.49Z"/>
    <path class="cls-6" d="M986.82,506.14v1.58l-2.31.43c.21.29.39.63.53,1.05s.21.85.21,1.32c0,1.39-.48,2.49-1.44,3.28-.96.8-2.28,1.2-3.97,1.2-.43,0-.82-.03-1.17-.1-.62.38-.93.83-.93,1.34,0,.31.14.54.43.7.29.15.82.23,1.59.23h2.36c1.49,0,2.62.32,3.39.95.77.63,1.16,1.55,1.16,2.75,0,1.53-.63,2.71-1.89,3.54-1.26.83-3.08,1.25-5.47,1.25-1.84,0-3.24-.33-4.21-.98s-1.45-1.58-1.45-2.78c0-.83.26-1.53.79-2.09.52-.57,1.26-.96,2.2-1.18-.38-.16-.7-.42-.95-.79s-.37-.74-.37-1.14c0-.5.14-.93.43-1.28.28-.35.71-.7,1.27-1.04-.7-.3-1.27-.79-1.7-1.47-.44-.68-.65-1.48-.65-2.39,0-1.46.46-2.6,1.39-3.41.92-.8,2.24-1.21,3.95-1.21.38,0,.78.03,1.2.08.42.05.73.11.95.17h4.67ZM976.21,521.74c0,.62.28,1.09.84,1.43.56.33,1.34.5,2.35.5,1.56,0,2.73-.22,3.49-.67.76-.45,1.15-1.04,1.15-1.78,0-.59-.21-1-.63-1.25s-1.2-.37-2.34-.37h-2.17c-.82,0-1.47.19-1.96.58-.48.39-.73.91-.73,1.57ZM977.45,510.51c0,.85.22,1.5.65,1.95.43.46,1.06.68,1.87.68,1.66,0,2.49-.89,2.49-2.66,0-.88-.21-1.56-.62-2.03-.41-.48-1.04-.71-1.87-.71s-1.46.24-1.89.71c-.43.47-.64,1.16-.64,2.06Z"/>
    <path class="cls-6" d="M995.22,519.89c-2.1,0-3.74-.61-4.93-1.84-1.18-1.22-1.78-2.91-1.78-5.06s.55-3.94,1.65-5.2c1.1-1.26,2.61-1.89,4.53-1.89,1.78,0,3.19.54,4.22,1.62,1.03,1.08,1.55,2.57,1.55,4.47v1.55h-9c.04,1.31.39,2.32,1.06,3.02.67.7,1.61,1.06,2.82,1.06.8,0,1.54-.08,2.23-.23s1.43-.4,2.22-.75v2.33c-.7.33-1.41.57-2.12.71-.72.14-1.53.21-2.45.21ZM994.7,508.07c-.91,0-1.64.29-2.19.87-.55.58-.88,1.42-.98,2.53h6.13c-.02-1.12-.29-1.96-.81-2.53-.52-.57-1.24-.86-2.15-.86Z"/>
    <path class="cls-6" d="M1008.6,512.79c0,2.14-.32,4.13-.95,5.98-.63,1.85-1.54,3.46-2.73,4.82h-2.48c1.12-1.52,1.98-3.21,2.58-5.07.6-1.86.9-3.78.9-5.76s-.3-3.94-.9-5.83c-.6-1.89-1.47-3.61-2.6-5.15h2.5c1.2,1.42,2.11,3.08,2.73,4.96.63,1.88.94,3.9.94,6.04Z"/>
    <path class="cls-6" d="M829.6,549.64l-.57-1.88h-.1c-.65.82-1.31,1.38-1.96,1.68s-1.51.45-2.54.45c-1.33,0-2.36-.36-3.11-1.07-.75-.72-1.12-1.73-1.12-3.04,0-1.39.52-2.44,1.55-3.15,1.03-.71,2.61-1.09,4.72-1.16l2.33-.07v-.72c0-.86-.2-1.51-.6-1.93-.4-.43-1.03-.64-1.87-.64-.69,0-1.36.1-1.99.31-.63.2-1.24.44-1.83.72l-.93-2.05c.73-.38,1.53-.67,2.4-.87.87-.2,1.69-.3,2.47-.3,1.72,0,3.01.37,3.89,1.12s1.31,1.92,1.31,3.53v9.09h-2.05ZM825.33,547.69c1.04,0,1.88-.29,2.51-.87.63-.58.95-1.4.95-2.45v-1.17l-1.73.07c-1.35.05-2.33.27-2.95.68-.62.4-.92,1.02-.92,1.85,0,.6.18,1.07.54,1.4.36.33.9.49,1.61.49Z"/>
    <path class="cls-6" d="M847.53,549.64h-2.88v-8.3c0-1.04-.21-1.82-.63-2.33-.42-.51-1.08-.77-2-.77-1.21,0-2.1.36-2.66,1.07s-.84,1.92-.84,3.6v6.73h-2.87v-13.5h2.25l.4,1.77h.15c.41-.64.99-1.14,1.73-1.49.75-.35,1.58-.52,2.49-.52,3.24,0,4.86,1.65,4.86,4.94v8.8Z"/>
    <path class="cls-6" d="M856.08,549.89c-1.68,0-3-.61-3.94-1.83s-1.42-2.93-1.42-5.14.48-3.94,1.43-5.17c.96-1.23,2.28-1.85,3.97-1.85s3.12.66,4.05,1.97h.15c-.14-.97-.21-1.73-.21-2.29v-4.92h2.88v18.99h-2.25l-.5-1.77h-.13c-.92,1.34-2.27,2.01-4.04,2.01ZM856.85,547.57c1.18,0,2.04-.33,2.58-1,.54-.66.81-1.74.83-3.23v-.4c0-1.7-.28-2.91-.83-3.63-.55-.72-1.42-1.07-2.6-1.07-1.01,0-1.79.41-2.33,1.23-.55.82-.82,1.98-.82,3.5s.26,2.64.79,3.42c.53.79,1.32,1.18,2.38,1.18Z"/>
    <path class="cls-6" d="M882.67,545.8c0,1.32-.48,2.33-1.44,3.03-.96.7-2.33,1.06-4.12,1.06s-3.24-.27-4.33-.82v-2.48c1.59.73,3.06,1.1,4.43,1.1,1.77,0,2.65-.53,2.65-1.6,0-.34-.1-.63-.29-.85-.2-.23-.52-.46-.96-.71-.45-.24-1.07-.52-1.87-.83-1.55-.6-2.61-1.2-3.16-1.81-.55-.6-.82-1.38-.82-2.34,0-1.16.47-2.05,1.4-2.69.93-.64,2.2-.96,3.8-.96s3.09.32,4.5.96l-.93,2.16c-1.46-.6-2.68-.9-3.67-.9-1.51,0-2.27.43-2.27,1.29,0,.42.2.78.59,1.07s1.26.7,2.58,1.21c1.12.43,1.92.83,2.43,1.18.5.36.88.77,1.12,1.24s.37,1.03.37,1.68Z"/>
    <path class="cls-6" d="M895.29,549.64l-.4-1.77h-.15c-.4.63-.97,1.12-1.7,1.48-.74.36-1.58.54-2.52.54-1.63,0-2.86-.41-3.66-1.22-.8-.81-1.21-2.05-1.21-3.7v-8.83h2.89v8.33c0,1.03.21,1.81.63,2.33.42.52,1.09.78,1.99.78,1.2,0,2.09-.36,2.66-1.08.57-.72.85-1.93.85-3.62v-6.73h2.88v13.5h-2.26Z"/>
    <path class="cls-6" d="M908.53,535.9c1.69,0,3,.61,3.94,1.83.94,1.22,1.41,2.93,1.41,5.14s-.48,3.94-1.43,5.17c-.95,1.23-2.27,1.85-3.97,1.85s-3.04-.61-3.98-1.84h-.2l-.53,1.6h-2.15v-18.99h2.87v4.52c0,.33-.02.83-.05,1.49-.03.66-.06,1.08-.07,1.26h.12c.91-1.34,2.25-2.01,4.03-2.01ZM907.79,538.24c-1.16,0-1.99.34-2.5,1.02-.51.68-.77,1.82-.79,3.41v.2c0,1.64.26,2.83.78,3.57.52.74,1.37,1.1,2.55,1.1,1.02,0,1.79-.4,2.31-1.21.52-.8.79-1.97.79-3.49,0-3.07-1.05-4.6-3.15-4.6Z"/>
    <path class="cls-6" d="M928.59,549.64h-2.88v-8.33c0-1.03-.2-1.8-.59-2.31-.39-.51-1-.76-1.83-.76-1.11,0-1.92.36-2.44,1.08-.52.72-.77,1.92-.77,3.59v6.73h-2.87v-13.5h2.25l.4,1.77h.15c.38-.64.92-1.14,1.63-1.49.71-.35,1.5-.52,2.35-.52,2.07,0,3.45.71,4.12,2.12h.2c.4-.67.96-1.19,1.69-1.56.72-.37,1.55-.56,2.49-.56,1.61,0,2.78.41,3.52,1.22.74.81,1.1,2.05,1.1,3.72v8.8h-2.87v-8.33c0-1.03-.2-1.8-.59-2.31-.39-.51-1.01-.76-1.84-.76-1.12,0-1.93.35-2.45,1.04-.52.7-.78,1.76-.78,3.2v7.15Z"/>
    <path class="cls-6" d="M940.94,532.56c0-.51.14-.91.42-1.18.28-.28.68-.42,1.2-.42s.9.14,1.18.42c.28.28.42.67.42,1.18s-.14.87-.42,1.15c-.28.28-.67.42-1.18.42s-.92-.14-1.2-.42c-.28-.28-.42-.67-.42-1.15ZM943.98,549.64h-2.87v-13.5h2.87v13.5Z"/>
    <path class="cls-6" d="M953.11,547.57c.7,0,1.4-.11,2.1-.33v2.16c-.32.14-.73.25-1.23.35-.5.09-1.02.14-1.56.14-2.72,0-4.08-1.43-4.08-4.3v-7.28h-1.84v-1.27l1.98-1.05.98-2.86h1.77v3h3.84v2.17h-3.84v7.23c0,.69.17,1.2.52,1.53.35.33.8.49,1.36.49Z"/>
    <path class="cls-6" d="M969.43,547.57c.7,0,1.4-.11,2.1-.33v2.16c-.32.14-.73.25-1.23.35-.5.09-1.02.14-1.56.14-2.72,0-4.08-1.43-4.08-4.3v-7.28h-1.84v-1.27l1.98-1.05.98-2.86h1.77v3h3.84v2.17h-3.84v7.23c0,.69.17,1.2.52,1.53.35.33.8.49,1.36.49Z"/>
    <path class="cls-6" d="M986.11,549.64h-2.88v-8.3c0-1.04-.21-1.82-.63-2.33-.42-.51-1.08-.77-2-.77-1.2,0-2.09.36-2.66,1.08-.57.72-.85,1.93-.85,3.62v6.7h-2.87v-18.99h2.87v4.82c0,.77-.05,1.6-.15,2.48h.18c.39-.65.93-1.16,1.63-1.51.7-.36,1.51-.54,2.44-.54,3.27,0,4.91,1.65,4.91,4.94v8.8Z"/>
    <path class="cls-6" d="M996,549.89c-2.1,0-3.74-.61-4.93-1.84-1.18-1.22-1.78-2.91-1.78-5.06s.55-3.94,1.65-5.2c1.1-1.26,2.61-1.89,4.53-1.89,1.78,0,3.19.54,4.22,1.62,1.03,1.08,1.55,2.57,1.55,4.47v1.55h-9c.04,1.31.39,2.32,1.06,3.02.67.7,1.61,1.06,2.82,1.06.8,0,1.54-.08,2.23-.23s1.43-.4,2.22-.75v2.33c-.7.33-1.41.57-2.12.71-.72.14-1.53.21-2.45.21ZM995.47,538.07c-.91,0-1.64.29-2.19.87-.55.58-.88,1.42-.98,2.53h6.13c-.02-1.12-.29-1.96-.81-2.53-.52-.57-1.24-.86-2.15-.86Z"/>
    <path class="cls-6" d="M1004.33,532.56c0-.51.14-.91.42-1.18.28-.28.68-.42,1.2-.42s.9.14,1.18.42c.28.28.42.67.42,1.18s-.14.87-.42,1.15c-.28.28-.67.42-1.18.42s-.92-.14-1.2-.42c-.28-.28-.42-.67-.42-1.15ZM1007.37,549.64h-2.87v-13.5h2.87v13.5Z"/>
    <path class="cls-6" d="M1018.32,535.9c.58,0,1.05.04,1.43.12l-.28,2.67c-.41-.1-.83-.15-1.27-.15-1.15,0-2.08.37-2.79,1.12-.71.75-1.07,1.72-1.07,2.92v7.06h-2.87v-13.5h2.25l.38,2.38h.15c.45-.8,1.03-1.44,1.75-1.92.72-.47,1.5-.71,2.33-.71Z"/>
    <path class="cls-6" d="M844.54,579.89c-1.71,0-3.04-.61-3.98-1.84h-.17c.11,1.14.17,1.83.17,2.08v5.53h-2.87v-19.51h2.32c.07.25.2.85.4,1.81h.15c.89-1.37,2.24-2.05,4.03-2.05,1.69,0,3,.61,3.94,1.83.94,1.22,1.41,2.93,1.41,5.14s-.48,3.93-1.43,5.16c-.96,1.24-2.28,1.86-3.96,1.86ZM843.84,568.24c-1.14,0-1.97.33-2.5,1-.53.67-.79,1.73-.79,3.2v.43c0,1.64.26,2.83.78,3.57.52.74,1.37,1.1,2.55,1.1.99,0,1.76-.41,2.29-1.22s.81-1.97.81-3.48-.27-2.66-.8-3.44-1.32-1.17-2.35-1.17Z"/>
    <path class="cls-6" d="M861.71,579.64l-.57-1.88h-.1c-.65.82-1.31,1.38-1.96,1.68s-1.51.45-2.54.45c-1.33,0-2.36-.36-3.11-1.07-.75-.72-1.12-1.73-1.12-3.04,0-1.39.52-2.44,1.55-3.15,1.03-.71,2.61-1.09,4.72-1.16l2.33-.07v-.72c0-.86-.2-1.51-.6-1.93-.4-.43-1.03-.64-1.87-.64-.69,0-1.36.1-1.99.31-.63.2-1.24.44-1.83.72l-.93-2.05c.73-.38,1.53-.67,2.4-.87.87-.2,1.69-.3,2.47-.3,1.72,0,3.01.37,3.89,1.12s1.31,1.92,1.31,3.53v9.09h-2.05ZM857.44,577.69c1.04,0,1.88-.29,2.51-.87.63-.58.95-1.4.95-2.45v-1.17l-1.73.07c-1.35.05-2.33.27-2.95.68-.62.4-.92,1.02-.92,1.85,0,.6.18,1.07.54,1.4.36.33.9.49,1.61.49Z"/>
    <path class="cls-6" d="M865.72,566.14h3.12l2.75,7.65c.42,1.09.69,2.12.83,3.08h.1c.07-.45.21-.99.4-1.63s1.23-3.67,3.1-9.1h3.1l-5.77,15.3c-1.05,2.81-2.8,4.21-5.25,4.21-.63,0-1.25-.07-1.86-.21v-2.27c.43.1.92.15,1.48.15,1.38,0,2.36-.8,2.92-2.4l.5-1.27-5.42-13.5Z"/>
    <path class="cls-6" d="M892.55,579.64h-2.88v-8.33c0-1.03-.2-1.8-.59-2.31-.39-.51-1-.76-1.83-.76-1.11,0-1.92.36-2.44,1.08-.52.72-.77,1.92-.77,3.59v6.73h-2.87v-13.5h2.25l.4,1.77h.15c.38-.64.92-1.14,1.63-1.49.71-.35,1.5-.52,2.35-.52,2.07,0,3.45.71,4.12,2.12h.2c.4-.67.96-1.19,1.69-1.56.72-.37,1.55-.56,2.49-.56,1.61,0,2.78.41,3.52,1.22.74.81,1.1,2.05,1.1,3.72v8.8h-2.87v-8.33c0-1.03-.2-1.8-.59-2.31-.39-.51-1.01-.76-1.84-.76-1.12,0-1.93.35-2.45,1.04-.52.7-.78,1.76-.78,3.2v7.15Z"/>
    <path class="cls-6" d="M910.97,579.89c-2.1,0-3.74-.61-4.93-1.84-1.18-1.22-1.78-2.91-1.78-5.06s.55-3.94,1.65-5.2c1.1-1.26,2.61-1.89,4.53-1.89,1.78,0,3.19.54,4.22,1.62,1.03,1.08,1.55,2.57,1.55,4.47v1.55h-9c.04,1.31.39,2.32,1.06,3.02.67.7,1.61,1.06,2.82,1.06.8,0,1.54-.08,2.23-.23s1.43-.4,2.22-.75v2.33c-.7.33-1.41.57-2.12.71-.72.14-1.53.21-2.45.21ZM910.44,568.07c-.91,0-1.64.29-2.19.87-.55.58-.88,1.42-.98,2.53h6.13c-.02-1.12-.29-1.96-.81-2.53-.52-.57-1.24-.86-2.15-.86Z"/>
    <path class="cls-6" d="M931.35,579.64h-2.88v-8.3c0-1.04-.21-1.82-.63-2.33-.42-.51-1.08-.77-2-.77-1.21,0-2.1.36-2.66,1.07s-.84,1.92-.84,3.6v6.73h-2.87v-13.5h2.25l.4,1.77h.15c.41-.64.99-1.14,1.73-1.49.75-.35,1.58-.52,2.49-.52,3.24,0,4.86,1.65,4.86,4.94v8.8Z"/>
    <path class="cls-6" d="M940.38,577.57c.7,0,1.4-.11,2.1-.33v2.16c-.32.14-.73.25-1.23.35-.5.09-1.02.14-1.56.14-2.72,0-4.08-1.43-4.08-4.3v-7.28h-1.84v-1.27l1.98-1.05.98-2.86h1.77v3h3.84v2.17h-3.84v7.23c0,.69.17,1.2.52,1.53.35.33.8.49,1.36.49Z"/>
    <path class="cls-6" d="M951.5,562.56c0-.51.14-.91.42-1.18.28-.28.68-.42,1.2-.42s.9.14,1.18.42c.28.28.42.67.42,1.18s-.14.87-.42,1.15c-.28.28-.67.42-1.18.42s-.92-.14-1.2-.42c-.28-.28-.42-.67-.42-1.15ZM954.54,579.64h-2.87v-13.5h2.87v13.5Z"/>
    <path class="cls-6" d="M970.51,579.64h-2.88v-8.3c0-1.04-.21-1.82-.63-2.33-.42-.51-1.08-.77-2-.77-1.21,0-2.1.36-2.66,1.07s-.84,1.92-.84,3.6v6.73h-2.87v-13.5h2.25l.4,1.77h.15c.41-.64.99-1.14,1.73-1.49.75-.35,1.58-.52,2.49-.52,3.24,0,4.86,1.65,4.86,4.94v8.8Z"/>
    <path class="cls-6" d="M981.28,568.31h-3.3v11.33h-2.88v-11.33h-2.22v-1.34l2.22-.88v-.88c0-1.59.38-2.78,1.12-3.55.75-.77,1.89-1.15,3.43-1.15,1.01,0,2,.17,2.98.5l-.76,2.17c-.71-.23-1.38-.34-2.03-.34s-1.12.2-1.42.6c-.3.4-.45,1.01-.45,1.81v.88h3.3v2.17Z"/>
    <path class="cls-6" d="M995.55,572.87c0,2.21-.57,3.93-1.7,5.16s-2.71,1.86-4.72,1.86c-1.26,0-2.38-.29-3.35-.85-.97-.57-1.71-1.39-2.23-2.45-.52-1.07-.78-2.3-.78-3.71,0-2.19.56-3.9,1.68-5.13,1.12-1.23,2.71-1.84,4.75-1.84s3.5.63,4.64,1.89c1.14,1.26,1.71,2.95,1.71,5.08ZM985.72,572.87c0,3.12,1.15,4.68,3.46,4.68s3.42-1.56,3.42-4.68-1.15-4.63-3.44-4.63c-1.2,0-2.08.4-2.62,1.2s-.81,1.94-.81,3.43Z"/>
    <path class="cls-6" d="M998.42,578.12c0-.59.16-1.05.46-1.37.31-.32.76-.48,1.34-.48s1.05.17,1.36.49c.31.33.46.78.46,1.35s-.16,1.04-.47,1.37c-.31.34-.76.51-1.35.51s-1.03-.17-1.34-.5c-.31-.33-.46-.79-.46-1.38Z"/>
  </g>
  <rect class="cls-2" x="1155" y="350" width="298" height="177" rx="14.06" ry="14.06"/>
  <text class="cls-5" transform="translate(1196.1 399.64)"><tspan x="0" y="0">The Payment data </tspan><tspan x="-4.64" y="30">is encrupted and is </tspan><tspan x="-3.75" y="60">processed through </tspan><tspan x="33.65" y="90">the Gateway</tspan></text>
  <rect class="cls-2" x="1524" y="350" width="298" height="177" rx="14.06" ry="14.06"/>
  <g>
    <path class="cls-6" d="M1599.37,399.64h-2.92v-15.34h-5.25v-2.5h13.42v2.5h-5.25v15.34Z"/>
    <path class="cls-6" d="M1618.92,399.64h-2.88v-8.3c0-1.04-.21-1.82-.63-2.33-.42-.51-1.08-.77-2-.77-1.2,0-2.09.36-2.66,1.08-.57.72-.85,1.93-.85,3.62v6.7h-2.87v-18.99h2.87v4.82c0,.77-.05,1.6-.15,2.48h.18c.39-.65.93-1.16,1.63-1.51.7-.36,1.51-.54,2.44-.54,3.27,0,4.91,1.65,4.91,4.94v8.8Z"/>
    <path class="cls-6" d="M1628.81,399.89c-2.1,0-3.74-.61-4.93-1.84-1.18-1.22-1.78-2.91-1.78-5.06s.55-3.94,1.65-5.2c1.1-1.26,2.61-1.89,4.53-1.89,1.78,0,3.19.54,4.22,1.62,1.03,1.08,1.55,2.57,1.55,4.47v1.55h-9c.04,1.31.39,2.32,1.06,3.02.67.7,1.61,1.06,2.82,1.06.8,0,1.54-.08,2.23-.23s1.43-.4,2.22-.75v2.33c-.7.33-1.41.57-2.12.71-.72.14-1.53.21-2.45.21ZM1628.29,388.07c-.91,0-1.64.29-2.19.87-.55.58-.88,1.42-.98,2.53h6.13c-.02-1.11-.29-1.96-.81-2.53-.52-.57-1.24-.86-2.15-.86Z"/>
    <path class="cls-6" d="M1651.83,399.64l-5.18-14.9h-.1c.14,2.21.21,4.29.21,6.23v8.68h-2.65v-17.85h4.11l4.96,14.2h.07l5.1-14.2h4.13v17.85h-2.81v-8.83c0-.89.02-2.04.07-3.47.04-1.42.08-2.29.12-2.59h-.1l-5.36,14.88h-2.58Z"/>
    <path class="cls-6" d="M1672.78,399.89c-2.1,0-3.74-.61-4.93-1.84-1.18-1.22-1.78-2.91-1.78-5.06s.55-3.94,1.65-5.2c1.1-1.26,2.61-1.89,4.53-1.89,1.78,0,3.19.54,4.22,1.62,1.03,1.08,1.55,2.57,1.55,4.47v1.55h-9c.04,1.31.39,2.32,1.06,3.02.67.7,1.61,1.06,2.82,1.06.8,0,1.54-.08,2.23-.23s1.43-.4,2.22-.75v2.33c-.7.33-1.41.57-2.12.71-.72.14-1.53.21-2.45.21ZM1672.25,388.07c-.91,0-1.64.29-2.19.87-.55.58-.88,1.42-.98,2.53h6.13c-.02-1.11-.29-1.96-.81-2.53-.52-.57-1.24-.86-2.15-.86Z"/>
    <path class="cls-6" d="M1688.14,385.9c.58,0,1.05.04,1.43.12l-.28,2.67c-.41-.1-.83-.15-1.27-.15-1.15,0-2.08.37-2.79,1.12-.71.75-1.07,1.72-1.07,2.92v7.06h-2.87v-13.5h2.25l.38,2.38h.15c.45-.81,1.03-1.44,1.75-1.92.72-.47,1.5-.71,2.33-.71Z"/>
    <path class="cls-6" d="M1697.51,399.89c-2.04,0-3.59-.6-4.66-1.79-1.06-1.19-1.59-2.9-1.59-5.13s.56-4.02,1.67-5.24c1.11-1.22,2.72-1.83,4.82-1.83,1.42,0,2.71.26,3.85.79l-.87,2.31c-1.21-.47-2.21-.71-3-.71-2.34,0-3.5,1.55-3.5,4.65,0,1.51.29,2.65.87,3.41.58.76,1.43,1.14,2.56,1.14,1.28,0,2.49-.32,3.63-.95v2.5c-.51.3-1.06.52-1.64.65-.58.13-1.29.2-2.12.2Z"/>
    <path class="cls-6" d="M1716.32,399.64h-2.88v-8.3c0-1.04-.21-1.82-.63-2.33-.42-.51-1.08-.77-2-.77-1.2,0-2.09.36-2.66,1.08-.57.72-.85,1.93-.85,3.62v6.7h-2.87v-18.99h2.87v4.82c0,.77-.05,1.6-.15,2.48h.18c.39-.65.93-1.16,1.63-1.51.7-.36,1.51-.54,2.44-.54,3.27,0,4.91,1.65,4.91,4.94v8.8Z"/>
    <path class="cls-6" d="M1728.76,399.64l-.57-1.88h-.1c-.65.82-1.31,1.38-1.96,1.68s-1.51.45-2.54.45c-1.33,0-2.36-.36-3.11-1.07-.75-.72-1.12-1.73-1.12-3.04,0-1.39.52-2.44,1.55-3.15,1.03-.71,2.61-1.09,4.72-1.16l2.33-.07v-.72c0-.86-.2-1.51-.6-1.94-.4-.43-1.03-.64-1.87-.64-.69,0-1.36.1-1.99.31-.63.2-1.24.44-1.83.72l-.93-2.05c.73-.38,1.53-.67,2.4-.87.87-.2,1.69-.3,2.47-.3,1.72,0,3.01.37,3.89,1.12.88.75,1.31,1.92,1.31,3.53v9.09h-2.05ZM1724.49,397.69c1.04,0,1.88-.29,2.51-.87.63-.58.95-1.4.95-2.45v-1.17l-1.73.07c-1.35.05-2.33.27-2.95.68-.62.4-.92,1.02-.92,1.85,0,.6.18,1.07.54,1.4.36.33.9.49,1.61.49Z"/>
    <path class="cls-6" d="M1746.69,399.64h-2.88v-8.3c0-1.04-.21-1.82-.63-2.33-.42-.51-1.08-.77-2-.77-1.21,0-2.1.36-2.66,1.07-.56.72-.84,1.92-.84,3.6v6.73h-2.87v-13.5h2.25l.4,1.77h.15c.41-.64.99-1.14,1.73-1.49.75-.35,1.58-.52,2.49-.52,3.24,0,4.86,1.65,4.86,4.94v8.8Z"/>
    <path class="cls-6" d="M1755.71,397.57c.7,0,1.4-.11,2.1-.33v2.16c-.32.14-.73.25-1.23.35-.5.09-1.02.14-1.56.14-2.72,0-4.08-1.43-4.08-4.3v-7.28h-1.84v-1.27l1.98-1.05.98-2.86h1.77v3h3.84v2.17h-3.84v7.23c0,.69.17,1.2.52,1.53.35.33.8.49,1.36.49Z"/>
    <path class="cls-6" d="M1610.81,415.9c.58,0,1.05.04,1.43.12l-.28,2.67c-.41-.1-.83-.15-1.27-.15-1.15,0-2.08.37-2.79,1.12-.71.75-1.07,1.72-1.07,2.92v7.06h-2.87v-13.5h2.25l.38,2.38h.15c.45-.8,1.03-1.44,1.75-1.92.72-.47,1.5-.71,2.33-.71Z"/>
    <path class="cls-6" d="M1620.64,429.89c-2.1,0-3.74-.61-4.93-1.84-1.18-1.22-1.78-2.91-1.78-5.06s.55-3.94,1.65-5.2c1.1-1.26,2.61-1.89,4.53-1.89,1.78,0,3.19.54,4.22,1.62,1.03,1.08,1.55,2.57,1.55,4.47v1.55h-9c.04,1.31.39,2.32,1.06,3.02.67.7,1.61,1.06,2.82,1.06.8,0,1.54-.08,2.23-.23s1.43-.4,2.22-.75v2.33c-.7.33-1.41.57-2.12.71-.72.14-1.53.21-2.45.21ZM1620.11,418.07c-.91,0-1.64.29-2.19.87-.55.58-.88,1.42-.98,2.53h6.13c-.02-1.12-.29-1.96-.81-2.53-.52-.57-1.24-.86-2.15-.86Z"/>
    <path class="cls-6" d="M1634.59,429.89c-2.04,0-3.59-.6-4.66-1.79-1.06-1.19-1.59-2.9-1.59-5.13s.56-4.02,1.67-5.24c1.11-1.22,2.72-1.83,4.82-1.83,1.42,0,2.71.26,3.85.79l-.87,2.31c-1.21-.47-2.21-.71-3-.71-2.34,0-3.5,1.55-3.5,4.65,0,1.51.29,2.65.87,3.41.58.76,1.43,1.14,2.56,1.14,1.28,0,2.49-.32,3.63-.95v2.5c-.51.3-1.06.52-1.64.65-.58.13-1.29.2-2.12.2Z"/>
    <path class="cls-6" d="M1647.42,429.89c-2.1,0-3.74-.61-4.93-1.84-1.18-1.22-1.78-2.91-1.78-5.06s.55-3.94,1.65-5.2c1.1-1.26,2.61-1.89,4.53-1.89,1.78,0,3.19.54,4.22,1.62,1.03,1.08,1.55,2.57,1.55,4.47v1.55h-9c.04,1.31.39,2.32,1.06,3.02.67.7,1.61,1.06,2.82,1.06.8,0,1.54-.08,2.23-.23s1.43-.4,2.22-.75v2.33c-.7.33-1.41.57-2.12.71-.72.14-1.53.21-2.45.21ZM1646.9,418.07c-.91,0-1.64.29-2.19.87-.55.58-.88,1.42-.98,2.53h6.13c-.02-1.12-.29-1.96-.81-2.53-.52-.57-1.24-.86-2.15-.86Z"/>
    <path class="cls-6" d="M1655.76,412.56c0-.51.14-.91.42-1.18.28-.28.68-.42,1.2-.42s.9.14,1.18.42c.28.28.42.67.42,1.18s-.14.87-.42,1.15c-.28.28-.67.42-1.18.42s-.92-.14-1.2-.42c-.28-.28-.42-.67-.42-1.15ZM1658.8,429.64h-2.87v-13.5h2.87v13.5Z"/>
    <path class="cls-6" d="M1665.97,429.64l-5.13-13.5h3.03l2.75,7.85c.47,1.32.76,2.38.86,3.2h.1c.07-.59.36-1.65.85-3.2l2.75-7.85h3.05l-5.15,13.5h-3.1Z"/>
    <path class="cls-6" d="M1682.17,429.89c-2.1,0-3.74-.61-4.93-1.84-1.18-1.22-1.78-2.91-1.78-5.06s.55-3.94,1.65-5.2c1.1-1.26,2.61-1.89,4.53-1.89,1.78,0,3.19.54,4.22,1.62,1.03,1.08,1.55,2.57,1.55,4.47v1.55h-9c.04,1.31.39,2.32,1.06,3.02.67.7,1.61,1.06,2.82,1.06.8,0,1.54-.08,2.23-.23s1.43-.4,2.22-.75v2.33c-.7.33-1.41.57-2.12.71-.72.14-1.53.21-2.45.21ZM1681.65,418.07c-.91,0-1.64.29-2.19.87-.55.58-.88,1.42-.98,2.53h6.13c-.02-1.12-.29-1.96-.81-2.53-.52-.57-1.24-.86-2.15-.86Z"/>
    <path class="cls-6" d="M1699.75,425.8c0,1.32-.48,2.33-1.44,3.03-.96.7-2.33,1.06-4.12,1.06s-3.24-.27-4.33-.82v-2.48c1.59.73,3.06,1.1,4.43,1.1,1.77,0,2.65-.53,2.65-1.6,0-.34-.1-.63-.29-.85-.2-.23-.52-.46-.96-.71-.45-.24-1.07-.52-1.87-.83-1.55-.6-2.61-1.2-3.16-1.81-.55-.6-.82-1.38-.82-2.34,0-1.16.47-2.05,1.4-2.69.93-.64,2.2-.96,3.8-.96s3.09.32,4.5.96l-.93,2.16c-1.46-.6-2.68-.9-3.67-.9-1.51,0-2.27.43-2.27,1.29,0,.42.2.78.59,1.07s1.26.7,2.58,1.21c1.12.43,1.92.83,2.43,1.18.5.36.88.77,1.12,1.24s.37,1.03.37,1.68Z"/>
    <path class="cls-6" d="M1714.38,427.57c.7,0,1.4-.11,2.1-.33v2.16c-.32.14-.73.25-1.23.35-.5.09-1.02.14-1.56.14-2.72,0-4.08-1.43-4.08-4.3v-7.28h-1.84v-1.27l1.98-1.05.98-2.86h1.77v3h3.84v2.17h-3.84v7.23c0,.69.17,1.2.52,1.53.35.33.8.49,1.36.49Z"/>
    <path class="cls-6" d="M1731.05,429.64h-2.88v-8.3c0-1.04-.21-1.82-.63-2.33-.42-.51-1.08-.77-2-.77-1.2,0-2.09.36-2.66,1.08-.57.72-.85,1.93-.85,3.62v6.7h-2.87v-18.99h2.87v4.82c0,.77-.05,1.6-.15,2.48h.18c.39-.65.93-1.16,1.63-1.51.7-.36,1.51-.54,2.44-.54,3.27,0,4.91,1.65,4.91,4.94v8.8Z"/>
    <path class="cls-6" d="M1740.94,429.89c-2.1,0-3.74-.61-4.93-1.84-1.18-1.22-1.78-2.91-1.78-5.06s.55-3.94,1.65-5.2c1.1-1.26,2.61-1.89,4.53-1.89,1.78,0,3.19.54,4.22,1.62,1.03,1.08,1.55,2.57,1.55,4.47v1.55h-9c.04,1.31.39,2.32,1.06,3.02.67.7,1.61,1.06,2.82,1.06.8,0,1.54-.08,2.23-.23s1.43-.4,2.22-.75v2.33c-.7.33-1.41.57-2.12.71-.72.14-1.53.21-2.45.21ZM1740.41,418.07c-.91,0-1.64.29-2.19.87-.55.58-.88,1.42-.98,2.53h6.13c-.02-1.12-.29-1.96-.81-2.53-.52-.57-1.24-.86-2.15-.86Z"/>
    <path class="cls-6" d="M1635.18,447.19c0,1.86-.61,3.29-1.83,4.29-1.22.99-2.96,1.49-5.21,1.49h-1.86v6.68h-2.92v-17.85h5.14c2.23,0,3.9.46,5.01,1.37,1.11.91,1.67,2.25,1.67,4.03ZM1626.28,450.51h1.55c1.5,0,2.6-.26,3.29-.78.7-.52,1.05-1.33,1.05-2.44,0-1.03-.31-1.79-.94-2.29s-1.6-.76-2.93-.76h-2.03v6.27Z"/>
    <path class="cls-6" d="M1646.89,459.64l-.57-1.88h-.1c-.65.82-1.31,1.38-1.96,1.68s-1.51.45-2.54.45c-1.33,0-2.36-.36-3.11-1.07-.75-.72-1.12-1.73-1.12-3.04,0-1.39.52-2.44,1.55-3.15,1.03-.71,2.61-1.09,4.72-1.16l2.33-.07v-.72c0-.86-.2-1.51-.6-1.93-.4-.43-1.03-.64-1.87-.64-.69,0-1.36.1-1.99.31-.63.2-1.24.44-1.83.72l-.93-2.05c.73-.38,1.53-.67,2.4-.87.87-.2,1.69-.3,2.47-.3,1.72,0,3.01.37,3.89,1.12s1.31,1.92,1.31,3.53v9.09h-2.05ZM1642.62,457.69c1.04,0,1.88-.29,2.51-.87.63-.58.95-1.4.95-2.45v-1.17l-1.73.07c-1.35.05-2.33.27-2.95.68-.62.4-.92,1.02-.92,1.85,0,.6.18,1.07.54,1.4.36.33.9.49,1.61.49Z"/>
    <path class="cls-6" d="M1650.89,446.14h3.12l2.75,7.65c.42,1.09.69,2.12.83,3.08h.1c.07-.45.21-.99.4-1.63s1.23-3.67,3.1-9.1h3.1l-5.77,15.3c-1.05,2.81-2.8,4.21-5.25,4.21-.63,0-1.25-.07-1.86-.21v-2.27c.43.1.92.15,1.48.15,1.38,0,2.36-.8,2.92-2.4l.5-1.27-5.42-13.5Z"/>
    <path class="cls-6" d="M1677.72,459.64h-2.88v-8.33c0-1.03-.2-1.8-.59-2.31-.39-.51-1-.76-1.83-.76-1.11,0-1.92.36-2.44,1.08-.52.72-.77,1.92-.77,3.59v6.73h-2.87v-13.5h2.25l.4,1.77h.15c.38-.64.92-1.14,1.63-1.49.71-.35,1.5-.52,2.35-.52,2.07,0,3.45.71,4.12,2.12h.2c.4-.67.96-1.19,1.69-1.56.72-.37,1.55-.56,2.49-.56,1.61,0,2.78.41,3.52,1.22.74.81,1.1,2.05,1.1,3.72v8.8h-2.87v-8.33c0-1.03-.2-1.8-.59-2.31-.39-.51-1.01-.76-1.84-.76-1.12,0-1.93.35-2.45,1.04-.52.7-.78,1.76-.78,3.2v7.15Z"/>
    <path class="cls-6" d="M1696.14,459.89c-2.1,0-3.74-.61-4.93-1.84-1.18-1.22-1.78-2.91-1.78-5.06s.55-3.94,1.65-5.2c1.1-1.26,2.61-1.89,4.53-1.89,1.78,0,3.19.54,4.22,1.62,1.03,1.08,1.55,2.57,1.55,4.47v1.55h-9c.04,1.31.39,2.32,1.06,3.02.67.7,1.61,1.06,2.82,1.06.8,0,1.54-.08,2.23-.23s1.43-.4,2.22-.75v2.33c-.7.33-1.41.57-2.12.71-.72.14-1.53.21-2.45.21ZM1695.62,448.07c-.91,0-1.64.29-2.19.87-.55.58-.88,1.42-.98,2.53h6.13c-.02-1.12-.29-1.96-.81-2.53-.52-.57-1.24-.86-2.15-.86Z"/>
    <path class="cls-6" d="M1716.53,459.64h-2.88v-8.3c0-1.04-.21-1.82-.63-2.33-.42-.51-1.08-.77-2-.77-1.21,0-2.1.36-2.66,1.07s-.84,1.92-.84,3.6v6.73h-2.87v-13.5h2.25l.4,1.77h.15c.41-.64.99-1.14,1.73-1.49.75-.35,1.58-.52,2.49-.52,3.24,0,4.86,1.65,4.86,4.94v8.8Z"/>
    <path class="cls-6" d="M1725.55,457.57c.7,0,1.4-.11,2.1-.33v2.16c-.32.14-.73.25-1.23.35-.5.09-1.02.14-1.56.14-2.72,0-4.08-1.43-4.08-4.3v-7.28h-1.84v-1.27l1.98-1.05.98-2.86h1.77v3h3.84v2.17h-3.84v7.23c0,.69.17,1.2.52,1.53.35.33.8.49,1.36.49Z"/>
    <path class="cls-6" d="M1613.86,485.8c0,1.32-.48,2.33-1.44,3.03-.96.7-2.33,1.06-4.12,1.06s-3.24-.27-4.33-.82v-2.48c1.59.73,3.06,1.1,4.43,1.1,1.77,0,2.65-.53,2.65-1.6,0-.34-.1-.63-.29-.85-.2-.23-.52-.46-.96-.71-.45-.24-1.07-.52-1.87-.83-1.55-.6-2.61-1.2-3.16-1.81-.55-.6-.82-1.38-.82-2.34,0-1.16.47-2.05,1.4-2.69.93-.64,2.2-.96,3.8-.96s3.09.32,4.5.96l-.93,2.16c-1.46-.6-2.68-.9-3.67-.9-1.51,0-2.27.43-2.27,1.29,0,.42.2.78.59,1.07s1.26.7,2.58,1.21c1.12.43,1.92.83,2.43,1.18.5.36.88.77,1.12,1.24s.37,1.03.37,1.68Z"/>
    <path class="cls-6" d="M1626.48,489.64l-.4-1.77h-.15c-.4.63-.97,1.12-1.7,1.48-.74.36-1.58.54-2.52.54-1.63,0-2.86-.41-3.66-1.22-.8-.81-1.21-2.05-1.21-3.7v-8.83h2.89v8.33c0,1.03.21,1.81.63,2.33.42.52,1.09.78,1.99.78,1.2,0,2.09-.36,2.66-1.08.57-.72.85-1.93.85-3.62v-6.73h2.88v13.5h-2.26Z"/>
    <path class="cls-6" d="M1638.28,489.89c-2.04,0-3.59-.6-4.66-1.79-1.06-1.19-1.59-2.9-1.59-5.13s.56-4.02,1.67-5.24c1.11-1.22,2.72-1.83,4.82-1.83,1.42,0,2.71.26,3.85.79l-.87,2.31c-1.21-.47-2.21-.71-3-.71-2.34,0-3.5,1.55-3.5,4.65,0,1.51.29,2.65.87,3.41.58.76,1.43,1.14,2.56,1.14,1.28,0,2.49-.32,3.63-.95v2.5c-.51.3-1.06.52-1.64.65-.58.13-1.29.2-2.12.2Z"/>
    <path class="cls-6" d="M1650.65,489.89c-2.04,0-3.59-.6-4.66-1.79-1.06-1.19-1.59-2.9-1.59-5.13s.56-4.02,1.67-5.24c1.11-1.22,2.72-1.83,4.82-1.83,1.42,0,2.71.26,3.85.79l-.87,2.31c-1.21-.47-2.21-.71-3-.71-2.34,0-3.5,1.55-3.5,4.65,0,1.51.29,2.65.87,3.41.58.76,1.43,1.14,2.56,1.14,1.28,0,2.49-.32,3.63-.95v2.5c-.51.3-1.06.52-1.64.65-.58.13-1.29.2-2.12.2Z"/>
    <path class="cls-6" d="M1663.48,489.89c-2.1,0-3.74-.61-4.93-1.84-1.18-1.22-1.78-2.91-1.78-5.06s.55-3.94,1.65-5.2c1.1-1.26,2.61-1.89,4.53-1.89,1.78,0,3.19.54,4.22,1.62,1.03,1.08,1.55,2.57,1.55,4.47v1.55h-9c.04,1.31.39,2.32,1.06,3.02.67.7,1.61,1.06,2.82,1.06.8,0,1.54-.08,2.23-.23s1.43-.4,2.22-.75v2.33c-.7.33-1.41.57-2.12.71-.72.14-1.53.21-2.45.21ZM1662.96,478.07c-.91,0-1.64.29-2.19.87-.55.58-.88,1.42-.98,2.53h6.13c-.02-1.12-.29-1.96-.81-2.53-.52-.57-1.24-.86-2.15-.86Z"/>
    <path class="cls-6" d="M1681.06,485.8c0,1.32-.48,2.33-1.44,3.03-.96.7-2.33,1.06-4.12,1.06s-3.24-.27-4.33-.82v-2.48c1.59.73,3.06,1.1,4.43,1.1,1.77,0,2.65-.53,2.65-1.6,0-.34-.1-.63-.29-.85-.2-.23-.52-.46-.96-.71-.45-.24-1.07-.52-1.87-.83-1.55-.6-2.61-1.2-3.16-1.81-.55-.6-.82-1.38-.82-2.34,0-1.16.47-2.05,1.4-2.69.93-.64,2.2-.96,3.8-.96s3.09.32,4.5.96l-.93,2.16c-1.46-.6-2.68-.9-3.67-.9-1.51,0-2.27.43-2.27,1.29,0,.42.2.78.59,1.07s1.26.7,2.58,1.21c1.12.43,1.92.83,2.43,1.18.5.36.88.77,1.12,1.24s.37,1.03.37,1.68Z"/>
    <path class="cls-6" d="M1693.23,485.8c0,1.32-.48,2.33-1.44,3.03-.96.7-2.33,1.06-4.12,1.06s-3.24-.27-4.33-.82v-2.48c1.59.73,3.06,1.1,4.43,1.1,1.77,0,2.65-.53,2.65-1.6,0-.34-.1-.63-.29-.85-.2-.23-.52-.46-.96-.71-.45-.24-1.07-.52-1.87-.83-1.55-.6-2.61-1.2-3.16-1.81-.55-.6-.82-1.38-.82-2.34,0-1.16.47-2.05,1.4-2.69.93-.64,2.2-.96,3.8-.96s3.09.32,4.5.96l-.93,2.16c-1.46-.6-2.68-.9-3.67-.9-1.51,0-2.27.43-2.27,1.29,0,.42.2.78.59,1.07s1.26.7,2.58,1.21c1.12.43,1.92.83,2.43,1.18.5.36.88.77,1.12,1.24s.37,1.03.37,1.68Z"/>
    <path class="cls-6" d="M1703.11,478.31h-3.3v11.33h-2.88v-11.33h-2.22v-1.34l2.22-.88v-.88c0-1.59.38-2.78,1.12-3.55.75-.77,1.89-1.15,3.43-1.15,1.01,0,2,.17,2.98.5l-.76,2.17c-.71-.23-1.38-.34-2.03-.34s-1.12.2-1.42.6c-.3.4-.45,1.01-.45,1.81v.88h3.3v2.17Z"/>
    <path class="cls-6" d="M1714.92,489.64l-.4-1.77h-.15c-.4.63-.97,1.12-1.7,1.48-.74.36-1.58.54-2.52.54-1.63,0-2.86-.41-3.66-1.22-.8-.81-1.21-2.05-1.21-3.7v-8.83h2.89v8.33c0,1.03.21,1.81.63,2.33.42.52,1.09.78,1.99.78,1.2,0,2.09-.36,2.66-1.08.57-.72.85-1.93.85-3.62v-6.73h2.88v13.5h-2.26Z"/>
    <path class="cls-6" d="M1724.14,489.64h-2.87v-18.99h2.87v18.99Z"/>
    <path class="cls-6" d="M1731.11,489.64h-2.87v-18.99h2.87v18.99Z"/>
    <path class="cls-6" d="M1733.16,476.14h3.12l2.75,7.65c.42,1.09.69,2.12.83,3.08h.1c.07-.45.21-.99.4-1.63s1.23-3.67,3.1-9.1h3.1l-5.77,15.3c-1.05,2.81-2.8,4.21-5.25,4.21-.63,0-1.25-.07-1.86-.21v-2.27c.43.1.92.15,1.48.15,1.38,0,2.36-.8,2.92-2.4l.5-1.27-5.42-13.5Z"/>
  </g>
  <g>
    <rect class="cls-4" x="165.59" y="113.83" width="29.54" height="62.39" rx="2.84" ry="2.84" transform="translate(155.37 -85.06) rotate(45)"/>
    <rect class="cls-4" x="103.2" y="176.22" width="29.54" height="62.39" rx="2.84" ry="2.84" transform="translate(181.22 -22.67) rotate(45)"/>
    <line class="cls-4" x1="168.61" y1="156.68" x2="132.22" y2="193.07"/>
  </g>
  <g id="paper_plane" data-name="paper plane">
    <path class="cls-4" d="M560.94,228.4l26.6-101.98c1.15-4.39-3.46-8.06-7.49-5.96l-101.98,53.21c-3.56,1.86-3.79,6.86-.42,9.04l75.37,48.77c3,1.94,7.01.38,7.91-3.07Z"/>
    <polyline class="cls-4" points="532.94 219.71 512 235.41 512 204"/>
    <line class="cls-4" x1="512.71" y1="203.61" x2="564.35" y2="146.41"/>
  </g>
  <g>
    <rect class="cls-4" x="844.66" y="132.04" width="141.84" height="92.5" rx="1" ry="1"/>
    <rect class="cls-4" x="844.66" y="150.54" width="141.84" height="18.5"/>
    <line class="cls-4" x1="857" y1="199.87" x2="881.66" y2="199.87"/>
    <line class="cls-4" x1="900.17" y1="199.87" x2="918.67" y2="199.87"/>
  </g>
  <g>
    <g>
      <path class="cls-4" d="M1285.04,188.96c-5.02,1.16-9.79,3.16-14.01,5.88"/>
      <path class="cls-4" d="M1319.14,194.84c-4.22-2.71-8.99-4.72-14.01-5.88"/>
      <path class="cls-4" d="M1339.18,223.01c-1.16-5.02-3.16-9.79-5.88-14.01"/>
      <path class="cls-4" d="M1256.86,209c-2.71,4.22-4.72,8.99-5.88,14.01"/>
      <path class="cls-4" d="M1317.43,235.95c.17-.92.23-1.91.23-2.89,0-12.53-10.05-22.58-22.58-22.58s-22.58,10.05-22.58,22.58c0,.98.06,1.96.23,2.89"/>
      <polyline class="cls-4" points="1285.04 188.96 1285.04 175.3 1305.13 175.3 1305.13 188.96"/>
      <polyline class="cls-4" points="1319.14 194.84 1328.83 185.1 1343.04 199.31 1333.3 209"/>
      <polyline class="cls-4" points="1339.15 223.01 1352.84 223.01 1352.84 235.95"/>
      <polyline class="cls-4" points="1237.33 235.95 1237.33 223.01 1251.02 223.01"/>
      <polyline class="cls-4" points="1256.86 209 1247.12 199.31 1261.33 185.1 1271.03 194.84"/>
    </g>
    <path class="cls-4" d="M1228.66,126.21h132.84v108.73c0,.55-.45,1-1,1h-130.84c-.55,0-1-.45-1-1v-108.73h0Z"/>
    <line class="cls-4" x1="1228.66" y1="149.31" x2="1361.5" y2="149.31"/>
    <circle class="cls-3" cx="1245.99" cy="137.76" r="2.89"/>
    <circle class="cls-3" cx="1257.54" cy="137.76" r="2.89"/>
    <circle class="cls-3" cx="1269.09" cy="137.76" r="2.89"/>
  </g>
  <g>
    <path class="cls-1" d="M1697.39,138.81h-42.16l-12.05-30.11c6.02,0,12.05,0,18.07,6.02,2.7-3.44,6.02-6.02,15.06-6.15,9.03.13,12.1,1.98,15.06,6.15,6.02-6.02,12.05-6.02,18.07-6.02l-12.05,30.11Z"/>
    <path class="cls-1" d="M1697.39,138.81h-42.16c-12.05,12.05-30.11,33.2-30.11,54.2,0,28.92,22.67,52.48,51.19,54.05,28.53-1.57,51.19-25.13,51.19-54.05,0-21.01-18.07-42.16-30.11-54.2Z"/>
    <path class="cls-4" d="M1661.85,177.96c0-7.98,6.47-14.45,14.45-14.45s14.45,6.47,14.45,14.45"/>
    <path class="cls-4" d="M1690.76,202.05c0,7.98-6.47,14.45-14.45,14.45s-14.45-6.47-14.45-14.45"/>
    <path class="cls-4" d="M1661.85,177.96c0,9.63,4.93,12.04,14.45,12.04,8.65,0,14.46,2.41,14.46,12.05"/>
  </g>
</svg>