<?xml version="1.0" encoding="UTF-8"?>
<svg id="Layer_1" data-name="Layer 1" xmlns="http://www.w3.org/2000/svg" viewBox="0 0 1891.2 1061.52">
  <defs>
    <style>
      .cls-1, .cls-2, .cls-3, .cls-4, .cls-5 {
        fill: none;
      }

      .cls-1, .cls-2, .cls-6, .cls-7, .cls-4 {
        stroke-miterlimit: 10;
      }

      .cls-1, .cls-3, .cls-5 {
        stroke: #fff;
        stroke-linecap: round;
      }

      .cls-1, .cls-5 {
        stroke-width: 3px;
      }

      .cls-8, .cls-9, .cls-10, .cls-11 {
        font-size: 22px;
      }

      .cls-8, .cls-9, .cls-12, .cls-13 {
        font-family: OpenSans-Bold, 'Open Sans';
        font-weight: 700;
      }

      .cls-9 {
        fill: gray;
      }

      .cls-2 {
        stroke: #00a99d;
        stroke-width: 5px;
      }

      .cls-3, .cls-4 {
        stroke-width: 2px;
      }

      .cls-3, .cls-5 {
        stroke-linejoin: round;
      }

      .cls-10, .cls-14, .cls-11 {
        font-family: OpenSans-Semibold, 'Open Sans';
        font-weight: 600;
      }

      .cls-6 {
        fill: #e6e6e6;
      }

      .cls-6, .cls-7 {
        stroke: #b3b3b3;
      }

      .cls-14, .cls-12 {
        font-size: 25px;
      }

      .cls-14, .cls-11 {
        fill: #666;
      }

      .cls-7 {
        fill: #f2f2f2;
      }

      .cls-4 {
        stroke: #ff931e;
      }

      .cls-12, .cls-15 {
        fill: #333;
      }

      .cls-13 {
        font-size: 29px;
      }

      .cls-13, .cls-16 {
        fill: #ff931e;
      }

      .cls-17, .cls-18, .cls-15, .cls-16, .cls-19, .cls-20, .cls-21 {
        stroke-width: 0px;
      }

      .cls-18 {
        fill: #29abe2;
      }

      .cls-19 {
        fill: #ff7bac;
      }

      .cls-20 {
        fill: #fff;
      }

      .cls-21 {
        fill: #00a99d;
      }
    </style>
  </defs>
  <rect class="cls-7" x="360.32" y=".52" width="260" height="1060"/>
  <rect class="cls-7" x="703.37" y=".52" width="527.63" height="1060"/>
  <rect class="cls-7" x="1363.07" y=".5" width="527.63" height="1060.02"/>
  <text class="cls-12" transform="translate(421.79 54.8)"><tspan x="0" y="0">CUSTOMER</tspan></text>
  <text class="cls-12" transform="translate(891.2 54.8)"><tspan x="0" y="0">MERCHANT</tspan></text>
  <g>
    <path class="cls-15" d="M1527.96,32.52c0,1.92-.6,3.39-1.8,4.41-1.2,1.02-2.91,1.53-5.12,1.53h-1.62v6.35h-3.79v-17.85h5.7c2.16,0,3.81.47,4.94,1.4,1.13.93,1.69,2.32,1.69,4.17ZM1519.42,35.35h1.24c1.16,0,2.04-.23,2.61-.69.58-.46.87-1.13.87-2.01s-.24-1.54-.72-1.97c-.48-.42-1.24-.63-2.28-.63h-1.72v5.3Z"/>
    <path class="cls-15" d="M1542.26,44.8l-1.29-4.25h-6.51l-1.29,4.25h-4.08l6.3-17.92h4.63l6.32,17.92h-4.08ZM1540.06,37.38c-1.2-3.85-1.87-6.03-2.02-6.53-.15-.5-.26-.9-.32-1.2-.27,1.04-1.04,3.62-2.31,7.73h4.65Z"/>
    <path class="cls-15" d="M1554.13,34.3l3.72-7.35h4.08l-5.92,10.9v6.95h-3.76v-6.82l-5.92-11.02h4.1l3.7,7.35Z"/>
    <path class="cls-15" d="M1571.74,44.8l-4.3-14h-.11c.15,2.85.23,4.75.23,5.7v8.3h-3.38v-17.85h5.15l4.22,13.65h.07l4.48-13.65h5.15v17.85h-3.53v-8.45c0-.4,0-.86.02-1.38.01-.52.07-1.9.16-4.15h-.11l-4.6,13.98h-3.47Z"/>
    <path class="cls-15" d="M1598.03,44.8h-10.28v-17.85h10.28v3.1h-6.49v3.92h6.04v3.1h-6.04v4.6h6.49v3.12Z"/>
    <path class="cls-15" d="M1617.59,44.8h-4.81l-7.76-13.5h-.11c.15,2.38.23,4.09.23,5.1v8.4h-3.38v-17.85h4.77l7.75,13.37h.08c-.12-2.32-.18-3.96-.18-4.92v-8.45h3.4v17.85Z"/>
    <path class="cls-15" d="M1628.96,44.8h-3.78v-14.7h-4.85v-3.15h13.48v3.15h-4.85v14.7Z"/>
    <path class="cls-15" d="M1659.25,35.85c0,2.95-.73,5.22-2.2,6.81s-3.56,2.38-6.3,2.38-4.83-.79-6.3-2.38-2.2-3.87-2.2-6.84.73-5.24,2.2-6.81c1.47-1.57,3.57-2.35,6.32-2.35s4.84.79,6.29,2.37c1.45,1.58,2.18,3.85,2.18,6.81ZM1646.22,35.85c0,1.99.38,3.5,1.13,4.5.76,1.01,1.89,1.51,3.39,1.51,3.02,0,4.53-2.01,4.53-6.02s-1.5-6.03-4.5-6.03c-1.51,0-2.64.51-3.41,1.52-.76,1.01-1.15,2.52-1.15,4.51Z"/>
    <path class="cls-15" d="M1675.28,32.52c0,1.92-.6,3.39-1.8,4.41-1.2,1.02-2.91,1.53-5.12,1.53h-1.62v6.35h-3.79v-17.85h5.7c2.16,0,3.81.47,4.94,1.4,1.13.93,1.69,2.32,1.69,4.17ZM1666.73,35.35h1.24c1.16,0,2.04-.23,2.61-.69.58-.46.87-1.13.87-2.01s-.24-1.54-.72-1.97c-.48-.42-1.24-.63-2.28-.63h-1.72v5.3Z"/>
    <path class="cls-15" d="M1685.53,44.8h-3.79v-14.7h-4.85v-3.15h13.48v3.15h-4.85v14.7Z"/>
    <path class="cls-15" d="M1693.12,44.8v-17.85h3.79v17.85h-3.79Z"/>
    <path class="cls-15" d="M1717.6,35.85c0,2.95-.73,5.22-2.2,6.81s-3.56,2.38-6.3,2.38-4.83-.79-6.3-2.38-2.2-3.87-2.2-6.84.73-5.24,2.2-6.81c1.47-1.57,3.57-2.35,6.32-2.35s4.84.79,6.29,2.37c1.45,1.58,2.18,3.85,2.18,6.81ZM1704.57,35.85c0,1.99.38,3.5,1.13,4.5.76,1.01,1.89,1.51,3.39,1.51,3.02,0,4.53-2.01,4.53-6.02s-1.5-6.03-4.5-6.03c-1.51,0-2.64.51-3.41,1.52-.76,1.01-1.15,2.52-1.15,4.51Z"/>
    <path class="cls-15" d="M1737.13,44.8h-4.81l-7.76-13.5h-.11c.15,2.38.23,4.09.23,5.1v8.4h-3.38v-17.85h4.77l7.75,13.37h.08c-.12-2.32-.18-3.96-.18-4.92v-8.45h3.4v17.85Z"/>
    <path class="cls-15" d="M1752.16,39.85c0,1.61-.58,2.88-1.74,3.81-1.16.93-2.77,1.39-4.84,1.39-1.9,0-3.59-.36-5.05-1.07v-3.52c1.2.54,2.22.92,3.06,1.14s1.6.33,2.29.33c.83,0,1.47-.16,1.91-.48s.67-.79.67-1.42c0-.35-.1-.66-.29-.93-.2-.27-.48-.53-.86-.79-.38-.25-1.15-.65-2.31-1.21-1.09-.51-1.91-1-2.45-1.48-.54-.47-.98-1.02-1.31-1.65-.33-.63-.49-1.36-.49-2.2,0-1.58.54-2.82,1.61-3.72s2.55-1.35,4.44-1.35c.93,0,1.81.11,2.65.33s1.72.53,2.64.93l-1.22,2.94c-.95-.39-1.74-.66-2.36-.82-.62-.15-1.23-.23-1.84-.23-.71,0-1.27.17-1.65.5-.38.33-.57.77-.57,1.31,0,.33.08.62.23.87.16.25.4.49.74.72.34.23,1.14.65,2.4,1.25,1.67.8,2.81,1.6,3.43,2.4.62.8.93,1.78.93,2.95Z"/>
    <path class="cls-15" d="M1581.86,64.78h7.08v9.25c-1.15.37-2.23.64-3.24.79-1.01.15-2.05.23-3.11.23-2.7,0-4.75-.79-6.17-2.37-1.42-1.58-2.13-3.86-2.13-6.82s.82-5.13,2.47-6.74,3.93-2.42,6.86-2.42c1.83,0,3.6.37,5.3,1.1l-1.26,3.03c-1.3-.65-2.66-.98-4.06-.98-1.63,0-2.95.55-3.93,1.65-.99,1.1-1.48,2.58-1.48,4.43s.4,3.42,1.19,4.44c.79,1.02,1.95,1.53,3.46,1.53.79,0,1.59-.08,2.4-.24v-3.72h-3.38v-3.15Z"/>
    <path class="cls-15" d="M1604.12,74.8l-1.29-4.25h-6.51l-1.29,4.25h-4.08l6.3-17.92h4.63l6.32,17.92h-4.08ZM1601.92,67.38c-1.2-3.85-1.87-6.03-2.02-6.53-.15-.5-.26-.9-.32-1.2-.27,1.04-1.04,3.62-2.31,7.73h4.65Z"/>
    <path class="cls-15" d="M1617.32,74.8h-3.79v-14.7h-4.85v-3.15h13.48v3.15h-4.85v14.7Z"/>
    <path class="cls-15" d="M1635.2,74.8h-10.28v-17.85h10.28v3.1h-6.49v3.92h6.04v3.1h-6.04v4.6h6.49v3.12Z"/>
    <path class="cls-15" d="M1656.3,74.8h-4.31l-2.42-9.38c-.09-.33-.24-1.02-.46-2.07-.21-1.05-.34-1.75-.37-2.11-.05.44-.17,1.15-.37,2.12-.2.97-.35,1.67-.45,2.08l-2.41,9.35h-4.3l-4.55-17.85h3.72l2.28,9.74c.4,1.8.69,3.36.87,4.68.05-.46.16-1.18.34-2.15.17-.97.34-1.73.49-2.26l2.6-10h3.58l2.6,10c.11.45.26,1.13.43,2.05.17.92.3,1.71.39,2.37.08-.63.21-1.43.39-2.37.18-.95.34-1.71.49-2.3l2.27-9.74h3.72l-4.54,17.85Z"/>
    <path class="cls-15" d="M1674.01,74.8l-1.29-4.25h-6.51l-1.29,4.25h-4.08l6.3-17.92h4.63l6.32,17.92h-4.08ZM1671.82,67.38c-1.2-3.85-1.87-6.03-2.02-6.53-.15-.5-.26-.9-.32-1.2-.27,1.04-1.04,3.62-2.31,7.73h4.65Z"/>
    <path class="cls-15" d="M1685.89,64.3l3.72-7.35h4.08l-5.92,10.9v6.95h-3.76v-6.82l-5.92-11.02h4.1l3.7,7.35Z"/>
  </g>
  <rect class="cls-18" x="904.72" y="126.02" width="114.71" height="114.71" rx="19.94" ry="19.94"/>
  <rect class="cls-19" x="432.96" y="143.02" width="114.71" height="114.71" rx="19.94" ry="19.94"/>
  <text class="cls-10" transform="translate(438.37 282.49)"><tspan x="0" y="0">Customer</tspan></text>
  <g>
    <path class="cls-17" d="M911.5,257.62c0,2.56-.64,4.54-1.92,5.96-1.28,1.42-3.09,2.13-5.43,2.13s-4.19-.7-5.46-2.11c-1.27-1.41-1.91-3.41-1.91-6s.64-4.58,1.92-5.97c1.28-1.39,3.1-2.08,5.47-2.08s4.14.71,5.41,2.12c1.27,1.41,1.91,3.4,1.91,5.96ZM899.51,257.62c0,1.93.39,3.4,1.17,4.4s1.94,1.5,3.47,1.5,2.68-.49,3.45-1.48c.78-.99,1.17-2.46,1.17-4.42s-.38-3.39-1.16-4.38c-.77-1-1.92-1.49-3.44-1.49s-2.7.5-3.49,1.49c-.79,1-1.18,2.46-1.18,4.38Z"/>
    <path class="cls-17" d="M925.06,265.49h-2.54v-7.3c0-.92-.18-1.6-.55-2.05-.37-.45-.95-.68-1.76-.68-1.07,0-1.85.32-2.34.95-.49.63-.74,1.69-.74,3.17v5.92h-2.52v-11.88h1.98l.35,1.56h.13c.36-.57.87-1,1.53-1.31.66-.31,1.39-.46,2.19-.46,2.85,0,4.28,1.45,4.28,4.35v7.75Z"/>
    <path class="cls-17" d="M931.09,265.49h-2.52v-16.71h2.52v16.71Z"/>
    <path class="cls-17" d="M934.55,250.46c0-.45.12-.8.37-1.04.25-.24.6-.37,1.06-.37s.79.12,1.04.37c.25.24.37.59.37,1.04s-.12.77-.37,1.02c-.25.25-.59.37-1.04.37s-.81-.12-1.06-.37c-.25-.25-.37-.59-.37-1.02ZM937.23,265.49h-2.52v-11.88h2.52v11.88Z"/>
    <path class="cls-17" d="M951.29,265.49h-2.54v-7.3c0-.92-.18-1.6-.55-2.05-.37-.45-.95-.68-1.76-.68-1.07,0-1.85.32-2.34.95-.49.63-.74,1.69-.74,3.17v5.92h-2.52v-11.88h1.98l.35,1.56h.13c.36-.57.87-1,1.53-1.31.66-.31,1.39-.46,2.19-.46,2.85,0,4.28,1.45,4.28,4.35v7.75Z"/>
    <path class="cls-17" d="M959.99,265.71c-1.85,0-3.29-.54-4.33-1.62-1.04-1.08-1.56-2.56-1.56-4.45s.48-3.47,1.45-4.58c.97-1.11,2.29-1.67,3.99-1.67,1.57,0,2.81.48,3.72,1.43.91.95,1.36,2.26,1.36,3.93v1.36h-7.92c.04,1.15.35,2.04.93,2.66.59.62,1.41.93,2.48.93.7,0,1.36-.07,1.96-.2.6-.13,1.25-.35,1.95-.66v2.05c-.62.29-1.24.5-1.87.62s-1.35.18-2.16.18ZM959.53,255.31c-.8,0-1.45.25-1.93.76-.48.51-.77,1.25-.87,2.22h5.39c-.01-.98-.25-1.72-.71-2.23s-1.09-.76-1.89-.76Z"/>
    <path class="cls-17" d="M982.52,261.23c0,1.4-.5,2.49-1.51,3.29s-2.4,1.19-4.18,1.19-3.23-.28-4.36-.83v-2.43c.72.34,1.48.6,2.28.79.8.19,1.56.29,2.25.29,1.02,0,1.77-.19,2.25-.58.48-.39.73-.91.73-1.56,0-.59-.22-1.08-.67-1.49s-1.36-.89-2.75-1.45c-1.43-.58-2.44-1.24-3.03-1.99-.59-.74-.88-1.64-.88-2.69,0-1.31.47-2.34,1.4-3.09s2.18-1.13,3.75-1.13,3,.33,4.49.99l-.82,2.09c-1.4-.59-2.64-.88-3.74-.88-.83,0-1.46.18-1.89.54-.43.36-.64.84-.64,1.43,0,.41.09.76.26,1.05s.46.56.85.82,1.1.6,2.13,1.02c1.15.48,2,.93,2.54,1.34.54.42.93.88,1.18,1.41.25.52.38,1.14.38,1.85Z"/>
    <path class="cls-17" d="M989.71,263.67c.62,0,1.23-.1,1.85-.29v1.9c-.28.12-.64.22-1.08.31-.44.08-.9.12-1.37.12-2.39,0-3.59-1.26-3.59-3.78v-6.4h-1.62v-1.12l1.74-.92.86-2.51h1.56v2.64h3.38v1.91h-3.38v6.36c0,.61.15,1.06.46,1.35.3.29.7.44,1.2.44Z"/>
    <path class="cls-17" d="M1004.47,259.53c0,1.94-.5,3.46-1.49,4.54-1,1.09-2.38,1.63-4.16,1.63-1.11,0-2.09-.25-2.94-.75-.85-.5-1.51-1.22-1.97-2.16-.46-.94-.69-2.03-.69-3.27,0-1.93.49-3.43,1.48-4.51.99-1.08,2.38-1.62,4.18-1.62s3.08.55,4.08,1.66,1.5,2.6,1.5,4.47ZM995.83,259.53c0,2.74,1.01,4.11,3.04,4.11s3.01-1.37,3.01-4.11-1.01-4.07-3.03-4.07c-1.06,0-1.83.35-2.3,1.05-.48.7-.71,1.71-.71,3.02Z"/>
    <path class="cls-17" d="M1013.4,253.4c.51,0,.93.04,1.26.11l-.25,2.35c-.36-.09-.73-.13-1.12-.13-1.01,0-1.83.33-2.45.99-.63.66-.94,1.51-.94,2.57v6.21h-2.52v-11.88h1.98l.33,2.09h.13c.39-.71.91-1.27,1.54-1.69.63-.42,1.32-.62,2.05-.62Z"/>
    <path class="cls-17" d="M1022.05,265.71c-1.85,0-3.29-.54-4.33-1.62-1.04-1.08-1.56-2.56-1.56-4.45s.48-3.47,1.45-4.58c.97-1.11,2.29-1.67,3.99-1.67,1.57,0,2.81.48,3.72,1.43.91.95,1.36,2.26,1.36,3.93v1.36h-7.92c.04,1.15.35,2.04.93,2.66.59.62,1.41.93,2.48.93.7,0,1.36-.07,1.96-.2.6-.13,1.25-.35,1.95-.66v2.05c-.62.29-1.24.5-1.87.62s-1.35.18-2.16.18ZM1021.58,255.31c-.8,0-1.45.25-1.93.76-.48.51-.77,1.25-.87,2.22h5.39c-.01-.98-.25-1.72-.71-2.23s-1.09-.76-1.89-.76Z"/>
    <path class="cls-17" d="M891.85,278.16c-1.48,0-2.64.52-3.48,1.57-.84,1.05-1.27,2.49-1.27,4.33s.41,3.38,1.22,4.37c.81.99,1.99,1.48,3.53,1.48.67,0,1.31-.07,1.93-.2.62-.13,1.27-.3,1.94-.51v2.2c-1.23.47-2.63.7-4.19.7-2.3,0-4.06-.7-5.3-2.09-1.23-1.39-1.85-3.39-1.85-5.98,0-1.63.3-3.06.9-4.29.6-1.22,1.46-2.16,2.59-2.81,1.13-.65,2.46-.98,3.99-.98,1.6,0,3.09.34,4.45,1.01l-.92,2.14c-.53-.25-1.09-.47-1.68-.66-.59-.19-1.21-.28-1.86-.28Z"/>
    <path class="cls-17" d="M909.29,291.89h-2.54v-7.3c0-.92-.18-1.6-.55-2.05-.37-.45-.95-.68-1.76-.68-1.06,0-1.84.32-2.34.95-.5.63-.75,1.7-.75,3.19v5.9h-2.52v-16.71h2.52v4.24c0,.68-.04,1.41-.13,2.18h.16c.34-.57.82-1.02,1.43-1.33.61-.31,1.33-.47,2.14-.47,2.88,0,4.32,1.45,4.32,4.35v7.75Z"/>
    <path class="cls-17" d="M917.99,292.11c-1.85,0-3.29-.54-4.33-1.62-1.04-1.08-1.56-2.56-1.56-4.45s.48-3.47,1.45-4.58c.97-1.11,2.29-1.67,3.99-1.67,1.57,0,2.81.48,3.72,1.43.91.95,1.36,2.26,1.36,3.93v1.36h-7.92c.04,1.15.35,2.04.93,2.66.59.62,1.41.93,2.48.93.7,0,1.36-.07,1.96-.2.6-.13,1.25-.35,1.95-.66v2.05c-.62.29-1.24.5-1.87.62s-1.35.18-2.16.18ZM917.53,281.71c-.8,0-1.45.25-1.93.76-.48.51-.77,1.25-.87,2.22h5.39c-.01-.98-.25-1.72-.71-2.23s-1.09-.76-1.89-.76Z"/>
    <path class="cls-17" d="M930.27,292.11c-1.8,0-3.16-.52-4.1-1.57-.94-1.05-1.4-2.55-1.4-4.52s.49-3.53,1.47-4.61c.98-1.07,2.39-1.61,4.24-1.61,1.25,0,2.38.23,3.38.7l-.76,2.03c-1.07-.42-1.95-.62-2.64-.62-2.06,0-3.08,1.36-3.08,4.09,0,1.33.26,2.33.77,3,.51.67,1.26,1,2.25,1,1.12,0,2.19-.28,3.19-.84v2.2c-.45.27-.93.46-1.45.57-.51.11-1.13.17-1.86.17Z"/>
    <path class="cls-17" d="M938.81,285.62l1.43-1.78,3.59-3.82h2.91l-4.78,5.1,5.08,6.78h-2.96l-3.81-5.21-1.39,1.14v4.07h-2.5v-16.71h2.5v8.15l-.13,2.29h.06Z"/>
    <path class="cls-17" d="M959.49,285.93c0,1.94-.5,3.46-1.49,4.54-1,1.09-2.38,1.63-4.16,1.63-1.11,0-2.09-.25-2.94-.75-.85-.5-1.51-1.22-1.97-2.16-.46-.94-.69-2.03-.69-3.27,0-1.93.49-3.43,1.48-4.51.99-1.08,2.38-1.62,4.18-1.62s3.08.55,4.08,1.66,1.5,2.6,1.5,4.47ZM950.84,285.93c0,2.74,1.01,4.11,3.04,4.11s3.01-1.37,3.01-4.11-1.01-4.07-3.03-4.07c-1.06,0-1.83.35-2.3,1.05-.48.7-.71,1.71-.71,3.02Z"/>
    <path class="cls-17" d="M970.77,291.89l-.35-1.56h-.13c-.35.55-.85.98-1.5,1.3-.65.31-1.39.47-2.22.47-1.44,0-2.51-.36-3.22-1.07-.71-.72-1.06-1.8-1.06-3.25v-7.77h2.55v7.33c0,.91.19,1.59.56,2.05.37.46.96.68,1.75.68,1.06,0,1.84-.32,2.34-.95.5-.63.75-1.7.75-3.19v-5.92h2.54v11.88h-1.99Z"/>
    <path class="cls-17" d="M980.78,290.07c.62,0,1.23-.1,1.85-.29v1.9c-.28.12-.64.22-1.08.31-.44.08-.9.12-1.37.12-2.39,0-3.59-1.26-3.59-3.78v-6.4h-1.62v-1.12l1.74-.92.86-2.51h1.56v2.64h3.38v1.91h-3.38v6.36c0,.61.15,1.06.46,1.35.3.29.7.44,1.2.44Z"/>
    <path class="cls-17" d="M1001.38,280.93c0,1.64-.54,2.9-1.61,3.77-1.07.87-2.6,1.31-4.59,1.31h-1.63v5.88h-2.57v-15.71h4.52c1.96,0,3.43.4,4.41,1.2.98.8,1.47,1.98,1.47,3.54ZM993.55,283.86h1.36c1.32,0,2.28-.23,2.9-.69.62-.46.92-1.17.92-2.15,0-.9-.28-1.58-.83-2.02-.55-.44-1.41-.67-2.58-.67h-1.78v5.52Z"/>
    <path class="cls-17" d="M1011.69,291.89l-.5-1.65h-.09c-.57.72-1.15,1.22-1.73,1.48s-1.33.39-2.23.39c-1.17,0-2.08-.31-2.73-.95-.65-.63-.98-1.52-.98-2.67,0-1.22.46-2.15,1.36-2.77s2.29-.96,4.16-1.02l2.05-.06v-.63c0-.76-.18-1.33-.53-1.7-.35-.38-.9-.56-1.65-.56-.61,0-1.19.09-1.75.27-.56.18-1.1.39-1.61.63l-.82-1.8c.64-.34,1.35-.59,2.12-.77.77-.18,1.49-.26,2.17-.26,1.51,0,2.65.33,3.42.99.77.66,1.15,1.69,1.15,3.1v8h-1.8ZM1007.93,290.17c.92,0,1.65-.26,2.21-.77.56-.51.83-1.23.83-2.15v-1.03l-1.53.06c-1.19.04-2.05.24-2.59.6-.54.35-.81.9-.81,1.63,0,.53.16.94.47,1.23s.79.44,1.42.44Z"/>
    <path class="cls-17" d="M1027.05,280.01v1.39l-2.03.38c.19.25.34.56.46.92s.18.75.18,1.16c0,1.22-.42,2.19-1.27,2.89-.84.7-2.01,1.05-3.49,1.05-.38,0-.72-.03-1.03-.09-.54.34-.82.73-.82,1.18,0,.27.13.48.38.61.25.14.72.2,1.4.2h2.07c1.31,0,2.31.28,2.99.84s1.02,1.36,1.02,2.42c0,1.35-.55,2.38-1.67,3.12s-2.71,1.1-4.81,1.1c-1.62,0-2.85-.29-3.71-.86-.85-.57-1.28-1.39-1.28-2.45,0-.73.23-1.34.69-1.84.46-.5,1.11-.84,1.94-1.04-.34-.14-.61-.37-.83-.69-.22-.32-.33-.65-.33-1,0-.44.12-.82.38-1.13.25-.31.62-.61,1.12-.91-.62-.26-1.12-.7-1.5-1.29-.38-.6-.57-1.3-.57-2.1,0-1.29.41-2.29,1.22-3,.81-.71,1.97-1.06,3.48-1.06.34,0,.69.02,1.06.07.37.05.65.1.83.15h4.11ZM1017.71,293.74c0,.54.25.96.74,1.26.49.29,1.18.44,2.07.44,1.38,0,2.4-.2,3.07-.59.67-.39,1.01-.92,1.01-1.57,0-.52-.18-.88-.55-1.1-.37-.22-1.05-.33-2.06-.33h-1.91c-.72,0-1.3.17-1.72.51-.43.34-.64.8-.64,1.38ZM1018.8,283.86c0,.75.19,1.32.57,1.72.38.4.93.6,1.65.6,1.46,0,2.19-.78,2.19-2.34,0-.77-.18-1.37-.54-1.79-.36-.42-.91-.63-1.65-.63s-1.28.21-1.66.62c-.38.42-.56,1.02-.56,1.82Z"/>
    <path class="cls-17" d="M1034.44,292.11c-1.85,0-3.29-.54-4.33-1.62-1.04-1.08-1.56-2.56-1.56-4.45s.48-3.47,1.45-4.58c.97-1.11,2.29-1.67,3.99-1.67,1.57,0,2.81.48,3.72,1.43.91.95,1.36,2.26,1.36,3.93v1.36h-7.92c.04,1.15.35,2.04.93,2.66.59.62,1.41.93,2.48.93.7,0,1.36-.07,1.96-.2.6-.13,1.25-.35,1.95-.66v2.05c-.62.29-1.24.5-1.87.62s-1.35.18-2.16.18ZM1033.98,281.71c-.8,0-1.45.25-1.93.76-.48.51-.77,1.25-.87,2.22h5.39c-.01-.98-.25-1.72-.71-2.23s-1.09-.76-1.89-.76Z"/>
  </g>
  <rect class="cls-16" x="1453.12" y="126.02" width="114.71" height="114.71" rx="19.94" ry="19.94"/>
  <g>
    <path class="cls-17" d="M1425.65,265.49h-3.32v-6.78h-6.22v6.78h-3.33v-15.71h3.33v6.16h6.22v-6.16h3.32v15.71Z"/>
    <path class="cls-17" d="M1443.87,257.62c0,2.6-.64,4.6-1.93,5.99s-3.14,2.09-5.54,2.09-4.25-.7-5.54-2.09-1.93-3.4-1.93-6.02.65-4.61,1.94-5.99c1.29-1.38,3.15-2.07,5.56-2.07s4.26.69,5.54,2.08c1.28,1.39,1.92,3.39,1.92,5.99ZM1432.41,257.62c0,1.75.33,3.08,1,3.96.67.89,1.66,1.33,2.99,1.33,2.66,0,3.99-1.77,3.99-5.3s-1.32-5.31-3.96-5.31c-1.33,0-2.32.45-3,1.34s-1.01,2.21-1.01,3.97Z"/>
    <path class="cls-17" d="M1456.39,261.13c0,1.42-.51,2.54-1.53,3.35-1.02.82-2.44,1.22-4.26,1.22-1.68,0-3.16-.31-4.45-.95v-3.09c1.06.47,1.96.81,2.69,1,.73.19,1.41.29,2.01.29.73,0,1.29-.14,1.68-.42.39-.28.58-.69.58-1.25,0-.31-.09-.58-.26-.82-.17-.24-.42-.47-.76-.69-.33-.22-1.01-.58-2.04-1.06-.96-.45-1.68-.88-2.16-1.3-.48-.42-.86-.9-1.15-1.45-.29-.55-.43-1.2-.43-1.93,0-1.39.47-2.48,1.41-3.28.94-.79,2.24-1.19,3.9-1.19.82,0,1.6.1,2.34.29.74.19,1.52.47,2.33.82l-1.07,2.59c-.84-.34-1.53-.58-2.08-.72-.55-.14-1.09-.2-1.62-.2-.63,0-1.11.15-1.45.44-.34.29-.5.68-.5,1.15,0,.29.07.55.2.77.14.22.35.43.65.63.3.2,1,.57,2.11,1.1,1.47.7,2.47,1.41,3.02,2.11.54.71.82,1.57.82,2.59Z"/>
    <path class="cls-17" d="M1465.3,265.49h-3.33v-12.93h-4.26v-2.77h11.86v2.77h-4.26v12.93Z"/>
    <path class="cls-17" d="M1481.03,265.49h-9.04v-15.71h9.04v2.73h-5.71v3.45h5.32v2.73h-5.32v4.05h5.71v2.75Z"/>
    <path class="cls-17" d="M1497.33,257.49c0,2.59-.74,4.57-2.21,5.94-1.47,1.38-3.6,2.06-6.38,2.06h-4.45v-15.71h4.93c2.56,0,4.55.68,5.97,2.03s2.13,3.24,2.13,5.67ZM1493.87,257.57c0-3.37-1.49-5.06-4.47-5.06h-1.77v10.23h1.43c3.21,0,4.81-1.72,4.81-5.17Z"/>
    <path class="cls-17" d="M1517.15,254.68c0,1.69-.53,2.98-1.58,3.88-1.06.9-2.56,1.34-4.51,1.34h-1.43v5.59h-3.33v-15.71h5.02c1.91,0,3.35.41,4.34,1.23.99.82,1.49,2.04,1.49,3.67ZM1509.63,257.18h1.1c1.02,0,1.79-.2,2.3-.61.51-.4.76-.99.76-1.77s-.21-1.36-.64-1.73c-.43-.37-1.09-.56-2-.56h-1.51v4.66Z"/>
    <path class="cls-17" d="M1529.73,265.49l-1.14-3.74h-5.73l-1.14,3.74h-3.59l5.54-15.77h4.07l5.56,15.77h-3.59ZM1527.8,258.96c-1.05-3.39-1.65-5.3-1.78-5.75-.13-.44-.23-.79-.28-1.05-.24.92-.91,3.18-2.03,6.8h4.09Z"/>
    <path class="cls-17" d="M1540.18,256.25l3.28-6.47h3.59l-5.21,9.59v6.11h-3.31v-6l-5.21-9.7h3.61l3.25,6.47Z"/>
    <path class="cls-17" d="M1555.67,265.49l-3.78-12.32h-.1c.14,2.51.2,4.18.2,5.02v7.3h-2.98v-15.71h4.53l3.72,12.01h.06l3.94-12.01h4.53v15.71h-3.1v-7.43c0-.35,0-.76.02-1.21.01-.46.06-1.68.15-3.65h-.1l-4.05,12.3h-3.05Z"/>
    <path class="cls-17" d="M1578.81,265.49h-9.04v-15.71h9.04v2.73h-5.71v3.45h5.32v2.73h-5.32v4.05h5.71v2.75Z"/>
    <path class="cls-17" d="M1596.02,265.49h-4.23l-6.83-11.88h-.1c.14,2.1.2,3.6.2,4.49v7.39h-2.98v-15.71h4.2l6.82,11.76h.08c-.11-2.04-.16-3.48-.16-4.33v-7.43h3v15.71Z"/>
    <path class="cls-17" d="M1606.03,265.49h-3.33v-12.93h-4.26v-2.77h11.86v2.77h-4.26v12.93Z"/>
    <path class="cls-17" d="M1494.97,281.08c0,1.69-.53,2.98-1.58,3.88-1.06.9-2.56,1.34-4.51,1.34h-1.43v5.59h-3.33v-15.71h5.02c1.91,0,3.35.41,4.34,1.23.99.82,1.49,2.04,1.49,3.67ZM1487.46,283.58h1.1c1.02,0,1.79-.2,2.3-.61.51-.4.76-.99.76-1.77s-.21-1.36-.64-1.73c-.43-.37-1.09-.56-2-.56h-1.51v4.66Z"/>
    <path class="cls-17" d="M1507.55,291.89l-1.14-3.74h-5.73l-1.14,3.74h-3.59l5.54-15.77h4.07l5.56,15.77h-3.59ZM1505.62,285.36c-1.05-3.39-1.65-5.3-1.78-5.75-.13-.44-.23-.79-.28-1.05-.24.92-.91,3.18-2.03,6.8h4.09Z"/>
    <path class="cls-17" d="M1519.08,283.07h6.23v8.14c-1.01.33-1.96.56-2.85.69-.89.13-1.8.2-2.73.2-2.37,0-4.18-.7-5.43-2.09-1.25-1.39-1.87-3.39-1.87-6s.73-4.51,2.17-5.93c1.45-1.42,3.46-2.13,6.03-2.13,1.61,0,3.17.32,4.66.97l-1.11,2.66c-1.15-.57-2.34-.86-3.58-.86-1.44,0-2.59.48-3.46,1.45s-1.3,2.27-1.3,3.9.35,3.01,1.05,3.9c.7.9,1.71,1.35,3.05,1.35.69,0,1.4-.07,2.12-.21v-3.28h-2.98v-2.77Z"/>
    <path class="cls-17" d="M1538.09,291.89h-9.04v-15.71h9.04v2.73h-5.71v3.45h5.32v2.73h-5.32v4.05h5.71v2.75Z"/>
  </g>
  <rect class="cls-18" x="1062.12" y="371.02" width="114.71" height="114.71" rx="19.94" ry="19.94"/>
  <text class="cls-8" transform="translate(1608.17 515.49)"><tspan x="0" y="0">APIs</tspan></text>
  <rect class="cls-16" x="1706.12" y="126.02" width="114.71" height="114.71" rx="19.94" ry="19.94"/>
  <g>
    <path class="cls-17" d="M1678.74,265.49h-2.58v-7.08h-7.24v7.08h-2.57v-15.71h2.57v6.42h7.24v-6.42h2.58v15.71Z"/>
    <path class="cls-17" d="M1693.14,259.53c0,1.94-.5,3.46-1.49,4.54-1,1.09-2.38,1.63-4.16,1.63-1.11,0-2.09-.25-2.94-.75-.85-.5-1.51-1.22-1.97-2.16-.46-.94-.69-2.03-.69-3.27,0-1.93.49-3.43,1.48-4.51.99-1.08,2.38-1.62,4.18-1.62s3.08.55,4.08,1.66,1.5,2.6,1.5,4.47ZM1684.49,259.53c0,2.74,1.01,4.11,3.04,4.11s3.01-1.37,3.01-4.11-1.01-4.07-3.03-4.07c-1.06,0-1.83.35-2.3,1.05-.48.7-.71,1.71-.71,3.02Z"/>
    <path class="cls-17" d="M1704.02,262.11c0,1.16-.42,2.05-1.27,2.67-.84.62-2.06.93-3.63.93s-2.85-.24-3.81-.72v-2.18c1.4.64,2.7.97,3.9.97,1.55,0,2.33-.47,2.33-1.41,0-.3-.09-.55-.26-.75-.17-.2-.46-.41-.85-.62s-.94-.46-1.64-.73c-1.37-.53-2.29-1.06-2.78-1.59-.48-.53-.72-1.22-.72-2.06,0-1.02.41-1.81,1.23-2.37.82-.56,1.93-.84,3.35-.84s2.72.28,3.96.85l-.82,1.9c-1.28-.53-2.36-.79-3.23-.79-1.33,0-2,.38-2,1.14,0,.37.17.69.52.95.35.26,1.1.61,2.27,1.06.98.38,1.69.73,2.14,1.04.44.32.77.68.99,1.09.21.41.32.9.32,1.48Z"/>
    <path class="cls-17" d="M1711.18,263.67c.62,0,1.23-.1,1.85-.29v1.9c-.28.12-.64.22-1.08.31-.44.08-.9.12-1.37.12-2.39,0-3.59-1.26-3.59-3.78v-6.4h-1.62v-1.12l1.74-.92.86-2.51h1.56v2.64h3.38v1.91h-3.38v6.36c0,.61.15,1.06.46,1.35.3.29.7.44,1.2.44Z"/>
    <path class="cls-17" d="M1720.59,265.71c-1.85,0-3.29-.54-4.33-1.62-1.04-1.08-1.56-2.56-1.56-4.45s.48-3.47,1.45-4.58c.97-1.11,2.29-1.67,3.99-1.67,1.57,0,2.81.48,3.72,1.43.91.95,1.36,2.26,1.36,3.93v1.36h-7.92c.04,1.15.35,2.04.93,2.66.59.62,1.41.93,2.48.93.7,0,1.36-.07,1.96-.2.6-.13,1.25-.35,1.95-.66v2.05c-.62.29-1.24.5-1.87.62s-1.35.18-2.16.18ZM1720.13,255.31c-.8,0-1.45.25-1.93.76-.48.51-.77,1.25-.87,2.22h5.39c-.01-.98-.25-1.72-.71-2.23s-1.09-.76-1.89-.76Z"/>
    <path class="cls-17" d="M1732.08,265.71c-1.48,0-2.64-.54-3.47-1.61s-1.25-2.58-1.25-4.52.42-3.46,1.26-4.55c.84-1.08,2.01-1.63,3.5-1.63s2.75.58,3.57,1.73h.13c-.12-.85-.18-1.53-.18-2.02v-4.33h2.54v16.71h-1.98l-.44-1.56h-.12c-.81,1.18-1.99,1.77-3.56,1.77ZM1732.76,263.67c1.04,0,1.79-.29,2.27-.88.47-.58.72-1.53.73-2.84v-.35c0-1.5-.24-2.56-.73-3.19-.49-.63-1.25-.95-2.29-.95-.89,0-1.57.36-2.05,1.08s-.72,1.75-.72,3.08.23,2.32.7,3.01c.47.69,1.16,1.04,2.09,1.04Z"/>
    <path class="cls-17" d="M1753.19,265.49h-2.57v-13.5h-4.62v-2.2h11.81v2.2h-4.62v13.5Z"/>
    <path class="cls-17" d="M1770.4,265.49h-2.54v-7.3c0-.92-.18-1.6-.55-2.05-.37-.45-.95-.68-1.76-.68-1.06,0-1.84.32-2.34.95-.5.63-.75,1.7-.75,3.19v5.9h-2.52v-16.71h2.52v4.24c0,.68-.04,1.41-.13,2.18h.16c.34-.57.82-1.02,1.43-1.33.61-.31,1.33-.47,2.14-.47,2.88,0,4.32,1.45,4.32,4.35v7.75Z"/>
    <path class="cls-17" d="M1781.35,265.49l-.5-1.65h-.09c-.57.72-1.15,1.22-1.73,1.48s-1.33.39-2.23.39c-1.17,0-2.08-.31-2.73-.95-.65-.63-.98-1.52-.98-2.67,0-1.22.46-2.15,1.36-2.77s2.29-.96,4.16-1.02l2.05-.06v-.63c0-.76-.18-1.33-.53-1.7-.35-.38-.9-.56-1.65-.56-.61,0-1.19.09-1.75.27-.56.18-1.1.39-1.61.63l-.82-1.8c.64-.34,1.35-.59,2.12-.77.77-.18,1.49-.26,2.17-.26,1.51,0,2.65.33,3.42.99.77.66,1.15,1.69,1.15,3.1v8h-1.8ZM1777.59,263.77c.92,0,1.65-.26,2.21-.77.56-.51.83-1.23.83-2.15v-1.03l-1.53.06c-1.19.04-2.05.24-2.59.6-.54.35-.81.9-.81,1.63,0,.53.16.94.47,1.23s.79.44,1.42.44Z"/>
    <path class="cls-17" d="M1797.13,265.49h-2.54v-7.3c0-.92-.18-1.6-.55-2.05-.37-.45-.95-.68-1.76-.68-1.07,0-1.85.32-2.34.95-.49.63-.74,1.69-.74,3.17v5.92h-2.52v-11.88h1.98l.35,1.56h.13c.36-.57.87-1,1.53-1.31.66-.31,1.39-.46,2.19-.46,2.85,0,4.28,1.45,4.28,4.35v7.75Z"/>
    <path class="cls-17" d="M1803.08,259.22l1.43-1.78,3.59-3.82h2.91l-4.78,5.1,5.08,6.78h-2.96l-3.81-5.21-1.39,1.14v4.07h-2.5v-16.71h2.5v8.15l-.13,2.29h.06Z"/>
    <path class="cls-17" d="M1823.64,256.95l3.72-7.17h2.79l-5.23,9.61v6.09h-2.58v-6l-5.21-9.7h2.79l3.72,7.17Z"/>
    <path class="cls-17" d="M1842.49,259.53c0,1.94-.5,3.46-1.49,4.54-1,1.09-2.38,1.63-4.16,1.63-1.11,0-2.09-.25-2.94-.75-.85-.5-1.51-1.22-1.97-2.16-.46-.94-.69-2.03-.69-3.27,0-1.93.49-3.43,1.48-4.51.99-1.08,2.38-1.62,4.18-1.62s3.08.55,4.08,1.66,1.5,2.6,1.5,4.47ZM1833.84,259.53c0,2.74,1.01,4.11,3.04,4.11s3.01-1.37,3.01-4.11-1.01-4.07-3.03-4.07c-1.06,0-1.83.35-2.3,1.05-.48.7-.71,1.71-.71,3.02Z"/>
    <path class="cls-17" d="M1853.77,265.49l-.35-1.56h-.13c-.35.55-.85.98-1.5,1.3-.65.31-1.39.47-2.22.47-1.44,0-2.51-.36-3.22-1.07-.71-.72-1.06-1.8-1.06-3.25v-7.77h2.55v7.33c0,.91.19,1.59.56,2.05.37.46.96.68,1.75.68,1.06,0,1.84-.32,2.34-.95.5-.63.75-1.7.75-3.19v-5.92h2.54v11.88h-1.99Z"/>
    <path class="cls-17" d="M1750.64,280.93c0,1.64-.54,2.9-1.61,3.77-1.07.87-2.6,1.31-4.59,1.31h-1.63v5.88h-2.57v-15.71h4.52c1.96,0,3.43.4,4.41,1.2.98.8,1.47,1.98,1.47,3.54ZM1742.81,283.86h1.36c1.32,0,2.28-.23,2.9-.69.62-.46.92-1.17.92-2.15,0-.9-.28-1.58-.83-2.02-.55-.44-1.41-.67-2.58-.67h-1.78v5.52Z"/>
    <path class="cls-17" d="M1760.94,291.89l-.5-1.65h-.09c-.57.72-1.15,1.22-1.73,1.48s-1.33.39-2.23.39c-1.17,0-2.08-.31-2.73-.95-.65-.63-.98-1.52-.98-2.67,0-1.22.46-2.15,1.36-2.77s2.29-.96,4.16-1.02l2.05-.06v-.63c0-.76-.18-1.33-.53-1.7-.35-.38-.9-.56-1.65-.56-.61,0-1.19.09-1.75.27-.56.18-1.1.39-1.61.63l-.82-1.8c.64-.34,1.35-.59,2.12-.77.77-.18,1.49-.26,2.17-.26,1.51,0,2.65.33,3.42.99.77.66,1.15,1.69,1.15,3.1v8h-1.8ZM1757.18,290.17c.92,0,1.65-.26,2.21-.77.56-.51.83-1.23.83-2.15v-1.03l-1.53.06c-1.19.04-2.05.24-2.59.6-.54.35-.81.9-.81,1.63,0,.53.16.94.47,1.23s.79.44,1.42.44Z"/>
    <path class="cls-17" d="M1776.3,280.01v1.39l-2.03.38c.19.25.34.56.46.92s.18.75.18,1.16c0,1.22-.42,2.19-1.27,2.89-.84.7-2.01,1.05-3.49,1.05-.38,0-.72-.03-1.03-.09-.54.34-.82.73-.82,1.18,0,.27.13.48.38.61.25.14.72.2,1.4.2h2.07c1.31,0,2.31.28,2.99.84s1.02,1.36,1.02,2.42c0,1.35-.55,2.38-1.67,3.12s-2.71,1.1-4.81,1.1c-1.62,0-2.85-.29-3.71-.86-.85-.57-1.28-1.39-1.28-2.45,0-.73.23-1.34.69-1.84.46-.5,1.11-.84,1.94-1.04-.34-.14-.61-.37-.83-.69-.22-.32-.33-.65-.33-1,0-.44.12-.82.38-1.13.25-.31.62-.61,1.12-.91-.62-.26-1.12-.7-1.5-1.29-.38-.6-.57-1.3-.57-2.1,0-1.29.41-2.29,1.22-3,.81-.71,1.97-1.06,3.48-1.06.34,0,.69.02,1.06.07.37.05.65.1.83.15h4.11ZM1766.97,293.74c0,.54.25.96.74,1.26.49.29,1.18.44,2.07.44,1.38,0,2.4-.2,3.07-.59.67-.39,1.01-.92,1.01-1.57,0-.52-.18-.88-.55-1.1-.37-.22-1.05-.33-2.06-.33h-1.91c-.72,0-1.3.17-1.72.51-.43.34-.64.8-.64,1.38ZM1768.05,283.86c0,.75.19,1.32.57,1.72.38.4.93.6,1.65.6,1.46,0,2.19-.78,2.19-2.34,0-.77-.18-1.37-.54-1.79-.36-.42-.91-.63-1.65-.63s-1.28.21-1.66.62c-.38.42-.56,1.02-.56,1.82Z"/>
    <path class="cls-17" d="M1783.69,292.11c-1.85,0-3.29-.54-4.33-1.62-1.04-1.08-1.56-2.56-1.56-4.45s.48-3.47,1.45-4.58c.97-1.11,2.29-1.67,3.99-1.67,1.57,0,2.81.48,3.72,1.43.91.95,1.36,2.26,1.36,3.93v1.36h-7.92c.04,1.15.35,2.04.93,2.66.59.62,1.41.93,2.48.93.7,0,1.36-.07,1.96-.2.6-.13,1.25-.35,1.95-.66v2.05c-.62.29-1.24.5-1.87.62s-1.35.18-2.16.18ZM1783.23,281.71c-.8,0-1.45.25-1.93.76-.48.51-.77,1.25-.87,2.22h5.39c-.01-.98-.25-1.72-.71-2.23s-1.09-.76-1.89-.76Z"/>
  </g>
  <rect class="cls-18" x="761.72" y="371.02" width="114.71" height="114.71" rx="19.94" ry="19.94"/>
  <rect class="cls-19" x="432.96" y="376.02" width="114.71" height="114.71" rx="19.94" ry="19.94"/>
  <text class="cls-10" transform="translate(438.37 515.49)"><tspan x="0" y="0">Customer</tspan></text>
  <g>
    <path class="cls-17" d="M768.5,502.62c0,2.56-.64,4.54-1.92,5.96-1.28,1.42-3.09,2.13-5.43,2.13s-4.19-.7-5.46-2.11c-1.27-1.41-1.91-3.41-1.91-6s.64-4.58,1.92-5.97c1.28-1.39,3.1-2.08,5.47-2.08s4.14.71,5.41,2.12c1.27,1.41,1.91,3.4,1.91,5.96ZM756.51,502.62c0,1.93.39,3.4,1.17,4.4s1.94,1.5,3.47,1.5,2.68-.49,3.45-1.48c.78-.99,1.17-2.46,1.17-4.41s-.38-3.39-1.16-4.38c-.77-1-1.92-1.49-3.44-1.49s-2.7.5-3.49,1.49c-.79,1-1.18,2.46-1.18,4.38Z"/>
    <path class="cls-17" d="M782.06,510.49h-2.54v-7.3c0-.92-.18-1.6-.55-2.05-.37-.45-.95-.68-1.76-.68-1.07,0-1.85.32-2.34.95-.49.63-.74,1.69-.74,3.17v5.92h-2.52v-11.88h1.98l.35,1.56h.13c.36-.57.87-1,1.53-1.31.66-.31,1.39-.46,2.19-.46,2.85,0,4.28,1.45,4.28,4.35v7.74Z"/>
    <path class="cls-17" d="M788.09,510.49h-2.52v-16.71h2.52v16.71Z"/>
    <path class="cls-17" d="M791.55,495.46c0-.45.12-.8.37-1.04.25-.24.6-.37,1.06-.37s.79.12,1.04.37c.25.24.37.59.37,1.04s-.12.77-.37,1.02c-.25.25-.59.37-1.04.37s-.81-.12-1.06-.37c-.25-.25-.37-.59-.37-1.02ZM794.23,510.49h-2.52v-11.88h2.52v11.88Z"/>
    <path class="cls-17" d="M808.29,510.49h-2.54v-7.3c0-.92-.18-1.6-.55-2.05-.37-.45-.95-.68-1.76-.68-1.07,0-1.85.32-2.34.95-.49.63-.74,1.69-.74,3.17v5.92h-2.52v-11.88h1.98l.35,1.56h.13c.36-.57.87-1,1.53-1.31.66-.31,1.39-.46,2.19-.46,2.85,0,4.28,1.45,4.28,4.35v7.74Z"/>
    <path class="cls-17" d="M816.99,510.71c-1.85,0-3.29-.54-4.33-1.62-1.04-1.08-1.56-2.56-1.56-4.45s.48-3.47,1.45-4.58c.97-1.11,2.29-1.67,3.99-1.67,1.57,0,2.81.48,3.72,1.43.91.95,1.36,2.26,1.36,3.93v1.36h-7.92c.04,1.15.35,2.04.93,2.66.59.62,1.41.93,2.48.93.7,0,1.36-.07,1.96-.2.6-.13,1.25-.35,1.95-.66v2.05c-.62.29-1.24.5-1.87.62-.63.12-1.35.18-2.16.18ZM816.53,500.31c-.8,0-1.45.25-1.93.76-.48.51-.77,1.25-.87,2.22h5.39c-.01-.98-.25-1.72-.71-2.23s-1.09-.76-1.89-.76Z"/>
    <path class="cls-17" d="M839.52,506.23c0,1.4-.5,2.49-1.51,3.29s-2.4,1.19-4.18,1.19-3.23-.28-4.36-.83v-2.43c.72.34,1.48.6,2.28.79.8.19,1.56.29,2.25.29,1.02,0,1.77-.19,2.25-.58.48-.39.73-.91.73-1.56,0-.59-.22-1.09-.67-1.49s-1.36-.89-2.75-1.45c-1.43-.58-2.44-1.24-3.03-1.99-.59-.74-.88-1.64-.88-2.69,0-1.31.47-2.34,1.4-3.09s2.18-1.13,3.75-1.13,3,.33,4.49.99l-.82,2.09c-1.4-.59-2.64-.88-3.74-.88-.83,0-1.46.18-1.89.54-.43.36-.64.84-.64,1.43,0,.41.09.76.26,1.05s.46.56.85.82,1.1.6,2.13,1.02c1.15.48,2,.93,2.54,1.34.54.42.93.88,1.18,1.41.25.52.38,1.14.38,1.85Z"/>
    <path class="cls-17" d="M846.71,508.66c.62,0,1.23-.1,1.85-.29v1.9c-.28.12-.64.22-1.08.31-.44.08-.9.12-1.37.12-2.39,0-3.59-1.26-3.59-3.78v-6.4h-1.62v-1.12l1.74-.92.86-2.51h1.56v2.64h3.38v1.91h-3.38v6.36c0,.61.15,1.06.46,1.35.3.29.7.43,1.2.43Z"/>
    <path class="cls-17" d="M861.47,504.53c0,1.94-.5,3.46-1.49,4.54-1,1.09-2.38,1.63-4.16,1.63-1.11,0-2.09-.25-2.94-.75-.85-.5-1.51-1.22-1.97-2.16-.46-.94-.69-2.03-.69-3.27,0-1.93.49-3.43,1.48-4.51.99-1.08,2.38-1.62,4.18-1.62s3.08.55,4.08,1.66,1.5,2.6,1.5,4.47ZM852.83,504.53c0,2.74,1.01,4.11,3.04,4.11s3.01-1.37,3.01-4.11-1.01-4.07-3.03-4.07c-1.06,0-1.83.35-2.3,1.05-.48.7-.71,1.71-.71,3.02Z"/>
    <path class="cls-17" d="M870.4,498.4c.51,0,.93.04,1.26.11l-.25,2.35c-.36-.09-.73-.13-1.12-.13-1.01,0-1.83.33-2.45.99-.63.66-.94,1.51-.94,2.57v6.21h-2.52v-11.88h1.98l.33,2.09h.13c.39-.71.91-1.27,1.54-1.69.63-.42,1.32-.62,2.05-.62Z"/>
    <path class="cls-17" d="M879.05,510.71c-1.85,0-3.29-.54-4.33-1.62-1.04-1.08-1.56-2.56-1.56-4.45s.48-3.47,1.45-4.58c.97-1.11,2.29-1.67,3.99-1.67,1.57,0,2.81.48,3.72,1.43.91.95,1.36,2.26,1.36,3.93v1.36h-7.92c.04,1.15.35,2.04.93,2.66.59.62,1.41.93,2.48.93.7,0,1.36-.07,1.96-.2.6-.13,1.25-.35,1.95-.66v2.05c-.62.29-1.24.5-1.87.62-.63.12-1.35.18-2.16.18ZM878.58,500.31c-.8,0-1.45.25-1.93.76-.48.51-.77,1.25-.87,2.22h5.39c-.01-.98-.25-1.72-.71-2.23s-1.09-.76-1.89-.76Z"/>
    <path class="cls-17" d="M748.85,523.16c-1.48,0-2.64.52-3.48,1.57-.84,1.05-1.27,2.49-1.27,4.33s.41,3.38,1.22,4.37c.81.99,1.99,1.48,3.53,1.48.67,0,1.31-.07,1.93-.2.62-.13,1.27-.3,1.94-.51v2.2c-1.23.47-2.63.7-4.19.7-2.3,0-4.06-.7-5.3-2.09-1.23-1.39-1.85-3.38-1.85-5.98,0-1.63.3-3.06.9-4.29.6-1.22,1.46-2.16,2.59-2.81,1.13-.65,2.46-.98,3.99-.98,1.6,0,3.09.34,4.45,1.01l-.92,2.14c-.53-.25-1.09-.47-1.68-.66-.59-.19-1.21-.29-1.86-.29Z"/>
    <path class="cls-17" d="M766.29,536.89h-2.54v-7.3c0-.92-.18-1.6-.55-2.05-.37-.45-.95-.68-1.76-.68-1.06,0-1.84.32-2.34.95-.5.63-.75,1.7-.75,3.18v5.9h-2.52v-16.71h2.52v4.24c0,.68-.04,1.41-.13,2.18h.16c.34-.57.82-1.02,1.43-1.33.61-.31,1.33-.47,2.14-.47,2.88,0,4.32,1.45,4.32,4.35v7.75Z"/>
    <path class="cls-17" d="M774.99,537.11c-1.85,0-3.29-.54-4.33-1.62-1.04-1.08-1.56-2.56-1.56-4.45s.48-3.47,1.45-4.58,2.29-1.67,3.99-1.67c1.57,0,2.81.48,3.72,1.43s1.36,2.26,1.36,3.93v1.36h-7.92c.04,1.15.35,2.04.93,2.66.59.62,1.41.93,2.48.93.7,0,1.36-.07,1.96-.2.6-.13,1.25-.35,1.95-.66v2.05c-.62.29-1.24.5-1.87.62s-1.35.18-2.16.18ZM774.53,526.71c-.8,0-1.45.25-1.93.76-.48.51-.77,1.25-.87,2.22h5.39c-.01-.98-.25-1.72-.71-2.23-.46-.51-1.09-.76-1.89-.76Z"/>
    <path class="cls-17" d="M787.27,537.11c-1.8,0-3.16-.52-4.1-1.57-.94-1.05-1.4-2.55-1.4-4.52s.49-3.53,1.47-4.61c.98-1.07,2.39-1.61,4.24-1.61,1.25,0,2.38.23,3.38.7l-.76,2.03c-1.07-.42-1.95-.62-2.64-.62-2.06,0-3.08,1.36-3.08,4.09,0,1.33.26,2.33.77,3,.51.67,1.26,1,2.25,1,1.12,0,2.19-.28,3.19-.84v2.2c-.45.26-.93.46-1.45.57-.51.11-1.13.17-1.86.17Z"/>
    <path class="cls-17" d="M795.81,530.62l1.43-1.78,3.59-3.82h2.91l-4.78,5.1,5.08,6.78h-2.96l-3.81-5.21-1.39,1.14v4.07h-2.5v-16.71h2.5v8.15l-.13,2.29h.06Z"/>
    <path class="cls-17" d="M816.49,530.93c0,1.94-.5,3.46-1.49,4.54-1,1.09-2.38,1.63-4.16,1.63-1.11,0-2.09-.25-2.94-.75-.85-.5-1.51-1.22-1.97-2.16s-.69-2.03-.69-3.27c0-1.93.49-3.43,1.48-4.51s2.38-1.62,4.18-1.62,3.08.55,4.08,1.66c1,1.11,1.5,2.6,1.5,4.47ZM807.84,530.93c0,2.74,1.01,4.11,3.04,4.11s3.01-1.37,3.01-4.11-1.01-4.07-3.03-4.07c-1.06,0-1.83.35-2.3,1.05-.48.7-.71,1.71-.71,3.02Z"/>
    <path class="cls-17" d="M827.77,536.89l-.35-1.56h-.13c-.35.55-.85.99-1.5,1.3-.65.31-1.39.47-2.22.47-1.44,0-2.51-.36-3.22-1.07-.71-.72-1.06-1.8-1.06-3.25v-7.77h2.55v7.33c0,.91.19,1.59.56,2.05s.96.68,1.75.68c1.06,0,1.84-.32,2.34-.95.5-.63.75-1.7.75-3.18v-5.92h2.54v11.88h-1.99Z"/>
    <path class="cls-17" d="M837.78,535.07c.62,0,1.23-.1,1.85-.29v1.9c-.28.12-.64.22-1.08.31-.44.08-.9.12-1.37.12-2.39,0-3.59-1.26-3.59-3.78v-6.4h-1.62v-1.12l1.74-.92.86-2.51h1.56v2.64h3.38v1.91h-3.38v6.36c0,.61.15,1.06.46,1.35.3.29.7.44,1.2.44Z"/>
    <path class="cls-17" d="M858.38,525.93c0,1.64-.54,2.9-1.61,3.77s-2.6,1.31-4.59,1.31h-1.63v5.88h-2.57v-15.71h4.52c1.96,0,3.43.4,4.41,1.2.98.8,1.47,1.98,1.47,3.54ZM850.55,528.86h1.36c1.32,0,2.28-.23,2.9-.69.62-.46.92-1.17.92-2.15,0-.9-.28-1.58-.83-2.02-.55-.44-1.41-.67-2.58-.67h-1.78v5.52Z"/>
    <path class="cls-17" d="M868.69,536.89l-.5-1.65h-.09c-.57.72-1.15,1.22-1.73,1.48-.58.26-1.33.39-2.23.39-1.17,0-2.08-.31-2.73-.95-.65-.63-.98-1.52-.98-2.67,0-1.22.46-2.15,1.36-2.77s2.29-.96,4.16-1.02l2.05-.06v-.63c0-.76-.18-1.33-.53-1.7-.35-.38-.9-.56-1.65-.56-.61,0-1.19.09-1.75.27s-1.1.39-1.61.63l-.82-1.8c.64-.34,1.35-.59,2.12-.77s1.49-.26,2.17-.26c1.51,0,2.65.33,3.42.99.77.66,1.15,1.69,1.15,3.1v8h-1.8ZM864.93,535.17c.92,0,1.65-.26,2.21-.77.56-.51.83-1.23.83-2.15v-1.03l-1.53.06c-1.19.04-2.05.24-2.59.6-.54.36-.81.9-.81,1.63,0,.53.16.94.47,1.23.32.29.79.44,1.42.44Z"/>
    <path class="cls-17" d="M884.05,525.01v1.39l-2.03.38c.19.25.34.56.46.92s.18.75.18,1.16c0,1.22-.42,2.19-1.27,2.89s-2.01,1.05-3.49,1.05c-.38,0-.72-.03-1.03-.09-.54.34-.82.73-.82,1.18,0,.27.13.48.38.61.25.14.72.2,1.4.2h2.07c1.31,0,2.31.28,2.99.84s1.02,1.36,1.02,2.42c0,1.35-.55,2.38-1.67,3.12s-2.71,1.1-4.81,1.1c-1.62,0-2.85-.29-3.71-.86-.85-.57-1.28-1.39-1.28-2.45,0-.73.23-1.34.69-1.84.46-.5,1.11-.84,1.94-1.04-.34-.14-.61-.37-.83-.69-.22-.32-.33-.65-.33-1,0-.44.12-.82.38-1.13s.62-.61,1.12-.91c-.62-.26-1.12-.7-1.5-1.29-.38-.6-.57-1.3-.57-2.1,0-1.29.41-2.29,1.22-3,.81-.71,1.97-1.06,3.48-1.06.34,0,.69.02,1.06.07.37.05.65.09.83.14h4.11ZM874.71,538.74c0,.54.25.96.74,1.26.49.29,1.18.44,2.07.44,1.38,0,2.4-.2,3.07-.59s1.01-.92,1.01-1.57c0-.52-.18-.88-.55-1.1-.37-.22-1.05-.33-2.06-.33h-1.91c-.72,0-1.3.17-1.72.51-.43.34-.64.8-.64,1.38ZM875.8,528.86c0,.75.19,1.32.57,1.72.38.4.93.6,1.65.6,1.46,0,2.19-.78,2.19-2.34,0-.77-.18-1.37-.54-1.79-.36-.42-.91-.63-1.65-.63s-1.28.21-1.66.62c-.38.42-.56,1.02-.56,1.82Z"/>
    <path class="cls-17" d="M891.44,537.11c-1.85,0-3.29-.54-4.33-1.62-1.04-1.08-1.56-2.56-1.56-4.45s.48-3.47,1.45-4.58,2.29-1.67,3.99-1.67c1.57,0,2.81.48,3.72,1.43s1.36,2.26,1.36,3.93v1.36h-7.92c.04,1.15.35,2.04.93,2.66.59.62,1.41.93,2.48.93.7,0,1.36-.07,1.96-.2.6-.13,1.25-.35,1.95-.66v2.05c-.62.29-1.24.5-1.87.62s-1.35.18-2.16.18ZM890.98,526.71c-.8,0-1.45.25-1.93.76-.48.51-.77,1.25-.87,2.22h5.39c-.01-.98-.25-1.72-.71-2.23-.46-.51-1.09-.76-1.89-.76Z"/>
  </g>
  <rect class="cls-18" x="912.72" y="371.02" width="114.71" height="114.71" rx="19.94" ry="19.94"/>
  <g>
    <path class="cls-17" d="M934.87,499.53c0,1.64-.54,2.9-1.61,3.77-1.07.87-2.6,1.31-4.59,1.31h-1.63v5.88h-2.57v-15.7h4.52c1.96,0,3.43.4,4.41,1.2.98.8,1.47,1.98,1.47,3.54ZM927.04,502.46h1.36c1.32,0,2.28-.23,2.9-.69.62-.46.92-1.17.92-2.15,0-.9-.28-1.58-.83-2.02-.55-.44-1.41-.67-2.58-.67h-1.78v5.52Z"/>
    <path class="cls-17" d="M945.17,510.49l-.5-1.65h-.09c-.57.72-1.15,1.22-1.73,1.48s-1.33.39-2.23.39c-1.17,0-2.08-.31-2.73-.95-.65-.63-.98-1.52-.98-2.67,0-1.22.46-2.15,1.36-2.77s2.29-.96,4.16-1.02l2.05-.06v-.63c0-.76-.18-1.33-.53-1.7-.35-.38-.9-.56-1.65-.56-.61,0-1.19.09-1.75.27-.56.18-1.1.39-1.61.63l-.82-1.8c.64-.34,1.35-.59,2.12-.77.77-.18,1.49-.26,2.17-.26,1.51,0,2.65.33,3.42.99.77.66,1.15,1.69,1.15,3.1v8h-1.8ZM941.41,508.77c.92,0,1.65-.26,2.21-.77.56-.51.83-1.23.83-2.15v-1.03l-1.53.06c-1.19.04-2.05.24-2.59.6-.54.35-.81.9-.81,1.63,0,.53.16.94.47,1.23s.79.43,1.42.43Z"/>
    <path class="cls-17" d="M948.7,498.61h2.75l2.42,6.74c.37.96.61,1.86.73,2.71h.09c.06-.39.18-.87.35-1.43.17-.56,1.08-3.23,2.73-8.01h2.73l-5.08,13.46c-.92,2.47-2.46,3.71-4.62,3.71-.56,0-1.1-.06-1.63-.18v-2c.38.09.81.13,1.3.13,1.22,0,2.07-.71,2.57-2.12l.44-1.12-4.77-11.88Z"/>
    <path class="cls-17" d="M972.31,510.49h-2.54v-7.33c0-.91-.17-1.59-.52-2.04-.34-.45-.88-.67-1.61-.67-.97,0-1.69.32-2.14.95-.46.63-.68,1.69-.68,3.16v5.92h-2.52v-11.88h1.98l.35,1.56h.13c.33-.57.81-1,1.43-1.31.63-.31,1.32-.46,2.07-.46,1.83,0,3.04.62,3.63,1.87h.17c.35-.59.84-1.05,1.48-1.38.64-.33,1.37-.49,2.19-.49,1.42,0,2.45.36,3.1,1.07.65.72.97,1.81.97,3.28v7.74h-2.52v-7.33c0-.91-.17-1.59-.52-2.04-.35-.45-.89-.67-1.62-.67-.98,0-1.7.31-2.15.92-.45.61-.68,1.55-.68,2.82v6.29Z"/>
    <path class="cls-17" d="M988.52,510.71c-1.85,0-3.29-.54-4.33-1.62-1.04-1.08-1.56-2.56-1.56-4.45s.48-3.47,1.45-4.58c.97-1.11,2.29-1.67,3.99-1.67,1.57,0,2.81.48,3.72,1.43.91.95,1.36,2.26,1.36,3.93v1.36h-7.92c.04,1.15.35,2.04.93,2.66.59.62,1.41.93,2.48.93.7,0,1.36-.07,1.96-.2.6-.13,1.25-.35,1.95-.66v2.05c-.62.29-1.24.5-1.87.62-.63.12-1.35.18-2.16.18ZM988.05,500.31c-.8,0-1.45.25-1.93.76-.48.51-.77,1.25-.87,2.22h5.39c-.01-.98-.25-1.72-.71-2.23s-1.09-.76-1.89-.76Z"/>
    <path class="cls-17" d="M1006.46,510.49h-2.54v-7.3c0-.92-.18-1.6-.55-2.05-.37-.45-.95-.68-1.76-.68-1.07,0-1.85.32-2.34.95-.49.63-.74,1.69-.74,3.17v5.92h-2.52v-11.88h1.98l.35,1.56h.13c.36-.57.87-1,1.53-1.31.66-.31,1.39-.46,2.19-.46,2.85,0,4.28,1.45,4.28,4.35v7.74Z"/>
    <path class="cls-17" d="M1014.39,508.66c.62,0,1.23-.1,1.85-.29v1.9c-.28.12-.64.22-1.08.31-.44.08-.9.12-1.37.12-2.39,0-3.59-1.26-3.59-3.78v-6.4h-1.62v-1.12l1.74-.92.86-2.51h1.56v2.64h3.38v1.91h-3.38v6.36c0,.61.15,1.06.46,1.35.3.29.7.43,1.2.43Z"/>
    <path class="cls-17" d="M956.47,525.93c0,1.64-.54,2.9-1.61,3.77s-2.6,1.31-4.59,1.31h-1.63v5.88h-2.57v-15.71h4.52c1.96,0,3.43.4,4.41,1.2.98.8,1.47,1.98,1.47,3.54ZM948.64,528.86h1.36c1.32,0,2.28-.23,2.9-.69.62-.46.92-1.17.92-2.15,0-.9-.28-1.58-.83-2.02-.55-.44-1.41-.67-2.58-.67h-1.78v5.52Z"/>
    <path class="cls-17" d="M966.78,536.89l-.5-1.65h-.09c-.57.72-1.15,1.22-1.73,1.48-.58.26-1.33.39-2.23.39-1.17,0-2.08-.31-2.73-.95-.65-.63-.98-1.52-.98-2.67,0-1.22.46-2.15,1.36-2.77s2.29-.96,4.16-1.02l2.05-.06v-.63c0-.76-.18-1.33-.53-1.7-.35-.38-.9-.56-1.65-.56-.61,0-1.19.09-1.75.27s-1.1.39-1.61.63l-.82-1.8c.64-.34,1.35-.59,2.12-.77s1.49-.26,2.17-.26c1.51,0,2.65.33,3.42.99.77.66,1.15,1.69,1.15,3.1v8h-1.8ZM963.02,535.17c.92,0,1.65-.26,2.21-.77.56-.51.83-1.23.83-2.15v-1.03l-1.53.06c-1.19.04-2.05.24-2.59.6-.54.36-.81.9-.81,1.63,0,.53.16.94.47,1.23.32.29.79.44,1.42.44Z"/>
    <path class="cls-17" d="M982.14,525.01v1.39l-2.03.38c.19.25.34.56.46.92s.18.75.18,1.16c0,1.22-.42,2.19-1.27,2.89s-2.01,1.05-3.49,1.05c-.38,0-.72-.03-1.03-.09-.54.34-.82.73-.82,1.18,0,.27.13.48.38.61.25.14.72.2,1.4.2h2.07c1.31,0,2.31.28,2.99.84s1.02,1.36,1.02,2.42c0,1.35-.55,2.38-1.67,3.12s-2.71,1.1-4.81,1.1c-1.62,0-2.85-.29-3.71-.86-.85-.57-1.28-1.39-1.28-2.45,0-.73.23-1.34.69-1.84.46-.5,1.11-.84,1.94-1.04-.34-.14-.61-.37-.83-.69-.22-.32-.33-.65-.33-1,0-.44.12-.82.38-1.13s.62-.61,1.12-.91c-.62-.26-1.12-.7-1.5-1.29-.38-.6-.57-1.3-.57-2.1,0-1.29.41-2.29,1.22-3,.81-.71,1.97-1.06,3.48-1.06.34,0,.69.02,1.06.07.37.05.65.09.83.14h4.11ZM972.8,538.74c0,.54.25.96.74,1.26.49.29,1.18.44,2.07.44,1.38,0,2.4-.2,3.07-.59s1.01-.92,1.01-1.57c0-.52-.18-.88-.55-1.1-.37-.22-1.05-.33-2.06-.33h-1.91c-.72,0-1.3.17-1.72.51-.43.34-.64.8-.64,1.38ZM973.89,528.86c0,.75.19,1.32.57,1.72.38.4.93.6,1.65.6,1.46,0,2.19-.78,2.19-2.34,0-.77-.18-1.37-.54-1.79-.36-.42-.91-.63-1.65-.63s-1.28.21-1.66.62c-.38.42-.56,1.02-.56,1.82Z"/>
    <path class="cls-17" d="M989.53,537.11c-1.85,0-3.29-.54-4.33-1.62-1.04-1.08-1.56-2.56-1.56-4.45s.48-3.47,1.45-4.58,2.29-1.67,3.99-1.67c1.57,0,2.81.48,3.72,1.43s1.36,2.26,1.36,3.93v1.36h-7.92c.04,1.15.35,2.04.93,2.66.59.62,1.41.93,2.48.93.7,0,1.36-.07,1.96-.2.6-.13,1.25-.35,1.95-.66v2.05c-.62.29-1.24.5-1.87.62s-1.35.18-2.16.18ZM989.07,526.71c-.8,0-1.45.25-1.93.76-.48.51-.77,1.25-.87,2.22h5.39c-.01-.98-.25-1.72-.71-2.23-.46-.51-1.09-.76-1.89-.76Z"/>
  </g>
  <rect class="cls-16" x="1574.72" y="376.02" width="114.71" height="114.71" rx="19.94" ry="19.94"/>
  <text class="cls-8" transform="translate(1608.17 937.49)"><tspan x="0" y="0">APIs</tspan></text>
  <rect class="cls-16" x="1574.72" y="798.02" width="114.71" height="114.71" rx="19.94" ry="19.94"/>
  <g>
    <path class="cls-17" d="M1074.17,510.49h-2.57v-13.5h-4.62v-2.2h11.81v2.2h-4.62v13.5Z"/>
    <path class="cls-17" d="M1091.38,510.49h-2.54v-7.3c0-.92-.18-1.6-.55-2.05-.37-.45-.95-.68-1.76-.68-1.06,0-1.84.32-2.34.95-.5.63-.75,1.7-.75,3.19v5.9h-2.52v-16.71h2.52v4.24c0,.68-.04,1.41-.13,2.18h.16c.34-.57.82-1.02,1.43-1.33.61-.31,1.33-.47,2.14-.47,2.88,0,4.32,1.45,4.32,4.35v7.74Z"/>
    <path class="cls-17" d="M1102.33,510.49l-.5-1.65h-.09c-.57.72-1.15,1.22-1.73,1.48s-1.33.39-2.23.39c-1.17,0-2.08-.31-2.73-.95-.65-.63-.98-1.52-.98-2.67,0-1.22.46-2.15,1.36-2.77s2.29-.96,4.16-1.02l2.05-.06v-.63c0-.76-.18-1.33-.53-1.7-.35-.38-.9-.56-1.65-.56-.61,0-1.19.09-1.75.27-.56.18-1.1.39-1.61.63l-.82-1.8c.64-.34,1.35-.59,2.12-.77.77-.18,1.49-.26,2.17-.26,1.51,0,2.65.33,3.42.99.77.66,1.15,1.69,1.15,3.1v8h-1.8ZM1098.57,508.77c.92,0,1.65-.26,2.21-.77.56-.51.83-1.23.83-2.15v-1.03l-1.53.06c-1.19.04-2.05.24-2.59.6-.54.35-.81.9-.81,1.63,0,.53.16.94.47,1.23s.79.43,1.42.43Z"/>
    <path class="cls-17" d="M1118.11,510.49h-2.54v-7.3c0-.92-.18-1.6-.55-2.05-.37-.45-.95-.68-1.76-.68-1.07,0-1.85.32-2.34.95-.49.63-.74,1.69-.74,3.17v5.92h-2.52v-11.88h1.98l.35,1.56h.13c.36-.57.87-1,1.53-1.31.66-.31,1.39-.46,2.19-.46,2.85,0,4.28,1.45,4.28,4.35v7.74Z"/>
    <path class="cls-17" d="M1124.06,504.22l1.43-1.78,3.59-3.82h2.91l-4.78,5.1,5.08,6.78h-2.96l-3.81-5.21-1.39,1.14v4.07h-2.5v-16.71h2.5v8.15l-.13,2.29h.06Z"/>
    <path class="cls-17" d="M1144.62,501.95l3.72-7.17h2.79l-5.23,9.61v6.09h-2.58v-6l-5.21-9.7h2.79l3.72,7.17Z"/>
    <path class="cls-17" d="M1163.47,504.53c0,1.94-.5,3.46-1.49,4.54-1,1.09-2.38,1.63-4.16,1.63-1.11,0-2.09-.25-2.94-.75-.85-.5-1.51-1.22-1.97-2.16-.46-.94-.69-2.03-.69-3.27,0-1.93.49-3.43,1.48-4.51.99-1.08,2.38-1.62,4.18-1.62s3.08.55,4.08,1.66,1.5,2.6,1.5,4.47ZM1154.83,504.53c0,2.74,1.01,4.11,3.04,4.11s3.01-1.37,3.01-4.11-1.01-4.07-3.03-4.07c-1.06,0-1.83.35-2.3,1.05-.48.7-.71,1.71-.71,3.02Z"/>
    <path class="cls-17" d="M1174.75,510.49l-.35-1.56h-.13c-.35.55-.85.98-1.5,1.3-.65.32-1.39.47-2.22.47-1.44,0-2.51-.36-3.22-1.07-.71-.71-1.06-1.8-1.06-3.25v-7.77h2.55v7.33c0,.91.19,1.59.56,2.05s.96.68,1.75.68c1.06,0,1.84-.32,2.34-.95.5-.63.75-1.7.75-3.18v-5.92h2.54v11.88h-1.99Z"/>
    <path class="cls-17" d="M1109.47,525.93c0,1.64-.54,2.9-1.61,3.77s-2.6,1.31-4.59,1.31h-1.63v5.88h-2.57v-15.71h4.52c1.96,0,3.43.4,4.41,1.2.98.8,1.47,1.98,1.47,3.54ZM1101.64,528.86h1.36c1.32,0,2.28-.23,2.9-.69.62-.46.92-1.17.92-2.15,0-.9-.28-1.58-.83-2.02-.55-.44-1.41-.67-2.58-.67h-1.78v5.52Z"/>
    <path class="cls-17" d="M1119.78,536.89l-.5-1.65h-.09c-.57.72-1.15,1.22-1.73,1.48-.58.26-1.33.39-2.23.39-1.17,0-2.08-.31-2.73-.95-.65-.63-.98-1.52-.98-2.67,0-1.22.46-2.15,1.36-2.77s2.29-.96,4.16-1.02l2.05-.06v-.63c0-.76-.18-1.33-.53-1.7-.35-.38-.9-.56-1.65-.56-.61,0-1.19.09-1.75.27s-1.1.39-1.61.63l-.82-1.8c.64-.34,1.35-.59,2.12-.77s1.49-.26,2.17-.26c1.51,0,2.65.33,3.42.99.77.66,1.15,1.69,1.15,3.1v8h-1.8ZM1116.02,535.17c.92,0,1.65-.26,2.21-.77.56-.51.83-1.23.83-2.15v-1.03l-1.53.06c-1.19.04-2.05.24-2.59.6-.54.36-.81.9-.81,1.63,0,.53.16.94.47,1.23.32.29.79.44,1.42.44Z"/>
    <path class="cls-17" d="M1135.14,525.01v1.39l-2.03.38c.19.25.34.56.46.92s.18.75.18,1.16c0,1.22-.42,2.19-1.27,2.89s-2.01,1.05-3.49,1.05c-.38,0-.72-.03-1.03-.09-.54.34-.82.73-.82,1.18,0,.27.13.48.38.61.25.14.72.2,1.4.2h2.07c1.31,0,2.31.28,2.99.84s1.02,1.36,1.02,2.42c0,1.35-.55,2.38-1.67,3.12s-2.71,1.1-4.81,1.1c-1.62,0-2.85-.29-3.71-.86-.85-.57-1.28-1.39-1.28-2.45,0-.73.23-1.34.69-1.84.46-.5,1.11-.84,1.94-1.04-.34-.14-.61-.37-.83-.69-.22-.32-.33-.65-.33-1,0-.44.12-.82.38-1.13s.62-.61,1.12-.91c-.62-.26-1.12-.7-1.5-1.29-.38-.6-.57-1.3-.57-2.1,0-1.29.41-2.29,1.22-3,.81-.71,1.97-1.06,3.48-1.06.34,0,.69.02,1.06.07.37.05.65.09.83.14h4.11ZM1125.8,538.74c0,.54.25.96.74,1.26.49.29,1.18.44,2.07.44,1.38,0,2.4-.2,3.07-.59s1.01-.92,1.01-1.57c0-.52-.18-.88-.55-1.1-.37-.22-1.05-.33-2.06-.33h-1.91c-.72,0-1.3.17-1.72.51-.43.34-.64.8-.64,1.38ZM1126.89,528.86c0,.75.19,1.32.57,1.72.38.4.93.6,1.65.6,1.46,0,2.19-.78,2.19-2.34,0-.77-.18-1.37-.54-1.79-.36-.42-.91-.63-1.65-.63s-1.28.21-1.66.62c-.38.42-.56,1.02-.56,1.82Z"/>
    <path class="cls-17" d="M1142.53,537.11c-1.85,0-3.29-.54-4.33-1.62-1.04-1.08-1.56-2.56-1.56-4.45s.48-3.47,1.45-4.58,2.29-1.67,3.99-1.67c1.57,0,2.81.48,3.72,1.43s1.36,2.26,1.36,3.93v1.36h-7.92c.04,1.15.35,2.04.93,2.66.59.62,1.41.93,2.48.93.7,0,1.36-.07,1.96-.2.6-.13,1.25-.35,1.95-.66v2.05c-.62.29-1.24.5-1.87.62s-1.35.18-2.16.18ZM1142.07,526.71c-.8,0-1.45.25-1.93.76-.48.51-.77,1.25-.87,2.22h5.39c-.01-.98-.25-1.72-.71-2.23-.46-.51-1.09-.76-1.89-.76Z"/>
  </g>
  <rect class="cls-18" x="912.72" y="612.02" width="114.71" height="114.71" rx="19.94" ry="19.94"/>
  <rect class="cls-19" x="432.96" y="618.02" width="114.71" height="114.71" rx="19.94" ry="19.94"/>
  <text class="cls-10" transform="translate(438.37 757.49)"><tspan x="0" y="0">Customer</tspan></text>
  <text class="cls-10" transform="translate(903.48 751.49)"><tspan x="0" y="0">Online Store</tspan></text>
  <rect class="cls-6" x="730.5" y="776.02" width="474" height="222" rx="21.07" ry="21.07"/>
  <rect class="cls-18" x="1062.12" y="796.02" width="114.71" height="114.71" rx="19.94" ry="19.94"/>
  <rect class="cls-18" x="912.72" y="796.02" width="114.71" height="114.71" rx="19.94" ry="19.94"/>
  <g>
    <path class="cls-17" d="M934.87,924.53c0,1.64-.54,2.9-1.61,3.77-1.07.87-2.6,1.31-4.59,1.31h-1.63v5.88h-2.57v-15.71h4.52c1.96,0,3.43.4,4.41,1.2.98.8,1.47,1.98,1.47,3.54ZM927.04,927.46h1.36c1.32,0,2.28-.23,2.9-.69.62-.46.92-1.17.92-2.15,0-.9-.28-1.57-.83-2.02-.55-.44-1.41-.67-2.58-.67h-1.78v5.52Z"/>
    <path class="cls-17" d="M945.17,935.49l-.5-1.65h-.09c-.57.72-1.15,1.22-1.73,1.48s-1.33.39-2.23.39c-1.17,0-2.08-.31-2.73-.95-.65-.63-.98-1.52-.98-2.67,0-1.22.46-2.15,1.36-2.77s2.29-.96,4.16-1.02l2.05-.06v-.63c0-.76-.18-1.33-.53-1.7-.35-.38-.9-.56-1.65-.56-.61,0-1.19.09-1.75.27-.56.18-1.1.39-1.61.63l-.82-1.8c.64-.34,1.35-.59,2.12-.77s1.49-.26,2.17-.26c1.51,0,2.65.33,3.42.99.77.66,1.15,1.69,1.15,3.11v8h-1.8ZM941.41,933.77c.92,0,1.65-.26,2.21-.77.56-.51.83-1.23.83-2.15v-1.03l-1.53.06c-1.19.04-2.05.24-2.59.6-.54.35-.81.9-.81,1.63,0,.53.16.94.47,1.23s.79.43,1.42.43Z"/>
    <path class="cls-17" d="M948.7,923.61h2.75l2.42,6.74c.37.96.61,1.86.73,2.71h.09c.06-.39.18-.87.35-1.43.17-.56,1.08-3.23,2.73-8.01h2.73l-5.08,13.46c-.92,2.47-2.46,3.71-4.62,3.71-.56,0-1.1-.06-1.63-.18v-2c.38.09.81.13,1.3.13,1.22,0,2.07-.71,2.57-2.12l.44-1.12-4.77-11.88Z"/>
    <path class="cls-17" d="M972.31,935.49h-2.54v-7.33c0-.91-.17-1.59-.52-2.04s-.88-.67-1.61-.67c-.97,0-1.69.32-2.14.95-.46.63-.68,1.69-.68,3.16v5.92h-2.52v-11.88h1.98l.35,1.56h.13c.33-.57.81-1,1.43-1.31.63-.31,1.32-.46,2.07-.46,1.83,0,3.04.62,3.63,1.87h.17c.35-.59.84-1.04,1.48-1.38.64-.33,1.37-.49,2.19-.49,1.42,0,2.45.36,3.1,1.07.65.72.97,1.81.97,3.28v7.74h-2.52v-7.33c0-.91-.17-1.59-.52-2.04-.35-.45-.89-.67-1.62-.67-.98,0-1.7.31-2.15.92-.45.61-.68,1.55-.68,2.82v6.29Z"/>
    <path class="cls-17" d="M988.52,935.71c-1.85,0-3.29-.54-4.33-1.62-1.04-1.08-1.56-2.56-1.56-4.45s.48-3.47,1.45-4.58c.97-1.11,2.29-1.67,3.99-1.67,1.57,0,2.81.48,3.72,1.43.91.95,1.36,2.26,1.36,3.93v1.36h-7.92c.04,1.15.35,2.04.93,2.66.59.62,1.41.93,2.48.93.7,0,1.36-.07,1.96-.2.6-.13,1.25-.35,1.95-.66v2.05c-.62.29-1.24.5-1.87.62-.63.12-1.35.18-2.16.18ZM988.05,925.31c-.8,0-1.45.25-1.93.76-.48.51-.77,1.25-.87,2.22h5.39c-.01-.98-.25-1.72-.71-2.23s-1.09-.76-1.89-.76Z"/>
    <path class="cls-17" d="M1006.46,935.49h-2.54v-7.3c0-.92-.18-1.6-.55-2.05-.37-.45-.95-.68-1.76-.68-1.07,0-1.85.32-2.34.95-.49.63-.74,1.69-.74,3.17v5.92h-2.52v-11.88h1.98l.35,1.56h.13c.36-.57.87-1,1.53-1.31.66-.31,1.39-.46,2.19-.46,2.85,0,4.28,1.45,4.28,4.35v7.74Z"/>
    <path class="cls-17" d="M1014.39,933.66c.62,0,1.23-.1,1.85-.29v1.9c-.28.12-.64.22-1.08.31-.44.08-.9.12-1.37.12-2.39,0-3.59-1.26-3.59-3.78v-6.4h-1.62v-1.12l1.74-.92.86-2.51h1.56v2.64h3.38v1.91h-3.38v6.36c0,.61.15,1.06.46,1.35.3.29.7.43,1.2.43Z"/>
    <path class="cls-17" d="M956.47,950.93c0,1.64-.54,2.9-1.61,3.77s-2.6,1.31-4.59,1.31h-1.63v5.88h-2.57v-15.71h4.52c1.96,0,3.43.4,4.41,1.2.98.8,1.47,1.98,1.47,3.54ZM948.64,953.86h1.36c1.32,0,2.28-.23,2.9-.69.62-.46.92-1.17.92-2.15,0-.9-.28-1.58-.83-2.02-.55-.44-1.41-.67-2.58-.67h-1.78v5.52Z"/>
    <path class="cls-17" d="M966.78,961.89l-.5-1.65h-.09c-.57.72-1.15,1.22-1.73,1.48-.58.26-1.33.39-2.23.39-1.17,0-2.08-.31-2.73-.95-.65-.63-.98-1.52-.98-2.67,0-1.22.46-2.15,1.36-2.77s2.29-.96,4.16-1.02l2.05-.06v-.63c0-.76-.18-1.33-.53-1.7-.35-.38-.9-.56-1.65-.56-.61,0-1.19.09-1.75.27s-1.1.39-1.61.63l-.82-1.8c.64-.34,1.35-.59,2.12-.77s1.49-.26,2.17-.26c1.51,0,2.65.33,3.42.99.77.66,1.15,1.69,1.15,3.1v8h-1.8ZM963.02,960.17c.92,0,1.65-.26,2.21-.77.56-.51.83-1.23.83-2.15v-1.03l-1.53.06c-1.19.04-2.05.24-2.59.6-.54.36-.81.9-.81,1.63,0,.53.16.94.47,1.23.32.29.79.44,1.42.44Z"/>
    <path class="cls-17" d="M982.14,950.01v1.39l-2.03.38c.19.25.34.56.46.92s.18.75.18,1.16c0,1.22-.42,2.19-1.27,2.89s-2.01,1.05-3.49,1.05c-.38,0-.72-.03-1.03-.09-.54.34-.82.73-.82,1.18,0,.27.13.48.38.61.25.14.72.2,1.4.2h2.07c1.31,0,2.31.28,2.99.84s1.02,1.36,1.02,2.42c0,1.35-.55,2.38-1.67,3.12s-2.71,1.1-4.81,1.1c-1.62,0-2.85-.29-3.71-.86-.85-.57-1.28-1.39-1.28-2.45,0-.73.23-1.34.69-1.84.46-.5,1.11-.84,1.94-1.04-.34-.14-.61-.37-.83-.69-.22-.32-.33-.65-.33-1,0-.44.12-.82.38-1.13s.62-.61,1.12-.91c-.62-.26-1.12-.7-1.5-1.29-.38-.6-.57-1.3-.57-2.1,0-1.29.41-2.29,1.22-3,.81-.71,1.97-1.06,3.48-1.06.34,0,.69.02,1.06.07.37.05.65.09.83.14h4.11ZM972.8,963.74c0,.54.25.96.74,1.26.49.29,1.18.44,2.07.44,1.38,0,2.4-.2,3.07-.59s1.01-.92,1.01-1.57c0-.52-.18-.88-.55-1.1-.37-.22-1.05-.33-2.06-.33h-1.91c-.72,0-1.3.17-1.72.51-.43.34-.64.8-.64,1.38ZM973.89,953.86c0,.75.19,1.32.57,1.72.38.4.93.6,1.65.6,1.46,0,2.19-.78,2.19-2.34,0-.77-.18-1.37-.54-1.79-.36-.42-.91-.63-1.65-.63s-1.28.21-1.66.62c-.38.42-.56,1.02-.56,1.82Z"/>
    <path class="cls-17" d="M989.53,962.11c-1.85,0-3.29-.54-4.33-1.62-1.04-1.08-1.56-2.56-1.56-4.45s.48-3.47,1.45-4.58,2.29-1.67,3.99-1.67c1.57,0,2.81.48,3.72,1.43s1.36,2.26,1.36,3.93v1.36h-7.92c.04,1.15.35,2.04.93,2.66.59.62,1.41.93,2.48.93.7,0,1.36-.07,1.96-.2.6-.13,1.25-.35,1.95-.66v2.05c-.62.29-1.24.5-1.87.62s-1.35.18-2.16.18ZM989.07,951.71c-.8,0-1.45.25-1.93.76-.48.51-.77,1.25-.87,2.22h5.39c-.01-.98-.25-1.72-.71-2.23-.46-.51-1.09-.76-1.89-.76Z"/>
  </g>
  <rect class="cls-18" x="761.72" y="796.02" width="114.71" height="114.71" rx="19.94" ry="19.94"/>
  <g>
    <path class="cls-17" d="M777.31,921.76c-1.48,0-2.64.52-3.48,1.57-.84,1.05-1.27,2.49-1.27,4.33s.41,3.38,1.22,4.37c.81.99,1.99,1.48,3.53,1.48.67,0,1.31-.07,1.93-.2.62-.13,1.27-.3,1.94-.51v2.2c-1.23.46-2.63.7-4.19.7-2.3,0-4.06-.7-5.3-2.09-1.23-1.39-1.85-3.39-1.85-5.98,0-1.63.3-3.06.9-4.29.6-1.22,1.46-2.16,2.59-2.81,1.13-.65,2.46-.98,3.99-.98,1.6,0,3.09.34,4.45,1.01l-.92,2.14c-.53-.25-1.09-.47-1.68-.66-.59-.19-1.21-.29-1.86-.29Z"/>
    <path class="cls-17" d="M794.75,935.49h-2.54v-7.3c0-.92-.18-1.6-.55-2.05-.37-.45-.95-.68-1.76-.68-1.06,0-1.84.32-2.34.95-.5.63-.75,1.7-.75,3.19v5.9h-2.52v-16.71h2.52v4.24c0,.68-.04,1.41-.13,2.18h.16c.34-.57.82-1.02,1.43-1.33.61-.31,1.33-.47,2.14-.47,2.88,0,4.32,1.45,4.32,4.35v7.74Z"/>
    <path class="cls-17" d="M803.45,935.71c-1.85,0-3.29-.54-4.33-1.62-1.04-1.08-1.56-2.56-1.56-4.45s.48-3.47,1.45-4.58c.97-1.11,2.29-1.67,3.99-1.67,1.57,0,2.81.48,3.72,1.43.91.95,1.36,2.26,1.36,3.93v1.36h-7.92c.04,1.15.35,2.04.93,2.66.59.62,1.41.93,2.48.93.7,0,1.36-.07,1.96-.2.6-.13,1.25-.35,1.95-.66v2.05c-.62.29-1.24.5-1.87.62-.63.12-1.35.18-2.16.18ZM802.99,925.31c-.8,0-1.45.25-1.93.76-.48.51-.77,1.25-.87,2.22h5.39c-.01-.98-.25-1.72-.71-2.23s-1.09-.76-1.89-.76Z"/>
    <path class="cls-17" d="M815.73,935.71c-1.8,0-3.16-.52-4.1-1.57-.94-1.05-1.4-2.55-1.4-4.52s.49-3.54,1.47-4.61c.98-1.07,2.39-1.61,4.24-1.61,1.25,0,2.38.23,3.38.7l-.76,2.03c-1.07-.41-1.95-.62-2.64-.62-2.06,0-3.08,1.37-3.08,4.09,0,1.33.26,2.33.77,3,.51.67,1.26,1,2.25,1,1.12,0,2.19-.28,3.19-.84v2.2c-.45.26-.93.46-1.45.57-.51.12-1.13.17-1.86.17Z"/>
    <path class="cls-17" d="M824.27,929.22l1.43-1.78,3.59-3.82h2.91l-4.78,5.1,5.08,6.78h-2.96l-3.81-5.21-1.39,1.14v4.07h-2.5v-16.71h2.5v8.15l-.13,2.29h.06Z"/>
    <path class="cls-17" d="M844.95,929.53c0,1.94-.5,3.46-1.49,4.54-1,1.09-2.38,1.63-4.16,1.63-1.11,0-2.09-.25-2.94-.75-.85-.5-1.51-1.22-1.97-2.16-.46-.94-.69-2.03-.69-3.27,0-1.93.49-3.43,1.48-4.51.99-1.08,2.38-1.62,4.18-1.62s3.08.55,4.08,1.66,1.5,2.6,1.5,4.47ZM836.3,929.53c0,2.74,1.01,4.11,3.04,4.11s3.01-1.37,3.01-4.11-1.01-4.07-3.03-4.07c-1.06,0-1.83.35-2.3,1.05-.48.7-.71,1.71-.71,3.02Z"/>
    <path class="cls-17" d="M856.23,935.49l-.35-1.56h-.13c-.35.55-.85.98-1.5,1.3-.65.32-1.39.47-2.22.47-1.44,0-2.51-.36-3.22-1.07-.71-.71-1.06-1.8-1.06-3.25v-7.77h2.55v7.33c0,.91.19,1.59.56,2.05s.96.68,1.75.68c1.06,0,1.84-.32,2.34-.95.5-.63.75-1.7.75-3.18v-5.92h2.54v11.88h-1.99Z"/>
    <path class="cls-17" d="M866.24,933.66c.62,0,1.23-.1,1.85-.29v1.9c-.28.12-.64.22-1.08.31-.44.08-.9.12-1.37.12-2.39,0-3.59-1.26-3.59-3.78v-6.4h-1.62v-1.12l1.74-.92.86-2.51h1.56v2.64h3.38v1.91h-3.38v6.36c0,.61.15,1.06.46,1.35.3.29.7.43,1.2.43Z"/>
    <path class="cls-17" d="M805.47,950.93c0,1.64-.54,2.9-1.61,3.77s-2.6,1.31-4.59,1.31h-1.63v5.88h-2.57v-15.71h4.52c1.96,0,3.43.4,4.41,1.2.98.8,1.47,1.98,1.47,3.54ZM797.64,953.86h1.36c1.32,0,2.28-.23,2.9-.69.62-.46.92-1.17.92-2.15,0-.9-.28-1.58-.83-2.02-.55-.44-1.41-.67-2.58-.67h-1.78v5.52Z"/>
    <path class="cls-17" d="M815.78,961.89l-.5-1.65h-.09c-.57.72-1.15,1.22-1.73,1.48-.58.26-1.33.39-2.23.39-1.17,0-2.08-.31-2.73-.95-.65-.63-.98-1.52-.98-2.67,0-1.22.46-2.15,1.36-2.77s2.29-.96,4.16-1.02l2.05-.06v-.63c0-.76-.18-1.33-.53-1.7-.35-.38-.9-.56-1.65-.56-.61,0-1.19.09-1.75.27s-1.1.39-1.61.63l-.82-1.8c.64-.34,1.35-.59,2.12-.77s1.49-.26,2.17-.26c1.51,0,2.65.33,3.42.99.77.66,1.15,1.69,1.15,3.1v8h-1.8ZM812.02,960.17c.92,0,1.65-.26,2.21-.77.56-.51.83-1.23.83-2.15v-1.03l-1.53.06c-1.19.04-2.05.24-2.59.6-.54.36-.81.9-.81,1.63,0,.53.16.94.47,1.23.32.29.79.44,1.42.44Z"/>
    <path class="cls-17" d="M831.14,950.01v1.39l-2.03.38c.19.25.34.56.46.92s.18.75.18,1.16c0,1.22-.42,2.19-1.27,2.89s-2.01,1.05-3.49,1.05c-.38,0-.72-.03-1.03-.09-.54.34-.82.73-.82,1.18,0,.27.13.48.38.61.25.14.72.2,1.4.2h2.07c1.31,0,2.31.28,2.99.84s1.02,1.36,1.02,2.42c0,1.35-.55,2.38-1.67,3.12s-2.71,1.1-4.81,1.1c-1.62,0-2.85-.29-3.71-.86-.85-.57-1.28-1.39-1.28-2.45,0-.73.23-1.34.69-1.84.46-.5,1.11-.84,1.94-1.04-.34-.14-.61-.37-.83-.69-.22-.32-.33-.65-.33-1,0-.44.12-.82.38-1.13s.62-.61,1.12-.91c-.62-.26-1.12-.7-1.5-1.29-.38-.6-.57-1.3-.57-2.1,0-1.29.41-2.29,1.22-3,.81-.71,1.97-1.06,3.48-1.06.34,0,.69.02,1.06.07.37.05.65.09.83.14h4.11ZM821.8,963.74c0,.54.25.96.74,1.26.49.29,1.18.44,2.07.44,1.38,0,2.4-.2,3.07-.59s1.01-.92,1.01-1.57c0-.52-.18-.88-.55-1.1-.37-.22-1.05-.33-2.06-.33h-1.91c-.72,0-1.3.17-1.72.51-.43.34-.64.8-.64,1.38ZM822.89,953.86c0,.75.19,1.32.57,1.72.38.4.93.6,1.65.6,1.46,0,2.19-.78,2.19-2.34,0-.77-.18-1.37-.54-1.79-.36-.42-.91-.63-1.65-.63s-1.28.21-1.66.62c-.38.42-.56,1.02-.56,1.82Z"/>
    <path class="cls-17" d="M838.53,962.11c-1.85,0-3.29-.54-4.33-1.62-1.04-1.08-1.56-2.56-1.56-4.45s.48-3.47,1.45-4.58,2.29-1.67,3.99-1.67c1.57,0,2.81.48,3.72,1.43s1.36,2.26,1.36,3.93v1.36h-7.92c.04,1.15.35,2.04.93,2.66.59.62,1.41.93,2.48.93.7,0,1.36-.07,1.96-.2.6-.13,1.25-.35,1.95-.66v2.05c-.62.29-1.24.5-1.87.62s-1.35.18-2.16.18ZM838.07,951.71c-.8,0-1.45.25-1.93.76-.48.51-.77,1.25-.87,2.22h5.39c-.01-.98-.25-1.72-.71-2.23-.46-.51-1.09-.76-1.89-.76Z"/>
  </g>
  <g>
    <path class="cls-17" d="M1074.17,935.49h-2.57v-13.5h-4.62v-2.2h11.81v2.2h-4.62v13.5Z"/>
    <path class="cls-17" d="M1091.38,935.49h-2.54v-7.3c0-.92-.18-1.6-.55-2.05-.37-.45-.95-.68-1.76-.68-1.06,0-1.84.32-2.34.95-.5.63-.75,1.7-.75,3.19v5.9h-2.52v-16.71h2.52v4.24c0,.68-.04,1.41-.13,2.18h.16c.34-.57.82-1.02,1.43-1.33.61-.31,1.33-.47,2.14-.47,2.88,0,4.32,1.45,4.32,4.35v7.74Z"/>
    <path class="cls-17" d="M1102.33,935.49l-.5-1.65h-.09c-.57.72-1.15,1.22-1.73,1.48s-1.33.39-2.23.39c-1.17,0-2.08-.31-2.73-.95-.65-.63-.98-1.52-.98-2.67,0-1.22.46-2.15,1.36-2.77s2.29-.96,4.16-1.02l2.05-.06v-.63c0-.76-.18-1.33-.53-1.7-.35-.38-.9-.56-1.65-.56-.61,0-1.19.09-1.75.27-.56.18-1.1.39-1.61.63l-.82-1.8c.64-.34,1.35-.59,2.12-.77s1.49-.26,2.17-.26c1.51,0,2.65.33,3.42.99.77.66,1.15,1.69,1.15,3.11v8h-1.8ZM1098.57,933.77c.92,0,1.65-.26,2.21-.77.56-.51.83-1.23.83-2.15v-1.03l-1.53.06c-1.19.04-2.05.24-2.59.6-.54.35-.81.9-.81,1.63,0,.53.16.94.47,1.23s.79.43,1.42.43Z"/>
    <path class="cls-17" d="M1118.11,935.49h-2.54v-7.3c0-.92-.18-1.6-.55-2.05-.37-.45-.95-.68-1.76-.68-1.07,0-1.85.32-2.34.95-.49.63-.74,1.69-.74,3.17v5.92h-2.52v-11.88h1.98l.35,1.56h.13c.36-.57.87-1,1.53-1.31.66-.31,1.39-.46,2.19-.46,2.85,0,4.28,1.45,4.28,4.35v7.74Z"/>
    <path class="cls-17" d="M1124.06,929.22l1.43-1.78,3.59-3.82h2.91l-4.78,5.1,5.08,6.78h-2.96l-3.81-5.21-1.39,1.14v4.07h-2.5v-16.71h2.5v8.15l-.13,2.29h.06Z"/>
    <path class="cls-17" d="M1144.62,926.95l3.72-7.17h2.79l-5.23,9.62v6.09h-2.58v-6l-5.21-9.7h2.79l3.72,7.17Z"/>
    <path class="cls-17" d="M1163.47,929.53c0,1.94-.5,3.46-1.49,4.54-1,1.09-2.38,1.63-4.16,1.63-1.11,0-2.09-.25-2.94-.75-.85-.5-1.51-1.22-1.97-2.16-.46-.94-.69-2.03-.69-3.27,0-1.93.49-3.43,1.48-4.51.99-1.08,2.38-1.62,4.18-1.62s3.08.55,4.08,1.66,1.5,2.6,1.5,4.47ZM1154.83,929.53c0,2.74,1.01,4.11,3.04,4.11s3.01-1.37,3.01-4.11-1.01-4.07-3.03-4.07c-1.06,0-1.83.35-2.3,1.05-.48.7-.71,1.71-.71,3.02Z"/>
    <path class="cls-17" d="M1174.75,935.49l-.35-1.56h-.13c-.35.55-.85.98-1.5,1.3-.65.32-1.39.47-2.22.47-1.44,0-2.51-.36-3.22-1.07-.71-.71-1.06-1.8-1.06-3.25v-7.77h2.55v7.33c0,.91.19,1.59.56,2.05s.96.68,1.75.68c1.06,0,1.84-.32,2.34-.95.5-.63.75-1.7.75-3.18v-5.92h2.54v11.88h-1.99Z"/>
    <path class="cls-17" d="M1109.47,950.93c0,1.64-.54,2.9-1.61,3.77s-2.6,1.31-4.59,1.31h-1.63v5.88h-2.57v-15.71h4.52c1.96,0,3.43.4,4.41,1.2.98.8,1.47,1.98,1.47,3.54ZM1101.64,953.86h1.36c1.32,0,2.28-.23,2.9-.69.62-.46.92-1.17.92-2.15,0-.9-.28-1.58-.83-2.02-.55-.44-1.41-.67-2.58-.67h-1.78v5.52Z"/>
    <path class="cls-17" d="M1119.78,961.89l-.5-1.65h-.09c-.57.72-1.15,1.22-1.73,1.48-.58.26-1.33.39-2.23.39-1.17,0-2.08-.31-2.73-.95-.65-.63-.98-1.52-.98-2.67,0-1.22.46-2.15,1.36-2.77s2.29-.96,4.16-1.02l2.05-.06v-.63c0-.76-.18-1.33-.53-1.7-.35-.38-.9-.56-1.65-.56-.61,0-1.19.09-1.75.27s-1.1.39-1.61.63l-.82-1.8c.64-.34,1.35-.59,2.12-.77s1.49-.26,2.17-.26c1.51,0,2.65.33,3.42.99.77.66,1.15,1.69,1.15,3.1v8h-1.8ZM1116.02,960.17c.92,0,1.65-.26,2.21-.77.56-.51.83-1.23.83-2.15v-1.03l-1.53.06c-1.19.04-2.05.24-2.59.6-.54.36-.81.9-.81,1.63,0,.53.16.94.47,1.23.32.29.79.44,1.42.44Z"/>
    <path class="cls-17" d="M1135.14,950.01v1.39l-2.03.38c.19.25.34.56.46.92s.18.75.18,1.16c0,1.22-.42,2.19-1.27,2.89s-2.01,1.05-3.49,1.05c-.38,0-.72-.03-1.03-.09-.54.34-.82.73-.82,1.18,0,.27.13.48.38.61.25.14.72.2,1.4.2h2.07c1.31,0,2.31.28,2.99.84s1.02,1.36,1.02,2.42c0,1.35-.55,2.38-1.67,3.12s-2.71,1.1-4.81,1.1c-1.62,0-2.85-.29-3.71-.86-.85-.57-1.28-1.39-1.28-2.45,0-.73.23-1.34.69-1.84.46-.5,1.11-.84,1.94-1.04-.34-.14-.61-.37-.83-.69-.22-.32-.33-.65-.33-1,0-.44.12-.82.38-1.13s.62-.61,1.12-.91c-.62-.26-1.12-.7-1.5-1.29-.38-.6-.57-1.3-.57-2.1,0-1.29.41-2.29,1.22-3,.81-.71,1.97-1.06,3.48-1.06.34,0,.69.02,1.06.07.37.05.65.09.83.14h4.11ZM1125.8,963.74c0,.54.25.96.74,1.26.49.29,1.18.44,2.07.44,1.38,0,2.4-.2,3.07-.59s1.01-.92,1.01-1.57c0-.52-.18-.88-.55-1.1-.37-.22-1.05-.33-2.06-.33h-1.91c-.72,0-1.3.17-1.72.51-.43.34-.64.8-.64,1.38ZM1126.89,953.86c0,.75.19,1.32.57,1.72.38.4.93.6,1.65.6,1.46,0,2.19-.78,2.19-2.34,0-.77-.18-1.37-.54-1.79-.36-.42-.91-.63-1.65-.63s-1.28.21-1.66.62c-.38.42-.56,1.02-.56,1.82Z"/>
    <path class="cls-17" d="M1142.53,962.11c-1.85,0-3.29-.54-4.33-1.62-1.04-1.08-1.56-2.56-1.56-4.45s.48-3.47,1.45-4.58,2.29-1.67,3.99-1.67c1.57,0,2.81.48,3.72,1.43s1.36,2.26,1.36,3.93v1.36h-7.92c.04,1.15.35,2.04.93,2.66.59.62,1.41.93,2.48.93.7,0,1.36-.07,1.96-.2.6-.13,1.25-.35,1.95-.66v2.05c-.62.29-1.24.5-1.87.62s-1.35.18-2.16.18ZM1142.07,951.71c-.8,0-1.45.25-1.93.76-.48.51-.77,1.25-.87,2.22h5.39c-.01-.98-.25-1.72-.71-2.23-.46-.51-1.09-.76-1.89-.76Z"/>
  </g>
  <text class="cls-9" transform="translate(889.43 1023.44)"><tspan x="0" y="0">WEBSITE PLUGIN</tspan></text>
  <rect class="cls-4" x="1" y="95.52" width="1849" height="237"/>
  <rect class="cls-4" x="1" y="332.52" width="1849" height="237"/>
  <rect class="cls-4" x="1" y="569.52" width="1849" height="491"/>
  <g>
    <path class="cls-16" d="M136.68,191.89h-4.38v-8.94h-8.2v8.94h-4.39v-20.7h4.39v8.11h8.2v-8.11h4.38v20.7Z"/>
    <path class="cls-16" d="M160.7,181.51c0,3.43-.85,6.06-2.55,7.9s-4.13,2.76-7.31,2.76-5.61-.92-7.31-2.76-2.55-4.48-2.55-7.93.85-6.08,2.56-7.89c1.7-1.82,4.15-2.73,7.33-2.73s5.62.92,7.3,2.75c1.69,1.83,2.53,4.47,2.53,7.9ZM145.59,181.51c0,2.31.44,4.05,1.32,5.23.88,1.17,2.19,1.76,3.94,1.76,3.5,0,5.25-2.33,5.25-6.98s-1.74-7-5.23-7c-1.75,0-3.06.59-3.95,1.76-.89,1.17-1.33,2.92-1.33,5.23Z"/>
    <path class="cls-16" d="M177.21,186.14c0,1.87-.67,3.34-2.02,4.42-1.34,1.08-3.22,1.61-5.61,1.61-2.21,0-4.16-.42-5.86-1.25v-4.08c1.4.62,2.58,1.06,3.55,1.32s1.85.38,2.66.38c.96,0,1.7-.18,2.22-.55s.77-.92.77-1.64c0-.41-.11-.77-.34-1.08-.23-.32-.56-.62-1-.91-.44-.29-1.33-.76-2.68-1.4-1.27-.59-2.21-1.17-2.85-1.71s-1.14-1.18-1.51-1.91c-.38-.73-.57-1.58-.57-2.55,0-1.83.62-3.27,1.86-4.32s2.96-1.57,5.15-1.57c1.08,0,2.1.13,3.08.38.98.25,2,.61,3.07,1.08l-1.42,3.41c-1.1-.45-2.02-.77-2.74-.95-.72-.18-1.43-.27-2.13-.27-.83,0-1.47.19-1.91.58-.44.39-.67.89-.67,1.52,0,.39.09.72.27,1.01.18.29.47.57.86.84.39.27,1.32.75,2.78,1.45,1.94.93,3.26,1.85,3.98,2.78.72.93,1.08,2.07,1.08,3.42Z"/>
    <path class="cls-16" d="M188.95,191.89h-4.39v-17.05h-5.62v-3.65h15.63v3.65h-5.62v17.05Z"/>
    <path class="cls-16" d="M209.68,191.89h-11.92v-20.7h11.92v3.6h-7.53v4.55h7.01v3.6h-7.01v5.34h7.53v3.62Z"/>
    <path class="cls-16" d="M231.17,181.34c0,3.41-.97,6.02-2.91,7.83-1.94,1.81-4.74,2.72-8.4,2.72h-5.86v-20.7h6.5c3.38,0,6,.89,7.87,2.68s2.8,4.28,2.8,7.48ZM226.61,181.45c0-4.45-1.96-6.67-5.89-6.67h-2.34v13.48h1.88c4.23,0,6.34-2.27,6.34-6.81Z"/>
    <path class="cls-16" d="M72.14,212.44c0,2.23-.7,3.93-2.09,5.11s-3.37,1.77-5.94,1.77h-1.88v7.36h-4.39v-20.7h6.61c2.51,0,4.42.54,5.73,1.62,1.31,1.08,1.96,2.69,1.96,4.84ZM62.23,215.73h1.44c1.35,0,2.36-.27,3.03-.8.67-.53,1-1.31,1-2.33s-.28-1.79-.84-2.28-1.44-.74-2.64-.74h-2v6.15Z"/>
    <path class="cls-16" d="M88.72,226.69l-1.5-4.93h-7.55l-1.5,4.93h-4.73l7.31-20.79h5.37l7.33,20.79h-4.73ZM86.17,218.08c-1.39-4.47-2.17-6.99-2.34-7.58s-.3-1.05-.38-1.39c-.31,1.21-1.2,4.2-2.68,8.96h5.4Z"/>
    <path class="cls-16" d="M102.5,214.51l4.32-8.52h4.73l-6.87,12.65v8.06h-4.36v-7.92l-6.87-12.79h4.76l4.29,8.52Z"/>
    <path class="cls-16" d="M126.08,226.69h-11.92v-20.7h11.92v3.6h-7.53v4.55h7.01v3.6h-7.01v5.34h7.53v3.62Z"/>
    <path class="cls-16" d="M139.16,226.69l-4.98-16.24h-.13c.18,3.3.27,5.51.27,6.61v9.63h-3.92v-20.7h5.98l4.9,15.83h.08l5.2-15.83h5.98v20.7h-4.09v-9.8c0-.46,0-1,.02-1.6.01-.6.08-2.21.19-4.81h-.13l-5.34,16.21h-4.02Z"/>
    <path class="cls-16" d="M169.66,226.69h-11.92v-20.7h11.92v3.6h-7.53v4.55h7.01v3.6h-7.01v5.34h7.53v3.62Z"/>
    <path class="cls-16" d="M192.34,226.69h-5.58l-9.01-15.66h-.13c.18,2.77.27,4.74.27,5.92v9.74h-3.92v-20.7h5.54l8.99,15.51h.1c-.14-2.69-.21-4.59-.21-5.71v-9.8h3.95v20.7Z"/>
    <path class="cls-16" d="M205.54,226.69h-4.39v-17.05h-5.62v-3.65h15.63v3.65h-5.62v17.05Z"/>
    <path class="cls-16" d="M236.18,212.44c0,2.23-.7,3.93-2.09,5.11s-3.37,1.77-5.94,1.77h-1.88v7.36h-4.39v-20.7h6.61c2.51,0,4.42.54,5.73,1.62,1.31,1.08,1.96,2.69,1.96,4.84ZM226.27,215.73h1.44c1.35,0,2.36-.27,3.03-.8.67-.53,1-1.31,1-2.33s-.28-1.79-.84-2.28-1.44-.74-2.64-.74h-2v6.15Z"/>
    <path class="cls-16" d="M252.77,226.69l-1.5-4.93h-7.55l-1.5,4.93h-4.73l7.31-20.79h5.37l7.33,20.79h-4.73ZM250.22,218.08c-1.39-4.47-2.17-6.99-2.34-7.58s-.3-1.05-.38-1.39c-.31,1.21-1.2,4.2-2.68,8.96h5.4Z"/>
    <path class="cls-16" d="M267.96,215.06h8.21v10.73c-1.33.43-2.58.74-3.76.91-1.18.17-2.38.26-3.6.26-3.12,0-5.51-.92-7.16-2.75-1.65-1.84-2.47-4.47-2.47-7.91s.96-5.95,2.87-7.82c1.91-1.87,4.56-2.8,7.95-2.8,2.12,0,4.17.42,6.14,1.27l-1.46,3.51c-1.51-.76-3.08-1.13-4.72-1.13-1.9,0-3.42.64-4.56,1.91-1.14,1.27-1.71,2.99-1.71,5.14s.46,3.96,1.38,5.15c.92,1.19,2.26,1.78,4.01,1.78.92,0,1.84-.09,2.79-.28v-4.32h-3.92v-3.65Z"/>
    <path class="cls-16" d="M293.02,226.69h-11.92v-20.7h11.92v3.6h-7.53v4.55h7.01v3.6h-7.01v5.34h7.53v3.62Z"/>
    <path class="cls-16" d="M137.01,253.55c0-2.5.37-4.84,1.1-7.02s1.79-4.09,3.17-5.73h3.54c-1.33,1.82-2.34,3.82-3.02,6s-1.02,4.42-1.02,6.73.35,4.55,1.04,6.7c.69,2.16,1.68,4.11,2.97,5.86h-3.51c-1.39-1.6-2.45-3.48-3.17-5.62-.73-2.14-1.09-4.45-1.09-6.91Z"/>
    <path class="cls-16" d="M165.25,261.49h-4.38v-8.94h-8.2v8.94h-4.39v-20.7h4.39v8.11h8.2v-8.11h4.38v20.7Z"/>
    <path class="cls-16" d="M184.78,247.24c0,2.23-.7,3.93-2.09,5.11s-3.37,1.77-5.94,1.77h-1.88v7.36h-4.39v-20.7h6.61c2.51,0,4.42.54,5.73,1.62,1.31,1.08,1.96,2.69,1.96,4.84ZM174.86,250.53h1.44c1.35,0,2.36-.27,3.03-.8.67-.53,1-1.31,1-2.33s-.28-1.79-.84-2.28-1.44-.74-2.64-.74h-2v6.15Z"/>
    <path class="cls-16" d="M202.99,247.24c0,2.23-.7,3.93-2.09,5.11s-3.37,1.77-5.94,1.77h-1.88v7.36h-4.39v-20.7h6.61c2.51,0,4.42.54,5.73,1.62,1.31,1.08,1.96,2.69,1.96,4.84ZM193.07,250.53h1.44c1.35,0,2.36-.27,3.03-.8.67-.53,1-1.31,1-2.33s-.28-1.79-.84-2.28-1.44-.74-2.64-.74h-2v6.15Z"/>
    <path class="cls-16" d="M212.96,253.55c0,2.48-.37,4.8-1.1,6.94s-1.79,4.01-3.16,5.59h-3.51c1.27-1.74,2.26-3.68,2.96-5.84.7-2.16,1.05-4.4,1.05-6.72s-.34-4.55-1.02-6.73-1.68-4.18-3.02-6h3.54c1.39,1.65,2.44,3.57,3.17,5.76.73,2.19,1.09,4.52,1.09,7Z"/>
  </g>
  <text class="cls-13" transform="translate(143.87 460.89)"><tspan x="0" y="0">APIs</tspan></text>
  <text class="cls-13" transform="translate(51.93 812.89)"><tspan x="0" y="0">WEBSITE PLUGINS </tspan></text>
  <g>
    <line class="cls-2" x1="1212" y1="212.39" x2="1376.68" y2="212.39"/>
    <polygon class="cls-21" points="1372.01 228.34 1399.64 212.39 1372.01 196.43 1372.01 228.34"/>
  </g>
  <g>
    <line class="cls-2" x1="586.62" y1="212.39" x2="718.68" y2="212.39"/>
    <polygon class="cls-21" points="714.01 228.34 741.64 212.39 714.01 196.43 714.01 228.34"/>
  </g>
  <g>
    <line class="cls-2" x1="586.62" y1="451.39" x2="718.68" y2="451.39"/>
    <polygon class="cls-21" points="714.01 467.34 741.64 451.39 714.01 435.43 714.01 467.34"/>
  </g>
  <g>
    <line class="cls-2" x1="586.62" y1="679.39" x2="718.68" y2="679.39"/>
    <polygon class="cls-21" points="714.01 695.34 741.64 679.39 714.01 663.43 714.01 695.34"/>
  </g>
  <g>
    <line class="cls-2" x1="1205.52" y1="405.35" x2="1376.68" y2="405.35"/>
    <polygon class="cls-21" points="1372.01 421.31 1399.64 405.35 1372.01 389.4 1372.01 421.31"/>
  </g>
  <g>
    <line class="cls-2" x1="1220.73" y1="833.39" x2="1376.68" y2="833.39"/>
    <polygon class="cls-21" points="1372.01 849.34 1399.64 833.39 1372.01 817.43 1372.01 849.34"/>
  </g>
  <g>
    <line class="cls-2" x1="1389.62" y1="445.42" x2="1218.46" y2="445.42"/>
    <polygon class="cls-21" points="1223.13 429.47 1195.5 445.42 1223.13 461.38 1223.13 429.47"/>
  </g>
  <g>
    <line class="cls-2" x1="1390.41" y1="873.39" x2="1234.46" y2="873.39"/>
    <polygon class="cls-21" points="1239.13 857.43 1211.5 873.39 1239.13 889.34 1239.13 857.43"/>
  </g>
  <g>
    <line class="cls-2" x1="1391.64" y1="674.39" x2="1218.96" y2="674.39"/>
    <polygon class="cls-21" points="1223.63 658.43 1196 674.39 1223.63 690.34 1223.63 658.43"/>
  </g>
  <g>
    <path class="cls-5" d="M501.28,182.83c0,6.77-5.78,12.2-12.68,11.6-6.12-.53-10.6-6.06-10.6-12.2v-3.45c0-6.14,4.48-11.67,10.6-12.2,6.9-.6,12.68,4.82,12.68,11.6v4.66Z"/>
    <path class="cls-5" d="M495.76,205.2l-3.89,4.65c-1.16,1.39-3.3,1.39-4.46,0l-3.89-4.65c-1.62-1.94-4.34-2.68-6.65-1.67-10.38,4.52-17.9,14.38-19.07,26.11-.17,1.73,1.17,3.24,2.91,3.24h57.88c1.73,0,3.08-1.51,2.91-3.24-1.18-11.73-8.7-21.59-19.08-26.11-2.32-1.01-5.03-.27-6.65,1.67Z"/>
  </g>
  <g>
    <path class="cls-5" d="M501.28,418.83c0,6.77-5.78,12.2-12.68,11.6-6.12-.53-10.6-6.06-10.6-12.2v-3.45c0-6.14,4.48-11.67,10.6-12.2,6.9-.6,12.68,4.82,12.68,11.6v4.66Z"/>
    <path class="cls-5" d="M495.76,441.2l-3.89,4.65c-1.16,1.39-3.3,1.39-4.46,0l-3.89-4.65c-1.62-1.94-4.34-2.68-6.65-1.67-10.38,4.52-17.9,14.38-19.07,26.11-.17,1.73,1.17,3.24,2.91,3.24h57.88c1.73,0,3.08-1.51,2.91-3.24-1.18-11.73-8.7-21.59-19.08-26.11-2.32-1.01-5.03-.27-6.65,1.67Z"/>
  </g>
  <g>
    <path class="cls-5" d="M501.28,658.83c0,6.77-5.78,12.2-12.68,11.6-6.12-.53-10.6-6.06-10.6-12.2v-3.45c0-6.14,4.48-11.67,10.6-12.2,6.9-.6,12.68,4.82,12.68,11.6v4.66Z"/>
    <path class="cls-5" d="M495.76,681.2l-3.89,4.65c-1.16,1.39-3.3,1.39-4.46,0l-3.89-4.65c-1.62-1.94-4.34-2.68-6.65-1.67-10.38,4.52-17.9,14.38-19.07,26.11-.17,1.73,1.17,3.24,2.91,3.24h57.88c1.73,0,3.08-1.51,2.91-3.24-1.18-11.73-8.7-21.59-19.08-26.11-2.32-1.01-5.03-.27-6.65,1.67Z"/>
  </g>
  <g>
    <path class="cls-5" d="M935.69,162.16h51.99c3.63,0,6.43,3.27,5.81,6.87l-4.3,20.19c-.27,1.41-1.47,2.42-2.89,2.42h-43.24"/>
    <circle class="cls-5" cx="950.43" cy="212.27" r="5.9"/>
    <circle class="cls-5" cx="982.85" cy="212.27" r="5.9"/>
    <path class="cls-5" d="M926.85,150.37c5.9,0,5.9,2.95,8.84,11.79l8.84,35.37c.29,1.36.99,2.95,2.38,2.95h41.83"/>
  </g>
  <g>
    <path class="cls-5" d="M794.69,411.16h51.99c3.63,0,6.43,3.27,5.81,6.87l-4.3,20.19c-.27,1.41-1.47,2.42-2.89,2.42h-43.24"/>
    <circle class="cls-5" cx="809.43" cy="461.27" r="5.9"/>
    <circle class="cls-5" cx="841.85" cy="461.27" r="5.9"/>
    <path class="cls-5" d="M785.85,399.37c5.9,0,5.9,2.95,8.84,11.79l8.84,35.37c.29,1.36.99,2.95,2.38,2.95h41.83"/>
  </g>
  <g>
    <path class="cls-5" d="M794.69,833.16h51.99c3.63,0,6.43,3.27,5.81,6.87l-4.3,20.19c-.27,1.41-1.47,2.42-2.89,2.42h-43.24"/>
    <circle class="cls-5" cx="809.43" cy="883.27" r="5.9"/>
    <circle class="cls-5" cx="841.85" cy="883.27" r="5.9"/>
    <path class="cls-5" d="M785.85,821.37c5.9,0,5.9,2.95,8.84,11.79l8.84,35.37c.29,1.36.99,2.95,2.38,2.95h41.83"/>
  </g>
  <g>
    <path class="cls-5" d="M1003.62,658.7c0,3.36-3,6.08-6.69,6.08s-6.69-2.72-6.69-6.08c0,3.36-3,6.08-6.69,6.08s-6.69-2.72-6.69-6.08c0,3.36-3,6.08-6.69,6.08s-6.69-2.72-6.69-6.08c0,3.36-3,6.08-6.69,6.08s-6.69-2.72-6.69-6.08c0,3.36-3,6.08-6.69,6.08s-6.69-2.72-6.69-6.08"/>
    <path class="cls-1" d="M936.71,658.7l6.97-22.13c.37-1.31,1.57-2.21,2.92-2.21h47.12c1.36,0,2.55.9,2.92,2.21l6.97,22.13"/>
    <path class="cls-5" d="M999.06,664.78v36.5c0,1.68-1.36,3.04-3.04,3.04h-51.71c-1.68,0-3.04-1.36-3.04-3.04v-36.5"/>
    <line class="cls-1" x1="962.56" y1="661.74" x2="962.56" y2="704.32"/>
    <line class="cls-1" x1="956.48" y1="679.99" x2="956.48" y2="683.03"/>
    <line class="cls-1" x1="980.81" y1="673.91" x2="971.69" y2="683.03"/>
    <line class="cls-1" x1="986.9" y1="679.99" x2="974.73" y2="692.16"/>
    <line class="cls-1" x1="990.24" y1="658.7" x2="986.58" y2="634.37"/>
    <line class="cls-1" x1="976.86" y1="658.7" x2="974.6" y2="634.37"/>
    <line class="cls-1" x1="963.48" y1="658.7" x2="965.54" y2="634.37"/>
    <line class="cls-1" x1="950.09" y1="658.7" x2="954.01" y2="634.37"/>
  </g>
  <g>
    <path class="cls-5" d="M1543.33,212.53h-66.5c-1.75,0-3.17-1.42-3.17-3.17v-53.17c0-2.11,1.72-3.83,3.83-3.83h65.17c2.11,0,3.83,1.72,3.83,3.83v53.17c0,1.75-1.42,3.17-3.17,3.17Z"/>
    <line class="cls-5" x1="1473.67" y1="168.2" x2="1546.5" y2="168.2"/>
    <circle class="cls-20" cx="1481.58" cy="160.28" r="3.17"/>
    <circle class="cls-20" cx="1491.08" cy="160.28" r="3.17"/>
    <circle class="cls-20" cx="1500.58" cy="160.28" r="3.17"/>
  </g>
  <g>
    <circle class="cls-3" cx="1510.62" cy="195.72" r="8.88"/>
    <path class="cls-3" d="M1504.27,189.51v-7.75c0-3.5,2.84-6.35,6.35-6.35,1.75,0,3.34.71,4.49,1.85,1.14,1.15,1.85,2.74,1.85,4.49v7.75"/>
    <line class="cls-3" x1="1510.62" y1="195.72" x2="1510.62" y2="198.25"/>
    <circle class="cls-20" cx="1510.62" cy="194.45" r="1.9"/>
  </g>
  <g>
    <circle class="cls-5" cx="1119.33" cy="428.28" r="30.17"/>
    <line class="cls-5" x1="1136.38" y1="416.47" x2="1115.4" y2="440.08"/>
    <line class="cls-5" x1="1102.28" y1="429.59" x2="1115.4" y2="440.08"/>
  </g>
  <g>
    <circle class="cls-5" cx="1119.33" cy="853.28" r="30.17"/>
    <line class="cls-5" x1="1136.38" y1="841.47" x2="1115.4" y2="865.08"/>
    <line class="cls-5" x1="1102.28" y1="854.59" x2="1115.4" y2="865.08"/>
  </g>
  <g>
    <circle class="cls-5" cx="1763.33" cy="183.28" r="30.17"/>
    <line class="cls-5" x1="1780.38" y1="171.47" x2="1759.4" y2="195.08"/>
    <line class="cls-5" x1="1746.28" y1="184.59" x2="1759.4" y2="195.08"/>
  </g>
  <g>
    <rect class="cls-5" x="935.31" y="408.02" width="68.19" height="44.47" rx="1" ry="1"/>
    <rect class="cls-5" x="935.31" y="416.91" width="68.19" height="8.89"/>
    <line class="cls-5" x1="941.24" y1="440.63" x2="953.1" y2="440.63"/>
    <line class="cls-5" x1="961.99" y1="440.63" x2="970.89" y2="440.63"/>
  </g>
  <g>
    <rect class="cls-5" x="935.22" y="830.98" width="68.19" height="44.47" rx="1" ry="1"/>
    <rect class="cls-5" x="935.22" y="839.88" width="68.19" height="8.89"/>
    <line class="cls-5" x1="941.15" y1="863.59" x2="953.01" y2="863.59"/>
    <line class="cls-5" x1="961.9" y1="863.59" x2="970.8" y2="863.59"/>
  </g>
  <g>
    <g>
      <path class="cls-5" d="M1626.62,438.08c-2.95.68-5.75,1.86-8.22,3.45"/>
      <path class="cls-5" d="M1646.63,441.53c-2.48-1.59-5.28-2.77-8.22-3.45"/>
      <path class="cls-5" d="M1658.4,458.07c-.68-2.95-1.86-5.75-3.45-8.22"/>
      <path class="cls-5" d="M1610.08,449.85c-1.59,2.48-2.77,5.28-3.45,8.22"/>
      <path class="cls-5" d="M1645.63,465.66c.1-.54.14-1.12.14-1.7,0-7.36-5.9-13.26-13.26-13.26s-13.26,5.9-13.26,13.26c0,.58.03,1.15.14,1.7"/>
      <polyline class="cls-5" points="1626.62 438.08 1626.62 430.06 1638.41 430.06 1638.41 438.08"/>
      <polyline class="cls-5" points="1646.63 441.53 1652.32 435.81 1660.67 444.16 1654.95 449.85"/>
      <polyline class="cls-5" points="1658.38 458.07 1666.41 458.07 1666.41 465.66"/>
      <polyline class="cls-5" points="1598.61 465.66 1598.61 458.07 1606.65 458.07"/>
      <polyline class="cls-5" points="1610.08 449.85 1604.36 444.16 1612.7 435.81 1618.39 441.53"/>
    </g>
    <path class="cls-5" d="M1593.53,401.25h77.97v63.41c0,.55-.45,1-1,1h-75.97c-.55,0-1-.45-1-1v-63.41h0Z"/>
    <line class="cls-5" x1="1593.53" y1="414.81" x2="1671.5" y2="414.81"/>
    <circle class="cls-20" cx="1603.7" cy="408.03" r="1.7"/>
    <circle class="cls-20" cx="1610.48" cy="408.03" r="1.7"/>
    <circle class="cls-20" cx="1617.26" cy="408.03" r="1.7"/>
  </g>
  <text class="cls-8" transform="translate(1583.73 748.49)"><tspan x="0" y="0">PLUGINS</tspan></text>
  <rect class="cls-16" x="1574.72" y="609.02" width="114.71" height="114.71" rx="19.94" ry="19.94"/>
  <g>
    <g>
      <path class="cls-5" d="M1626.62,671.08c-2.95.68-5.75,1.86-8.22,3.45"/>
      <path class="cls-5" d="M1646.63,674.53c-2.48-1.59-5.28-2.77-8.22-3.45"/>
      <path class="cls-5" d="M1658.4,691.07c-.68-2.95-1.86-5.75-3.45-8.22"/>
      <path class="cls-5" d="M1610.08,682.85c-1.59,2.48-2.77,5.28-3.45,8.22"/>
      <path class="cls-5" d="M1645.63,698.66c.1-.54.14-1.12.14-1.7,0-7.36-5.9-13.26-13.26-13.26s-13.26,5.9-13.26,13.26c0,.58.03,1.15.14,1.7"/>
      <polyline class="cls-5" points="1626.62 671.08 1626.62 663.06 1638.41 663.06 1638.41 671.08"/>
      <polyline class="cls-5" points="1646.63 674.53 1652.32 668.81 1660.67 677.16 1654.95 682.85"/>
      <polyline class="cls-5" points="1658.38 691.07 1666.41 691.07 1666.41 698.66"/>
      <polyline class="cls-5" points="1598.61 698.66 1598.61 691.07 1606.65 691.07"/>
      <polyline class="cls-5" points="1610.08 682.85 1604.36 677.16 1612.7 668.81 1618.39 674.53"/>
    </g>
    <path class="cls-5" d="M1593.53,634.25h77.97v63.41c0,.55-.45,1-1,1h-75.97c-.55,0-1-.45-1-1v-63.41h0Z"/>
    <line class="cls-5" x1="1593.53" y1="647.81" x2="1671.5" y2="647.81"/>
    <circle class="cls-20" cx="1603.7" cy="641.03" r="1.7"/>
    <circle class="cls-20" cx="1610.48" cy="641.03" r="1.7"/>
    <circle class="cls-20" cx="1617.26" cy="641.03" r="1.7"/>
  </g>
  <g>
    <g>
      <path class="cls-5" d="M1626.62,860.08c-2.95.68-5.75,1.86-8.22,3.45"/>
      <path class="cls-5" d="M1646.63,863.53c-2.48-1.59-5.28-2.77-8.22-3.45"/>
      <path class="cls-5" d="M1658.4,880.07c-.68-2.95-1.86-5.75-3.45-8.22"/>
      <path class="cls-5" d="M1610.08,871.85c-1.59,2.48-2.77,5.28-3.45,8.22"/>
      <path class="cls-5" d="M1645.63,887.66c.1-.54.14-1.12.14-1.7,0-7.36-5.9-13.26-13.26-13.26s-13.26,5.9-13.26,13.26c0,.58.03,1.15.14,1.7"/>
      <polyline class="cls-5" points="1626.62 860.08 1626.62 852.06 1638.41 852.06 1638.41 860.08"/>
      <polyline class="cls-5" points="1646.63 863.53 1652.32 857.81 1660.67 866.16 1654.95 871.85"/>
      <polyline class="cls-5" points="1658.38 880.07 1666.41 880.07 1666.41 887.66"/>
      <polyline class="cls-5" points="1598.61 887.66 1598.61 880.07 1606.65 880.07"/>
      <polyline class="cls-5" points="1610.08 871.85 1604.36 866.16 1612.7 857.81 1618.39 863.53"/>
    </g>
    <path class="cls-5" d="M1593.53,823.25h77.97v63.41c0,.55-.45,1-1,1h-75.97c-.55,0-1-.45-1-1v-63.41h0Z"/>
    <line class="cls-5" x1="1593.53" y1="836.81" x2="1671.5" y2="836.81"/>
    <circle class="cls-20" cx="1603.7" cy="830.03" r="1.7"/>
    <circle class="cls-20" cx="1610.48" cy="830.03" r="1.7"/>
    <circle class="cls-20" cx="1617.26" cy="830.03" r="1.7"/>
  </g>
  <text class="cls-14" transform="translate(1268.73 200.27)"><tspan x="0" y="0">Link</tspan></text>
  <text class="cls-11" transform="translate(1250.85 393.27)"><tspan x="0" y="0">Request</tspan></text>
  <text class="cls-11" transform="translate(1243.1 471.27)"><tspan x="0" y="0">Response</tspan></text>
  <text class="cls-11" transform="translate(1240.36 656.02)"><tspan x="0" y="0">Download</tspan></text>
  <text class="cls-11" transform="translate(1254.43 821.84)"><tspan x="0" y="0">Request</tspan></text>
  <text class="cls-11" transform="translate(1247.68 897.84)"><tspan x="0" y="0">Response</tspan></text>
</svg>