<?xml version="1.0" encoding="UTF-8"?>
<svg id="Layer_1" data-name="Layer 1" xmlns="http://www.w3.org/2000/svg" viewBox="0 0 1997 743">
  <defs>
    <style>
      .cls-1, .cls-2, .cls-3, .cls-4, .cls-5, .cls-6 {
        fill: none;
      }

      .cls-1, .cls-2, .cls-3, .cls-7, .cls-5 {
        stroke-miterlimit: 10;
      }

      .cls-1, .cls-4, .cls-5, .cls-6 {
        stroke: #fff;
      }

      .cls-1, .cls-4, .cls-6 {
        stroke-linecap: round;
      }

      .cls-1, .cls-6 {
        stroke-width: 3px;
      }

      .cls-8 {
        letter-spacing: -.09em;
      }

      .cls-9 {
        font-family: ArialMT, Arial;
        font-size: 25.7px;
      }

      .cls-2 {
        stroke: #ff931e;
      }

      .cls-2, .cls-3 {
        stroke-width: 5px;
      }

      .cls-3 {
        stroke: #00a99d;
      }

      .cls-10 {
        letter-spacing: -.02em;
      }

      .cls-11 {
        letter-spacing: -.02em;
      }

      .cls-12 {
        letter-spacing: -.04em;
      }

      .cls-4 {
        stroke-width: 2px;
      }

      .cls-4, .cls-6 {
        stroke-linejoin: round;
      }

      .cls-13 {
        letter-spacing: -.07em;
      }

      .cls-14 {
        font-size: 22.55px;
      }

      .cls-14, .cls-15 {
        font-family: Arial-BoldMT, Arial;
        font-weight: 700;
      }

      .cls-14, .cls-15, .cls-16 {
        fill: #fff;
      }

      .cls-7 {
        stroke: #d0d4eb;
      }

      .cls-7, .cls-17 {
        fill: #ff931e;
      }

      .cls-18, .cls-19, .cls-20, .cls-17, .cls-21, .cls-16, .cls-22 {
        stroke-width: 0px;
      }

      .cls-15 {
        font-size: 25px;
      }

      .cls-19 {
        fill: #29abe2;
      }

      .cls-20 {
        fill: #39b54a;
      }

      .cls-21 {
        fill: #ff7bac;
      }

      .cls-22 {
        fill: #00a99d;
      }
    </style>
  </defs>
  <rect class="cls-16" width="1997" height="743"/>
  <line class="cls-2" x1="1283.35" y1="440.58" x2="1283" y2="702.64"/>
  <rect class="cls-17" x="1143.97" y="169.85" width="280.21" height="280.21" rx="20.7" ry="20.7"/>
  <g>
    <path class="cls-16" d="M1177.94,301.68l4.86-.47c.29,1.63.89,2.83,1.78,3.59.89.76,2.1,1.15,3.62,1.15,1.61,0,2.82-.34,3.63-1.02s1.22-1.48,1.22-2.39c0-.58-.17-1.08-.51-1.49-.34-.41-.94-.77-1.8-1.07-.58-.2-1.92-.56-4-1.08-2.68-.66-4.55-1.48-5.63-2.45-1.52-1.36-2.28-3.02-2.28-4.98,0-1.26.36-2.44,1.07-3.53.71-1.1,1.74-1.93,3.09-2.5,1.34-.57,2.97-.86,4.87-.86,3.1,0,5.44.68,7.01,2.04,1.57,1.36,2.39,3.18,2.47,5.45l-4.99.22c-.21-1.27-.67-2.18-1.38-2.74-.7-.56-1.76-.83-3.16-.83s-2.59.3-3.41.89c-.53.38-.79.89-.79,1.54,0,.58.25,1.08.74,1.5.63.53,2.16,1.08,4.59,1.65,2.43.57,4.23,1.17,5.39,1.78,1.16.61,2.07,1.45,2.73,2.51.66,1.06.99,2.38.99,3.94,0,1.42-.39,2.74-1.18,3.98s-1.9,2.16-3.34,2.76-3.23.9-5.38.9c-3.13,0-5.53-.72-7.2-2.17-1.68-1.44-2.68-3.55-3-6.32Z"/>
    <path class="cls-16" d="M1218.07,300.63l4.84,1.54c-.74,2.7-1.98,4.7-3.7,6.01-1.73,1.31-3.92,1.97-6.57,1.97-3.28,0-5.98-1.12-8.1-3.37-2.11-2.24-3.17-5.31-3.17-9.2,0-4.12,1.06-7.31,3.19-9.59s4.92-3.42,8.38-3.42c3.02,0,5.48.89,7.37,2.68,1.12,1.06,1.97,2.58,2.53,4.55l-4.94,1.18c-.29-1.28-.9-2.29-1.83-3.04s-2.06-1.11-3.38-1.11c-1.83,0-3.32.66-4.46,1.97-1.14,1.32-1.71,3.45-1.71,6.39,0,3.13.56,5.35,1.69,6.68,1.12,1.33,2.59,1.99,4.39,1.99,1.33,0,2.47-.42,3.42-1.27.96-.84,1.64-2.17,2.06-3.98Z"/>
    <path class="cls-16" d="M1227.21,309.72v-24.73h4.99v9.73h9.78v-9.73h4.99v24.73h-4.99v-10.81h-9.78v10.81h-4.99Z"/>
    <path class="cls-16" d="M1252.14,309.72v-24.73h18.33v4.18h-13.34v5.48h12.42v4.17h-12.42v6.73h13.82v4.17h-18.81Z"/>
    <path class="cls-16" d="M1275.17,284.99h9.13c2.06,0,3.63.16,4.71.47,1.45.43,2.69,1.19,3.73,2.28,1.04,1.09,1.82,2.43,2.36,4.01.54,1.58.81,3.53.81,5.84,0,2.04-.25,3.79-.76,5.26-.62,1.8-1.5,3.26-2.65,4.37-.87.84-2.04,1.5-3.51,1.97-1.1.35-2.58.52-4.42.52h-9.4v-24.73ZM1280.16,289.18v16.38h3.73c1.39,0,2.4-.08,3.02-.24.81-.2,1.48-.55,2.02-1.03.53-.48.97-1.28,1.31-2.39.34-1.11.51-2.62.51-4.53s-.17-3.38-.51-4.4c-.34-1.02-.81-1.82-1.42-2.4-.61-.57-1.38-.96-2.31-1.16-.7-.16-2.06-.24-4.1-.24h-2.24Z"/>
    <path class="cls-16" d="M1300.1,284.99h4.99v13.39c0,2.13.06,3.5.19,4.13.21,1.01.72,1.82,1.53,2.44s1.9.92,3.3.92,2.49-.29,3.21-.87c.72-.58,1.15-1.29,1.3-2.13.15-.84.22-2.24.22-4.2v-13.68h4.99v12.99c0,2.97-.13,5.07-.4,6.29-.27,1.23-.77,2.26-1.49,3.1s-1.7,1.52-2.91,2.02c-1.21.5-2.8.75-4.76.75-2.36,0-4.15-.27-5.37-.82-1.22-.55-2.18-1.25-2.89-2.13-.71-.87-1.18-1.78-1.4-2.74-.33-1.42-.49-3.51-.49-6.27v-13.19Z"/>
    <path class="cls-16" d="M1325.21,309.72v-24.53h4.99v20.36h12.41v4.17h-17.41Z"/>
    <path class="cls-16" d="M1346.18,309.72v-24.73h18.33v4.18h-13.34v5.48h12.42v4.17h-12.42v6.73h13.82v4.17h-18.81Z"/>
    <path class="cls-16" d="M1369.24,309.72v-24.73h10.51c2.64,0,4.56.22,5.76.67,1.2.44,2.16,1.23,2.88,2.37.72,1.14,1.08,2.44,1.08,3.9,0,1.86-.55,3.39-1.64,4.6-1.09,1.21-2.72,1.97-4.89,2.29,1.08.63,1.97,1.32,2.67,2.07s1.65,2.09,2.84,4.01l3.02,4.82h-5.97l-3.61-5.38c-1.28-1.92-2.16-3.13-2.63-3.64-.47-.5-.97-.84-1.5-1.03-.53-.19-1.37-.28-2.51-.28h-1.01v10.32h-4.99ZM1374.23,295.45h3.69c2.4,0,3.89-.1,4.49-.3.6-.2,1.06-.55,1.4-1.05.34-.49.51-1.11.51-1.86,0-.83-.22-1.5-.67-2.02-.44-.51-1.07-.83-1.88-.97-.41-.06-1.62-.08-3.64-.08h-3.9v6.27Z"/>
    <path class="cls-16" d="M1211.78,351.18v-24.73h7.47l4.49,16.87,4.44-16.87h7.49v24.73h-4.64v-19.47l-4.91,19.47h-4.81l-4.89-19.47v19.47h-4.64Z"/>
    <path class="cls-16" d="M1239.61,338.97c0-2.52.38-4.63,1.13-6.34.56-1.26,1.33-2.39,2.3-3.39.97-1,2.04-1.74,3.2-2.23,1.54-.65,3.32-.98,5.33-.98,3.64,0,6.56,1.13,8.75,3.39,2.19,2.26,3.28,5.4,3.28,9.43s-1.08,7.12-3.25,9.37c-2.17,2.25-5.07,3.38-8.7,3.38s-6.6-1.12-8.77-3.37c-2.17-2.24-3.26-5.33-3.26-9.27ZM1244.75,338.8c0,2.8.65,4.92,1.94,6.37,1.29,1.45,2.93,2.17,4.93,2.17s3.62-.72,4.9-2.15,1.92-3.58,1.92-6.45-.62-4.95-1.86-6.34c-1.24-1.39-2.89-2.09-4.95-2.09s-3.72.71-4.98,2.12-1.89,3.54-1.89,6.38Z"/>
    <path class="cls-16" d="M1267.47,326.45h9.13c2.06,0,3.63.16,4.71.47,1.45.43,2.69,1.19,3.73,2.28,1.04,1.09,1.82,2.43,2.36,4.01.54,1.58.81,3.53.81,5.84,0,2.04-.25,3.79-.76,5.26-.62,1.8-1.5,3.26-2.65,4.37-.87.84-2.04,1.5-3.51,1.97-1.1.35-2.58.52-4.42.52h-9.4v-24.73ZM1272.47,330.63v16.38h3.73c1.39,0,2.4-.08,3.02-.24.81-.2,1.48-.55,2.02-1.03.53-.48.97-1.28,1.31-2.39.34-1.11.51-2.62.51-4.53s-.17-3.38-.51-4.4c-.34-1.02-.81-1.82-1.42-2.4-.61-.57-1.38-.96-2.31-1.16-.7-.16-2.06-.24-4.1-.24h-2.24Z"/>
    <path class="cls-16" d="M1292.41,326.45h4.99v13.39c0,2.13.06,3.5.19,4.13.21,1.01.72,1.82,1.53,2.44s1.9.92,3.3.92,2.49-.29,3.21-.87c.72-.58,1.15-1.29,1.3-2.13.15-.84.22-2.24.22-4.2v-13.68h4.99v12.99c0,2.97-.13,5.07-.4,6.29-.27,1.23-.77,2.26-1.49,3.1s-1.7,1.52-2.91,2.02c-1.21.5-2.8.75-4.76.75-2.36,0-4.15-.27-5.37-.82-1.22-.55-2.18-1.25-2.89-2.13-.71-.87-1.18-1.78-1.4-2.74-.33-1.42-.49-3.51-.49-6.27v-13.19Z"/>
    <path class="cls-16" d="M1317.52,351.18v-24.53h4.99v20.36h12.41v4.17h-17.41Z"/>
    <path class="cls-16" d="M1338.49,351.18v-24.73h18.33v4.18h-13.34v5.48h12.42v4.17h-12.42v6.73h13.82v4.17h-18.81Z"/>
  </g>
  <rect class="cls-19" x="47.88" y="516.6" width="133.99" height="133.99" rx="19.94" ry="19.94"/>
  <g>
    <path class="cls-18" d="M63.61,681.77v-18.4h13.3v2.17h-10.87v5.63h10.18v2.16h-10.18v6.26h11.29v2.17h-13.73Z"/>
    <path class="cls-18" d="M78.91,681.77l4.87-6.93-4.5-6.4h2.82l2.05,3.12c.38.59.69,1.09.93,1.49.37-.55.71-1.04,1.02-1.47l2.25-3.15h2.7l-4.61,6.27,4.96,7.05h-2.77l-2.74-4.14-.73-1.12-3.5,5.26h-2.74Z"/>
    <path class="cls-18" d="M93.27,665.98v-2.6h2.26v2.6h-2.26ZM93.27,681.77v-13.33h2.26v13.33h-2.26Z"/>
    <path class="cls-18" d="M98.07,677.8l2.23-.35c.12.9.47,1.58,1.05,2.06.57.48,1.37.72,2.4.72s1.81-.21,2.31-.63.75-.92.75-1.49c0-.51-.22-.91-.67-1.2-.31-.2-1.08-.46-2.31-.77-1.66-.42-2.8-.78-3.44-1.08-.64-.31-1.12-.73-1.46-1.27-.33-.54-.5-1.14-.5-1.79,0-.59.14-1.14.41-1.65.27-.51.64-.93,1.11-1.26.35-.26.83-.48,1.44-.66.61-.18,1.26-.27,1.95-.27,1.05,0,1.96.15,2.75.45.79.3,1.37.71,1.75,1.22.38.51.64,1.2.78,2.06l-2.21.3c-.1-.69-.39-1.22-.87-1.61-.48-.38-1.16-.58-2.04-.58-1.04,0-1.78.17-2.22.51-.44.34-.67.75-.67,1.21,0,.29.09.56.28.79.18.24.47.44.87.6.23.08.89.28,2,.58,1.6.43,2.71.78,3.34,1.05.63.27,1.13.67,1.49,1.19.36.52.54,1.16.54,1.93s-.22,1.46-.66,2.13c-.44.67-1.07,1.18-1.9,1.54-.83.36-1.76.55-2.81.55-1.73,0-3.05-.36-3.96-1.08-.91-.72-1.49-1.79-1.74-3.2Z"/>
    <path class="cls-18" d="M116.75,679.75l.33,2c-.64.13-1.2.2-1.71.2-.82,0-1.46-.13-1.91-.39-.45-.26-.77-.6-.95-1.02-.18-.42-.28-1.31-.28-2.67v-7.67h-1.66v-1.76h1.66v-3.3l2.25-1.36v4.66h2.27v1.76h-2.27v7.79c0,.64.04,1.06.12,1.24.08.18.21.33.39.44.18.11.44.16.77.16.25,0,.58-.03.99-.09Z"/>
    <path class="cls-18" d="M118.97,665.98v-2.6h2.26v2.6h-2.26ZM118.97,681.77v-13.33h2.26v13.33h-2.26Z"/>
    <path class="cls-18" d="M124.67,681.77v-13.33h2.03v1.9c.98-1.46,2.39-2.2,4.24-2.2.8,0,1.54.14,2.21.43.67.29,1.18.67,1.51,1.14.33.47.57,1.03.7,1.67.08.42.12,1.15.12,2.2v8.19h-2.26v-8.11c0-.92-.09-1.61-.26-2.06s-.49-.82-.94-1.09c-.45-.27-.97-.41-1.57-.41-.96,0-1.79.31-2.49.92-.7.61-1.05,1.77-1.05,3.48v7.28h-2.26Z"/>
    <path class="cls-18" d="M138.55,682.88l2.2.33c.09.68.35,1.17.77,1.48.56.42,1.33.63,2.3.63,1.05,0,1.85-.21,2.42-.63.57-.42.95-1,1.15-1.76.12-.46.17-1.43.16-2.9-.99,1.16-2.22,1.74-3.69,1.74-1.83,0-3.25-.66-4.25-1.98s-1.51-2.91-1.51-4.76c0-1.27.23-2.44.69-3.52s1.13-1.91,2-2.49c.87-.58,1.9-.88,3.08-.88,1.57,0,2.87.64,3.89,1.91v-1.61h2.08v11.52c0,2.07-.21,3.54-.63,4.41-.42.87-1.09,1.55-2.01,2.05s-2.04.75-3.38.75c-1.59,0-2.87-.36-3.85-1.07-.98-.71-1.45-1.79-1.42-3.23ZM140.42,674.87c0,1.75.35,3.02,1.04,3.83.69.8,1.56,1.21,2.61,1.21s1.91-.4,2.61-1.2c.7-.8,1.05-2.05,1.05-3.76s-.36-2.86-1.08-3.69c-.72-.83-1.6-1.24-2.62-1.24s-1.86.41-2.56,1.22c-.7.82-1.05,2.03-1.05,3.63Z"/>
    <path class="cls-18" d="M30,712.61v-18.4h6.94c1.22,0,2.15.06,2.8.18.9.15,1.66.44,2.27.86.61.42,1.1,1.01,1.47,1.78.37.76.56,1.6.56,2.51,0,1.56-.5,2.89-1.49,3.97s-2.79,1.62-5.4,1.62h-4.72v7.48h-2.43ZM32.44,702.96h4.76c1.57,0,2.69-.29,3.35-.88.66-.59.99-1.41.99-2.47,0-.77-.19-1.43-.58-1.98s-.9-.91-1.54-1.09c-.41-.11-1.17-.16-2.27-.16h-4.71v6.58Z"/>
    <path class="cls-18" d="M46.4,703.65c0-3.05.82-5.44,2.46-7.17s3.76-2.59,6.35-2.59c1.7,0,3.23.41,4.59,1.22,1.36.81,2.4,1.94,3.12,3.39.71,1.45,1.07,3.1,1.07,4.94s-.38,3.54-1.13,5.01c-.75,1.47-1.82,2.59-3.2,3.34-1.38.76-2.87,1.14-4.47,1.14-1.73,0-3.28-.42-4.64-1.25-1.36-.84-2.4-1.98-3.1-3.42-.7-1.45-1.05-2.98-1.05-4.59ZM48.91,703.69c0,2.22.6,3.96,1.79,5.24,1.19,1.28,2.69,1.91,4.49,1.91s3.34-.64,4.52-1.93,1.78-3.12,1.78-5.48c0-1.5-.25-2.8-.76-3.92-.51-1.12-1.25-1.98-2.22-2.6-.97-.62-2.07-.92-3.28-.92-1.72,0-3.21.59-4.45,1.78s-1.86,3.16-1.86,5.93Z"/>
    <path class="cls-18" d="M74.19,712.61v-18.4h3.66l4.35,13.03c.4,1.21.69,2.12.88,2.72.21-.67.54-1.65.98-2.95l4.4-12.8h3.28v18.4h-2.35v-15.4l-5.35,15.4h-2.2l-5.32-15.66v15.66h-2.35Z"/>
    <path class="cls-18" d="M104.51,708.32l2.33.29c-.37,1.36-1.05,2.42-2.05,3.17-1,.75-2.27,1.13-3.81,1.13-1.95,0-3.49-.6-4.64-1.8-1.14-1.2-1.71-2.88-1.71-5.05s.58-3.98,1.73-5.22c1.15-1.24,2.65-1.86,4.49-1.86s3.24.61,4.37,1.82c1.13,1.21,1.69,2.92,1.69,5.12,0,.13,0,.33-.01.6h-9.94c.08,1.46.5,2.58,1.24,3.36.74.78,1.67,1.17,2.79,1.17.83,0,1.54-.22,2.12-.65.58-.44,1.05-1.13,1.39-2.08ZM97.09,704.67h7.44c-.1-1.12-.39-1.96-.85-2.52-.72-.87-1.65-1.3-2.8-1.3-1.04,0-1.91.35-2.62,1.04s-1.1,1.62-1.17,2.79Z"/>
    <path class="cls-18" d="M109.65,712.61v-13.33h2.03v2.02c.52-.95,1-1.57,1.44-1.87.44-.3.92-.45,1.45-.45.76,0,1.54.24,2.32.73l-.78,2.1c-.55-.33-1.1-.49-1.66-.49-.49,0-.94.15-1.33.45s-.67.71-.84,1.24c-.25.8-.38,1.68-.38,2.63v6.98h-2.26Z"/>
    <path class="cls-18" d="M126.93,707.73l2.22.29c-.24,1.53-.86,2.73-1.86,3.6-1,.87-2.23,1.3-3.68,1.3-1.82,0-3.29-.6-4.4-1.79-1.11-1.19-1.66-2.9-1.66-5.12,0-1.44.24-2.7.71-3.78.48-1.08,1.2-1.89,2.18-2.43.97-.54,2.03-.81,3.18-.81,1.45,0,2.63.37,3.55,1.1.92.73,1.51,1.77,1.77,3.12l-2.2.34c-.21-.89-.58-1.57-1.11-2.02-.53-.45-1.17-.68-1.93-.68-1.14,0-2.06.41-2.77,1.22-.71.82-1.07,2.11-1.07,3.87s.34,3.09,1.03,3.9c.69.81,1.58,1.22,2.68,1.22.89,0,1.63-.27,2.22-.82.59-.54.97-1.38,1.13-2.51Z"/>
    <path class="cls-18" d="M131.09,712.61v-18.4h2.26v6.6c1.05-1.22,2.38-1.83,3.99-1.83.99,0,1.84.19,2.57.58.73.39,1.25.93,1.56,1.61.31.69.47,1.68.47,2.99v8.44h-2.26v-8.44c0-1.13-.24-1.95-.73-2.47-.49-.51-1.18-.77-2.08-.77-.67,0-1.3.17-1.89.52-.59.35-1.01.82-1.26,1.41-.25.59-.38,1.41-.38,2.46v7.29h-2.26Z"/>
    <path class="cls-18" d="M154.07,710.97c-.84.71-1.64,1.21-2.42,1.51-.77.29-1.6.44-2.49.44-1.46,0-2.59-.36-3.38-1.07-.79-.72-1.18-1.63-1.18-2.74,0-.65.15-1.25.45-1.79.3-.54.69-.97,1.17-1.3.48-.33,1.02-.57,1.62-.74.44-.12,1.11-.23,2.01-.34,1.82-.22,3.17-.48,4.03-.78,0-.31.01-.51.01-.59,0-.92-.21-1.57-.64-1.95-.58-.51-1.43-.76-2.57-.76-1.06,0-1.85.19-2.35.56-.51.37-.88,1.03-1.12,1.98l-2.21-.3c.2-.95.53-1.71.99-2.29.46-.58,1.12-1.03,2-1.34s1.88-.47,3.02-.47,2.06.13,2.77.4,1.23.6,1.57,1.01c.33.41.57.92.7,1.54.08.38.11,1.08.11,2.08v3.01c0,2.1.05,3.43.14,3.98.1.56.29,1.09.57,1.6h-2.36c-.23-.47-.39-1.02-.45-1.64ZM153.89,705.92c-.82.33-2.05.62-3.69.85-.93.13-1.59.29-1.97.45s-.68.41-.89.73c-.21.32-.31.68-.31,1.07,0,.6.23,1.1.68,1.51s1.12.6,2,.6,1.64-.19,2.32-.57c.68-.38,1.17-.9,1.49-1.56.24-.51.36-1.26.36-2.26v-.83Z"/>
    <path class="cls-18" d="M159.67,712.61v-13.33h2.03v1.9c.98-1.46,2.39-2.2,4.24-2.2.8,0,1.54.14,2.21.43.67.29,1.18.67,1.51,1.14.33.47.57,1.03.7,1.67.08.42.12,1.15.12,2.2v8.19h-2.26v-8.11c0-.92-.09-1.61-.26-2.06s-.49-.82-.94-1.09c-.45-.27-.97-.41-1.57-.41-.96,0-1.79.31-2.49.92-.7.61-1.05,1.77-1.05,3.48v7.28h-2.26Z"/>
    <path class="cls-18" d="M178.89,710.59l.33,2c-.64.13-1.2.2-1.71.2-.82,0-1.46-.13-1.91-.39-.45-.26-.77-.6-.95-1.02-.18-.42-.28-1.31-.28-2.67v-7.67h-1.66v-1.76h1.66v-3.3l2.25-1.36v4.66h2.27v1.76h-2.27v7.79c0,.64.04,1.06.12,1.24.08.18.21.33.39.44.18.11.44.16.77.16.25,0,.58-.03.99-.09Z"/>
    <path class="cls-18" d="M180.2,708.63l2.23-.35c.12.9.47,1.58,1.05,2.06.57.48,1.37.72,2.4.72s1.81-.21,2.31-.63.75-.92.75-1.49c0-.51-.22-.91-.67-1.2-.31-.2-1.08-.46-2.31-.77-1.66-.42-2.8-.78-3.44-1.08-.64-.31-1.12-.73-1.46-1.27-.33-.54-.5-1.14-.5-1.79,0-.59.14-1.14.41-1.65.27-.51.64-.93,1.11-1.26.35-.26.83-.48,1.44-.66.61-.18,1.26-.27,1.95-.27,1.05,0,1.96.15,2.75.45.79.3,1.37.71,1.75,1.22.38.51.64,1.2.78,2.06l-2.21.3c-.1-.69-.39-1.22-.87-1.61-.48-.38-1.16-.58-2.04-.58-1.04,0-1.78.17-2.22.51-.44.34-.67.75-.67,1.21,0,.29.09.56.28.79.18.24.47.44.87.6.23.08.89.28,2,.58,1.6.43,2.71.78,3.34,1.05.63.27,1.13.67,1.49,1.19.36.52.54,1.16.54,1.93s-.22,1.46-.66,2.13c-.44.67-1.07,1.18-1.9,1.54-.83.36-1.76.55-2.81.55-1.73,0-3.05-.36-3.96-1.08-.91-.72-1.49-1.79-1.74-3.2Z"/>
  </g>
  <g>
    <path class="cls-6" d="M154.06,571.13c0,3.92-3.5,7.11-7.82,7.11s-7.82-3.18-7.82-7.11c0,3.92-3.5,7.11-7.82,7.11s-7.82-3.18-7.82-7.11c0,3.92-3.5,7.11-7.82,7.11s-7.82-3.18-7.82-7.11c0,3.92-3.5,7.11-7.82,7.11s-7.82-3.18-7.82-7.11c0,3.92-3.5,7.11-7.82,7.11s-7.82-3.18-7.82-7.11"/>
    <path class="cls-1" d="M75.9,571.13l8.15-25.85c.44-1.53,1.83-2.58,3.42-2.58h55.04c1.59,0,2.98,1.05,3.42,2.58l8.15,25.85"/>
    <path class="cls-6" d="M148.73,578.24v42.63c0,1.96-1.59,3.55-3.55,3.55h-60.4c-1.96,0-3.55-1.59-3.55-3.55v-42.63"/>
    <line class="cls-1" x1="106.1" y1="574.68" x2="106.1" y2="624.42"/>
    <line class="cls-1" x1="98.99" y1="596" x2="98.99" y2="599.55"/>
    <line class="cls-1" x1="127.41" y1="588.9" x2="116.76" y2="599.55"/>
    <line class="cls-1" x1="134.52" y1="596" x2="120.31" y2="610.21"/>
    <line class="cls-1" x1="138.43" y1="571.13" x2="134.15" y2="542.71"/>
    <line class="cls-1" x1="122.8" y1="571.13" x2="120.16" y2="542.71"/>
    <line class="cls-1" x1="107.16" y1="571.13" x2="109.58" y2="542.71"/>
    <line class="cls-1" x1="91.53" y1="571.13" x2="96.1" y2="542.71"/>
  </g>
  <rect class="cls-20" x="361.83" y="21" width="328.17" height="231" rx="19.94" ry="19.94"/>
  <g>
    <path class="cls-16" d="M390.17,115.06c0,.9-.32,1.67-.95,2.31-.64.64-1.4.95-2.3.95s-1.67-.32-2.31-.96c-.64-.64-.95-1.41-.95-2.3s.32-1.66.95-2.3c.63-.64,1.4-.95,2.31-.95s1.66.32,2.3.95c.63.63.95,1.4.95,2.3Z"/>
    <path class="cls-16" d="M402.58,106.89h6.45c1.28,0,2.23.05,2.86.16.63.11,1.19.33,1.68.67.5.34.91.79,1.24,1.35s.5,1.19.5,1.89c0,.76-.2,1.45-.61,2.08-.41.63-.96,1.1-1.66,1.42.98.29,1.74.77,2.27,1.46.53.69.79,1.5.79,2.43,0,.73-.17,1.45-.51,2.14s-.81,1.25-1.4,1.66c-.59.42-1.32.67-2.19.77-.54.06-1.85.1-3.93.11h-5.5v-16.15ZM405.84,109.58v3.73h2.14c1.27,0,2.06-.02,2.37-.06.56-.07,1-.26,1.32-.58s.48-.74.48-1.26-.14-.9-.41-1.22c-.28-.31-.69-.5-1.23-.57-.32-.04-1.25-.06-2.79-.06h-1.87ZM405.84,116v4.32h3.02c1.17,0,1.92-.03,2.24-.1.48-.09.88-.3,1.18-.64.3-.34.46-.8.46-1.37,0-.48-.12-.9-.35-1.23-.24-.34-.58-.58-1.02-.74s-1.41-.23-2.89-.23h-2.63Z"/>
    <path class="cls-16" d="M426.54,123.03v-1.75c-.43.62-.99,1.12-1.68,1.48-.69.36-1.43.54-2.2.54s-1.49-.17-2.11-.52c-.62-.34-1.08-.83-1.35-1.45-.28-.62-.42-1.49-.42-2.59v-7.4h3.09v5.37c0,1.65.06,2.65.17,3.02.11.37.32.66.62.88.3.22.68.33,1.15.33.53,0,1-.15,1.42-.44.42-.29.7-.65.86-1.08.15-.43.23-1.48.23-3.16v-4.93h3.09v11.7h-2.87Z"/>
    <path class="cls-16" d="M431.52,119.7l3.11-.47c.13.6.4,1.06.8,1.37.4.31.97.47,1.7.47.8,0,1.4-.15,1.81-.44.27-.21.41-.48.41-.83,0-.23-.07-.43-.22-.58-.15-.15-.5-.28-1.04-.41-2.5-.55-4.08-1.05-4.75-1.51-.92-.63-1.39-1.51-1.39-2.63,0-1.01.4-1.86,1.2-2.56.8-.69,2.04-1.04,3.72-1.04s2.79.26,3.57.78,1.31,1.29,1.61,2.31l-2.92.54c-.12-.46-.36-.8-.71-1.05-.35-.24-.85-.36-1.49-.36-.82,0-1.4.11-1.75.34-.23.16-.35.37-.35.63,0,.22.1.41.31.56.28.21,1.24.5,2.89.87,1.65.37,2.8.83,3.45,1.38.65.55.97,1.32.97,2.3,0,1.07-.45,1.99-1.34,2.76-.9.77-2.22,1.16-3.98,1.16-1.59,0-2.85-.32-3.78-.97-.93-.65-1.54-1.52-1.82-2.63Z"/>
    <path class="cls-16" d="M445.16,109.75v-2.86h3.09v2.86h-3.09ZM445.16,123.03v-11.7h3.09v11.7h-3.09Z"/>
    <path class="cls-16" d="M462.06,123.03h-3.09v-5.97c0-1.26-.07-2.08-.2-2.45s-.35-.66-.64-.86c-.3-.21-.66-.31-1.07-.31-.54,0-1.02.15-1.44.44s-.72.68-.88,1.17c-.16.48-.24,1.38-.24,2.69v5.3h-3.09v-11.7h2.88v1.72c1.02-1.32,2.3-1.98,3.85-1.98.68,0,1.31.12,1.87.37s.99.56,1.28.94c.29.38.49.81.61,1.3.11.48.17,1.18.17,2.08v7.27Z"/>
    <path class="cls-16" d="M471.98,119.31l3.08.52c-.4,1.13-1.02,1.99-1.88,2.58-.86.59-1.92.89-3.21.89-2.03,0-3.54-.66-4.52-1.99-.77-1.06-1.16-2.41-1.16-4.03,0-1.94.51-3.46,1.52-4.55,1.01-1.1,2.29-1.65,3.84-1.65,1.74,0,3.11.57,4.12,1.72,1.01,1.15,1.49,2.91,1.44,5.28h-7.75c.02.92.27,1.63.75,2.14.48.51,1.07.77,1.78.77.48,0,.89-.13,1.22-.4.33-.26.58-.69.75-1.28ZM472.15,116.18c-.02-.9-.25-1.58-.69-2.04s-.98-.7-1.61-.7c-.68,0-1.23.25-1.67.74s-.66,1.16-.65,2h4.63Z"/>
    <path class="cls-16" d="M476.66,119.7l3.11-.47c.13.6.4,1.06.8,1.37.4.31.97.47,1.7.47.8,0,1.4-.15,1.81-.44.27-.21.41-.48.41-.83,0-.23-.07-.43-.22-.58-.15-.15-.5-.28-1.04-.41-2.5-.55-4.08-1.05-4.75-1.51-.92-.63-1.39-1.51-1.39-2.63,0-1.01.4-1.86,1.2-2.56.8-.69,2.04-1.04,3.72-1.04s2.79.26,3.57.78,1.31,1.29,1.61,2.31l-2.92.54c-.12-.46-.36-.8-.71-1.05-.35-.24-.85-.36-1.49-.36-.82,0-1.4.11-1.75.34-.23.16-.35.37-.35.63,0,.22.1.41.31.56.28.21,1.24.5,2.89.87,1.65.37,2.8.83,3.45,1.38.65.55.97,1.32.97,2.3,0,1.07-.45,1.99-1.34,2.76-.9.77-2.22,1.16-3.98,1.16-1.59,0-2.85-.32-3.78-.97-.93-.65-1.54-1.52-1.82-2.63Z"/>
    <path class="cls-16" d="M489.2,119.7l3.11-.47c.13.6.4,1.06.8,1.37.4.31.97.47,1.7.47.8,0,1.4-.15,1.81-.44.27-.21.41-.48.41-.83,0-.23-.07-.43-.22-.58-.15-.15-.5-.28-1.04-.41-2.5-.55-4.08-1.05-4.75-1.51-.92-.63-1.39-1.51-1.39-2.63,0-1.01.4-1.86,1.2-2.56.8-.69,2.04-1.04,3.72-1.04s2.79.26,3.57.78,1.31,1.29,1.61,2.31l-2.92.54c-.12-.46-.36-.8-.71-1.05-.35-.24-.85-.36-1.49-.36-.82,0-1.4.11-1.75.34-.23.16-.35.37-.35.63,0,.22.1.41.31.56.28.21,1.24.5,2.89.87,1.65.37,2.8.83,3.45,1.38.65.55.97,1.32.97,2.3,0,1.07-.45,1.99-1.34,2.76-.9.77-2.22,1.16-3.98,1.16-1.59,0-2.85-.32-3.78-.97-.93-.65-1.54-1.52-1.82-2.63Z"/>
    <path class="cls-16" d="M512.76,123.03v-13.41h-4.79v-2.73h12.83v2.73h-4.78v13.41h-3.26Z"/>
    <path class="cls-16" d="M522.47,109.75v-2.86h3.09v2.86h-3.09ZM522.47,123.03v-11.7h3.09v11.7h-3.09Z"/>
    <path class="cls-16" d="M528.51,111.34h2.85v1.6c1.02-1.24,2.24-1.86,3.65-1.86.75,0,1.4.15,1.95.46.55.31,1,.77,1.35,1.4.51-.62,1.07-1.09,1.66-1.4.59-.31,1.23-.46,1.91-.46.86,0,1.59.17,2.18.52s1.04.86,1.33,1.54c.21.5.32,1.31.32,2.42v7.48h-3.09v-6.69c0-1.16-.11-1.91-.32-2.25-.29-.44-.73-.66-1.32-.66-.43,0-.84.13-1.22.4-.38.26-.66.65-.83,1.16s-.25,1.32-.25,2.42v5.62h-3.09v-6.41c0-1.14-.05-1.87-.17-2.2s-.28-.58-.51-.74c-.23-.16-.55-.24-.94-.24-.48,0-.91.13-1.29.39-.38.26-.66.63-.82,1.11-.17.48-.25,1.29-.25,2.41v5.68h-3.09v-11.7Z"/>
    <path class="cls-16" d="M548.79,109.75v-2.86h3.09v2.86h-3.09ZM548.79,123.03v-11.7h3.09v11.7h-3.09Z"/>
    <path class="cls-16" d="M565.7,123.03h-3.09v-5.97c0-1.26-.07-2.08-.2-2.45s-.35-.66-.64-.86c-.3-.21-.66-.31-1.07-.31-.54,0-1.02.15-1.44.44s-.72.68-.88,1.17c-.16.48-.24,1.38-.24,2.69v5.3h-3.09v-11.7h2.88v1.72c1.02-1.32,2.3-1.98,3.85-1.98.68,0,1.31.12,1.87.37s.99.56,1.28.94c.29.38.49.81.61,1.3.11.48.17,1.18.17,2.08v7.27Z"/>
    <path class="cls-16" d="M568.55,123.8l3.54.43c.06.41.19.69.41.85.29.22.76.33,1.39.33.81,0,1.41-.12,1.82-.36.27-.16.48-.42.62-.78.1-.26.14-.73.14-1.42v-1.71c-.93,1.26-2.09,1.89-3.5,1.89-1.57,0-2.82-.66-3.73-1.99-.72-1.05-1.08-2.36-1.08-3.92,0-1.96.47-3.46,1.42-4.49.94-1.04,2.12-1.55,3.52-1.55s2.64.64,3.58,1.91v-1.64h2.9v10.5c0,1.38-.11,2.41-.34,3.09-.23.68-.55,1.22-.96,1.61s-.96.69-1.65.91c-.69.22-1.55.33-2.6.33-1.98,0-3.39-.34-4.22-1.02-.83-.68-1.25-1.54-1.25-2.58,0-.1,0-.23.01-.37ZM571.31,116.94c0,1.24.24,2.15.72,2.73.48.58,1.07.86,1.78.86.76,0,1.4-.3,1.92-.89.52-.59.78-1.47.78-2.63s-.25-2.11-.75-2.7c-.5-.59-1.13-.88-1.89-.88s-1.35.29-1.83.86c-.48.58-.72,1.46-.72,2.64Z"/>
    <path class="cls-16" d="M581.52,119.7l3.11-.47c.13.6.4,1.06.8,1.37.4.31.97.47,1.7.47.8,0,1.4-.15,1.81-.44.27-.21.41-.48.41-.83,0-.23-.07-.43-.22-.58-.15-.15-.5-.28-1.04-.41-2.5-.55-4.08-1.05-4.75-1.51-.92-.63-1.39-1.51-1.39-2.63,0-1.01.4-1.86,1.2-2.56.8-.69,2.04-1.04,3.72-1.04s2.79.26,3.57.78,1.31,1.29,1.61,2.31l-2.92.54c-.12-.46-.36-.8-.71-1.05-.35-.24-.85-.36-1.49-.36-.82,0-1.4.11-1.75.34-.23.16-.35.37-.35.63,0,.22.1.41.31.56.28.21,1.24.5,2.89.87,1.65.37,2.8.83,3.45,1.38.65.55.97,1.32.97,2.3,0,1.07-.45,1.99-1.34,2.76-.9.77-2.22,1.16-3.98,1.16-1.59,0-2.85-.32-3.78-.97-.93-.65-1.54-1.52-1.82-2.63Z"/>
    <path class="cls-16" d="M390.17,148.89c0,.9-.32,1.67-.95,2.31-.64.64-1.4.95-2.3.95s-1.67-.32-2.31-.96c-.64-.64-.95-1.41-.95-2.3s.32-1.66.95-2.3c.63-.64,1.4-.95,2.31-.95s1.66.32,2.3.95c.63.63.95,1.4.95,2.3Z"/>
    <path class="cls-16" d="M401.75,151.61l3.17-.31c.19,1.06.58,1.85,1.16,2.35.58.5,1.37.75,2.36.75,1.05,0,1.84-.22,2.37-.67.53-.44.8-.96.8-1.56,0-.38-.11-.71-.34-.98-.22-.27-.62-.5-1.17-.7-.38-.13-1.25-.37-2.61-.7-1.75-.43-2.97-.97-3.68-1.6-.99-.89-1.49-1.97-1.49-3.25,0-.82.23-1.59.7-2.31.47-.72,1.14-1.26,2.02-1.64s1.94-.56,3.18-.56c2.03,0,3.55.44,4.58,1.33,1.02.89,1.56,2.07,1.61,3.56l-3.26.14c-.14-.83-.44-1.43-.9-1.79s-1.15-.54-2.06-.54-1.69.19-2.22.58c-.35.25-.52.58-.52,1,0,.38.16.71.48.98.41.35,1.41.7,3,1.08s2.76.76,3.52,1.16c.76.4,1.35.95,1.78,1.64.43.69.64,1.55.64,2.57,0,.93-.26,1.79-.77,2.6s-1.24,1.41-2.18,1.8c-.94.39-2.11.59-3.51.59-2.04,0-3.61-.47-4.7-1.42s-1.75-2.32-1.96-4.12Z"/>
    <path class="cls-16" d="M424.37,153.14l3.08.52c-.4,1.13-1.02,1.99-1.88,2.58-.86.59-1.92.89-3.21.89-2.03,0-3.54-.66-4.52-1.99-.77-1.06-1.16-2.41-1.16-4.03,0-1.94.51-3.46,1.52-4.55,1.01-1.1,2.29-1.65,3.84-1.65,1.74,0,3.11.57,4.12,1.72,1.01,1.15,1.49,2.91,1.44,5.28h-7.75c.02.92.27,1.63.75,2.14.48.51,1.07.77,1.78.77.48,0,.89-.13,1.22-.4.33-.26.58-.69.75-1.28ZM424.54,150.02c-.02-.9-.25-1.58-.69-2.04s-.98-.7-1.61-.7c-.68,0-1.23.25-1.67.74s-.66,1.16-.65,2h4.63Z"/>
    <path class="cls-16" d="M433.1,156.87h-3.09v-11.7h2.88v1.66c.49-.79.93-1.3,1.33-1.55.39-.25.84-.37,1.34-.37.71,0,1.38.19,2.04.58l-.96,2.7c-.52-.34-1.01-.51-1.45-.51s-.8.12-1.1.36c-.3.24-.54.67-.71,1.29-.17.62-.26,1.93-.26,3.92v3.61Z"/>
    <path class="cls-16" d="M442.13,156.87l-4.71-11.7h3.25l2.2,5.97.64,1.99c.17-.51.28-.84.32-1,.1-.33.21-.66.33-.99l2.22-5.97h3.18l-4.65,11.7h-2.79Z"/>
    <path class="cls-16" d="M451.46,143.58v-2.86h3.09v2.86h-3.09ZM451.46,156.87v-11.7h3.09v11.7h-3.09Z"/>
    <path class="cls-16" d="M467.92,148.63l-3.05.55c-.1-.61-.34-1.07-.7-1.38-.36-.31-.84-.46-1.42-.46-.77,0-1.39.27-1.84.8-.46.53-.69,1.42-.69,2.67,0,1.39.23,2.37.7,2.94.47.57,1.09.86,1.88.86.59,0,1.07-.17,1.44-.5s.64-.91.79-1.72l3.04.52c-.32,1.4-.92,2.45-1.82,3.16-.9.71-2.1,1.07-3.6,1.07-1.71,0-3.07-.54-4.09-1.62-1.02-1.08-1.53-2.57-1.53-4.48s.51-3.43,1.53-4.51,2.4-1.61,4.14-1.61c1.42,0,2.56.31,3.4.92.84.61,1.44,1.55,1.81,2.8Z"/>
    <path class="cls-16" d="M477.04,153.14l3.08.52c-.4,1.13-1.02,1.99-1.88,2.58-.86.59-1.92.89-3.21.89-2.03,0-3.54-.66-4.52-1.99-.77-1.06-1.16-2.41-1.16-4.03,0-1.94.51-3.46,1.52-4.55,1.01-1.1,2.29-1.65,3.84-1.65,1.74,0,3.11.57,4.12,1.72,1.01,1.15,1.49,2.91,1.44,5.28h-7.75c.02.92.27,1.63.75,2.14.48.51,1.07.77,1.78.77.48,0,.89-.13,1.22-.4.33-.26.58-.69.75-1.28ZM477.22,150.02c-.02-.9-.25-1.58-.69-2.04s-.98-.7-1.61-.7c-.68,0-1.23.25-1.67.74s-.66,1.16-.65,2h4.63Z"/>
    <path class="cls-16" d="M499.43,150.93l3.16,1c-.48,1.76-1.29,3.07-2.42,3.93-1.13.86-2.56,1.28-4.29,1.28-2.14,0-3.91-.73-5.29-2.2s-2.07-3.47-2.07-6.01c0-2.69.69-4.77,2.08-6.26s3.21-2.23,5.47-2.23c1.98,0,3.58.58,4.81,1.75.73.69,1.28,1.68,1.65,2.97l-3.23.77c-.19-.84-.59-1.5-1.2-1.98-.61-.48-1.34-.73-2.21-.73-1.2,0-2.17.43-2.91,1.29s-1.12,2.25-1.12,4.17c0,2.04.37,3.5,1.1,4.36s1.69,1.3,2.86,1.3c.87,0,1.61-.27,2.24-.83s1.07-1.42,1.34-2.6Z"/>
    <path class="cls-16" d="M507.68,148.74l-2.81-.51c.32-1.13.86-1.97,1.63-2.51.77-.54,1.92-.81,3.44-.81,1.38,0,2.41.16,3.08.49.67.33,1.15.74,1.43,1.24s.41,1.43.41,2.77l-.03,3.61c0,1.03.05,1.79.15,2.27.1.49.29,1.01.56,1.57h-3.06c-.08-.21-.18-.51-.3-.91-.05-.18-.09-.3-.11-.36-.53.51-1.09.9-1.7,1.16-.6.26-1.25.39-1.93.39-1.2,0-2.15-.33-2.85-.98-.69-.65-1.04-1.48-1.04-2.48,0-.66.16-1.25.47-1.77s.76-.91,1.33-1.19,1.39-.52,2.46-.72c1.45-.27,2.45-.52,3.01-.76v-.31c0-.59-.15-1.02-.44-1.27s-.85-.38-1.66-.38c-.55,0-.98.11-1.29.32-.31.22-.56.6-.75,1.14ZM511.82,151.25c-.4.13-1.02.29-1.88.47s-1.42.36-1.69.54c-.4.29-.61.65-.61,1.09s.16.81.48,1.12c.32.32.73.47,1.23.47.56,0,1.09-.18,1.6-.55.37-.28.62-.62.74-1.02.08-.26.12-.77.12-1.51v-.62Z"/>
    <path class="cls-16" d="M523.28,145.17v2.47h-2.11v4.71c0,.95.02,1.51.06,1.67.04.16.13.29.28.39.14.1.32.15.52.15.29,0,.7-.1,1.25-.3l.26,2.4c-.72.31-1.53.46-2.44.46-.56,0-1.06-.09-1.51-.28-.45-.19-.78-.43-.99-.73-.21-.3-.35-.7-.43-1.21-.07-.36-.1-1.09-.1-2.18v-5.1h-1.42v-2.47h1.42v-2.32l3.11-1.81v4.13h2.11Z"/>
    <path class="cls-16" d="M527.74,148.74l-2.81-.51c.32-1.13.86-1.97,1.63-2.51.77-.54,1.92-.81,3.44-.81,1.38,0,2.41.16,3.08.49.67.33,1.15.74,1.43,1.24s.41,1.43.41,2.77l-.03,3.61c0,1.03.05,1.79.15,2.27.1.49.29,1.01.56,1.57h-3.06c-.08-.21-.18-.51-.3-.91-.05-.18-.09-.3-.11-.36-.53.51-1.09.9-1.7,1.16-.6.26-1.25.39-1.93.39-1.2,0-2.15-.33-2.85-.98-.69-.65-1.04-1.48-1.04-2.48,0-.66.16-1.25.47-1.77s.76-.91,1.33-1.19,1.39-.52,2.46-.72c1.45-.27,2.45-.52,3.01-.76v-.31c0-.59-.15-1.02-.44-1.27s-.85-.38-1.66-.38c-.55,0-.98.11-1.29.32-.31.22-.56.6-.75,1.14ZM531.88,151.25c-.4.13-1.02.29-1.88.47s-1.42.36-1.69.54c-.4.29-.61.65-.61,1.09s.16.81.48,1.12c.32.32.73.47,1.23.47.56,0,1.09-.18,1.6-.55.37-.28.62-.62.74-1.02.08-.26.12-.77.12-1.51v-.62Z"/>
    <path class="cls-16" d="M537.97,156.87v-16.15h3.09v16.15h-3.09Z"/>
    <path class="cls-16" d="M543.52,150.85c0-1.03.25-2.02.76-2.98s1.22-1.7,2.15-2.2c.93-.51,1.97-.76,3.11-.76,1.77,0,3.22.57,4.35,1.72,1.13,1.15,1.7,2.6,1.7,4.36s-.57,3.24-1.71,4.4c-1.14,1.16-2.58,1.75-4.31,1.75-1.07,0-2.09-.24-3.07-.73-.97-.48-1.71-1.2-2.22-2.13s-.76-2.08-.76-3.42ZM546.69,151.02c0,1.16.28,2.05.83,2.67.55.62,1.23.92,2.04.92s1.48-.31,2.03-.92c.55-.62.82-1.51.82-2.69s-.27-2.03-.82-2.64c-.55-.62-1.22-.93-2.03-.93s-1.49.31-2.04.93c-.55.62-.83,1.51-.83,2.67Z"/>
    <path class="cls-16" d="M557.73,157.64l3.54.43c.06.41.19.69.41.85.29.22.76.33,1.39.33.81,0,1.41-.12,1.82-.36.27-.16.48-.42.62-.78.1-.26.14-.73.14-1.42v-1.71c-.93,1.26-2.09,1.89-3.5,1.89-1.57,0-2.82-.66-3.73-1.99-.72-1.05-1.08-2.36-1.08-3.92,0-1.96.47-3.46,1.42-4.49.94-1.04,2.12-1.55,3.52-1.55s2.64.64,3.58,1.91v-1.64h2.9v10.5c0,1.38-.11,2.41-.34,3.09-.23.68-.55,1.22-.96,1.61s-.96.69-1.65.91c-.69.22-1.55.33-2.6.33-1.98,0-3.39-.34-4.22-1.02-.83-.68-1.25-1.54-1.25-2.58,0-.1,0-.23.01-.37ZM560.49,150.78c0,1.24.24,2.15.72,2.73.48.58,1.07.86,1.78.86.76,0,1.4-.3,1.92-.89.52-.59.78-1.47.78-2.63s-.25-2.11-.75-2.7c-.5-.59-1.13-.88-1.89-.88s-1.35.29-1.83.86c-.48.58-.72,1.46-.72,2.64Z"/>
    <path class="cls-16" d="M579.49,156.87v-1.75c-.43.62-.99,1.12-1.68,1.48-.69.36-1.43.54-2.2.54s-1.49-.17-2.11-.52c-.62-.34-1.08-.83-1.35-1.45-.28-.62-.42-1.49-.42-2.59v-7.4h3.09v5.37c0,1.65.06,2.65.17,3.02.11.37.32.66.62.88.3.22.68.33,1.15.33.53,0,1-.15,1.42-.44.42-.29.7-.65.86-1.08.15-.43.23-1.48.23-3.16v-4.93h3.09v11.7h-2.87Z"/>
    <path class="cls-16" d="M592.34,153.14l3.08.52c-.4,1.13-1.02,1.99-1.88,2.58-.86.59-1.92.89-3.21.89-2.03,0-3.54-.66-4.52-1.99-.77-1.06-1.16-2.41-1.16-4.03,0-1.94.51-3.46,1.52-4.55,1.01-1.1,2.29-1.65,3.84-1.65,1.74,0,3.11.57,4.12,1.72,1.01,1.15,1.49,2.91,1.44,5.28h-7.75c.02.92.27,1.63.75,2.14.48.51,1.07.77,1.78.77.48,0,.89-.13,1.22-.4.33-.26.58-.69.75-1.28ZM592.52,150.02c-.02-.9-.25-1.58-.69-2.04s-.98-.7-1.61-.7c-.68,0-1.23.25-1.67.74s-.66,1.16-.65,2h4.63Z"/>
    <path class="cls-16" d="M390.17,182.73c0,.9-.32,1.67-.95,2.31-.64.64-1.4.95-2.3.95s-1.67-.32-2.31-.96c-.64-.64-.95-1.41-.95-2.3s.32-1.66.95-2.3c.63-.64,1.4-.95,2.31-.95s1.66.32,2.3.95c.63.63.95,1.4.95,2.3Z"/>
    <path class="cls-16" d="M406.21,190.7v-13.41h-4.79v-2.73h12.83v2.73h-4.78v13.41h-3.26Z"/>
    <path class="cls-16" d="M421.43,186.98l3.08.52c-.4,1.13-1.02,1.99-1.88,2.58-.86.59-1.92.89-3.21.89-2.03,0-3.54-.66-4.52-1.99-.77-1.06-1.16-2.41-1.16-4.03,0-1.94.51-3.46,1.52-4.55,1.01-1.1,2.29-1.65,3.84-1.65,1.74,0,3.11.57,4.12,1.72,1.01,1.15,1.49,2.91,1.44,5.28h-7.75c.02.92.27,1.63.75,2.14.48.51,1.07.77,1.78.77.48,0,.89-.13,1.22-.4.33-.26.58-.69.75-1.28ZM421.6,183.85c-.02-.9-.25-1.58-.69-2.04s-.98-.7-1.61-.7c-.68,0-1.23.25-1.67.74s-.66,1.16-.65,2h4.63Z"/>
    <path class="cls-16" d="M429.51,182.57l-2.81-.51c.32-1.13.86-1.97,1.63-2.51.77-.54,1.92-.81,3.44-.81,1.38,0,2.41.16,3.08.49.67.33,1.15.74,1.43,1.24s.41,1.43.41,2.77l-.03,3.61c0,1.03.05,1.79.15,2.27.1.49.29,1.01.56,1.57h-3.06c-.08-.21-.18-.51-.3-.91-.05-.18-.09-.3-.11-.36-.53.51-1.09.9-1.7,1.16-.6.26-1.25.39-1.93.39-1.2,0-2.15-.33-2.85-.98-.69-.65-1.04-1.48-1.04-2.48,0-.66.16-1.25.47-1.77s.76-.91,1.33-1.19,1.39-.52,2.46-.72c1.45-.27,2.45-.52,3.01-.76v-.31c0-.59-.15-1.02-.44-1.27s-.85-.38-1.66-.38c-.55,0-.98.11-1.29.32-.31.22-.56.6-.75,1.14ZM433.65,185.08c-.4.13-1.02.29-1.88.47s-1.42.36-1.69.54c-.4.29-.61.65-.61,1.09s.16.81.48,1.12c.32.32.73.47,1.23.47.56,0,1.09-.18,1.6-.55.37-.28.62-.62.74-1.02.08-.26.12-.77.12-1.51v-.62Z"/>
    <path class="cls-16" d="M439.51,179h2.85v1.6c1.02-1.24,2.24-1.86,3.65-1.86.75,0,1.4.15,1.95.46.55.31,1,.77,1.35,1.4.51-.62,1.07-1.09,1.66-1.4.59-.31,1.23-.46,1.91-.46.86,0,1.59.17,2.18.52s1.04.86,1.33,1.54c.21.5.32,1.31.32,2.42v7.48h-3.09v-6.69c0-1.16-.11-1.91-.32-2.25-.29-.44-.73-.66-1.32-.66-.43,0-.84.13-1.22.4-.38.26-.66.65-.83,1.16s-.25,1.32-.25,2.42v5.62h-3.09v-6.41c0-1.14-.05-1.87-.17-2.2s-.28-.58-.51-.74c-.23-.16-.55-.24-.94-.24-.48,0-.91.13-1.29.39-.38.26-.66.63-.82,1.11-.17.48-.25,1.29-.25,2.41v5.68h-3.09v-11.7Z"/>
    <path class="cls-16" d="M465.42,182.73c0-1.64.25-3.02.74-4.14.37-.82.87-1.56,1.5-2.21.63-.65,1.33-1.14,2.09-1.45,1.01-.43,2.17-.64,3.48-.64,2.38,0,4.28.74,5.71,2.21,1.43,1.48,2.14,3.53,2.14,6.16s-.71,4.65-2.12,6.12-3.31,2.21-5.68,2.21-4.31-.73-5.73-2.2-2.12-3.48-2.12-6.05ZM468.78,182.62c0,1.83.42,3.21,1.27,4.16.84.94,1.92,1.42,3.22,1.42s2.37-.47,3.2-1.4c.83-.94,1.25-2.34,1.25-4.21s-.41-3.23-1.22-4.14c-.81-.91-1.89-1.37-3.23-1.37s-2.43.46-3.25,1.38-1.23,2.31-1.23,4.17Z"/>
    <path class="cls-16" d="M494.25,190.7h-3.09v-5.97c0-1.26-.07-2.08-.2-2.45s-.35-.66-.64-.86c-.3-.21-.66-.31-1.07-.31-.54,0-1.02.15-1.44.44s-.72.68-.88,1.17c-.16.48-.24,1.38-.24,2.69v5.3h-3.09v-11.7h2.88v1.72c1.02-1.32,2.3-1.98,3.85-1.98.68,0,1.31.12,1.87.37s.99.56,1.28.94c.29.38.49.81.61,1.3.11.48.17,1.18.17,2.08v7.27Z"/>
    <path class="cls-16" d="M497.25,190.7v-16.15h3.09v5.81c.96-1.09,2.09-1.63,3.39-1.63,1.42,0,2.6.52,3.54,1.55.93,1.03,1.4,2.51,1.4,4.44s-.48,3.54-1.43,4.61c-.95,1.08-2.11,1.62-3.46,1.62-.67,0-1.33-.17-1.98-.5-.65-.33-1.21-.83-1.68-1.48v1.72h-2.88ZM500.32,184.6c0,1.21.19,2.11.57,2.69.54.82,1.25,1.23,2.14,1.23.68,0,1.26-.29,1.75-.88.48-.58.72-1.5.72-2.76,0-1.34-.24-2.3-.73-2.89-.48-.59-1.11-.89-1.86-.89s-1.36.29-1.85.86c-.49.58-.74,1.45-.74,2.63Z"/>
    <path class="cls-16" d="M510.45,184.69c0-1.03.25-2.02.76-2.98s1.22-1.7,2.15-2.2c.93-.51,1.97-.76,3.11-.76,1.77,0,3.22.57,4.35,1.72,1.13,1.15,1.7,2.6,1.7,4.36s-.57,3.24-1.71,4.4c-1.14,1.16-2.58,1.75-4.31,1.75-1.07,0-2.09-.24-3.07-.73-.97-.48-1.71-1.2-2.22-2.13s-.76-2.08-.76-3.42ZM513.62,184.85c0,1.16.28,2.05.83,2.67.55.62,1.23.92,2.04.92s1.48-.31,2.03-.92c.55-.62.82-1.51.82-2.69s-.27-2.03-.82-2.64c-.55-.62-1.22-.93-2.03-.93s-1.49.31-2.04.93c-.55.62-.83,1.51-.83,2.67Z"/>
    <path class="cls-16" d="M527.25,182.57l-2.81-.51c.32-1.13.86-1.97,1.63-2.51.77-.54,1.92-.81,3.44-.81,1.38,0,2.41.16,3.08.49.67.33,1.15.74,1.43,1.24s.41,1.43.41,2.77l-.03,3.61c0,1.03.05,1.79.15,2.27.1.49.29,1.01.56,1.57h-3.06c-.08-.21-.18-.51-.3-.91-.05-.18-.09-.3-.11-.36-.53.51-1.09.9-1.7,1.16-.6.26-1.25.39-1.93.39-1.2,0-2.15-.33-2.85-.98-.69-.65-1.04-1.48-1.04-2.48,0-.66.16-1.25.47-1.77s.76-.91,1.33-1.19,1.39-.52,2.46-.72c1.45-.27,2.45-.52,3.01-.76v-.31c0-.59-.15-1.02-.44-1.27s-.85-.38-1.66-.38c-.55,0-.98.11-1.29.32-.31.22-.56.6-.75,1.14ZM531.39,185.08c-.4.13-1.02.29-1.88.47s-1.42.36-1.69.54c-.4.29-.61.65-.61,1.09s.16.81.48,1.12c.32.32.73.47,1.23.47.56,0,1.09-.18,1.6-.55.37-.28.62-.62.74-1.02.08-.26.12-.77.12-1.51v-.62Z"/>
    <path class="cls-16" d="M540.45,190.7h-3.09v-11.7h2.88v1.66c.49-.79.93-1.3,1.33-1.55.39-.25.84-.37,1.34-.37.71,0,1.38.19,2.04.58l-.96,2.7c-.52-.34-1.01-.51-1.45-.51s-.8.12-1.1.36c-.3.24-.54.67-.71,1.29-.17.62-.26,1.93-.26,3.92v3.61Z"/>
    <path class="cls-16" d="M556.99,190.7h-2.87v-1.72c-.48.67-1.04,1.17-1.69,1.49-.65.33-1.31.49-1.97.49-1.34,0-2.5-.54-3.45-1.62-.96-1.08-1.44-2.59-1.44-4.53s.47-3.49,1.4-4.52c.93-1.03,2.11-1.55,3.54-1.55,1.31,0,2.44.54,3.39,1.63v-5.81h3.09v16.15ZM548.73,184.6c0,1.25.17,2.15.52,2.71.5.81,1.2,1.21,2.09,1.21.71,0,1.32-.3,1.82-.91.5-.61.75-1.51.75-2.71,0-1.34-.24-2.31-.73-2.9-.48-.59-1.11-.89-1.86-.89s-1.35.29-1.84.88c-.5.58-.74,1.46-.74,2.62Z"/>
    <path class="cls-16" d="M560.04,177.42v-2.86h3.09v2.86h-3.09ZM560.04,190.7v-11.7h3.09v11.7h-3.09Z"/>
    <path class="cls-16" d="M576.94,190.7h-3.09v-5.97c0-1.26-.07-2.08-.2-2.45s-.35-.66-.64-.86c-.3-.21-.66-.31-1.07-.31-.54,0-1.02.15-1.44.44s-.72.68-.88,1.17c-.16.48-.24,1.38-.24,2.69v5.3h-3.09v-11.7h2.88v1.72c1.02-1.32,2.3-1.98,3.85-1.98.68,0,1.31.12,1.87.37s.99.56,1.28.94c.29.38.49.81.61,1.3.11.48.17,1.18.17,2.08v7.27Z"/>
    <path class="cls-16" d="M579.8,191.47l3.54.43c.06.41.19.69.41.85.29.22.76.33,1.39.33.81,0,1.41-.12,1.82-.36.27-.16.48-.42.62-.78.1-.26.14-.73.14-1.42v-1.71c-.93,1.26-2.09,1.89-3.5,1.89-1.57,0-2.82-.66-3.73-1.99-.72-1.05-1.08-2.36-1.08-3.92,0-1.96.47-3.46,1.42-4.49.94-1.04,2.12-1.55,3.52-1.55s2.64.64,3.58,1.91v-1.64h2.9v10.5c0,1.38-.11,2.41-.34,3.09-.23.68-.55,1.22-.96,1.61s-.96.69-1.65.91c-.69.22-1.55.33-2.6.33-1.98,0-3.39-.34-4.22-1.02-.83-.68-1.25-1.54-1.25-2.58,0-.1,0-.23.01-.37ZM582.56,184.61c0,1.24.24,2.15.72,2.73.48.58,1.07.86,1.78.86.76,0,1.4-.3,1.92-.89.52-.59.78-1.47.78-2.63s-.25-2.11-.75-2.7c-.5-.59-1.13-.88-1.89-.88s-1.35.29-1.83.86c-.48.58-.72,1.46-.72,2.64Z"/>
    <path class="cls-16" d="M390.17,216.56c0,.9-.32,1.67-.95,2.31-.64.64-1.4.95-2.3.95s-1.67-.32-2.31-.96c-.64-.64-.95-1.41-.95-2.3s.32-1.66.95-2.3c.63-.64,1.4-.95,2.31-.95s1.66.32,2.3.95c.63.63.95,1.4.95,2.3Z"/>
    <path class="cls-16" d="M417.13,224.53h-3.55l-1.41-3.67h-6.45l-1.33,3.67h-3.46l6.29-16.15h3.45l6.46,16.15ZM411.13,218.14l-2.22-5.99-2.18,5.99h4.41Z"/>
    <path class="cls-16" d="M418.75,212.83h2.88v1.72c.38-.59.88-1.06,1.52-1.43.64-.37,1.35-.55,2.12-.55,1.36,0,2.51.53,3.46,1.6s1.42,2.55,1.42,4.45-.48,3.47-1.43,4.55c-.95,1.08-2.11,1.62-3.47,1.62-.65,0-1.23-.13-1.76-.39-.53-.26-1.08-.7-1.66-1.32v5.89h-3.09v-16.15ZM421.81,218.48c0,1.31.26,2.29.78,2.91s1.16.94,1.91.94,1.32-.29,1.8-.86c.48-.58.72-1.52.72-2.84,0-1.23-.25-2.14-.74-2.73-.49-.59-1.1-.89-1.83-.89s-1.38.29-1.88.88c-.5.58-.75,1.45-.75,2.59Z"/>
    <path class="cls-16" d="M432.53,212.83h2.88v1.72c.38-.59.88-1.06,1.52-1.43.64-.37,1.35-.55,2.12-.55,1.36,0,2.51.53,3.46,1.6s1.42,2.55,1.42,4.45-.48,3.47-1.43,4.55c-.95,1.08-2.11,1.62-3.47,1.62-.65,0-1.23-.13-1.76-.39-.53-.26-1.08-.7-1.66-1.32v5.89h-3.09v-16.15ZM435.59,218.48c0,1.31.26,2.29.78,2.91s1.16.94,1.91.94,1.32-.29,1.8-.86c.48-.58.72-1.52.72-2.84,0-1.23-.25-2.14-.74-2.73-.49-.59-1.1-.89-1.83-.89s-1.38.29-1.88.88c-.5.58-.75,1.45-.75,2.59Z"/>
    <path class="cls-16" d="M445.68,218.52c0-1.03.25-2.02.76-2.98s1.22-1.7,2.15-2.2c.93-.51,1.97-.76,3.11-.76,1.77,0,3.22.57,4.35,1.72,1.13,1.15,1.7,2.6,1.7,4.36s-.57,3.24-1.71,4.4c-1.14,1.16-2.58,1.75-4.31,1.75-1.07,0-2.09-.24-3.07-.73-.97-.48-1.71-1.2-2.22-2.13s-.76-2.08-.76-3.42ZM448.85,218.68c0,1.16.28,2.05.83,2.67.55.62,1.23.92,2.04.92s1.48-.31,2.03-.92c.55-.62.82-1.51.82-2.69s-.27-2.03-.82-2.64c-.55-.62-1.22-.93-2.03-.93s-1.49.31-2.04.93c-.55.62-.83,1.51-.83,2.67Z"/>
    <path class="cls-16" d="M460.17,211.25v-2.86h3.09v2.86h-3.09ZM460.17,224.53v-11.7h3.09v11.7h-3.09Z"/>
    <path class="cls-16" d="M477.08,224.53h-3.09v-5.97c0-1.26-.07-2.08-.2-2.45s-.35-.66-.64-.86c-.3-.21-.66-.31-1.07-.31-.54,0-1.02.15-1.44.44s-.72.68-.88,1.17c-.16.48-.24,1.38-.24,2.69v5.3h-3.09v-11.7h2.88v1.72c1.02-1.32,2.3-1.98,3.85-1.98.68,0,1.31.12,1.87.37s.99.56,1.28.94c.29.38.49.81.61,1.3.11.48.17,1.18.17,2.08v7.27Z"/>
    <path class="cls-16" d="M485.58,212.83v2.47h-2.11v4.71c0,.95.02,1.51.06,1.67.04.16.13.29.28.39.14.1.32.15.52.15.29,0,.7-.1,1.25-.3l.26,2.4c-.72.31-1.53.46-2.44.46-.56,0-1.06-.09-1.51-.28-.45-.19-.78-.43-.99-.73-.21-.3-.35-.7-.43-1.21-.07-.36-.1-1.09-.1-2.18v-5.1h-1.42v-2.47h1.42v-2.32l3.11-1.81v4.13h2.11Z"/>
    <path class="cls-16" d="M487.49,212.83h2.85v1.6c1.02-1.24,2.24-1.86,3.65-1.86.75,0,1.4.15,1.95.46.55.31,1,.77,1.35,1.4.51-.62,1.07-1.09,1.66-1.4.59-.31,1.23-.46,1.91-.46.86,0,1.59.17,2.18.52s1.04.86,1.33,1.54c.21.5.32,1.31.32,2.42v7.48h-3.09v-6.69c0-1.16-.11-1.91-.32-2.25-.29-.44-.73-.66-1.32-.66-.43,0-.84.13-1.22.4-.38.26-.66.65-.83,1.16s-.25,1.32-.25,2.42v5.62h-3.09v-6.41c0-1.14-.05-1.87-.17-2.2s-.28-.58-.51-.74c-.23-.16-.55-.24-.94-.24-.48,0-.91.13-1.29.39-.38.26-.66.63-.82,1.11-.17.48-.25,1.29-.25,2.41v5.68h-3.09v-11.7Z"/>
    <path class="cls-16" d="M514.55,220.81l3.08.52c-.4,1.13-1.02,1.99-1.88,2.58-.86.59-1.92.89-3.21.89-2.03,0-3.54-.66-4.52-1.99-.77-1.06-1.16-2.41-1.16-4.03,0-1.94.51-3.46,1.52-4.55,1.01-1.1,2.29-1.65,3.84-1.65,1.74,0,3.11.57,4.12,1.72,1.01,1.15,1.49,2.91,1.44,5.28h-7.75c.02.92.27,1.63.75,2.14.48.51,1.07.77,1.78.77.48,0,.89-.13,1.22-.4.33-.26.58-.69.75-1.28ZM514.73,217.68c-.02-.9-.25-1.58-.69-2.04s-.98-.7-1.61-.7c-.68,0-1.23.25-1.67.74s-.66,1.16-.65,2h4.63Z"/>
    <path class="cls-16" d="M530.96,224.53h-3.09v-5.97c0-1.26-.07-2.08-.2-2.45s-.35-.66-.64-.86c-.3-.21-.66-.31-1.07-.31-.54,0-1.02.15-1.44.44s-.72.68-.88,1.17c-.16.48-.24,1.38-.24,2.69v5.3h-3.09v-11.7h2.88v1.72c1.02-1.32,2.3-1.98,3.85-1.98.68,0,1.31.12,1.87.37s.99.56,1.28.94c.29.38.49.81.61,1.3.11.48.17,1.18.17,2.08v7.27Z"/>
    <path class="cls-16" d="M539.46,212.83v2.47h-2.11v4.71c0,.95.02,1.51.06,1.67.04.16.13.29.28.39.14.1.32.15.52.15.29,0,.7-.1,1.25-.3l.26,2.4c-.72.31-1.53.46-2.44.46-.56,0-1.06-.09-1.51-.28-.45-.19-.78-.43-.99-.73-.21-.3-.35-.7-.43-1.21-.07-.36-.1-1.09-.1-2.18v-5.1h-1.42v-2.47h1.42v-2.32l3.11-1.81v4.13h2.11Z"/>
    <path class="cls-16" d="M561.62,224.53h-3.55l-1.41-3.67h-6.45l-1.33,3.67h-3.46l6.29-16.15h3.45l6.46,16.15ZM555.62,218.14l-2.22-5.99-2.18,5.99h4.41Z"/>
    <path class="cls-16" d="M565.71,224.53l-4.71-11.7h3.25l2.2,5.97.64,1.99c.17-.51.28-.84.32-1,.1-.33.21-.66.33-.99l2.22-5.97h3.18l-4.65,11.7h-2.79Z"/>
    <path class="cls-16" d="M577.35,216.4l-2.81-.51c.32-1.13.86-1.97,1.63-2.51.77-.54,1.92-.81,3.44-.81,1.38,0,2.41.16,3.08.49.67.33,1.15.74,1.43,1.24s.41,1.43.41,2.77l-.03,3.61c0,1.03.05,1.79.15,2.27.1.49.29,1.01.56,1.57h-3.06c-.08-.21-.18-.51-.3-.91-.05-.18-.09-.3-.11-.36-.53.51-1.09.9-1.7,1.16-.6.26-1.25.39-1.93.39-1.2,0-2.15-.33-2.85-.98-.69-.65-1.04-1.48-1.04-2.48,0-.66.16-1.25.47-1.77s.76-.91,1.33-1.19,1.39-.52,2.46-.72c1.45-.27,2.45-.52,3.01-.76v-.31c0-.59-.15-1.02-.44-1.27s-.85-.38-1.66-.38c-.55,0-.98.11-1.29.32-.31.22-.56.6-.75,1.14ZM581.49,218.91c-.4.13-1.02.29-1.88.47s-1.42.36-1.69.54c-.4.29-.61.65-.61,1.09s.16.81.48,1.12c.32.32.73.47,1.23.47.56,0,1.09-.18,1.6-.55.37-.28.62-.62.74-1.02.08-.26.12-.77.12-1.51v-.62Z"/>
    <path class="cls-16" d="M587.58,211.25v-2.86h3.09v2.86h-3.09ZM587.58,224.53v-11.7h3.09v11.7h-3.09Z"/>
    <path class="cls-16" d="M593.85,224.53v-16.15h3.09v16.15h-3.09Z"/>
    <path class="cls-16" d="M602.43,216.4l-2.81-.51c.32-1.13.86-1.97,1.63-2.51.77-.54,1.92-.81,3.44-.81,1.38,0,2.41.16,3.08.49.67.33,1.15.74,1.43,1.24s.41,1.43.41,2.77l-.03,3.61c0,1.03.05,1.79.15,2.27.1.49.29,1.01.56,1.57h-3.06c-.08-.21-.18-.51-.3-.91-.05-.18-.09-.3-.11-.36-.53.51-1.09.9-1.7,1.16-.6.26-1.25.39-1.93.39-1.2,0-2.15-.33-2.85-.98-.69-.65-1.04-1.48-1.04-2.48,0-.66.16-1.25.47-1.77s.76-.91,1.33-1.19,1.39-.52,2.46-.72c1.45-.27,2.45-.52,3.01-.76v-.31c0-.59-.15-1.02-.44-1.27s-.85-.38-1.66-.38c-.55,0-.98.11-1.29.32-.31.22-.56.6-.75,1.14ZM606.57,218.91c-.4.13-1.02.29-1.88.47s-1.42.36-1.69.54c-.4.29-.61.65-.61,1.09s.16.81.48,1.12c.32.32.73.47,1.23.47.56,0,1.09-.18,1.6-.55.37-.28.62-.62.74-1.02.08-.26.12-.77.12-1.51v-.62Z"/>
    <path class="cls-16" d="M612.53,224.53v-16.15h3.09v5.81c.96-1.09,2.09-1.63,3.39-1.63,1.42,0,2.6.52,3.54,1.55.93,1.03,1.4,2.51,1.4,4.44s-.48,3.54-1.43,4.61c-.95,1.08-2.11,1.62-3.46,1.62-.67,0-1.33-.17-1.98-.5-.65-.33-1.21-.83-1.68-1.48v1.72h-2.88ZM615.6,218.43c0,1.21.19,2.11.57,2.69.54.82,1.25,1.23,2.14,1.23.68,0,1.26-.29,1.75-.88.48-.58.72-1.5.72-2.76,0-1.34-.24-2.3-.73-2.89-.48-.59-1.11-.89-1.86-.89s-1.36.29-1.85.86c-.49.58-.74,1.45-.74,2.63Z"/>
    <path class="cls-16" d="M626.44,211.25v-2.86h3.09v2.86h-3.09ZM626.44,224.53v-11.7h3.09v11.7h-3.09Z"/>
    <path class="cls-16" d="M632.7,224.53v-16.15h3.09v16.15h-3.09Z"/>
    <path class="cls-16" d="M638.97,211.25v-2.86h3.09v2.86h-3.09ZM638.97,224.53v-11.7h3.09v11.7h-3.09Z"/>
    <path class="cls-16" d="M650.6,212.83v2.47h-2.11v4.71c0,.95.02,1.51.06,1.67.04.16.13.29.28.39.14.1.32.15.52.15.29,0,.7-.1,1.25-.3l.26,2.4c-.72.31-1.53.46-2.44.46-.56,0-1.06-.09-1.51-.28-.45-.19-.78-.43-.99-.73-.21-.3-.35-.7-.43-1.21-.07-.36-.1-1.09-.1-2.18v-5.1h-1.42v-2.47h1.42v-2.32l3.11-1.81v4.13h2.11Z"/>
    <path class="cls-16" d="M651.28,212.83h3.29l2.8,8.3,2.73-8.3h3.21l-4.13,11.26-.74,2.04c-.27.68-.53,1.2-.78,1.56s-.53.65-.85.88c-.32.22-.71.4-1.18.52-.47.12-.99.19-1.58.19s-1.18-.06-1.75-.19l-.28-2.42c.48.1.92.14,1.31.14.72,0,1.25-.21,1.6-.63.34-.42.61-.96.79-1.61l-4.45-11.73Z"/>
  </g>
  <rect class="cls-20" x="361.83" y="290.23" width="365.17" height="252.77" rx="19.94" ry="19.94"/>
  <text class="cls-15" transform="translate(381.07 332.09)"><tspan x="0" y="0">BOOKING</tspan><tspan class="cls-12" x="119.45" y="0"> </tspan><tspan x="125.46" y="0">APPOINTMENTS</tspan></text>
  <g>
    <path class="cls-16" d="M389.17,376.29c0,.9-.32,1.67-.95,2.31-.64.64-1.4.95-2.3.95s-1.67-.32-2.31-.96c-.64-.64-.95-1.41-.95-2.3s.32-1.66.95-2.3c.63-.64,1.4-.95,2.31-.95s1.66.32,2.3.95c.63.63.95,1.4.95,2.3Z"/>
    <path class="cls-16" d="M411.9,378.33l3.16,1c-.48,1.76-1.29,3.07-2.42,3.93-1.13.86-2.56,1.28-4.29,1.28-2.14,0-3.91-.73-5.29-2.2s-2.07-3.47-2.07-6.01c0-2.69.69-4.77,2.08-6.26s3.21-2.23,5.47-2.23c1.98,0,3.58.58,4.81,1.75.73.69,1.28,1.68,1.65,2.97l-3.23.77c-.19-.84-.59-1.5-1.2-1.98-.61-.48-1.34-.73-2.21-.73-1.2,0-2.17.43-2.91,1.29s-1.12,2.25-1.12,4.17c0,2.04.37,3.5,1.1,4.36s1.69,1.3,2.86,1.3c.87,0,1.61-.27,2.24-.83s1.07-1.42,1.34-2.6Z"/>
    <path class="cls-16" d="M425.54,384.27v-1.75c-.43.62-.99,1.12-1.68,1.48-.69.36-1.43.54-2.2.54s-1.49-.17-2.11-.52c-.62-.34-1.08-.83-1.35-1.45-.28-.62-.42-1.49-.42-2.59v-7.4h3.09v5.37c0,1.65.06,2.65.17,3.02.11.37.32.66.62.88.3.22.68.33,1.15.33.53,0,1-.15,1.42-.44.42-.29.7-.65.86-1.08.15-.43.23-1.48.23-3.16v-4.93h3.09v11.7h-2.87Z"/>
    <path class="cls-16" d="M430.52,380.93l3.11-.47c.13.6.4,1.06.8,1.37.4.31.97.47,1.7.47.8,0,1.4-.15,1.81-.44.27-.21.41-.48.41-.83,0-.23-.07-.43-.22-.58-.15-.15-.5-.28-1.04-.41-2.5-.55-4.08-1.05-4.75-1.51-.92-.63-1.39-1.51-1.39-2.63,0-1.01.4-1.86,1.2-2.56.8-.69,2.04-1.04,3.72-1.04s2.79.26,3.57.78,1.31,1.29,1.61,2.31l-2.92.54c-.12-.46-.36-.8-.71-1.05-.35-.24-.85-.36-1.49-.36-.82,0-1.4.11-1.75.34-.23.16-.35.37-.35.63,0,.22.1.41.31.56.28.21,1.24.5,2.89.87,1.65.37,2.8.83,3.45,1.38.65.55.97,1.32.97,2.3,0,1.07-.45,1.99-1.34,2.76-.9.77-2.22,1.16-3.98,1.16-1.59,0-2.85-.32-3.78-.97-.93-.65-1.54-1.52-1.82-2.63Z"/>
    <path class="cls-16" d="M449.52,372.57v2.47h-2.11v4.71c0,.95.02,1.51.06,1.67.04.16.13.29.28.39.14.1.32.15.52.15.29,0,.7-.1,1.25-.3l.26,2.4c-.72.31-1.53.46-2.44.46-.56,0-1.06-.09-1.51-.28-.45-.19-.78-.43-.99-.73-.21-.3-.35-.7-.43-1.21-.07-.36-.1-1.09-.1-2.18v-5.1h-1.42v-2.47h1.42v-2.32l3.11-1.81v4.13h2.11Z"/>
    <path class="cls-16" d="M450.96,378.25c0-1.03.25-2.02.76-2.98s1.22-1.7,2.15-2.2c.93-.51,1.97-.76,3.11-.76,1.77,0,3.22.57,4.35,1.72,1.13,1.15,1.7,2.6,1.7,4.36s-.57,3.24-1.71,4.4c-1.14,1.16-2.58,1.75-4.31,1.75-1.07,0-2.09-.24-3.07-.73-.97-.48-1.71-1.2-2.22-2.13s-.76-2.08-.76-3.42ZM454.13,378.42c0,1.16.28,2.05.83,2.67.55.62,1.23.92,2.04.92s1.48-.31,2.03-.92c.55-.62.82-1.51.82-2.69s-.27-2.03-.82-2.64c-.55-.62-1.22-.93-2.03-.93s-1.49.31-2.04.93c-.55.62-.83,1.51-.83,2.67Z"/>
    <path class="cls-16" d="M465.22,372.57h2.85v1.6c1.02-1.24,2.24-1.86,3.65-1.86.75,0,1.4.15,1.95.46.55.31,1,.77,1.35,1.4.51-.62,1.07-1.09,1.66-1.4.59-.31,1.23-.46,1.91-.46.86,0,1.59.17,2.18.52s1.04.86,1.33,1.54c.21.5.32,1.31.32,2.42v7.48h-3.09v-6.69c0-1.16-.11-1.91-.32-2.25-.29-.44-.73-.66-1.32-.66-.43,0-.84.13-1.22.4-.38.26-.66.65-.83,1.16s-.25,1.32-.25,2.42v5.62h-3.09v-6.41c0-1.14-.05-1.87-.17-2.2s-.28-.58-.51-.74c-.23-.16-.55-.24-.94-.24-.48,0-.91.13-1.29.39-.38.26-.66.63-.82,1.11-.17.48-.25,1.29-.25,2.41v5.68h-3.09v-11.7Z"/>
    <path class="cls-16" d="M492.28,380.54l3.08.52c-.4,1.13-1.02,1.99-1.88,2.58-.86.59-1.92.89-3.21.89-2.03,0-3.54-.66-4.52-1.99-.77-1.06-1.16-2.41-1.16-4.03,0-1.94.51-3.46,1.52-4.55,1.01-1.1,2.29-1.65,3.84-1.65,1.74,0,3.11.57,4.12,1.72,1.01,1.15,1.49,2.91,1.44,5.28h-7.75c.02.92.27,1.63.75,2.14.48.51,1.07.77,1.78.77.48,0,.89-.13,1.22-.4.33-.26.58-.69.75-1.28ZM492.45,377.42c-.02-.9-.25-1.58-.69-2.04s-.98-.7-1.61-.7c-.68,0-1.23.25-1.67.74s-.66,1.16-.65,2h4.63Z"/>
    <path class="cls-16" d="M501.01,384.27h-3.09v-11.7h2.88v1.66c.49-.79.93-1.3,1.33-1.55.39-.25.84-.37,1.34-.37.71,0,1.38.19,2.04.58l-.96,2.7c-.52-.34-1.01-.51-1.45-.51s-.8.12-1.1.36c-.3.24-.54.67-.71,1.29-.17.62-.26,1.93-.26,3.92v3.61Z"/>
    <path class="cls-16" d="M513.1,368.12h5.96c1.34,0,2.37.1,3.07.31.95.28,1.76.77,2.43,1.49.68.71,1.19,1.58,1.54,2.62.35,1.03.53,2.3.53,3.82,0,1.33-.17,2.47-.5,3.44-.4,1.17-.98,2.13-1.73,2.85-.57.55-1.33.98-2.29,1.29-.72.23-1.68.34-2.88.34h-6.13v-16.15ZM516.36,370.85v10.69h2.43c.91,0,1.57-.05,1.97-.15.53-.13.97-.36,1.32-.67.35-.32.63-.83.85-1.56.22-.72.33-1.71.33-2.96s-.11-2.21-.33-2.87c-.22-.67-.53-1.19-.92-1.56s-.9-.63-1.51-.76c-.46-.1-1.35-.15-2.68-.15h-1.46Z"/>
    <path class="cls-16" d="M536.15,380.54l3.08.52c-.4,1.13-1.02,1.99-1.88,2.58-.86.59-1.92.89-3.21.89-2.03,0-3.54-.66-4.52-1.99-.77-1.06-1.16-2.41-1.16-4.03,0-1.94.51-3.46,1.52-4.55,1.01-1.1,2.29-1.65,3.84-1.65,1.74,0,3.11.57,4.12,1.72,1.01,1.15,1.49,2.91,1.44,5.28h-7.75c.02.92.27,1.63.75,2.14.48.51,1.07.77,1.78.77.48,0,.89-.13,1.22-.4.33-.26.58-.69.75-1.28ZM536.33,377.42c-.02-.9-.25-1.58-.69-2.04s-.98-.7-1.61-.7c-.68,0-1.23.25-1.67.74s-.66,1.16-.65,2h4.63Z"/>
    <path class="cls-16" d="M547.29,372.57v2.47h-2.11v4.71c0,.95.02,1.51.06,1.67.04.16.13.29.28.39.14.1.32.15.52.15.29,0,.7-.1,1.25-.3l.26,2.4c-.72.31-1.53.46-2.44.46-.56,0-1.06-.09-1.51-.28-.45-.19-.78-.43-.99-.73-.21-.3-.35-.7-.43-1.21-.07-.36-.1-1.09-.1-2.18v-5.1h-1.42v-2.47h1.42v-2.32l3.11-1.81v4.13h2.11Z"/>
    <path class="cls-16" d="M551.75,376.14l-2.81-.51c.32-1.13.86-1.97,1.63-2.51.77-.54,1.92-.81,3.44-.81,1.38,0,2.41.16,3.08.49.67.33,1.15.74,1.43,1.24s.41,1.43.41,2.77l-.03,3.61c0,1.03.05,1.79.15,2.27.1.49.29,1.01.56,1.57h-3.06c-.08-.21-.18-.51-.3-.91-.05-.18-.09-.3-.11-.36-.53.51-1.09.9-1.7,1.16-.6.26-1.25.39-1.93.39-1.2,0-2.15-.33-2.85-.98-.69-.65-1.04-1.48-1.04-2.48,0-.66.16-1.25.47-1.77s.76-.91,1.33-1.19,1.39-.52,2.46-.72c1.45-.27,2.45-.52,3.01-.76v-.31c0-.59-.15-1.02-.44-1.27s-.85-.38-1.66-.38c-.55,0-.98.11-1.29.32-.31.22-.56.6-.75,1.14ZM555.89,378.65c-.4.13-1.02.29-1.88.47s-1.42.36-1.69.54c-.4.29-.61.65-.61,1.09s.16.81.48,1.12c.32.32.73.47,1.23.47.56,0,1.09-.18,1.6-.55.37-.28.62-.62.74-1.02.08-.26.12-.77.12-1.51v-.62Z"/>
    <path class="cls-16" d="M561.98,370.98v-2.86h3.09v2.86h-3.09ZM561.98,384.27v-11.7h3.09v11.7h-3.09Z"/>
    <path class="cls-16" d="M568.25,384.27v-16.15h3.09v16.15h-3.09Z"/>
    <path class="cls-16" d="M573.42,380.93l3.11-.47c.13.6.4,1.06.8,1.37.4.31.97.47,1.7.47.8,0,1.4-.15,1.81-.44.27-.21.41-.48.41-.83,0-.23-.07-.43-.22-.58-.15-.15-.5-.28-1.04-.41-2.5-.55-4.08-1.05-4.75-1.51-.92-.63-1.39-1.51-1.39-2.63,0-1.01.4-1.86,1.2-2.56.8-.69,2.04-1.04,3.72-1.04s2.79.26,3.57.78,1.31,1.29,1.61,2.31l-2.92.54c-.12-.46-.36-.8-.71-1.05-.35-.24-.85-.36-1.49-.36-.82,0-1.4.11-1.75.34-.23.16-.35.37-.35.63,0,.22.1.41.31.56.28.21,1.24.5,2.89.87,1.65.37,2.8.83,3.45,1.38.65.55.97,1.32.97,2.3,0,1.07-.45,1.99-1.34,2.76-.9.77-2.22,1.16-3.98,1.16-1.59,0-2.85-.32-3.78-.97-.93-.65-1.54-1.52-1.82-2.63Z"/>
    <path class="cls-16" d="M389.17,410.12c0,.9-.32,1.67-.95,2.31-.64.64-1.4.95-2.3.95s-1.67-.32-2.31-.96c-.64-.64-.95-1.41-.95-2.3s.32-1.66.95-2.3c.63-.64,1.4-.95,2.31-.95s1.66.32,2.3.95c.63.63.95,1.4.95,2.3Z"/>
    <path class="cls-16" d="M400.75,412.84l3.17-.31c.19,1.06.58,1.85,1.16,2.35.58.5,1.37.75,2.36.75,1.05,0,1.84-.22,2.37-.67.53-.44.8-.96.8-1.56,0-.38-.11-.71-.34-.98-.22-.27-.62-.5-1.17-.7-.38-.13-1.25-.37-2.61-.7-1.75-.43-2.97-.97-3.68-1.6-.99-.89-1.49-1.97-1.49-3.25,0-.82.23-1.59.7-2.31.47-.72,1.14-1.26,2.02-1.64s1.94-.56,3.18-.56c2.03,0,3.55.44,4.58,1.33,1.02.89,1.56,2.07,1.61,3.56l-3.26.14c-.14-.83-.44-1.43-.9-1.79s-1.15-.54-2.06-.54-1.69.19-2.22.58c-.35.25-.52.58-.52,1,0,.38.16.71.48.98.41.35,1.41.7,3,1.08s2.76.76,3.52,1.16c.76.4,1.35.95,1.78,1.64.43.69.64,1.55.64,2.57,0,.93-.26,1.79-.77,2.6s-1.24,1.41-2.18,1.8c-.94.39-2.11.59-3.51.59-2.04,0-3.61-.47-4.7-1.42s-1.75-2.32-1.96-4.12Z"/>
    <path class="cls-16" d="M423.37,414.38l3.08.52c-.4,1.13-1.02,1.99-1.88,2.58-.86.59-1.92.89-3.21.89-2.03,0-3.54-.66-4.52-1.99-.77-1.06-1.16-2.41-1.16-4.03,0-1.94.51-3.46,1.52-4.55,1.01-1.1,2.29-1.65,3.84-1.65,1.74,0,3.11.57,4.12,1.72,1.01,1.15,1.49,2.91,1.44,5.28h-7.75c.02.92.27,1.63.75,2.14.48.51,1.07.77,1.78.77.48,0,.89-.13,1.22-.4.33-.26.58-.69.75-1.28ZM423.54,411.25c-.02-.9-.25-1.58-.69-2.04s-.98-.7-1.61-.7c-.68,0-1.23.25-1.67.74s-.66,1.16-.65,2h4.63Z"/>
    <path class="cls-16" d="M432.1,418.1h-3.09v-11.7h2.88v1.66c.49-.79.93-1.3,1.33-1.55.39-.25.84-.37,1.34-.37.71,0,1.38.19,2.04.58l-.96,2.7c-.52-.34-1.01-.51-1.45-.51s-.8.12-1.1.36c-.3.24-.54.67-.71,1.29-.17.62-.26,1.93-.26,3.92v3.61Z"/>
    <path class="cls-16" d="M441.13,418.1l-4.71-11.7h3.25l2.2,5.97.64,1.99c.17-.51.28-.84.32-1,.1-.33.21-.66.33-.99l2.22-5.97h3.18l-4.65,11.7h-2.79Z"/>
    <path class="cls-16" d="M450.46,404.82v-2.86h3.09v2.86h-3.09ZM450.46,418.1v-11.7h3.09v11.7h-3.09Z"/>
    <path class="cls-16" d="M466.92,409.86l-3.05.55c-.1-.61-.34-1.07-.7-1.38-.36-.31-.84-.46-1.42-.46-.77,0-1.39.27-1.84.8-.46.53-.69,1.42-.69,2.67,0,1.39.23,2.37.7,2.94.47.57,1.09.86,1.88.86.59,0,1.07-.17,1.44-.5s.64-.91.79-1.72l3.04.52c-.32,1.4-.92,2.45-1.82,3.16-.9.71-2.1,1.07-3.6,1.07-1.71,0-3.07-.54-4.09-1.62-1.02-1.08-1.53-2.57-1.53-4.48s.51-3.43,1.53-4.51,2.4-1.61,4.14-1.61c1.42,0,2.56.31,3.4.92.84.61,1.44,1.55,1.81,2.8Z"/>
    <path class="cls-16" d="M476.04,414.38l3.08.52c-.4,1.13-1.02,1.99-1.88,2.58-.86.59-1.92.89-3.21.89-2.03,0-3.54-.66-4.52-1.99-.77-1.06-1.16-2.41-1.16-4.03,0-1.94.51-3.46,1.52-4.55,1.01-1.1,2.29-1.65,3.84-1.65,1.74,0,3.11.57,4.12,1.72,1.01,1.15,1.49,2.91,1.44,5.28h-7.75c.02.92.27,1.63.75,2.14.48.51,1.07.77,1.78.77.48,0,.89-.13,1.22-.4.33-.26.58-.69.75-1.28ZM476.22,411.25c-.02-.9-.25-1.58-.69-2.04s-.98-.7-1.61-.7c-.68,0-1.23.25-1.67.74s-.66,1.16-.65,2h4.63Z"/>
    <path class="cls-16" d="M487.28,412.84l3.17-.31c.19,1.06.58,1.85,1.16,2.35.58.5,1.37.75,2.36.75,1.05,0,1.84-.22,2.37-.67.53-.44.8-.96.8-1.56,0-.38-.11-.71-.34-.98-.22-.27-.62-.5-1.17-.7-.38-.13-1.25-.37-2.61-.7-1.75-.43-2.97-.97-3.68-1.6-.99-.89-1.49-1.97-1.49-3.25,0-.82.23-1.59.7-2.31.47-.72,1.14-1.26,2.02-1.64s1.94-.56,3.18-.56c2.03,0,3.55.44,4.58,1.33,1.02.89,1.56,2.07,1.61,3.56l-3.26.14c-.14-.83-.44-1.43-.9-1.79s-1.15-.54-2.06-.54-1.69.19-2.22.58c-.35.25-.52.58-.52,1,0,.38.16.71.48.98.41.35,1.41.7,3,1.08s2.76.76,3.52,1.16c.76.4,1.35.95,1.78,1.64.43.69.64,1.55.64,2.57,0,.93-.26,1.79-.77,2.6s-1.24,1.41-2.18,1.8c-.94.39-2.11.59-3.51.59-2.04,0-3.61-.47-4.7-1.42s-1.75-2.32-1.96-4.12Z"/>
    <path class="cls-16" d="M509.9,414.38l3.08.52c-.4,1.13-1.02,1.99-1.88,2.58-.86.59-1.92.89-3.21.89-2.03,0-3.54-.66-4.52-1.99-.77-1.06-1.16-2.41-1.16-4.03,0-1.94.51-3.46,1.52-4.55,1.01-1.1,2.29-1.65,3.84-1.65,1.74,0,3.11.57,4.12,1.72,1.01,1.15,1.49,2.91,1.44,5.28h-7.75c.02.92.27,1.63.75,2.14.48.51,1.07.77,1.78.77.48,0,.89-.13,1.22-.4.33-.26.58-.69.75-1.28ZM510.07,411.25c-.02-.9-.25-1.58-.69-2.04s-.98-.7-1.61-.7c-.68,0-1.23.25-1.67.74s-.66,1.16-.65,2h4.63Z"/>
    <path class="cls-16" d="M515.67,418.1v-16.15h3.09v16.15h-3.09Z"/>
    <path class="cls-16" d="M528.71,414.38l3.08.52c-.4,1.13-1.02,1.99-1.88,2.58-.86.59-1.92.89-3.21.89-2.03,0-3.54-.66-4.52-1.99-.77-1.06-1.16-2.41-1.16-4.03,0-1.94.51-3.46,1.52-4.55,1.01-1.1,2.29-1.65,3.84-1.65,1.74,0,3.11.57,4.12,1.72,1.01,1.15,1.49,2.91,1.44,5.28h-7.75c.02.92.27,1.63.75,2.14.48.51,1.07.77,1.78.77.48,0,.89-.13,1.22-.4.33-.26.58-.69.75-1.28ZM528.88,411.25c-.02-.9-.25-1.58-.69-2.04s-.98-.7-1.61-.7c-.68,0-1.23.25-1.67.74s-.66,1.16-.65,2h4.63Z"/>
    <path class="cls-16" d="M544.68,409.86l-3.05.55c-.1-.61-.34-1.07-.7-1.38-.36-.31-.84-.46-1.42-.46-.77,0-1.39.27-1.84.8-.46.53-.69,1.42-.69,2.67,0,1.39.23,2.37.7,2.94.47.57,1.09.86,1.88.86.59,0,1.07-.17,1.44-.5s.64-.91.79-1.72l3.04.52c-.32,1.4-.92,2.45-1.82,3.16-.9.71-2.1,1.07-3.6,1.07-1.71,0-3.07-.54-4.09-1.62-1.02-1.08-1.53-2.57-1.53-4.48s.51-3.43,1.53-4.51,2.4-1.61,4.14-1.61c1.42,0,2.56.31,3.4.92.84.61,1.44,1.55,1.81,2.8Z"/>
    <path class="cls-16" d="M552.39,406.4v2.47h-2.11v4.71c0,.95.02,1.51.06,1.67.04.16.13.29.28.39.14.1.32.15.52.15.29,0,.7-.1,1.25-.3l.26,2.4c-.72.31-1.53.46-2.44.46-.56,0-1.06-.09-1.51-.28-.45-.19-.78-.43-.99-.73-.21-.3-.35-.7-.43-1.21-.07-.36-.1-1.09-.1-2.18v-5.1h-1.42v-2.47h1.42v-2.32l3.11-1.81v4.13h2.11Z"/>
    <path class="cls-16" d="M554.53,404.82v-2.86h3.09v2.86h-3.09ZM554.53,418.1v-11.7h3.09v11.7h-3.09Z"/>
    <path class="cls-16" d="M560.08,412.08c0-1.03.25-2.02.76-2.98s1.22-1.7,2.15-2.2c.93-.51,1.97-.76,3.11-.76,1.77,0,3.22.57,4.35,1.72,1.13,1.15,1.7,2.6,1.7,4.36s-.57,3.24-1.71,4.4c-1.14,1.16-2.58,1.75-4.31,1.75-1.07,0-2.09-.24-3.07-.73-.97-.48-1.71-1.2-2.22-2.13s-.76-2.08-.76-3.42ZM563.26,412.25c0,1.16.28,2.05.83,2.67.55.62,1.23.92,2.04.92s1.48-.31,2.03-.92c.55-.62.82-1.51.82-2.69s-.27-2.03-.82-2.64c-.55-.62-1.22-.93-2.03-.93s-1.49.31-2.04.93c-.55.62-.83,1.51-.83,2.67Z"/>
    <path class="cls-16" d="M585.22,418.1h-3.09v-5.97c0-1.26-.07-2.08-.2-2.45s-.35-.66-.64-.86c-.3-.21-.66-.31-1.07-.31-.54,0-1.02.15-1.44.44s-.72.68-.88,1.17c-.16.48-.24,1.38-.24,2.69v5.3h-3.09v-11.7h2.88v1.72c1.02-1.32,2.3-1.98,3.85-1.98.68,0,1.31.12,1.87.37s.99.56,1.28.94c.29.38.49.81.61,1.3.11.48.17,1.18.17,2.08v7.27Z"/>
    <path class="cls-16" d="M389.17,443.96c0,.9-.32,1.67-.95,2.31s-1.4.95-2.3.95-1.67-.32-2.31-.96c-.64-.64-.95-1.41-.95-2.3s.32-1.66.95-2.3c.63-.64,1.4-.95,2.31-.95s1.66.31,2.3.95c.63.63.95,1.4.95,2.3Z"/>
    <path class="cls-16" d="M400.75,446.68l3.17-.31c.19,1.06.58,1.85,1.16,2.35.58.5,1.37.75,2.36.75,1.05,0,1.84-.22,2.37-.67.53-.44.8-.96.8-1.56,0-.38-.11-.71-.34-.98-.22-.27-.62-.5-1.17-.7-.38-.13-1.25-.37-2.61-.7-1.75-.43-2.97-.97-3.68-1.6-.99-.89-1.49-1.97-1.49-3.25,0-.82.23-1.59.7-2.31.47-.72,1.14-1.26,2.02-1.64s1.94-.56,3.18-.56c2.03,0,3.55.44,4.58,1.33,1.02.89,1.56,2.07,1.61,3.56l-3.26.14c-.14-.83-.44-1.43-.9-1.79s-1.15-.54-2.06-.54-1.69.19-2.22.58c-.35.25-.52.58-.52,1,0,.38.16.71.48.98.41.34,1.41.7,3,1.08s2.76.76,3.52,1.16c.76.4,1.35.95,1.78,1.64.43.69.64,1.55.64,2.57,0,.92-.26,1.79-.77,2.6s-1.24,1.41-2.18,1.8c-.94.39-2.11.59-3.51.59-2.04,0-3.61-.47-4.7-1.42s-1.75-2.32-1.96-4.12Z"/>
    <path class="cls-16" d="M426.79,443.69l-3.05.55c-.1-.61-.34-1.07-.7-1.38s-.84-.46-1.42-.46c-.77,0-1.39.27-1.84.8-.46.53-.69,1.42-.69,2.67,0,1.39.23,2.37.7,2.94.47.57,1.09.86,1.88.86.59,0,1.07-.17,1.44-.5s.64-.91.79-1.72l3.04.52c-.32,1.4-.92,2.45-1.82,3.16-.9.71-2.1,1.07-3.6,1.07-1.71,0-3.07-.54-4.09-1.62-1.02-1.08-1.53-2.57-1.53-4.48s.51-3.43,1.53-4.51c1.02-1.08,2.4-1.61,4.14-1.61,1.42,0,2.56.31,3.4.92.84.61,1.44,1.55,1.81,2.8Z"/>
    <path class="cls-16" d="M432.22,435.79v5.94c1-1.17,2.19-1.75,3.58-1.75.71,0,1.35.13,1.93.4.57.26,1,.6,1.29,1.01s.49.87.59,1.37c.11.5.16,1.27.16,2.32v6.86h-3.09v-6.18c0-1.23-.06-2-.18-2.33-.12-.33-.32-.59-.62-.79-.3-.19-.67-.29-1.12-.29-.51,0-.97.12-1.38.38-.4.25-.7.63-.89,1.13s-.28,1.25-.28,2.23v5.86h-3.09v-16.15h3.09Z"/>
    <path class="cls-16" d="M449.69,448.21l3.08.52c-.4,1.13-1.02,1.99-1.88,2.58-.86.59-1.92.89-3.21.89-2.03,0-3.54-.66-4.52-1.99-.77-1.06-1.16-2.41-1.16-4.03,0-1.94.51-3.46,1.52-4.55,1.01-1.1,2.29-1.65,3.84-1.65,1.74,0,3.11.57,4.12,1.72,1.01,1.15,1.49,2.91,1.44,5.28h-7.75c.02.92.27,1.63.75,2.14.48.51,1.07.77,1.78.77.48,0,.89-.13,1.22-.4.33-.27.58-.69.75-1.28ZM449.86,445.08c-.02-.9-.25-1.58-.69-2.04-.44-.47-.98-.7-1.61-.7-.68,0-1.23.25-1.67.74s-.66,1.16-.65,2h4.63Z"/>
    <path class="cls-16" d="M466.19,451.93h-2.87v-1.72c-.48.67-1.04,1.17-1.69,1.49-.65.33-1.31.49-1.97.49-1.34,0-2.5-.54-3.45-1.62-.96-1.08-1.44-2.59-1.44-4.53s.47-3.49,1.4-4.52c.93-1.03,2.11-1.55,3.54-1.55,1.31,0,2.44.54,3.39,1.63v-5.81h3.09v16.15ZM457.93,445.83c0,1.25.17,2.15.52,2.71.5.81,1.2,1.21,2.09,1.21.71,0,1.32-.3,1.82-.91.5-.61.75-1.51.75-2.71,0-1.34-.24-2.31-.73-2.9-.48-.59-1.11-.89-1.86-.89s-1.35.29-1.84.88c-.5.58-.74,1.46-.74,2.62Z"/>
    <path class="cls-16" d="M476.93,451.93v-1.75c-.43.62-.99,1.12-1.68,1.48-.69.36-1.43.54-2.2.54s-1.49-.17-2.11-.52c-.62-.35-1.08-.83-1.35-1.45-.28-.62-.42-1.49-.42-2.59v-7.4h3.09v5.37c0,1.64.06,2.65.17,3.02.11.37.32.66.62.88s.68.32,1.15.32c.53,0,1-.14,1.42-.43.42-.29.7-.65.86-1.08s.23-1.48.23-3.16v-4.93h3.09v11.7h-2.87Z"/>
    <path class="cls-16" d="M483.01,451.93v-16.15h3.09v16.15h-3.09Z"/>
    <path class="cls-16" d="M496.05,448.21l3.08.52c-.4,1.13-1.02,1.99-1.88,2.58-.86.59-1.92.89-3.21.89-2.03,0-3.54-.66-4.52-1.99-.77-1.06-1.16-2.41-1.16-4.03,0-1.94.51-3.46,1.52-4.55,1.01-1.1,2.29-1.65,3.84-1.65,1.74,0,3.11.57,4.12,1.72,1.01,1.15,1.49,2.91,1.44,5.28h-7.75c.02.92.27,1.63.75,2.14.48.51,1.07.77,1.78.77.48,0,.89-.13,1.22-.4.33-.27.58-.69.75-1.28ZM496.23,445.08c-.02-.9-.25-1.58-.69-2.04-.44-.47-.98-.7-1.61-.7-.68,0-1.23.25-1.67.74s-.66,1.16-.65,2h4.63Z"/>
    <path class="cls-16" d="M511.75,451.93v-13.41h-4.79v-2.73h12.83v2.73h-4.78v13.41h-3.26Z"/>
    <path class="cls-16" d="M521.46,438.65v-2.86h3.09v2.86h-3.09ZM521.46,451.93v-11.7h3.09v11.7h-3.09Z"/>
    <path class="cls-16" d="M527.5,440.23h2.85v1.6c1.02-1.24,2.24-1.86,3.65-1.86.75,0,1.4.15,1.95.46.55.31,1,.77,1.35,1.4.51-.62,1.07-1.09,1.66-1.4.59-.31,1.23-.46,1.91-.46.86,0,1.59.17,2.18.52s1.04.86,1.33,1.54c.21.5.32,1.31.32,2.42v7.48h-3.09v-6.68c0-1.16-.11-1.91-.32-2.25-.29-.44-.73-.66-1.32-.66-.43,0-.84.13-1.22.4-.38.26-.66.65-.83,1.16s-.25,1.32-.25,2.42v5.62h-3.09v-6.41c0-1.14-.05-1.87-.17-2.2s-.28-.58-.51-.74c-.23-.16-.55-.24-.94-.24-.48,0-.91.13-1.29.39s-.66.63-.82,1.11-.25,1.29-.25,2.41v5.68h-3.09v-11.7Z"/>
    <path class="cls-16" d="M554.55,448.21l3.08.52c-.4,1.13-1.02,1.99-1.88,2.58-.86.59-1.92.89-3.21.89-2.03,0-3.54-.66-4.52-1.99-.77-1.06-1.16-2.41-1.16-4.03,0-1.94.51-3.46,1.52-4.55,1.01-1.1,2.29-1.65,3.84-1.65,1.74,0,3.11.57,4.12,1.72,1.01,1.15,1.49,2.91,1.44,5.28h-7.75c.02.92.27,1.63.75,2.14.48.51,1.07.77,1.78.77.48,0,.89-.13,1.22-.4.33-.27.58-.69.75-1.28ZM554.73,445.08c-.02-.9-.25-1.58-.69-2.04-.44-.47-.98-.7-1.61-.7-.68,0-1.23.25-1.67.74s-.66,1.16-.65,2h4.63Z"/>
    <path class="cls-16" d="M389.17,477.79c0,.9-.32,1.67-.95,2.31s-1.4.95-2.3.95-1.67-.32-2.31-.96c-.64-.64-.95-1.41-.95-2.3s.32-1.66.95-2.3c.63-.64,1.4-.95,2.31-.95s1.66.31,2.3.95c.63.63.95,1.4.95,2.3Z"/>
    <path class="cls-16" d="M416.13,485.76h-3.55l-1.41-3.67h-6.45l-1.33,3.67h-3.46l6.29-16.15h3.45l6.46,16.15ZM410.13,479.38l-2.22-5.99-2.18,5.99h4.41Z"/>
    <path class="cls-16" d="M416.75,482.43l3.11-.47c.13.6.4,1.06.8,1.37.4.31.97.47,1.7.47.8,0,1.4-.15,1.81-.44.27-.21.41-.48.41-.83,0-.24-.07-.43-.22-.58-.15-.15-.5-.28-1.04-.41-2.5-.55-4.08-1.05-4.75-1.51-.92-.63-1.39-1.51-1.39-2.63,0-1.01.4-1.87,1.2-2.55.8-.69,2.04-1.04,3.72-1.04s2.79.26,3.57.78,1.31,1.29,1.61,2.31l-2.92.54c-.12-.46-.36-.8-.71-1.05-.35-.24-.85-.36-1.49-.36-.82,0-1.4.11-1.75.34-.23.16-.35.37-.35.63,0,.22.1.41.31.56.28.21,1.24.5,2.89.87,1.65.38,2.8.83,3.45,1.38.65.55.97,1.32.97,2.3,0,1.07-.45,1.99-1.34,2.76-.9.77-2.22,1.16-3.98,1.16-1.59,0-2.85-.32-3.78-.97-.93-.65-1.54-1.52-1.82-2.63Z"/>
    <path class="cls-16" d="M429.29,482.43l3.11-.47c.13.6.4,1.06.8,1.37.4.31.97.47,1.7.47.8,0,1.4-.15,1.81-.44.27-.21.41-.48.41-.83,0-.24-.07-.43-.22-.58-.15-.15-.5-.28-1.04-.41-2.5-.55-4.08-1.05-4.75-1.51-.92-.63-1.39-1.51-1.39-2.63,0-1.01.4-1.87,1.2-2.55.8-.69,2.04-1.04,3.72-1.04s2.79.26,3.57.78,1.31,1.29,1.61,2.31l-2.92.54c-.12-.46-.36-.8-.71-1.05-.35-.24-.85-.36-1.49-.36-.82,0-1.4.11-1.75.34-.23.16-.35.37-.35.63,0,.22.1.41.31.56.28.21,1.24.5,2.89.87,1.65.38,2.8.83,3.45,1.38.65.55.97,1.32.97,2.3,0,1.07-.45,1.99-1.34,2.76-.9.77-2.22,1.16-3.98,1.16-1.59,0-2.85-.32-3.78-.97-.93-.65-1.54-1.52-1.82-2.63Z"/>
    <path class="cls-16" d="M442.93,472.48v-2.86h3.09v2.86h-3.09ZM442.93,485.76v-11.7h3.09v11.7h-3.09Z"/>
    <path class="cls-16" d="M448.91,486.53l3.54.43c.06.41.19.69.41.85.29.22.76.33,1.39.33.81,0,1.41-.12,1.82-.36.27-.16.48-.42.62-.78.1-.26.14-.73.14-1.42v-1.71c-.93,1.26-2.09,1.89-3.5,1.89-1.57,0-2.82-.67-3.73-1.99-.72-1.05-1.08-2.36-1.08-3.92,0-1.96.47-3.46,1.42-4.49s2.12-1.55,3.52-1.55,2.64.63,3.58,1.9v-1.64h2.9v10.5c0,1.38-.11,2.41-.34,3.09-.23.68-.55,1.22-.96,1.61s-.96.69-1.65.92c-.69.22-1.55.33-2.6.33-1.98,0-3.39-.34-4.22-1.02-.83-.68-1.25-1.54-1.25-2.58,0-.1,0-.23.01-.38ZM451.67,479.67c0,1.24.24,2.15.72,2.73.48.58,1.07.86,1.78.86.76,0,1.4-.3,1.92-.89.52-.59.78-1.47.78-2.63s-.25-2.11-.75-2.7c-.5-.59-1.13-.88-1.89-.88s-1.35.29-1.83.87c-.48.58-.72,1.46-.72,2.64Z"/>
    <path class="cls-16" d="M473.61,485.76h-3.09v-5.97c0-1.26-.07-2.08-.2-2.45-.13-.37-.35-.66-.64-.87-.3-.21-.66-.31-1.07-.31-.54,0-1.02.15-1.44.44-.43.29-.72.68-.88,1.17-.16.48-.24,1.38-.24,2.69v5.3h-3.09v-11.7h2.88v1.72c1.02-1.32,2.3-1.98,3.85-1.98.68,0,1.31.12,1.87.37s.99.56,1.28.94c.29.38.49.81.61,1.3s.17,1.18.17,2.08v7.27Z"/>
    <path class="cls-16" d="M486.67,485.76v-13.41h-4.79v-2.73h12.83v2.73h-4.78v13.41h-3.26Z"/>
    <path class="cls-16" d="M501.89,482.04l3.08.52c-.4,1.13-1.02,1.99-1.88,2.58-.86.59-1.92.89-3.21.89-2.03,0-3.54-.66-4.52-1.99-.77-1.06-1.16-2.41-1.16-4.03,0-1.94.51-3.46,1.52-4.55,1.01-1.1,2.29-1.65,3.84-1.65,1.74,0,3.11.57,4.12,1.72,1.01,1.15,1.49,2.91,1.44,5.28h-7.75c.02.92.27,1.63.75,2.14.48.51,1.07.77,1.78.77.48,0,.89-.13,1.22-.4.33-.27.58-.69.75-1.28ZM502.07,478.91c-.02-.9-.25-1.58-.69-2.04-.44-.47-.98-.7-1.61-.7-.68,0-1.23.25-1.67.74s-.66,1.16-.65,2h4.63Z"/>
    <path class="cls-16" d="M509.97,477.63l-2.81-.51c.32-1.13.86-1.97,1.63-2.51.77-.54,1.92-.81,3.44-.81,1.38,0,2.41.16,3.08.49.67.33,1.15.74,1.43,1.24s.41,1.43.41,2.77l-.03,3.61c0,1.03.05,1.79.15,2.27.1.49.29,1.01.56,1.57h-3.06c-.08-.21-.18-.51-.3-.91-.05-.18-.09-.3-.11-.36-.53.51-1.09.9-1.7,1.16-.6.26-1.25.39-1.93.39-1.2,0-2.15-.33-2.85-.98-.69-.65-1.04-1.48-1.04-2.48,0-.66.16-1.25.47-1.77s.76-.91,1.33-1.19,1.39-.52,2.46-.72c1.45-.27,2.45-.53,3.01-.76v-.31c0-.59-.15-1.02-.44-1.27-.29-.25-.85-.38-1.66-.38-.55,0-.98.11-1.29.33-.31.22-.56.6-.75,1.14ZM514.11,480.15c-.4.13-1.02.29-1.88.47s-1.42.36-1.69.54c-.4.29-.61.65-.61,1.09s.16.81.48,1.12c.32.32.73.47,1.23.47.56,0,1.09-.18,1.6-.55.37-.28.62-.62.74-1.02.08-.26.12-.77.12-1.51v-.62Z"/>
    <path class="cls-16" d="M519.97,474.07h2.85v1.6c1.02-1.24,2.24-1.86,3.65-1.86.75,0,1.4.15,1.95.46.55.31,1,.77,1.35,1.4.51-.62,1.07-1.09,1.66-1.4.59-.31,1.23-.46,1.91-.46.86,0,1.59.17,2.18.52.59.35,1.04.86,1.33,1.54.21.5.32,1.31.32,2.42v7.48h-3.09v-6.68c0-1.16-.11-1.91-.32-2.25-.29-.44-.73-.66-1.32-.66-.43,0-.84.13-1.22.4-.38.26-.66.65-.83,1.16s-.25,1.32-.25,2.42v5.62h-3.09v-6.41c0-1.14-.05-1.87-.17-2.2s-.28-.58-.51-.74c-.23-.16-.55-.24-.94-.24-.48,0-.91.13-1.29.39s-.66.63-.82,1.11-.25,1.29-.25,2.41v5.68h-3.09v-11.7Z"/>
    <path class="cls-16" d="M546.5,485.76v-16.15h4.88l2.93,11.01,2.9-11.01h4.89v16.15h-3.03v-12.71l-3.21,12.71h-3.14l-3.19-12.71v12.71h-3.03Z"/>
    <path class="cls-16" d="M572.09,482.04l3.08.52c-.4,1.13-1.02,1.99-1.88,2.58-.86.59-1.92.89-3.21.89-2.03,0-3.54-.66-4.52-1.99-.77-1.06-1.16-2.41-1.16-4.03,0-1.94.51-3.46,1.52-4.55,1.01-1.1,2.29-1.65,3.84-1.65,1.74,0,3.11.57,4.12,1.72,1.01,1.15,1.49,2.91,1.44,5.28h-7.75c.02.92.27,1.63.75,2.14.48.51,1.07.77,1.78.77.48,0,.89-.13,1.22-.4.33-.27.58-.69.75-1.28ZM572.26,478.91c-.02-.9-.25-1.58-.69-2.04-.44-.47-.98-.7-1.61-.7-.68,0-1.23.25-1.67.74s-.66,1.16-.65,2h4.63Z"/>
    <path class="cls-16" d="M577.63,474.07h2.85v1.6c1.02-1.24,2.24-1.86,3.65-1.86.75,0,1.4.15,1.95.46.55.31,1,.77,1.35,1.4.51-.62,1.07-1.09,1.66-1.4.59-.31,1.23-.46,1.91-.46.86,0,1.59.17,2.18.52.59.35,1.04.86,1.33,1.54.21.5.32,1.31.32,2.42v7.48h-3.09v-6.68c0-1.16-.11-1.91-.32-2.25-.29-.44-.73-.66-1.32-.66-.43,0-.84.13-1.22.4-.38.26-.66.65-.83,1.16s-.25,1.32-.25,2.42v5.62h-3.09v-6.41c0-1.14-.05-1.87-.17-2.2s-.28-.58-.51-.74c-.23-.16-.55-.24-.94-.24-.48,0-.91.13-1.29.39s-.66.63-.82,1.11-.25,1.29-.25,2.41v5.68h-3.09v-11.7Z"/>
    <path class="cls-16" d="M597.78,485.76v-16.15h3.09v5.81c.96-1.09,2.09-1.63,3.39-1.63,1.42,0,2.6.52,3.54,1.55s1.4,2.51,1.4,4.44-.48,3.54-1.43,4.62c-.95,1.08-2.11,1.62-3.46,1.62-.67,0-1.33-.17-1.98-.5-.65-.33-1.21-.83-1.68-1.48v1.72h-2.88ZM600.85,479.66c0,1.21.19,2.11.57,2.69.54.82,1.25,1.23,2.14,1.23.68,0,1.26-.29,1.75-.88.48-.58.72-1.5.72-2.76,0-1.34-.24-2.3-.73-2.89-.48-.59-1.11-.89-1.86-.89s-1.36.29-1.85.87c-.49.58-.74,1.45-.74,2.63Z"/>
    <path class="cls-16" d="M618.46,482.04l3.08.52c-.4,1.13-1.02,1.99-1.88,2.58-.86.59-1.92.89-3.21.89-2.03,0-3.54-.66-4.52-1.99-.77-1.06-1.16-2.41-1.16-4.03,0-1.94.51-3.46,1.52-4.55,1.01-1.1,2.29-1.65,3.84-1.65,1.74,0,3.11.57,4.12,1.72,1.01,1.15,1.49,2.91,1.44,5.28h-7.75c.02.92.27,1.63.75,2.14.48.51,1.07.77,1.78.77.48,0,.89-.13,1.22-.4.33-.27.58-.69.75-1.28ZM618.64,478.91c-.02-.9-.25-1.58-.69-2.04-.44-.47-.98-.7-1.61-.7-.68,0-1.23.25-1.67.74s-.66,1.16-.65,2h4.63Z"/>
    <path class="cls-16" d="M627.2,485.76h-3.09v-11.7h2.88v1.66c.49-.79.93-1.3,1.33-1.55.39-.25.84-.37,1.34-.37.71,0,1.38.19,2.04.58l-.96,2.7c-.52-.34-1.01-.51-1.45-.51s-.8.12-1.1.36c-.3.24-.54.67-.71,1.29-.17.62-.26,1.93-.26,3.92v3.61Z"/>
    <path class="cls-16" d="M389.17,511.62c0,.9-.32,1.67-.95,2.31-.64.63-1.4.95-2.3.95s-1.67-.32-2.31-.96c-.64-.64-.95-1.41-.95-2.3s.32-1.66.95-2.3c.63-.63,1.4-.95,2.31-.95s1.66.32,2.3.95c.63.63.95,1.4.95,2.3Z"/>
    <path class="cls-16" d="M401.59,519.6v-16.15h11.07v2.73h-7.81v3.82h6.74v2.73h-6.74v6.86h-3.26Z"/>
    <path class="cls-16" d="M415.33,506.31v-2.86h3.09v2.86h-3.09ZM415.33,519.6v-11.7h3.09v11.7h-3.09Z"/>
    <path class="cls-16" d="M432.23,519.6h-3.09v-5.97c0-1.26-.07-2.08-.2-2.45-.13-.37-.35-.66-.64-.86-.3-.21-.66-.31-1.07-.31-.54,0-1.02.15-1.44.44-.43.29-.72.68-.88,1.17-.16.48-.24,1.38-.24,2.69v5.3h-3.09v-11.7h2.88v1.72c1.02-1.32,2.3-1.98,3.85-1.98.68,0,1.31.12,1.87.37s.99.56,1.28.94.49.81.61,1.3c.11.49.17,1.18.17,2.08v7.27Z"/>
    <path class="cls-16" d="M437.68,511.47l-2.81-.51c.32-1.13.86-1.97,1.63-2.51.77-.54,1.92-.82,3.44-.82,1.38,0,2.41.16,3.08.49.67.33,1.15.74,1.43,1.25s.41,1.43.41,2.77l-.03,3.61c0,1.03.05,1.79.15,2.27.1.49.29,1.01.56,1.57h-3.06c-.08-.21-.18-.51-.3-.91-.05-.18-.09-.3-.11-.36-.53.51-1.09.9-1.7,1.16-.6.26-1.25.39-1.93.39-1.2,0-2.15-.33-2.85-.98-.69-.65-1.04-1.48-1.04-2.48,0-.66.16-1.25.47-1.77.32-.52.76-.91,1.33-1.19.57-.28,1.39-.52,2.46-.72,1.45-.27,2.45-.53,3.01-.76v-.31c0-.59-.15-1.02-.44-1.27-.29-.25-.85-.38-1.66-.38-.55,0-.98.11-1.29.33s-.56.6-.75,1.14ZM441.82,513.98c-.4.13-1.02.29-1.88.47-.86.18-1.42.36-1.69.54-.4.29-.61.65-.61,1.09s.16.81.48,1.12c.32.32.73.47,1.23.47.56,0,1.09-.18,1.6-.55.37-.28.62-.62.74-1.02.08-.26.12-.77.12-1.51v-.62Z"/>
    <path class="cls-16" d="M447.92,519.6v-16.15h3.09v16.15h-3.09Z"/>
    <path class="cls-16" d="M454.18,506.31v-2.86h3.09v2.86h-3.09ZM454.18,519.6v-11.7h3.09v11.7h-3.09Z"/>
    <path class="cls-16" d="M459.2,519.6v-2.41l4.38-5.03c.72-.82,1.25-1.41,1.6-1.75-.36.02-.83.04-1.42.04l-4.13.02v-2.57h9.67v2.19l-4.47,5.15-1.57,1.71c.86-.05,1.39-.08,1.6-.08h4.79v2.72h-10.44Z"/>
    <path class="cls-16" d="M478.5,515.87l3.08.52c-.4,1.13-1.02,1.99-1.88,2.58s-1.92.89-3.21.89c-2.03,0-3.54-.67-4.52-1.99-.77-1.06-1.16-2.41-1.16-4.03,0-1.94.51-3.46,1.52-4.55,1.01-1.1,2.29-1.65,3.84-1.65,1.74,0,3.11.58,4.12,1.72,1.01,1.15,1.49,2.91,1.44,5.28h-7.75c.02.92.27,1.63.75,2.14.48.51,1.07.76,1.78.76.48,0,.89-.13,1.22-.4.33-.26.58-.69.75-1.28ZM478.67,512.75c-.02-.9-.25-1.58-.69-2.04-.44-.47-.98-.7-1.61-.7-.68,0-1.23.25-1.67.74s-.66,1.16-.65,2h4.63Z"/>
    <path class="cls-16" d="M490.57,503.45h6.45c1.28,0,2.23.05,2.86.16.63.11,1.19.33,1.68.67.5.34.91.79,1.24,1.35.33.56.5,1.19.5,1.89,0,.76-.2,1.45-.61,2.08-.41.63-.96,1.11-1.66,1.42.98.29,1.74.77,2.27,1.46.53.69.79,1.5.79,2.43,0,.73-.17,1.45-.51,2.14-.34.69-.81,1.25-1.4,1.66-.59.42-1.32.67-2.19.77-.54.06-1.85.1-3.93.11h-5.5v-16.15ZM493.83,506.14v3.73h2.14c1.27,0,2.06-.02,2.37-.05.56-.07,1-.26,1.32-.58.32-.32.48-.74.48-1.26s-.14-.9-.41-1.22c-.28-.31-.69-.5-1.23-.57-.32-.04-1.25-.06-2.79-.06h-1.87ZM493.83,512.56v4.32h3.02c1.17,0,1.92-.03,2.24-.1.48-.09.88-.3,1.18-.64.3-.34.46-.8.46-1.37,0-.48-.12-.9-.35-1.23-.24-.34-.58-.58-1.02-.74-.44-.15-1.41-.23-2.89-.23h-2.63Z"/>
    <path class="cls-16" d="M506.11,513.58c0-1.03.25-2.02.76-2.98s1.22-1.7,2.15-2.2c.93-.51,1.97-.76,3.11-.76,1.77,0,3.22.58,4.35,1.72,1.13,1.15,1.7,2.6,1.7,4.36s-.57,3.24-1.71,4.4c-1.14,1.16-2.58,1.75-4.31,1.75-1.07,0-2.09-.24-3.07-.73-.97-.48-1.71-1.19-2.22-2.13-.51-.94-.76-2.08-.76-3.42ZM509.28,513.75c0,1.16.28,2.05.83,2.67.55.62,1.23.92,2.04.92s1.48-.31,2.03-.92c.55-.62.82-1.51.82-2.69s-.27-2.03-.82-2.64c-.55-.62-1.22-.93-2.03-.93s-1.49.31-2.04.93c-.55.62-.83,1.5-.83,2.67Z"/>
    <path class="cls-16" d="M519.89,513.58c0-1.03.25-2.02.76-2.98s1.22-1.7,2.15-2.2c.93-.51,1.97-.76,3.11-.76,1.77,0,3.22.58,4.35,1.72,1.13,1.15,1.7,2.6,1.7,4.36s-.57,3.24-1.71,4.4c-1.14,1.16-2.58,1.75-4.31,1.75-1.07,0-2.09-.24-3.07-.73-.97-.48-1.71-1.19-2.22-2.13-.51-.94-.76-2.08-.76-3.42ZM523.06,513.75c0,1.16.28,2.05.83,2.67.55.62,1.23.92,2.04.92s1.48-.31,2.03-.92c.55-.62.82-1.51.82-2.69s-.27-2.03-.82-2.64c-.55-.62-1.22-.93-2.03-.93s-1.49.31-2.04.93c-.55.62-.83,1.5-.83,2.67Z"/>
    <path class="cls-16" d="M534.27,519.6v-16.15h3.09v8.57l3.62-4.12h3.81l-4,4.27,4.28,7.42h-3.34l-2.94-5.25-1.44,1.51v3.74h-3.09Z"/>
    <path class="cls-16" d="M546.92,506.31v-2.86h3.09v2.86h-3.09ZM546.92,519.6v-11.7h3.09v11.7h-3.09Z"/>
    <path class="cls-16" d="M563.83,519.6h-3.09v-5.97c0-1.26-.07-2.08-.2-2.45-.13-.37-.35-.66-.64-.86-.3-.21-.66-.31-1.07-.31-.54,0-1.02.15-1.44.44-.43.29-.72.68-.88,1.17-.16.48-.24,1.38-.24,2.69v5.3h-3.09v-11.7h2.88v1.72c1.02-1.32,2.3-1.98,3.85-1.98.68,0,1.31.12,1.87.37s.99.56,1.28.94.49.81.61,1.3c.11.49.17,1.18.17,2.08v7.27Z"/>
    <path class="cls-16" d="M566.68,520.37l3.54.43c.06.41.19.69.41.85.29.22.76.33,1.39.33.81,0,1.41-.12,1.82-.36.27-.16.48-.42.62-.78.1-.26.14-.73.14-1.42v-1.71c-.93,1.26-2.09,1.89-3.5,1.89-1.57,0-2.82-.66-3.73-1.99-.72-1.05-1.08-2.36-1.08-3.92,0-1.96.47-3.46,1.42-4.49.94-1.04,2.12-1.55,3.52-1.55s2.64.64,3.58,1.91v-1.64h2.9v10.5c0,1.38-.11,2.41-.34,3.09s-.55,1.22-.96,1.61c-.41.39-.96.69-1.65.91-.69.22-1.55.33-2.6.33-1.98,0-3.39-.34-4.22-1.02-.83-.68-1.25-1.54-1.25-2.58,0-.1,0-.23.01-.38ZM569.45,513.51c0,1.24.24,2.15.72,2.73.48.58,1.07.86,1.78.86.76,0,1.4-.3,1.92-.89.52-.59.78-1.47.78-2.63s-.25-2.11-.75-2.7c-.5-.59-1.13-.88-1.89-.88s-1.35.29-1.83.87c-.48.58-.72,1.46-.72,2.64Z"/>
  </g>
  <rect class="cls-20" x="839.24" y="291" width="226.76" height="208" rx="19.94" ry="19.94"/>
  <g>
    <path class="cls-16" d="M888.41,324.9v-15.75h4.76l2.86,10.74,2.83-10.74h4.77v15.75h-2.95v-12.4l-3.13,12.4h-3.06l-3.12-12.4v12.4h-2.95Z"/>
    <path class="cls-16" d="M920.98,324.9h-3.46l-1.38-3.58h-6.29l-1.3,3.58h-3.37l6.13-15.75h3.36l6.31,15.75ZM915.13,318.67l-2.17-5.84-2.13,5.84h4.3Z"/>
    <path class="cls-16" d="M922.7,324.9v-15.75h3.09l6.45,10.52v-10.52h2.95v15.75h-3.19l-6.35-10.27v10.27h-2.95Z"/>
    <path class="cls-16" d="M952.76,324.9h-3.46l-1.38-3.58h-6.29l-1.3,3.58h-3.37l6.13-15.75h3.36l6.31,15.75ZM946.9,318.67l-2.17-5.84-2.13,5.84h4.3Z"/>
    <path class="cls-16" d="M961.77,319.11v-2.65h6.85v6.27c-.67.64-1.63,1.21-2.9,1.7-1.26.49-2.54.74-3.84.74-1.65,0-3.08-.35-4.31-1.04-1.22-.69-2.14-1.68-2.76-2.96-.62-1.29-.92-2.68-.92-4.2,0-1.64.34-3.1,1.03-4.37s1.69-2.25,3.02-2.93c1.01-.52,2.27-.78,3.77-.78,1.96,0,3.48.41,4.58,1.23,1.1.82,1.81,1.95,2.12,3.4l-3.16.59c-.22-.77-.64-1.38-1.25-1.83-.61-.45-1.38-.67-2.29-.67-1.39,0-2.49.44-3.31,1.32-.82.88-1.23,2.19-1.23,3.92,0,1.87.42,3.27,1.25,4.21.83.94,1.92,1.4,3.27,1.4.67,0,1.33-.13,2-.39.67-.26,1.25-.58,1.72-.95v-2h-3.64Z"/>
    <path class="cls-16" d="M971.46,324.9v-15.75h3.18v15.75h-3.18Z"/>
    <path class="cls-16" d="M977.7,324.9v-15.75h3.09l6.45,10.52v-10.52h2.95v15.75h-3.19l-6.35-10.27v10.27h-2.95Z"/>
    <path class="cls-16" d="M1000.88,319.11v-2.65h6.85v6.27c-.67.64-1.63,1.21-2.9,1.7-1.26.49-2.54.74-3.84.74-1.65,0-3.08-.35-4.31-1.04-1.22-.69-2.14-1.68-2.76-2.96-.62-1.29-.92-2.68-.92-4.2,0-1.64.34-3.1,1.03-4.37s1.69-2.25,3.02-2.93c1.01-.52,2.27-.78,3.77-.78,1.96,0,3.48.41,4.58,1.23,1.1.82,1.81,1.95,2.12,3.4l-3.16.59c-.22-.77-.64-1.38-1.25-1.83-.61-.45-1.38-.67-2.29-.67-1.39,0-2.49.44-3.31,1.32-.82.88-1.23,2.19-1.23,3.92,0,1.87.42,3.27,1.25,4.21.83.94,1.92,1.4,3.27,1.4.67,0,1.33-.13,2-.39.67-.26,1.25-.58,1.72-.95v-2h-3.64Z"/>
    <path class="cls-16" d="M879.43,351.3h-3.46l-1.38-3.58h-6.29l-1.3,3.58h-3.37l6.13-15.75h3.36l6.31,15.75ZM873.57,345.07l-2.17-5.84-2.13,5.84h4.3Z"/>
    <path class="cls-16" d="M881.11,351.3v-15.75h5.1c1.93,0,3.19.08,3.78.24.9.24,1.66.75,2.27,1.54.61.79.91,1.81.91,3.07,0,.97-.18,1.78-.53,2.44s-.8,1.18-1.34,1.55c-.54.38-1.09.62-1.65.75-.76.15-1.86.23-3.3.23h-2.07v5.94h-3.18ZM884.29,338.22v4.47h1.74c1.25,0,2.09-.08,2.51-.25s.75-.42.99-.77c.24-.35.36-.76.36-1.22,0-.57-.17-1.05-.5-1.42s-.76-.61-1.28-.7c-.38-.07-1.14-.11-2.29-.11h-1.54Z"/>
    <path class="cls-16" d="M895.79,351.3v-15.75h5.1c1.93,0,3.19.08,3.78.24.9.24,1.66.75,2.27,1.54.61.79.91,1.81.91,3.07,0,.97-.18,1.78-.53,2.44s-.8,1.18-1.34,1.55c-.54.38-1.09.62-1.65.75-.76.15-1.86.23-3.3.23h-2.07v5.94h-3.18ZM898.97,338.22v4.47h1.74c1.25,0,2.09-.08,2.51-.25s.75-.42.99-.77c.24-.35.36-.76.36-1.22,0-.57-.17-1.05-.5-1.42s-.76-.61-1.28-.7c-.38-.07-1.14-.11-2.29-.11h-1.54Z"/>
    <path class="cls-16" d="M909.82,343.52c0-1.6.24-2.95.72-4.04.36-.8.85-1.52,1.47-2.16.62-.64,1.3-1.11,2.04-1.42.98-.42,2.11-.62,3.39-.62,2.32,0,4.18.72,5.57,2.16,1.39,1.44,2.09,3.44,2.09,6s-.69,4.53-2.07,5.97c-1.38,1.44-3.23,2.15-5.54,2.15s-4.2-.71-5.59-2.14c-1.38-1.43-2.07-3.4-2.07-5.9ZM913.09,343.42c0,1.78.41,3.13,1.24,4.05.82.92,1.87,1.38,3.14,1.38s2.31-.46,3.12-1.37c.81-.91,1.22-2.28,1.22-4.11s-.4-3.15-1.19-4.04c-.79-.89-1.84-1.33-3.15-1.33s-2.37.45-3.17,1.35c-.8.9-1.2,2.25-1.2,4.07Z"/>
    <path class="cls-16" d="M927.48,351.3v-15.75h3.18v15.75h-3.18Z"/>
    <path class="cls-16" d="M933.72,351.3v-15.75h3.09l6.45,10.52v-10.52h2.95v15.75h-3.19l-6.35-10.27v10.27h-2.95Z"/>
    <path class="cls-16" d="M953.12,351.3v-13.08h-4.67v-2.66h12.51v2.66h-4.66v13.08h-3.18Z"/>
    <path class="cls-16" d="M962.97,351.3v-15.75h4.76l2.86,10.74,2.83-10.74h4.77v15.75h-2.95v-12.4l-3.13,12.4h-3.06l-3.12-12.4v12.4h-2.95Z"/>
    <path class="cls-16" d="M981.34,351.3v-15.75h11.68v2.66h-8.5v3.49h7.91v2.65h-7.91v4.29h8.8v2.65h-11.98Z"/>
    <path class="cls-16" d="M996.04,351.3v-15.75h3.09l6.45,10.52v-10.52h2.95v15.75h-3.19l-6.35-10.27v10.27h-2.95Z"/>
    <path class="cls-16" d="M1015.44,351.3v-13.08h-4.67v-2.66h12.51v2.66h-4.66v13.08h-3.18Z"/>
    <path class="cls-16" d="M1024.53,346.18l3.09-.3c.19,1.04.56,1.8,1.13,2.29.57.49,1.34.73,2.3.73,1.02,0,1.8-.22,2.31-.65.52-.43.78-.94.78-1.52,0-.37-.11-.69-.33-.95-.22-.26-.6-.49-1.14-.68-.37-.13-1.22-.36-2.55-.69-1.7-.42-2.9-.94-3.59-1.56-.97-.87-1.45-1.92-1.45-3.17,0-.8.23-1.55.68-2.25.45-.7,1.11-1.23,1.96-1.6.86-.37,1.89-.55,3.1-.55,1.98,0,3.46.43,4.46,1.3,1,.87,1.52,2.02,1.57,3.47l-3.18.14c-.14-.81-.43-1.39-.88-1.75-.45-.35-1.12-.53-2.01-.53s-1.65.19-2.17.57c-.34.24-.5.57-.5.98,0,.37.16.69.47.96.4.34,1.38.69,2.92,1.05s2.69.74,3.43,1.13c.74.39,1.32.92,1.74,1.6.42.68.63,1.51.63,2.51,0,.9-.25,1.75-.75,2.54s-1.21,1.37-2.13,1.76c-.92.38-2.06.57-3.43.57-1.99,0-3.52-.46-4.59-1.38-1.07-.92-1.7-2.26-1.91-4.02Z"/>
  </g>
  <g>
    <path class="cls-16" d="M867.58,397.87c0,.9-.32,1.67-.95,2.31-.64.64-1.4.95-2.3.95s-1.67-.32-2.31-.96c-.64-.64-.95-1.41-.95-2.3s.32-1.66.95-2.3c.63-.64,1.4-.95,2.31-.95s1.66.32,2.3.95c.63.63.95,1.4.95,2.3Z"/>
    <path class="cls-16" d="M879.94,405.84v-16.15h4.88l2.93,11.01,2.9-11.01h4.89v16.15h-3.03v-12.71l-3.21,12.71h-3.14l-3.19-12.71v12.71h-3.03Z"/>
    <path class="cls-16" d="M898.04,399.83c0-1.03.25-2.02.76-2.98s1.22-1.7,2.15-2.2c.93-.51,1.97-.76,3.11-.76,1.77,0,3.22.57,4.35,1.72,1.13,1.15,1.7,2.6,1.7,4.36s-.57,3.24-1.71,4.4c-1.14,1.16-2.58,1.75-4.31,1.75-1.07,0-2.09-.24-3.07-.73-.97-.48-1.71-1.2-2.22-2.13s-.76-2.08-.76-3.42ZM901.21,399.99c0,1.16.28,2.05.83,2.67.55.62,1.23.92,2.04.92s1.48-.31,2.03-.92c.55-.62.82-1.51.82-2.69s-.27-2.03-.82-2.64c-.55-.62-1.22-.93-2.03-.93s-1.49.31-2.04.93c-.55.62-.83,1.51-.83,2.67Z"/>
    <path class="cls-16" d="M923.26,405.84h-2.87v-1.72c-.48.67-1.04,1.17-1.69,1.49-.65.33-1.31.49-1.97.49-1.34,0-2.5-.54-3.45-1.62-.96-1.08-1.44-2.59-1.44-4.53s.47-3.49,1.4-4.52c.93-1.03,2.11-1.55,3.54-1.55,1.31,0,2.44.54,3.39,1.63v-5.81h3.09v16.15ZM915,399.74c0,1.25.17,2.15.52,2.71.5.81,1.2,1.21,2.09,1.21.71,0,1.32-.3,1.82-.91.5-.61.75-1.51.75-2.71,0-1.34-.24-2.31-.73-2.9-.48-.59-1.11-.89-1.86-.89s-1.35.29-1.84.88c-.5.58-.74,1.46-.74,2.62Z"/>
    <path class="cls-16" d="M926.31,392.56v-2.86h3.09v2.86h-3.09ZM926.31,405.84v-11.7h3.09v11.7h-3.09Z"/>
    <path class="cls-16" d="M931.22,394.15h1.72v-.88c0-.98.1-1.72.31-2.2.21-.48.59-.88,1.16-1.18.56-.3,1.27-.46,2.13-.46s1.74.13,2.59.4l-.42,2.16c-.49-.12-.96-.18-1.42-.18s-.77.1-.96.31c-.2.21-.29.61-.29,1.21v.83h2.31v2.43h-2.31v9.26h-3.09v-9.26h-1.72v-2.43Z"/>
    <path class="cls-16" d="M938.62,394.15h3.29l2.8,8.3,2.73-8.3h3.21l-4.13,11.26-.74,2.04c-.27.68-.53,1.2-.78,1.56s-.53.65-.85.88c-.32.22-.71.4-1.18.52-.47.12-.99.19-1.58.19s-1.18-.06-1.75-.19l-.28-2.42c.48.1.92.14,1.31.14.72,0,1.25-.21,1.6-.63.34-.42.61-.96.79-1.61l-4.45-11.73Z"/>
    <path class="cls-16" d="M867.58,431.7c0,.9-.32,1.67-.95,2.31-.64.64-1.4.95-2.3.95s-1.67-.32-2.31-.96c-.64-.64-.95-1.41-.95-2.3s.32-1.66.95-2.3c.63-.64,1.4-.95,2.31-.95s1.66.32,2.3.95c.63.63.95,1.4.95,2.3Z"/>
    <path class="cls-16" d="M890.32,433.74l3.16,1c-.48,1.76-1.29,3.07-2.42,3.93-1.13.86-2.56,1.28-4.29,1.28-2.14,0-3.91-.73-5.29-2.2s-2.07-3.47-2.07-6.01c0-2.69.69-4.77,2.08-6.26s3.21-2.23,5.47-2.23c1.98,0,3.58.58,4.81,1.75.73.69,1.28,1.68,1.65,2.97l-3.23.77c-.19-.84-.59-1.5-1.2-1.98-.61-.48-1.34-.73-2.21-.73-1.2,0-2.17.43-2.91,1.29s-1.12,2.25-1.12,4.17c0,2.04.37,3.5,1.1,4.36s1.69,1.3,2.86,1.3c.87,0,1.61-.27,2.24-.83s1.07-1.42,1.34-2.6Z"/>
    <path class="cls-16" d="M898.57,431.55l-2.81-.51c.32-1.13.86-1.97,1.63-2.51.77-.54,1.92-.81,3.44-.81,1.38,0,2.41.16,3.08.49.67.33,1.15.74,1.43,1.24s.41,1.43.41,2.77l-.03,3.61c0,1.03.05,1.79.15,2.27.1.49.29,1.01.56,1.57h-3.06c-.08-.21-.18-.51-.3-.91-.05-.18-.09-.3-.11-.36-.53.51-1.09.9-1.7,1.16-.6.26-1.25.39-1.93.39-1.2,0-2.15-.33-2.85-.98-.69-.65-1.04-1.48-1.04-2.48,0-.66.16-1.25.47-1.77s.76-.91,1.33-1.19,1.39-.52,2.46-.72c1.45-.27,2.45-.52,3.01-.76v-.31c0-.59-.15-1.02-.44-1.27s-.85-.38-1.66-.38c-.55,0-.98.11-1.29.32-.31.22-.56.6-.75,1.14ZM902.71,434.06c-.4.13-1.02.29-1.88.47s-1.42.36-1.69.54c-.4.29-.61.65-.61,1.09s.16.81.48,1.12c.32.32.73.47,1.23.47.56,0,1.09-.18,1.6-.55.37-.28.62-.62.74-1.02.08-.26.12-.77.12-1.51v-.62Z"/>
    <path class="cls-16" d="M919.44,439.68h-3.09v-5.97c0-1.26-.07-2.08-.2-2.45s-.35-.66-.64-.86c-.3-.21-.66-.31-1.07-.31-.54,0-1.02.15-1.44.44s-.72.68-.88,1.17c-.16.48-.24,1.38-.24,2.69v5.3h-3.09v-11.7h2.88v1.72c1.02-1.32,2.3-1.98,3.85-1.98.68,0,1.31.12,1.87.37s.99.56,1.28.94c.29.38.49.81.61,1.3.11.48.17,1.18.17,2.08v7.27Z"/>
    <path class="cls-16" d="M932.77,431.44l-3.05.55c-.1-.61-.34-1.07-.7-1.38-.36-.31-.84-.46-1.42-.46-.77,0-1.39.27-1.84.8-.46.53-.69,1.42-.69,2.67,0,1.39.23,2.37.7,2.94.47.57,1.09.86,1.88.86.59,0,1.07-.17,1.44-.5s.64-.91.79-1.72l3.04.52c-.32,1.4-.92,2.45-1.82,3.16-.9.71-2.1,1.07-3.6,1.07-1.71,0-3.07-.54-4.09-1.62-1.02-1.08-1.53-2.57-1.53-4.48s.51-3.43,1.53-4.51,2.4-1.61,4.14-1.61c1.42,0,2.56.31,3.4.92.84.61,1.44,1.55,1.81,2.8Z"/>
    <path class="cls-16" d="M941.89,435.95l3.08.52c-.4,1.13-1.02,1.99-1.88,2.58-.86.59-1.92.89-3.21.89-2.03,0-3.54-.66-4.52-1.99-.77-1.06-1.16-2.41-1.16-4.03,0-1.94.51-3.46,1.52-4.55,1.01-1.1,2.29-1.65,3.84-1.65,1.74,0,3.11.57,4.12,1.72,1.01,1.15,1.49,2.91,1.44,5.28h-7.75c.02.92.27,1.63.75,2.14.48.51,1.07.77,1.78.77.48,0,.89-.13,1.22-.4.33-.26.58-.69.75-1.28ZM942.07,432.83c-.02-.9-.25-1.58-.69-2.04s-.98-.7-1.61-.7c-.68,0-1.23.25-1.67.74s-.66,1.16-.65,2h4.63Z"/>
    <path class="cls-16" d="M947.66,439.68v-16.15h3.09v16.15h-3.09Z"/>
    <path class="cls-16" d="M867.58,465.53c0,.9-.32,1.67-.95,2.31-.64.63-1.4.95-2.3.95s-1.67-.32-2.31-.96c-.64-.64-.95-1.41-.95-2.3s.32-1.66.95-2.3c.63-.63,1.4-.95,2.31-.95s1.66.32,2.3.95c.63.63.95,1.4.95,2.3Z"/>
    <path class="cls-16" d="M884.11,473.51l-5.77-16.15h3.54l4.09,11.95,3.95-11.95h3.46l-5.78,16.15h-3.48Z"/>
    <path class="cls-16" d="M894.6,460.23v-2.86h3.09v2.86h-3.09ZM894.6,473.51v-11.7h3.09v11.7h-3.09Z"/>
    <path class="cls-16" d="M907.64,469.79l3.08.52c-.4,1.13-1.02,1.99-1.88,2.58s-1.92.89-3.21.89c-2.03,0-3.54-.66-4.52-1.99-.77-1.06-1.16-2.41-1.16-4.03,0-1.94.51-3.46,1.52-4.55,1.01-1.1,2.29-1.65,3.84-1.65,1.74,0,3.11.58,4.12,1.72,1.01,1.15,1.49,2.91,1.44,5.28h-7.75c.02.92.27,1.63.75,2.14.48.51,1.07.77,1.78.77.48,0,.89-.13,1.22-.4.33-.26.58-.69.75-1.28ZM907.82,466.66c-.02-.9-.25-1.58-.69-2.04-.44-.47-.98-.7-1.61-.7-.68,0-1.23.25-1.67.74s-.66,1.16-.65,2h4.63Z"/>
    <path class="cls-16" d="M915.59,473.51l-3.7-11.7h3.01l2.19,7.66,2.02-7.66h2.98l1.95,7.66,2.24-7.66h3.05l-3.76,11.7h-2.97l-2.02-7.52-1.98,7.52h-3.01Z"/>
    <path class="cls-16" d="M937.23,457.36h5.96c1.34,0,2.37.1,3.07.31.95.28,1.76.77,2.43,1.49.68.71,1.19,1.58,1.54,2.62s.53,2.3.53,3.82c0,1.33-.17,2.47-.5,3.44-.4,1.17-.98,2.12-1.73,2.85-.57.55-1.33.98-2.29,1.29-.72.23-1.68.34-2.88.34h-6.13v-16.15ZM940.49,460.09v10.69h2.43c.91,0,1.57-.05,1.97-.15.53-.13.97-.36,1.32-.67.35-.31.63-.83.85-1.56.22-.72.33-1.71.33-2.96s-.11-2.21-.33-2.87c-.22-.67-.53-1.19-.92-1.56s-.9-.63-1.51-.76c-.46-.1-1.35-.15-2.68-.15h-1.46Z"/>
    <path class="cls-16" d="M960.28,469.79l3.08.52c-.4,1.13-1.02,1.99-1.88,2.58s-1.92.89-3.21.89c-2.03,0-3.54-.66-4.52-1.99-.77-1.06-1.16-2.41-1.16-4.03,0-1.94.51-3.46,1.52-4.55,1.01-1.1,2.29-1.65,3.84-1.65,1.74,0,3.11.58,4.12,1.72,1.01,1.15,1.49,2.91,1.44,5.28h-7.75c.02.92.27,1.63.75,2.14.48.51,1.07.77,1.78.77.48,0,.89-.13,1.22-.4.33-.26.58-.69.75-1.28ZM960.46,466.66c-.02-.9-.25-1.58-.69-2.04-.44-.47-.98-.7-1.61-.7-.68,0-1.23.25-1.67.74s-.66,1.16-.65,2h4.63Z"/>
    <path class="cls-16" d="M971.42,461.81v2.47h-2.11v4.71c0,.96.02,1.51.06,1.67.04.16.13.29.28.39.14.1.32.15.52.15.29,0,.7-.1,1.25-.3l.26,2.4c-.72.31-1.53.46-2.44.46-.56,0-1.06-.09-1.51-.28-.45-.19-.78-.43-.99-.73-.21-.3-.35-.7-.43-1.21-.07-.36-.1-1.09-.1-2.18v-5.1h-1.42v-2.47h1.42v-2.32l3.11-1.81v4.13h2.11Z"/>
    <path class="cls-16" d="M975.88,465.38l-2.81-.51c.32-1.13.86-1.97,1.63-2.51.77-.54,1.92-.82,3.44-.82,1.38,0,2.41.16,3.08.49.67.33,1.15.74,1.43,1.25s.41,1.43.41,2.77l-.03,3.61c0,1.03.05,1.79.15,2.27.1.49.29,1.01.56,1.57h-3.06c-.08-.21-.18-.51-.3-.91-.05-.18-.09-.3-.11-.36-.53.51-1.09.9-1.7,1.16-.6.26-1.25.38-1.93.38-1.2,0-2.15-.33-2.85-.98-.69-.65-1.04-1.48-1.04-2.48,0-.66.16-1.25.47-1.77s.76-.91,1.33-1.19,1.39-.52,2.46-.72c1.45-.27,2.45-.52,3.01-.76v-.31c0-.59-.15-1.02-.44-1.27-.29-.25-.85-.38-1.66-.38-.55,0-.98.11-1.29.32s-.56.6-.75,1.14ZM980.02,467.89c-.4.13-1.02.29-1.88.47s-1.42.36-1.69.54c-.4.29-.61.65-.61,1.09s.16.81.48,1.12c.32.32.73.47,1.23.47.56,0,1.09-.18,1.6-.55.37-.28.62-.62.74-1.02.08-.26.12-.77.12-1.51v-.62Z"/>
    <path class="cls-16" d="M986.11,460.23v-2.86h3.09v2.86h-3.09ZM986.11,473.51v-11.7h3.09v11.7h-3.09Z"/>
    <path class="cls-16" d="M992.38,473.51v-16.15h3.09v16.15h-3.09Z"/>
    <path class="cls-16" d="M997.55,470.17l3.11-.47c.13.6.4,1.06.8,1.37.4.31.97.47,1.7.47.8,0,1.4-.15,1.81-.44.27-.21.41-.48.41-.83,0-.23-.07-.43-.22-.58-.15-.15-.5-.28-1.04-.41-2.5-.55-4.08-1.05-4.75-1.51-.92-.63-1.39-1.51-1.39-2.63,0-1.01.4-1.86,1.2-2.56.8-.69,2.04-1.04,3.72-1.04s2.79.26,3.57.78,1.31,1.29,1.61,2.31l-2.92.54c-.12-.46-.36-.8-.71-1.05-.35-.24-.85-.36-1.49-.36-.82,0-1.4.12-1.75.34-.23.16-.35.37-.35.63,0,.22.1.41.31.56.28.21,1.24.5,2.89.87,1.65.37,2.8.83,3.45,1.38.65.55.97,1.32.97,2.3,0,1.07-.45,1.99-1.34,2.76-.9.77-2.22,1.16-3.98,1.16-1.59,0-2.85-.32-3.78-.97s-1.54-1.52-1.82-2.63Z"/>
  </g>
  <rect class="cls-7" x="1135.89" y="525.29" width="295.6" height="72.96" rx="15.81" ry="15.81"/>
  <text class="cls-14" transform="translate(1218.55 570.34)"><tspan class="cls-13" x="0" y="0">P</tspan><tspan class="cls-8" x="13.37" y="0">A</tspan><tspan class="cls-11" x="27.59" y="0">Y</tspan><tspan x="42.22" y="0" xml:space="preserve"> B</tspan><tspan class="cls-11" x="64.78" y="0">Y</tspan><tspan x="79.42" y="0" xml:space="preserve"> LINK </tspan></text>
  <rect class="cls-7" x="1135.89" y="630.17" width="295.6" height="72.96" rx="15.81" ry="15.81"/>
  <text class="cls-14" transform="translate(1218.55 673.31)"><tspan x="0" y="0">QR </tspan><tspan class="cls-13" x="40.1" y="0">P</tspan><tspan class="cls-8" x="53.47" y="0">A</tspan><tspan x="67.69" y="0">YMENT</tspan></text>
  <g>
    <rect class="cls-4" x="1182.1" y="541.26" width="9.93" height="20.97" rx="2.84" ry="2.84" transform="translate(737.83 -677.77) rotate(45)"/>
    <rect class="cls-4" x="1161.13" y="562.23" width="9.93" height="20.97" rx="2.84" ry="2.84" transform="translate(746.51 -656.81) rotate(45)"/>
    <line class="cls-4" x1="1183.11" y1="555.66" x2="1170.88" y2="567.9"/>
  </g>
  <g>
    <rect class="cls-4" x="1156.82" y="648.53" width="16.7" height="16.7"/>
    <rect class="cls-4" x="1161.83" y="653.54" width="6.68" height="6.68"/>
    <rect class="cls-4" x="1161.83" y="675.25" width="6.68" height="6.68"/>
    <rect class="cls-4" x="1183.54" y="653.54" width="6.68" height="6.68"/>
    <rect class="cls-4" x="1156.82" y="670.24" width="16.7" height="16.7"/>
    <polyline class="cls-4" points="1178.53 670.24 1185.21 670.24 1185.21 676.92"/>
    <polyline class="cls-4" points="1193.56 681.93 1185.21 681.93 1185.21 675.25"/>
    <rect class="cls-4" x="1178.53" y="648.53" width="16.7" height="16.7"/>
    <line class="cls-4" x1="1191.89" y1="670.24" x2="1191.89" y2="675.25"/>
    <line class="cls-4" x1="1195.23" y1="675.25" x2="1191.89" y2="675.25"/>
    <line class="cls-4" x1="1178.53" y1="675.25" x2="1178.53" y2="686.94"/>
    <line class="cls-4" x1="1185.21" y1="686.94" x2="1178.53" y2="686.94"/>
    <line class="cls-4" x1="1193.56" y1="681.93" x2="1193.56" y2="686.94"/>
  </g>
  <rect class="cls-17" x="1568.6" y="532.65" width="133.99" height="133.99" rx="19.94" ry="19.94"/>
  <g>
    <path class="cls-18" d="M1536.04,695.57v-16.15h2.14v6.63h8.39v-6.63h2.14v16.15h-2.14v-7.61h-8.39v7.61h-2.14Z"/>
    <path class="cls-18" d="M1551.61,687.71c0-2.68.72-4.78,2.16-6.29,1.44-1.52,3.3-2.27,5.57-2.27,1.49,0,2.83.36,4.03,1.07,1.2.71,2.11,1.71,2.74,2.98.63,1.27.94,2.72.94,4.33s-.33,3.1-.99,4.39c-.66,1.29-1.6,2.27-2.81,2.93-1.21.67-2.52,1-3.92,1-1.52,0-2.88-.37-4.08-1.1-1.2-.73-2.1-1.74-2.72-3.01-.62-1.27-.93-2.61-.93-4.03ZM1553.81,687.74c0,1.95.52,3.48,1.57,4.6,1.05,1.12,2.36,1.68,3.94,1.68s2.93-.57,3.97-1.7,1.56-2.73,1.56-4.81c0-1.31-.22-2.46-.67-3.44-.44-.98-1.09-1.74-1.95-2.28-.86-.54-1.82-.81-2.88-.81-1.51,0-2.81.52-3.9,1.56-1.09,1.04-1.64,2.77-1.64,5.2Z"/>
    <path class="cls-18" d="M1569.07,690.38l2.01-.18c.1.81.32,1.47.67,1.99.35.52.89.94,1.62,1.26s1.56.48,2.48.48c.82,0,1.54-.12,2.16-.36.62-.24,1.09-.58,1.39-1s.46-.88.46-1.38-.15-.95-.44-1.33c-.29-.38-.78-.7-1.45-.95-.43-.17-1.39-.43-2.88-.79-1.48-.36-2.52-.69-3.12-1.01-.77-.4-1.35-.91-1.72-1.5-.38-.6-.57-1.27-.57-2.01,0-.81.23-1.58.69-2.29.46-.71,1.14-1.25,2.03-1.61.89-.37,1.88-.55,2.96-.55,1.2,0,2.25.19,3.17.58.91.39,1.62.95,2.11,1.7s.76,1.6.79,2.54l-2.05.15c-.11-1.02-.48-1.79-1.12-2.31-.64-.52-1.57-.78-2.81-.78s-2.23.24-2.82.71-.89,1.04-.89,1.71c0,.58.21,1.06.63,1.43.41.37,1.48.76,3.22,1.15,1.74.39,2.93.74,3.57,1.03.94.43,1.63.98,2.08,1.65.45.66.67,1.43.67,2.3s-.25,1.67-.74,2.43c-.49.76-1.2,1.35-2.12,1.77-.92.42-1.96.63-3.11.63-1.46,0-2.69-.21-3.67-.64s-1.76-1.07-2.32-1.92c-.56-.86-.86-1.82-.89-2.9Z"/>
    <path class="cls-18" d="M1588.95,695.57v-14.24h-5.32v-1.91h12.8v1.91h-5.34v14.24h-2.14Z"/>
    <path class="cls-18" d="M1598.67,695.57v-16.15h11.67v1.91h-9.54v4.95h8.93v1.89h-8.93v5.5h9.91v1.91h-12.05Z"/>
    <path class="cls-18" d="M1613.67,695.57v-16.15h5.56c1.26,0,2.21.08,2.87.23.93.21,1.71.6,2.37,1.16.85.72,1.49,1.64,1.91,2.76.42,1.12.63,2.4.63,3.84,0,1.23-.14,2.31-.43,3.26-.29.95-.65,1.73-1.1,2.35-.45.62-.94,1.11-1.47,1.46-.53.36-1.17.63-1.93.81-.75.18-1.62.28-2.59.28h-5.83ZM1615.8,693.66h3.45c1.06,0,1.9-.1,2.5-.3s1.09-.48,1.45-.84c.51-.51.9-1.19,1.18-2.04.28-.85.42-1.89.42-3.11,0-1.69-.28-2.99-.83-3.89-.55-.91-1.23-1.51-2.02-1.82-.57-.22-1.49-.33-2.76-.33h-3.39v12.33Z"/>
    <path class="cls-18" d="M1636.22,695.57v-16.15h6.09c1.07,0,1.89.05,2.46.15.79.13,1.46.38,1.99.75.54.37.97.89,1.29,1.56.33.67.49,1.4.49,2.2,0,1.37-.44,2.54-1.31,3.49-.87.95-2.45,1.43-4.74,1.43h-4.14v6.56h-2.14ZM1638.36,687.1h4.17c1.38,0,2.36-.26,2.94-.77.58-.51.87-1.24.87-2.17,0-.68-.17-1.25-.51-1.74-.34-.48-.79-.8-1.35-.95-.36-.1-1.02-.14-1.99-.14h-4.13v5.77Z"/>
    <path class="cls-18" d="M1647.82,695.57l6.2-16.15h2.3l6.61,16.15h-2.43l-1.88-4.89h-6.75l-1.77,4.89h-2.27ZM1652.48,688.94h5.47l-1.68-4.47c-.51-1.36-.9-2.47-1.15-3.35-.21,1.04-.5,2.06-.87,3.08l-1.77,4.74Z"/>
    <path class="cls-18" d="M1667.51,695.57v-6.84l-6.22-9.31h2.6l3.18,4.87c.59.91,1.13,1.82,1.64,2.73.48-.84,1.07-1.8,1.76-2.85l3.13-4.75h2.49l-6.44,9.31v6.84h-2.14Z"/>
    <path class="cls-18" d="M1677.94,695.57v-16.15h3.22l3.82,11.43c.35,1.06.61,1.86.77,2.39.18-.59.47-1.45.86-2.59l3.87-11.23h2.87v16.15h-2.06v-13.51l-4.69,13.51h-1.93l-4.67-13.74v13.74h-2.06Z"/>
    <path class="cls-18" d="M1696.84,695.57v-16.15h11.67v1.91h-9.54v4.95h8.93v1.89h-8.93v5.5h9.91v1.91h-12.05Z"/>
    <path class="cls-18" d="M1711.82,695.57v-16.15h2.19l8.48,12.68v-12.68h2.05v16.15h-2.19l-8.48-12.69v12.69h-2.05Z"/>
    <path class="cls-18" d="M1732.23,695.57v-14.24h-5.32v-1.91h12.8v1.91h-5.34v14.24h-2.14Z"/>
    <path class="cls-18" d="M1608.23,722.64v-16.15h6.09c1.07,0,1.89.05,2.46.15.79.13,1.46.38,1.99.75.54.37.97.89,1.29,1.56.33.67.49,1.4.49,2.2,0,1.37-.44,2.54-1.31,3.49-.87.95-2.45,1.43-4.74,1.43h-4.14v6.56h-2.14ZM1610.37,714.17h4.17c1.38,0,2.36-.26,2.94-.77.58-.51.87-1.24.87-2.17,0-.68-.17-1.25-.51-1.74-.34-.48-.79-.8-1.35-.95-.36-.1-1.02-.14-1.99-.14h-4.13v5.77Z"/>
    <path class="cls-18" d="M1619.83,722.64l6.2-16.15h2.3l6.61,16.15h-2.43l-1.88-4.89h-6.75l-1.77,4.89h-2.27ZM1624.49,716.01h5.47l-1.68-4.47c-.51-1.36-.9-2.47-1.15-3.35-.21,1.04-.5,2.06-.87,3.08l-1.77,4.74Z"/>
    <path class="cls-18" d="M1644.2,716.3v-1.89h6.84s0,5.98,0,5.98c-1.05.84-2.13,1.47-3.25,1.89-1.12.42-2.26.63-3.44.63-1.59,0-3.03-.34-4.32-1.02-1.3-.68-2.27-1.66-2.94-2.95-.66-1.29-.99-2.72-.99-4.31s.33-3.04.99-4.4c.66-1.36,1.6-2.37,2.84-3.03,1.23-.66,2.65-.99,4.26-.99,1.17,0,2.22.19,3.17.57s1.68.91,2.22,1.58c.54.68.94,1.56,1.22,2.64l-1.93.53c-.24-.82-.54-1.47-.9-1.94-.36-.47-.87-.85-1.54-1.13-.67-.28-1.41-.42-2.22-.42-.98,0-1.82.15-2.53.45-.71.3-1.29.69-1.72,1.17-.44.48-.78,1.02-1.02,1.6-.41,1-.62,2.08-.62,3.25,0,1.44.25,2.64.74,3.61.5.97,1.22,1.69,2.16,2.16s1.95.7,3.02.7c.92,0,1.83-.18,2.71-.53.88-.36,1.55-.74,2-1.14v-3.01h-4.75Z"/>
    <path class="cls-18" d="M1654.23,722.64v-16.15h11.67v1.91h-9.54v4.95h8.93v1.89h-8.93v5.5h9.91v1.91h-12.05Z"/>
  </g>
  <g>
    <path class="cls-6" d="M1673.98,633.71h-77.68c-2.04,0-3.7-1.66-3.7-3.7v-62.1c0-2.46,2.01-4.48,4.48-4.48h76.12c2.46,0,4.48,2.01,4.48,4.48v62.1c0,2.04-1.66,3.7-3.7,3.7Z"/>
    <line class="cls-6" x1="1592.61" y1="581.93" x2="1677.68" y2="581.93"/>
    <circle class="cls-16" cx="1601.85" cy="572.68" r="3.7"/>
    <circle class="cls-16" cx="1612.95" cy="572.68" r="3.7"/>
    <circle class="cls-16" cx="1624.05" cy="572.68" r="3.7"/>
  </g>
  <g>
    <circle class="cls-4" cx="1635.77" cy="614.07" r="10.38"/>
    <path class="cls-4" d="M1628.35,606.82v-9.06c0-4.09,3.32-7.41,7.41-7.41,2.05,0,3.9.83,5.25,2.16,1.33,1.35,2.16,3.2,2.16,5.25v9.06"/>
    <line class="cls-4" x1="1635.77" y1="614.07" x2="1635.77" y2="617.03"/>
    <circle class="cls-16" cx="1635.77" cy="612.58" r="2.22"/>
  </g>
  <rect class="cls-21" x="1839.01" y="531.15" width="133.99" height="133.99" rx="19.94" ry="19.94"/>
  <text class="cls-9" transform="translate(1850.31 694.07)"><tspan x="0" y="0">Customer</tspan></text>
  <g>
    <path class="cls-6" d="M1918.81,577.66c0,7.91-6.76,14.25-14.81,13.54-7.14-.62-12.38-7.08-12.38-14.25v-4.03c0-7.17,5.24-13.63,12.38-14.25,8.06-.7,14.81,5.63,14.81,13.54v5.44Z"/>
    <path class="cls-6" d="M1912.36,603.79l-4.55,5.43c-1.36,1.62-3.85,1.62-5.21,0l-4.55-5.43c-1.89-2.26-5.07-3.12-7.77-1.95-12.12,5.28-20.9,16.8-22.28,30.5-.2,2.02,1.37,3.78,3.4,3.78h67.61c2.03,0,3.6-1.77,3.4-3.78-1.38-13.71-10.16-25.22-22.28-30.5-2.7-1.18-5.88-.31-7.77,1.95Z"/>
  </g>
  <g>
    <line class="cls-3" x1="951.24" y1="568.88" x2="1096.27" y2="568.88"/>
    <polygon class="cls-22" points="1091.6 584.84 1119.24 568.88 1091.6 552.93 1091.6 584.84"/>
  </g>
  <g>
    <line class="cls-3" x1="951.24" y1="674.55" x2="1096.27" y2="674.55"/>
    <polygon class="cls-22" points="1091.6 690.51 1119.24 674.55 1091.6 658.6 1091.6 690.51"/>
  </g>
  <line class="cls-3" x1="951.54" y1="567.54" x2="951.54" y2="677.53"/>
  <line class="cls-3" x1="198.02" y1="622.6" x2="951.01" y2="622.6"/>
  <g>
    <line class="cls-3" x1="266.02" y1="118.83" x2="326.69" y2="119.07"/>
    <polygon class="cls-22" points="321.95 135.01 349.65 119.16 322.08 103.09 321.95 135.01"/>
  </g>
  <g>
    <line class="cls-3" x1="266.02" y1="376.21" x2="326.69" y2="376.45"/>
    <polygon class="cls-22" points="321.95 392.39 349.65 376.54 322.08 360.47 321.95 392.39"/>
  </g>
  <line class="cls-3" x1="268.79" y1="119.62" x2="269.16" y2="567.67"/>
  <line class="cls-3" x1="197.8" y1="566.96" x2="269.16" y2="566.96"/>
  <g>
    <line class="cls-3" x1="737.8" y1="375.09" x2="798.46" y2="375.33"/>
    <polygon class="cls-22" points="793.73 391.27 821.42 375.42 793.85 359.36 793.73 391.27"/>
  </g>
  <g>
    <line class="cls-3" x1="952.5" y1="227.97" x2="1104.06" y2="227.97"/>
    <polygon class="cls-22" points="1099.39 243.93 1127.02 227.97 1099.39 212.01 1099.39 243.93"/>
  </g>
  <line class="cls-3" x1="952.36" y1="102.09" x2="952.36" y2="300.75"/>
  <line class="cls-3" x1="686.14" y1="105.56" x2="952.5" y2="105.56"/>
  <g>
    <polygon class="cls-22" points="1504.52 578.75 1485.89 578.75 1511.21 609.86 1485.89 640.96 1504.52 640.96 1529.85 609.86 1504.52 578.75"/>
    <rect class="cls-22" x="1464.36" y="596.57" width="48.77" height="26.58"/>
  </g>
  <g>
    <polygon class="cls-22" points="1783.87 578.75 1765.24 578.75 1790.57 609.86 1765.24 640.96 1783.87 640.96 1809.2 609.86 1783.87 578.75"/>
    <rect class="cls-22" x="1743.71" y="596.57" width="48.77" height="26.58"/>
  </g>
  <line class="cls-5" x1="362" y1="351" x2="727" y2="351"/>
  <line class="cls-5" x1="833" y1="370.5" x2="1065.5" y2="370.5"/>
  <text class="cls-15" transform="translate(448.33 61.59)"><tspan x="0" y="0">SETTING U</tspan><tspan class="cls-10" x="133.34" y="0">P</tspan></text>
  <line class="cls-5" x1="362" y1="82.5" x2="690.5" y2="82.5"/>
</svg>