<?xml version="1.0" encoding="utf-8"?>
<!-- Generator: Adobe Illustrator 28.2.0, SVG Export Plug-In . SVG Version: 6.00 Build 0)  -->
<svg version="1.1" id="Layer_1" xmlns="http://www.w3.org/2000/svg" xmlns:xlink="http://www.w3.org/1999/xlink" x="0px" y="0px"
	 viewBox="0 0 700 320" style="enable-background:new 0 0 700 320;" xml:space="preserve">
<style type="text/css">
	.st0{clip-path:url(#SVGID_00000083794561231233681680000012769084991702358936_);}
	.st1{fill:url(#SVGID_00000039117789814068177620000010594730435281037454_);}
	.st2{opacity:0.41;clip-path:url(#SVGID_00000159431879907545212470000005037468175834869436_);fill:#C5CAE9;}
	.st3{opacity:0.5;fill:#FFFFFF;}
	.st4{opacity:0.56;}
	.st5{fill:#C5CAE9;}
	.st6{fill:#242B5B;}
	.st7{fill:url(#SVGID_00000179626755277089038450000000228418195155669692_);}
	.st8{fill:url(#SVGID_00000133526233426029245480000013784327086691454874_);}
	.st9{fill:url(#SVGID_00000121274983671288146640000014573795689908065961_);}
	.st10{fill:url(#SVGID_00000075873967905597073450000017200427215242400178_);}
	.st11{fill:url(#SVGID_00000010290220910213918450000006292281301285223583_);}
	.st12{fill:url(#SVGID_00000132797652812362146670000015874094084253560711_);}
	.st13{opacity:0.35;}
	.st14{fill:url(#SVGID_00000134970326213834003160000012880658870182455971_);}
	.st15{fill:url(#SVGID_00000076599898388052885220000009227767933526620312_);}
	.st16{fill:url(#SVGID_00000116917993519465730500000001634409591645130374_);}
	.st17{fill:url(#SVGID_00000096780468028635223120000012268136429485187245_);}
	.st18{fill:#7986CB;}
	.st19{opacity:0.6;fill:#7986CB;}
	.st20{fill:url(#SVGID_00000000204535093903988620000011953175239264852158_);}
	.st21{fill:url(#SVGID_00000174579669783720605450000002158618995091887550_);}
	.st22{fill:#0078C0;}
	.st23{fill:url(#SVGID_00000078002872230632459240000017166827516638406074_);}
	.st24{fill:#EAEEF1;}
	.st25{opacity:0.2;}
	.st26{fill:#FFFFFF;}
	.st27{fill:url(#SVGID_00000111190529738822687750000004638136983287586709_);}
	.st28{fill:url(#SVGID_00000013880176947489413160000010643452582446133920_);}
	.st29{opacity:0.57;fill:#FB8C00;}
	.st30{fill:none;stroke:#5C6BC0;stroke-width:2;stroke-linecap:round;stroke-linejoin:round;stroke-miterlimit:10;}
	.st31{fill:url(#SVGID_00000049939781522245624230000000633298043081082815_);}
	.st32{fill:url(#SVGID_00000009556538613580515810000012920906571790778004_);}
	.st33{fill:url(#SVGID_00000156578990894854007160000014144846945372072606_);}
	.st34{fill:url(#SVGID_00000052785787920701049830000006420735529456337035_);}
	.st35{fill:url(#SVGID_00000012443214656656332050000003608971029908904608_);}
	.st36{opacity:0.24;}
	.st37{font-family:'NasalizationRg-Regular';}
	.st38{font-size:64.4px;}
</style>
<g>
	<defs>
		<path id="SVGID_1_" d="M682.9,320H17.1C7.7,320,0,312.3,0,302.9V17.1C0,7.7,7.7,0,17.1,0h665.8c9.4,0,17.1,7.7,17.1,17.1v285.8
			C700,312.3,692.3,320,682.9,320z"/>
	</defs>
	<clipPath id="SVGID_00000108288056899309508320000013633090176887117458_">
		<use xlink:href="#SVGID_1_"  style="overflow:visible;"/>
	</clipPath>
	<g style="clip-path:url(#SVGID_00000108288056899309508320000013633090176887117458_);">
		
			<linearGradient id="SVGID_00000049922412728189036570000015591484702825391804_" gradientUnits="userSpaceOnUse" x1="350" y1="374.2075" x2="350" y2="-92.4592">
			<stop  offset="0" style="stop-color:#C5CAE9"/>
			<stop  offset="1" style="stop-color:#E8EAF6"/>
		</linearGradient>
		<rect y="-92.5" style="fill:url(#SVGID_00000049922412728189036570000015591484702825391804_);" width="700" height="466.7"/>
		<g>
			<defs>
				<rect id="SVGID_00000167364102971061764480000004046282010873970106_" y="-92.5" width="700" height="466.7"/>
			</defs>
			<clipPath id="SVGID_00000101790674585089995110000017490095391324171702_">
				<use xlink:href="#SVGID_00000167364102971061764480000004046282010873970106_"  style="overflow:visible;"/>
			</clipPath>
			
				<circle style="opacity:0.41;clip-path:url(#SVGID_00000101790674585089995110000017490095391324171702_);fill:#C5CAE9;" cx="350" cy="216" r="268.3"/>
		</g>
	</g>
	<g style="clip-path:url(#SVGID_00000108288056899309508320000013633090176887117458_);">
		<g>
			<path class="st3" d="M576.7,91.4L576.7,91.4c0-3.9-3.1-7-7-7H348.9c-3.9,0-7,3.1-7,7l0,0c0,3.9,3.1,7,7,7h162.4c3.9,0,7,3.1,7,7
				l0,0c0,3.9-3.1,7-7,7H404.6c-3.9,0-7,3.1-7,7l0,0c0,3.9,3.1,7,7,7h58.7c3.9,0,7,3.1,7,7v0c0,3.9-3.1,7-7,7h-21.5
				c-3.9,0-7,3.1-7,7l0,0c0,3.9,3.1,7,7,7h116.3c3.9,0,7-3.1,7-7l0,0c0-3.9-3.1-7-7-7H520c-3.9,0-7-3.1-7-7v0c0-3.9,3.1-7,7-7h94.8
				c3.9,0,7-3.1,7-7l0,0c0-3.9-3.1-7-7-7h-67.5c-3.9,0-7-3.1-7-7l0,0c0-3.9,3.1-7,7-7h22.3C573.5,98.4,576.7,95.2,576.7,91.4z"/>
			<path class="st3" d="M293.6,176.6L293.6,176.6c0-3.9-3.1-7-7-7h-152c-3.9,0-7,3.1-7,7l0,0c0,3.9,3.1,7,7,7h50.7c3.9,0,7,3.1,7,7
				l0,0c0,3.9-3.1,7-7,7h-117c-3.9,0-7,3.1-7,7l0,0c0,3.9,3.1,7,7,7h84.8c3.9,0,7,3.1,7,7v0c0,3.9-3.1,7-7,7h-21.5c-3.9,0-7,3.1-7,7
				l0,0c0,3.9,3.1,7,7,7h120.1c3.9,0,7-3.1,7-7l0,0c0-3.9-3.1-7-7-7h-38.2c-3.9,0-7-3.1-7-7v0c0-3.9,3.1-7,7-7h130.3
				c3.9,0,7-3.1,7-7l0,0c0-3.9-3.1-7-7-7H220.5c-3.9,0-7-3.1-7-7l0,0c0-3.9,3.1-7,7-7h66.2C290.5,183.6,293.6,180.5,293.6,176.6z"/>
		</g>
		<g>
			<g class="st4">
				<path class="st5" d="M583.9,255.4v-8.3l-14.6-3.1c-0.6-3.9-1.6-7.6-3-11.2l11.1-9.9l-4.2-7.2l-14.2,4.6c-2.4-3-5.2-5.8-8.2-8.2
					l4.6-14.2l-7.2-4.2l-9.9,11.1c-3.5-1.4-7.3-2.4-11.2-3l-3.1-14.6h-8.3l-3.1,14.6c-3.9,0.6-7.6,1.6-11.2,3l-9.9-11.1l-7.2,4.2
					l4.6,14.2c-3,2.4-5.8,5.2-8.2,8.2l-14.2-4.6l-4.2,7.2l11.1,9.9c-1.4,3.5-2.4,7.3-3,11.2l-14.6,3.1v8.3l14.6,3.1
					c0.6,3.9,1.6,7.6,3,11.2l-11.1,9.9l4.2,7.2l14.2-4.6c2.4,3,5.2,5.8,8.2,8.2l-4.6,14.2l7.2,4.2l9.9-11.1c3.5,1.4,7.3,2.4,11.2,3
					l3.1,14.6h8.3l3.1-14.6c3.9-0.6,7.6-1.6,11.2-3l9.9,11.1l7.2-4.2l-4.6-14.2c3-2.4,5.8-5.2,8.2-8.2l14.2,4.6l4.2-7.2l-11.1-9.9
					c1.4-3.5,2.4-7.3,3-11.2L583.9,255.4z M556.3,251.3c0,20.1-16.3,36.4-36.4,36.4c-20.1,0-36.4-16.3-36.4-36.4
					c0-20.1,16.3-36.4,36.4-36.4C540,214.9,556.3,231.2,556.3,251.3z"/>
				
					<ellipse transform="matrix(0.2314 -0.9728 0.9728 0.2314 155.1716 698.9672)" class="st5" cx="520" cy="251.3" rx="15.9" ry="15.9"/>
			</g>
			<g>
				<rect x="167.2" y="188.6" class="st6" width="91.9" height="87.7"/>
				<g>
					
						<linearGradient id="SVGID_00000051341226379184848510000001921042092101745034_" gradientUnits="userSpaceOnUse" x1="155.7885" y1="188.6311" x2="270.4913" y2="188.6311">
						<stop  offset="0" style="stop-color:#FF9100"/>
						<stop  offset="1" style="stop-color:#FFC46E"/>
					</linearGradient>
					<path style="fill:url(#SVGID_00000051341226379184848510000001921042092101745034_);" d="M270.5,196.1H155.8l0,0
						c0-8.2,6.7-14.9,14.9-14.9h84.9C263.8,181.2,270.5,187.9,270.5,196.1L270.5,196.1z"/>
					
						<linearGradient id="SVGID_00000098932180090806671800000013116479009500123052_" gradientUnits="userSpaceOnUse" x1="155.7885" y1="210.5503" x2="270.4913" y2="210.5503">
						<stop  offset="0" style="stop-color:#FF9100"/>
						<stop  offset="1" style="stop-color:#FFC46E"/>
					</linearGradient>
					
						<rect x="155.8" y="203.1" style="fill:url(#SVGID_00000098932180090806671800000013116479009500123052_);" width="114.7" height="14.9"/>
					
						<linearGradient id="SVGID_00000044144086576922197290000015586618736921257104_" gradientUnits="userSpaceOnUse" x1="155.7885" y1="232.4695" x2="270.4913" y2="232.4695">
						<stop  offset="0" style="stop-color:#FF9100"/>
						<stop  offset="1" style="stop-color:#FFC46E"/>
					</linearGradient>
					
						<rect x="155.8" y="225" style="fill:url(#SVGID_00000044144086576922197290000015586618736921257104_);" width="114.7" height="14.9"/>
					
						<linearGradient id="SVGID_00000098191168948393256370000001873080559800670350_" gradientUnits="userSpaceOnUse" x1="155.7885" y1="254.3887" x2="270.4913" y2="254.3887">
						<stop  offset="0" style="stop-color:#FF9100"/>
						<stop  offset="1" style="stop-color:#FFC46E"/>
					</linearGradient>
					
						<rect x="155.8" y="246.9" style="fill:url(#SVGID_00000098191168948393256370000001873080559800670350_);" width="114.7" height="14.9"/>
					
						<linearGradient id="SVGID_00000165927113374009421340000014697431813226630302_" gradientUnits="userSpaceOnUse" x1="155.7885" y1="276.3078" x2="270.4913" y2="276.3078">
						<stop  offset="0" style="stop-color:#FF9100"/>
						<stop  offset="1" style="stop-color:#FFC46E"/>
					</linearGradient>
					<path style="fill:url(#SVGID_00000165927113374009421340000014697431813226630302_);" d="M255.6,283.8h-84.9
						c-8.2,0-14.9-6.7-14.9-14.9l0,0h114.7l0,0C270.5,277.1,263.8,283.8,255.6,283.8z"/>
				</g>
				
					<linearGradient id="SVGID_00000011752523281986786380000012961540015998339243_" gradientUnits="userSpaceOnUse" x1="155.7885" y1="276.3078" x2="270.4913" y2="276.3078">
					<stop  offset="0" style="stop-color:#FF9100"/>
					<stop  offset="1" style="stop-color:#FFC46E"/>
				</linearGradient>
				<path style="fill:url(#SVGID_00000011752523281986786380000012961540015998339243_);" d="M255.6,283.8h-84.9
					c-8.2,0-14.9-6.7-14.9-14.9l0,0h114.7l0,0C270.5,277.1,263.8,283.8,255.6,283.8z"/>
				<g>
					<path class="st6" d="M177.9,188.6c0,1.3-1.1,2.4-2.4,2.4c-1.3,0-2.4-1.1-2.4-2.4c0-1.3,1.1-2.4,2.4-2.4
						C176.9,186.2,177.9,187.3,177.9,188.6z"/>
					<path class="st6" d="M188.7,188.6c0,1.3-1.1,2.4-2.4,2.4c-1.3,0-2.4-1.1-2.4-2.4c0-1.3,1.1-2.4,2.4-2.4
						C187.6,186.2,188.7,187.3,188.7,188.6z"/>
					<path class="st6" d="M199.4,188.6c0,1.3-1.1,2.4-2.4,2.4c-1.3,0-2.4-1.1-2.4-2.4c0-1.3,1.1-2.4,2.4-2.4
						C198.4,186.2,199.4,187.3,199.4,188.6z"/>
				</g>
				<g class="st13">
					
						<linearGradient id="SVGID_00000182491250744511905800000014902371529213652617_" gradientUnits="userSpaceOnUse" x1="155.7885" y1="188.6311" x2="270.4911" y2="188.6311">
						<stop  offset="0" style="stop-color:#FF9100"/>
						<stop  offset="1" style="stop-color:#FFC46E"/>
					</linearGradient>
					<path style="fill:url(#SVGID_00000182491250744511905800000014902371529213652617_);" d="M270.5,196.1
						c0-8.2-6.7-14.9-14.9-14.9h-59.5l14.9,14.9L270.5,196.1L270.5,196.1z"/>
					
						<linearGradient id="SVGID_00000047751730449622900620000009351351099215057582_" gradientUnits="userSpaceOnUse" x1="155.7886" y1="210.5503" x2="270.4913" y2="210.5503">
						<stop  offset="0" style="stop-color:#FF9100"/>
						<stop  offset="1" style="stop-color:#FFC46E"/>
					</linearGradient>
					<polygon style="fill:url(#SVGID_00000047751730449622900620000009351351099215057582_);" points="270.5,203.1 218,203.1 
						232.9,218 270.5,218 					"/>
					
						<linearGradient id="SVGID_00000010310167584733080570000002790599088276345008_" gradientUnits="userSpaceOnUse" x1="155.7887" y1="232.4695" x2="270.4916" y2="232.4695">
						<stop  offset="0" style="stop-color:#FF9100"/>
						<stop  offset="1" style="stop-color:#FFC46E"/>
					</linearGradient>
					<polygon style="fill:url(#SVGID_00000010310167584733080570000002790599088276345008_);" points="270.5,225 239.9,225 
						254.8,239.9 270.5,239.9 					"/>
					
						<linearGradient id="SVGID_00000163052826834287272540000007369370343043589566_" gradientUnits="userSpaceOnUse" x1="155.7877" y1="251.2749" x2="270.4913" y2="251.2749">
						<stop  offset="0" style="stop-color:#FF9100"/>
						<stop  offset="1" style="stop-color:#FFC46E"/>
					</linearGradient>
					<polygon style="fill:url(#SVGID_00000163052826834287272540000007369370343043589566_);" points="270.5,246.9 261.8,246.9 
						270.5,255.6 					"/>
				</g>
			</g>
			<g>
				<polygon class="st18" points="392,299.2 308,299.2 319.8,241.5 380.2,241.5 				"/>
				<polygon class="st19" points="385.7,267.8 314.3,267.8 319.8,241.5 380.2,241.5 				"/>
				
					<linearGradient id="SVGID_00000129168973912853075730000016414504835104720287_" gradientUnits="userSpaceOnUse" x1="278.0268" y1="301.022" x2="421.9731" y2="301.022">
					<stop  offset="0" style="stop-color:#CCD1EC"/>
					<stop  offset="1" style="stop-color:#FFFFFF"/>
				</linearGradient>
				<path style="fill:url(#SVGID_00000129168973912853075730000016414504835104720287_);" d="M422,307.6H278l0,0
					c0-7.2,5.9-13.1,13.1-13.1h117.8C416.1,294.5,422,300.3,422,307.6L422,307.6z"/>
				
					<linearGradient id="SVGID_00000065039650155607210430000008706547104688776068_" gradientUnits="userSpaceOnUse" x1="350" y1="261.8737" x2="350" y2="76.8875">
					<stop  offset="0" style="stop-color:#CCD1EC"/>
					<stop  offset="1" style="stop-color:#FFFFFF"/>
				</linearGradient>
				<path style="fill:url(#SVGID_00000065039650155607210430000008706547104688776068_);" d="M477.1,261.9H222.9
					c-8,0-14.4-6.5-14.4-14.4V91.3c0-8,6.5-14.4,14.4-14.4h254.2c8,0,14.4,6.5,14.4,14.4v156.1C491.5,255.4,485.1,261.9,477.1,261.9
					z"/>
				<rect x="216.1" y="90.1" class="st22" width="267.8" height="141.2"/>
				
					<linearGradient id="SVGID_00000183215099603364955080000014899443143203103147_" gradientUnits="userSpaceOnUse" x1="350" y1="231.2732" x2="350" y2="90.0995">
					<stop  offset="0" style="stop-color:#3949AB"/>
					<stop  offset="1" style="stop-color:#5C6BC0"/>
				</linearGradient>
				
					<rect x="216.1" y="90.1" style="fill:url(#SVGID_00000183215099603364955080000014899443143203103147_);" width="267.8" height="141.2"/>
				<rect x="216.1" y="90.1" class="st19" width="267.8" height="9.5"/>
				<circle class="st24" cx="350" cy="246.6" r="6"/>
				<g class="st25">
					<polygon class="st26" points="483.9,90.1 296.4,90.1 437.6,231.3 483.9,231.3 					"/>
				</g>
			</g>
			<g>
				<g>
					
						<linearGradient id="SVGID_00000081622217139731848800000005134135162794656176_" gradientUnits="userSpaceOnUse" x1="237.8995" y1="170.0739" x2="237.8995" y2="56.2138">
						<stop  offset="0" style="stop-color:#CCD1EC"/>
						<stop  offset="1" style="stop-color:#FFFFFF"/>
					</linearGradient>
					<path style="fill:url(#SVGID_00000081622217139731848800000005134135162794656176_);" d="M324.3,144.2H151.5
						c-3,0-5.4-2.4-5.4-5.4V62.6c0-3,2.4-5.4,5.4-5.4h172.9c3,0,5.4,2.4,5.4,5.4v76.2C329.8,141.8,327.3,144.2,324.3,144.2z"/>
					<g>
						
							<linearGradient id="SVGID_00000055687461098607751080000004031481723684394153_" gradientUnits="userSpaceOnUse" x1="152.3531" y1="69.3145" x2="323.4458" y2="69.3145">
							<stop  offset="0" style="stop-color:#FF9100"/>
							<stop  offset="1" style="stop-color:#FFC46E"/>
						</linearGradient>
						<path style="fill:url(#SVGID_00000055687461098607751080000004031481723684394153_);" d="M317.6,75.2H158.2
							c-3.2,0-5.9-2.6-5.9-5.9l0,0c0-3.2,2.6-5.9,5.9-5.9h159.3c3.2,0,5.9,2.6,5.9,5.9l0,0C323.4,72.6,320.8,75.2,317.6,75.2z"/>
						<path class="st29" d="M158.2,65.7h159.3c2.9,0,5.2,2.1,5.8,4.8c0.1-0.4,0.1-0.7,0.1-1.1c0-3.2-2.6-5.9-5.9-5.9H158.2
							c-3.2,0-5.9,2.6-5.9,5.9c0,0.4,0,0.7,0.1,1.1C153,67.7,155.4,65.7,158.2,65.7z"/>
						<circle class="st26" cx="158.6" cy="69.3" r="1.7"/>
						<circle class="st26" cx="166.8" cy="69.3" r="1.7"/>
						<circle class="st26" cx="175" cy="69.3" r="1.7"/>
					</g>
					<g>
						<g>
							<g>
								<polyline class="st30" points="177.6,120.8 163.5,112.4 177.6,104.1 								"/>
								<polyline class="st30" points="205.5,104.1 219.6,112.4 205.5,120.8 								"/>
							</g>
							<line class="st30" x1="202.4" y1="97.6" x2="180.7" y2="127.3"/>
						</g>
						<g>
							<path class="st5" d="M313.5,104.2h-81.4c-1.2,0-2.3-1-2.3-2.3l0,0c0-1.2,1-2.3,2.3-2.3h81.4c1.2,0,2.3,1,2.3,2.3l0,0
								C315.8,103.2,314.8,104.2,313.5,104.2z"/>
							<path class="st5" d="M313.5,114.7h-81.4c-1.2,0-2.3-1-2.3-2.3l0,0c0-1.2,1-2.3,2.3-2.3h81.4c1.2,0,2.3,1,2.3,2.3l0,0
								C315.8,113.7,314.8,114.7,313.5,114.7z"/>
							<path class="st5" d="M313.5,125.2h-81.4c-1.2,0-2.3-1-2.3-2.3l0,0c0-1.2,1-2.3,2.3-2.3h81.4c1.2,0,2.3,1,2.3,2.3l0,0
								C315.8,124.2,314.8,125.2,313.5,125.2z"/>
						</g>
					</g>
				</g>
			</g>
			
				<linearGradient id="SVGID_00000159431386305673356990000000645733935209872559_" gradientUnits="userSpaceOnUse" x1="380.7106" y1="80.2968" x2="272.6193" y2="-27.7945">
				<stop  offset="0" style="stop-color:#FFFFFF"/>
				<stop  offset="1" style="stop-color:#DFE2F3"/>
			</linearGradient>
			<path style="fill:url(#SVGID_00000159431386305673356990000000645733935209872559_);" d="M349.5,11V5.7l-9.3-2
				c-0.4-2.5-1-4.9-1.9-7.1l7.1-6.3l-2.7-4.6l-9,2.9c-1.5-1.9-3.3-3.7-5.2-5.2l2.9-9l-4.6-2.7l-6.3,7.1c-2.3-0.9-4.7-1.5-7.1-1.9
				l-2-9.3h-5.3l-2,9.3c-2.5,0.4-4.9,1-7.1,1.9l-6.3-7.1l-4.6,2.7l2.9,9c-1.9,1.5-3.7,3.3-5.2,5.2l-9-2.9l-2.7,4.6l7.1,6.3
				c-0.9,2.3-1.5,4.7-1.9,7.1l-9.3,2V11l9.3,2c0.4,2.5,1,4.9,1.9,7.1l-7.1,6.3l2.7,4.6l9-2.9c1.5,1.9,3.3,3.7,5.2,5.2l-2.9,9
				l4.6,2.7l6.3-7.1c2.3,0.9,4.7,1.5,7.1,1.9l2,9.3h5.3l2-9.3c2.5-0.4,4.9-1,7.1-1.9l6.3,7.1l4.6-2.7l-2.9-9
				c1.9-1.5,3.7-3.3,5.2-5.2l9,2.9l2.7-4.6l-7.1-6.3c0.9-2.3,1.5-4.7,1.9-7.1L349.5,11z M331.9,8.3c0,12.8-10.4,23.2-23.2,23.2
				c-12.8,0-23.2-10.4-23.2-23.2c0-12.8,10.4-23.2,23.2-23.2C321.6-14.8,331.9-4.4,331.9,8.3z"/>
			
				<linearGradient id="SVGID_00000085958428257418091060000009005592328944209342_" gradientUnits="userSpaceOnUse" x1="389.0197" y1="71.9878" x2="280.928" y2="-36.1039">
				<stop  offset="0" style="stop-color:#FFFFFF"/>
				<stop  offset="1" style="stop-color:#DFE2F3"/>
			</linearGradient>
			<path style="fill:url(#SVGID_00000085958428257418091060000009005592328944209342_);" d="M386.8,50.4v-2.7l-4.7-1
				c-0.2-1.3-0.5-2.5-1-3.6l3.6-3.2l-1.3-2.3l-4.6,1.5c-0.8-1-1.7-1.9-2.6-2.6l1.5-4.6l-2.3-1.3l-3.2,3.6c-1.1-0.5-2.4-0.8-3.6-1
				l-1-4.7h-2.7l-1,4.7c-1.3,0.2-2.5,0.5-3.6,1l-3.2-3.6l-2.3,1.3l1.5,4.6c-1,0.8-1.9,1.7-2.6,2.6l-4.6-1.5l-1.3,2.3l3.6,3.2
				c-0.5,1.1-0.8,2.4-1,3.6l-4.7,1v2.7l4.7,1c0.2,1.3,0.5,2.5,1,3.6l-3.6,3.2l1.3,2.3l4.6-1.5c0.8,1,1.7,1.9,2.6,2.6l-1.5,4.6
				l2.3,1.3l3.2-3.6c1.1,0.5,2.4,0.8,3.6,1l1,4.7h2.7l1-4.7c1.3-0.2,2.5-0.5,3.6-1l3.2,3.6l2.3-1.3l-1.5-4.6c1-0.8,1.9-1.7,2.6-2.6
				l4.6,1.5l1.3-2.3l-3.6-3.2c0.5-1.1,0.8-2.4,1-3.6L386.8,50.4z M377.9,49.1c0,6.5-5.3,11.8-11.8,11.8c-6.5,0-11.8-5.3-11.8-11.8
				s5.3-11.8,11.8-11.8C372.6,37.3,377.9,42.6,377.9,49.1z"/>
			<g>
				<g>
					
						<linearGradient id="SVGID_00000018212556621207231770000007112052367248314782_" gradientUnits="userSpaceOnUse" x1="430.2187" y1="108.1157" x2="430.2187" y2="17.8218">
						<stop  offset="0" style="stop-color:#C445C0"/>
						<stop  offset="1" style="stop-color:#FF3EFF"/>
					</linearGradient>
					
						<rect x="400.1" y="20.4" style="fill:url(#SVGID_00000018212556621207231770000007112052367248314782_);" width="60.2" height="89.8"/>
					
						<linearGradient id="SVGID_00000031165261296859747090000007500319200123724190_" gradientUnits="userSpaceOnUse" x1="472.7836" y1="96.4077" x2="394.2962" y2="217.7614" gradientTransform="matrix(1 0 0 -0.1143 0 34.6674)">
						<stop  offset="0" style="stop-color:#CCD1EC"/>
						<stop  offset="1" style="stop-color:#FFFFFF"/>
					</linearGradient>
					<path style="fill:url(#SVGID_00000031165261296859747090000007500319200123724190_);" d="M454.9,10.9h-49.5
						c-3,0-5.4,2.4-5.4,5.4v4.1h60.2v-4.1C460.3,13.4,457.9,10.9,454.9,10.9z"/>
					
						<linearGradient id="SVGID_00000148632836464398069700000011926061572312123274_" gradientUnits="userSpaceOnUse" x1="117.9709" y1="-211.5617" x2="39.4829" y2="-90.2071" gradientTransform="matrix(1 0 0 -0.1143 0 34.6674)">
						<stop  offset="0" style="stop-color:#CCD1EC"/>
						<stop  offset="1" style="stop-color:#FFFFFF"/>
					</linearGradient>
					<path style="fill:url(#SVGID_00000148632836464398069700000011926061572312123274_);" d="M460.3,109.7h-60.2v4.1
						c0,3,2.4,5.4,5.4,5.4h49.5c3,0,5.4-2.4,5.4-5.4V109.7z"/>
					<g class="st36">
						<polygon class="st26" points="460.3,20.4 400.1,20.4 400.1,36 460.3,96.2 						"/>
					</g>
				</g>
				<g>
					<g>
						<path class="st26" d="M430.2,73.7c-11.9,0-21.6-9.7-21.6-21.6c0-11.9,9.7-21.6,21.6-21.6s21.6,9.7,21.6,21.6
							C451.9,64,442.2,73.7,430.2,73.7z M430.2,31.7c-11.2,0-20.3,9.1-20.3,20.3c0,11.2,9.1,20.3,20.3,20.3
							c11.2,0,20.3-9.1,20.3-20.3C450.5,40.8,441.4,31.7,430.2,31.7z"/>
					</g>
					<g>
						<path class="st26" d="M430.2,73.7c-6.4,0-11.4-9.5-11.4-21.6c0-12.1,5-21.6,11.4-21.6c6.4,0,11.4,9.5,11.4,21.6
							C441.6,64.2,436.6,73.7,430.2,73.7z M430.2,31.7c-5.5,0-10,9.1-10,20.3c0,11.2,4.5,20.3,10,20.3c5.5,0,10-9.1,10-20.3
							C440.3,40.8,435.8,31.7,430.2,31.7z"/>
					</g>
					<g>
						<path class="st26" d="M430.2,73.2c-0.4,0-0.7,0.2-0.7-0.2V31c0-0.4,0.3-0.2,0.7-0.2c0.4,0,0.7-0.2,0.7,0.2v42
							C430.9,73.4,430.6,73.2,430.2,73.2z"/>
					</g>
					<g>
						<path class="st26" d="M451.2,52.7h-42c-0.4,0-0.7-0.3-0.7-0.7c0-0.4,0.3-0.7,0.7-0.7h42c0.4,0,0.7,0.3,0.7,0.7
							C451.9,52.4,451.6,52.7,451.2,52.7z"/>
					</g>
					<g>
						<path class="st26" d="M430.2,73.7c-5.3,0-10.3-1.9-14.3-5.4c-0.3-0.2-0.3-0.6-0.1-0.9c3.7-4.6,8.9-7.2,14.4-7.2
							c5.5,0,10.7,2.6,14.4,7.2c0.2,0.3,0.2,0.7-0.1,0.9C440.6,71.7,435.5,73.7,430.2,73.7z M417.3,67.7c3.6,3,8.2,4.7,12.9,4.7
							c4.7,0,9.3-1.7,12.9-4.7c-3.4-3.9-8.1-6.2-12.9-6.2C425.4,61.5,420.7,63.7,417.3,67.7z"/>
					</g>
					<g>
						<path class="st26" d="M430.2,43.9c-5.5,0-10.7-2.6-14.4-7.2c-0.2-0.3-0.2-0.7,0.1-0.9c4-3.5,9-5.4,14.3-5.4
							c5.3,0,10.3,1.9,14.3,5.4c0.3,0.2,0.3,0.6,0.1,0.9C440.9,41.3,435.7,43.9,430.2,43.9z M417.3,36.4c3.4,3.9,8.1,6.2,12.9,6.2
							c4.9,0,9.5-2.2,12.9-6.2c-3.6-3-8.2-4.7-12.9-4.7C425.5,31.7,420.9,33.4,417.3,36.4z"/>
					</g>
				</g>
				<polygon class="st26" points="449.6,88.8 433.6,79.5 435,97.9 439.4,92.6 442.6,97.7 446.1,95.5 442.9,90.4 				"/>
			</g>
		</g>
	</g>
	<g style="clip-path:url(#SVGID_00000108288056899309508320000013633090176887117458_);">
		<text transform="matrix(1 0 0 1 290.8174 204.9828)" class="st26 st37 st38">api</text>
	</g>
</g>
</svg>
